<svg width="1605" height="144" viewBox="0 0 1605 144" fill="none" xmlns="http://www.w3.org/2000/svg">
<defs>
<style>
  .quote{  animation: display1 3s linear infinite;
}
@keyframes display1{
    0%{
       transform:translateX(0px);
      opacity:1;
    }
    30%{
        opacity:0;
    }
    50%{
      transform:translateX(150px);
      opacity:0;
    }
    70%{
        opacity:0;
    }
    100%{
        
       transform:translateX(0px);
      opacity:1;
    }

}
  .spotify{
    <!-- display:none; -->
       animation: display2 3s  linear infinite;
}
@keyframes display2{
  0%{
      transform:translateX(-150px);
     opacity:0;
    }
     25%{
        opacity:0;
    }
    50%{
      transform:translateX(0px);
      opacity:1;
    }
    65%{
        opacity:0;
    }
    100%{
      transform:translateX(-150px);
     opacity:0;
    }
}
</style>
</defs>
<rect width="1605" height="144" fill="#0D1117"/>
<path class="quote" d="M743.824 53.1523C746.363 55.457 748.404 58.1328 749.947 61.1797C751.51 64.207 752.291 67.0684 752.291 69.7637C752.291 73.1035 751.188 76.4824 748.98 79.9004C746.793 83.3184 743.98 86.1016 740.543 88.25C740.699 88.4648 742.32 90.3984 745.406 94.0508C747.672 96.7461 748.805 98.4062 748.805 99.0312C748.805 99.6367 748.346 100.281 747.428 100.965C746.51 101.648 745.855 101.99 745.465 101.99C744.781 101.99 744.137 101.658 743.531 100.994C742.516 99.002 741.012 96.7949 739.02 94.373C737.027 91.9512 735.982 90.7402 735.885 90.7402C735.689 90.7402 735.279 90.8281 734.654 91.0039C731.314 91.9414 728.053 92.4102 724.869 92.4102C720.904 92.4102 717.486 91.3066 714.615 89.0996C711.744 86.8926 710.309 83.8945 710.309 80.1055C710.309 75.6523 711.91 70.8477 715.113 65.6914C718.316 60.5352 722.252 56.2578 726.92 52.8594C731.588 49.4609 735.768 47.7617 739.459 47.7617C740.475 47.7617 741.49 48.3379 742.506 49.4902C743.521 50.6426 743.961 51.8633 743.824 53.1523ZM732.398 86.9609C732.301 86.375 731.578 85.3496 730.23 83.8848C728.961 82.5176 728.326 81.7168 728.326 81.4824C728.326 80.8379 728.746 80.2227 729.586 79.6367C730.426 79.0312 730.963 78.7285 731.197 78.7285C731.432 78.7285 731.695 78.6895 731.988 78.6113C733.16 78.3379 733.873 78.7578 734.127 79.8711C734.381 80.9844 734.938 82.0195 735.797 82.9766C736.676 83.9141 737.369 84.3828 737.877 84.3828C739.693 84.3828 741.773 82.8008 744.117 79.6367C746.48 76.4727 747.662 73.4258 747.662 70.4961C747.662 66.3359 746.227 62.459 743.355 58.8652C740.504 55.252 738.307 53.4453 736.764 53.4453C734.01 53.4453 730.943 54.8711 727.564 57.7227C724.186 60.5742 721.354 64.0898 719.068 68.2695C716.783 72.4297 715.641 76.2188 715.641 79.6367C715.641 82.2734 716.49 84.334 718.189 85.8184C719.908 87.2832 722.047 88.0156 724.605 88.0156C727.438 88.0156 730.035 87.6641 732.398 86.9609ZM783.416 79.2559C780.916 83.4551 778.357 86.707 775.74 89.0117C773.123 91.3164 770.691 92.4688 768.445 92.4688C767.156 92.4688 765.838 91.7168 764.49 90.2129C763.162 88.709 762.498 86.3945 762.498 83.2695C762.498 80.7109 763.113 76.9414 764.344 71.9609C765.379 67.8008 765.896 64.8809 765.896 63.2012C766.463 62.0293 767.352 61.4434 768.562 61.4434C769.383 61.4434 770.037 61.7363 770.525 62.3223C771.014 62.8887 771.258 63.4844 771.258 64.1094C771.258 65.4766 770.779 67.4199 769.822 69.9395C768.006 74.8418 767.098 79.0508 767.098 82.5664C767.098 85.7695 767.84 87.3711 769.324 87.3711C771.219 87.3711 773.631 85.7598 776.561 82.5371C779.49 79.3145 782 74.8223 784.09 69.0605C784.91 66.7559 785.574 65.2617 786.082 64.5781C786.609 63.875 787.312 63.5234 788.191 63.5234C789.52 63.5234 790.184 64.4023 790.184 66.1602C790.184 66.375 789.998 67.0879 789.627 68.2988C788.455 72.5762 787.869 76.6191 787.869 80.4277C787.869 84.998 788.621 87.957 790.125 89.3047C790.906 90.0273 791.297 90.6133 791.297 91.0625C791.297 91.6094 790.896 92.1074 790.096 92.5566C789.314 93.0059 788.602 93.2305 787.957 93.2305C786.59 93.2305 785.486 92.2148 784.646 90.1836C783.807 88.1523 783.387 85.1543 783.387 81.1895V80.2227C783.387 79.9102 783.396 79.5879 783.416 79.2559ZM810.908 93.4648C808.232 93.4648 806.025 92.4492 804.287 90.418C802.549 88.3867 801.68 85.877 801.68 82.8887C801.68 77.8496 803.369 72.8887 806.748 68.0059C810.146 63.1035 814.209 60.6523 818.936 60.6523C822.061 60.6523 824.59 61.8535 826.523 64.2559C828.477 66.6582 829.453 69.5195 829.453 72.8398C829.453 77.918 827.441 82.625 823.418 86.9609C819.414 91.2969 815.244 93.4648 810.908 93.4648ZM806.836 82.127C806.836 84.0996 807.246 85.7109 808.066 86.9609C808.906 88.2109 810.01 88.8359 811.377 88.8359C814.287 88.8359 817.207 87.2441 820.137 84.0605C823.066 80.8574 824.531 77.3027 824.531 73.3965C824.531 70.9941 823.965 69.0508 822.832 67.5664C821.719 66.0625 820.215 65.3105 818.32 65.3105C815.176 65.3105 812.471 67.2441 810.205 71.1113C807.959 74.959 806.836 78.6309 806.836 82.127ZM851.203 62.4395C853.215 62.2832 855.109 62.0977 856.887 61.8828C858.645 61.6875 860.109 61.5898 861.281 61.5898C862.766 61.5898 863.703 61.7266 864.094 62C864.484 62.2734 864.68 62.752 864.68 63.4355C864.68 65.0176 863.576 65.877 861.369 66.0137C858.537 66.1895 855.93 66.4336 853.547 66.7461C851.164 67.0586 849.875 67.3223 849.68 67.5371C849.504 67.7324 848.918 70.0566 847.922 74.5098C846.926 78.9434 846.428 81.8242 846.428 83.1523C846.428 85.3008 846.711 86.7363 847.277 87.459C847.844 88.1621 848.693 88.5137 849.826 88.5137C851.506 88.5137 853.84 87.2539 856.828 84.7344C857.98 83.6992 858.869 83.1816 859.494 83.1816C860.334 83.1816 860.754 83.6309 860.754 84.5293C860.754 85.9355 859.396 87.7617 856.682 90.0078C853.986 92.2344 851.223 93.3477 848.391 93.3477C843.664 93.3477 841.301 90.5645 841.301 84.998C841.301 82.9863 841.789 79.8711 842.766 75.6523C843.723 71.4531 844.201 68.9336 844.201 68.0938C844.201 67.8008 843.967 67.6543 843.498 67.6543L840.451 67.918C837.951 67.918 836.701 66.9219 836.701 64.9297C836.701 63.7969 837.277 63.2305 838.43 63.2305H844.465C844.875 63.2305 845.236 63.0449 845.549 62.6738C845.861 62.3027 846.32 61.0625 846.926 58.9531C847.531 56.8242 848.068 54.7246 848.537 52.6543C849.006 50.6035 849.924 49.5781 851.291 49.5781C852.131 49.5781 852.785 49.8711 853.254 50.457C853.723 51.043 853.957 51.5898 853.957 52.0977C853.957 52.3711 853.605 53.7676 852.902 56.2871L851.203 62.4395ZM895.482 82.0684C895.482 84.0605 893.715 86.4629 890.18 89.2754C886.664 92.0879 883.031 93.4941 879.281 93.4941C876.137 93.4941 873.705 92.5664 871.986 90.7109C870.287 88.8555 869.438 86.2676 869.438 82.9473C869.438 77.3613 871.322 72.0488 875.092 67.0098C878.861 61.9707 882.982 59.4512 887.455 59.4512C888.92 59.4512 890.111 59.9297 891.029 60.8867C891.967 61.8438 892.436 62.9961 892.436 64.3438C892.436 67.3516 890.961 70.2324 888.012 72.9863C885.062 75.7402 881.117 78.4453 876.176 81.1016C875.16 81.6289 874.652 82.3125 874.652 83.1523C874.652 84.7734 875.121 86.0723 876.059 87.0488C876.996 88.0254 878.383 88.5137 880.219 88.5137C884.418 88.5137 888.705 86.1895 893.08 81.541C893.725 80.8965 894.213 80.5742 894.545 80.5742C895.17 80.5742 895.482 81.0723 895.482 82.0684ZM875.121 77.498C883.402 72.5762 887.543 68.6211 887.543 65.6328C887.543 64.4609 887.016 63.875 885.961 63.875C884.164 63.875 882.133 65.1934 879.867 67.8301C877.621 70.4668 876.039 73.6895 875.121 77.498Z" fill="white"/>
<path class="spotify" d="M719.086 59.3047C719.086 56.707 718.412 55.125 717.064 54.5586C715.717 53.9727 714.037 53.6797 712.025 53.6797C707.885 53.6797 704.125 54.5 700.746 56.1406C697.387 57.7617 695.707 59.7148 695.707 62C695.707 63.6406 696.449 65.0762 697.934 66.3066C699.438 67.5176 702.699 68.8555 707.719 70.3203C712.582 71.7266 716.039 73.1816 718.09 74.6855C720.16 76.1699 721.195 77.9668 721.195 80.0762C721.195 82.2051 719.76 84.5098 716.889 86.9902C714.018 89.4512 710.551 91.3262 706.488 92.6152C702.445 93.9043 699.008 94.5488 696.176 94.5488C693.812 94.5488 692.016 94.2656 690.785 93.6992C689.574 93.1523 688.969 92.459 688.969 91.6191C688.969 91.0332 689.145 90.3203 689.496 89.4805C689.867 88.6211 690.238 88.1914 690.609 88.1914C691 88.1914 691.4 88.2598 691.811 88.3965C693.9 89.1777 695.971 89.5684 698.021 89.5684C701.713 89.5684 705.629 88.4941 709.77 86.3457C713.91 84.1777 715.98 82.1562 715.98 80.2812C715.98 79.4805 715.346 78.7188 714.076 77.9961C712.826 77.2539 709.643 76.0723 704.525 74.4512C698.178 72.4395 694.271 70.4863 692.807 68.5918C691.361 66.6777 690.639 64.666 690.639 62.5566C690.639 58.4941 692.973 55.2227 697.641 52.7422C702.309 50.2422 707.191 48.9922 712.289 48.9922C715.668 48.9922 718.266 49.5684 720.082 50.7207C721.898 51.8535 722.807 53.1133 722.807 54.5C722.807 55.1641 722.602 56.1309 722.191 57.4004C721.781 58.6699 720.746 59.3047 719.086 59.3047ZM737.203 88.6016C736.246 92.1172 735.348 97.0488 734.508 103.396L733.688 108.934C733.551 109.715 733.189 110.486 732.604 111.248C732.018 112.029 731.48 112.42 730.992 112.42C730.387 112.42 729.693 112.107 728.912 111.482C728.15 110.877 727.77 110.389 727.77 110.018C727.77 108.943 728.014 107.459 728.502 105.564C732.076 91.1309 733.863 78.4551 733.863 67.5371L733.834 65.0762C733.795 62.9668 734.166 61.4336 734.947 60.4766C735.729 59.5195 736.627 59.041 737.643 59.041C738.111 59.041 738.561 59.4121 738.99 60.1543C739.42 60.877 739.635 61.9121 739.635 63.2598C739.635 65.1543 739.439 67.4492 739.049 70.1445C738.541 73.543 738.277 75.4961 738.258 76.0039C741.168 70.9258 744.254 66.9609 747.516 64.1094C750.777 61.2578 753.805 59.832 756.598 59.832C758.57 59.832 760.23 60.5742 761.578 62.0586C762.945 63.5234 763.629 65.3496 763.629 67.5371C763.629 73.9043 761.188 79.6855 756.305 84.8809C751.422 90.0762 746.666 92.6738 742.037 92.6738C740.885 92.6738 739.967 92.3809 739.283 91.7949C738.619 91.209 737.926 90.1445 737.203 88.6016ZM755.396 65.0176C752.643 65.0176 749.234 67.5957 745.172 72.752C741.109 77.9082 739.078 81.9219 739.078 84.793C739.078 85.4961 739.479 86.1797 740.279 86.8438C741.08 87.5078 742.096 87.8398 743.326 87.8398C746.119 87.8398 749.332 85.7793 752.965 81.6582C756.598 77.5176 758.414 73.4551 758.414 69.4707C758.414 68.0449 758.121 66.9512 757.535 66.1895C756.969 65.4082 756.256 65.0176 755.396 65.0176ZM781.893 93.4648C779.217 93.4648 777.01 92.4492 775.271 90.418C773.533 88.3867 772.664 85.877 772.664 82.8887C772.664 77.8496 774.354 72.8887 777.732 68.0059C781.131 63.1035 785.193 60.6523 789.92 60.6523C793.045 60.6523 795.574 61.8535 797.508 64.2559C799.461 66.6582 800.438 69.5195 800.438 72.8398C800.438 77.918 798.426 82.625 794.402 86.9609C790.398 91.2969 786.229 93.4648 781.893 93.4648ZM777.82 82.127C777.82 84.0996 778.23 85.7109 779.051 86.9609C779.891 88.2109 780.994 88.8359 782.361 88.8359C785.271 88.8359 788.191 87.2441 791.121 84.0605C794.051 80.8574 795.516 77.3027 795.516 73.3965C795.516 70.9941 794.949 69.0508 793.816 67.5664C792.703 66.0625 791.199 65.3105 789.305 65.3105C786.16 65.3105 783.455 67.2441 781.189 71.1113C778.943 74.959 777.82 78.6309 777.82 82.127ZM822.188 62.4395C824.199 62.2832 826.094 62.0977 827.871 61.8828C829.629 61.6875 831.094 61.5898 832.266 61.5898C833.75 61.5898 834.688 61.7266 835.078 62C835.469 62.2734 835.664 62.752 835.664 63.4355C835.664 65.0176 834.561 65.877 832.354 66.0137C829.521 66.1895 826.914 66.4336 824.531 66.7461C822.148 67.0586 820.859 67.3223 820.664 67.5371C820.488 67.7324 819.902 70.0566 818.906 74.5098C817.91 78.9434 817.412 81.8242 817.412 83.1523C817.412 85.3008 817.695 86.7363 818.262 87.459C818.828 88.1621 819.678 88.5137 820.811 88.5137C822.49 88.5137 824.824 87.2539 827.812 84.7344C828.965 83.6992 829.854 83.1816 830.479 83.1816C831.318 83.1816 831.738 83.6309 831.738 84.5293C831.738 85.9355 830.381 87.7617 827.666 90.0078C824.971 92.2344 822.207 93.3477 819.375 93.3477C814.648 93.3477 812.285 90.5645 812.285 84.998C812.285 82.9863 812.773 79.8711 813.75 75.6523C814.707 71.4531 815.186 68.9336 815.186 68.0938C815.186 67.8008 814.951 67.6543 814.482 67.6543L811.436 67.918C808.936 67.918 807.686 66.9219 807.686 64.9297C807.686 63.7969 808.262 63.2305 809.414 63.2305H815.449C815.859 63.2305 816.221 63.0449 816.533 62.6738C816.846 62.3027 817.305 61.0625 817.91 58.9531C818.516 56.8242 819.053 54.7246 819.521 52.6543C819.99 50.6035 820.908 49.5781 822.275 49.5781C823.115 49.5781 823.77 49.8711 824.238 50.457C824.707 51.043 824.941 51.5898 824.941 52.0977C824.941 52.3711 824.59 53.7676 823.887 56.2871L822.188 62.4395ZM850.822 52.7715C850.412 52.7715 850.1 52.332 849.885 51.4531C849.807 51.1797 849.699 50.877 849.562 50.5449C849.035 49.2754 848.771 48.1719 848.771 47.2344C848.771 46.4531 849.23 45.6621 850.148 44.8613C851.086 44.041 852.121 43.6309 853.254 43.6309C853.82 43.6309 854.455 43.8555 855.158 44.3047C855.861 44.7344 856.213 45.1543 856.213 45.5645C856.213 46.209 855.969 47.3027 855.48 48.8457C855.012 50.3887 854.25 51.4336 853.195 51.9805C852.16 52.5078 851.369 52.7715 850.822 52.7715ZM846.984 85.4961C846.984 86.9805 847.189 88.6504 847.6 90.5059C847.678 90.8574 847.717 91.1504 847.717 91.3848C847.717 91.7363 847.395 92.1855 846.75 92.7324C846.105 93.2988 845.422 93.582 844.699 93.582C842.805 93.582 841.857 91.8438 841.857 88.3672C841.857 84.7734 842.6 79.0898 844.084 71.3164C844.592 68.6016 844.846 66.9316 844.846 66.3066C844.846 65.0762 845.07 64.0312 845.52 63.1719C845.969 62.293 846.604 61.8535 847.424 61.8535C848.42 61.8535 849.201 62.0977 849.768 62.5859C850.354 63.0547 850.646 63.582 850.646 64.168C850.646 64.7539 850.51 65.5254 850.236 66.4824C848.771 71.6387 847.863 75.3301 847.512 77.5566C847.16 79.7832 846.984 82.4297 846.984 85.4961ZM867.562 93.3477C867.426 93.8359 867.055 94.2461 866.449 94.5781C865.844 94.9102 865.238 95.0762 864.633 95.0762C862.641 95.0762 861.645 93.6211 861.645 90.7109C861.645 89.3242 862.104 85.3984 863.021 78.9336C863.588 74.9688 863.871 71.9609 863.871 69.9102C863.871 69.5586 863.461 69.0996 862.641 68.5332C861.801 67.9863 861.381 67.4492 861.381 66.9219C861.381 66.082 862.016 65.1738 863.285 64.1973C864.262 63.4355 864.857 62.5859 865.072 61.6484C865.307 60.7109 865.57 59.4121 865.863 57.752C866.859 51.6973 868.412 47.332 870.521 44.6562C872.65 41.9805 875.355 40.6426 878.637 40.6426C880.375 40.6426 881.85 41.2383 883.061 42.4297C884.271 43.6016 884.877 45.0664 884.877 46.8242C884.877 48.25 884.535 49.8711 883.852 51.6875C883.188 53.4844 882.426 54.3828 881.566 54.3828C880.922 54.3828 880.6 54.0605 880.6 53.416L880.805 50.5742C880.805 46.8047 879.75 44.9199 877.641 44.9199C875.355 44.9199 873.461 47.166 871.957 51.6582C870.453 56.1309 869.701 59.7734 869.701 62.5859C869.701 63.4844 870.287 63.9336 871.459 63.9336C876.557 63.9336 879.555 63.9141 880.453 63.875C881.371 63.8359 881.83 64.2168 881.83 65.0176C881.83 65.8184 881.332 66.4336 880.336 66.8633C879.359 67.2734 877.211 67.6445 873.891 67.9766C871.059 68.2695 869.457 68.5137 869.086 68.709C867.777 75.9746 867.123 82.4492 867.123 88.1328C867.123 89.832 867.201 91.0918 867.357 91.9121C867.494 92.6738 867.562 93.1523 867.562 93.3477ZM908.766 81.6582C905.172 84.7832 902.008 87.0586 899.273 88.4844C896.559 89.8906 894.479 90.5938 893.033 90.5938C891.1 90.5938 889.615 89.793 888.58 88.1914C887.564 86.5703 887.057 84.6855 887.057 82.5371C887.057 79.5293 887.662 75.8184 888.873 71.4043C890.104 66.9707 891.012 64.3438 891.598 63.5234C892.203 62.6836 893.16 62.2637 894.469 62.2637C895.016 62.2637 895.465 62.5859 895.816 63.2305C896.168 63.875 896.344 64.6074 896.344 65.4277C896.344 65.916 896.119 66.5508 895.67 67.332C894.615 69.168 894.059 70.1836 894 70.3789C893.961 70.5742 893.59 71.7559 892.887 73.9238C892.184 76.0723 891.832 78.0938 891.832 79.9883C891.832 80.6523 891.988 81.6875 892.301 83.0938C892.633 84.5 893.307 85.2031 894.322 85.2031C895.396 85.2031 896.715 84.8809 898.277 84.2363C899.859 83.5723 901.637 82.498 903.609 81.0137C905.582 79.5293 906.91 78.3281 907.594 77.4102C908.277 76.4922 908.756 75.4473 909.029 74.2754C909.322 73.1035 909.527 70.5645 909.645 66.6582C909.762 62.752 910.709 60.7988 912.486 60.7988C913.541 60.7988 914.225 61.082 914.537 61.6484C914.85 62.1953 915.006 63.25 915.006 64.8125C915.006 66.1016 914.918 67.7129 914.742 69.6465C914.527 72.0879 914.391 73.8262 914.332 74.8613C914.059 80.2324 913.355 85.6328 912.223 91.0625C911.109 96.4727 909.479 100.994 907.33 104.627C905.182 108.279 902.223 110.105 898.453 110.105C894.625 110.105 891.217 109.1 888.229 107.088C885.26 105.096 883.775 103.406 883.775 102.02C883.775 101.375 883.922 100.74 884.215 100.115C884.527 99.4902 884.918 99.1777 885.387 99.1777C885.621 99.1777 885.875 99.3633 886.148 99.7344C888.707 103.66 892.73 105.623 898.219 105.623C901.051 105.623 903.424 103.133 905.338 98.1523C907.271 93.1914 908.336 88.5332 908.531 84.1777C908.57 83.3379 908.648 82.498 908.766 81.6582Z" fill="white"/>
<path d="M641 108.341C842 200.5 1134.96 75.9999 1603.5 76" stroke="url(#paint0_linear_257_290)" stroke-width="3" stroke-linecap="square"/>
<path d="M948.5 27.4114C744.285 -54.6741 469.773 88.5001 1.5 88.5" stroke="url(#paint1_linear_257_290)" stroke-width="3" stroke-linecap="square"/>
<defs>
<linearGradient id="paint0_linear_257_290" x1="754" y1="142" x2="716.716" y2="50.8815" gradientUnits="userSpaceOnUse">
<stop stop-color="white"/>
<stop offset="1" stop-opacity="0"/>
</linearGradient>
<linearGradient id="paint1_linear_257_290" x1="789.724" y1="43.8234" x2="844.327" y2="124.891" gradientUnits="userSpaceOnUse">
<stop stop-color="white"/>
<stop offset="1" stop-opacity="0"/>
</linearGradient>
</defs>
</svg>
