<svg width="1605" height="144" viewBox="0 0 1605 144" fill="none" xmlns="http://www.w3.org/2000/svg">
<rect width="1605" height="144" />
<path d="M760 59.3047C760 56.707 759.326 55.125 757.979 54.5586C756.631 53.9727 754.951 53.6797 752.939 53.6797C748.799 53.6797 745.039 54.5 741.66 56.1406C738.301 57.7617 736.621 59.7148 736.621 62C736.621 63.6406 737.363 65.0762 738.848 66.3066C740.352 67.5176 743.613 68.8555 748.633 70.3203C753.496 71.7266 756.953 73.1816 759.004 74.6855C761.074 76.1699 762.109 77.9668 762.109 80.0762C762.109 82.2051 760.674 84.5098 757.803 86.9902C754.932 89.4512 751.465 91.3262 747.402 92.6152C743.359 93.9043 739.922 94.5488 737.09 94.5488C734.727 94.5488 732.93 94.2656 731.699 93.6992C730.488 93.1523 729.883 92.459 729.883 91.6191C729.883 91.0332 730.059 90.3203 730.41 89.4805C730.781 88.6211 731.152 88.1914 731.523 88.1914C731.914 88.1914 732.314 88.2598 732.725 88.3965C734.814 89.1777 736.885 89.5684 738.936 89.5684C742.627 89.5684 746.543 88.4941 750.684 86.3457C754.824 84.1777 756.895 82.1562 756.895 80.2812C756.895 79.4805 756.26 78.7188 754.99 77.9961C753.74 77.2539 750.557 76.0723 745.439 74.4512C739.092 72.4395 735.186 70.4863 733.721 68.5918C732.275 66.6777 731.553 64.666 731.553 62.5566C731.553 58.4941 733.887 55.2227 738.555 52.7422C743.223 50.2422 748.105 48.9922 753.203 48.9922C756.582 48.9922 759.18 49.5684 760.996 50.7207C762.812 51.8535 763.721 53.1133 763.721 54.5C763.721 55.1641 763.516 56.1309 763.105 57.4004C762.695 58.6699 761.66 59.3047 760 59.3047ZM781.146 78.3184C781.4 77.9863 783.148 76.4141 786.391 73.6016C789.457 70.9258 791.596 68.9824 792.807 67.7715C797.318 63.2598 800.561 61.0039 802.533 61.0039C804.057 61.0039 804.818 61.7363 804.818 63.2012C804.818 64.8613 804.066 66.082 802.562 66.8633C800.609 67.8594 798.002 69.5195 794.74 71.8438C791.479 74.1484 789.848 75.7793 789.848 76.7363C789.848 77.127 791 78.5918 793.305 81.1309C795.609 83.6504 797.602 85.5156 799.281 86.7266C800.961 87.918 802.592 88.5137 804.174 88.5137L805.141 88.4844C805.824 88.4453 806.166 88.748 806.166 89.3926C806.166 90.252 805.629 91.1211 804.555 92C803.48 92.8984 802.064 93.3477 800.307 93.3477C799.174 93.3477 798.021 92.9473 796.85 92.1465C795.697 91.3652 793.637 89.2363 790.668 85.7598C788.305 82.8887 786.83 81.1797 786.244 80.6328C785.658 80.0664 785.17 79.7832 784.779 79.7832C784.564 79.7832 783.881 80.291 782.729 81.3066C781.576 82.3223 780.941 83.0938 780.824 83.6211C780.727 84.1484 780.678 86.1602 780.678 89.6562V91.0332C780.678 91.7559 780.336 92.4004 779.652 92.9668C778.969 93.5332 778.227 93.8164 777.426 93.8164C776.605 93.8164 775.961 93.5723 775.492 93.084C775.023 92.6152 774.789 92.127 774.789 91.6191C774.789 90.916 775.053 89.2559 775.58 86.6387C776.322 82.8691 777.006 77.8203 777.631 71.4922C779.076 56.5508 780.189 48.1035 780.971 46.1504C781.752 44.1777 782.865 43.1914 784.311 43.1914C784.818 43.1914 785.238 43.4648 785.57 44.0117C785.922 44.5586 786.098 45.2617 786.098 46.1211C786.098 47.6836 785.424 51.834 784.076 58.5723C782.729 65.3301 781.752 71.9121 781.146 78.3184ZM826.404 52.7715C825.994 52.7715 825.682 52.332 825.467 51.4531C825.389 51.1797 825.281 50.877 825.145 50.5449C824.617 49.2754 824.354 48.1719 824.354 47.2344C824.354 46.4531 824.812 45.6621 825.73 44.8613C826.668 44.041 827.703 43.6309 828.836 43.6309C829.402 43.6309 830.037 43.8555 830.74 44.3047C831.443 44.7344 831.795 45.1543 831.795 45.5645C831.795 46.209 831.551 47.3027 831.062 48.8457C830.594 50.3887 829.832 51.4336 828.777 51.9805C827.742 52.5078 826.951 52.7715 826.404 52.7715ZM822.566 85.4961C822.566 86.9805 822.771 88.6504 823.182 90.5059C823.26 90.8574 823.299 91.1504 823.299 91.3848C823.299 91.7363 822.977 92.1855 822.332 92.7324C821.688 93.2988 821.004 93.582 820.281 93.582C818.387 93.582 817.439 91.8438 817.439 88.3672C817.439 84.7734 818.182 79.0898 819.666 71.3164C820.174 68.6016 820.428 66.9316 820.428 66.3066C820.428 65.0762 820.652 64.0312 821.102 63.1719C821.551 62.293 822.186 61.8535 823.006 61.8535C824.002 61.8535 824.783 62.0977 825.35 62.5859C825.936 63.0547 826.229 63.582 826.229 64.168C826.229 64.7539 826.092 65.5254 825.818 66.4824C824.354 71.6387 823.445 75.3301 823.094 77.5566C822.742 79.7832 822.566 82.4297 822.566 85.4961ZM850.568 42.4004C851.975 42.4004 852.678 43.2988 852.678 45.0957C852.678 46.6973 851.828 50.5059 850.129 56.5215C849.055 60.3105 848.225 64.4902 847.639 69.0605C847.053 73.6309 846.76 77.2148 846.76 79.8125C846.76 83.0352 846.965 86.2383 847.375 89.4219C847.453 90.0273 847.492 90.4668 847.492 90.7402C847.492 91.7168 847.16 92.5566 846.496 93.2598C845.832 93.9629 845.129 94.3145 844.387 94.3145C843.352 94.3145 842.629 93.6699 842.219 92.3809C841.828 91.0918 841.633 89.0117 841.633 86.1406C841.633 79.5977 842.414 71.4922 843.977 61.8242C845.559 52.1562 846.809 46.502 847.727 44.8613C848.664 43.2207 849.611 42.4004 850.568 42.4004ZM873.736 42.4004C875.143 42.4004 875.846 43.2988 875.846 45.0957C875.846 46.6973 874.996 50.5059 873.297 56.5215C872.223 60.3105 871.393 64.4902 870.807 69.0605C870.221 73.6309 869.928 77.2148 869.928 79.8125C869.928 83.0352 870.133 86.2383 870.543 89.4219C870.621 90.0273 870.66 90.4668 870.66 90.7402C870.66 91.7168 870.328 92.5566 869.664 93.2598C869 93.9629 868.297 94.3145 867.555 94.3145C866.52 94.3145 865.797 93.6699 865.387 92.3809C864.996 91.0918 864.801 89.0117 864.801 86.1406C864.801 79.5977 865.582 71.4922 867.145 61.8242C868.727 52.1562 869.977 46.502 870.895 44.8613C871.832 43.2207 872.779 42.4004 873.736 42.4004Z" fill="white"/>
<path d="M641 108.341C842 200.5 1134.96 75.9999 1603.5 76" stroke="url(#paint0_linear_254_275)" stroke-width="3" stroke-linecap="square"/>
<path d="M948.5 27.4114C744.285 -54.6741 469.773 88.5001 1.5 88.5" stroke="url(#paint1_linear_254_275)" stroke-width="3" stroke-linecap="square"/>
<defs>
<linearGradient id="paint0_linear_254_275" x1="754" y1="142" x2="716.716" y2="50.8815" gradientUnits="userSpaceOnUse">
<stop stop-color="white"/>
<stop offset="1" stop-opacity="0"/>
</linearGradient>
<linearGradient id="paint1_linear_254_275" x1="789.724" y1="43.8234" x2="844.327" y2="124.891" gradientUnits="userSpaceOnUse">
<stop stop-color="white"/>
<stop offset="1" stop-opacity="0"/>
</linearGradient>
</defs>
</svg>
