<svg width="90" height="90" viewBox="0 0 90 90" fill="none" xmlns="http://www.w3.org/2000/svg">
<g filter="url(#filter0_d_283_52)">
<path d="M45 25C33.9546 25 25 33.9546 25 45C25 54.4438 31.5477 62.3538 40.35 64.4508C39.8946 64.3423 39.4431 64.2208 39 64.0823V59.5C39 59.5 38.25 59.75 37.25 59.75C34.4523 59.75 33.29 57.2538 33 56C32.8238 55.2362 32.3638 54.5123 31.87 54.07C31.28 53.5438 31.0038 53.5423 31 53.3623C30.9923 52.9846 31.5062 53 31.75 53C33 53 33.9477 54.33 34.3877 55.0177C35.4777 56.7154 36.6477 57 37.25 57C38 57 38.6477 56.8877 39.0938 56.6723C39.3 55.22 39.9462 53.9262 41 53C36.31 52.0623 33 49.3723 33 45C33 42.7477 33.9038 40.6777 35.41 39.0062C35.2562 38.57 35 37.6877 35 36.25C35 35.3 35.0662 34.1338 35.5 33C35.5 33 38.3523 33.02 41.0423 35.5677C42.2838 35.2062 43.6123 35 45 35C46.3877 35 47.7162 35.2062 48.9577 35.5677C51.6477 33.02 54.5 33 54.5 33C54.9362 34.1338 55 35.3 55 36.25C55 37.8 54.7938 38.7038 54.6677 39.0938C56.1277 40.75 57 42.7877 57 45C57 49.3723 53.69 52.0623 49 53C50.2523 54.1 51 55.7023 51 57.5V64.0823C50.5569 64.2215 50.1062 64.3423 49.65 64.4508C58.4523 62.3538 65 54.4438 65 45C65 33.9546 56.0454 25 45 25ZM46.3946 64.9462C45.9338 64.9785 45.4692 65 45 65C45.4692 65 45.9331 64.9777 46.3946 64.9462ZM45 65C44.5308 65 44.0662 64.9785 43.6054 64.9462C44.0669 64.9777 44.5308 65 45 65ZM43.2985 64.9231C42.3623 64.8438 41.4438 64.7008 40.5492 64.4969C41.4446 64.7 42.3623 64.8438 43.2985 64.9231Z" fill="white"/>
</g>
<defs>
<filter id="filter0_d_283_52" x="0" y="0" width="90" height="90" filterUnits="userSpaceOnUse" color-interpolation-filters="sRGB">
<feFlood flood-opacity="0" result="BackgroundImageFix"/>
<feColorMatrix in="SourceAlpha" type="matrix" values="0 0 0 0 0 0 0 0 0 0 0 0 0 0 0 0 0 0 127 0" result="hardAlpha"/>
<feOffset/>
<feGaussianBlur stdDeviation="12.5"/>
<feComposite in2="hardAlpha" operator="out"/>
<feColorMatrix type="matrix" values="0 0 0 0 1 0 0 0 0 1 0 0 0 0 1 0 0 0 1 0"/>
<feBlend mode="normal" in2="BackgroundImageFix" result="effect1_dropShadow_283_52"/>
<feBlend mode="normal" in="SourceGraphic" in2="effect1_dropShadow_283_52" result="shape"/>
</filter>
</defs>
</svg>
