<svg width="100" height="60" viewBox="0 0 100 60" fill="none" xmlns="http://www.w3.org/2000/svg">
<path d="M50 10C44.6957 10 39.6086 12.1071 35.8579 15.8579C32.1071 19.6086 30 24.6957 30 30C30 35.3043 32.1071 40.3914 35.8579 44.1421C39.6086 47.8929 44.6957 50 50 50C55.3043 50 60.3914 47.8929 64.1421 44.1421C67.8929 40.3914 70 35.3043 70 30C70 24.6957 67.8929 19.6086 64.1421 15.8579C60.3914 12.1071 55.3043 10 50 10Z" fill="black"/>
<path d="M50 10C38.9546 10 30 18.9546 30 30C30 39.4438 36.5477 47.3538 45.35 49.4508C44.8946 49.3423 44.4431 49.2208 44 49.0823V44.5C44 44.5 43.25 44.75 42.25 44.75C39.4523 44.75 38.29 42.2538 38 41C37.8238 40.2362 37.3638 39.5123 36.87 39.07C36.28 38.5438 36.0038 38.5423 36 38.3623C35.9923 37.9846 36.5062 38 36.75 38C38 38 38.9477 39.33 39.3877 40.0177C40.4777 41.7154 41.6477 42 42.25 42C43 42 43.6477 41.8877 44.0938 41.6723C44.3 40.22 44.9462 38.9262 46 38C41.31 37.0623 38 34.3723 38 30C38 27.7477 38.9038 25.6777 40.41 24.0062C40.2562 23.57 40 22.6877 40 21.25C40 20.3 40.0662 19.1338 40.5 18C40.5 18 43.3523 18.02 46.0423 20.5677C47.2838 20.2062 48.6123 20 50 20C51.3877 20 52.7162 20.2062 53.9577 20.5677C56.6477 18.02 59.5 18 59.5 18C59.9362 19.1338 60 20.3 60 21.25C60 22.8 59.7938 23.7038 59.6677 24.0938C61.1277 25.75 62 27.7877 62 30C62 34.3723 58.69 37.0623 54 38C55.2523 39.1 56 40.7023 56 42.5V49.0823C55.5569 49.2215 55.1062 49.3423 54.65 49.4508C63.4523 47.3538 70 39.4438 70 30C70 18.9546 61.0454 10 50 10ZM51.3946 49.9462C50.9338 49.9785 50.4692 50 50 50C50.4692 50 50.9331 49.9777 51.3946 49.9462ZM50 50C49.5308 50 49.0662 49.9785 48.6054 49.9462C49.0669 49.9777 49.5308 50 50 50ZM48.2985 49.9231C47.3623 49.8438 46.4438 49.7008 45.5492 49.4969C46.4446 49.7 47.3623 49.8438 48.2985 49.9231Z" fill="url(#paint0_linear_283_52)"/>
<path d="M36.2114 16.2114C39.8684 12.5545 44.8283 10.5 50 10.5C55.1717 10.5 60.1316 12.5545 63.7886 16.2114C67.4455 19.8684 69.5 24.8283 69.5 30C69.5 35.1717 67.4455 40.1316 63.7886 43.7886C60.1316 47.4455 55.1717 49.5 50 49.5C44.8283 49.5 39.8684 47.4455 36.2114 43.7886C32.5545 40.1316 30.5 35.1717 30.5 30C30.5 24.8283 32.5545 19.8684 36.2114 16.2114Z" stroke="white"/>
<defs>
<linearGradient id="paint0_linear_283_52" x1="50" y1="10" x2="50" y2="50" gradientUnits="userSpaceOnUse">
<stop stop-color="#CDC9FF"/>
<stop offset="1" stop-color="#4E4B6D"/>
</linearGradient>
</defs>
</svg>
