<svg width="140" height="200" viewBox="0 0 140 200" fill="none" xmlns="http://www.w3.org/2000/svg">
<path d="M3 0H138V200H3V0Z" fill="#0D1117"/>
<g filter="url(#filter0_dd_283_52)">
<path d="M70 80C58.9546 80 50 88.9546 50 100C50 109.444 56.5477 117.354 65.35 119.451C64.8946 119.342 64.4431 119.221 64 119.082V114.5C64 114.5 63.25 114.75 62.25 114.75C59.4523 114.75 58.29 112.254 58 111C57.8238 110.236 57.3638 109.512 56.87 109.07C56.28 108.544 56.0038 108.542 56 108.362C55.9923 107.985 56.5062 108 56.75 108C58 108 58.9477 109.33 59.3877 110.018C60.4777 111.715 61.6477 112 62.25 112C63 112 63.6477 111.888 64.0938 111.672C64.3 110.22 64.9462 108.926 66 108C61.31 107.062 58 104.372 58 100C58 97.7477 58.9038 95.6777 60.41 94.0062C60.2562 93.57 60 92.6877 60 91.25C60 90.3 60.0662 89.1338 60.5 88C60.5 88 63.3523 88.02 66.0423 90.5677C67.2838 90.2062 68.6123 90 70 90C71.3877 90 72.7162 90.2062 73.9577 90.5677C76.6477 88.02 79.5 88 79.5 88C79.9362 89.1338 80 90.3 80 91.25C80 92.8 79.7938 93.7038 79.6677 94.0938C81.1277 95.75 82 97.7877 82 100C82 104.372 78.69 107.062 74 108C75.2523 109.1 76 110.702 76 112.5V119.082C75.5569 119.222 75.1062 119.342 74.65 119.451C83.4523 117.354 90 109.444 90 100C90 88.9546 81.0454 80 70 80ZM71.3946 119.946C70.9338 119.978 70.4692 120 70 120C70.4692 120 70.9331 119.978 71.3946 119.946ZM70 120C69.5308 120 69.0662 119.978 68.6054 119.946C69.0669 119.978 69.5308 120 70 120ZM68.2985 119.923C67.3623 119.844 66.4438 119.701 65.5492 119.497C66.4446 119.7 67.3623 119.844 68.2985 119.923Z" fill="white"/>
</g>
<defs>
<filter id="filter0_dd_283_52" x="0" y="30" width="140" height="140" filterUnits="userSpaceOnUse" color-interpolation-filters="sRGB">
<feFlood flood-opacity="0" result="BackgroundImageFix"/>
<feColorMatrix in="SourceAlpha" type="matrix" values="0 0 0 0 0 0 0 0 0 0 0 0 0 0 0 0 0 0 127 0" result="hardAlpha"/>
<feOffset/>
<feGaussianBlur stdDeviation="25"/>
<feComposite in2="hardAlpha" operator="out"/>
<feColorMatrix type="matrix" values="0 0 0 0 1 0 0 0 0 1 0 0 0 0 1 0 0 0 1 0"/>
<feBlend mode="normal" in2="BackgroundImageFix" result="effect1_dropShadow_283_52"/>
<feColorMatrix in="SourceAlpha" type="matrix" values="0 0 0 0 0 0 0 0 0 0 0 0 0 0 0 0 0 0 127 0" result="hardAlpha"/>
<feOffset/>
<feGaussianBlur stdDeviation="12.5"/>
<feComposite in2="hardAlpha" operator="out"/>
<feColorMatrix type="matrix" values="0 0 0 0 1 0 0 0 0 1 0 0 0 0 1 0 0 0 1 0"/>
<feBlend mode="normal" in2="effect1_dropShadow_283_52" result="effect2_dropShadow_283_52"/>
<feBlend mode="normal" in="SourceGraphic" in2="effect2_dropShadow_283_52" result="shape"/>
</filter>
</defs>
</svg>
