<svg width="200" height="200" viewBox="0 0 200 200" fill="none" xmlns="http://www.w3.org/2000/svg">

  <defs>
 <style>
  .l{
    animation: l 2s linear infinite;
  }
    @keyframes l{
        0%{
        transform: translate(0,0);
        }
        40%{
        transform: translate(-10px,0);
        }
        
        60%{
        transform: translate(10px,0);
        }
        100%{
        transform: translate(0,0);
        }
    }
 </style>
</defs>
  
<g class="l" filter="url(#filter0_d_283_52)">
<path d="M100 80C88.9546 80 80 88.9546 80 100C80 109.444 86.5477 117.354 95.35 119.451C94.8946 119.342 94.4431 119.221 94 119.082V114.5C94 114.5 93.25 114.75 92.25 114.75C89.4523 114.75 88.29 112.254 88 111C87.8238 110.236 87.3638 109.512 86.87 109.07C86.28 108.544 86.0038 108.542 86 108.362C85.9923 107.985 86.5062 108 86.75 108C88 108 88.9477 109.33 89.3877 110.018C90.4777 111.715 91.6477 112 92.25 112C93 112 93.6477 111.888 94.0938 111.672C94.3 110.22 94.9462 108.926 96 108C91.31 107.062 88 104.372 88 100C88 97.7477 88.9038 95.6777 90.41 94.0062C90.2562 93.57 90 92.6877 90 91.25C90 90.3 90.0662 89.1338 90.5 88C90.5 88 93.3523 88.02 96.0423 90.5677C97.2838 90.2062 98.6123 90 100 90C101.388 90 102.716 90.2062 103.958 90.5677C106.648 88.02 109.5 88 109.5 88C109.936 89.1338 110 90.3 110 91.25C110 92.8 109.794 93.7038 109.668 94.0938C111.128 95.75 112 97.7877 112 100C112 104.372 108.69 107.062 104 108C105.252 109.1 106 110.702 106 112.5V119.082C105.557 119.222 105.106 119.342 104.65 119.451C113.452 117.354 120 109.444 120 100C120 88.9546 111.045 80 100 80ZM101.395 119.946C100.934 119.978 100.469 120 100 120C100.469 120 100.933 119.978 101.395 119.946ZM100 120C99.5308 120 99.0662 119.978 98.6054 119.946C99.0669 119.978 99.5308 120 100 120ZM98.2985 119.923C97.3623 119.844 96.4438 119.701 95.5492 119.497C96.4446 119.7 97.3623 119.844 98.2985 119.923Z" fill="white"/>
</g>
<defs>
<filter id="filter0_d_283_52" x="55" y="55" width="90" height="90" filterUnits="userSpaceOnUse" color-interpolation-filters="sRGB">
<feFlood flood-opacity="0" result="BackgroundImageFix"/>
<feColorMatrix in="SourceAlpha" type="matrix" values="0 0 0 0 0 0 0 0 0 0 0 0 0 0 0 0 0 0 127 0" result="hardAlpha"/>
<feOffset/>
<feGaussianBlur stdDeviation="12.5"/>
<feComposite in2="hardAlpha" operator="out"/>
<feColorMatrix type="matrix" values="0 0 0 0 1 0 0 0 0 1 0 0 0 0 1 0 0 0 1 0"/>
<feBlend mode="normal" in2="BackgroundImageFix" result="effect1_dropShadow_283_52"/>
<feBlend mode="normal" in="SourceGraphic" in2="effect1_dropShadow_283_52" result="shape"/>
</filter>
</defs>
</svg>
