<svg width="90" height="80" viewBox="0 0 90 80" fill="none" xmlns="http://www.w3.org/2000/svg">
<g filter="url(#filter0_d_283_37)">
<path d="M28.1818 54.9999H61.8181C63.5753 54.9999 64.9999 53.5754 64.9999 51.8181V28.1818C64.9999 26.4245 63.5753 25 61.8181 25H28.1818C26.4245 25 25 26.4245 25 28.1818V51.8181C25 53.5754 26.4245 54.9999 28.1818 54.9999Z" fill="#E0E0E0"/>
<path d="M46.8181 54.9999H61.8181C63.5753 54.9999 64.9999 53.5754 64.9999 51.8181V28.1818C64.9999 26.4245 63.5753 25 61.8181 25H28.1818C26.4245 25 25 26.4245 25 28.1818L46.8181 54.9999Z" fill="#D9D9D9"/>
<path d="M29.3135 55.0003H61.8179C63.5752 55.0003 64.9997 53.5757 64.9997 51.8185V28.6367L29.3135 55.0003Z" fill="#EEEEEE"/>
<path d="M46.5861 55.0003H61.8179C63.5751 55.0003 64.9997 53.5757 64.9997 51.8185V28.6367L40.2461 46.9239L46.5861 55.0003Z" fill="#E0E0E0"/>
<path d="M61.8181 26.818H28.1818C26.4245 26.818 25 26.4243 25 28.1816V51.8179C25 53.5752 26.4245 54.9997 28.1818 54.9997H29.5454V29.0907H60.4544V54.9997H61.8181C63.5753 54.9997 64.9999 53.5752 64.9999 51.8179V28.1816C64.9999 26.4243 63.5753 26.818 61.8181 26.818Z" fill="#CA3737"/>
<path d="M61.8181 25H44.9999H28.1818C26.4245 25 25 26.3964 25 28.1818C25 29.2782 26.38 30.2345 26.38 30.2345L44.9999 43.4145L63.6199 30.2354C63.6199 30.2354 64.9999 29.2782 64.9999 28.1827C64.9999 26.3964 63.5753 25 61.8181 25Z" fill="#F5F5F5"/>
<path d="M62.4963 25.0752L44.9999 37.2733L27.5036 25.0752C26.0727 25.3816 25 26.6343 25 28.1825C25 29.2788 26.38 30.2352 26.38 30.2352L44.9999 43.4151L63.6199 30.2361C63.6199 30.2361 64.9999 29.2788 64.9999 28.1834C64.9999 26.6343 63.9272 25.3816 62.4963 25.0752Z" fill="#E84F4B"/>
</g>
<defs>
<filter id="filter0_d_283_37" x="0" y="0" width="90" height="80" filterUnits="userSpaceOnUse" color-interpolation-filters="sRGB">
<feFlood flood-opacity="0" result="BackgroundImageFix"/>
<feColorMatrix in="SourceAlpha" type="matrix" values="0 0 0 0 0 0 0 0 0 0 0 0 0 0 0 0 0 0 127 0" result="hardAlpha"/>
<feOffset/>
<feGaussianBlur stdDeviation="12.5"/>
<feComposite in2="hardAlpha" operator="out"/>
<feColorMatrix type="matrix" values="0 0 0 0 0.792157 0 0 0 0 0.215686 0 0 0 0 0.215686 0 0 0 1 0"/>
<feBlend mode="normal" in2="BackgroundImageFix" result="effect1_dropShadow_283_37"/>
<feBlend mode="normal" in="SourceGraphic" in2="effect1_dropShadow_283_37" result="shape"/>
</filter>
</defs>
</svg>
