<svg width="200" height="200" viewBox="0 0 200 200" fill="none" xmlns="http://www.w3.org/2000/svg">

  <defs>
 <style>
  .l{
    animation: l 4s linear infinite;
  }
    @keyframes l{
        0%{
        transform: translate(0,0);
        }
        40%{
        transform: translate(0,-10px);
        }
        
        60%{
        transform: translate(0,10px);
        }
        100%{
        transform: translate(0,0);
        }
    }
 </style>
</defs>
  
<g class="l" filter="url(#filter0_d_283_37)">
<path d="M83.1818 115H116.818C118.575 115 120 113.575 120 111.818V88.1818C120 86.4245 118.575 85 116.818 85H83.1818C81.4245 85 80 86.4245 80 88.1818V111.818C80 113.575 81.4245 115 83.1818 115Z" fill="#E0E0E0"/>
<path d="M101.818 115H116.818C118.575 115 120 113.575 120 111.818V88.1818C120 86.4245 118.575 85 116.818 85H83.1818C81.4245 85 80 86.4245 80 88.1818L101.818 115Z" fill="#D9D9D9"/>
<path d="M84.3135 115H116.818C118.575 115 120 113.576 120 111.818V88.6367L84.3135 115Z" fill="#EEEEEE"/>
<path d="M101.586 115H116.818C118.575 115 120 113.576 120 111.818V88.6367L95.2461 106.924L101.586 115Z" fill="#E0E0E0"/>
<path d="M116.818 86.818H83.1818C81.4245 86.818 80 86.4243 80 88.1816V111.818C80 113.575 81.4245 115 83.1818 115H84.5454V89.0907H115.454V115H116.818C118.575 115 120 113.575 120 111.818V88.1816C120 86.4243 118.575 86.818 116.818 86.818Z" fill="#CA3737"/>
<path d="M116.818 85H99.9999H83.1818C81.4245 85 80 86.3964 80 88.1818C80 89.2782 81.38 90.2345 81.38 90.2345L99.9999 103.414L118.62 90.2354C118.62 90.2354 120 89.2782 120 88.1827C120 86.3964 118.575 85 116.818 85Z" fill="#F5F5F5"/>
<path d="M117.496 85.0752L99.9999 97.2733L82.5036 85.0752C81.0727 85.3816 80 86.6343 80 88.1825C80 89.2788 81.38 90.2352 81.38 90.2352L99.9999 103.415L118.62 90.2361C118.62 90.2361 120 89.2788 120 88.1834C120 86.6343 118.927 85.3816 117.496 85.0752Z" fill="#E84F4B"/>
</g>
<defs>
<filter id="filter0_d_283_37" x="55" y="60" width="90" height="80" filterUnits="userSpaceOnUse" color-interpolation-filters="sRGB">
<feFlood flood-opacity="0" result="BackgroundImageFix"/>
<feColorMatrix in="SourceAlpha" type="matrix" values="0 0 0 0 0 0 0 0 0 0 0 0 0 0 0 0 0 0 127 0" result="hardAlpha"/>
<feOffset/>
<feGaussianBlur stdDeviation="12.5"/>
<feComposite in2="hardAlpha" operator="out"/>
<feColorMatrix type="matrix" values="0 0 0 0 0.792157 0 0 0 0 0.215686 0 0 0 0 0.215686 0 0 0 1 0"/>
<feBlend mode="normal" in2="BackgroundImageFix" result="effect1_dropShadow_283_37"/>
<feBlend mode="normal" in="SourceGraphic" in2="effect1_dropShadow_283_37" result="shape"/>
</filter>
</defs>
</svg>
