<svg width="140" height="200" viewBox="0 0 140 200" fill="none" xmlns="http://www.w3.org/2000/svg">
<path d="M3 0H138V200H3V0Z" fill="#0D1117"/>
<g filter="url(#filter0_dd_283_37)">
<path d="M53.1818 115H86.8181C88.5753 115 89.9999 113.575 89.9999 111.818V88.1818C89.9999 86.4245 88.5753 85 86.8181 85H53.1818C51.4245 85 50 86.4245 50 88.1818V111.818C50 113.575 51.4245 115 53.1818 115Z" fill="#E0E0E0"/>
<path d="M71.8181 115H86.8181C88.5753 115 89.9999 113.575 89.9999 111.818V88.1818C89.9999 86.4245 88.5753 85 86.8181 85H53.1818C51.4245 85 50 86.4245 50 88.1818L71.8181 115Z" fill="#D9D9D9"/>
<path d="M54.3135 115H86.8179C88.5752 115 89.9997 113.576 89.9997 111.818V88.6367L54.3135 115Z" fill="#EEEEEE"/>
<path d="M71.5861 115H86.8179C88.5751 115 89.9997 113.576 89.9997 111.818V88.6367L65.2461 106.924L71.5861 115Z" fill="#E0E0E0"/>
<path d="M86.8181 86.818H53.1818C51.4245 86.818 50 86.4243 50 88.1816V111.818C50 113.575 51.4245 115 53.1818 115H54.5454V89.0907H85.4544V115H86.8181C88.5753 115 89.9999 113.575 89.9999 111.818V88.1816C89.9999 86.4243 88.5753 86.818 86.8181 86.818Z" fill="#CA3737"/>
<path d="M86.8181 85H69.9999H53.1818C51.4245 85 50 86.3964 50 88.1818C50 89.2782 51.38 90.2345 51.38 90.2345L69.9999 103.414L88.6199 90.2354C88.6199 90.2354 89.9999 89.2782 89.9999 88.1827C89.9999 86.3964 88.5753 85 86.8181 85Z" fill="#F5F5F5"/>
<path d="M87.4963 85.0752L69.9999 97.2733L52.5036 85.0752C51.0727 85.3816 50 86.6343 50 88.1825C50 89.2788 51.38 90.2352 51.38 90.2352L69.9999 103.415L88.6199 90.2361C88.6199 90.2361 89.9999 89.2788 89.9999 88.1834C89.9999 86.6343 88.9272 85.3816 87.4963 85.0752Z" fill="#E84F4B"/>
</g>
<defs>
<filter id="filter0_dd_283_37" x="0" y="35" width="140" height="130" filterUnits="userSpaceOnUse" color-interpolation-filters="sRGB">
<feFlood flood-opacity="0" result="BackgroundImageFix"/>
<feColorMatrix in="SourceAlpha" type="matrix" values="0 0 0 0 0 0 0 0 0 0 0 0 0 0 0 0 0 0 127 0" result="hardAlpha"/>
<feOffset/>
<feGaussianBlur stdDeviation="25"/>
<feComposite in2="hardAlpha" operator="out"/>
<feColorMatrix type="matrix" values="0 0 0 0 0.792157 0 0 0 0 0.215686 0 0 0 0 0.215686 0 0 0 1 0"/>
<feBlend mode="normal" in2="BackgroundImageFix" result="effect1_dropShadow_283_37"/>
<feColorMatrix in="SourceAlpha" type="matrix" values="0 0 0 0 0 0 0 0 0 0 0 0 0 0 0 0 0 0 127 0" result="hardAlpha"/>
<feOffset/>
<feGaussianBlur stdDeviation="12.5"/>
<feComposite in2="hardAlpha" operator="out"/>
<feColorMatrix type="matrix" values="0 0 0 0 0.792157 0 0 0 0 0.215686 0 0 0 0 0.215686 0 0 0 1 0"/>
<feBlend mode="normal" in2="effect1_dropShadow_283_37" result="effect2_dropShadow_283_37"/>
<feBlend mode="normal" in="SourceGraphic" in2="effect2_dropShadow_283_37" result="shape"/>
</filter>
</defs>
</svg>
