<svg width="100" height="60" viewBox="0 0 100 60" fill="none" xmlns="http://www.w3.org/2000/svg">
<path d="M36.2114 16.2114C39.8684 12.5545 44.8283 10.5 50 10.5C55.1717 10.5 60.1316 12.5545 63.7886 16.2114C67.4455 19.8684 69.5 24.8283 69.5 30C69.5 35.1717 67.4455 40.1316 63.7886 43.7886C60.1316 47.4455 55.1717 49.5 50 49.5C44.8283 49.5 39.8684 47.4455 36.2114 43.7886C32.5545 40.1316 30.5 35.1717 30.5 30C30.5 24.8283 32.5545 19.8684 36.2114 16.2114Z" fill="url(#paint0_linear_283_37)" stroke="white"/>
<path d="M39.9886 39.7499H61.0113C62.1096 39.7499 62.9999 38.8596 62.9999 37.7613V22.9886C62.9999 21.8903 62.1096 21 61.0113 21H39.9886C38.8903 21 38 21.8903 38 22.9886V37.7613C38 38.8596 38.8903 39.7499 39.9886 39.7499Z" fill="#E0E0E0"/>
<path d="M51.6363 39.7499H61.0113C62.1096 39.7499 62.9999 38.8596 62.9999 37.7613V22.9886C62.9999 21.8903 62.1096 21 61.0113 21H39.9886C38.8903 21 38 21.8903 38 22.9886L51.6363 39.7499Z" fill="#D9D9D9"/>
<path d="M40.6958 39.7506H61.0111C62.1093 39.7506 62.9997 38.8603 62.9997 37.762V23.2734L40.6958 39.7506Z" fill="#EEEEEE"/>
<path d="M51.4913 39.7506H61.0111C62.1094 39.7506 62.9998 38.8603 62.9998 37.762V23.2734L47.5288 34.7029L51.4913 39.7506Z" fill="#E0E0E0"/>
<path d="M61.0114 22.1359H39.9886C38.8903 22.1359 38 21.8898 38 22.9881V37.7609C38 38.8592 38.8903 39.7495 39.9886 39.7495H40.8409V23.5563H60.1591V39.7495H61.0114C62.1097 39.7495 63 38.8592 63 37.7609V22.9881C63 21.8898 62.1097 22.1359 61.0114 22.1359Z" fill="#CA3737"/>
<path d="M61.0114 21H50.5H39.9886C38.8903 21 38 21.8727 38 22.9886C38 23.6739 38.8625 24.2716 38.8625 24.2716L50.5 32.5091L62.1375 24.2722C62.1375 24.2722 63 23.6739 63 22.9892C63 21.8727 62.1097 21 61.0114 21Z" fill="#F5F5F5"/>
<path d="M61.4352 21.0469L50.5 28.6707L39.5648 21.0469C38.6705 21.2384 38 22.0213 38 22.9889C38 23.6742 38.8625 24.2719 38.8625 24.2719L50.5 32.5094L62.1375 24.2724C62.1375 24.2724 63 23.6742 63 22.9895C63 22.0213 62.3296 21.2384 61.4352 21.0469Z" fill="#E84F4B"/>
<defs>
<linearGradient id="paint0_linear_283_37" x1="50" y1="10" x2="50" y2="50" gradientUnits="userSpaceOnUse">
<stop stop-color="#FFA2A2"/>
<stop offset="1" stop-color="#780000"/>
</linearGradient>
</defs>
</svg>
