<svg width="200" height="200" viewBox="0 0 200 200" fill="none" xmlns="http://www.w3.org/2000/svg">

  <defs>
 <style>
  .l{
    animation: l 2s linear infinite;
  }
    @keyframes l{
        0%{
        transform: translate(0,0);
        }
        40%{
        transform: translate(0,-10px);
        }
        
        60%{
        transform: translate(10px,0);
        }
        100%{
        transform: translate(0,0);
        }
    }
 </style>
</defs>
  
<g class="l" filter="url(#filter0_d_282_2)">
<path d="M120 114.444C120 117.513 117.513 120 114.444 120H85.5556C82.4878 120 80 117.513 80 114.444V85.5556C80 82.4867 82.4878 80 85.5556 80H114.444C117.513 80 120 82.4867 120 85.5556V114.444Z" fill="#0288D1"/>
<path d="M86.6665 94.4448H92.2221V113.334H86.6665V94.4448ZM89.4276 92.2225H89.3965C87.7387 92.2225 86.6665 90.987 86.6665 89.4437C86.6665 87.867 87.7721 86.667 89.4598 86.667C91.1498 86.667 92.1909 87.867 92.2221 89.4437C92.2221 90.9859 91.1498 92.2225 89.4276 92.2225ZM113.333 113.334H107.778V103.224C107.778 100.781 106.417 99.1148 104.231 99.1148C102.563 99.1148 101.661 100.239 101.223 101.326C101.063 101.715 101.111 102.79 101.111 103.334V113.334H95.5554V94.4448H101.111V97.3514C101.912 96.1114 103.167 94.4448 106.375 94.4448C110.351 94.4448 113.332 96.9448 113.332 102.527L113.333 113.334Z" fill="white"/>
</g>
<defs>
<filter id="filter0_d_282_2" x="55" y="55" width="90" height="90" filterUnits="userSpaceOnUse" color-interpolation-filters="sRGB">
<feFlood flood-opacity="0" result="BackgroundImageFix"/>
<feColorMatrix in="SourceAlpha" type="matrix" values="0 0 0 0 0 0 0 0 0 0 0 0 0 0 0 0 0 0 127 0" result="hardAlpha"/>
<feOffset/>
<feGaussianBlur stdDeviation="12.5"/>
<feComposite in2="hardAlpha" operator="out"/>
<feColorMatrix type="matrix" values="0 0 0 0 0.00784314 0 0 0 0 0.533333 0 0 0 0 0.819608 0 0 0 1 0"/>
<feBlend mode="normal" in2="BackgroundImageFix" result="effect1_dropShadow_282_2"/>
<feBlend mode="normal" in="SourceGraphic" in2="effect1_dropShadow_282_2" result="shape"/>
</filter>
</defs>
</svg>
