<svg width="100" height="60" viewBox="0 0 100 60" fill="none" xmlns="http://www.w3.org/2000/svg">
<rect x="30.5" y="10.5" width="39" height="39" rx="19.5" fill="url(#paint0_linear_282_2)" stroke="white"/>
<path d="M41 25.8333H45.1667V40H41V25.8333ZM43.0708 24.1667H43.0475C41.8042 24.1667 41 23.24 41 22.0825C41 20.9 41.8292 20 43.095 20C44.3625 20 45.1433 20.9 45.1667 22.0825C45.1667 23.2392 44.3625 24.1667 43.0708 24.1667ZM61 40H56.8333V32.4175C56.8333 30.5858 55.8125 29.3358 54.1733 29.3358C52.9225 29.3358 52.2458 30.1792 51.9175 30.9942C51.7975 31.2858 51.8333 32.0925 51.8333 32.5V40H47.6667V25.8333H51.8333V28.0133C52.4342 27.0833 53.375 25.8333 55.7817 25.8333C58.7633 25.8333 60.9992 27.7083 60.9992 31.895L61 40Z" fill="white"/>
<defs>
<linearGradient id="paint0_linear_282_2" x1="50" y1="10" x2="50" y2="50" gradientUnits="userSpaceOnUse">
<stop stop-color="#0288D1"/>
<stop offset="1" stop-color="#00334F"/>
</linearGradient>
</defs>
</svg>
