<svg width="200" height="200" viewBox="0 0 200 200" fill="none" xmlns="http://www.w3.org/2000/svg">
<g filter="url(#filter0_d_283_42)">
<path d="M100 80C94.6957 80 89.6086 82.1071 85.8579 85.8579C82.1071 89.6086 80 94.6957 80 100C80 105.304 82.1071 110.391 85.8579 114.142C89.6086 117.893 94.6957 120 100 120C105.304 120 110.391 117.893 114.142 114.142C117.893 110.391 120 105.304 120 100C120 94.6957 117.893 89.6086 114.142 85.8579C110.391 82.1071 105.304 80 100 80Z" fill="#FFE922"/>
<path d="M100.164 113C100.097 113 100.031 112.998 99.965 112.995C99.923 112.998 99.88 113 99.835 113C98.295 113 97.306 112.284 96.35 111.592C95.69 111.114 95.067 110.663 94.333 110.538C93.975 110.477 93.619 110.447 93.274 110.447C92.654 110.447 92.164 110.545 91.806 110.616C91.589 110.66 91.401 110.697 91.259 110.697C91.11 110.697 90.949 110.664 90.879 110.419C90.818 110.207 90.774 110.001 90.732 109.802C90.623 109.29 90.545 108.974 90.336 108.942C87.893 108.555 87.194 108.029 87.038 107.654C87.016 107.601 87.003 107.547 87 107.494C86.992 107.351 87.092 107.223 87.23 107.2C90.985 106.566 92.669 102.634 92.74 102.467C92.742 102.462 92.744 102.458 92.746 102.453C92.976 101.976 93.021 101.561 92.88 101.222C92.622 100.6 91.878 100.336 91.322 100.156C91.186 100.112 91.057 100.07 90.955 100.029C89.845 99.579 89.753 99.118 89.796 98.882C89.87 98.481 90.393 98.202 90.816 98.202C90.932 98.202 91.034 98.223 91.12 98.264C91.619 98.504 91.973 98.615 92.361 98.615C92.898 98.615 93.132 98.384 93.16 98.353C93.146 98.093 93.129 97.821 93.112 97.54C93 95.721 92.861 93.461 93.423 92.171C95.106 88.304 98.677 88.004 99.731 88.004C99.758 88.004 100.193 87.999 100.193 87.999H100.256C101.313 87.999 104.89 88.3 106.575 92.169C107.137 93.46 106.998 95.722 106.886 97.539L106.881 97.618C106.866 97.871 106.85 98.117 106.838 98.352C106.865 98.38 107.08 98.592 107.567 98.612H107.568C107.938 98.597 108.279 98.503 108.745 98.279C108.881 98.214 109.033 98.2 109.137 98.2C109.295 98.2 109.455 98.231 109.588 98.288L109.596 98.292C109.973 98.429 110.22 98.7 110.225 98.983C110.23 99.249 110.031 99.65 109.057 100.044C108.956 100.085 108.827 100.127 108.69 100.171C108.133 100.352 107.377 100.599 107.119 101.221C106.978 101.561 107.023 101.974 107.253 102.452C107.255 102.457 107.257 102.461 107.259 102.466C107.329 102.633 109.012 106.564 112.769 107.198C112.908 107.222 113.007 107.348 112.999 107.492C112.996 107.546 112.983 107.6 112.961 107.653C112.806 108.024 112.107 108.551 109.664 108.938C109.464 108.969 109.387 109.236 109.268 109.795C109.225 109.998 109.181 110.198 109.12 110.408C109.068 110.59 108.957 110.676 108.77 110.676H108.74C108.611 110.676 108.426 110.652 108.193 110.605C107.779 110.522 107.316 110.446 106.725 110.446C106.381 110.446 106.024 110.477 105.666 110.537C104.933 110.662 104.31 111.113 103.652 111.59C102.693 112.284 101.704 113 100.164 113Z" fill="white"/>
</g>
<defs>
<filter id="filter0_d_283_42" x="55" y="55" width="90" height="90" filterUnits="userSpaceOnUse" color-interpolation-filters="sRGB">
<feFlood flood-opacity="0" result="BackgroundImageFix"/>
<feColorMatrix in="SourceAlpha" type="matrix" values="0 0 0 0 0 0 0 0 0 0 0 0 0 0 0 0 0 0 127 0" result="hardAlpha"/>
<feOffset/>
<feGaussianBlur stdDeviation="12.5"/>
<feComposite in2="hardAlpha" operator="out"/>
<feColorMatrix type="matrix" values="0 0 0 0 1 0 0 0 0 0.933333 0 0 0 0 0.345098 0 0 0 1 0"/>
<feBlend mode="normal" in2="BackgroundImageFix" result="effect1_dropShadow_283_42"/>
<feBlend mode="normal" in="SourceGraphic" in2="effect1_dropShadow_283_42" result="shape"/>
</filter>
</defs>
</svg>
