<svg width="100" height="60" viewBox="0 0 100 60" fill="none" xmlns="http://www.w3.org/2000/svg">
<path d="M36.2114 16.2114C39.8684 12.5545 44.8283 10.5 50 10.5C55.1717 10.5 60.1316 12.5545 63.7886 16.2114C67.4455 19.8684 69.5 24.8283 69.5 30C69.5 35.1717 67.4455 40.1316 63.7886 43.7886C60.1316 47.4455 55.1717 49.5 50 49.5C44.8283 49.5 39.8684 47.4455 36.2114 43.7886C32.5545 40.1316 30.5 35.1717 30.5 30C30.5 24.8283 32.5545 19.8684 36.2114 16.2114Z" fill="url(#paint0_linear_283_42)" stroke="white"/>
<path d="M50.5843 41C50.5253 41 50.4672 40.9982 50.4091 40.9956C50.3722 40.9982 50.3343 41 50.2947 41C48.9396 41 48.0693 40.3699 47.2281 39.761C46.6473 39.3404 46.0991 38.9435 45.4532 38.8335C45.1381 38.7798 44.8249 38.7534 44.5213 38.7534C43.9757 38.7534 43.5445 38.8397 43.2295 38.9022C43.0386 38.9409 42.8731 38.9734 42.7482 38.9734C42.617 38.9734 42.4754 38.9444 42.4138 38.7288C42.3601 38.5423 42.3214 38.361 42.2844 38.1859C42.1885 37.7353 42.1199 37.4573 41.936 37.4291C39.7862 37.0886 39.1711 36.6257 39.0338 36.2957C39.0145 36.2491 39.003 36.2016 39.0004 36.1549C38.9934 36.0291 39.0814 35.9164 39.2028 35.8962C42.5071 35.3383 43.9889 31.8783 44.0514 31.7313C44.0532 31.7269 44.0549 31.7234 44.0567 31.719C44.2591 31.2993 44.2987 30.9341 44.1746 30.6358C43.9476 30.0884 43.2929 29.8561 42.8036 29.6977C42.6839 29.659 42.5704 29.6221 42.4807 29.586C41.5039 29.19 41.4229 28.7843 41.4608 28.5767C41.5259 28.2238 41.9861 27.9783 42.3583 27.9783C42.4604 27.9783 42.5502 27.9968 42.6258 28.0328C43.065 28.244 43.3765 28.3417 43.7179 28.3417C44.1904 28.3417 44.3963 28.1384 44.421 28.1112C44.4087 27.8824 44.3937 27.643 44.3787 27.3957C44.2802 25.7951 44.1579 23.8064 44.6524 22.6712C46.1334 19.2684 49.2757 19.0044 50.2032 19.0044C50.227 19.0044 50.6098 19 50.6098 19H50.6652C51.5953 19 54.743 19.2649 56.2257 22.6695C56.7202 23.8055 56.5979 25.796 56.4994 27.3949L56.495 27.4644C56.4818 27.687 56.4677 27.9035 56.4571 28.1103C56.4809 28.1349 56.6701 28.3215 57.0986 28.3391C57.4242 28.3259 57.7252 28.2432 58.1352 28.046C58.2549 27.9888 58.3887 27.9765 58.4802 27.9765C58.6192 27.9765 58.76 28.0038 58.877 28.054L58.8841 28.0575C59.2158 28.178 59.4332 28.4165 59.4376 28.6655C59.442 28.8996 59.2669 29.2525 58.4098 29.5992C58.3209 29.6353 58.2074 29.6722 58.0868 29.7109C57.5967 29.8702 56.9314 30.0876 56.7044 30.6349C56.5803 30.9341 56.6199 31.2975 56.8223 31.7181C56.8241 31.7225 56.8258 31.7261 56.8276 31.7305C56.8892 31.8774 58.3702 35.3365 61.6762 35.8944C61.7985 35.9156 61.8856 36.0264 61.8786 36.1532C61.876 36.2007 61.8645 36.2482 61.8452 36.2948C61.7088 36.6213 61.0937 37.085 58.9439 37.4256C58.7679 37.4529 58.7002 37.6878 58.5955 38.1797C58.5576 38.3583 58.5189 38.5343 58.4652 38.7191C58.4195 38.8793 58.3218 38.955 58.1572 38.955H58.1308C58.0173 38.955 57.8545 38.9338 57.6495 38.8925C57.2852 38.8194 56.8778 38.7526 56.3577 38.7526C56.055 38.7526 55.7408 38.7798 55.4258 38.8326C54.7808 38.9426 54.2326 39.3395 53.6536 39.7593C52.8097 40.3699 51.9394 41 50.5843 41Z" fill="white"/>
<defs>
<linearGradient id="paint0_linear_283_42" x1="50" y1="10" x2="50" y2="50" gradientUnits="userSpaceOnUse">
<stop stop-color="#FFE600"/>
<stop offset="1" stop-color="#5D5400"/>
</linearGradient>
</defs>
</svg>
