<svg width="90" height="90" viewBox="0 0 90 90" fill="none" xmlns="http://www.w3.org/2000/svg">
<g filter="url(#filter0_d_283_42)">
<path d="M45 25C39.6957 25 34.6086 27.1071 30.8579 30.8579C27.1071 34.6086 25 39.6957 25 45C25 50.3043 27.1071 55.3914 30.8579 59.1421C34.6086 62.8929 39.6957 65 45 65C50.3043 65 55.3914 62.8929 59.1421 59.1421C62.8929 55.3914 65 50.3043 65 45C65 39.6957 62.8929 34.6086 59.1421 30.8579C55.3914 27.1071 50.3043 25 45 25Z" fill="#FFE922"/>
<path d="M45.164 58C45.097 58 45.031 57.998 44.965 57.995C44.923 57.998 44.88 58 44.835 58C43.295 58 42.306 57.284 41.35 56.592C40.69 56.114 40.067 55.663 39.333 55.538C38.975 55.477 38.619 55.447 38.274 55.447C37.654 55.447 37.164 55.545 36.806 55.616C36.589 55.66 36.401 55.697 36.259 55.697C36.11 55.697 35.949 55.664 35.879 55.419C35.818 55.207 35.774 55.001 35.732 54.802C35.623 54.29 35.545 53.974 35.336 53.942C32.893 53.555 32.194 53.029 32.038 52.654C32.016 52.601 32.003 52.547 32 52.494C31.992 52.351 32.092 52.223 32.23 52.2C35.985 51.566 37.669 47.634 37.74 47.467C37.742 47.462 37.744 47.458 37.746 47.453C37.976 46.976 38.021 46.561 37.88 46.222C37.622 45.6 36.878 45.336 36.322 45.156C36.186 45.112 36.057 45.07 35.955 45.029C34.845 44.579 34.753 44.118 34.796 43.882C34.87 43.481 35.393 43.202 35.816 43.202C35.932 43.202 36.034 43.223 36.12 43.264C36.619 43.504 36.973 43.615 37.361 43.615C37.898 43.615 38.132 43.384 38.16 43.353C38.146 43.093 38.129 42.821 38.112 42.54C38 40.721 37.861 38.461 38.423 37.171C40.106 33.304 43.677 33.004 44.731 33.004C44.758 33.004 45.193 32.999 45.193 32.999H45.256C46.313 32.999 49.89 33.3 51.575 37.169C52.137 38.46 51.998 40.722 51.886 42.539L51.881 42.618C51.866 42.871 51.85 43.117 51.838 43.352C51.865 43.38 52.08 43.592 52.567 43.612H52.568C52.938 43.597 53.279 43.503 53.745 43.279C53.881 43.214 54.033 43.2 54.137 43.2C54.295 43.2 54.455 43.231 54.588 43.288L54.596 43.292C54.973 43.429 55.22 43.7 55.225 43.983C55.23 44.249 55.031 44.65 54.057 45.044C53.956 45.085 53.827 45.127 53.69 45.171C53.133 45.352 52.377 45.599 52.119 46.221C51.978 46.561 52.023 46.974 52.253 47.452C52.255 47.457 52.257 47.461 52.259 47.466C52.329 47.633 54.012 51.564 57.769 52.198C57.908 52.222 58.007 52.348 57.999 52.492C57.996 52.546 57.983 52.6 57.961 52.653C57.806 53.024 57.107 53.551 54.664 53.938C54.464 53.969 54.387 54.236 54.268 54.795C54.225 54.998 54.181 55.198 54.12 55.408C54.068 55.59 53.957 55.676 53.77 55.676H53.74C53.611 55.676 53.426 55.652 53.193 55.605C52.779 55.522 52.316 55.446 51.725 55.446C51.381 55.446 51.024 55.477 50.666 55.537C49.933 55.662 49.31 56.113 48.652 56.59C47.693 57.284 46.704 58 45.164 58Z" fill="white"/>
</g>
<defs>
<filter id="filter0_d_283_42" x="0" y="0" width="90" height="90" filterUnits="userSpaceOnUse" color-interpolation-filters="sRGB">
<feFlood flood-opacity="0" result="BackgroundImageFix"/>
<feColorMatrix in="SourceAlpha" type="matrix" values="0 0 0 0 0 0 0 0 0 0 0 0 0 0 0 0 0 0 127 0" result="hardAlpha"/>
<feOffset/>
<feGaussianBlur stdDeviation="12.5"/>
<feComposite in2="hardAlpha" operator="out"/>
<feColorMatrix type="matrix" values="0 0 0 0 1 0 0 0 0 0.933333 0 0 0 0 0.345098 0 0 0 1 0"/>
<feBlend mode="normal" in2="BackgroundImageFix" result="effect1_dropShadow_283_42"/>
<feBlend mode="normal" in="SourceGraphic" in2="effect1_dropShadow_283_42" result="shape"/>
</filter>
</defs>
</svg>
