<svg width="140" height="200" viewBox="0 0 140 200" fill="none" xmlns="http://www.w3.org/2000/svg">
<path d="M3 0H138V200H3V0Z" fill="#0D1117"/>
<g filter="url(#filter0_dd_283_42)">
<path d="M70 80C64.6957 80 59.6086 82.1071 55.8579 85.8579C52.1071 89.6086 50 94.6957 50 100C50 105.304 52.1071 110.391 55.8579 114.142C59.6086 117.893 64.6957 120 70 120C75.3043 120 80.3914 117.893 84.1421 114.142C87.8929 110.391 90 105.304 90 100C90 94.6957 87.8929 89.6086 84.1421 85.8579C80.3914 82.1071 75.3043 80 70 80Z" fill="#FFE922"/>
<path d="M70.164 113C70.097 113 70.031 112.998 69.965 112.995C69.923 112.998 69.88 113 69.835 113C68.295 113 67.306 112.284 66.35 111.592C65.69 111.114 65.067 110.663 64.333 110.538C63.975 110.477 63.619 110.447 63.274 110.447C62.654 110.447 62.164 110.545 61.806 110.616C61.589 110.66 61.401 110.697 61.259 110.697C61.11 110.697 60.949 110.664 60.879 110.419C60.818 110.207 60.774 110.001 60.732 109.802C60.623 109.29 60.545 108.974 60.336 108.942C57.893 108.555 57.194 108.029 57.038 107.654C57.016 107.601 57.003 107.547 57 107.494C56.992 107.351 57.092 107.223 57.23 107.2C60.985 106.566 62.669 102.634 62.74 102.467C62.742 102.462 62.744 102.458 62.746 102.453C62.976 101.976 63.021 101.561 62.88 101.222C62.622 100.6 61.878 100.336 61.322 100.156C61.186 100.112 61.057 100.07 60.955 100.029C59.845 99.579 59.753 99.118 59.796 98.882C59.87 98.481 60.393 98.202 60.816 98.202C60.932 98.202 61.034 98.223 61.12 98.264C61.619 98.504 61.973 98.615 62.361 98.615C62.898 98.615 63.132 98.384 63.16 98.353C63.146 98.093 63.129 97.821 63.112 97.54C63 95.721 62.861 93.461 63.423 92.171C65.106 88.304 68.677 88.004 69.731 88.004C69.758 88.004 70.193 87.999 70.193 87.999H70.256C71.313 87.999 74.89 88.3 76.575 92.169C77.137 93.46 76.998 95.722 76.886 97.539L76.881 97.618C76.866 97.871 76.85 98.117 76.838 98.352C76.865 98.38 77.08 98.592 77.567 98.612H77.568C77.938 98.597 78.279 98.503 78.745 98.279C78.881 98.214 79.033 98.2 79.137 98.2C79.295 98.2 79.455 98.231 79.588 98.288L79.596 98.292C79.973 98.429 80.22 98.7 80.225 98.983C80.23 99.249 80.031 99.65 79.057 100.044C78.956 100.085 78.827 100.127 78.69 100.171C78.133 100.352 77.377 100.599 77.119 101.221C76.978 101.561 77.023 101.974 77.253 102.452C77.255 102.457 77.257 102.461 77.259 102.466C77.329 102.633 79.012 106.564 82.769 107.198C82.908 107.222 83.007 107.348 82.999 107.492C82.996 107.546 82.983 107.6 82.961 107.653C82.806 108.024 82.107 108.551 79.664 108.938C79.464 108.969 79.387 109.236 79.268 109.795C79.225 109.998 79.181 110.198 79.12 110.408C79.068 110.59 78.957 110.676 78.77 110.676H78.74C78.611 110.676 78.426 110.652 78.193 110.605C77.779 110.522 77.316 110.446 76.725 110.446C76.381 110.446 76.024 110.477 75.666 110.537C74.933 110.662 74.31 111.113 73.652 111.59C72.693 112.284 71.704 113 70.164 113Z" fill="white"/>
</g>
<defs>
<filter id="filter0_dd_283_42" x="0" y="30" width="140" height="140" filterUnits="userSpaceOnUse" color-interpolation-filters="sRGB">
<feFlood flood-opacity="0" result="BackgroundImageFix"/>
<feColorMatrix in="SourceAlpha" type="matrix" values="0 0 0 0 0 0 0 0 0 0 0 0 0 0 0 0 0 0 127 0" result="hardAlpha"/>
<feOffset/>
<feGaussianBlur stdDeviation="25"/>
<feComposite in2="hardAlpha" operator="out"/>
<feColorMatrix type="matrix" values="0 0 0 0 1 0 0 0 0 0.933333 0 0 0 0 0.345098 0 0 0 1 0"/>
<feBlend mode="normal" in2="BackgroundImageFix" result="effect1_dropShadow_283_42"/>
<feColorMatrix in="SourceAlpha" type="matrix" values="0 0 0 0 0 0 0 0 0 0 0 0 0 0 0 0 0 0 127 0" result="hardAlpha"/>
<feOffset/>
<feGaussianBlur stdDeviation="12.5"/>
<feComposite in2="hardAlpha" operator="out"/>
<feColorMatrix type="matrix" values="0 0 0 0 1 0 0 0 0 0.933333 0 0 0 0 0.345098 0 0 0 1 0"/>
<feBlend mode="normal" in2="effect1_dropShadow_283_42" result="effect2_dropShadow_283_42"/>
<feBlend mode="normal" in="SourceGraphic" in2="effect2_dropShadow_283_42" result="shape"/>
</filter>
</defs>
</svg>
