<svg width="1605" height="144" viewBox="0 0 1605 144" fill="none" xmlns="http://www.w3.org/2000/svg">
<rect width="1605" height="144" fill="#0D1117"/>
<path d="M718.846 59.3047C718.846 56.707 718.172 55.125 716.824 54.5586C715.477 53.9727 713.797 53.6797 711.785 53.6797C707.645 53.6797 703.885 54.5 700.506 56.1406C697.146 57.7617 695.467 59.7148 695.467 62C695.467 63.6406 696.209 65.0762 697.693 66.3066C699.197 67.5176 702.459 68.8555 707.479 70.3203C712.342 71.7266 715.799 73.1816 717.85 74.6855C719.92 76.1699 720.955 77.9668 720.955 80.0762C720.955 82.2051 719.52 84.5098 716.648 86.9902C713.777 89.4512 710.311 91.3262 706.248 92.6152C702.205 93.9043 698.768 94.5488 695.936 94.5488C693.572 94.5488 691.775 94.2656 690.545 93.6992C689.334 93.1523 688.729 92.459 688.729 91.6191C688.729 91.0332 688.904 90.3203 689.256 89.4805C689.627 88.6211 689.998 88.1914 690.369 88.1914C690.76 88.1914 691.16 88.2598 691.57 88.3965C693.66 89.1777 695.73 89.5684 697.781 89.5684C701.473 89.5684 705.389 88.4941 709.529 86.3457C713.67 84.1777 715.74 82.1562 715.74 80.2812C715.74 79.4805 715.105 78.7188 713.836 77.9961C712.586 77.2539 709.402 76.0723 704.285 74.4512C697.938 72.4395 694.031 70.4863 692.566 68.5918C691.121 66.6777 690.398 64.666 690.398 62.5566C690.398 58.4941 692.732 55.2227 697.4 52.7422C702.068 50.2422 706.951 48.9922 712.049 48.9922C715.428 48.9922 718.025 49.5684 719.842 50.7207C721.658 51.8535 722.566 53.1133 722.566 54.5C722.566 55.1641 722.361 56.1309 721.951 57.4004C721.541 58.6699 720.506 59.3047 718.846 59.3047ZM739.57 93.4648C736.895 93.4648 734.688 92.4492 732.949 90.418C731.211 88.3867 730.342 85.877 730.342 82.8887C730.342 77.8496 732.031 72.8887 735.41 68.0059C738.809 63.1035 742.871 60.6523 747.598 60.6523C750.723 60.6523 753.252 61.8535 755.186 64.2559C757.139 66.6582 758.115 69.5195 758.115 72.8398C758.115 77.918 756.104 82.625 752.08 86.9609C748.076 91.2969 743.906 93.4648 739.57 93.4648ZM735.498 82.127C735.498 84.0996 735.908 85.7109 736.729 86.9609C737.568 88.2109 738.672 88.8359 740.039 88.8359C742.949 88.8359 745.869 87.2441 748.799 84.0605C751.729 80.8574 753.193 77.3027 753.193 73.3965C753.193 70.9941 752.627 69.0508 751.494 67.5664C750.381 66.0625 748.877 65.3105 746.982 65.3105C743.838 65.3105 741.133 67.2441 738.867 71.1113C736.621 74.959 735.498 78.6309 735.498 82.127ZM775.939 93.6699C773.01 93.6699 770.754 92.8301 769.172 91.1504C767.609 89.4707 766.828 87.1172 766.828 84.0898C766.828 78.9922 768.85 73.6211 772.893 67.9766C776.936 62.3125 780.695 59.4805 784.172 59.4805C785.754 59.4805 787.111 60.3398 788.244 62.0586C789.396 63.7578 789.973 65.5645 789.973 67.4785C789.973 68.6309 789.719 69.627 789.211 70.4668C788.723 71.2871 788.225 71.6973 787.717 71.6973C786.584 71.6973 785.783 70.5547 785.314 68.2695C784.787 65.8086 784.025 64.5781 783.029 64.5781C780.998 64.5781 778.596 66.9902 775.822 71.8145C773.049 76.6387 771.662 80.7109 771.662 84.0312C771.662 87.3516 773.547 89.0117 777.316 89.0117C780.188 89.0117 783.566 87.6641 787.453 84.9688C788.82 84.0117 789.826 83.5332 790.471 83.5332C791.135 83.5332 791.467 83.9141 791.467 84.6758C791.467 86.1602 789.719 88.0352 786.223 90.3008C782.727 92.5469 779.299 93.6699 775.939 93.6699ZM810.785 52.7715C810.375 52.7715 810.062 52.332 809.848 51.4531C809.77 51.1797 809.662 50.877 809.525 50.5449C808.998 49.2754 808.734 48.1719 808.734 47.2344C808.734 46.4531 809.193 45.6621 810.111 44.8613C811.049 44.041 812.084 43.6309 813.217 43.6309C813.783 43.6309 814.418 43.8555 815.121 44.3047C815.824 44.7344 816.176 45.1543 816.176 45.5645C816.176 46.209 815.932 47.3027 815.443 48.8457C814.975 50.3887 814.213 51.4336 813.158 51.9805C812.123 52.5078 811.332 52.7715 810.785 52.7715ZM806.947 85.4961C806.947 86.9805 807.152 88.6504 807.562 90.5059C807.641 90.8574 807.68 91.1504 807.68 91.3848C807.68 91.7363 807.357 92.1855 806.713 92.7324C806.068 93.2988 805.385 93.582 804.662 93.582C802.768 93.582 801.82 91.8438 801.82 88.3672C801.82 84.7734 802.562 79.0898 804.047 71.3164C804.555 68.6016 804.809 66.9316 804.809 66.3066C804.809 65.0762 805.033 64.0312 805.482 63.1719C805.932 62.293 806.566 61.8535 807.387 61.8535C808.383 61.8535 809.164 62.0977 809.73 62.5859C810.316 63.0547 810.609 63.582 810.609 64.168C810.609 64.7539 810.473 65.5254 810.199 66.4824C808.734 71.6387 807.826 75.3301 807.475 77.5566C807.123 79.7832 806.947 82.4297 806.947 85.4961ZM841.441 81.3359C838.707 85.0078 836.002 87.7617 833.326 89.5977C830.65 91.4336 828.199 92.3516 825.973 92.3516C824.469 92.3516 823.17 91.7168 822.076 90.4473C820.982 89.1777 820.436 87.5469 820.436 85.5547C820.436 80.418 822.73 74.8906 827.32 68.9727C831.91 63.0352 836.471 60.0664 841.002 60.0664C842.643 60.0664 843.863 61.0039 844.664 62.8789C844.918 63.5039 845.318 63.8164 845.865 63.8164C847.428 63.8164 848.209 64.4219 848.209 65.6328C848.209 66.2383 848.111 67.0684 847.916 68.123C846.861 73.8848 846.334 77.9473 846.334 80.3105C846.334 85.0371 847.232 87.8691 849.029 88.8066C849.889 89.2754 850.318 89.8516 850.318 90.5352C850.318 91.1406 849.898 91.7461 849.059 92.3516C848.219 92.9766 847.408 93.2891 846.627 93.2891C845.123 93.2891 843.883 92.2539 842.906 90.1836C841.93 88.1133 841.441 85.1641 841.441 81.3359ZM839.654 64.8418C837.076 64.8418 834.078 67.2637 830.66 72.1074C827.242 76.9316 825.533 80.9355 825.533 84.1191C825.533 86.3652 826.275 87.4883 827.76 87.4883C829.908 87.4883 832.887 85.3203 836.695 80.9844C840.504 76.6484 842.408 72.6641 842.408 69.0312C842.408 66.2383 841.49 64.8418 839.654 64.8418ZM870.164 42.4004C871.57 42.4004 872.273 43.2988 872.273 45.0957C872.273 46.6973 871.424 50.5059 869.725 56.5215C868.65 60.3105 867.82 64.4902 867.234 69.0605C866.648 73.6309 866.355 77.2148 866.355 79.8125C866.355 83.0352 866.561 86.2383 866.971 89.4219C867.049 90.0273 867.088 90.4668 867.088 90.7402C867.088 91.7168 866.756 92.5566 866.092 93.2598C865.428 93.9629 864.725 94.3145 863.982 94.3145C862.947 94.3145 862.225 93.6699 861.814 92.3809C861.424 91.0918 861.229 89.0117 861.229 86.1406C861.229 79.5977 862.01 71.4922 863.572 61.8242C865.154 52.1562 866.404 46.502 867.322 44.8613C868.26 43.2207 869.207 42.4004 870.164 42.4004ZM880.752 45.6816C880.811 45.4863 881.201 45.2324 881.924 44.9199C882.666 44.5879 883.193 44.4219 883.506 44.4219C883.818 44.4219 884.424 44.8809 885.322 45.7988L886.113 46.6191C886.992 47.498 887.666 48.5137 888.135 49.666C888.33 50.0762 888.428 50.7305 888.428 51.6289C888.428 53.2891 887.842 55.7891 886.67 59.1289C885.518 62.4492 884.141 64.1094 882.539 64.1094C881.953 64.1094 881.445 63.9336 881.016 63.582C880.586 63.2305 880.371 62.7812 880.371 62.2344C880.371 61.2383 880.771 60.3984 881.572 59.7148C883.428 58.0742 884.355 55.9746 884.355 53.416C884.355 52.4395 883.525 51.2188 881.865 49.7539C881.338 49.2852 881.025 48.9922 880.928 48.875C880.83 48.7383 880.762 48.1914 880.723 47.2344C880.684 46.2773 880.693 45.7598 880.752 45.6816ZM912.053 85.291C912.053 84.0215 910.49 82.5762 907.365 80.9551C903.4 78.9238 900.715 77.3027 899.309 76.0918C897.922 74.8613 897.229 73.4941 897.229 71.9902C897.229 68.1035 899.172 64.8809 903.059 62.3223C906.965 59.7637 910.148 58.4844 912.609 58.4844C914.191 58.4844 915.334 58.7578 916.037 59.3047C916.76 59.8516 917.121 60.7988 917.121 62.1465C917.121 62.752 916.857 63.2695 916.33 63.6992C915.822 64.1289 915.422 64.3438 915.129 64.3438C914.914 64.3438 914.494 64.1973 913.869 63.9043C913.244 63.6309 912.834 63.4941 912.639 63.4941C911.662 63.4941 909.68 64.207 906.691 65.6328C903.703 67.0586 902.209 68.6699 902.209 70.4668C902.209 71.5605 902.736 72.5566 903.791 73.4551C904.846 74.334 906.74 75.418 909.475 76.707C911.682 77.7617 913.439 78.8945 914.748 80.1055C916.076 81.2969 916.74 82.7031 916.74 84.3242C916.74 87.3125 914.68 89.6562 910.559 91.3555C906.438 93.0352 902.502 93.875 898.752 93.875C895.588 93.875 894.006 92.8008 894.006 90.6523C894.006 89.9102 894.357 89.3633 895.061 89.0117C895.783 88.6602 896.506 88.4844 897.229 88.4844C897.521 88.4844 898.078 88.582 898.898 88.7773C899.699 88.9727 900.227 89.0703 900.48 89.0703C902.648 89.0703 904.973 88.709 907.453 87.9863C909.934 87.2637 911.467 86.3652 912.053 85.291Z" fill="white"/>
<path d="M641 108.341C842 200.5 1134.96 75.9999 1603.5 76" stroke="url(#paint0_linear_254_285)" stroke-width="3" stroke-linecap="square"/>
<path d="M948.5 27.4114C744.285 -54.6741 469.773 88.5001 1.5 88.5" stroke="url(#paint1_linear_254_285)" stroke-width="3" stroke-linecap="square"/>
<defs>
<linearGradient id="paint0_linear_254_285" x1="754" y1="142" x2="716.716" y2="50.8815" gradientUnits="userSpaceOnUse">
<stop stop-color="white"/>
<stop offset="1" stop-opacity="0"/>
</linearGradient>
<linearGradient id="paint1_linear_254_285" x1="789.724" y1="43.8234" x2="844.327" y2="124.891" gradientUnits="userSpaceOnUse">
<stop stop-color="white"/>
<stop offset="1" stop-opacity="0"/>
</linearGradient>
</defs>
</svg>
