<svg width="100" height="60" viewBox="0 0 100 60" fill="none" xmlns="http://www.w3.org/2000/svg">
<path d="M36.2114 16.2114C39.8684 12.5545 44.8283 10.5 50 10.5C55.1717 10.5 60.1316 12.5545 63.7886 16.2114C67.4455 19.8684 69.5 24.8283 69.5 30C69.5 35.1717 67.4455 40.1316 63.7886 43.7886C60.1316 47.4455 55.1717 49.5 50 49.5C44.8283 49.5 39.8684 47.4455 36.2114 43.7886C32.5545 40.1316 30.5 35.1717 30.5 30C30.5 24.8283 32.5545 19.8684 36.2114 16.2114Z" fill="url(#paint0_linear_283_58)" stroke="white"/>
<path d="M59.8095 21.9524L56.2419 40.1676C56.2419 40.1676 56.0886 41 55.0562 41C54.5076 41 54.2248 40.739 54.2248 40.739L46.4971 34.3267L42.7162 32.421L37.8638 31.1305C37.8638 31.1305 37 30.881 37 30.1667C37 29.5714 37.8886 29.2876 37.8886 29.2876L58.1895 21.2229C58.1895 21.2229 58.8095 20.9991 59.2619 21C59.54 21 59.8571 21.1191 59.8571 21.4762C59.8571 21.7143 59.8095 21.9524 59.8095 21.9524Z" fill="white"/>
<path d="M49.3805 36.7195L46.1176 39.9328C46.1176 39.9328 45.9757 40.0423 45.7862 40.0471C45.7205 40.049 45.65 40.0385 45.5776 40.0061L46.4957 34.3252L49.3805 36.7195Z" fill="#B0BEC5"/>
<path d="M55.9496 24.9961C55.7886 24.7866 55.4915 24.7485 55.282 24.9076L42.7144 32.4285C42.7144 32.4285 44.7201 38.0399 45.0258 39.0114C45.3325 39.9838 45.5782 40.0066 45.5782 40.0066L46.4963 34.3257L55.8601 25.6628C56.0696 25.5038 56.1086 25.2057 55.9496 24.9961Z" fill="#CFD8DC"/>
<defs>
<linearGradient id="paint0_linear_283_58" x1="50" y1="10" x2="50" y2="50" gradientUnits="userSpaceOnUse">
<stop stop-color="#29B6F6"/>
<stop offset="1" stop-color="#124860"/>
</linearGradient>
</defs>
</svg>
