<svg width="90" height="90" viewBox="0 0 90 90" fill="none" xmlns="http://www.w3.org/2000/svg">
<g filter="url(#filter0_d_283_58)">
<path d="M45 25C39.6957 25 34.6086 27.1071 30.8579 30.8579C27.1071 34.6086 25 39.6957 25 45C25 50.3043 27.1071 55.3914 30.8579 59.1421C34.6086 62.8929 39.6957 65 45 65C50.3043 65 55.3914 62.8929 59.1421 59.1421C62.8929 55.3914 65 50.3043 65 45C65 39.6957 62.8929 34.6086 59.1421 30.8579C55.3914 27.1071 50.3043 25 45 25Z" fill="#29B6F6"/>
<path d="M54.95 36L51.204 55.126C51.204 55.126 51.043 56 49.959 56C49.383 56 49.086 55.726 49.086 55.726L40.972 48.993L37.002 46.992L31.907 45.637C31.907 45.637 31 45.375 31 44.625C31 44 31.933 43.702 31.933 43.702L53.249 35.234C53.249 35.234 53.9 34.999 54.375 35C54.667 35 55 35.125 55 35.5C55 35.75 54.95 36 54.95 36Z" fill="white"/>
<path d="M43.9998 51.5052L40.5738 54.8792C40.5738 54.8792 40.4248 54.9942 40.2258 54.9992C40.1568 55.0012 40.0828 54.9902 40.0068 54.9562L40.9708 48.9912L43.9998 51.5052Z" fill="#B0BEC5"/>
<path d="M50.897 39.1959C50.728 38.9759 50.416 38.9359 50.196 39.1029L37 46.9999C37 46.9999 39.106 52.8919 39.427 53.9119C39.749 54.9329 40.007 54.9569 40.007 54.9569L40.971 48.9919L50.803 39.8959C51.023 39.7289 51.064 39.4159 50.897 39.1959Z" fill="#CFD8DC"/>
</g>
<defs>
<filter id="filter0_d_283_58" x="0" y="0" width="90" height="90" filterUnits="userSpaceOnUse" color-interpolation-filters="sRGB">
<feFlood flood-opacity="0" result="BackgroundImageFix"/>
<feColorMatrix in="SourceAlpha" type="matrix" values="0 0 0 0 0 0 0 0 0 0 0 0 0 0 0 0 0 0 127 0" result="hardAlpha"/>
<feOffset/>
<feGaussianBlur stdDeviation="12.5"/>
<feComposite in2="hardAlpha" operator="out"/>
<feColorMatrix type="matrix" values="0 0 0 0 0.160784 0 0 0 0 0.713726 0 0 0 0 0.964706 0 0 0 1 0"/>
<feBlend mode="normal" in2="BackgroundImageFix" result="effect1_dropShadow_283_58"/>
<feBlend mode="normal" in="SourceGraphic" in2="effect1_dropShadow_283_58" result="shape"/>
</filter>
</defs>
</svg>
