<svg width="140" height="200" viewBox="0 0 140 200" fill="none" xmlns="http://www.w3.org/2000/svg">
<path d="M3 0H138V200H3V0Z" fill="#0D1117"/>
<g filter="url(#filter0_dd_283_58)">
<path d="M70 78C64.6957 78 59.6086 80.1071 55.8579 83.8579C52.1071 87.6086 50 92.6957 50 98C50 103.304 52.1071 108.391 55.8579 112.142C59.6086 115.893 64.6957 118 70 118C75.3043 118 80.3914 115.893 84.1421 112.142C87.8929 108.391 90 103.304 90 98C90 92.6957 87.8929 87.6086 84.1421 83.8579C80.3914 80.1071 75.3043 78 70 78Z" fill="#29B6F6"/>
<path d="M79.95 89L76.204 108.126C76.204 108.126 76.043 109 74.959 109C74.383 109 74.086 108.726 74.086 108.726L65.972 101.993L62.002 99.992L56.907 98.637C56.907 98.637 56 98.375 56 97.625C56 97 56.933 96.702 56.933 96.702L78.249 88.234C78.249 88.234 78.9 87.999 79.375 88C79.667 88 80 88.125 80 88.5C80 88.75 79.95 89 79.95 89Z" fill="white"/>
<path d="M68.9998 104.505L65.5738 107.879C65.5738 107.879 65.4248 107.994 65.2258 107.999C65.1568 108.001 65.0828 107.99 65.0068 107.956L65.9708 101.991L68.9998 104.505Z" fill="#B0BEC5"/>
<path d="M75.897 92.1959C75.728 91.9759 75.416 91.9359 75.196 92.1029L62 99.9999C62 99.9999 64.106 105.892 64.427 106.912C64.749 107.933 65.007 107.957 65.007 107.957L65.971 101.992L75.803 92.8959C76.023 92.7289 76.064 92.4159 75.897 92.1959Z" fill="#CFD8DC"/>
</g>
<defs>
<filter id="filter0_dd_283_58" x="0" y="28" width="140" height="140" filterUnits="userSpaceOnUse" color-interpolation-filters="sRGB">
<feFlood flood-opacity="0" result="BackgroundImageFix"/>
<feColorMatrix in="SourceAlpha" type="matrix" values="0 0 0 0 0 0 0 0 0 0 0 0 0 0 0 0 0 0 127 0" result="hardAlpha"/>
<feOffset/>
<feGaussianBlur stdDeviation="25"/>
<feComposite in2="hardAlpha" operator="out"/>
<feColorMatrix type="matrix" values="0 0 0 0 0.160784 0 0 0 0 0.713726 0 0 0 0 0.964706 0 0 0 1 0"/>
<feBlend mode="normal" in2="BackgroundImageFix" result="effect1_dropShadow_283_58"/>
<feColorMatrix in="SourceAlpha" type="matrix" values="0 0 0 0 0 0 0 0 0 0 0 0 0 0 0 0 0 0 127 0" result="hardAlpha"/>
<feOffset/>
<feGaussianBlur stdDeviation="12.5"/>
<feComposite in2="hardAlpha" operator="out"/>
<feColorMatrix type="matrix" values="0 0 0 0 0.160784 0 0 0 0 0.713726 0 0 0 0 0.964706 0 0 0 1 0"/>
<feBlend mode="normal" in2="effect1_dropShadow_283_58" result="effect2_dropShadow_283_58"/>
<feBlend mode="normal" in="SourceGraphic" in2="effect2_dropShadow_283_58" result="shape"/>
</filter>
</defs>
</svg>
