<svg width="200" height="200" viewBox="0 0 200 200" fill="none" xmlns="http://www.w3.org/2000/svg">

<defs>
 <style>
  .l{
    animation: l 3s linear infinite;
  }
    @keyframes l{
        0%{
        transform: translate(0,-5px);
        }
        50%{
        transform: translate(0,5px);
        }
        100%{
        transform: translate(0,-5px);
        }
    }
 </style>
</defs>
  
<g class="l" filter="url(#filter0_d_283_47)">
<path fill-rule="evenodd" clip-rule="evenodd" d="M80.9976 119.006L83.6826 109.245C82.0261 106.389 81.155 103.148 81.156 99.828C81.161 89.442 89.6487 80.9922 100.08 80.9922C105.142 80.9942 109.892 82.9563 113.465 86.5162C117.037 90.0771 119.005 94.8092 119.003 99.8429C118.999 110.229 110.509 118.68 100.08 118.68H100.072C96.9055 118.679 93.7929 117.888 91.0291 116.386L80.9976 119.006Z" fill="white"/>
<path fill-rule="evenodd" clip-rule="evenodd" d="M80.9969 119.503C80.8654 119.503 80.7378 119.451 80.6431 119.356C80.5185 119.23 80.4697 119.046 80.5165 118.876L83.1468 109.313C81.5162 106.429 80.6561 103.154 80.6581 99.8292C80.662 89.1682 89.374 80.4961 100.079 80.4961C105.272 80.4981 110.151 82.5118 113.817 86.166C117.484 89.8212 119.502 94.6783 119.501 99.8431C119.497 110.503 110.784 119.176 100.079 119.176C96.9009 119.175 93.7564 118.394 90.9657 116.916L81.1235 119.486C81.0816 119.498 81.0398 119.503 80.9969 119.503Z" fill="white"/>
<path fill-rule="evenodd" clip-rule="evenodd" d="M100.079 80.9925C105.142 80.9944 109.892 82.9565 113.465 86.5165C117.037 90.0774 119.004 94.8094 119.002 99.8432C118.998 110.229 110.509 118.68 100.079 118.68H100.071C96.905 118.679 93.7924 117.888 91.0286 116.386L80.9971 119.007L83.6821 109.246C82.0257 106.389 81.1546 103.148 81.1556 99.8283C81.1605 89.4422 89.6482 80.9925 100.079 80.9925ZM100.079 80C89.1001 80 80.1639 88.8944 80.1589 99.8283C80.1579 103.17 81.0051 106.463 82.6117 109.378L80.0353 118.746C79.9416 119.088 80.0373 119.453 80.2884 119.705C80.4778 119.896 80.734 120 80.9971 120C81.0818 120 81.1665 119.989 81.2502 119.967L90.905 117.446C93.7236 118.903 96.8831 119.672 100.071 119.673C111.059 119.673 119.995 110.778 120 99.8442C120.002 94.5455 117.932 89.5633 114.171 85.8158C110.409 82.0673 105.405 80.002 100.079 80Z" fill="#CFD8DC"/>
<path fill-rule="evenodd" clip-rule="evenodd" d="M111.205 88.7659C108.234 85.8064 104.287 84.1758 100.085 84.1748C91.4096 84.1748 84.3541 91.1974 84.3501 99.8298C84.3491 102.788 85.1803 105.668 86.7551 108.162L87.1298 108.755L85.5401 114.532L91.4933 112.978L92.0684 113.317C94.4823 114.744 97.2511 115.499 100.074 115.5H100.08C108.749 115.5 115.804 108.476 115.807 99.8427C115.808 95.6595 114.175 91.7254 111.205 88.7659Z" fill="#40C351"/>
<path fill-rule="evenodd" clip-rule="evenodd" d="M95.3496 91.9537C94.9958 91.1696 94.623 91.1537 94.2851 91.1398C94.0091 91.1279 93.6941 91.1289 93.3792 91.1289C93.0642 91.1289 92.5519 91.247 92.1184 91.7184C91.6848 92.1899 90.4629 93.3282 90.4629 95.6446C90.4629 97.961 92.1572 100.2 92.3935 100.514C92.6297 100.827 95.6645 105.733 100.471 107.621C104.464 109.189 105.277 108.877 106.145 108.799C107.012 108.72 108.942 107.66 109.336 106.561C109.73 105.461 109.73 104.519 109.612 104.323C109.493 104.126 109.178 104.009 108.706 103.773C108.234 103.537 105.908 102.398 105.475 102.241C105.041 102.085 104.726 102.006 104.41 102.478C104.095 102.948 103.189 104.009 102.913 104.323C102.637 104.637 102.361 104.677 101.889 104.441C101.416 104.205 99.8934 103.708 98.0865 102.105C96.6812 100.857 95.7323 99.3157 95.4562 98.8443C95.1802 98.3739 95.4263 98.1188 95.6635 97.8836C95.8758 97.6722 96.136 97.3338 96.3732 97.0589C96.6094 96.7839 96.6881 96.5874 96.8456 96.2738C97.0031 95.9592 96.9243 95.6843 96.8057 95.4491C96.6891 95.2129 95.7702 92.8846 95.3496 91.9537Z" fill="white"/>
</g>
<defs>
<filter id="filter0_d_283_47" x="55" y="55" width="90" height="90" filterUnits="userSpaceOnUse" color-interpolation-filters="sRGB">
<feFlood flood-opacity="0" result="BackgroundImageFix"/>
<feColorMatrix in="SourceAlpha" type="matrix" values="0 0 0 0 0 0 0 0 0 0 0 0 0 0 0 0 0 0 127 0" result="hardAlpha"/>
<feOffset/>
<feGaussianBlur stdDeviation="12.5"/>
<feComposite in2="hardAlpha" operator="out"/>
<feColorMatrix type="matrix" values="0 0 0 0 0.25098 0 0 0 0 0.764706 0 0 0 0 0.317647 0 0 0 1 0"/>
<feBlend mode="normal" in2="BackgroundImageFix" result="effect1_dropShadow_283_47"/>
<feBlend mode="normal" in="SourceGraphic" in2="effect1_dropShadow_283_47" result="shape"/>
</filter>
</defs>
</svg>
