<svg width="90" height="90" viewBox="0 0 90 90" fill="none" xmlns="http://www.w3.org/2000/svg">
<g filter="url(#filter0_d_283_47)">
<path fill-rule="evenodd" clip-rule="evenodd" d="M25.9976 64.0063L28.6826 54.2455C27.0261 51.3892 26.155 48.1478 26.156 44.828C26.161 34.442 34.6487 25.9922 45.0799 25.9922C50.142 25.9942 54.8922 27.9563 58.4653 31.5162C62.0374 35.0771 64.0048 39.8092 64.0028 44.8429C63.9988 55.229 55.5091 63.6798 45.0799 63.6798H45.0719C41.9055 63.6788 38.7929 62.8878 36.0291 61.3862L25.9976 64.0063Z" fill="white"/>
<path fill-rule="evenodd" clip-rule="evenodd" d="M25.9969 64.5026C25.8654 64.5026 25.7378 64.451 25.6431 64.3558C25.5185 64.2297 25.4697 64.0461 25.5165 63.8764L28.1468 54.3131C26.5162 51.429 25.6561 48.1539 25.6581 44.8292C25.662 34.1682 34.374 25.4961 45.0793 25.4961C50.272 25.4981 55.1507 27.5118 58.8175 31.166C62.4842 34.8212 64.5025 39.6783 64.5005 44.8431C64.4965 55.503 55.7836 64.1761 45.0793 64.1761C41.9009 64.1751 38.7564 63.3941 35.9657 61.9163L26.1235 64.4858C26.0816 64.4977 26.0398 64.5026 25.9969 64.5026Z" fill="white"/>
<path fill-rule="evenodd" clip-rule="evenodd" d="M45.0794 25.9925C50.1416 25.9944 54.8917 27.9565 58.4648 31.5165C62.0369 35.0774 64.0043 39.8094 64.0023 44.8432C63.9983 55.2293 55.5087 63.68 45.0794 63.68H45.0715C41.905 63.679 38.7924 62.8881 36.0286 61.3865L25.9971 64.0066L28.6821 54.2457C27.0257 51.3894 26.1546 48.1481 26.1556 44.8283C26.1605 34.4422 34.6482 25.9925 45.0794 25.9925ZM45.0794 25C34.1001 25 25.1639 33.8944 25.1589 44.8283C25.1579 48.1699 26.0051 51.4629 27.6117 54.3777L25.0353 63.7455C24.9416 64.0879 25.0373 64.4532 25.2884 64.7052C25.4778 64.8958 25.734 65 25.9971 65C26.0818 65 26.1665 64.9891 26.2502 64.9673L35.905 62.4464C38.7236 63.9033 41.8831 64.6725 45.0715 64.6735C56.0588 64.6735 64.995 55.7781 65 44.8442C65.002 39.5455 62.9319 34.5633 59.1714 30.8158C55.409 27.0673 50.4047 25.002 45.0794 25Z" fill="#CFD8DC"/>
<path fill-rule="evenodd" clip-rule="evenodd" d="M56.2045 33.7659C53.2344 30.8064 49.2866 29.1758 45.0846 29.1748C36.4096 29.1748 29.3541 36.1974 29.3501 44.8298C29.3491 47.7883 30.1803 50.6685 31.7551 53.1625L32.1298 53.755L30.5401 59.5321L36.4933 57.9779L37.0684 58.3173C39.4823 59.7445 42.2511 60.4987 45.0737 60.4997H45.0796C53.7487 60.4997 60.8042 53.4761 60.8072 44.8427C60.8082 40.6595 59.1746 36.7254 56.2045 33.7659Z" fill="#40C351"/>
<path fill-rule="evenodd" clip-rule="evenodd" d="M40.3496 36.9537C39.9958 36.1696 39.623 36.1537 39.2851 36.1398C39.0091 36.1279 38.6941 36.1289 38.3792 36.1289C38.0642 36.1289 37.5519 36.247 37.1184 36.7184C36.6848 37.1899 35.4629 38.3282 35.4629 40.6446C35.4629 42.961 37.1572 45.2 37.3935 45.5136C37.6297 45.8272 40.6645 50.7329 45.4705 52.6206C49.4642 54.1887 50.2775 53.877 51.1446 53.7986C52.0117 53.7202 53.9423 52.6603 54.3359 51.5606C54.7296 50.461 54.7296 49.5192 54.612 49.3227C54.4934 49.1261 54.1785 49.009 53.706 48.7728C53.2336 48.5366 50.9084 47.3983 50.4748 47.2415C50.0413 47.0847 49.7263 47.0063 49.4104 47.4777C49.0954 47.9481 48.1894 49.009 47.9134 49.3227C47.6373 49.6373 47.3612 49.677 46.8888 49.4408C46.4164 49.2046 44.8934 48.7083 43.0865 47.1045C41.6812 45.857 40.7323 44.3157 40.4562 43.8443C40.1802 43.3739 40.4263 43.1188 40.6635 42.8836C40.8758 42.6722 41.136 42.3338 41.3732 42.0589C41.6094 41.7839 41.6881 41.5874 41.8456 41.2738C42.0031 40.9592 41.9243 40.6843 41.8057 40.4491C41.6891 40.2129 40.7702 37.8846 40.3496 36.9537Z" fill="white"/>
</g>
<defs>
<filter id="filter0_d_283_47" x="0" y="0" width="90" height="90" filterUnits="userSpaceOnUse" color-interpolation-filters="sRGB">
<feFlood flood-opacity="0" result="BackgroundImageFix"/>
<feColorMatrix in="SourceAlpha" type="matrix" values="0 0 0 0 0 0 0 0 0 0 0 0 0 0 0 0 0 0 127 0" result="hardAlpha"/>
<feOffset/>
<feGaussianBlur stdDeviation="12.5"/>
<feComposite in2="hardAlpha" operator="out"/>
<feColorMatrix type="matrix" values="0 0 0 0 0.25098 0 0 0 0 0.764706 0 0 0 0 0.317647 0 0 0 1 0"/>
<feBlend mode="normal" in2="BackgroundImageFix" result="effect1_dropShadow_283_47"/>
<feBlend mode="normal" in="SourceGraphic" in2="effect1_dropShadow_283_47" result="shape"/>
</filter>
</defs>
</svg>
