<svg width="140" height="200" viewBox="0 0 140 200" fill="none" xmlns="http://www.w3.org/2000/svg">
<path d="M3 0H138V200H3V0Z" fill="#0D1117"/>
<g filter="url(#filter0_dd_283_47)">
<path fill-rule="evenodd" clip-rule="evenodd" d="M50.9976 119.006L53.6826 109.245C52.0261 106.389 51.155 103.148 51.156 99.828C51.161 89.442 59.6487 80.9922 70.0799 80.9922C75.142 80.9942 79.8922 82.9563 83.4653 86.5162C87.0374 90.0771 89.0048 94.8092 89.0028 99.8429C88.9988 110.229 80.5091 118.68 70.0799 118.68H70.0719C66.9055 118.679 63.7929 117.888 61.0291 116.386L50.9976 119.006Z" fill="white"/>
<path fill-rule="evenodd" clip-rule="evenodd" d="M50.9969 119.503C50.8654 119.503 50.7378 119.451 50.6431 119.356C50.5185 119.23 50.4697 119.046 50.5165 118.876L53.1468 109.313C51.5162 106.429 50.6561 103.154 50.6581 99.8292C50.662 89.1682 59.374 80.4961 70.0793 80.4961C75.272 80.4981 80.1507 82.5118 83.8175 86.166C87.4842 89.8212 89.5025 94.6783 89.5005 99.8431C89.4965 110.503 80.7836 119.176 70.0793 119.176C66.9009 119.175 63.7564 118.394 60.9657 116.916L51.1235 119.486C51.0816 119.498 51.0398 119.503 50.9969 119.503Z" fill="white"/>
<path fill-rule="evenodd" clip-rule="evenodd" d="M70.0794 80.9925C75.1416 80.9944 79.8917 82.9565 83.4648 86.5165C87.0369 90.0774 89.0043 94.8094 89.0023 99.8432C88.9983 110.229 80.5087 118.68 70.0794 118.68H70.0715C66.905 118.679 63.7924 117.888 61.0286 116.386L50.9971 119.007L53.6821 109.246C52.0257 106.389 51.1546 103.148 51.1556 99.8283C51.1605 89.4422 59.6482 80.9925 70.0794 80.9925ZM70.0794 80C59.1001 80 50.1639 88.8944 50.1589 99.8283C50.1579 103.17 51.0051 106.463 52.6117 109.378L50.0353 118.746C49.9416 119.088 50.0373 119.453 50.2884 119.705C50.4778 119.896 50.734 120 50.9971 120C51.0818 120 51.1665 119.989 51.2502 119.967L60.905 117.446C63.7236 118.903 66.8831 119.672 70.0715 119.673C81.0588 119.673 89.995 110.778 90 99.8442C90.002 94.5455 87.9319 89.5633 84.1714 85.8158C80.409 82.0673 75.4047 80.002 70.0794 80Z" fill="#CFD8DC"/>
<path fill-rule="evenodd" clip-rule="evenodd" d="M81.2045 88.7659C78.2344 85.8064 74.2866 84.1758 70.0846 84.1748C61.4096 84.1748 54.3541 91.1974 54.3501 99.8298C54.3491 102.788 55.1803 105.668 56.7551 108.162L57.1298 108.755L55.5401 114.532L61.4933 112.978L62.0684 113.317C64.4823 114.744 67.2511 115.499 70.0737 115.5H70.0796C78.7487 115.5 85.8042 108.476 85.8072 99.8427C85.8082 95.6595 84.1746 91.7254 81.2045 88.7659Z" fill="#40C351"/>
<path fill-rule="evenodd" clip-rule="evenodd" d="M65.3496 91.9537C64.9958 91.1696 64.623 91.1537 64.2851 91.1398C64.0091 91.1279 63.6941 91.1289 63.3792 91.1289C63.0642 91.1289 62.5519 91.247 62.1184 91.7184C61.6848 92.1899 60.4629 93.3282 60.4629 95.6446C60.4629 97.961 62.1572 100.2 62.3935 100.514C62.6297 100.827 65.6645 105.733 70.4705 107.621C74.4642 109.189 75.2775 108.877 76.1446 108.799C77.0117 108.72 78.9423 107.66 79.3359 106.561C79.7296 105.461 79.7296 104.519 79.612 104.323C79.4934 104.126 79.1785 104.009 78.706 103.773C78.2336 103.537 75.9084 102.398 75.4748 102.241C75.0413 102.085 74.7263 102.006 74.4104 102.478C74.0954 102.948 73.1894 104.009 72.9134 104.323C72.6373 104.637 72.3612 104.677 71.8888 104.441C71.4164 104.205 69.8934 103.708 68.0865 102.105C66.6812 100.857 65.7323 99.3157 65.4562 98.8443C65.1802 98.3739 65.4263 98.1188 65.6635 97.8836C65.8758 97.6722 66.136 97.3338 66.3732 97.0589C66.6094 96.7839 66.6881 96.5874 66.8456 96.2738C67.0031 95.9592 66.9243 95.6843 66.8057 95.4491C66.6891 95.2129 65.7702 92.8846 65.3496 91.9537Z" fill="white"/>
</g>
<defs>
<filter id="filter0_dd_283_47" x="0" y="30" width="140" height="140" filterUnits="userSpaceOnUse" color-interpolation-filters="sRGB">
<feFlood flood-opacity="0" result="BackgroundImageFix"/>
<feColorMatrix in="SourceAlpha" type="matrix" values="0 0 0 0 0 0 0 0 0 0 0 0 0 0 0 0 0 0 127 0" result="hardAlpha"/>
<feOffset/>
<feGaussianBlur stdDeviation="25"/>
<feComposite in2="hardAlpha" operator="out"/>
<feColorMatrix type="matrix" values="0 0 0 0 0.25098 0 0 0 0 0.764706 0 0 0 0 0.317647 0 0 0 1 0"/>
<feBlend mode="normal" in2="BackgroundImageFix" result="effect1_dropShadow_283_47"/>
<feColorMatrix in="SourceAlpha" type="matrix" values="0 0 0 0 0 0 0 0 0 0 0 0 0 0 0 0 0 0 127 0" result="hardAlpha"/>
<feOffset/>
<feGaussianBlur stdDeviation="12.5"/>
<feComposite in2="hardAlpha" operator="out"/>
<feColorMatrix type="matrix" values="0 0 0 0 0.25098 0 0 0 0 0.764706 0 0 0 0 0.317647 0 0 0 1 0"/>
<feBlend mode="normal" in2="effect1_dropShadow_283_47" result="effect2_dropShadow_283_47"/>
<feBlend mode="normal" in="SourceGraphic" in2="effect2_dropShadow_283_47" result="shape"/>
</filter>
</defs>
</svg>
