<svg width="100" height="60" viewBox="0 0 100 60" fill="none" xmlns="http://www.w3.org/2000/svg">
<path d="M36.2114 16.2114C39.8684 12.5545 44.8283 10.5 50 10.5C55.1717 10.5 60.1316 12.5545 63.7886 16.2114C67.4455 19.8684 69.5 24.8283 69.5 30C69.5 35.1717 67.4455 40.1316 63.7886 43.7886C60.1316 47.4455 55.1717 49.5 50 49.5C44.8283 49.5 39.8684 47.4455 36.2114 43.7886C32.5545 40.1316 30.5 35.1717 30.5 30C30.5 24.8283 32.5545 19.8684 36.2114 16.2114Z" fill="url(#paint0_linear_283_47)" stroke="white"/>
<path fill-rule="evenodd" clip-rule="evenodd" d="M44.5069 20.9294C44.1082 20.0459 43.6881 20.028 43.3073 20.0123C42.9962 19.9989 42.6413 20 42.2864 20C41.9315 20 41.3542 20.1331 40.8656 20.6644C40.377 21.1956 39 22.4784 39 25.0888C39 27.6992 40.9094 30.2223 41.1756 30.5757C41.4418 30.9291 44.8618 36.4574 50.2777 38.5847C54.7782 40.3518 55.6947 40.0006 56.6719 39.9122C57.649 39.8239 59.8246 38.6294 60.2683 37.3902C60.7119 36.151 60.7119 35.0896 60.5794 34.8682C60.4457 34.6467 60.0908 34.5148 59.5584 34.2486C59.026 33.9824 56.4057 32.6996 55.9171 32.5229C55.4285 32.3462 55.0736 32.2578 54.7176 32.7891C54.3627 33.3192 53.3417 34.5148 53.0306 34.8682C52.7195 35.2227 52.4084 35.2675 51.876 35.0013C51.3436 34.7351 49.6274 34.1759 47.5911 32.3685C46.0074 30.9627 44.9382 29.2258 44.6271 28.6946C44.3159 28.1644 44.5934 27.877 44.8607 27.6119C45.0999 27.3737 45.3931 26.9923 45.6604 26.6825C45.9266 26.3727 46.0153 26.1513 46.1928 25.7979C46.3702 25.4433 46.2815 25.1335 46.1478 24.8685C46.0164 24.6023 44.9809 21.9785 44.5069 20.9294Z" fill="white"/>
<defs>
<linearGradient id="paint0_linear_283_47" x1="50" y1="10" x2="50" y2="50" gradientUnits="userSpaceOnUse">
<stop stop-color="#40C351"/>
<stop offset="1" stop-color="#195921"/>
</linearGradient>
</defs>
</svg>
