<svg width="512" height="512" viewBox="0 0 512 512" fill="none" xmlns="http://www.w3.org/2000/svg">
<path d="M289.76 215.791H342.794ZM226.623 215.791H279.658ZM164.75 215.791H217.784ZM102.876 215.791H154.648ZM39.7396 215.791H92.7742ZM102.876 161.395H154.648ZM164.75 161.395H217.784ZM226.623 161.395H279.658ZM226.623 107H279.658Z" fill="black"/>
<path d="M289.76 215.791H342.794M226.623 215.791H279.658M164.75 215.791H217.784M102.876 215.791H154.648M39.7396 215.791H92.7742M102.876 161.395H154.648M164.75 161.395H217.784M226.623 161.395H279.658M226.623 107H279.658" stroke="#066DA5" stroke-width="38"/>
<path d="M512 218.156C512 218.156 489.271 198.053 442.55 205.148C437.499 170.856 398.354 150.753 398.354 150.753C398.354 150.753 361.735 192.141 388.253 238.259C380.676 241.806 368.049 246.536 349.108 246.536H1.85777C-4.45587 269.004 -4.45587 418 169.801 418C294.811 418 388.253 363.605 432.448 264.274C498.11 269.004 512 218.156 512 218.156Z" fill="#066DA5"/>
</svg>
