<svg width="128" height="128" viewBox="0 0 128 128" fill="none" xmlns="http://www.w3.org/2000/svg">
<g clip-path="url(#clip0_200_850)">
<path fill-rule="evenodd" clip-rule="evenodd" d="M94.568 57.3223C94.1696 52.1653 92.9573 47.1923 91.2713 42.3206C87.7788 31.4424 82.1739 21.8152 74.279 13.5316C72.2829 11.4365 70.0629 9.51688 68.6708 6.9093C67.7901 5.25991 66.9514 3.58791 66.0934 1.9256L65.5497 0.555054C65.4582 0.869428 65.4 0.981398 65.3968 1.09444C65.3268 3.80431 63.7916 5.64211 61.8795 7.35717C59.7294 9.28756 57.728 11.3827 55.662 13.4057C53.5432 16.192 51.4254 18.9783 49.3088 21.7635C47.5948 24.9126 45.883 28.0618 44.1711 31.2109L40.7367 40.4882L40.6333 40.6324C38.7428 46.8424 37.8104 53.2268 37.3518 59.6758C37.1795 62.0993 37.3755 64.5583 37.5122 66.9947C37.7071 70.4776 38.3121 73.9012 39.2197 77.2711C42.5164 89.5145 49.2065 99.6703 58.3524 108.298C60.0524 109.901 61.7966 111.359 63.5708 112.885C63.8745 111.846 64.1167 110.807 64.3923 109.768C64.6679 108.733 64.9468 107.704 65.133 106.666C64.9457 107.704 64.7358 108.733 64.528 109.768L63.6387 112.885L64.4332 115.577L65.1696 119.759L65.5206 124.123C65.5174 125.009 65.4819 125.897 65.5357 126.782C65.5486 127.008 65.8458 127.217 66.0116 127.434L67.493 127.954L69.0369 128.555L68.772 124.676L68.7602 120.856L69.2931 115.037L69.6796 113.77L70.7853 111.81C72.1505 110.712 73.6158 109.715 74.8593 108.493C77.1094 106.282 79.3542 104.042 81.3675 101.621C83.9804 98.4806 86.2284 95.0526 88.0328 91.376C89.2408 88.9169 90.3777 86.4084 91.3187 83.8385C92.1477 81.5733 92.6613 79.1929 93.3148 76.863C93.3729 76.6951 93.4504 76.5304 93.487 76.3592C94.8371 70.0706 95.0643 63.7185 94.568 57.3223Z" fill="#4FAA41"/>
</g>
<defs>
<clipPath id="clip0_200_850">
<rect width="128" height="128" fill="white"/>
</clipPath>
</defs>
</svg>
