<svg width="1341" height="240" viewBox="0 0 1341 240" fill="none" xmlns="http://www.w3.org/2000/svg">
<g filter="url(#filter0_d_3_10)">
<path d="M15.7218 10H1315.72V172.105C1315.72 172.105 1234.85 133.939 1160.01 122.632C1048.21 105.738 967.514 172.105 895.224 179.953C822.934 187.801 799.727 184.638 656.48 147.559C575.188 126.516 507.073 139.108 415.901 163.684C324.73 188.26 306.236 185.789 176.654 163.684C47.0723 141.579 15.7218 210 15.7218 210V10Z" fill="url(#paint0_linear_3_10)"/>
<path d="M15.7218 10H1315.72V172.105C1315.72 172.105 1234.85 133.939 1160.01 122.632C1048.21 105.738 967.514 172.105 895.224 179.953C822.934 187.801 799.727 184.638 656.48 147.559C575.188 126.516 507.073 139.108 415.901 163.684C324.73 188.26 306.236 185.789 176.654 163.684C47.0723 141.579 15.7218 210 15.7218 210V10Z" fill="#030303" fill-opacity="0.3"/>
</g>
<path d="M517.846 63.8906C517.846 64.7207 517.748 65.7949 517.553 67.1133C517.374 68.4316 517.121 69.9779 516.796 71.752C516.438 73.6725 516.063 75.7559 515.673 78.002C515.282 80.2318 514.997 82.5104 514.818 84.8379C514.818 84.9518 514.802 85.2367 514.77 85.6924C514.737 86.1481 514.696 86.7259 514.647 87.4258C514.599 88.1257 514.542 88.9232 514.477 89.8184C514.428 90.6973 514.379 91.6331 514.33 92.626C514.281 93.6025 514.241 94.6035 514.208 95.6289C514.175 96.6543 514.159 97.6553 514.159 98.6318C514.159 99.1852 514.053 99.6816 513.842 100.121C513.646 100.544 513.378 100.902 513.036 101.195C512.694 101.505 512.296 101.732 511.84 101.879C511.384 102.042 510.904 102.123 510.399 102.123C510.106 102.123 509.781 102.058 509.423 101.928C509.081 101.814 508.756 101.635 508.446 101.391C508.153 101.163 507.901 100.87 507.689 100.512C507.478 100.154 507.372 99.7305 507.372 99.2422C507.372 98.9167 507.405 98.4609 507.47 97.875C507.551 97.2891 507.641 96.6299 507.738 95.8975C507.852 95.165 507.974 94.3838 508.104 93.5537C508.235 92.7236 508.349 91.9017 508.446 91.0879C508.56 90.2741 508.65 89.501 508.715 88.7686C508.796 88.0361 508.837 87.4014 508.837 86.8643C508.837 86.5713 508.812 86.3109 508.764 86.083C508.715 85.8551 508.576 85.7412 508.349 85.7412C507.86 85.7412 507.201 85.7738 506.371 85.8389C505.541 85.8877 504.67 85.9528 503.759 86.0342C502.864 86.0993 501.985 86.1644 501.122 86.2295C500.276 86.2783 499.584 86.3027 499.047 86.3027C498.933 86.3027 498.648 86.319 498.192 86.3516C497.753 86.3678 497.224 86.3923 496.605 86.4248C496.003 86.4574 495.352 86.5062 494.652 86.5713C493.952 86.6201 493.293 86.6689 492.675 86.7178C492.056 86.7666 491.519 86.8236 491.063 86.8887C490.624 86.9375 490.347 86.9863 490.233 87.0352C490.152 87.1165 490.054 87.4502 489.94 88.0361C489.843 88.6221 489.737 89.3057 489.623 90.0869C489.525 90.8519 489.436 91.6331 489.354 92.4307C489.273 93.2119 489.216 93.8467 489.184 94.335C489.184 95.3604 489.118 96.3613 488.988 97.3379C488.874 98.3145 488.663 99.1852 488.354 99.9502C488.061 100.715 487.67 101.326 487.182 101.781C486.693 102.253 486.083 102.489 485.351 102.489C484.895 102.489 484.48 102.375 484.105 102.147C483.747 101.92 483.438 101.627 483.178 101.269C482.917 100.91 482.714 100.528 482.567 100.121C482.421 99.6979 482.348 99.3073 482.348 98.9492C482.348 98.6074 482.38 98.2087 482.445 97.7529C482.527 97.2972 482.616 96.8415 482.714 96.3857C482.812 95.93 482.901 95.515 482.982 95.1406C483.064 94.75 483.113 94.4652 483.129 94.2861C483.34 93.2933 483.552 92.1458 483.764 90.8438C483.992 89.5417 484.211 88.1338 484.423 86.6201C484.651 85.0902 484.87 83.487 485.082 81.8105C485.31 80.1341 485.521 78.4333 485.717 76.708C485.928 74.9665 486.132 73.2331 486.327 71.5078C486.522 69.7826 486.701 68.1143 486.864 66.5029C486.897 66.2588 486.986 66.0065 487.133 65.7461C487.296 65.4694 487.499 65.2253 487.743 65.0137C488.004 64.7858 488.297 64.5986 488.622 64.4521C488.948 64.3057 489.289 64.2324 489.647 64.2324C489.729 64.2324 489.802 64.2406 489.867 64.2568C489.932 64.2568 490.006 64.265 490.087 64.2812C490.705 64.3952 491.202 64.5579 491.576 64.7695C491.951 64.9648 492.235 65.2171 492.431 65.5264C492.626 65.8356 492.756 66.2018 492.821 66.625C492.886 67.0482 492.919 67.5365 492.919 68.0898C492.919 69.1315 492.846 70.222 492.699 71.3613C492.553 72.4844 492.349 73.6318 492.089 74.8037C491.975 75.3408 491.861 75.9023 491.747 76.4883C491.649 77.0742 491.56 77.6602 491.479 78.2461C491.397 78.832 491.332 79.4017 491.283 79.9551C491.234 80.4922 491.21 80.9967 491.21 81.4688C491.243 81.5176 491.324 81.5583 491.454 81.5908C491.601 81.6234 491.763 81.6478 491.942 81.6641C492.121 81.6803 492.3 81.6966 492.479 81.7129C492.675 81.7129 492.838 81.7129 492.968 81.7129C493.212 81.7129 493.627 81.7129 494.213 81.7129C494.799 81.6966 495.482 81.6722 496.264 81.6396C497.045 81.6071 497.891 81.5745 498.803 81.542C499.73 81.4932 500.658 81.4362 501.586 81.3711C502.53 81.306 503.441 81.2327 504.32 81.1514C505.199 81.0537 505.997 80.9479 506.713 80.834C507.429 80.7201 508.015 80.5898 508.471 80.4434C508.943 80.2969 509.236 80.1341 509.35 79.9551C509.431 79.8411 509.537 79.5156 509.667 78.9785C509.797 78.4251 509.936 77.7334 510.082 76.9033C510.245 76.0732 510.399 75.1374 510.546 74.0957C510.709 73.0378 510.855 71.9391 510.985 70.7998C511.116 69.6605 511.221 68.513 511.303 67.3574C511.384 66.2018 511.425 65.1032 511.425 64.0615C511.425 63.8662 511.506 63.6221 511.669 63.3291C511.832 63.0361 512.051 62.7513 512.328 62.4746C512.605 62.1816 512.938 61.9375 513.329 61.7422C513.72 61.5469 514.135 61.4492 514.574 61.4492C514.867 61.4492 515.201 61.498 515.575 61.5957C515.95 61.6934 516.299 61.8398 516.625 62.0352C516.967 62.2305 517.252 62.4827 517.479 62.792C517.707 63.1012 517.829 63.4674 517.846 63.8906ZM532.191 80.0039C532.191 79.2878 532.077 78.7832 531.85 78.4902C531.638 78.1973 531.394 78.0508 531.117 78.0508C530.873 78.0508 530.588 78.1973 530.263 78.4902C529.937 78.7832 529.595 79.182 529.237 79.6865C528.896 80.1748 528.546 80.7526 528.188 81.4199C527.846 82.071 527.52 82.7627 527.211 83.4951C526.918 84.2275 526.666 84.9844 526.454 85.7656C526.259 86.5306 526.12 87.2712 526.039 87.9873C526.511 87.5967 526.934 87.2467 527.309 86.9375C527.699 86.612 528.065 86.2702 528.407 85.9121C528.749 85.5703 529.132 85.1553 529.555 84.667C529.994 84.1624 530.409 83.6416 530.8 83.1045C531.19 82.5674 531.516 82.0303 531.776 81.4932C532.053 80.9561 532.191 80.4596 532.191 80.0039ZM551.137 82.6406C551.137 82.7708 551.088 82.9743 550.99 83.251C550.893 83.5277 550.73 83.8532 550.502 84.2275C549.867 85.2367 549.07 86.3353 548.109 87.5234C547.165 88.7116 546.116 89.8997 544.96 91.0879C543.821 92.2598 542.592 93.3991 541.273 94.5059C539.971 95.5964 538.645 96.5648 537.294 97.4111C535.959 98.2575 534.625 98.9411 533.29 99.4619C531.955 99.9665 530.686 100.219 529.481 100.219C527.951 100.219 526.617 100.007 525.478 99.584C524.338 99.1608 523.394 98.5505 522.646 97.7529C521.897 96.9391 521.335 95.9544 520.961 94.7988C520.587 93.627 520.399 92.3005 520.399 90.8193C520.399 89.6963 520.481 88.5081 520.644 87.2549C520.823 86.0016 521.14 84.7321 521.596 83.4463C522.051 82.1442 522.662 80.8421 523.427 79.54C524.208 78.2217 525.201 76.9521 526.405 75.7314C527.333 74.7874 528.334 74.0713 529.408 73.583C530.482 73.0947 531.508 72.8506 532.484 72.8506C532.663 72.8506 532.891 72.8913 533.168 72.9727C533.445 73.0378 533.721 73.1354 533.998 73.2656C534.275 73.3958 534.543 73.5505 534.804 73.7295C535.064 73.9085 535.276 74.1038 535.438 74.3154C535.959 74.9827 536.35 75.6175 536.61 76.2197C536.871 76.8057 537.001 77.473 537.001 78.2217C537.001 79.3936 536.838 80.4515 536.513 81.3955C536.187 82.3395 535.74 83.2266 535.17 84.0566C534.617 84.8704 533.957 85.6598 533.192 86.4248C532.427 87.1898 531.605 87.9873 530.727 88.8174C530.189 89.3219 529.522 89.8753 528.725 90.4775C527.927 91.0635 527.073 91.7064 526.161 92.4062C526.291 92.9108 526.454 93.3503 526.649 93.7246C526.845 94.0827 527.089 94.3838 527.382 94.6279C527.675 94.8721 528.025 95.0592 528.432 95.1895C528.855 95.3034 529.351 95.3604 529.921 95.3604C530.686 95.3604 531.5 95.2301 532.362 94.9697C533.241 94.7093 534.12 94.3757 534.999 93.9688C535.764 93.6107 536.521 93.1631 537.27 92.626C538.018 92.0726 538.775 91.5029 539.54 90.917C540.012 90.5589 540.614 90.0462 541.347 89.3789C542.095 88.6953 542.852 87.9873 543.617 87.2549C544.138 86.7666 544.659 86.2946 545.18 85.8389C545.701 85.3669 546.254 84.846 546.84 84.2764L548.134 83.0068C549.078 82.2419 549.843 81.8594 550.429 81.8594C550.738 81.8594 550.933 81.9489 551.015 82.1279C551.096 82.307 551.137 82.4779 551.137 82.6406ZM569.413 80.4922C569.397 80.7689 569.299 81.2083 569.12 81.8105C568.941 82.3965 568.713 83.0882 568.437 83.8857C568.176 84.6833 567.867 85.5622 567.509 86.5225C567.167 87.4665 566.817 88.443 566.459 89.4521C566.117 90.4613 565.775 91.4785 565.434 92.5039C565.092 93.513 564.791 94.4733 564.53 95.3848C564.514 95.4336 564.441 95.6615 564.311 96.0684C564.197 96.459 564.042 96.9717 563.847 97.6064C563.651 98.2249 563.432 98.9329 563.188 99.7305C562.943 100.512 562.691 101.317 562.431 102.147C562.187 102.978 561.934 103.783 561.674 104.564C561.43 105.362 561.21 106.078 561.015 106.713C560.819 107.348 560.657 107.868 560.526 108.275C560.396 108.699 560.323 108.935 560.307 108.983C560.176 109.423 560.03 109.936 559.867 110.521C559.721 111.107 559.509 111.653 559.232 112.157C558.972 112.678 558.622 113.118 558.183 113.476C557.743 113.834 557.165 114.013 556.449 114.013C556.042 114.013 555.676 113.931 555.351 113.769C555.041 113.606 554.773 113.394 554.545 113.134C554.333 112.89 554.162 112.605 554.032 112.279C553.918 111.97 553.861 111.661 553.861 111.352C553.861 110.993 553.951 110.513 554.13 109.911C554.309 109.325 554.529 108.674 554.789 107.958C555.066 107.258 555.359 106.509 555.668 105.712C555.993 104.931 556.295 104.158 556.571 103.393C556.571 103.393 556.628 103.23 556.742 102.904C556.872 102.595 557.035 102.18 557.23 101.659C557.426 101.138 557.637 100.552 557.865 99.9014C558.109 99.2503 558.354 98.5993 558.598 97.9482C558.842 97.2972 559.07 96.6787 559.281 96.0928C559.509 95.5068 559.696 95.0186 559.843 94.6279C559.468 94.9372 559.037 95.2708 558.549 95.6289C558.061 95.987 557.54 96.3532 556.986 96.7275C556.449 97.0856 555.88 97.4355 555.277 97.7773C554.675 98.1029 554.073 98.3958 553.471 98.6562C552.885 98.9167 552.299 99.1283 551.713 99.291C551.143 99.4375 550.598 99.5107 550.077 99.5107C548.954 99.5107 547.961 99.3236 547.099 98.9492C546.236 98.5749 545.512 98.1029 544.926 97.5332C544.34 96.9473 543.892 96.3125 543.583 95.6289C543.29 94.929 543.144 94.2536 543.144 93.6025C543.144 93.1143 543.192 92.512 543.29 91.7959C543.404 91.0798 543.55 90.3148 543.729 89.501C543.925 88.6709 544.153 87.8164 544.413 86.9375C544.674 86.0423 544.95 85.1797 545.243 84.3496C545.536 83.5195 545.837 82.7546 546.146 82.0547C546.472 81.3385 546.798 80.7445 547.123 80.2725C547.628 79.54 548.108 79.0273 548.563 78.7344C549.035 78.4414 549.54 78.2949 550.077 78.2949C550.582 78.2949 550.989 78.3682 551.298 78.5146C551.623 78.6611 551.876 78.8646 552.055 79.125C552.234 79.3854 552.356 79.6784 552.421 80.0039C552.486 80.3294 552.519 80.6794 552.519 81.0537C552.519 81.2816 552.421 81.6071 552.226 82.0303C552.047 82.4535 551.819 82.958 551.542 83.5439C551.298 84.0485 551.013 84.6507 550.688 85.3506C550.362 86.0342 550.061 86.7829 549.784 87.5967C549.507 88.3942 549.271 89.2324 549.076 90.1113C548.881 90.9902 548.783 91.8773 548.783 92.7725C548.783 93.0817 548.865 93.3421 549.027 93.5537C549.19 93.7653 549.377 93.9362 549.589 94.0664C549.817 94.1803 550.045 94.2699 550.272 94.335C550.517 94.3838 550.712 94.4082 550.858 94.4082C551.444 94.4082 552.055 94.2943 552.689 94.0664C553.324 93.8223 553.951 93.5293 554.569 93.1875C555.204 92.8294 555.814 92.4551 556.4 92.0645C557.003 91.6576 557.572 91.2913 558.109 90.9658C558.549 90.6891 559.037 90.3392 559.574 89.916C560.111 89.4766 560.575 88.9883 560.966 88.4512C561.145 88.207 561.356 87.7757 561.601 87.1572C561.861 86.5225 562.13 85.8063 562.406 85.0088C562.683 84.2113 562.951 83.3975 563.212 82.5674C563.489 81.721 563.725 80.9561 563.92 80.2725C564.066 79.7842 564.254 79.361 564.481 79.0029C564.726 78.6286 564.978 78.3275 565.238 78.0996C565.515 77.8555 565.792 77.6764 566.068 77.5625C566.361 77.4323 566.63 77.3672 566.874 77.3672C567.427 77.3672 567.867 77.416 568.192 77.5137C568.534 77.6113 568.795 77.7822 568.974 78.0264C569.153 78.2542 569.267 78.5716 569.315 78.9785C569.381 79.3691 569.413 79.8574 569.413 80.4434V80.4922ZM584.125 98.2412C584.125 98.4202 584.035 98.7539 583.856 99.2422C583.677 99.7142 583.466 100.219 583.222 100.756C582.978 101.293 582.717 101.806 582.44 102.294C582.18 102.799 581.952 103.148 581.757 103.344C581.513 103.588 581.236 103.848 580.927 104.125C580.634 104.402 580.292 104.662 579.901 104.906C579.527 105.167 579.112 105.395 578.656 105.59C578.217 105.785 577.737 105.932 577.216 106.029C577.004 106.062 576.841 106.094 576.728 106.127C576.614 106.176 576.508 106.216 576.41 106.249C575.775 106.526 575.165 106.737 574.579 106.884C574.009 107.047 573.489 107.128 573.017 107.128C571.942 107.128 571.405 106.534 571.405 105.346C571.405 104.923 571.592 104.524 571.967 104.149C573.09 103.873 574.083 103.515 574.945 103.075C575.824 102.636 576.549 102.147 577.118 101.61C577.248 101.464 577.387 101.244 577.533 100.951C577.68 100.658 577.818 100.357 577.948 100.048C578.078 99.7223 578.184 99.4375 578.266 99.1934C578.363 98.9329 578.412 98.7702 578.412 98.7051C578.412 98.526 578.404 98.3145 578.388 98.0703C578.388 97.8262 578.371 97.5739 578.339 97.3135C578.306 97.0368 578.257 96.7764 578.192 96.5322C578.127 96.2718 578.038 96.0602 577.924 95.8975C577.615 95.4255 577.46 95.0023 577.46 94.6279C577.46 94.4326 577.501 94.2048 577.582 93.9443C577.68 93.6676 577.802 93.4072 577.948 93.1631C578.111 92.9027 578.306 92.6911 578.534 92.5283C578.778 92.3493 579.047 92.2598 579.34 92.2598C579.633 92.2598 579.983 92.3167 580.39 92.4307C580.813 92.5446 581.212 92.6829 581.586 92.8457C581.977 93.0085 582.318 93.1875 582.611 93.3828C582.904 93.5618 583.075 93.7327 583.124 93.8955C583.791 95.6696 584.125 97.1182 584.125 98.2412ZM616.405 65.9902C616.405 66.1367 616.373 66.3646 616.308 66.6738C616.243 66.9831 616.153 67.3167 616.039 67.6748C615.941 68.0329 615.827 68.391 615.697 68.749C615.567 69.0908 615.437 69.3838 615.307 69.6279C615.193 69.8883 614.981 70.1406 614.672 70.3848C614.363 70.6126 614.029 70.8079 613.671 70.9707C613.313 71.1335 612.955 71.2637 612.597 71.3613C612.239 71.459 611.938 71.5078 611.693 71.5078C611.368 71.5078 611.107 71.4671 610.912 71.3857C610.733 71.3044 610.595 71.1904 610.497 71.0439C610.399 70.8975 610.334 70.7347 610.302 70.5557C610.285 70.3604 610.269 70.165 610.253 69.9697C610.253 69.9372 610.245 69.8639 610.229 69.75C610.212 69.6361 610.163 69.3757 610.082 68.9688C610.033 68.8223 609.976 68.6921 609.911 68.5781C609.862 68.4642 609.813 68.3421 609.765 68.2119C609.716 68.0817 609.667 67.9352 609.618 67.7725C609.586 67.5934 609.569 67.3818 609.569 67.1377C609.569 66.8285 609.667 66.4948 609.862 66.1367C610.074 65.7624 610.351 65.4206 610.692 65.1113C611.05 64.7858 611.465 64.5173 611.938 64.3057C612.41 64.0941 612.922 63.9883 613.476 63.9883C613.638 63.9883 613.882 64.0534 614.208 64.1836C614.534 64.2975 614.859 64.4521 615.185 64.6475C615.51 64.8428 615.795 65.0625 616.039 65.3066C616.283 65.5345 616.405 65.7624 616.405 65.9902ZM623.852 93.0654C623.852 93.3258 623.762 93.6676 623.583 94.0908C623.404 94.4977 623.144 94.9453 622.802 95.4336C622.46 95.9219 622.037 96.4346 621.532 96.9717C621.028 97.4925 620.45 97.9971 619.799 98.4854C619.441 98.7458 618.993 99.0469 618.456 99.3887C617.935 99.7305 617.325 100.056 616.625 100.365C615.925 100.658 615.144 100.902 614.281 101.098C613.419 101.309 612.475 101.415 611.449 101.415C610.163 101.415 609.057 101.171 608.129 100.683C607.217 100.194 606.469 99.5596 605.883 98.7783C605.297 97.9808 604.866 97.0856 604.589 96.0928C604.312 95.0837 604.174 94.0664 604.174 93.041C604.174 92.3249 604.215 91.5762 604.296 90.7949C604.377 89.9974 604.475 89.2161 604.589 88.4512C604.703 87.6862 604.833 86.9456 604.979 86.2295C605.126 85.4971 605.256 84.8379 605.37 84.252C605.484 83.666 605.582 83.1696 605.663 82.7627C605.744 82.3395 605.785 82.0465 605.785 81.8838C605.785 81.5094 605.826 81.1025 605.907 80.6631C606.005 80.2236 606.16 79.8167 606.371 79.4424C606.583 79.0518 606.868 78.7262 607.226 78.4658C607.584 78.2054 608.039 78.0752 608.593 78.0752C609.179 78.0752 609.683 78.1566 610.106 78.3193C610.546 78.4658 610.896 78.653 611.156 78.8809C611.433 79.1087 611.636 79.3529 611.767 79.6133C611.897 79.8737 611.962 80.1178 611.962 80.3457C611.962 80.6875 611.889 81.127 611.742 81.6641C611.612 82.2012 611.441 82.7871 611.229 83.4219C611.067 83.9427 610.888 84.5124 610.692 85.1309C610.513 85.7493 610.342 86.4004 610.18 87.084C610.017 87.7676 609.887 88.4756 609.789 89.208C609.691 89.9404 609.643 90.6891 609.643 91.4541C609.643 92.0075 609.667 92.5934 609.716 93.2119C609.765 93.8141 609.87 94.3757 610.033 94.8965C610.196 95.401 610.432 95.8242 610.741 96.166C611.067 96.4915 611.498 96.6543 612.035 96.6543C612.589 96.6543 613.158 96.5892 613.744 96.459C614.346 96.3288 614.932 96.166 615.502 95.9707C616.088 95.7591 616.633 95.515 617.138 95.2383C617.659 94.9616 618.114 94.6768 618.505 94.3838C619.351 93.749 620.1 93.1875 620.751 92.6992C621.402 92.2109 622.004 91.9668 622.558 91.9668C623.03 91.9668 623.363 92.097 623.559 92.3574C623.754 92.6016 623.852 92.8376 623.852 93.0654ZM628.334 68.041C628.318 68.4967 628.253 69.0501 628.139 69.7012C628.025 70.3522 627.854 71.1172 627.626 71.9961V71.9717C627.203 73.6481 626.609 75.1455 625.844 76.4639V76.4395C625.437 77.2044 624.965 77.7741 624.428 78.1484C623.891 78.5065 623.313 78.6855 622.694 78.6855C622.336 78.6855 621.994 78.6286 621.669 78.5146C621.343 78.4007 621.059 78.2461 620.814 78.0508C620.57 77.8555 620.375 77.6276 620.229 77.3672C620.082 77.0905 620.009 76.7975 620.009 76.4883C620.009 76.293 620.049 76.0732 620.131 75.8291C620.212 75.585 620.31 75.349 620.424 75.1211C620.554 74.877 620.692 74.6572 620.839 74.4619C620.985 74.2503 621.132 74.0794 621.278 73.9492C621.636 73.6237 621.938 73.3063 622.182 72.9971C622.426 72.6715 622.621 72.3298 622.768 71.9717C622.93 71.6136 623.044 71.2311 623.109 70.8242C623.174 70.401 623.207 69.9372 623.207 69.4326C623.207 69.0094 623.085 68.6676 622.841 68.4072C622.662 68.1794 622.466 67.9515 622.255 67.7236C622.043 67.4958 621.807 67.2679 621.547 67.04C620.766 66.3564 620.375 65.8763 620.375 65.5996L620.204 64.3789C620.204 64.1022 620.22 63.8581 620.253 63.6465C620.285 63.4349 620.31 63.2884 620.326 63.207C620.505 62.735 621.026 62.32 621.889 61.9619C622.214 61.7992 622.499 61.6934 622.743 61.6445C623.004 61.5794 623.24 61.5469 623.451 61.5469C623.923 61.5469 624.411 61.7747 624.916 62.2305C625.062 62.3607 625.225 62.5153 625.404 62.6943C625.583 62.8571 625.746 63.028 625.893 63.207C626.348 63.6628 626.658 63.9883 626.82 64.1836C626.999 64.3626 627.105 64.4684 627.138 64.501C627.366 64.8428 627.561 65.1602 627.724 65.4531C627.886 65.7461 627.992 66.0065 628.041 66.2344C628.139 66.4622 628.212 66.7389 628.261 67.0645C628.31 67.3737 628.334 67.6911 628.334 68.0166V68.041ZM681.669 88.5977C681.669 88.7441 681.62 88.9801 681.522 89.3057C681.441 89.6312 681.319 90.0055 681.156 90.4287C681.01 90.8356 680.831 91.2751 680.619 91.7471C680.408 92.2191 680.172 92.6667 679.911 93.0898C679.407 93.9199 678.878 94.6849 678.324 95.3848C677.771 96.0684 677.169 96.6624 676.518 97.167C675.867 97.6553 675.15 98.0378 674.369 98.3145C673.604 98.5749 672.758 98.7051 671.83 98.7051C671.033 98.7051 670.268 98.5098 669.535 98.1191C668.819 97.7285 668.16 97.1914 667.558 96.5078C666.955 95.8079 666.426 94.9779 665.971 94.0176C665.515 93.041 665.157 91.9668 664.896 90.7949C664.734 90.0625 664.595 89.3382 664.481 88.6221C664.384 87.9059 664.294 87.263 664.213 86.6934C664.132 86.1237 664.05 85.6598 663.969 85.3018C663.887 84.9437 663.798 84.7646 663.7 84.7646C663.505 84.7646 663.261 84.9111 662.968 85.2041C662.691 85.4808 662.357 85.9284 661.967 86.5469C661.576 87.1491 661.12 87.9303 660.6 88.8906C660.095 89.8509 659.517 90.9984 658.866 92.333C657.759 94.5954 656.758 96.2962 655.863 97.4355C654.968 98.5586 654.049 99.1201 653.104 99.1201C652.746 99.1201 652.396 99.055 652.055 98.9248C651.713 98.7783 651.404 98.5993 651.127 98.3877C650.85 98.1598 650.606 97.8994 650.395 97.6064C650.199 97.3135 650.045 97.0124 649.931 96.7031C649.703 96.0846 649.483 95.3359 649.271 94.457C649.06 93.5618 648.889 92.5202 648.759 91.332C648.661 90.4531 648.563 89.6312 648.466 88.8662C648.384 88.085 648.303 87.4095 648.222 86.8398C648.14 86.2702 648.059 85.8307 647.978 85.5215C647.896 85.196 647.815 85.0332 647.733 85.0332C647.587 85.0332 647.351 85.196 647.025 85.5215C646.716 85.8307 646.35 86.2376 645.927 86.7422C645.52 87.2305 645.08 87.792 644.608 88.4268C644.136 89.0615 643.664 89.7126 643.192 90.3799C642.737 91.0309 642.305 91.6738 641.898 92.3086C641.492 92.9271 641.15 93.4805 640.873 93.9688C640.678 94.3268 640.442 94.7419 640.165 95.2139C639.888 95.6859 639.604 96.166 639.311 96.6543C639.018 97.1426 638.725 97.6146 638.432 98.0703C638.155 98.526 637.903 98.9167 637.675 99.2422C637.528 99.4538 637.284 99.641 636.942 99.8037C636.601 99.9665 636.234 100.105 635.844 100.219C635.453 100.316 635.071 100.398 634.696 100.463C634.338 100.512 634.062 100.536 633.866 100.536C633.443 100.536 633.109 100.39 632.865 100.097C632.621 99.8037 632.434 99.3968 632.304 98.876C632.174 98.3389 632.084 97.7122 632.035 96.9961C632.003 96.2637 631.986 95.4661 631.986 94.6035C631.986 93.9362 632.019 93.1956 632.084 92.3818C632.165 91.5518 632.263 90.6891 632.377 89.7939C632.507 88.8988 632.646 88.0036 632.792 87.1084C632.938 86.2132 633.085 85.3669 633.231 84.5693C633.313 84.0973 633.386 83.609 633.451 83.1045C633.533 82.5999 633.606 82.1198 633.671 81.6641C633.736 81.1921 633.785 80.7607 633.817 80.3701C633.85 79.9795 633.866 79.6621 633.866 79.418C633.866 78.8483 634.062 78.3682 634.452 77.9775C634.843 77.5869 635.38 77.3916 636.063 77.3916C638.244 77.3916 639.335 78.6937 639.335 81.2979C639.335 81.9163 639.262 82.6732 639.115 83.5684C638.969 84.4473 638.79 85.3669 638.578 86.3271C638.367 87.2874 638.139 88.2314 637.895 89.1592C637.667 90.0869 637.455 90.9007 637.26 91.6006C637.895 90.5752 638.537 89.5579 639.188 88.5488C639.84 87.5234 640.474 86.555 641.093 85.6436C641.711 84.7321 642.297 83.902 642.851 83.1533C643.42 82.3883 643.933 81.7454 644.389 81.2246C645.854 79.5807 647.506 78.7588 649.345 78.7588C649.979 78.7588 650.508 78.9134 650.932 79.2227C651.371 79.5319 651.729 79.9551 652.006 80.4922C652.299 81.0293 652.535 81.6559 652.714 82.3721C652.893 83.0719 653.039 83.8206 653.153 84.6182C653.284 85.4157 653.389 86.2295 653.471 87.0596C653.552 87.8896 653.642 88.6953 653.739 89.4766C653.788 89.8509 653.829 90.266 653.861 90.7217C653.894 91.1611 653.959 91.5355 654.057 91.8447C654.122 91.7471 654.228 91.5518 654.374 91.2588C654.537 90.9495 654.716 90.5833 654.911 90.1602C655.123 89.7207 655.342 89.2487 655.57 88.7441C655.798 88.2396 656.018 87.7513 656.229 87.2793C656.457 86.791 656.669 86.3434 656.864 85.9365C657.06 85.5296 657.214 85.2122 657.328 84.9844C657.93 83.8451 658.508 82.8848 659.062 82.1035C659.631 81.306 660.201 80.6631 660.771 80.1748C661.34 79.6702 661.926 79.304 662.528 79.0762C663.131 78.8483 663.782 78.7344 664.481 78.7344C665.214 78.7344 665.824 78.8646 666.312 79.125C666.817 79.3854 667.232 79.7354 667.558 80.1748C667.883 80.598 668.144 81.0863 668.339 81.6396C668.55 82.1768 668.738 82.7301 668.9 83.2998C669.014 83.6904 669.128 84.2194 669.242 84.8867C669.372 85.554 669.494 86.2295 669.608 86.9131C669.739 87.5804 669.853 88.1989 669.95 88.7686C670.048 89.3219 670.129 89.6882 670.194 89.8672C670.373 90.388 670.561 90.8763 670.756 91.332C670.951 91.7878 671.155 92.1865 671.366 92.5283C671.594 92.8538 671.83 93.1143 672.074 93.3096C672.318 93.5049 672.579 93.6025 672.855 93.6025C673.783 93.6025 674.817 93.1387 675.956 92.2109C677.112 91.2832 678.324 89.916 679.594 88.1094C679.757 87.8815 679.952 87.7188 680.18 87.6211C680.424 87.5072 680.66 87.4502 680.888 87.4502C681.116 87.4502 681.303 87.5723 681.449 87.8164C681.596 88.0605 681.669 88.321 681.669 88.5977ZM726.791 70.5312C726.791 70.7591 726.758 71.0358 726.693 71.3613C726.645 71.6868 726.563 72.0286 726.449 72.3867C726.335 72.7285 726.205 73.0622 726.059 73.3877C725.928 73.6969 725.774 73.9492 725.595 74.1445H725.619C725.098 74.763 723.869 75.0723 721.933 75.0723C721.933 74.3724 721.9 73.7702 721.835 73.2656C721.786 72.7448 721.697 72.3298 721.566 72.0205C721.452 71.7601 721.249 71.5404 720.956 71.3613C720.663 71.1823 720.329 71.0358 719.955 70.9219C719.597 70.8079 719.231 70.7266 718.856 70.6777C718.482 70.6126 718.157 70.5801 717.88 70.5801C717.18 70.5801 716.496 70.5964 715.829 70.6289C715.162 70.6615 714.503 70.7266 713.852 70.8242C713.217 70.9219 712.566 71.0602 711.898 71.2393C711.247 71.4183 710.58 71.6462 709.896 71.9229C709.408 72.1182 708.887 72.3623 708.334 72.6553C707.797 72.9482 707.292 73.2819 706.82 73.6562C706.348 74.0143 705.941 74.4131 705.6 74.8525C705.274 75.2757 705.071 75.7314 704.989 76.2197L705.014 76.1709C705.014 76.5615 705.144 77.001 705.404 77.4893C705.665 77.9613 706.015 78.4333 706.454 78.9053C706.91 79.361 707.431 79.7842 708.017 80.1748C708.603 80.5492 709.221 80.8258 709.872 81.0049C709.921 81.0212 710.059 81.07 710.287 81.1514C710.515 81.2327 710.792 81.3304 711.117 81.4443C711.443 81.542 711.785 81.6559 712.143 81.7861C712.517 81.9163 712.859 82.0384 713.168 82.1523C713.493 82.25 713.762 82.3395 713.974 82.4209C714.201 82.486 714.332 82.5267 714.364 82.543C718.14 83.5033 720.94 84.6589 722.763 86.0098C724.586 87.3607 725.497 89.0208 725.497 90.9902C725.497 91.625 725.359 92.2598 725.082 92.8945C724.805 93.513 724.455 94.1071 724.032 94.6768C723.609 95.2464 723.145 95.7754 722.641 96.2637C722.152 96.7357 721.688 97.1344 721.249 97.46L721.273 97.4355C720.801 97.8099 720.264 98.1924 719.662 98.583C719.076 98.9736 718.441 99.3561 717.758 99.7305C717.074 100.105 716.366 100.455 715.634 100.78C714.901 101.106 714.153 101.391 713.388 101.635C712.672 101.863 711.915 102.074 711.117 102.27C710.336 102.481 709.555 102.66 708.773 102.807C707.992 102.953 707.235 103.067 706.503 103.148C705.787 103.23 705.136 103.271 704.55 103.271C704.241 103.271 703.858 103.23 703.402 103.148C702.963 103.083 702.491 102.986 701.986 102.855C701.498 102.725 701.002 102.571 700.497 102.392C700.009 102.213 699.569 102.009 699.179 101.781C698.788 101.553 698.471 101.309 698.227 101.049C697.982 100.788 697.86 100.512 697.86 100.219C697.86 99.9583 697.909 99.641 698.007 99.2666C698.104 98.8923 698.243 98.5342 698.422 98.1924C698.617 97.8343 698.837 97.5332 699.081 97.2891C699.341 97.0286 699.618 96.8984 699.911 96.8984C700.318 96.8984 700.701 96.9473 701.059 97.0449C701.417 97.1426 701.815 97.2565 702.255 97.3867C702.711 97.5007 703.231 97.6146 703.817 97.7285C704.42 97.8262 705.16 97.875 706.039 97.875C706.918 97.875 707.829 97.7855 708.773 97.6064C709.734 97.4111 710.678 97.1589 711.605 96.8496C712.533 96.5241 713.42 96.1579 714.267 95.751C715.113 95.3441 715.878 94.9209 716.562 94.4814C716.854 94.2861 717.172 94.0664 717.514 93.8223C717.872 93.5618 718.197 93.2852 718.49 92.9922C718.799 92.6829 719.052 92.3656 719.247 92.04C719.459 91.7145 719.564 91.3809 719.564 91.0391C719.564 90.6484 719.271 90.2741 718.686 89.916V89.9404C717.823 89.4196 716.968 89.0208 716.122 88.7441C715.276 88.4674 714.535 88.2396 713.9 88.0605C712.11 87.6048 709.929 86.8805 707.357 85.8877H707.382C706.308 85.4645 705.266 84.9193 704.257 84.252C703.248 83.5846 702.377 82.8848 701.645 82.1523C700.017 80.3457 699.203 78.2624 699.203 75.9023C699.203 74.9746 699.464 74.0713 699.984 73.1924C700.505 72.3135 701.213 71.4915 702.108 70.7266C703.004 69.9453 704.037 69.2292 705.209 68.5781C706.397 67.9271 707.659 67.3737 708.993 66.918C710.328 66.446 711.687 66.0798 713.07 65.8193C714.47 65.5589 715.821 65.4287 717.123 65.4287C717.53 65.4287 718.035 65.4613 718.637 65.5264C719.255 65.5752 719.882 65.6566 720.517 65.7705C721.168 65.8682 721.786 65.9984 722.372 66.1611C722.958 66.3076 723.422 66.4785 723.764 66.6738H723.739C724.683 67.1784 725.424 67.7806 725.961 68.4805C726.514 69.1803 726.791 69.8639 726.791 70.5312ZM772.606 82.1279C772.606 82.3721 772.484 82.722 772.24 83.1777C771.996 83.6335 771.679 84.1299 771.288 84.667C770.897 85.2041 770.458 85.7656 769.97 86.3516C769.481 86.9212 769.001 87.4502 768.529 87.9385C767.634 88.8499 766.674 89.8102 765.648 90.8193C764.639 91.8122 763.565 92.7236 762.426 93.5537C761.303 94.3838 760.123 95.0674 758.886 95.6045C757.649 96.1416 756.363 96.4102 755.028 96.4102C753.97 96.4102 753.059 96.2148 752.294 95.8242C751.529 95.4173 750.886 94.8151 750.365 94.0176C749.844 93.2201 749.429 92.2354 749.12 91.0635C748.811 89.8916 748.583 88.5326 748.437 86.9863C748.388 86.3841 748.331 85.8389 748.266 85.3506C748.217 84.846 748.16 84.4147 748.095 84.0566C748.03 83.6986 747.948 83.4219 747.851 83.2266C747.769 83.0312 747.663 82.9336 747.533 82.9336C747.077 82.9336 746.467 83.2835 745.702 83.9834C744.937 84.6833 744.05 85.6436 743.041 86.8643C742.048 88.085 740.958 89.5335 739.77 91.21C738.598 92.8701 737.369 94.6768 736.083 96.6299C735.969 96.7926 735.749 97.0531 735.424 97.4111C735.115 97.7529 734.765 98.1029 734.374 98.4609C734 98.8027 733.617 99.1038 733.227 99.3643C732.836 99.6247 732.519 99.7549 732.274 99.7549C731.851 99.7549 731.428 99.7142 731.005 99.6328C730.598 99.5514 730.232 99.4212 729.906 99.2422C729.597 99.0632 729.345 98.8353 729.149 98.5586C728.954 98.2656 728.856 97.9076 728.856 97.4844C728.856 97.2728 728.889 96.9554 728.954 96.5322C729.019 96.0928 729.092 95.637 729.174 95.165C729.271 94.6768 729.361 94.2048 729.442 93.749C729.54 93.2933 729.621 92.9434 729.687 92.6992C729.719 92.5527 729.776 92.2435 729.857 91.7715C729.939 91.2995 730.036 90.7217 730.15 90.0381C730.264 89.3382 730.395 88.5651 730.541 87.7188C730.688 86.8724 730.834 86.0098 730.98 85.1309C731.127 84.252 731.273 83.3812 731.42 82.5186C731.566 81.6396 731.697 80.834 731.811 80.1016C731.941 79.3691 732.047 78.7344 732.128 78.1973C732.226 77.6439 732.291 77.2451 732.323 77.001C732.34 76.8545 732.388 76.5127 732.47 75.9756C732.551 75.4222 732.641 74.7712 732.738 74.0225C732.836 73.2738 732.942 72.4762 733.056 71.6299C733.186 70.7835 733.3 69.9941 733.397 69.2617C733.495 68.513 733.576 67.862 733.642 67.3086C733.723 66.7552 733.772 66.4053 733.788 66.2588C733.837 65.8193 733.951 65.3392 734.13 64.8184C734.309 64.2975 734.537 63.8174 734.813 63.3779C735.09 62.9222 735.399 62.5397 735.741 62.2305C736.099 61.9212 736.474 61.7666 736.864 61.7666C737.206 61.7666 737.572 61.8398 737.963 61.9863C738.37 62.1165 738.736 62.3281 739.062 62.6211C739.403 62.9141 739.688 63.2884 739.916 63.7441C740.144 64.1999 740.258 64.7451 740.258 65.3799C740.258 65.8356 740.217 66.389 740.136 67.04C740.054 67.6911 739.949 68.3828 739.818 69.1152C739.704 69.8477 739.566 70.5964 739.403 71.3613C739.257 72.1263 739.11 72.8587 738.964 73.5586C738.817 74.2422 738.671 74.877 738.524 75.4629C738.394 76.0326 738.288 76.4883 738.207 76.8301C738.077 77.3835 737.938 77.9531 737.792 78.5391C737.646 79.1087 737.515 79.6296 737.401 80.1016C737.336 80.362 737.239 80.7363 737.108 81.2246C736.978 81.7129 736.832 82.2744 736.669 82.9092C736.506 83.5439 736.327 84.2275 736.132 84.96C735.953 85.6924 735.766 86.4329 735.57 87.1816C735.391 87.9141 735.212 88.6302 735.033 89.3301C734.87 90.0299 734.732 90.6647 734.618 91.2344C735.204 90.3229 735.839 89.3626 736.522 88.3535C737.222 87.3281 737.922 86.3271 738.622 85.3506C739.322 84.374 739.997 83.4707 740.648 82.6406C741.316 81.7943 741.91 81.1025 742.431 80.5654C742.984 79.9958 743.562 79.4831 744.164 79.0273C744.766 78.5553 745.368 78.1647 745.971 77.8555C746.589 77.5299 747.191 77.2858 747.777 77.123C748.38 76.944 748.941 76.8545 749.462 76.8545C749.739 76.8545 750.032 76.9115 750.341 77.0254C750.65 77.1393 750.943 77.2939 751.22 77.4893C751.513 77.6846 751.773 77.9206 752.001 78.1973C752.245 78.474 752.424 78.7832 752.538 79.125C752.864 80.0039 753.1 80.8991 753.246 81.8105C753.409 82.722 753.539 83.6172 753.637 84.4961C753.718 85.3262 753.824 86.1481 753.954 86.9619C754.084 87.7594 754.231 88.4756 754.394 89.1104C754.573 89.7451 754.76 90.2578 754.955 90.6484C755.15 91.0391 755.362 91.2344 755.59 91.2344C756.322 91.2344 757.095 91.0798 757.909 90.7705C758.739 90.4613 759.553 90.0788 760.351 89.623C761.148 89.151 761.913 88.6465 762.646 88.1094C763.378 87.556 764.021 87.0352 764.574 86.5469C766.511 84.8379 768.065 83.4707 769.237 82.4453C770.409 81.4199 771.215 80.8991 771.654 80.8828C771.964 80.8828 772.2 80.9967 772.362 81.2246C772.525 81.4525 772.606 81.7536 772.606 82.1279ZM806.801 81.835C806.801 82.0628 806.768 82.3232 806.703 82.6162C806.654 82.9092 806.589 83.194 806.508 83.4707C806.426 83.7474 806.345 83.9997 806.264 84.2275C806.182 84.4554 806.109 84.6182 806.044 84.7158C805.849 85.2855 805.556 85.9202 805.165 86.6201C804.791 87.3037 804.351 88.0117 803.847 88.7441C803.342 89.4603 802.797 90.1846 802.211 90.917C801.625 91.6494 801.031 92.3493 800.429 93.0166C799.843 93.6676 799.265 94.278 798.695 94.8477C798.142 95.401 797.637 95.873 797.182 96.2637C796.596 96.752 795.961 97.2484 795.277 97.7529C794.594 98.2412 793.869 98.6888 793.104 99.0957C792.356 99.5026 791.583 99.8363 790.785 100.097C789.988 100.341 789.19 100.463 788.393 100.463C787.709 100.463 787.082 100.308 786.513 99.999C785.943 99.6898 785.463 99.2178 785.072 98.583C784.698 97.9482 784.421 97.1589 784.242 96.2148C784.063 95.2546 784.022 94.1315 784.12 92.8457C783.225 94.0827 782.232 95.2301 781.142 96.2881C780.051 97.3298 778.961 98.2249 777.87 98.9736C776.78 99.7223 775.73 100.308 774.721 100.731C773.728 101.155 772.865 101.366 772.133 101.366C770.066 101.366 768.479 100.731 767.372 99.4619C766.282 98.1761 765.736 96.3695 765.736 94.042C765.736 93.5537 765.777 92.9596 765.858 92.2598C765.956 91.5436 766.086 90.7705 766.249 89.9404C766.428 89.1104 766.632 88.2396 766.859 87.3281C767.104 86.4004 767.364 85.4808 767.641 84.5693C767.689 84.4229 767.787 84.1055 767.934 83.6172C768.08 83.1289 768.235 82.6081 768.397 82.0547C768.576 81.485 768.747 80.9561 768.91 80.4678C769.073 79.9795 769.195 79.6621 769.276 79.5156C769.553 78.946 769.862 78.4984 770.204 78.1729C770.562 77.8311 771.075 77.6602 771.742 77.6602C772.654 77.6602 773.362 77.8473 773.866 78.2217C774.387 78.5798 774.647 79.2145 774.647 80.126C774.647 80.3538 774.59 80.7119 774.477 81.2002C774.363 81.6722 774.224 82.1849 774.062 82.7383C773.899 83.2754 773.728 83.7962 773.549 84.3008C773.37 84.8053 773.223 85.196 773.109 85.4727C772.621 86.9701 772.198 88.3617 771.84 89.6475C771.482 90.917 771.303 92.097 771.303 93.1875C771.303 94.1478 771.449 94.8639 771.742 95.3359C772.035 95.8079 772.304 96.0439 772.548 96.0439C773.183 96.0439 773.842 95.9056 774.525 95.6289C775.209 95.3359 775.893 94.9535 776.576 94.4814C777.276 94.0094 777.951 93.4642 778.603 92.8457C779.254 92.2272 779.864 91.5924 780.434 90.9414C781.02 90.2904 781.54 89.6393 781.996 88.9883C782.468 88.3372 782.851 87.7432 783.144 87.2061C783.355 86.8154 783.542 86.4492 783.705 86.1074C783.868 85.7656 784.031 85.4076 784.193 85.0332C784.356 84.6426 784.535 84.2194 784.73 83.7637C784.942 83.3079 785.194 82.7627 785.487 82.1279C785.65 81.7861 785.805 81.4606 785.951 81.1514C786.114 80.8258 786.285 80.541 786.464 80.2969C786.659 80.0527 786.871 79.8574 787.099 79.7109C787.326 79.5645 787.587 79.4912 787.88 79.4912C788.205 79.4912 788.523 79.5238 788.832 79.5889C789.158 79.6377 789.451 79.7435 789.711 79.9062C789.971 80.0527 790.183 80.2562 790.346 80.5166C790.508 80.7607 790.59 81.0781 790.59 81.4688C790.395 82.1849 790.224 82.7952 790.077 83.2998C789.947 83.8044 789.817 84.3333 789.687 84.8867C789.556 85.4401 789.451 85.9202 789.369 86.3271C789.288 86.7829 789.206 87.2956 789.125 87.8652C789.044 88.4186 788.97 88.972 788.905 89.5254C788.84 90.0788 788.783 90.6077 788.734 91.1123C788.702 91.6006 788.686 92.0075 788.686 92.333C788.686 93.1631 788.743 93.863 788.856 94.4326C788.987 94.986 789.19 95.2627 789.467 95.2627C790.346 95.2627 791.257 95.0023 792.201 94.4814C793.161 93.9606 794.154 93.2526 795.18 92.3574C795.798 91.8203 796.514 91.1367 797.328 90.3066C798.142 89.4603 798.964 88.5651 799.794 87.6211C800.624 86.6608 801.422 85.6842 802.187 84.6914C802.951 83.6986 803.594 82.7627 804.115 81.8838C804.343 81.5094 804.62 81.1921 804.945 80.9316C805.287 80.6549 805.645 80.5166 806.02 80.5166C806.068 80.5166 806.133 80.5329 806.215 80.5654C806.312 80.5817 806.402 80.6387 806.483 80.7363C806.581 80.834 806.654 80.9723 806.703 81.1514C806.768 81.3141 806.801 81.542 806.801 81.835ZM803.91 104.296C803.568 104.296 803.161 104.206 802.689 104.027C802.234 103.865 801.802 103.612 801.396 103.271C800.989 102.945 800.639 102.546 800.346 102.074C800.069 101.602 799.931 101.073 799.931 100.487L800.077 99.6572C799.735 99.5758 799.442 99.4701 799.198 99.3398C798.97 99.1934 798.808 98.9248 798.71 98.5342C798.612 97.9971 798.563 97.5169 798.563 97.0938C798.563 96.7682 798.58 96.4346 798.612 96.0928C798.645 95.7347 798.702 95.3197 798.783 94.8477C799.027 93.2038 799.296 91.3971 799.589 89.4277C799.898 87.4583 800.289 85.2122 800.761 82.6895C800.956 81.6803 801.168 80.6061 801.396 79.4668C801.623 78.3275 801.859 77.1963 802.104 76.0732C802.364 74.9502 802.616 73.8841 802.86 72.875C803.121 71.8659 803.357 70.9951 803.568 70.2627C803.894 69.1559 804.211 68.277 804.521 67.626C804.846 66.9587 805.18 66.446 805.521 66.0879C805.88 65.7298 806.254 65.4938 806.645 65.3799C807.051 65.266 807.499 65.209 807.987 65.209C808.215 65.209 808.443 65.2578 808.671 65.3555C808.899 65.4368 809.102 65.5915 809.281 65.8193C809.477 66.0309 809.631 66.3239 809.745 66.6982C809.875 67.0563 809.94 67.5039 809.94 68.041C809.94 68.7734 809.843 69.6035 809.647 70.5312C809.468 71.459 809.241 72.4193 808.964 73.4121C808.703 74.3887 808.419 75.3571 808.109 76.3174C807.8 77.2777 807.523 78.1566 807.279 78.9541C807.117 79.4261 806.921 80.0365 806.693 80.7852C806.465 81.5176 806.221 82.3232 805.961 83.2021C805.701 84.0648 805.432 84.9681 805.155 85.9121C804.879 86.8561 804.61 87.7839 804.35 88.6953C805.18 87.377 806.124 86.1562 807.182 85.0332C808.256 83.8939 809.338 82.9092 810.429 82.0791C811.535 81.249 812.61 80.598 813.651 80.126C814.709 79.654 815.637 79.418 816.435 79.418C817.151 79.418 817.81 79.597 818.412 79.9551C819.014 80.2969 819.527 80.7526 819.95 81.3223C820.39 81.8757 820.731 82.5104 820.976 83.2266C821.22 83.9427 821.342 84.6751 821.342 85.4238C821.342 85.7656 821.293 86.2051 821.195 86.7422C821.098 87.2793 820.935 87.8734 820.707 88.5244C820.495 89.1755 820.211 89.859 819.853 90.5752C819.511 91.2751 819.096 91.9587 818.607 92.626C819.698 91.7471 820.805 90.8193 821.928 89.8428C823.051 88.8662 824.125 87.8327 825.15 86.7422C826.192 85.6354 827.152 84.4635 828.031 83.2266C828.91 81.9896 829.643 80.6712 830.229 79.2715C830.359 78.9785 830.497 78.6937 830.644 78.417C830.806 78.124 830.977 77.8636 831.156 77.6357C831.352 77.3916 831.563 77.2044 831.791 77.0742C832.019 76.9277 832.263 76.8545 832.523 76.8545C832.914 76.8545 833.215 77.0091 833.427 77.3184C833.655 77.6276 833.769 78.0915 833.769 78.71C833.769 78.8402 833.728 79.068 833.646 79.3936C833.581 79.7028 833.5 80.0446 833.402 80.4189C833.305 80.777 833.199 81.127 833.085 81.4688C832.987 81.8105 832.898 82.071 832.816 82.25C832.458 83.0638 831.994 83.959 831.425 84.9355C830.855 85.8958 830.18 86.8887 829.398 87.9141C828.617 88.9395 827.722 89.9811 826.713 91.0391C825.704 92.0807 824.581 93.0898 823.344 94.0664C822.66 94.6035 821.806 95.2301 820.78 95.9463C819.771 96.6624 818.673 97.403 817.484 98.168C816.296 98.9167 815.059 99.6572 813.773 100.39C812.488 101.122 811.234 101.773 810.014 102.343C808.809 102.929 807.678 103.401 806.62 103.759C805.562 104.117 804.659 104.296 803.91 104.296ZM815.189 84.374C814.473 84.374 813.716 84.61 812.919 85.082C812.121 85.5378 811.316 86.1562 810.502 86.9375C809.704 87.7025 808.923 88.5814 808.158 89.5742C807.393 90.5671 806.677 91.5924 806.01 92.6504C805.359 93.7083 804.781 94.7581 804.276 95.7998C803.788 96.8415 803.414 97.7936 803.153 98.6562C803.332 98.9818 803.528 99.2585 803.739 99.4863C803.967 99.7142 804.228 99.8281 804.521 99.8281C805.058 99.8281 805.652 99.7223 806.303 99.5107C806.954 99.2992 807.58 99.0469 808.183 98.7539C808.785 98.4609 809.322 98.1598 809.794 97.8506C810.282 97.5413 810.632 97.2891 810.844 97.0938C811.381 96.5729 811.959 95.8649 812.577 94.9697C813.212 94.0745 813.79 93.1143 814.311 92.0889C814.848 91.0635 815.295 90.0462 815.653 89.0371C816.011 88.028 816.19 87.1654 816.19 86.4492C816.19 86.1888 816.166 85.9365 816.117 85.6924C816.068 85.4482 816.003 85.2285 815.922 85.0332C815.84 84.8379 815.735 84.6833 815.604 84.5693C815.474 84.4391 815.336 84.374 815.189 84.374ZM860.761 85.5215C860.761 85.668 860.736 85.8796 860.688 86.1562C860.655 86.4329 860.606 86.7259 860.541 87.0352C860.476 87.3444 860.403 87.6374 860.321 87.9141C860.256 88.1908 860.191 88.4023 860.126 88.5488C859.507 89.6882 858.783 90.7786 857.953 91.8203C857.123 92.8457 856.228 93.7572 855.268 94.5547C854.324 95.3522 853.323 95.987 852.265 96.459C851.223 96.931 850.173 97.167 849.115 97.167C848.09 97.167 847.195 97.0205 846.43 96.7275C845.665 96.4346 845.014 96.0521 844.477 95.5801C843.956 95.0918 843.524 94.5384 843.183 93.9199C842.857 93.3014 842.597 92.6748 842.401 92.04C842.206 91.389 842.076 90.7624 842.011 90.1602C841.946 89.5417 841.913 88.9883 841.913 88.5C841.913 88.2559 841.929 87.9548 841.962 87.5967C842.011 87.2223 842.06 86.8398 842.108 86.4492C842.174 86.0423 842.222 85.6517 842.255 85.2773C842.304 84.8867 842.328 84.5693 842.328 84.3252C842.328 83.9997 842.255 83.8369 842.108 83.8369C841.685 84.2438 841.278 84.6751 840.888 85.1309C840.513 85.5866 840.131 86.083 839.74 86.6201C839.366 87.1572 838.975 87.7513 838.568 88.4023C838.161 89.0371 837.714 89.7451 837.226 90.5264C836.786 91.2262 836.322 91.9912 835.834 92.8213C835.346 93.6514 834.849 94.4896 834.345 95.3359C833.84 96.1823 833.327 97.0042 832.807 97.8018C832.302 98.5993 831.806 99.3073 831.317 99.9258C830.829 100.528 830.365 101.016 829.926 101.391C829.503 101.765 829.12 101.952 828.778 101.952C828.388 101.952 828.062 101.944 827.802 101.928C827.541 101.911 827.322 101.879 827.143 101.83C826.964 101.798 826.801 101.757 826.654 101.708C826.508 101.659 826.353 101.602 826.19 101.537C826.028 100.935 825.897 100.284 825.8 99.584C825.702 98.8678 825.629 98.1842 825.58 97.5332C825.548 96.8659 825.523 96.2637 825.507 95.7266C825.507 95.1895 825.507 94.7907 825.507 94.5303C825.507 92.154 825.694 89.6393 826.068 86.9863C826.459 84.3333 826.907 81.5176 827.411 78.5391C827.802 76.2604 828.176 73.8923 828.534 71.4346C828.909 68.9606 829.226 66.3971 829.486 63.7441C829.6 63.1908 829.787 62.6943 830.048 62.2549C830.325 61.8154 830.618 61.4492 830.927 61.1562C831.252 60.847 831.562 60.6191 831.854 60.4727C832.164 60.3099 832.416 60.2285 832.611 60.2285C832.953 60.2285 833.279 60.3506 833.588 60.5947C833.897 60.8226 834.174 61.1318 834.418 61.5225C834.662 61.9131 834.849 62.3525 834.979 62.8408C835.126 63.3128 835.199 63.793 835.199 64.2812C835.199 64.444 835.191 64.6068 835.175 64.7695C835.159 64.9323 835.134 65.0951 835.102 65.2578C835.085 65.3229 835.045 65.5264 834.979 65.8682C834.914 66.21 834.833 66.625 834.735 67.1133C834.654 67.6016 834.556 68.1305 834.442 68.7002C834.345 69.2536 834.247 69.7907 834.149 70.3115C834.068 70.8324 833.995 71.2962 833.93 71.7031C833.865 72.0938 833.816 72.3623 833.783 72.5088C833.767 72.6553 833.71 72.9889 833.612 73.5098C833.531 74.0143 833.425 74.641 833.295 75.3896C833.181 76.1383 833.051 76.9684 832.904 77.8799C832.758 78.7751 832.603 79.6947 832.44 80.6387C832.294 81.5664 832.147 82.486 832.001 83.3975C831.854 84.2926 831.716 85.1064 831.586 85.8389C831.472 86.5713 831.374 87.1898 831.293 87.6943C831.228 88.1989 831.187 88.5244 831.171 88.6709C831.155 88.8499 831.122 89.0941 831.073 89.4033C831.041 89.7126 831 90.0544 830.951 90.4287C830.902 90.7868 830.845 91.1693 830.78 91.5762C830.715 91.9668 830.658 92.333 830.609 92.6748C830.756 92.512 831.008 92.1784 831.366 91.6738C831.724 91.153 832.131 90.5508 832.587 89.8672C833.043 89.1836 833.523 88.4593 834.027 87.6943C834.548 86.9131 835.036 86.1807 835.492 85.4971C835.948 84.8135 836.347 84.2194 836.688 83.7148C837.047 83.194 837.283 82.8441 837.396 82.665C837.624 82.3232 837.917 81.9489 838.275 81.542C838.65 81.1351 839.04 80.7363 839.447 80.3457C839.87 79.9388 840.285 79.5563 840.692 79.1982C841.116 78.8239 841.49 78.5146 841.815 78.2705C842.532 77.7171 843.199 77.3835 843.817 77.2695C844.436 77.1393 845.022 77.0742 845.575 77.0742C845.836 77.0742 846.088 77.1556 846.332 77.3184C846.576 77.4811 846.796 77.7253 846.991 78.0508C847.187 78.36 847.341 78.7507 847.455 79.2227C847.585 79.6947 847.65 80.248 847.65 80.8828C847.65 81.2246 847.618 81.6396 847.553 82.1279C847.488 82.5999 847.414 83.1208 847.333 83.6904C847.252 84.2438 847.178 84.8216 847.113 85.4238C847.048 86.026 847.016 86.6038 847.016 87.1572C847.016 87.5479 847.04 88.0199 847.089 88.5732C847.154 89.1104 847.276 89.6312 847.455 90.1357C847.634 90.624 847.878 91.0472 848.188 91.4053C848.513 91.7471 848.928 91.918 849.433 91.918C850.767 91.918 852.118 91.446 853.485 90.502C854.869 89.5579 856.342 88.0931 857.904 86.1074C858.344 85.5378 858.767 85.139 859.174 84.9111C859.581 84.6833 859.931 84.5693 860.224 84.5693C860.435 84.5693 860.574 84.6426 860.639 84.7891C860.72 84.9193 860.761 85.1634 860.761 85.5215Z" fill="white"/>
<defs>
<filter id="filter0_d_3_10" x="0.721817" y="0" width="1340" height="240" filterUnits="userSpaceOnUse" color-interpolation-filters="sRGB">
<feFlood flood-opacity="0" result="BackgroundImageFix"/>
<feColorMatrix in="SourceAlpha" type="matrix" values="0 0 0 0 0 0 0 0 0 0 0 0 0 0 0 0 0 0 127 0" result="hardAlpha"/>
<feOffset dx="5" dy="10"/>
<feGaussianBlur stdDeviation="10"/>
<feComposite in2="hardAlpha" operator="out"/>
<feColorMatrix type="matrix" values="0 0 0 0 0 0 0 0 0 0 0 0 0 0 0 0 0 0 0.5 0"/>
<feBlend mode="normal" in2="BackgroundImageFix" result="effect1_dropShadow_3_10"/>
<feBlend mode="normal" in="SourceGraphic" in2="effect1_dropShadow_3_10" result="shape"/>
</filter>
<linearGradient id="paint0_linear_3_10" x1="52.1365" y1="7.75135" x2="688.646" y2="859.66" gradientUnits="userSpaceOnUse">
<stop stop-color="#73F7FF"/>
<stop offset="0.494792" stop-color="#5A5AFF"/>
<stop offset="1" stop-color="#E338FF"/>
</linearGradient>
</defs>
</svg>
