<svg width="970" height="120" viewBox="0 0 970 120" fill="none" xmlns="http://www.w3.org/2000/svg">
<g filter="url(#filter0_d_105_13)">
<rect width="950" height="100" rx="20" fill="#FF8585"/>
<rect x="2.5" y="2.5" width="945" height="95" rx="17.5" stroke="black" stroke-width="5"/>
</g>
<path d="M326.846 27.8906C326.846 28.7207 326.748 29.7949 326.553 31.1133C326.374 32.4316 326.121 33.9779 325.796 35.752C325.438 37.6725 325.063 39.7559 324.673 42.002C324.282 44.2318 323.997 46.5104 323.818 48.8379C323.818 48.9518 323.802 49.2367 323.77 49.6924C323.737 50.1481 323.696 50.7259 323.647 51.4258C323.599 52.1257 323.542 52.9232 323.477 53.8184C323.428 54.6973 323.379 55.6331 323.33 56.626C323.281 57.6025 323.241 58.6035 323.208 59.6289C323.175 60.6543 323.159 61.6553 323.159 62.6318C323.159 63.1852 323.053 63.6816 322.842 64.1211C322.646 64.5443 322.378 64.9023 322.036 65.1953C321.694 65.5046 321.296 65.7324 320.84 65.8789C320.384 66.0417 319.904 66.123 319.399 66.123C319.106 66.123 318.781 66.0579 318.423 65.9277C318.081 65.8138 317.756 65.6348 317.446 65.3906C317.153 65.1628 316.901 64.8698 316.689 64.5117C316.478 64.1536 316.372 63.7305 316.372 63.2422C316.372 62.9167 316.405 62.4609 316.47 61.875C316.551 61.2891 316.641 60.6299 316.738 59.8975C316.852 59.165 316.974 58.3838 317.104 57.5537C317.235 56.7236 317.349 55.9017 317.446 55.0879C317.56 54.2741 317.65 53.501 317.715 52.7686C317.796 52.0361 317.837 51.4014 317.837 50.8643C317.837 50.5713 317.812 50.3109 317.764 50.083C317.715 49.8551 317.576 49.7412 317.349 49.7412C316.86 49.7412 316.201 49.7738 315.371 49.8389C314.541 49.8877 313.67 49.9528 312.759 50.0342C311.864 50.0993 310.985 50.1644 310.122 50.2295C309.276 50.2783 308.584 50.3027 308.047 50.3027C307.933 50.3027 307.648 50.319 307.192 50.3516C306.753 50.3678 306.224 50.3923 305.605 50.4248C305.003 50.4574 304.352 50.5062 303.652 50.5713C302.952 50.6201 302.293 50.6689 301.675 50.7178C301.056 50.7666 300.519 50.8236 300.063 50.8887C299.624 50.9375 299.347 50.9863 299.233 51.0352C299.152 51.1165 299.054 51.4502 298.94 52.0361C298.843 52.6221 298.737 53.3057 298.623 54.0869C298.525 54.8519 298.436 55.6331 298.354 56.4307C298.273 57.2119 298.216 57.8467 298.184 58.335C298.184 59.3604 298.118 60.3613 297.988 61.3379C297.874 62.3145 297.663 63.1852 297.354 63.9502C297.061 64.7152 296.67 65.3255 296.182 65.7812C295.693 66.2533 295.083 66.4893 294.351 66.4893C293.895 66.4893 293.48 66.3753 293.105 66.1475C292.747 65.9196 292.438 65.6266 292.178 65.2686C291.917 64.9105 291.714 64.528 291.567 64.1211C291.421 63.6979 291.348 63.3073 291.348 62.9492C291.348 62.6074 291.38 62.2087 291.445 61.7529C291.527 61.2972 291.616 60.8415 291.714 60.3857C291.812 59.93 291.901 59.515 291.982 59.1406C292.064 58.75 292.113 58.4652 292.129 58.2861C292.34 57.2933 292.552 56.1458 292.764 54.8438C292.992 53.5417 293.211 52.1338 293.423 50.6201C293.651 49.0902 293.87 47.487 294.082 45.8105C294.31 44.1341 294.521 42.4333 294.717 40.708C294.928 38.9665 295.132 37.2331 295.327 35.5078C295.522 33.7826 295.701 32.1143 295.864 30.5029C295.897 30.2588 295.986 30.0065 296.133 29.7461C296.296 29.4694 296.499 29.2253 296.743 29.0137C297.004 28.7858 297.297 28.5986 297.622 28.4521C297.948 28.3057 298.289 28.2324 298.647 28.2324C298.729 28.2324 298.802 28.2406 298.867 28.2568C298.932 28.2568 299.006 28.265 299.087 28.2812C299.705 28.3952 300.202 28.5579 300.576 28.7695C300.951 28.9648 301.235 29.2171 301.431 29.5264C301.626 29.8356 301.756 30.2018 301.821 30.625C301.886 31.0482 301.919 31.5365 301.919 32.0898C301.919 33.1315 301.846 34.222 301.699 35.3613C301.553 36.4844 301.349 37.6318 301.089 38.8037C300.975 39.3408 300.861 39.9023 300.747 40.4883C300.649 41.0742 300.56 41.6602 300.479 42.2461C300.397 42.832 300.332 43.4017 300.283 43.9551C300.234 44.4922 300.21 44.9967 300.21 45.4688C300.243 45.5176 300.324 45.5583 300.454 45.5908C300.601 45.6234 300.763 45.6478 300.942 45.6641C301.121 45.6803 301.3 45.6966 301.479 45.7129C301.675 45.7129 301.838 45.7129 301.968 45.7129C302.212 45.7129 302.627 45.7129 303.213 45.7129C303.799 45.6966 304.482 45.6722 305.264 45.6396C306.045 45.6071 306.891 45.5745 307.803 45.542C308.73 45.4932 309.658 45.4362 310.586 45.3711C311.53 45.306 312.441 45.2327 313.32 45.1514C314.199 45.0537 314.997 44.9479 315.713 44.834C316.429 44.7201 317.015 44.5898 317.471 44.4434C317.943 44.2969 318.236 44.1341 318.35 43.9551C318.431 43.8411 318.537 43.5156 318.667 42.9785C318.797 42.4251 318.936 41.7334 319.082 40.9033C319.245 40.0732 319.399 39.1374 319.546 38.0957C319.709 37.0378 319.855 35.9391 319.985 34.7998C320.116 33.6605 320.221 32.513 320.303 31.3574C320.384 30.2018 320.425 29.1032 320.425 28.0615C320.425 27.8662 320.506 27.6221 320.669 27.3291C320.832 27.0361 321.051 26.7513 321.328 26.4746C321.605 26.1816 321.938 25.9375 322.329 25.7422C322.72 25.5469 323.135 25.4492 323.574 25.4492C323.867 25.4492 324.201 25.498 324.575 25.5957C324.95 25.6934 325.299 25.8398 325.625 26.0352C325.967 26.2305 326.252 26.4827 326.479 26.792C326.707 27.1012 326.829 27.4674 326.846 27.8906ZM341.191 44.0039C341.191 43.2878 341.077 42.7832 340.85 42.4902C340.638 42.1973 340.394 42.0508 340.117 42.0508C339.873 42.0508 339.588 42.1973 339.263 42.4902C338.937 42.7832 338.595 43.182 338.237 43.6865C337.896 44.1748 337.546 44.7526 337.188 45.4199C336.846 46.071 336.52 46.7627 336.211 47.4951C335.918 48.2275 335.666 48.9844 335.454 49.7656C335.259 50.5306 335.12 51.2712 335.039 51.9873C335.511 51.5967 335.934 51.2467 336.309 50.9375C336.699 50.612 337.065 50.2702 337.407 49.9121C337.749 49.5703 338.132 49.1553 338.555 48.667C338.994 48.1624 339.409 47.6416 339.8 47.1045C340.19 46.5674 340.516 46.0303 340.776 45.4932C341.053 44.9561 341.191 44.4596 341.191 44.0039ZM360.137 46.6406C360.137 46.7708 360.088 46.9743 359.99 47.251C359.893 47.5277 359.73 47.8532 359.502 48.2275C358.867 49.2367 358.07 50.3353 357.109 51.5234C356.165 52.7116 355.116 53.8997 353.96 55.0879C352.821 56.2598 351.592 57.3991 350.273 58.5059C348.971 59.5964 347.645 60.5648 346.294 61.4111C344.959 62.2575 343.625 62.9411 342.29 63.4619C340.955 63.9665 339.686 64.2188 338.481 64.2188C336.951 64.2188 335.617 64.0072 334.478 63.584C333.338 63.1608 332.394 62.5505 331.646 61.7529C330.897 60.9391 330.335 59.9544 329.961 58.7988C329.587 57.627 329.399 56.3005 329.399 54.8193C329.399 53.6963 329.481 52.5081 329.644 51.2549C329.823 50.0016 330.14 48.7321 330.596 47.4463C331.051 46.1442 331.662 44.8421 332.427 43.54C333.208 42.2217 334.201 40.9521 335.405 39.7314C336.333 38.7874 337.334 38.0713 338.408 37.583C339.482 37.0947 340.508 36.8506 341.484 36.8506C341.663 36.8506 341.891 36.8913 342.168 36.9727C342.445 37.0378 342.721 37.1354 342.998 37.2656C343.275 37.3958 343.543 37.5505 343.804 37.7295C344.064 37.9085 344.276 38.1038 344.438 38.3154C344.959 38.9827 345.35 39.6175 345.61 40.2197C345.871 40.8057 346.001 41.473 346.001 42.2217C346.001 43.3936 345.838 44.4515 345.513 45.3955C345.187 46.3395 344.74 47.2266 344.17 48.0566C343.617 48.8704 342.957 49.6598 342.192 50.4248C341.427 51.1898 340.605 51.9873 339.727 52.8174C339.189 53.3219 338.522 53.8753 337.725 54.4775C336.927 55.0635 336.073 55.7064 335.161 56.4062C335.291 56.9108 335.454 57.3503 335.649 57.7246C335.845 58.0827 336.089 58.3838 336.382 58.6279C336.675 58.8721 337.025 59.0592 337.432 59.1895C337.855 59.3034 338.351 59.3604 338.921 59.3604C339.686 59.3604 340.5 59.2301 341.362 58.9697C342.241 58.7093 343.12 58.3757 343.999 57.9688C344.764 57.6107 345.521 57.1631 346.27 56.626C347.018 56.0726 347.775 55.5029 348.54 54.917C349.012 54.5589 349.614 54.0462 350.347 53.3789C351.095 52.6953 351.852 51.9873 352.617 51.2549C353.138 50.7666 353.659 50.2946 354.18 49.8389C354.701 49.3669 355.254 48.846 355.84 48.2764L357.134 47.0068C358.078 46.2419 358.843 45.8594 359.429 45.8594C359.738 45.8594 359.933 45.9489 360.015 46.1279C360.096 46.307 360.137 46.4779 360.137 46.6406ZM378.413 44.4922C378.397 44.7689 378.299 45.2083 378.12 45.8105C377.941 46.3965 377.713 47.0882 377.437 47.8857C377.176 48.6833 376.867 49.5622 376.509 50.5225C376.167 51.4665 375.817 52.443 375.459 53.4521C375.117 54.4613 374.775 55.4785 374.434 56.5039C374.092 57.513 373.791 58.4733 373.53 59.3848C373.514 59.4336 373.441 59.6615 373.311 60.0684C373.197 60.459 373.042 60.9717 372.847 61.6064C372.651 62.2249 372.432 62.9329 372.188 63.7305C371.943 64.5117 371.691 65.3174 371.431 66.1475C371.187 66.9775 370.934 67.7832 370.674 68.5645C370.43 69.362 370.21 70.0781 370.015 70.7129C369.819 71.3477 369.657 71.8685 369.526 72.2754C369.396 72.6986 369.323 72.9346 369.307 72.9834C369.176 73.4229 369.03 73.9355 368.867 74.5215C368.721 75.1074 368.509 75.6527 368.232 76.1572C367.972 76.6781 367.622 77.1175 367.183 77.4756C366.743 77.8337 366.165 78.0127 365.449 78.0127C365.042 78.0127 364.676 77.9313 364.351 77.7686C364.041 77.6058 363.773 77.3942 363.545 77.1338C363.333 76.8896 363.162 76.6048 363.032 76.2793C362.918 75.9701 362.861 75.6608 362.861 75.3516C362.861 74.9935 362.951 74.5133 363.13 73.9111C363.309 73.3252 363.529 72.6742 363.789 71.958C364.066 71.2581 364.359 70.5094 364.668 69.7119C364.993 68.9307 365.295 68.1576 365.571 67.3926C365.571 67.3926 365.628 67.2298 365.742 66.9043C365.872 66.5951 366.035 66.18 366.23 65.6592C366.426 65.1383 366.637 64.5524 366.865 63.9014C367.109 63.2503 367.354 62.5993 367.598 61.9482C367.842 61.2972 368.07 60.6787 368.281 60.0928C368.509 59.5068 368.696 59.0186 368.843 58.6279C368.468 58.9372 368.037 59.2708 367.549 59.6289C367.061 59.987 366.54 60.3532 365.986 60.7275C365.449 61.0856 364.88 61.4355 364.277 61.7773C363.675 62.1029 363.073 62.3958 362.471 62.6562C361.885 62.9167 361.299 63.1283 360.713 63.291C360.143 63.4375 359.598 63.5107 359.077 63.5107C357.954 63.5107 356.961 63.3236 356.099 62.9492C355.236 62.5749 354.512 62.1029 353.926 61.5332C353.34 60.9473 352.892 60.3125 352.583 59.6289C352.29 58.929 352.144 58.2536 352.144 57.6025C352.144 57.1143 352.192 56.512 352.29 55.7959C352.404 55.0798 352.55 54.3148 352.729 53.501C352.925 52.6709 353.153 51.8164 353.413 50.9375C353.674 50.0423 353.95 49.1797 354.243 48.3496C354.536 47.5195 354.837 46.7546 355.146 46.0547C355.472 45.3385 355.798 44.7445 356.123 44.2725C356.628 43.54 357.108 43.0273 357.563 42.7344C358.035 42.4414 358.54 42.2949 359.077 42.2949C359.582 42.2949 359.989 42.3682 360.298 42.5146C360.623 42.6611 360.876 42.8646 361.055 43.125C361.234 43.3854 361.356 43.6784 361.421 44.0039C361.486 44.3294 361.519 44.6794 361.519 45.0537C361.519 45.2816 361.421 45.6071 361.226 46.0303C361.047 46.4535 360.819 46.958 360.542 47.5439C360.298 48.0485 360.013 48.6507 359.688 49.3506C359.362 50.0342 359.061 50.7829 358.784 51.5967C358.507 52.3942 358.271 53.2324 358.076 54.1113C357.881 54.9902 357.783 55.8773 357.783 56.7725C357.783 57.0817 357.865 57.3421 358.027 57.5537C358.19 57.7653 358.377 57.9362 358.589 58.0664C358.817 58.1803 359.045 58.2699 359.272 58.335C359.517 58.3838 359.712 58.4082 359.858 58.4082C360.444 58.4082 361.055 58.2943 361.689 58.0664C362.324 57.8223 362.951 57.5293 363.569 57.1875C364.204 56.8294 364.814 56.4551 365.4 56.0645C366.003 55.6576 366.572 55.2913 367.109 54.9658C367.549 54.6891 368.037 54.3392 368.574 53.916C369.111 53.4766 369.575 52.9883 369.966 52.4512C370.145 52.207 370.356 51.7757 370.601 51.1572C370.861 50.5225 371.13 49.8063 371.406 49.0088C371.683 48.2113 371.951 47.3975 372.212 46.5674C372.489 45.721 372.725 44.9561 372.92 44.2725C373.066 43.7842 373.254 43.361 373.481 43.0029C373.726 42.6286 373.978 42.3275 374.238 42.0996C374.515 41.8555 374.792 41.6764 375.068 41.5625C375.361 41.4323 375.63 41.3672 375.874 41.3672C376.427 41.3672 376.867 41.416 377.192 41.5137C377.534 41.6113 377.795 41.7822 377.974 42.0264C378.153 42.2542 378.267 42.5716 378.315 42.9785C378.381 43.3691 378.413 43.8574 378.413 44.4434V44.4922ZM393.125 62.2412C393.125 62.4202 393.035 62.7539 392.856 63.2422C392.677 63.7142 392.466 64.2188 392.222 64.7559C391.978 65.293 391.717 65.8057 391.44 66.2939C391.18 66.7985 390.952 67.1484 390.757 67.3438C390.513 67.5879 390.236 67.8483 389.927 68.125C389.634 68.4017 389.292 68.6621 388.901 68.9062C388.527 69.1667 388.112 69.3945 387.656 69.5898C387.217 69.7852 386.737 69.9316 386.216 70.0293C386.004 70.0618 385.841 70.0944 385.728 70.127C385.614 70.1758 385.508 70.2165 385.41 70.249C384.775 70.5257 384.165 70.7373 383.579 70.8838C383.009 71.0465 382.489 71.1279 382.017 71.1279C380.942 71.1279 380.405 70.5339 380.405 69.3457C380.405 68.9225 380.592 68.5238 380.967 68.1494C382.09 67.8727 383.083 67.5146 383.945 67.0752C384.824 66.6357 385.549 66.1475 386.118 65.6104C386.248 65.4639 386.387 65.2441 386.533 64.9512C386.68 64.6582 386.818 64.3571 386.948 64.0479C387.078 63.7223 387.184 63.4375 387.266 63.1934C387.363 62.9329 387.412 62.7702 387.412 62.7051C387.412 62.526 387.404 62.3145 387.388 62.0703C387.388 61.8262 387.371 61.5739 387.339 61.3135C387.306 61.0368 387.257 60.7764 387.192 60.5322C387.127 60.2718 387.038 60.0602 386.924 59.8975C386.615 59.4255 386.46 59.0023 386.46 58.6279C386.46 58.4326 386.501 58.2048 386.582 57.9443C386.68 57.6676 386.802 57.4072 386.948 57.1631C387.111 56.9027 387.306 56.6911 387.534 56.5283C387.778 56.3493 388.047 56.2598 388.34 56.2598C388.633 56.2598 388.983 56.3167 389.39 56.4307C389.813 56.5446 390.212 56.6829 390.586 56.8457C390.977 57.0085 391.318 57.1875 391.611 57.3828C391.904 57.5618 392.075 57.7327 392.124 57.8955C392.791 59.6696 393.125 61.1182 393.125 62.2412ZM425.405 29.9902C425.405 30.1367 425.373 30.3646 425.308 30.6738C425.243 30.9831 425.153 31.3167 425.039 31.6748C424.941 32.0329 424.827 32.391 424.697 32.749C424.567 33.0908 424.437 33.3838 424.307 33.6279C424.193 33.8883 423.981 34.1406 423.672 34.3848C423.363 34.6126 423.029 34.8079 422.671 34.9707C422.313 35.1335 421.955 35.2637 421.597 35.3613C421.239 35.459 420.938 35.5078 420.693 35.5078C420.368 35.5078 420.107 35.4671 419.912 35.3857C419.733 35.3044 419.595 35.1904 419.497 35.0439C419.399 34.8975 419.334 34.7347 419.302 34.5557C419.285 34.3604 419.269 34.165 419.253 33.9697C419.253 33.9372 419.245 33.8639 419.229 33.75C419.212 33.6361 419.163 33.3757 419.082 32.9688C419.033 32.8223 418.976 32.6921 418.911 32.5781C418.862 32.4642 418.813 32.3421 418.765 32.2119C418.716 32.0817 418.667 31.9352 418.618 31.7725C418.586 31.5934 418.569 31.3818 418.569 31.1377C418.569 30.8285 418.667 30.4948 418.862 30.1367C419.074 29.7624 419.351 29.4206 419.692 29.1113C420.05 28.7858 420.465 28.5173 420.938 28.3057C421.41 28.0941 421.922 27.9883 422.476 27.9883C422.638 27.9883 422.882 28.0534 423.208 28.1836C423.534 28.2975 423.859 28.4521 424.185 28.6475C424.51 28.8428 424.795 29.0625 425.039 29.3066C425.283 29.5345 425.405 29.7624 425.405 29.9902ZM432.852 57.0654C432.852 57.3258 432.762 57.6676 432.583 58.0908C432.404 58.4977 432.144 58.9453 431.802 59.4336C431.46 59.9219 431.037 60.4346 430.532 60.9717C430.028 61.4925 429.45 61.9971 428.799 62.4854C428.441 62.7458 427.993 63.0469 427.456 63.3887C426.935 63.7305 426.325 64.056 425.625 64.3652C424.925 64.6582 424.144 64.9023 423.281 65.0977C422.419 65.3092 421.475 65.415 420.449 65.415C419.163 65.415 418.057 65.1709 417.129 64.6826C416.217 64.1943 415.469 63.5596 414.883 62.7783C414.297 61.9808 413.866 61.0856 413.589 60.0928C413.312 59.0837 413.174 58.0664 413.174 57.041C413.174 56.3249 413.215 55.5762 413.296 54.7949C413.377 53.9974 413.475 53.2161 413.589 52.4512C413.703 51.6862 413.833 50.9456 413.979 50.2295C414.126 49.4971 414.256 48.8379 414.37 48.252C414.484 47.666 414.582 47.1696 414.663 46.7627C414.744 46.3395 414.785 46.0465 414.785 45.8838C414.785 45.5094 414.826 45.1025 414.907 44.6631C415.005 44.2236 415.16 43.8167 415.371 43.4424C415.583 43.0518 415.868 42.7262 416.226 42.4658C416.584 42.2054 417.039 42.0752 417.593 42.0752C418.179 42.0752 418.683 42.1566 419.106 42.3193C419.546 42.4658 419.896 42.653 420.156 42.8809C420.433 43.1087 420.636 43.3529 420.767 43.6133C420.897 43.8737 420.962 44.1178 420.962 44.3457C420.962 44.6875 420.889 45.127 420.742 45.6641C420.612 46.2012 420.441 46.7871 420.229 47.4219C420.067 47.9427 419.888 48.5124 419.692 49.1309C419.513 49.7493 419.342 50.4004 419.18 51.084C419.017 51.7676 418.887 52.4756 418.789 53.208C418.691 53.9404 418.643 54.6891 418.643 55.4541C418.643 56.0075 418.667 56.5934 418.716 57.2119C418.765 57.8141 418.87 58.3757 419.033 58.8965C419.196 59.401 419.432 59.8242 419.741 60.166C420.067 60.4915 420.498 60.6543 421.035 60.6543C421.589 60.6543 422.158 60.5892 422.744 60.459C423.346 60.3288 423.932 60.166 424.502 59.9707C425.088 59.7591 425.633 59.515 426.138 59.2383C426.659 58.9616 427.114 58.6768 427.505 58.3838C428.351 57.749 429.1 57.1875 429.751 56.6992C430.402 56.2109 431.004 55.9668 431.558 55.9668C432.03 55.9668 432.363 56.097 432.559 56.3574C432.754 56.6016 432.852 56.8376 432.852 57.0654ZM437.334 32.041C437.318 32.4967 437.253 33.0501 437.139 33.7012C437.025 34.3522 436.854 35.1172 436.626 35.9961V35.9717C436.203 37.6481 435.609 39.1455 434.844 40.4639V40.4395C434.437 41.2044 433.965 41.7741 433.428 42.1484C432.891 42.5065 432.313 42.6855 431.694 42.6855C431.336 42.6855 430.994 42.6286 430.669 42.5146C430.343 42.4007 430.059 42.2461 429.814 42.0508C429.57 41.8555 429.375 41.6276 429.229 41.3672C429.082 41.0905 429.009 40.7975 429.009 40.4883C429.009 40.293 429.049 40.0732 429.131 39.8291C429.212 39.585 429.31 39.349 429.424 39.1211C429.554 38.877 429.692 38.6572 429.839 38.4619C429.985 38.2503 430.132 38.0794 430.278 37.9492C430.636 37.6237 430.938 37.3063 431.182 36.9971C431.426 36.6715 431.621 36.3298 431.768 35.9717C431.93 35.6136 432.044 35.2311 432.109 34.8242C432.174 34.401 432.207 33.9372 432.207 33.4326C432.207 33.0094 432.085 32.6676 431.841 32.4072C431.662 32.1794 431.466 31.9515 431.255 31.7236C431.043 31.4958 430.807 31.2679 430.547 31.04C429.766 30.3564 429.375 29.8763 429.375 29.5996L429.204 28.3789C429.204 28.1022 429.22 27.8581 429.253 27.6465C429.285 27.4349 429.31 27.2884 429.326 27.207C429.505 26.735 430.026 26.32 430.889 25.9619C431.214 25.7992 431.499 25.6934 431.743 25.6445C432.004 25.5794 432.24 25.5469 432.451 25.5469C432.923 25.5469 433.411 25.7747 433.916 26.2305C434.062 26.3607 434.225 26.5153 434.404 26.6943C434.583 26.8571 434.746 27.028 434.893 27.207C435.348 27.6628 435.658 27.9883 435.82 28.1836C435.999 28.3626 436.105 28.4684 436.138 28.501C436.366 28.8428 436.561 29.1602 436.724 29.4531C436.886 29.7461 436.992 30.0065 437.041 30.2344C437.139 30.4622 437.212 30.7389 437.261 31.0645C437.31 31.3737 437.334 31.6911 437.334 32.0166V32.041ZM490.669 52.5977C490.669 52.7441 490.62 52.9801 490.522 53.3057C490.441 53.6312 490.319 54.0055 490.156 54.4287C490.01 54.8356 489.831 55.2751 489.619 55.7471C489.408 56.2191 489.172 56.6667 488.911 57.0898C488.407 57.9199 487.878 58.6849 487.324 59.3848C486.771 60.0684 486.169 60.6624 485.518 61.167C484.867 61.6553 484.15 62.0378 483.369 62.3145C482.604 62.5749 481.758 62.7051 480.83 62.7051C480.033 62.7051 479.268 62.5098 478.535 62.1191C477.819 61.7285 477.16 61.1914 476.558 60.5078C475.955 59.8079 475.426 58.9779 474.971 58.0176C474.515 57.041 474.157 55.9668 473.896 54.7949C473.734 54.0625 473.595 53.3382 473.481 52.6221C473.384 51.9059 473.294 51.263 473.213 50.6934C473.132 50.1237 473.05 49.6598 472.969 49.3018C472.887 48.9437 472.798 48.7646 472.7 48.7646C472.505 48.7646 472.261 48.9111 471.968 49.2041C471.691 49.4808 471.357 49.9284 470.967 50.5469C470.576 51.1491 470.12 51.9303 469.6 52.8906C469.095 53.8509 468.517 54.9984 467.866 56.333C466.759 58.5954 465.758 60.2962 464.863 61.4355C463.968 62.5586 463.049 63.1201 462.104 63.1201C461.746 63.1201 461.396 63.055 461.055 62.9248C460.713 62.7783 460.404 62.5993 460.127 62.3877C459.85 62.1598 459.606 61.8994 459.395 61.6064C459.199 61.3135 459.045 61.0124 458.931 60.7031C458.703 60.0846 458.483 59.3359 458.271 58.457C458.06 57.5618 457.889 56.5202 457.759 55.332C457.661 54.4531 457.563 53.6312 457.466 52.8662C457.384 52.085 457.303 51.4095 457.222 50.8398C457.14 50.2702 457.059 49.8307 456.978 49.5215C456.896 49.196 456.815 49.0332 456.733 49.0332C456.587 49.0332 456.351 49.196 456.025 49.5215C455.716 49.8307 455.35 50.2376 454.927 50.7422C454.52 51.2305 454.08 51.792 453.608 52.4268C453.136 53.0615 452.664 53.7126 452.192 54.3799C451.737 55.0309 451.305 55.6738 450.898 56.3086C450.492 56.9271 450.15 57.4805 449.873 57.9688C449.678 58.3268 449.442 58.7419 449.165 59.2139C448.888 59.6859 448.604 60.166 448.311 60.6543C448.018 61.1426 447.725 61.6146 447.432 62.0703C447.155 62.526 446.903 62.9167 446.675 63.2422C446.528 63.4538 446.284 63.641 445.942 63.8037C445.601 63.9665 445.234 64.1048 444.844 64.2188C444.453 64.3164 444.071 64.3978 443.696 64.4629C443.338 64.5117 443.062 64.5361 442.866 64.5361C442.443 64.5361 442.109 64.3896 441.865 64.0967C441.621 63.8037 441.434 63.3968 441.304 62.876C441.174 62.3389 441.084 61.7122 441.035 60.9961C441.003 60.2637 440.986 59.4661 440.986 58.6035C440.986 57.9362 441.019 57.1956 441.084 56.3818C441.165 55.5518 441.263 54.6891 441.377 53.7939C441.507 52.8988 441.646 52.0036 441.792 51.1084C441.938 50.2132 442.085 49.3669 442.231 48.5693C442.313 48.0973 442.386 47.609 442.451 47.1045C442.533 46.5999 442.606 46.1198 442.671 45.6641C442.736 45.1921 442.785 44.7607 442.817 44.3701C442.85 43.9795 442.866 43.6621 442.866 43.418C442.866 42.8483 443.062 42.3682 443.452 41.9775C443.843 41.5869 444.38 41.3916 445.063 41.3916C447.244 41.3916 448.335 42.6937 448.335 45.2979C448.335 45.9163 448.262 46.6732 448.115 47.5684C447.969 48.4473 447.79 49.3669 447.578 50.3271C447.367 51.2874 447.139 52.2314 446.895 53.1592C446.667 54.0869 446.455 54.9007 446.26 55.6006C446.895 54.5752 447.537 53.5579 448.188 52.5488C448.84 51.5234 449.474 50.555 450.093 49.6436C450.711 48.7321 451.297 47.902 451.851 47.1533C452.42 46.3883 452.933 45.7454 453.389 45.2246C454.854 43.5807 456.506 42.7588 458.345 42.7588C458.979 42.7588 459.508 42.9134 459.932 43.2227C460.371 43.5319 460.729 43.9551 461.006 44.4922C461.299 45.0293 461.535 45.6559 461.714 46.3721C461.893 47.0719 462.039 47.8206 462.153 48.6182C462.284 49.4157 462.389 50.2295 462.471 51.0596C462.552 51.8896 462.642 52.6953 462.739 53.4766C462.788 53.8509 462.829 54.266 462.861 54.7217C462.894 55.1611 462.959 55.5355 463.057 55.8447C463.122 55.7471 463.228 55.5518 463.374 55.2588C463.537 54.9495 463.716 54.5833 463.911 54.1602C464.123 53.7207 464.342 53.2487 464.57 52.7441C464.798 52.2396 465.018 51.7513 465.229 51.2793C465.457 50.791 465.669 50.3434 465.864 49.9365C466.06 49.5296 466.214 49.2122 466.328 48.9844C466.93 47.8451 467.508 46.8848 468.062 46.1035C468.631 45.306 469.201 44.6631 469.771 44.1748C470.34 43.6702 470.926 43.304 471.528 43.0762C472.131 42.8483 472.782 42.7344 473.481 42.7344C474.214 42.7344 474.824 42.8646 475.312 43.125C475.817 43.3854 476.232 43.7354 476.558 44.1748C476.883 44.598 477.144 45.0863 477.339 45.6396C477.55 46.1768 477.738 46.7301 477.9 47.2998C478.014 47.6904 478.128 48.2194 478.242 48.8867C478.372 49.554 478.494 50.2295 478.608 50.9131C478.739 51.5804 478.853 52.1989 478.95 52.7686C479.048 53.3219 479.129 53.6882 479.194 53.8672C479.373 54.388 479.561 54.8763 479.756 55.332C479.951 55.7878 480.155 56.1865 480.366 56.5283C480.594 56.8538 480.83 57.1143 481.074 57.3096C481.318 57.5049 481.579 57.6025 481.855 57.6025C482.783 57.6025 483.817 57.1387 484.956 56.2109C486.112 55.2832 487.324 53.916 488.594 52.1094C488.757 51.8815 488.952 51.7188 489.18 51.6211C489.424 51.5072 489.66 51.4502 489.888 51.4502C490.116 51.4502 490.303 51.5723 490.449 51.8164C490.596 52.0605 490.669 52.321 490.669 52.5977ZM535.791 34.5312C535.791 34.7591 535.758 35.0358 535.693 35.3613C535.645 35.6868 535.563 36.0286 535.449 36.3867C535.335 36.7285 535.205 37.0622 535.059 37.3877C534.928 37.6969 534.774 37.9492 534.595 38.1445H534.619C534.098 38.763 532.869 39.0723 530.933 39.0723C530.933 38.3724 530.9 37.7702 530.835 37.2656C530.786 36.7448 530.697 36.3298 530.566 36.0205C530.452 35.7601 530.249 35.5404 529.956 35.3613C529.663 35.1823 529.329 35.0358 528.955 34.9219C528.597 34.8079 528.231 34.7266 527.856 34.6777C527.482 34.6126 527.157 34.5801 526.88 34.5801C526.18 34.5801 525.496 34.5964 524.829 34.6289C524.162 34.6615 523.503 34.7266 522.852 34.8242C522.217 34.9219 521.566 35.0602 520.898 35.2393C520.247 35.4183 519.58 35.6462 518.896 35.9229C518.408 36.1182 517.887 36.3623 517.334 36.6553C516.797 36.9482 516.292 37.2819 515.82 37.6562C515.348 38.0143 514.941 38.4131 514.6 38.8525C514.274 39.2757 514.071 39.7314 513.989 40.2197L514.014 40.1709C514.014 40.5615 514.144 41.001 514.404 41.4893C514.665 41.9613 515.015 42.4333 515.454 42.9053C515.91 43.361 516.431 43.7842 517.017 44.1748C517.603 44.5492 518.221 44.8258 518.872 45.0049C518.921 45.0212 519.059 45.07 519.287 45.1514C519.515 45.2327 519.792 45.3304 520.117 45.4443C520.443 45.542 520.785 45.6559 521.143 45.7861C521.517 45.9163 521.859 46.0384 522.168 46.1523C522.493 46.25 522.762 46.3395 522.974 46.4209C523.201 46.486 523.332 46.5267 523.364 46.543C527.14 47.5033 529.94 48.6589 531.763 50.0098C533.586 51.3607 534.497 53.0208 534.497 54.9902C534.497 55.625 534.359 56.2598 534.082 56.8945C533.805 57.513 533.455 58.1071 533.032 58.6768C532.609 59.2464 532.145 59.7754 531.641 60.2637C531.152 60.7357 530.688 61.1344 530.249 61.46L530.273 61.4355C529.801 61.8099 529.264 62.1924 528.662 62.583C528.076 62.9736 527.441 63.3561 526.758 63.7305C526.074 64.1048 525.366 64.4548 524.634 64.7803C523.901 65.1058 523.153 65.3906 522.388 65.6348C521.672 65.8626 520.915 66.0742 520.117 66.2695C519.336 66.4811 518.555 66.6602 517.773 66.8066C516.992 66.9531 516.235 67.0671 515.503 67.1484C514.787 67.2298 514.136 67.2705 513.55 67.2705C513.241 67.2705 512.858 67.2298 512.402 67.1484C511.963 67.0833 511.491 66.9857 510.986 66.8555C510.498 66.7253 510.002 66.5706 509.497 66.3916C509.009 66.2126 508.569 66.0091 508.179 65.7812C507.788 65.5534 507.471 65.3092 507.227 65.0488C506.982 64.7884 506.86 64.5117 506.86 64.2188C506.86 63.9583 506.909 63.641 507.007 63.2666C507.104 62.8923 507.243 62.5342 507.422 62.1924C507.617 61.8343 507.837 61.5332 508.081 61.2891C508.341 61.0286 508.618 60.8984 508.911 60.8984C509.318 60.8984 509.701 60.9473 510.059 61.0449C510.417 61.1426 510.815 61.2565 511.255 61.3867C511.711 61.5007 512.231 61.6146 512.817 61.7285C513.42 61.8262 514.16 61.875 515.039 61.875C515.918 61.875 516.829 61.7855 517.773 61.6064C518.734 61.4111 519.678 61.1589 520.605 60.8496C521.533 60.5241 522.42 60.1579 523.267 59.751C524.113 59.3441 524.878 58.9209 525.562 58.4814C525.854 58.2861 526.172 58.0664 526.514 57.8223C526.872 57.5618 527.197 57.2852 527.49 56.9922C527.799 56.6829 528.052 56.3656 528.247 56.04C528.459 55.7145 528.564 55.3809 528.564 55.0391C528.564 54.6484 528.271 54.2741 527.686 53.916V53.9404C526.823 53.4196 525.968 53.0208 525.122 52.7441C524.276 52.4674 523.535 52.2396 522.9 52.0605C521.11 51.6048 518.929 50.8805 516.357 49.8877H516.382C515.308 49.4645 514.266 48.9193 513.257 48.252C512.248 47.5846 511.377 46.8848 510.645 46.1523C509.017 44.3457 508.203 42.2624 508.203 39.9023C508.203 38.9746 508.464 38.0713 508.984 37.1924C509.505 36.3135 510.213 35.4915 511.108 34.7266C512.004 33.9453 513.037 33.2292 514.209 32.5781C515.397 31.9271 516.659 31.3737 517.993 30.918C519.328 30.446 520.687 30.0798 522.07 29.8193C523.47 29.5589 524.821 29.4287 526.123 29.4287C526.53 29.4287 527.035 29.4613 527.637 29.5264C528.255 29.5752 528.882 29.6566 529.517 29.7705C530.168 29.8682 530.786 29.9984 531.372 30.1611C531.958 30.3076 532.422 30.4785 532.764 30.6738H532.739C533.683 31.1784 534.424 31.7806 534.961 32.4805C535.514 33.1803 535.791 33.8639 535.791 34.5312ZM581.606 46.1279C581.606 46.3721 581.484 46.722 581.24 47.1777C580.996 47.6335 580.679 48.1299 580.288 48.667C579.897 49.2041 579.458 49.7656 578.97 50.3516C578.481 50.9212 578.001 51.4502 577.529 51.9385C576.634 52.8499 575.674 53.8102 574.648 54.8193C573.639 55.8122 572.565 56.7236 571.426 57.5537C570.303 58.3838 569.123 59.0674 567.886 59.6045C566.649 60.1416 565.363 60.4102 564.028 60.4102C562.97 60.4102 562.059 60.2148 561.294 59.8242C560.529 59.4173 559.886 58.8151 559.365 58.0176C558.844 57.2201 558.429 56.2354 558.12 55.0635C557.811 53.8916 557.583 52.5326 557.437 50.9863C557.388 50.3841 557.331 49.8389 557.266 49.3506C557.217 48.846 557.16 48.4147 557.095 48.0566C557.03 47.6986 556.948 47.4219 556.851 47.2266C556.769 47.0312 556.663 46.9336 556.533 46.9336C556.077 46.9336 555.467 47.2835 554.702 47.9834C553.937 48.6833 553.05 49.6436 552.041 50.8643C551.048 52.085 549.958 53.5335 548.77 55.21C547.598 56.8701 546.369 58.6768 545.083 60.6299C544.969 60.7926 544.749 61.0531 544.424 61.4111C544.115 61.7529 543.765 62.1029 543.374 62.4609C543 62.8027 542.617 63.1038 542.227 63.3643C541.836 63.6247 541.519 63.7549 541.274 63.7549C540.851 63.7549 540.428 63.7142 540.005 63.6328C539.598 63.5514 539.232 63.4212 538.906 63.2422C538.597 63.0632 538.345 62.8353 538.149 62.5586C537.954 62.2656 537.856 61.9076 537.856 61.4844C537.856 61.2728 537.889 60.9554 537.954 60.5322C538.019 60.0928 538.092 59.637 538.174 59.165C538.271 58.6768 538.361 58.2048 538.442 57.749C538.54 57.2933 538.621 56.9434 538.687 56.6992C538.719 56.5527 538.776 56.2435 538.857 55.7715C538.939 55.2995 539.036 54.7217 539.15 54.0381C539.264 53.3382 539.395 52.5651 539.541 51.7188C539.688 50.8724 539.834 50.0098 539.98 49.1309C540.127 48.252 540.273 47.3812 540.42 46.5186C540.566 45.6396 540.697 44.834 540.811 44.1016C540.941 43.3691 541.047 42.7344 541.128 42.1973C541.226 41.6439 541.291 41.2451 541.323 41.001C541.34 40.8545 541.388 40.5127 541.47 39.9756C541.551 39.4222 541.641 38.7712 541.738 38.0225C541.836 37.2738 541.942 36.4762 542.056 35.6299C542.186 34.7835 542.3 33.9941 542.397 33.2617C542.495 32.513 542.576 31.862 542.642 31.3086C542.723 30.7552 542.772 30.4053 542.788 30.2588C542.837 29.8193 542.951 29.3392 543.13 28.8184C543.309 28.2975 543.537 27.8174 543.813 27.3779C544.09 26.9222 544.399 26.5397 544.741 26.2305C545.099 25.9212 545.474 25.7666 545.864 25.7666C546.206 25.7666 546.572 25.8398 546.963 25.9863C547.37 26.1165 547.736 26.3281 548.062 26.6211C548.403 26.9141 548.688 27.2884 548.916 27.7441C549.144 28.1999 549.258 28.7451 549.258 29.3799C549.258 29.8356 549.217 30.389 549.136 31.04C549.054 31.6911 548.949 32.3828 548.818 33.1152C548.704 33.8477 548.566 34.5964 548.403 35.3613C548.257 36.1263 548.11 36.8587 547.964 37.5586C547.817 38.2422 547.671 38.877 547.524 39.4629C547.394 40.0326 547.288 40.4883 547.207 40.8301C547.077 41.3835 546.938 41.9531 546.792 42.5391C546.646 43.1087 546.515 43.6296 546.401 44.1016C546.336 44.362 546.239 44.7363 546.108 45.2246C545.978 45.7129 545.832 46.2744 545.669 46.9092C545.506 47.5439 545.327 48.2275 545.132 48.96C544.953 49.6924 544.766 50.4329 544.57 51.1816C544.391 51.9141 544.212 52.6302 544.033 53.3301C543.87 54.0299 543.732 54.6647 543.618 55.2344C544.204 54.3229 544.839 53.3626 545.522 52.3535C546.222 51.3281 546.922 50.3271 547.622 49.3506C548.322 48.374 548.997 47.4707 549.648 46.6406C550.316 45.7943 550.91 45.1025 551.431 44.5654C551.984 43.9958 552.562 43.4831 553.164 43.0273C553.766 42.5553 554.368 42.1647 554.971 41.8555C555.589 41.5299 556.191 41.2858 556.777 41.123C557.38 40.944 557.941 40.8545 558.462 40.8545C558.739 40.8545 559.032 40.9115 559.341 41.0254C559.65 41.1393 559.943 41.2939 560.22 41.4893C560.513 41.6846 560.773 41.9206 561.001 42.1973C561.245 42.474 561.424 42.7832 561.538 43.125C561.864 44.0039 562.1 44.8991 562.246 45.8105C562.409 46.722 562.539 47.6172 562.637 48.4961C562.718 49.3262 562.824 50.1481 562.954 50.9619C563.084 51.7594 563.231 52.4756 563.394 53.1104C563.573 53.7451 563.76 54.2578 563.955 54.6484C564.15 55.0391 564.362 55.2344 564.59 55.2344C565.322 55.2344 566.095 55.0798 566.909 54.7705C567.739 54.4613 568.553 54.0788 569.351 53.623C570.148 53.151 570.913 52.6465 571.646 52.1094C572.378 51.556 573.021 51.0352 573.574 50.5469C575.511 48.8379 577.065 47.4707 578.237 46.4453C579.409 45.4199 580.215 44.8991 580.654 44.8828C580.964 44.8828 581.2 44.9967 581.362 45.2246C581.525 45.4525 581.606 45.7536 581.606 46.1279ZM615.801 45.835C615.801 46.0628 615.768 46.3232 615.703 46.6162C615.654 46.9092 615.589 47.194 615.508 47.4707C615.426 47.7474 615.345 47.9997 615.264 48.2275C615.182 48.4554 615.109 48.6182 615.044 48.7158C614.849 49.2855 614.556 49.9202 614.165 50.6201C613.791 51.3037 613.351 52.0117 612.847 52.7441C612.342 53.4603 611.797 54.1846 611.211 54.917C610.625 55.6494 610.031 56.3493 609.429 57.0166C608.843 57.6676 608.265 58.278 607.695 58.8477C607.142 59.401 606.637 59.873 606.182 60.2637C605.596 60.752 604.961 61.2484 604.277 61.7529C603.594 62.2412 602.869 62.6888 602.104 63.0957C601.356 63.5026 600.583 63.8363 599.785 64.0967C598.988 64.3408 598.19 64.4629 597.393 64.4629C596.709 64.4629 596.082 64.3083 595.513 63.999C594.943 63.6898 594.463 63.2178 594.072 62.583C593.698 61.9482 593.421 61.1589 593.242 60.2148C593.063 59.2546 593.022 58.1315 593.12 56.8457C592.225 58.0827 591.232 59.2301 590.142 60.2881C589.051 61.3298 587.961 62.2249 586.87 62.9736C585.78 63.7223 584.73 64.3083 583.721 64.7314C582.728 65.1546 581.865 65.3662 581.133 65.3662C579.066 65.3662 577.479 64.7314 576.372 63.4619C575.282 62.1761 574.736 60.3695 574.736 58.042C574.736 57.5537 574.777 56.9596 574.858 56.2598C574.956 55.5436 575.086 54.7705 575.249 53.9404C575.428 53.1104 575.632 52.2396 575.859 51.3281C576.104 50.4004 576.364 49.4808 576.641 48.5693C576.689 48.4229 576.787 48.1055 576.934 47.6172C577.08 47.1289 577.235 46.6081 577.397 46.0547C577.576 45.485 577.747 44.9561 577.91 44.4678C578.073 43.9795 578.195 43.6621 578.276 43.5156C578.553 42.946 578.862 42.4984 579.204 42.1729C579.562 41.8311 580.075 41.6602 580.742 41.6602C581.654 41.6602 582.362 41.8473 582.866 42.2217C583.387 42.5798 583.647 43.2145 583.647 44.126C583.647 44.3538 583.59 44.7119 583.477 45.2002C583.363 45.6722 583.224 46.1849 583.062 46.7383C582.899 47.2754 582.728 47.7962 582.549 48.3008C582.37 48.8053 582.223 49.196 582.109 49.4727C581.621 50.9701 581.198 52.3617 580.84 53.6475C580.482 54.917 580.303 56.097 580.303 57.1875C580.303 58.1478 580.449 58.8639 580.742 59.3359C581.035 59.8079 581.304 60.0439 581.548 60.0439C582.183 60.0439 582.842 59.9056 583.525 59.6289C584.209 59.3359 584.893 58.9535 585.576 58.4814C586.276 58.0094 586.951 57.4642 587.603 56.8457C588.254 56.2272 588.864 55.5924 589.434 54.9414C590.02 54.2904 590.54 53.6393 590.996 52.9883C591.468 52.3372 591.851 51.7432 592.144 51.2061C592.355 50.8154 592.542 50.4492 592.705 50.1074C592.868 49.7656 593.031 49.4076 593.193 49.0332C593.356 48.6426 593.535 48.2194 593.73 47.7637C593.942 47.3079 594.194 46.7627 594.487 46.1279C594.65 45.7861 594.805 45.4606 594.951 45.1514C595.114 44.8258 595.285 44.541 595.464 44.2969C595.659 44.0527 595.871 43.8574 596.099 43.7109C596.326 43.5645 596.587 43.4912 596.88 43.4912C597.205 43.4912 597.523 43.5238 597.832 43.5889C598.158 43.6377 598.451 43.7435 598.711 43.9062C598.971 44.0527 599.183 44.2562 599.346 44.5166C599.508 44.7607 599.59 45.0781 599.59 45.4688C599.395 46.1849 599.224 46.7952 599.077 47.2998C598.947 47.8044 598.817 48.3333 598.687 48.8867C598.556 49.4401 598.451 49.9202 598.369 50.3271C598.288 50.7829 598.206 51.2956 598.125 51.8652C598.044 52.4186 597.97 52.972 597.905 53.5254C597.84 54.0788 597.783 54.6077 597.734 55.1123C597.702 55.6006 597.686 56.0075 597.686 56.333C597.686 57.1631 597.743 57.863 597.856 58.4326C597.987 58.986 598.19 59.2627 598.467 59.2627C599.346 59.2627 600.257 59.0023 601.201 58.4814C602.161 57.9606 603.154 57.2526 604.18 56.3574C604.798 55.8203 605.514 55.1367 606.328 54.3066C607.142 53.4603 607.964 52.5651 608.794 51.6211C609.624 50.6608 610.422 49.6842 611.187 48.6914C611.951 47.6986 612.594 46.7627 613.115 45.8838C613.343 45.5094 613.62 45.1921 613.945 44.9316C614.287 44.6549 614.645 44.5166 615.02 44.5166C615.068 44.5166 615.133 44.5329 615.215 44.5654C615.312 44.5817 615.402 44.6387 615.483 44.7363C615.581 44.834 615.654 44.9723 615.703 45.1514C615.768 45.3141 615.801 45.542 615.801 45.835ZM612.91 68.2959C612.568 68.2959 612.161 68.2064 611.689 68.0273C611.234 67.8646 610.802 67.6123 610.396 67.2705C609.989 66.945 609.639 66.5462 609.346 66.0742C609.069 65.6022 608.931 65.0732 608.931 64.4873L609.077 63.6572C608.735 63.5758 608.442 63.4701 608.198 63.3398C607.97 63.1934 607.808 62.9248 607.71 62.5342C607.612 61.9971 607.563 61.5169 607.563 61.0938C607.563 60.7682 607.58 60.4346 607.612 60.0928C607.645 59.7347 607.702 59.3197 607.783 58.8477C608.027 57.2038 608.296 55.3971 608.589 53.4277C608.898 51.4583 609.289 49.2122 609.761 46.6895C609.956 45.6803 610.168 44.6061 610.396 43.4668C610.623 42.3275 610.859 41.1963 611.104 40.0732C611.364 38.9502 611.616 37.8841 611.86 36.875C612.121 35.8659 612.357 34.9951 612.568 34.2627C612.894 33.1559 613.211 32.277 613.521 31.626C613.846 30.9587 614.18 30.446 614.521 30.0879C614.88 29.7298 615.254 29.4938 615.645 29.3799C616.051 29.266 616.499 29.209 616.987 29.209C617.215 29.209 617.443 29.2578 617.671 29.3555C617.899 29.4368 618.102 29.5915 618.281 29.8193C618.477 30.0309 618.631 30.3239 618.745 30.6982C618.875 31.0563 618.94 31.5039 618.94 32.041C618.94 32.7734 618.843 33.6035 618.647 34.5312C618.468 35.459 618.241 36.4193 617.964 37.4121C617.703 38.3887 617.419 39.3571 617.109 40.3174C616.8 41.2777 616.523 42.1566 616.279 42.9541C616.117 43.4261 615.921 44.0365 615.693 44.7852C615.465 45.5176 615.221 46.3232 614.961 47.2021C614.701 48.0648 614.432 48.9681 614.155 49.9121C613.879 50.8561 613.61 51.7839 613.35 52.6953C614.18 51.377 615.124 50.1562 616.182 49.0332C617.256 47.8939 618.338 46.9092 619.429 46.0791C620.535 45.249 621.61 44.598 622.651 44.126C623.709 43.654 624.637 43.418 625.435 43.418C626.151 43.418 626.81 43.597 627.412 43.9551C628.014 44.2969 628.527 44.7526 628.95 45.3223C629.39 45.8757 629.731 46.5104 629.976 47.2266C630.22 47.9427 630.342 48.6751 630.342 49.4238C630.342 49.7656 630.293 50.2051 630.195 50.7422C630.098 51.2793 629.935 51.8734 629.707 52.5244C629.495 53.1755 629.211 53.859 628.853 54.5752C628.511 55.2751 628.096 55.9587 627.607 56.626C628.698 55.7471 629.805 54.8193 630.928 53.8428C632.051 52.8662 633.125 51.8327 634.15 50.7422C635.192 49.6354 636.152 48.4635 637.031 47.2266C637.91 45.9896 638.643 44.6712 639.229 43.2715C639.359 42.9785 639.497 42.6937 639.644 42.417C639.806 42.124 639.977 41.8636 640.156 41.6357C640.352 41.3916 640.563 41.2044 640.791 41.0742C641.019 40.9277 641.263 40.8545 641.523 40.8545C641.914 40.8545 642.215 41.0091 642.427 41.3184C642.655 41.6276 642.769 42.0915 642.769 42.71C642.769 42.8402 642.728 43.068 642.646 43.3936C642.581 43.7028 642.5 44.0446 642.402 44.4189C642.305 44.777 642.199 45.127 642.085 45.4688C641.987 45.8105 641.898 46.071 641.816 46.25C641.458 47.0638 640.994 47.959 640.425 48.9355C639.855 49.8958 639.18 50.8887 638.398 51.9141C637.617 52.9395 636.722 53.9811 635.713 55.0391C634.704 56.0807 633.581 57.0898 632.344 58.0664C631.66 58.6035 630.806 59.2301 629.78 59.9463C628.771 60.6624 627.673 61.403 626.484 62.168C625.296 62.9167 624.059 63.6572 622.773 64.3896C621.488 65.1221 620.234 65.7731 619.014 66.3428C617.809 66.9287 616.678 67.4007 615.62 67.7588C614.562 68.1169 613.659 68.2959 612.91 68.2959ZM624.189 48.374C623.473 48.374 622.716 48.61 621.919 49.082C621.121 49.5378 620.316 50.1562 619.502 50.9375C618.704 51.7025 617.923 52.5814 617.158 53.5742C616.393 54.5671 615.677 55.5924 615.01 56.6504C614.359 57.7083 613.781 58.7581 613.276 59.7998C612.788 60.8415 612.414 61.7936 612.153 62.6562C612.332 62.9818 612.528 63.2585 612.739 63.4863C612.967 63.7142 613.228 63.8281 613.521 63.8281C614.058 63.8281 614.652 63.7223 615.303 63.5107C615.954 63.2992 616.58 63.0469 617.183 62.7539C617.785 62.4609 618.322 62.1598 618.794 61.8506C619.282 61.5413 619.632 61.2891 619.844 61.0938C620.381 60.5729 620.959 59.8649 621.577 58.9697C622.212 58.0745 622.79 57.1143 623.311 56.0889C623.848 55.0635 624.295 54.0462 624.653 53.0371C625.011 52.028 625.19 51.1654 625.19 50.4492C625.19 50.1888 625.166 49.9365 625.117 49.6924C625.068 49.4482 625.003 49.2285 624.922 49.0332C624.84 48.8379 624.735 48.6833 624.604 48.5693C624.474 48.4391 624.336 48.374 624.189 48.374ZM669.761 49.5215C669.761 49.668 669.736 49.8796 669.688 50.1562C669.655 50.4329 669.606 50.7259 669.541 51.0352C669.476 51.3444 669.403 51.6374 669.321 51.9141C669.256 52.1908 669.191 52.4023 669.126 52.5488C668.507 53.6882 667.783 54.7786 666.953 55.8203C666.123 56.8457 665.228 57.7572 664.268 58.5547C663.324 59.3522 662.323 59.987 661.265 60.459C660.223 60.931 659.173 61.167 658.115 61.167C657.09 61.167 656.195 61.0205 655.43 60.7275C654.665 60.4346 654.014 60.0521 653.477 59.5801C652.956 59.0918 652.524 58.5384 652.183 57.9199C651.857 57.3014 651.597 56.6748 651.401 56.04C651.206 55.389 651.076 54.7624 651.011 54.1602C650.946 53.5417 650.913 52.9883 650.913 52.5C650.913 52.2559 650.929 51.9548 650.962 51.5967C651.011 51.2223 651.06 50.8398 651.108 50.4492C651.174 50.0423 651.222 49.6517 651.255 49.2773C651.304 48.8867 651.328 48.5693 651.328 48.3252C651.328 47.9997 651.255 47.8369 651.108 47.8369C650.685 48.2438 650.278 48.6751 649.888 49.1309C649.513 49.5866 649.131 50.083 648.74 50.6201C648.366 51.1572 647.975 51.7513 647.568 52.4023C647.161 53.0371 646.714 53.7451 646.226 54.5264C645.786 55.2262 645.322 55.9912 644.834 56.8213C644.346 57.6514 643.849 58.4896 643.345 59.3359C642.84 60.1823 642.327 61.0042 641.807 61.8018C641.302 62.5993 640.806 63.3073 640.317 63.9258C639.829 64.528 639.365 65.0163 638.926 65.3906C638.503 65.765 638.12 65.9521 637.778 65.9521C637.388 65.9521 637.062 65.944 636.802 65.9277C636.541 65.9115 636.322 65.8789 636.143 65.8301C635.964 65.7975 635.801 65.7568 635.654 65.708C635.508 65.6592 635.353 65.6022 635.19 65.5371C635.028 64.9349 634.897 64.2839 634.8 63.584C634.702 62.8678 634.629 62.1842 634.58 61.5332C634.548 60.8659 634.523 60.2637 634.507 59.7266C634.507 59.1895 634.507 58.7907 634.507 58.5303C634.507 56.154 634.694 53.6393 635.068 50.9863C635.459 48.3333 635.907 45.5176 636.411 42.5391C636.802 40.2604 637.176 37.8923 637.534 35.4346C637.909 32.9606 638.226 30.3971 638.486 27.7441C638.6 27.1908 638.787 26.6943 639.048 26.2549C639.325 25.8154 639.618 25.4492 639.927 25.1562C640.252 24.847 640.562 24.6191 640.854 24.4727C641.164 24.3099 641.416 24.2285 641.611 24.2285C641.953 24.2285 642.279 24.3506 642.588 24.5947C642.897 24.8226 643.174 25.1318 643.418 25.5225C643.662 25.9131 643.849 26.3525 643.979 26.8408C644.126 27.3128 644.199 27.793 644.199 28.2812C644.199 28.444 644.191 28.6068 644.175 28.7695C644.159 28.9323 644.134 29.0951 644.102 29.2578C644.085 29.3229 644.045 29.5264 643.979 29.8682C643.914 30.21 643.833 30.625 643.735 31.1133C643.654 31.6016 643.556 32.1305 643.442 32.7002C643.345 33.2536 643.247 33.7907 643.149 34.3115C643.068 34.8324 642.995 35.2962 642.93 35.7031C642.865 36.0938 642.816 36.3623 642.783 36.5088C642.767 36.6553 642.71 36.9889 642.612 37.5098C642.531 38.0143 642.425 38.641 642.295 39.3896C642.181 40.1383 642.051 40.9684 641.904 41.8799C641.758 42.7751 641.603 43.6947 641.44 44.6387C641.294 45.5664 641.147 46.486 641.001 47.3975C640.854 48.2926 640.716 49.1064 640.586 49.8389C640.472 50.5713 640.374 51.1898 640.293 51.6943C640.228 52.1989 640.187 52.5244 640.171 52.6709C640.155 52.8499 640.122 53.0941 640.073 53.4033C640.041 53.7126 640 54.0544 639.951 54.4287C639.902 54.7868 639.845 55.1693 639.78 55.5762C639.715 55.9668 639.658 56.333 639.609 56.6748C639.756 56.512 640.008 56.1784 640.366 55.6738C640.724 55.153 641.131 54.5508 641.587 53.8672C642.043 53.1836 642.523 52.4593 643.027 51.6943C643.548 50.9131 644.036 50.1807 644.492 49.4971C644.948 48.8135 645.347 48.2194 645.688 47.7148C646.047 47.194 646.283 46.8441 646.396 46.665C646.624 46.3232 646.917 45.9489 647.275 45.542C647.65 45.1351 648.04 44.7363 648.447 44.3457C648.87 43.9388 649.285 43.5563 649.692 43.1982C650.116 42.8239 650.49 42.5146 650.815 42.2705C651.532 41.7171 652.199 41.3835 652.817 41.2695C653.436 41.1393 654.022 41.0742 654.575 41.0742C654.836 41.0742 655.088 41.1556 655.332 41.3184C655.576 41.4811 655.796 41.7253 655.991 42.0508C656.187 42.36 656.341 42.7507 656.455 43.2227C656.585 43.6947 656.65 44.248 656.65 44.8828C656.65 45.2246 656.618 45.6396 656.553 46.1279C656.488 46.5999 656.414 47.1208 656.333 47.6904C656.252 48.2438 656.178 48.8216 656.113 49.4238C656.048 50.026 656.016 50.6038 656.016 51.1572C656.016 51.5479 656.04 52.0199 656.089 52.5732C656.154 53.1104 656.276 53.6312 656.455 54.1357C656.634 54.624 656.878 55.0472 657.188 55.4053C657.513 55.7471 657.928 55.918 658.433 55.918C659.767 55.918 661.118 55.446 662.485 54.502C663.869 53.5579 665.342 52.0931 666.904 50.1074C667.344 49.5378 667.767 49.139 668.174 48.9111C668.581 48.6833 668.931 48.5693 669.224 48.5693C669.435 48.5693 669.574 48.6426 669.639 48.7891C669.72 48.9193 669.761 49.1634 669.761 49.5215Z" fill="white"/>
<defs>
<filter id="filter0_d_105_13" x="0" y="0" width="970" height="120" filterUnits="userSpaceOnUse" color-interpolation-filters="sRGB">
<feFlood flood-opacity="0" result="BackgroundImageFix"/>
<feColorMatrix in="SourceAlpha" type="matrix" values="0 0 0 0 0 0 0 0 0 0 0 0 0 0 0 0 0 0 127 0" result="hardAlpha"/>
<feOffset dx="20" dy="20"/>
<feComposite in2="hardAlpha" operator="out"/>
<feColorMatrix type="matrix" values="0 0 0 0 0.985 0 0 0 0 1 0 0 0 0 0.25 0 0 0 1 0"/>
<feBlend mode="normal" in2="BackgroundImageFix" result="effect1_dropShadow_105_13"/>
<feBlend mode="normal" in="SourceGraphic" in2="effect1_dropShadow_105_13" result="shape"/>
</filter>
</defs>
</svg>
