<svg width="1340" height="240" viewBox="0 0 1340 240" fill="none" xmlns="http://www.w3.org/2000/svg">

<defs>
<style>
.op{
  <!-- background: #FFFFFF; -->
  <!-- fill : url(#paint0_linear_118_18) -->

 fill : #33CCCC; /* Fallback */
  <!-- animation: color 6s infinite linear; -->
   <!-- background-size: 400% 400%; -->
    animation: color 10s ease infinite;
  }

  @keyframes color {
  0%   { fill: #026e7a; }
  <!-- 20%  { fill: #5A5AFF; } -->
  750%  { fill: #5A5AFF; }
  25%  { fill: #630062; }
  100%  { fill: #026e7a; }
  <!-- 40%  { fill: #E338FF; } -->
  <!-- 60%  { fill: #a13dff; } -->
  
  <!-- 100% { fill: #73F7FF; } -->
}




            .rotate1{
                <!-- transform-origin: center; -->
                animation: rotation1 3s infinite;
            }
            @keyframes rotation1{
                0%,100%{
                    opacity:0;
                    transform: translate(0, -10px);
                }
                50% {
                    opacity:1;
                    transform: translate(0, 30px);
                }

 
  }
              .rotate2{
                <!-- transform-origin: center; -->
                <!-- display: none; -->
                animation: rotation 3s infinite;
            }
            @keyframes rotation{
                50% {
                    opacity:0;
    transform: translate(0, 20px); /* stay on the baseline for most of the animation duration */
  }

  100%,0% {
    fill="#FFFFFF";
    opacity:1;
    transform: translate(0, -30px); /* hop up */
  }
  }
        </style>

</defs>

<g filter="url(#filter0_d_118_18)">
<path class="op" d="M15 10H1315V172.105C1315 172.105 1234.12 133.939 1159.29 122.632C1047.49 105.738 966.792 172.105 894.502 179.953C822.212 187.801 799.005 184.638 655.758 147.559C574.467 126.516 506.351 139.108 415.18 163.684C324.009 188.26 305.514 185.789 175.932 163.684C46.3505 141.579 15 210 15 210V10Z" />
<path class="pp" d="M15 10H1315V172.105C1315 172.105 1234.12 133.939 1159.29 122.632C1047.49 105.738 966.792 172.105 894.502 179.953C822.212 187.801 799.005 184.638 655.758 147.559C574.467 126.516 506.351 139.108 415.18 163.684C324.009 188.26 305.514 185.789 175.932 163.684C46.3505 141.579 15 210 15 210V10Z" fill="#030303" fill-opacity="0.2"/>
</g>
<path class="rotate1" d="M576.851 33.6016C576.851 34.3486 576.763 35.3154 576.587 36.502C576.426 37.6885 576.199 39.0801 575.906 40.6768C575.584 42.4053 575.247 44.2803 574.895 46.3018C574.544 48.3086 574.287 50.3594 574.126 52.4541C574.126 52.5566 574.112 52.813 574.082 53.2231C574.053 53.6333 574.016 54.1533 573.973 54.7832C573.929 55.4131 573.877 56.1309 573.819 56.9365C573.775 57.7275 573.731 58.5698 573.687 59.4634C573.643 60.3423 573.606 61.2432 573.577 62.166C573.548 63.0889 573.533 63.9897 573.533 64.8687C573.533 65.3667 573.438 65.8135 573.247 66.209C573.072 66.5898 572.83 66.9121 572.522 67.1758C572.215 67.4541 571.856 67.6592 571.446 67.791C571.036 67.9375 570.603 68.0107 570.149 68.0107C569.886 68.0107 569.593 67.9521 569.27 67.835C568.963 67.7324 568.67 67.5713 568.391 67.3516C568.128 67.1465 567.901 66.8828 567.71 66.5605C567.52 66.2383 567.425 65.8574 567.425 65.418C567.425 65.125 567.454 64.7148 567.513 64.1875C567.586 63.6602 567.666 63.0669 567.754 62.4077C567.857 61.7485 567.967 61.0454 568.084 60.2983C568.201 59.5513 568.304 58.8115 568.391 58.0791C568.494 57.3467 568.575 56.6509 568.633 55.9917C568.706 55.3325 568.743 54.7612 568.743 54.2778C568.743 54.0142 568.721 53.7798 568.677 53.5747C568.633 53.3696 568.509 53.2671 568.304 53.2671C567.864 53.2671 567.271 53.2964 566.524 53.355C565.777 53.3989 564.993 53.4575 564.173 53.5308C563.367 53.5894 562.576 53.6479 561.8 53.7065C561.038 53.7505 560.415 53.7725 559.932 53.7725C559.829 53.7725 559.573 53.7871 559.163 53.8164C558.767 53.8311 558.291 53.853 557.735 53.8823C557.193 53.9116 556.607 53.9556 555.977 54.0142C555.347 54.0581 554.754 54.1021 554.197 54.146C553.641 54.1899 553.157 54.2412 552.747 54.2998C552.351 54.3438 552.102 54.3877 552 54.4316C551.927 54.5049 551.839 54.8052 551.736 55.3325C551.648 55.8599 551.553 56.4751 551.451 57.1782C551.363 57.8667 551.282 58.5698 551.209 59.2876C551.136 59.9907 551.084 60.562 551.055 61.0015C551.055 61.9243 550.996 62.8252 550.879 63.7041C550.777 64.583 550.586 65.3667 550.308 66.0552C550.044 66.7437 549.693 67.293 549.253 67.7031C548.814 68.1279 548.265 68.3403 547.605 68.3403C547.195 68.3403 546.822 68.2378 546.485 68.0327C546.162 67.8276 545.884 67.564 545.65 67.2417C545.415 66.9194 545.232 66.5752 545.1 66.209C544.969 65.8281 544.903 65.4766 544.903 65.1543C544.903 64.8467 544.932 64.4878 544.991 64.0776C545.064 63.6675 545.144 63.2573 545.232 62.8472C545.32 62.437 545.401 62.0635 545.474 61.7266C545.547 61.375 545.591 61.1187 545.606 60.9575C545.796 60.064 545.987 59.0312 546.177 57.8594C546.382 56.6875 546.58 55.4204 546.77 54.0581C546.975 52.6812 547.173 51.2383 547.364 49.7295C547.569 48.2207 547.759 46.6899 547.935 45.1372C548.125 43.5698 548.308 42.0098 548.484 40.457C548.66 38.9043 548.821 37.4028 548.968 35.9526C548.997 35.7329 549.078 35.5059 549.209 35.2715C549.356 35.0225 549.539 34.8027 549.759 34.6123C549.993 34.4072 550.257 34.2388 550.55 34.1069C550.843 33.9751 551.15 33.9092 551.473 33.9092C551.546 33.9092 551.612 33.9165 551.67 33.9312C551.729 33.9312 551.795 33.9385 551.868 33.9531C552.425 34.0557 552.871 34.2021 553.208 34.3926C553.545 34.5684 553.802 34.7954 553.977 35.0737C554.153 35.3521 554.27 35.6816 554.329 36.0625C554.388 36.4434 554.417 36.8828 554.417 37.3809C554.417 38.3184 554.351 39.2998 554.219 40.3252C554.087 41.3359 553.904 42.3687 553.67 43.4233C553.567 43.9067 553.465 44.4121 553.362 44.9395C553.274 45.4668 553.194 45.9941 553.12 46.5215C553.047 47.0488 552.989 47.5615 552.945 48.0596C552.901 48.543 552.879 48.9971 552.879 49.4219C552.908 49.4658 552.981 49.5024 553.099 49.5317C553.23 49.561 553.377 49.583 553.538 49.5977C553.699 49.6123 553.86 49.627 554.021 49.6416C554.197 49.6416 554.344 49.6416 554.461 49.6416C554.681 49.6416 555.054 49.6416 555.581 49.6416C556.109 49.627 556.724 49.605 557.427 49.5757C558.13 49.5464 558.892 49.5171 559.712 49.4878C560.547 49.4438 561.382 49.3926 562.217 49.334C563.067 49.2754 563.887 49.2095 564.678 49.1362C565.469 49.0483 566.187 48.9531 566.831 48.8506C567.476 48.748 568.003 48.6309 568.413 48.499C568.838 48.3672 569.102 48.2207 569.204 48.0596C569.278 47.957 569.373 47.6641 569.49 47.1807C569.607 46.6826 569.732 46.0601 569.864 45.313C570.01 44.5659 570.149 43.7236 570.281 42.7861C570.428 41.834 570.559 40.8452 570.677 39.8198C570.794 38.7944 570.889 37.7617 570.962 36.7217C571.036 35.6816 571.072 34.6929 571.072 33.7554C571.072 33.5796 571.145 33.3599 571.292 33.0962C571.438 32.8325 571.636 32.5762 571.885 32.3271C572.134 32.0635 572.434 31.8438 572.786 31.668C573.138 31.4922 573.511 31.4043 573.907 31.4043C574.17 31.4043 574.471 31.4482 574.807 31.5361C575.144 31.624 575.459 31.7559 575.752 31.9316C576.06 32.1074 576.316 32.3345 576.521 32.6128C576.726 32.8911 576.836 33.2207 576.851 33.6016ZM593.362 48.1035C593.362 47.459 593.26 47.0049 593.054 46.7412C592.864 46.4775 592.644 46.3457 592.395 46.3457C592.176 46.3457 591.919 46.4775 591.626 46.7412C591.333 47.0049 591.026 47.3638 590.703 47.8179C590.396 48.2573 590.081 48.7773 589.759 49.3779C589.451 49.9639 589.158 50.5864 588.88 51.2456C588.616 51.9048 588.389 52.5859 588.198 53.2891C588.023 53.9775 587.898 54.644 587.825 55.2886C588.25 54.937 588.631 54.6221 588.968 54.3438C589.319 54.0508 589.649 53.7432 589.956 53.4209C590.264 53.1133 590.608 52.7397 590.989 52.3003C591.385 51.8462 591.758 51.3774 592.11 50.894C592.461 50.4106 592.754 49.9272 592.989 49.4438C593.238 48.9604 593.362 48.5137 593.362 48.1035ZM610.413 50.4766C610.413 50.5938 610.369 50.7769 610.281 51.0259C610.193 51.2749 610.047 51.5679 609.842 51.9048C609.27 52.813 608.552 53.8018 607.688 54.8711C606.839 55.9404 605.894 57.0098 604.854 58.0791C603.828 59.1338 602.722 60.1592 601.536 61.1553C600.364 62.1367 599.17 63.0083 597.954 63.77C596.753 64.5317 595.552 65.147 594.351 65.6157C593.15 66.0698 592.007 66.2969 590.923 66.2969C589.546 66.2969 588.345 66.1064 587.32 65.7256C586.294 65.3447 585.445 64.7954 584.771 64.0776C584.097 63.3452 583.592 62.459 583.255 61.4189C582.918 60.3643 582.749 59.1704 582.749 57.8374C582.749 56.8267 582.823 55.7573 582.969 54.6294C583.13 53.5015 583.416 52.3589 583.826 51.2017C584.236 50.0298 584.785 48.8579 585.474 47.686C586.177 46.4995 587.071 45.3569 588.155 44.2583C588.99 43.4087 589.89 42.7642 590.857 42.3247C591.824 41.8853 592.747 41.6655 593.626 41.6655C593.787 41.6655 593.992 41.7021 594.241 41.7754C594.49 41.834 594.739 41.9219 594.988 42.0391C595.237 42.1562 595.479 42.2954 595.713 42.4565C595.948 42.6177 596.138 42.7935 596.284 42.9839C596.753 43.5845 597.105 44.1558 597.339 44.6978C597.573 45.2251 597.691 45.8257 597.691 46.4995C597.691 47.5542 597.544 48.5063 597.251 49.356C596.958 50.2056 596.555 51.0039 596.043 51.751C595.545 52.4834 594.951 53.1938 594.263 53.8823C593.574 54.5708 592.835 55.2886 592.044 56.0356C591.56 56.4897 590.96 56.9878 590.242 57.5298C589.524 58.0571 588.755 58.6357 587.935 59.2656C588.052 59.7197 588.198 60.1152 588.374 60.4521C588.55 60.7744 588.77 61.0454 589.033 61.2651C589.297 61.4849 589.612 61.6533 589.978 61.7705C590.359 61.873 590.806 61.9243 591.319 61.9243C592.007 61.9243 592.74 61.8071 593.516 61.5728C594.307 61.3384 595.098 61.0381 595.889 60.6719C596.577 60.3496 597.259 59.9468 597.932 59.4634C598.606 58.9653 599.287 58.4526 599.976 57.9253C600.401 57.603 600.943 57.1416 601.602 56.541C602.276 55.9258 602.957 55.2886 603.645 54.6294C604.114 54.1899 604.583 53.7651 605.052 53.355C605.52 52.9302 606.018 52.4614 606.546 51.9487L607.71 50.8062C608.56 50.1177 609.248 49.7734 609.776 49.7734C610.054 49.7734 610.23 49.854 610.303 50.0151C610.376 50.1763 610.413 50.3301 610.413 50.4766ZM630.462 48.543C630.447 48.792 630.359 49.1875 630.198 49.7295C630.037 50.2568 629.832 50.8794 629.583 51.5972C629.348 52.3149 629.07 53.106 628.748 53.9702C628.44 54.8198 628.125 55.6987 627.803 56.6069C627.495 57.5151 627.188 58.4307 626.88 59.3535C626.572 60.2617 626.301 61.126 626.067 61.9463C626.052 61.9902 625.987 62.1953 625.869 62.5615C625.767 62.9131 625.628 63.3745 625.452 63.9458C625.276 64.5024 625.078 65.1396 624.859 65.8574C624.639 66.5605 624.412 67.2856 624.177 68.0327C623.958 68.7798 623.731 69.5049 623.496 70.208C623.277 70.9258 623.079 71.5703 622.903 72.1416C622.727 72.7129 622.581 73.1816 622.464 73.5479C622.346 73.9287 622.28 74.1411 622.266 74.1851C622.149 74.5806 622.017 75.042 621.87 75.5693C621.738 76.0967 621.548 76.5874 621.299 77.0415C621.065 77.5103 620.75 77.9058 620.354 78.228C619.959 78.5503 619.439 78.7114 618.794 78.7114C618.428 78.7114 618.098 78.6382 617.805 78.4917C617.527 78.3452 617.285 78.1548 617.08 77.9204C616.89 77.7007 616.736 77.4443 616.619 77.1514C616.516 76.873 616.465 76.5947 616.465 76.3164C616.465 75.9941 616.546 75.562 616.707 75.02C616.868 74.4927 617.066 73.9067 617.3 73.2622C617.549 72.6323 617.813 71.9585 618.091 71.2407C618.384 70.5376 618.655 69.8418 618.904 69.1533C618.904 69.1533 618.955 69.0068 619.058 68.7139C619.175 68.4355 619.321 68.062 619.497 67.5933C619.673 67.1245 619.863 66.5972 620.069 66.0112C620.288 65.4253 620.508 64.8394 620.728 64.2534C620.947 63.6675 621.153 63.1108 621.343 62.5835C621.548 62.0562 621.716 61.6167 621.848 61.2651C621.511 61.5435 621.123 61.8438 620.684 62.166C620.244 62.4883 619.776 62.8179 619.278 63.1548C618.794 63.4771 618.281 63.792 617.739 64.0996C617.197 64.3926 616.655 64.6562 616.113 64.8906C615.586 65.125 615.059 65.3154 614.531 65.4619C614.019 65.5938 613.528 65.6597 613.059 65.6597C612.049 65.6597 611.155 65.4912 610.379 65.1543C609.602 64.8174 608.95 64.3926 608.423 63.8799C607.896 63.3525 607.493 62.7812 607.215 62.166C606.951 61.5361 606.819 60.9282 606.819 60.3423C606.819 59.9028 606.863 59.3608 606.951 58.7163C607.053 58.0718 607.185 57.3833 607.346 56.6509C607.522 55.9038 607.727 55.1348 607.962 54.3438C608.196 53.5381 608.445 52.7617 608.709 52.0146C608.972 51.2676 609.243 50.5791 609.522 49.9492C609.815 49.3047 610.108 48.77 610.401 48.3452C610.855 47.686 611.287 47.2246 611.697 46.9609C612.122 46.6973 612.576 46.5654 613.059 46.5654C613.513 46.5654 613.88 46.6313 614.158 46.7632C614.451 46.895 614.678 47.0781 614.839 47.3125C615 47.5469 615.11 47.8105 615.169 48.1035C615.227 48.3965 615.257 48.7114 615.257 49.0483C615.257 49.2534 615.169 49.5464 614.993 49.9272C614.832 50.3081 614.627 50.7622 614.378 51.2896C614.158 51.7437 613.902 52.2856 613.609 52.9155C613.316 53.5308 613.045 54.2046 612.796 54.937C612.547 55.6548 612.334 56.4092 612.158 57.2002C611.983 57.9912 611.895 58.7896 611.895 59.5952C611.895 59.8735 611.968 60.1079 612.114 60.2983C612.261 60.4888 612.429 60.6426 612.62 60.7598C612.825 60.8623 613.03 60.9429 613.235 61.0015C613.455 61.0454 613.631 61.0674 613.762 61.0674C614.29 61.0674 614.839 60.9648 615.41 60.7598C615.982 60.54 616.546 60.2764 617.102 59.9688C617.674 59.6465 618.223 59.3096 618.75 58.958C619.292 58.5918 619.805 58.2622 620.288 57.9692C620.684 57.7202 621.123 57.4053 621.607 57.0244C622.09 56.6289 622.508 56.1895 622.859 55.7061C623.02 55.4863 623.211 55.0981 623.43 54.5415C623.665 53.9702 623.906 53.3257 624.155 52.6079C624.404 51.8901 624.646 51.1577 624.881 50.4106C625.13 49.6489 625.342 48.9604 625.518 48.3452C625.65 47.9058 625.818 47.5249 626.023 47.2026C626.243 46.8657 626.47 46.5947 626.704 46.3896C626.953 46.1699 627.202 46.0088 627.451 45.9062C627.715 45.7891 627.957 45.7305 628.176 45.7305C628.674 45.7305 629.07 45.7744 629.363 45.8623C629.671 45.9502 629.905 46.104 630.066 46.3237C630.227 46.5288 630.33 46.8145 630.374 47.1807C630.432 47.5322 630.462 47.9717 630.462 48.499V48.543ZM687.698 38.2598C687.698 38.7139 687.625 39.0801 687.478 39.3584C687.346 39.6221 687.17 39.8345 686.951 39.9956C686.731 40.1421 686.489 40.2446 686.226 40.3032C685.977 40.3472 685.735 40.3691 685.5 40.3691C684.973 40.3691 684.497 40.3691 684.072 40.3691C683.662 40.3545 683.259 40.3398 682.864 40.3252C682.468 40.3105 682.051 40.3032 681.611 40.3032C681.187 40.2886 680.688 40.2812 680.117 40.2812C679.751 40.2812 679.326 40.3032 678.843 40.3472C678.374 40.3911 677.883 40.4497 677.371 40.5229C676.858 40.5962 676.345 40.6841 675.833 40.7866C675.32 40.8892 674.844 40.9917 674.404 41.0942C673.965 41.1968 673.577 41.3066 673.24 41.4238C672.917 41.5264 672.683 41.6216 672.537 41.7095C672.434 41.7681 672.339 41.9365 672.251 42.2148C672.178 42.4785 672.141 42.7129 672.141 42.918L671.57 48.1914C671.35 50.2422 671.138 52.2637 670.933 54.2559C670.742 56.2334 670.647 58.189 670.647 60.1226C670.647 60.3862 670.669 60.7671 670.713 61.2651C670.757 61.7485 670.808 62.2319 670.867 62.7153C670.925 63.1987 670.977 63.6235 671.021 63.9897C671.064 64.356 671.086 64.5537 671.086 64.583C671.086 64.9346 671.028 65.2935 670.911 65.6597C670.808 66.0259 670.654 66.3555 670.449 66.6484C670.244 66.9414 669.988 67.1758 669.68 67.3516C669.387 67.542 669.05 67.6372 668.669 67.6372C668.42 67.6372 668.157 67.5713 667.878 67.4395C667.6 67.3223 667.329 67.1611 667.065 66.9561C666.802 66.7363 666.567 66.4873 666.362 66.209C666.157 65.916 665.996 65.6084 665.879 65.2861C665.747 64.9199 665.645 64.4951 665.571 64.0117C665.498 63.5283 665.439 63.0376 665.396 62.5396C665.352 62.0269 665.322 61.5288 665.308 61.0454C665.293 60.5474 665.286 60.1006 665.286 59.7051C665.286 59.0459 665.322 58.2183 665.396 57.2222C665.469 56.2114 665.557 55.1348 665.659 53.9922C665.776 52.835 665.901 51.6631 666.033 50.4766C666.165 49.2754 666.289 48.1548 666.406 47.1147C666.538 46.0601 666.648 45.1445 666.736 44.3682C666.838 43.5918 666.904 43.0425 666.934 42.7202C666.465 42.7202 665.872 42.7642 665.154 42.8521C664.436 42.9253 663.66 43.0132 662.825 43.1157C661.77 43.2476 660.686 43.3721 659.573 43.4893C658.459 43.6064 657.405 43.665 656.409 43.665C656.204 43.665 655.918 43.6504 655.552 43.6211C655.186 43.5771 654.827 43.5039 654.475 43.4014C654.124 43.2842 653.816 43.1304 653.552 42.9399C653.289 42.7349 653.157 42.4712 653.157 42.1489C653.127 42.0317 653.105 41.9585 653.091 41.9292C653.091 41.8853 653.091 41.79 653.091 41.6436C653.091 41.3945 653.113 41.1528 653.157 40.9185C653.201 40.6841 653.281 40.4717 653.398 40.2812C653.516 40.0762 653.684 39.9004 653.904 39.7539C654.138 39.6074 654.431 39.4902 654.783 39.4023C655.603 39.1973 656.519 39.0435 657.529 38.9409C658.54 38.8237 659.551 38.7651 660.562 38.7651C660.752 38.7651 661.104 38.7358 661.616 38.6772C662.144 38.6187 662.751 38.5454 663.44 38.4575C664.143 38.3696 664.89 38.2744 665.681 38.1719C666.487 38.0547 667.249 37.9448 667.966 37.8423C668.699 37.7397 669.351 37.6445 669.922 37.5566C670.493 37.4688 670.911 37.4028 671.174 37.3589C672.126 37.1831 673.079 36.9927 674.031 36.7876C674.983 36.5825 675.935 36.3848 676.887 36.1943C677.839 36.0039 678.784 35.8501 679.722 35.7329C680.674 35.6011 681.611 35.5352 682.534 35.5352C682.651 35.5352 682.842 35.5425 683.105 35.5571C683.369 35.5571 683.669 35.5718 684.006 35.6011C684.343 35.6304 684.695 35.6743 685.061 35.7329C685.442 35.7915 685.793 35.8721 686.116 35.9746C686.365 36.0479 686.584 36.1797 686.775 36.3701C686.965 36.5605 687.126 36.7729 687.258 37.0073C687.405 37.2417 687.515 37.4761 687.588 37.7104C687.661 37.9302 687.698 38.1133 687.698 38.2598ZM722.402 55.9038C722.402 56.0796 722.38 56.292 722.336 56.541C722.307 56.7754 722.248 57.0244 722.161 57.2881C722.073 57.5518 721.955 57.8228 721.809 58.1011C721.662 58.3647 721.487 58.6064 721.282 58.8262C720.403 59.6318 719.495 60.3643 718.557 61.0234C717.634 61.6826 716.704 62.2466 715.766 62.7153C714.844 63.1841 713.928 63.543 713.02 63.792C712.126 64.041 711.284 64.1655 710.493 64.1655C709.307 64.1655 708.318 63.9604 707.527 63.5503C706.75 63.1401 706.128 62.5981 705.659 61.9243C705.19 61.2505 704.861 60.4814 704.67 59.6172C704.48 58.7383 704.385 57.8374 704.385 56.9146C704.385 56.5776 704.399 56.1821 704.429 55.728C704.473 55.2739 704.509 54.8345 704.538 54.4097C704.582 53.9702 704.619 53.582 704.648 53.2451C704.692 52.8936 704.714 52.6592 704.714 52.542C704.714 52.4248 704.7 52.293 704.67 52.1465C704.656 52 704.59 51.9194 704.473 51.9048C703.916 52.5054 703.213 53.4136 702.363 54.6294C701.514 55.8306 700.605 57.2515 699.639 58.8921C699.053 59.9028 698.415 60.9648 697.727 62.0781C697.038 63.1768 696.35 64.1875 695.661 65.1104C694.988 66.0332 694.343 66.7949 693.728 67.3955C693.113 67.9961 692.578 68.2964 692.124 68.2964C691.772 68.2964 691.494 68.2891 691.289 68.2744C691.099 68.2744 690.937 68.2524 690.806 68.2085C690.688 68.1792 690.586 68.1279 690.498 68.0547C690.41 67.9961 690.3 67.9009 690.168 67.769C690.022 67.2271 689.905 66.6484 689.817 66.0332C689.729 65.4033 689.663 64.8027 689.619 64.2314C689.59 63.6455 689.568 63.1182 689.553 62.6494C689.553 62.1807 689.553 61.8291 689.553 61.5947C689.553 59.4561 689.722 57.2002 690.058 54.8271C690.41 52.4395 690.813 49.9053 691.267 47.2246C691.619 45.1738 691.955 43.0791 692.278 40.9404C692.615 38.7871 692.908 36.5166 693.157 34.1289C693.259 33.6016 693.428 33.1694 693.662 32.8325C693.911 32.4956 694.175 32.2319 694.453 32.0415C694.746 31.8511 695.039 31.7266 695.332 31.668C695.64 31.5947 695.911 31.5581 696.145 31.5581C696.819 31.5581 697.339 31.8364 697.705 32.3931C698.071 32.9351 698.254 33.6675 698.254 34.5903C698.254 34.7954 698.232 35.0957 698.188 35.4912C698.144 35.8867 698.078 36.3481 697.991 36.8755C697.917 37.3882 697.829 37.9448 697.727 38.5454C697.639 39.1313 697.536 39.7173 697.419 40.3032C697.317 40.8892 697.214 41.4531 697.112 41.9951C697.009 42.5225 696.914 42.9912 696.826 43.4014C696.474 45.0566 696.138 46.7119 695.815 48.3672C695.508 50.0078 695.229 51.5752 694.98 53.0693C694.731 54.5635 694.512 55.9404 694.321 57.2002C694.145 58.46 694.014 59.5293 693.926 60.4082C694.116 60.1592 694.372 59.8003 694.695 59.3315C695.032 58.8481 695.398 58.3208 695.793 57.7495C696.189 57.1782 696.592 56.585 697.002 55.9697C697.427 55.3398 697.822 54.7539 698.188 54.2119C698.555 53.6553 698.877 53.1646 699.155 52.7397C699.448 52.3149 699.661 52.0146 699.792 51.8389C700.217 51.2529 700.715 50.623 701.286 49.9492C701.872 49.2607 702.502 48.6309 703.176 48.0596C703.865 47.4736 704.582 46.9902 705.329 46.6094C706.091 46.2139 706.853 46.0161 707.615 46.0161C708.171 46.0161 708.618 46.3384 708.955 46.9829C709.307 47.6274 709.482 48.4551 709.482 49.4658C709.482 49.7588 709.453 50.1323 709.394 50.5864C709.336 51.0259 709.27 51.502 709.197 52.0146C709.123 52.5273 709.057 53.0547 708.999 53.5967C708.94 54.124 708.911 54.6294 708.911 55.1128C708.911 55.4644 708.933 55.9038 708.977 56.4312C709.021 56.9438 709.123 57.4419 709.285 57.9253C709.446 58.4087 709.68 58.8188 709.988 59.1558C710.295 59.4927 710.705 59.6611 711.218 59.6611C711.745 59.6611 712.324 59.6099 712.954 59.5073C713.599 59.3901 714.28 59.207 714.997 58.958C715.715 58.709 716.462 58.3867 717.239 57.9912C718.015 57.5957 718.791 57.1123 719.568 56.541C719.7 56.4531 719.839 56.3433 719.985 56.2114C720.146 56.0649 720.307 55.9258 720.469 55.7939C720.63 55.6621 720.798 55.5522 720.974 55.4644C721.164 55.3765 721.355 55.3325 721.545 55.3325C721.75 55.3325 721.941 55.3984 722.117 55.5303C722.307 55.6621 722.402 55.7866 722.402 55.9038ZM731.289 48.1035C731.289 47.459 731.186 47.0049 730.981 46.7412C730.791 46.4775 730.571 46.3457 730.322 46.3457C730.102 46.3457 729.846 46.4775 729.553 46.7412C729.26 47.0049 728.952 47.3638 728.63 47.8179C728.323 48.2573 728.008 48.7773 727.685 49.3779C727.378 49.9639 727.085 50.5864 726.806 51.2456C726.543 51.9048 726.316 52.5859 726.125 53.2891C725.949 53.9775 725.825 54.644 725.752 55.2886C726.177 54.937 726.557 54.6221 726.894 54.3438C727.246 54.0508 727.575 53.7432 727.883 53.4209C728.191 53.1133 728.535 52.7397 728.916 52.3003C729.311 51.8462 729.685 51.3774 730.036 50.894C730.388 50.4106 730.681 49.9272 730.915 49.4438C731.164 48.9604 731.289 48.5137 731.289 48.1035ZM748.34 50.4766C748.34 50.5938 748.296 50.7769 748.208 51.0259C748.12 51.2749 747.973 51.5679 747.768 51.9048C747.197 52.813 746.479 53.8018 745.615 54.8711C744.765 55.9404 743.821 57.0098 742.781 58.0791C741.755 59.1338 740.649 60.1592 739.463 61.1553C738.291 62.1367 737.097 63.0083 735.881 63.77C734.68 64.5317 733.479 65.147 732.278 65.6157C731.076 66.0698 729.934 66.2969 728.85 66.2969C727.473 66.2969 726.272 66.1064 725.246 65.7256C724.221 65.3447 723.371 64.7954 722.698 64.0776C722.024 63.3452 721.518 62.459 721.181 61.4189C720.844 60.3643 720.676 59.1704 720.676 57.8374C720.676 56.8267 720.749 55.7573 720.896 54.6294C721.057 53.5015 721.343 52.3589 721.753 51.2017C722.163 50.0298 722.712 48.8579 723.401 47.686C724.104 46.4995 724.997 45.3569 726.081 44.2583C726.916 43.4087 727.817 42.7642 728.784 42.3247C729.751 41.8853 730.674 41.6655 731.552 41.6655C731.714 41.6655 731.919 41.7021 732.168 41.7754C732.417 41.834 732.666 41.9219 732.915 42.0391C733.164 42.1562 733.406 42.2954 733.64 42.4565C733.874 42.6177 734.065 42.7935 734.211 42.9839C734.68 43.5845 735.031 44.1558 735.266 44.6978C735.5 45.2251 735.617 45.8257 735.617 46.4995C735.617 47.5542 735.471 48.5063 735.178 49.356C734.885 50.2056 734.482 51.0039 733.969 51.751C733.471 52.4834 732.878 53.1938 732.19 53.8823C731.501 54.5708 730.761 55.2886 729.97 56.0356C729.487 56.4897 728.886 56.9878 728.169 57.5298C727.451 58.0571 726.682 58.6357 725.862 59.2656C725.979 59.7197 726.125 60.1152 726.301 60.4521C726.477 60.7744 726.697 61.0454 726.96 61.2651C727.224 61.4849 727.539 61.6533 727.905 61.7705C728.286 61.873 728.733 61.9243 729.245 61.9243C729.934 61.9243 730.666 61.8071 731.443 61.5728C732.234 61.3384 733.025 61.0381 733.816 60.6719C734.504 60.3496 735.185 59.9468 735.859 59.4634C736.533 58.9653 737.214 58.4526 737.903 57.9253C738.327 57.603 738.869 57.1416 739.529 56.541C740.202 55.9258 740.884 55.2886 741.572 54.6294C742.041 54.1899 742.51 53.7651 742.978 53.355C743.447 52.9302 743.945 52.4614 744.472 51.9487L745.637 50.8062C746.487 50.1177 747.175 49.7734 747.702 49.7734C747.981 49.7734 748.156 49.854 748.23 50.0151C748.303 50.1763 748.34 50.3301 748.34 50.4766ZM766.235 50.3447C766.235 50.8428 765.986 51.2676 765.488 51.6191C765.005 51.9561 764.214 52.249 763.115 52.498C762.632 52.6152 762.163 52.7397 761.709 52.8716C761.269 52.9888 760.822 53.1572 760.368 53.377C759.929 53.5967 759.46 53.8896 758.962 54.2559C758.479 54.6221 757.937 55.1055 757.336 55.7061C756.56 56.4971 755.864 57.3394 755.249 58.2329C754.633 59.1118 754.091 60.0566 753.623 61.0674C753.169 62.0635 752.773 63.1328 752.436 64.2754C752.114 65.4033 751.85 66.6118 751.645 67.9009C751.601 68.0034 751.55 68.0913 751.491 68.1646C751.447 68.2378 751.404 68.2964 751.36 68.3403C751.33 68.3989 751.301 68.4429 751.272 68.4722C751.023 68.7505 750.737 68.9482 750.415 69.0654C750.107 69.1826 749.734 69.2412 749.294 69.2412C748.723 69.2412 748.276 69.0801 747.954 68.7578C747.646 68.4502 747.419 68.0767 747.273 67.6372C747.126 67.2124 747.038 66.7729 747.009 66.3188C746.98 65.8647 746.965 65.4912 746.965 65.1982C746.965 64.8906 746.987 64.4438 747.031 63.8579C747.09 63.272 747.148 62.6494 747.207 61.9902C747.265 61.3164 747.317 60.6426 747.361 59.9688C747.419 59.2803 747.448 58.6797 747.448 58.167C747.448 57.7861 747.434 57.2734 747.404 56.6289C747.39 55.9844 747.368 55.2959 747.339 54.5635C747.324 53.8311 747.302 53.106 747.273 52.3882C747.258 51.6704 747.251 51.0625 747.251 50.5645C747.251 50.1689 747.324 49.7954 747.47 49.4438C747.632 49.0923 747.837 48.792 748.086 48.543C748.335 48.2793 748.62 48.0742 748.943 47.9277C749.279 47.7666 749.624 47.686 749.975 47.686C750.4 47.686 750.781 47.7666 751.118 47.9277C751.455 48.0889 751.733 48.3013 751.953 48.5649C752.187 48.8286 752.363 49.1289 752.48 49.4658C752.597 49.7881 752.656 50.125 752.656 50.4766C752.656 50.6377 752.641 50.9014 752.612 51.2676C752.597 51.6191 752.568 52.022 752.524 52.4761C752.495 52.9155 752.451 53.377 752.392 53.8604C752.348 54.3438 752.304 54.7905 752.26 55.2007C752.216 55.5962 752.173 55.9404 752.129 56.2334C752.085 56.5117 752.048 56.6802 752.019 56.7388C752.678 55.4644 753.41 54.2925 754.216 53.2231C755.022 52.1392 755.893 51.2163 756.831 50.4546C757.768 49.6782 758.75 49.0776 759.775 48.6528C760.815 48.2134 761.892 47.9937 763.005 47.9937C763.342 47.9937 763.701 48.0376 764.082 48.1255C764.463 48.1987 764.814 48.3306 765.136 48.521C765.459 48.7114 765.722 48.9531 765.927 49.2461C766.133 49.5391 766.235 49.9053 766.235 50.3447ZM779.802 47.708C779.802 47.4736 779.758 47.2832 779.67 47.1367C779.582 46.9756 779.48 46.8511 779.362 46.7632C779.26 46.6753 779.15 46.6167 779.033 46.5874C778.93 46.5435 778.857 46.5215 778.813 46.5215C778.154 46.5215 777.546 46.7778 776.989 47.2905C776.433 47.7886 775.935 48.4331 775.495 49.2241C775.056 50.0151 774.668 50.8867 774.331 51.8389C774.008 52.791 773.737 53.7139 773.518 54.6074C774.397 53.9336 775.217 53.311 775.979 52.7397C776.74 52.1685 777.399 51.6118 777.956 51.0698C778.527 50.5278 778.974 49.9858 779.296 49.4438C779.633 48.9019 779.802 48.3232 779.802 47.708ZM790.459 56.1235C790.459 56.6655 790.246 57.2808 789.821 57.9692C789.397 58.6577 788.825 59.3755 788.107 60.1226C787.316 60.9282 786.445 61.6826 785.493 62.3857C784.555 63.0742 783.574 63.6748 782.548 64.1875C781.538 64.6855 780.505 65.0811 779.45 65.374C778.396 65.6523 777.37 65.7915 776.374 65.7915C775.144 65.7915 774.045 65.6011 773.078 65.2202C772.126 64.8247 771.313 64.2534 770.639 63.5063C769.98 62.7446 769.475 61.7998 769.123 60.6719C768.772 59.5439 768.596 58.2476 768.596 56.7827C768.596 55.9038 768.676 55.0103 768.837 54.1021C769.013 53.1938 769.262 52.293 769.585 51.3994C769.907 50.4912 770.31 49.6196 770.793 48.7847C771.276 47.9351 771.826 47.1367 772.441 46.3896C772.836 45.9209 773.283 45.4521 773.781 44.9834C774.294 44.5 774.858 44.0679 775.473 43.687C776.088 43.3062 776.762 42.9985 777.495 42.7642C778.242 42.5151 779.047 42.3906 779.912 42.3906C780.615 42.3906 781.237 42.5225 781.779 42.7861C782.336 43.0352 782.805 43.3574 783.186 43.7529C783.566 44.1484 783.859 44.5952 784.065 45.0933C784.27 45.5913 784.372 46.082 784.372 46.5654C784.372 47.708 784.123 48.7773 783.625 49.7734C783.142 50.7549 782.461 51.6997 781.582 52.6079C780.703 53.5015 779.641 54.3804 778.396 55.2446C777.165 56.1089 775.803 56.9951 774.309 57.9033C774.235 57.9326 774.118 57.9985 773.957 58.1011C773.811 58.2036 773.737 58.2695 773.737 58.2988C773.752 58.5918 773.825 58.9067 773.957 59.2437C774.089 59.5806 774.294 59.8955 774.572 60.1885C774.851 60.4814 775.202 60.7305 775.627 60.9355C776.066 61.126 776.586 61.2212 777.187 61.2212C778.11 61.2212 779.04 61.0967 779.978 60.8477C780.915 60.584 781.838 60.2104 782.746 59.7271C783.654 59.2437 784.541 58.6577 785.405 57.9692C786.269 57.2808 787.089 56.5044 787.866 55.6401C788.159 55.3032 788.444 55.0615 788.723 54.915C789.016 54.7686 789.287 54.6953 789.536 54.6953C789.785 54.6953 789.997 54.7979 790.173 55.0029C790.363 55.208 790.459 55.5815 790.459 56.1235Z" fill="white"/>

<path class="rotate2" d="M550.901 97.9849C550.901 98.1899 550.857 98.5562 550.769 99.0835C550.696 99.5962 550.498 100.241 550.176 101.017C549.927 101.647 549.729 102.182 549.583 102.621C549.436 103.061 549.349 103.39 549.319 103.61C549.056 105.28 548.799 107.074 548.55 108.993C548.316 110.912 548.052 112.992 547.759 115.233C547.686 115.849 547.605 116.493 547.517 117.167C547.444 117.826 547.378 118.449 547.32 119.035C547.261 119.621 547.21 120.141 547.166 120.595C547.137 121.034 547.122 121.334 547.122 121.496C547.122 121.613 547.151 121.759 547.21 121.935C547.268 122.096 547.334 122.265 547.408 122.44C547.481 122.616 547.547 122.785 547.605 122.946C547.664 123.107 547.693 123.246 547.693 123.363C547.693 123.7 547.591 124.037 547.386 124.374C547.181 124.711 546.844 125.041 546.375 125.363C545.994 125.641 545.613 125.854 545.232 126C544.851 126.132 544.471 126.212 544.09 126.242C543.387 126.242 542.837 126.066 542.442 125.714C542.061 125.363 541.775 124.945 541.585 124.462C541.409 123.979 541.307 123.473 541.277 122.946C541.248 122.418 541.233 121.979 541.233 121.627C541.233 120.924 541.248 120.258 541.277 119.628C541.321 118.983 541.38 118.354 541.453 117.738C541.57 116.742 541.739 115.578 541.958 114.245C542.178 112.912 542.412 111.498 542.661 110.004C542.705 109.77 542.771 109.396 542.859 108.883C542.962 108.371 543.072 107.785 543.189 107.125C543.321 106.452 543.453 105.749 543.584 105.016C543.731 104.269 543.87 103.559 544.002 102.885C544.134 102.211 544.251 101.61 544.353 101.083C544.456 100.541 544.529 100.138 544.573 99.8745C544.661 99.3911 544.727 99.0176 544.771 98.7539C544.815 98.4902 544.859 98.2485 544.903 98.0288C544.947 97.7944 544.998 97.5381 545.057 97.2598C545.115 96.9814 545.196 96.5933 545.298 96.0952L545.276 96.1392C545.306 95.9048 545.393 95.6484 545.54 95.3701C545.686 95.0771 545.862 94.8062 546.067 94.5571C546.287 94.2935 546.529 94.0811 546.792 93.9199C547.071 93.7441 547.342 93.6562 547.605 93.6562C548.221 93.6562 548.741 93.8027 549.165 94.0957C549.59 94.374 549.927 94.7183 550.176 95.1284C550.44 95.5386 550.623 95.978 550.725 96.4468C550.843 96.9009 550.901 97.3037 550.901 97.6553V97.9849ZM563.699 96.3369C563.684 96.7471 563.626 97.2451 563.523 97.8311C563.421 98.417 563.267 99.1055 563.062 99.8965V99.8745C562.681 101.383 562.146 102.731 561.458 103.917V103.896C561.092 104.584 560.667 105.097 560.183 105.434C559.7 105.756 559.18 105.917 558.623 105.917C558.301 105.917 557.993 105.866 557.7 105.763C557.407 105.661 557.151 105.521 556.931 105.346C556.712 105.17 556.536 104.965 556.404 104.73C556.272 104.481 556.206 104.218 556.206 103.939C556.206 103.764 556.243 103.566 556.316 103.346C556.389 103.126 556.477 102.914 556.58 102.709C556.697 102.489 556.822 102.292 556.953 102.116C557.085 101.925 557.217 101.771 557.349 101.654C557.671 101.361 557.942 101.076 558.162 100.797C558.382 100.504 558.557 100.197 558.689 99.8745C558.836 99.5522 558.938 99.208 558.997 98.8418C559.055 98.4609 559.085 98.0435 559.085 97.5894C559.085 97.2085 558.975 96.9009 558.755 96.6665C558.594 96.4614 558.418 96.2563 558.228 96.0513C558.037 95.8462 557.825 95.6411 557.591 95.436C556.887 94.8208 556.536 94.3887 556.536 94.1396L556.382 93.041C556.382 92.792 556.397 92.5723 556.426 92.3818C556.455 92.1914 556.477 92.0596 556.492 91.9863C556.653 91.5615 557.122 91.188 557.898 90.8657C558.191 90.7192 558.448 90.624 558.667 90.5801C558.902 90.5215 559.114 90.4922 559.304 90.4922C559.729 90.4922 560.169 90.6973 560.623 91.1074C560.755 91.2246 560.901 91.3638 561.062 91.5249C561.223 91.6714 561.37 91.8252 561.502 91.9863C561.912 92.3965 562.19 92.6895 562.337 92.8652C562.498 93.0264 562.593 93.1216 562.622 93.1509C562.827 93.4585 563.003 93.7441 563.15 94.0078C563.296 94.2715 563.391 94.5059 563.435 94.7109C563.523 94.916 563.589 95.165 563.633 95.458C563.677 95.7363 563.699 96.022 563.699 96.3149V96.3369ZM615.3 114.838C615.3 114.97 615.257 115.182 615.169 115.475C615.095 115.768 614.986 116.105 614.839 116.486C614.707 116.852 614.546 117.248 614.356 117.672C614.165 118.097 613.953 118.5 613.718 118.881C613.264 119.628 612.788 120.316 612.29 120.946C611.792 121.562 611.25 122.096 610.664 122.55C610.078 122.99 609.434 123.334 608.731 123.583C608.042 123.817 607.28 123.935 606.445 123.935C605.728 123.935 605.039 123.759 604.38 123.407C603.736 123.056 603.142 122.572 602.6 121.957C602.058 121.327 601.582 120.58 601.172 119.716C600.762 118.837 600.44 117.87 600.205 116.815C600.059 116.156 599.934 115.504 599.832 114.86C599.744 114.215 599.663 113.637 599.59 113.124C599.517 112.611 599.444 112.194 599.37 111.872C599.297 111.549 599.216 111.388 599.129 111.388C598.953 111.388 598.733 111.52 598.469 111.784C598.22 112.033 597.92 112.436 597.569 112.992C597.217 113.534 596.807 114.237 596.338 115.102C595.884 115.966 595.364 116.999 594.778 118.2C593.782 120.236 592.881 121.767 592.075 122.792C591.27 123.803 590.442 124.308 589.592 124.308C589.27 124.308 588.955 124.25 588.648 124.132C588.34 124 588.062 123.839 587.813 123.649C587.564 123.444 587.344 123.209 587.154 122.946C586.978 122.682 586.839 122.411 586.736 122.133C586.531 121.576 586.333 120.902 586.143 120.111C585.952 119.306 585.799 118.368 585.681 117.299C585.593 116.508 585.506 115.768 585.418 115.08C585.344 114.376 585.271 113.769 585.198 113.256C585.125 112.743 585.051 112.348 584.978 112.069C584.905 111.776 584.832 111.63 584.758 111.63C584.627 111.63 584.414 111.776 584.121 112.069C583.843 112.348 583.513 112.714 583.133 113.168C582.766 113.607 582.371 114.113 581.946 114.684C581.521 115.255 581.096 115.841 580.672 116.442C580.261 117.028 579.873 117.606 579.507 118.178C579.141 118.734 578.833 119.232 578.584 119.672C578.408 119.994 578.196 120.368 577.947 120.792C577.698 121.217 577.442 121.649 577.178 122.089C576.914 122.528 576.651 122.953 576.387 123.363C576.138 123.773 575.911 124.125 575.706 124.418C575.574 124.608 575.354 124.777 575.047 124.923C574.739 125.07 574.409 125.194 574.058 125.297C573.706 125.385 573.362 125.458 573.025 125.517C572.703 125.561 572.454 125.583 572.278 125.583C571.897 125.583 571.597 125.451 571.377 125.187C571.157 124.923 570.989 124.557 570.872 124.088C570.755 123.605 570.674 123.041 570.63 122.396C570.601 121.737 570.586 121.02 570.586 120.243C570.586 119.643 570.615 118.976 570.674 118.244C570.747 117.497 570.835 116.72 570.938 115.915C571.055 115.109 571.179 114.303 571.311 113.498C571.443 112.692 571.575 111.93 571.707 111.212C571.78 110.788 571.846 110.348 571.904 109.894C571.978 109.44 572.044 109.008 572.102 108.598C572.161 108.173 572.205 107.785 572.234 107.433C572.263 107.082 572.278 106.796 572.278 106.576C572.278 106.063 572.454 105.631 572.805 105.28C573.157 104.928 573.64 104.752 574.256 104.752C576.218 104.752 577.2 105.924 577.2 108.268C577.2 108.825 577.134 109.506 577.002 110.312C576.87 111.103 576.709 111.93 576.519 112.794C576.328 113.659 576.123 114.508 575.904 115.343C575.698 116.178 575.508 116.911 575.332 117.541C575.904 116.618 576.482 115.702 577.068 114.794C577.654 113.871 578.225 113 578.782 112.179C579.339 111.359 579.866 110.612 580.364 109.938C580.877 109.25 581.338 108.671 581.748 108.202C583.067 106.723 584.553 105.983 586.209 105.983C586.78 105.983 587.256 106.122 587.637 106.4C588.032 106.679 588.355 107.06 588.604 107.543C588.867 108.026 589.08 108.59 589.241 109.235C589.402 109.865 589.534 110.539 589.636 111.256C589.754 111.974 589.849 112.707 589.922 113.454C589.995 114.201 590.076 114.926 590.164 115.629C590.208 115.966 590.244 116.339 590.274 116.75C590.303 117.145 590.362 117.482 590.449 117.76C590.508 117.672 590.603 117.497 590.735 117.233C590.882 116.955 591.043 116.625 591.218 116.244C591.409 115.849 591.607 115.424 591.812 114.97C592.017 114.516 592.215 114.076 592.405 113.651C592.61 113.212 592.8 112.809 592.976 112.443C593.152 112.077 593.291 111.791 593.394 111.586C593.936 110.561 594.456 109.696 594.954 108.993C595.466 108.275 595.979 107.697 596.492 107.257C597.005 106.803 597.532 106.474 598.074 106.269C598.616 106.063 599.202 105.961 599.832 105.961C600.491 105.961 601.04 106.078 601.48 106.312C601.934 106.547 602.307 106.862 602.6 107.257C602.893 107.638 603.128 108.078 603.303 108.576C603.494 109.059 603.662 109.557 603.809 110.07C603.911 110.421 604.014 110.897 604.116 111.498C604.234 112.099 604.343 112.707 604.446 113.322C604.563 113.922 604.666 114.479 604.754 114.992C604.841 115.49 604.915 115.819 604.973 115.98C605.134 116.449 605.303 116.889 605.479 117.299C605.654 117.709 605.838 118.068 606.028 118.375C606.233 118.668 606.445 118.903 606.665 119.079C606.885 119.254 607.119 119.342 607.368 119.342C608.203 119.342 609.133 118.925 610.159 118.09C611.199 117.255 612.29 116.024 613.433 114.398C613.579 114.193 613.755 114.047 613.96 113.959C614.18 113.856 614.392 113.805 614.597 113.805C614.802 113.805 614.971 113.915 615.103 114.135C615.235 114.354 615.3 114.589 615.3 114.838ZM663.11 98.5781C663.11 98.7832 663.081 99.0322 663.022 99.3252C662.979 99.6182 662.905 99.9258 662.803 100.248C662.7 100.556 662.583 100.856 662.451 101.149C662.334 101.427 662.195 101.654 662.034 101.83H662.056C661.587 102.387 660.481 102.665 658.738 102.665C658.738 102.035 658.708 101.493 658.65 101.039C658.606 100.57 658.525 100.197 658.408 99.9185C658.306 99.6841 658.123 99.4863 657.859 99.3252C657.595 99.1641 657.295 99.0322 656.958 98.9297C656.636 98.8271 656.306 98.7539 655.969 98.71C655.632 98.6514 655.339 98.6221 655.09 98.6221C654.46 98.6221 653.845 98.6367 653.245 98.666C652.644 98.6953 652.051 98.7539 651.465 98.8418C650.894 98.9297 650.308 99.0542 649.707 99.2153C649.121 99.3765 648.521 99.5815 647.905 99.8306C647.466 100.006 646.997 100.226 646.499 100.49C646.016 100.753 645.562 101.054 645.137 101.391C644.712 101.713 644.346 102.072 644.038 102.467C643.745 102.848 643.562 103.258 643.489 103.698L643.511 103.654C643.511 104.005 643.628 104.401 643.862 104.84C644.097 105.265 644.412 105.69 644.807 106.115C645.217 106.525 645.686 106.906 646.213 107.257C646.741 107.594 647.297 107.843 647.883 108.004C647.927 108.019 648.052 108.063 648.257 108.136C648.462 108.209 648.711 108.297 649.004 108.4C649.297 108.488 649.604 108.59 649.927 108.708C650.264 108.825 650.571 108.935 650.85 109.037C651.143 109.125 651.384 109.206 651.575 109.279C651.78 109.337 651.897 109.374 651.926 109.389C655.325 110.253 657.844 111.293 659.485 112.509C661.125 113.725 661.946 115.219 661.946 116.991C661.946 117.562 661.821 118.134 661.572 118.705C661.323 119.262 661.008 119.796 660.627 120.309C660.247 120.822 659.829 121.298 659.375 121.737C658.936 122.162 658.518 122.521 658.123 122.814L658.145 122.792C657.72 123.129 657.236 123.473 656.694 123.825C656.167 124.176 655.596 124.521 654.98 124.857C654.365 125.194 653.728 125.509 653.069 125.802C652.41 126.095 651.736 126.352 651.047 126.571C650.403 126.776 649.722 126.967 649.004 127.143C648.301 127.333 647.598 127.494 646.895 127.626C646.191 127.758 645.51 127.86 644.851 127.934C644.207 128.007 643.621 128.043 643.093 128.043C642.815 128.043 642.471 128.007 642.061 127.934C641.665 127.875 641.24 127.787 640.786 127.67C640.347 127.553 639.9 127.414 639.446 127.252C639.006 127.091 638.611 126.908 638.259 126.703C637.908 126.498 637.622 126.278 637.402 126.044C637.183 125.81 637.073 125.561 637.073 125.297C637.073 125.062 637.117 124.777 637.205 124.44C637.292 124.103 637.417 123.781 637.578 123.473C637.754 123.151 637.952 122.88 638.171 122.66C638.406 122.426 638.655 122.309 638.918 122.309C639.285 122.309 639.629 122.353 639.951 122.44C640.273 122.528 640.632 122.631 641.028 122.748C641.438 122.851 641.907 122.953 642.434 123.056C642.976 123.144 643.643 123.188 644.434 123.188C645.225 123.188 646.045 123.107 646.895 122.946C647.759 122.77 648.608 122.543 649.443 122.265C650.278 121.972 651.077 121.642 651.838 121.276C652.6 120.91 653.289 120.529 653.904 120.133C654.167 119.958 654.453 119.76 654.761 119.54C655.083 119.306 655.376 119.057 655.64 118.793C655.918 118.515 656.145 118.229 656.321 117.936C656.511 117.643 656.606 117.343 656.606 117.035C656.606 116.684 656.343 116.347 655.815 116.024V116.046C655.039 115.578 654.27 115.219 653.508 114.97C652.747 114.721 652.08 114.516 651.509 114.354C649.897 113.944 647.935 113.292 645.62 112.399H645.642C644.675 112.018 643.738 111.527 642.83 110.927C641.921 110.326 641.138 109.696 640.479 109.037C639.014 107.411 638.281 105.536 638.281 103.412C638.281 102.577 638.516 101.764 638.984 100.973C639.453 100.182 640.09 99.4424 640.896 98.7539C641.702 98.0508 642.632 97.4062 643.687 96.8203C644.756 96.2344 645.891 95.7363 647.092 95.3262C648.293 94.9014 649.517 94.5718 650.762 94.3374C652.021 94.103 653.237 93.9858 654.409 93.9858C654.775 93.9858 655.229 94.0151 655.771 94.0737C656.328 94.1177 656.892 94.1909 657.463 94.2935C658.049 94.3813 658.606 94.4985 659.133 94.645C659.661 94.7769 660.078 94.9307 660.386 95.1064H660.364C661.213 95.5605 661.88 96.1025 662.363 96.7324C662.861 97.3623 663.11 97.9775 663.11 98.5781ZM707.944 109.015C707.944 109.235 707.834 109.55 707.615 109.96C707.395 110.37 707.109 110.817 706.758 111.3C706.406 111.784 706.011 112.289 705.571 112.816C705.132 113.329 704.7 113.805 704.275 114.245C703.469 115.065 702.605 115.929 701.682 116.837C700.774 117.731 699.807 118.551 698.782 119.298C697.771 120.045 696.709 120.661 695.596 121.144C694.482 121.627 693.325 121.869 692.124 121.869C691.172 121.869 690.351 121.693 689.663 121.342C688.974 120.976 688.396 120.434 687.927 119.716C687.458 118.998 687.085 118.112 686.807 117.057C686.528 116.002 686.323 114.779 686.191 113.388C686.147 112.846 686.096 112.355 686.037 111.916C685.994 111.461 685.942 111.073 685.884 110.751C685.825 110.429 685.752 110.18 685.664 110.004C685.591 109.828 685.495 109.74 685.378 109.74C684.968 109.74 684.419 110.055 683.73 110.685C683.042 111.315 682.244 112.179 681.335 113.278C680.442 114.376 679.46 115.68 678.391 117.189C677.336 118.683 676.23 120.309 675.073 122.067C674.971 122.213 674.773 122.448 674.48 122.77C674.202 123.078 673.887 123.393 673.535 123.715C673.198 124.022 672.854 124.293 672.502 124.528C672.151 124.762 671.865 124.879 671.645 124.879C671.265 124.879 670.884 124.843 670.503 124.77C670.137 124.696 669.807 124.579 669.514 124.418C669.236 124.257 669.009 124.052 668.833 123.803C668.657 123.539 668.569 123.217 668.569 122.836C668.569 122.646 668.599 122.36 668.657 121.979C668.716 121.583 668.782 121.173 668.855 120.749C668.943 120.309 669.023 119.884 669.097 119.474C669.184 119.064 669.258 118.749 669.316 118.529C669.346 118.397 669.397 118.119 669.47 117.694C669.543 117.27 669.631 116.75 669.734 116.134C669.836 115.504 669.953 114.809 670.085 114.047C670.217 113.285 670.349 112.509 670.481 111.718C670.613 110.927 670.745 110.143 670.876 109.367C671.008 108.576 671.125 107.851 671.228 107.191C671.345 106.532 671.44 105.961 671.514 105.478C671.601 104.979 671.66 104.621 671.689 104.401C671.704 104.269 671.748 103.961 671.821 103.478C671.894 102.98 671.975 102.394 672.063 101.72C672.151 101.046 672.246 100.329 672.349 99.5669C672.466 98.8052 672.568 98.0947 672.656 97.4355C672.744 96.7617 672.817 96.1758 672.876 95.6777C672.949 95.1797 672.993 94.8647 673.008 94.7329C673.052 94.3374 673.154 93.9053 673.315 93.4365C673.476 92.9678 673.682 92.5356 673.931 92.1401C674.18 91.73 674.458 91.3857 674.766 91.1074C675.088 90.8291 675.425 90.6899 675.776 90.6899C676.084 90.6899 676.413 90.7559 676.765 90.8877C677.131 91.0049 677.461 91.1953 677.754 91.459C678.061 91.7227 678.318 92.0596 678.523 92.4697C678.728 92.8799 678.83 93.3706 678.83 93.9419C678.83 94.3521 678.794 94.8501 678.721 95.436C678.647 96.022 678.552 96.6445 678.435 97.3037C678.332 97.9629 678.208 98.6367 678.061 99.3252C677.93 100.014 677.798 100.673 677.666 101.303C677.534 101.918 677.402 102.489 677.27 103.017C677.153 103.529 677.058 103.939 676.985 104.247C676.868 104.745 676.743 105.258 676.611 105.785C676.479 106.298 676.362 106.767 676.26 107.191C676.201 107.426 676.113 107.763 675.996 108.202C675.879 108.642 675.747 109.147 675.6 109.718C675.454 110.29 675.293 110.905 675.117 111.564C674.956 112.223 674.787 112.89 674.612 113.563C674.451 114.223 674.289 114.867 674.128 115.497C673.982 116.127 673.857 116.698 673.755 117.211C674.282 116.391 674.853 115.526 675.469 114.618C676.099 113.695 676.728 112.794 677.358 111.916C677.988 111.037 678.596 110.224 679.182 109.477C679.783 108.715 680.317 108.092 680.786 107.609C681.284 107.096 681.804 106.635 682.346 106.225C682.888 105.8 683.43 105.448 683.972 105.17C684.529 104.877 685.071 104.657 685.598 104.511C686.14 104.35 686.645 104.269 687.114 104.269C687.363 104.269 687.627 104.32 687.905 104.423C688.183 104.525 688.447 104.665 688.696 104.84C688.96 105.016 689.194 105.229 689.399 105.478C689.619 105.727 689.78 106.005 689.883 106.312C690.176 107.104 690.388 107.909 690.52 108.729C690.666 109.55 690.784 110.355 690.871 111.146C690.945 111.894 691.04 112.633 691.157 113.366C691.274 114.083 691.406 114.728 691.553 115.299C691.714 115.871 691.882 116.332 692.058 116.684C692.234 117.035 692.424 117.211 692.629 117.211C693.288 117.211 693.984 117.072 694.717 116.793C695.464 116.515 696.196 116.171 696.914 115.761C697.632 115.336 698.32 114.882 698.979 114.398C699.639 113.9 700.217 113.432 700.715 112.992C702.458 111.454 703.857 110.224 704.912 109.301C705.967 108.378 706.692 107.909 707.087 107.895C707.366 107.895 707.578 107.997 707.724 108.202C707.871 108.407 707.944 108.678 707.944 109.015ZM742.319 108.751C742.319 108.957 742.29 109.191 742.231 109.455C742.187 109.718 742.129 109.975 742.055 110.224C741.982 110.473 741.909 110.7 741.836 110.905C741.762 111.11 741.697 111.256 741.638 111.344C741.462 111.857 741.198 112.428 740.847 113.058C740.51 113.673 740.115 114.311 739.66 114.97C739.206 115.614 738.716 116.266 738.188 116.925C737.661 117.584 737.126 118.214 736.584 118.815C736.057 119.401 735.537 119.95 735.024 120.463C734.526 120.961 734.072 121.386 733.662 121.737C733.135 122.177 732.563 122.624 731.948 123.078C731.333 123.517 730.681 123.92 729.992 124.286C729.319 124.652 728.623 124.953 727.905 125.187C727.187 125.407 726.469 125.517 725.752 125.517C725.136 125.517 724.573 125.377 724.06 125.099C723.547 124.821 723.115 124.396 722.763 123.825C722.427 123.253 722.177 122.543 722.016 121.693C721.855 120.829 721.819 119.818 721.906 118.661C721.101 119.774 720.207 120.807 719.226 121.759C718.244 122.697 717.263 123.502 716.281 124.176C715.3 124.85 714.355 125.377 713.447 125.758C712.553 126.139 711.777 126.33 711.118 126.33C709.258 126.33 707.829 125.758 706.833 124.616C705.852 123.458 705.361 121.833 705.361 119.738C705.361 119.298 705.398 118.764 705.471 118.134C705.559 117.489 705.676 116.793 705.823 116.046C705.984 115.299 706.167 114.516 706.372 113.695C706.592 112.86 706.826 112.033 707.075 111.212C707.119 111.081 707.207 110.795 707.339 110.355C707.47 109.916 707.61 109.447 707.756 108.949C707.917 108.437 708.071 107.96 708.218 107.521C708.364 107.082 708.474 106.796 708.547 106.664C708.796 106.151 709.074 105.749 709.382 105.456C709.704 105.148 710.166 104.994 710.766 104.994C711.587 104.994 712.224 105.163 712.678 105.5C713.147 105.822 713.381 106.393 713.381 107.213C713.381 107.418 713.33 107.741 713.227 108.18C713.125 108.605 713 109.066 712.854 109.564C712.707 110.048 712.553 110.517 712.392 110.971C712.231 111.425 712.099 111.776 711.997 112.025C711.557 113.373 711.177 114.625 710.854 115.783C710.532 116.925 710.371 117.987 710.371 118.969C710.371 119.833 710.503 120.478 710.766 120.902C711.03 121.327 711.272 121.54 711.491 121.54C712.063 121.54 712.656 121.415 713.271 121.166C713.886 120.902 714.502 120.558 715.117 120.133C715.747 119.708 716.355 119.218 716.941 118.661C717.527 118.104 718.076 117.533 718.589 116.947C719.116 116.361 719.585 115.775 719.995 115.189C720.42 114.604 720.764 114.069 721.028 113.585C721.218 113.234 721.386 112.904 721.533 112.597C721.679 112.289 721.826 111.967 721.972 111.63C722.119 111.278 722.28 110.897 722.456 110.487C722.646 110.077 722.873 109.586 723.137 109.015C723.283 108.708 723.423 108.415 723.554 108.136C723.701 107.843 723.855 107.587 724.016 107.367C724.192 107.147 724.382 106.972 724.587 106.84C724.792 106.708 725.027 106.642 725.29 106.642C725.583 106.642 725.869 106.671 726.147 106.73C726.44 106.774 726.704 106.869 726.938 107.016C727.173 107.147 727.363 107.331 727.51 107.565C727.656 107.785 727.729 108.07 727.729 108.422C727.553 109.066 727.4 109.616 727.268 110.07C727.151 110.524 727.033 111 726.916 111.498C726.799 111.996 726.704 112.428 726.631 112.794C726.557 113.205 726.484 113.666 726.411 114.179C726.338 114.677 726.272 115.175 726.213 115.673C726.155 116.171 726.103 116.647 726.059 117.101C726.03 117.541 726.015 117.907 726.015 118.2C726.015 118.947 726.067 119.577 726.169 120.089C726.286 120.587 726.469 120.836 726.719 120.836C727.51 120.836 728.33 120.602 729.179 120.133C730.044 119.665 730.937 119.027 731.86 118.222C732.417 117.738 733.061 117.123 733.794 116.376C734.526 115.614 735.266 114.809 736.013 113.959C736.76 113.095 737.478 112.216 738.166 111.322C738.855 110.429 739.433 109.586 739.902 108.795C740.107 108.458 740.356 108.173 740.649 107.938C740.957 107.689 741.279 107.565 741.616 107.565C741.66 107.565 741.719 107.58 741.792 107.609C741.88 107.624 741.96 107.675 742.033 107.763C742.121 107.851 742.187 107.975 742.231 108.136C742.29 108.283 742.319 108.488 742.319 108.751ZM743.318 128.966C743.01 128.966 742.644 128.886 742.219 128.725C741.809 128.578 741.421 128.351 741.054 128.043C740.688 127.75 740.373 127.392 740.11 126.967C739.861 126.542 739.736 126.066 739.736 125.539L739.868 124.792C739.56 124.718 739.297 124.623 739.077 124.506C738.872 124.374 738.725 124.132 738.637 123.781C738.549 123.297 738.506 122.865 738.506 122.484C738.506 122.191 738.52 121.891 738.549 121.583C738.579 121.261 738.63 120.888 738.703 120.463C738.923 118.983 739.165 117.357 739.428 115.585C739.707 113.812 740.058 111.791 740.483 109.521C740.659 108.612 740.849 107.646 741.054 106.62C741.259 105.595 741.472 104.577 741.692 103.566C741.926 102.555 742.153 101.596 742.373 100.688C742.607 99.7793 742.82 98.9956 743.01 98.3364C743.303 97.3403 743.589 96.5493 743.867 95.9634C744.16 95.3628 744.46 94.9014 744.768 94.5791C745.09 94.2568 745.427 94.0444 745.779 93.9419C746.145 93.8394 746.548 93.7881 746.987 93.7881C747.192 93.7881 747.397 93.832 747.602 93.9199C747.807 93.9932 747.99 94.1323 748.152 94.3374C748.327 94.5278 748.466 94.7915 748.569 95.1284C748.686 95.4507 748.745 95.8535 748.745 96.3369C748.745 96.9961 748.657 97.7432 748.481 98.5781C748.32 99.4131 748.115 100.277 747.866 101.171C747.632 102.05 747.375 102.921 747.097 103.786C746.819 104.65 746.57 105.441 746.35 106.159C746.203 106.583 746.028 107.133 745.822 107.807C745.617 108.466 745.398 109.191 745.163 109.982C744.929 110.758 744.687 111.571 744.438 112.421C744.189 113.271 743.947 114.105 743.713 114.926C744.46 113.739 745.31 112.641 746.262 111.63C747.229 110.604 748.203 109.718 749.184 108.971C750.18 108.224 751.147 107.638 752.085 107.213C753.037 106.789 753.872 106.576 754.59 106.576C755.234 106.576 755.827 106.737 756.369 107.06C756.911 107.367 757.373 107.777 757.754 108.29C758.149 108.788 758.457 109.359 758.676 110.004C758.896 110.648 759.006 111.308 759.006 111.981C759.006 112.289 758.962 112.685 758.874 113.168C758.786 113.651 758.64 114.186 758.435 114.772C758.244 115.358 757.988 115.973 757.666 116.618C757.358 117.248 756.985 117.863 756.545 118.463C757.527 117.672 758.523 116.837 759.533 115.958C760.544 115.08 761.511 114.149 762.434 113.168C763.371 112.172 764.236 111.117 765.027 110.004C765.818 108.891 766.477 107.704 767.004 106.444C767.121 106.181 767.246 105.924 767.378 105.675C767.524 105.412 767.678 105.177 767.839 104.972C768.015 104.752 768.205 104.584 768.41 104.467C768.615 104.335 768.835 104.269 769.07 104.269C769.421 104.269 769.692 104.408 769.883 104.687C770.088 104.965 770.19 105.382 770.19 105.939C770.19 106.056 770.154 106.261 770.08 106.554C770.022 106.833 769.948 107.14 769.861 107.477C769.773 107.799 769.677 108.114 769.575 108.422C769.487 108.729 769.406 108.964 769.333 109.125C769.011 109.857 768.593 110.663 768.081 111.542C767.568 112.406 766.96 113.3 766.257 114.223C765.554 115.146 764.748 116.083 763.84 117.035C762.932 117.973 761.921 118.881 760.808 119.76C760.193 120.243 759.424 120.807 758.501 121.452C757.592 122.096 756.604 122.763 755.534 123.451C754.465 124.125 753.352 124.792 752.195 125.451C751.037 126.11 749.909 126.696 748.811 127.208C747.727 127.736 746.709 128.161 745.757 128.483C744.804 128.805 743.991 128.966 743.318 128.966ZM753.469 111.037C752.824 111.037 752.143 111.249 751.425 111.674C750.708 112.084 749.983 112.641 749.25 113.344C748.532 114.032 747.829 114.823 747.141 115.717C746.452 116.61 745.808 117.533 745.207 118.485C744.621 119.438 744.101 120.382 743.647 121.32C743.208 122.257 742.871 123.114 742.636 123.891C742.798 124.184 742.973 124.433 743.164 124.638C743.369 124.843 743.603 124.945 743.867 124.945C744.35 124.945 744.885 124.85 745.471 124.66C746.057 124.469 746.621 124.242 747.163 123.979C747.705 123.715 748.188 123.444 748.613 123.166C749.052 122.887 749.367 122.66 749.558 122.484C750.041 122.016 750.561 121.378 751.118 120.573C751.689 119.767 752.209 118.903 752.678 117.98C753.161 117.057 753.564 116.142 753.886 115.233C754.209 114.325 754.37 113.549 754.37 112.904C754.37 112.67 754.348 112.443 754.304 112.223C754.26 112.003 754.201 111.806 754.128 111.63C754.055 111.454 753.96 111.315 753.842 111.212C753.725 111.095 753.601 111.037 753.469 111.037ZM798.083 112.069C798.083 112.201 798.061 112.392 798.017 112.641C797.988 112.89 797.944 113.153 797.885 113.432C797.827 113.71 797.761 113.974 797.688 114.223C797.629 114.472 797.57 114.662 797.512 114.794C796.955 115.819 796.303 116.801 795.556 117.738C794.809 118.661 794.003 119.481 793.139 120.199C792.29 120.917 791.389 121.488 790.437 121.913C789.499 122.338 788.554 122.55 787.602 122.55C786.679 122.55 785.874 122.418 785.185 122.155C784.497 121.891 783.911 121.547 783.427 121.122C782.959 120.683 782.57 120.185 782.263 119.628C781.97 119.071 781.735 118.507 781.56 117.936C781.384 117.35 781.267 116.786 781.208 116.244C781.149 115.688 781.12 115.189 781.12 114.75C781.12 114.53 781.135 114.259 781.164 113.937C781.208 113.6 781.252 113.256 781.296 112.904C781.355 112.538 781.398 112.187 781.428 111.85C781.472 111.498 781.494 111.212 781.494 110.993C781.494 110.7 781.428 110.553 781.296 110.553C780.915 110.919 780.549 111.308 780.197 111.718C779.86 112.128 779.516 112.575 779.165 113.058C778.828 113.542 778.476 114.076 778.11 114.662C777.744 115.233 777.341 115.871 776.901 116.574C776.506 117.204 776.088 117.892 775.649 118.639C775.21 119.386 774.763 120.141 774.309 120.902C773.855 121.664 773.393 122.404 772.924 123.122C772.47 123.839 772.023 124.477 771.584 125.033C771.145 125.575 770.727 126.015 770.332 126.352C769.951 126.688 769.607 126.857 769.299 126.857C768.947 126.857 768.654 126.85 768.42 126.835C768.186 126.82 767.988 126.791 767.827 126.747C767.666 126.718 767.519 126.681 767.387 126.637C767.255 126.593 767.116 126.542 766.97 126.483C766.823 125.941 766.706 125.355 766.618 124.726C766.53 124.081 766.464 123.466 766.42 122.88C766.391 122.279 766.369 121.737 766.355 121.254C766.355 120.771 766.355 120.412 766.355 120.177C766.355 118.039 766.523 115.775 766.86 113.388C767.211 111 767.614 108.466 768.068 105.785C768.42 103.734 768.757 101.603 769.079 99.3911C769.416 97.1646 769.702 94.8574 769.936 92.4697C770.039 91.9717 770.207 91.5249 770.441 91.1294C770.69 90.7339 770.954 90.4043 771.232 90.1406C771.525 89.8623 771.804 89.6572 772.067 89.5254C772.346 89.3789 772.573 89.3057 772.749 89.3057C773.056 89.3057 773.349 89.4155 773.628 89.6353C773.906 89.8403 774.155 90.1187 774.375 90.4702C774.594 90.8218 774.763 91.2173 774.88 91.6567C775.012 92.0815 775.078 92.5137 775.078 92.9531C775.078 93.0996 775.07 93.2461 775.056 93.3926C775.041 93.5391 775.019 93.6855 774.99 93.832C774.975 93.8906 774.939 94.0737 774.88 94.3813C774.821 94.689 774.748 95.0625 774.66 95.502C774.587 95.9414 774.499 96.4175 774.397 96.9302C774.309 97.4282 774.221 97.9116 774.133 98.3804C774.06 98.8491 773.994 99.2666 773.935 99.6328C773.877 99.9844 773.833 100.226 773.803 100.358C773.789 100.49 773.737 100.79 773.649 101.259C773.576 101.713 773.481 102.277 773.364 102.951C773.261 103.625 773.144 104.372 773.012 105.192C772.88 105.998 772.741 106.825 772.595 107.675C772.463 108.51 772.331 109.337 772.199 110.158C772.067 110.963 771.943 111.696 771.826 112.355C771.723 113.014 771.635 113.571 771.562 114.025C771.503 114.479 771.467 114.772 771.452 114.904C771.438 115.065 771.408 115.285 771.364 115.563C771.335 115.841 771.298 116.149 771.254 116.486C771.211 116.808 771.159 117.152 771.101 117.519C771.042 117.87 770.991 118.2 770.947 118.507C771.079 118.361 771.306 118.061 771.628 117.606C771.95 117.138 772.316 116.596 772.727 115.98C773.137 115.365 773.569 114.713 774.023 114.025C774.492 113.322 774.931 112.663 775.341 112.047C775.752 111.432 776.11 110.897 776.418 110.443C776.74 109.975 776.953 109.66 777.055 109.499C777.26 109.191 777.524 108.854 777.846 108.488C778.183 108.122 778.535 107.763 778.901 107.411C779.282 107.045 779.655 106.701 780.022 106.378C780.402 106.042 780.739 105.763 781.032 105.543C781.677 105.045 782.277 104.745 782.834 104.643C783.391 104.525 783.918 104.467 784.416 104.467C784.65 104.467 784.878 104.54 785.097 104.687C785.317 104.833 785.515 105.053 785.69 105.346C785.866 105.624 786.005 105.976 786.108 106.4C786.225 106.825 786.284 107.323 786.284 107.895C786.284 108.202 786.254 108.576 786.196 109.015C786.137 109.44 786.071 109.909 785.998 110.421C785.925 110.919 785.859 111.439 785.8 111.981C785.742 112.523 785.712 113.043 785.712 113.542C785.712 113.893 785.734 114.318 785.778 114.816C785.837 115.299 785.947 115.768 786.108 116.222C786.269 116.662 786.489 117.042 786.767 117.365C787.06 117.672 787.434 117.826 787.888 117.826C789.089 117.826 790.305 117.401 791.535 116.552C792.78 115.702 794.106 114.384 795.512 112.597C795.908 112.084 796.289 111.725 796.655 111.52C797.021 111.315 797.336 111.212 797.6 111.212C797.79 111.212 797.915 111.278 797.973 111.41C798.046 111.527 798.083 111.747 798.083 112.069Z" fill="white"/>
<defs>
<filter id="filter0_d_118_18" x="0" y="0" width="1340" height="240" filterUnits="userSpaceOnUse" color-interpolation-filters="sRGB">
<feFlood flood-opacity="0" result="BackgroundImageFix"/>
<feColorMatrix in="SourceAlpha" type="matrix" values="0 0 0 0 0 0 0 0 0 0 0 0 0 0 0 0 0 0 127 0" result="hardAlpha"/>
<feOffset dx="5" dy="10"/>
<feGaussianBlur stdDeviation="10"/>
<feComposite in2="hardAlpha" operator="out"/>
<feColorMatrix type="matrix" values="0 0 0 0 0 0 0 0 0 0 0 0 0 0 0 0 0 0 0.5 0"/>
<feBlend mode="normal" in2="BackgroundImageFix" result="effect1_dropShadow_118_18"/>
<feBlend mode="normal" in="SourceGraphic" in2="effect1_dropShadow_118_18" result="shape"/>
</filter>
<linearGradient id="paint0_linear_118_18" x1="51.4147" y1="7.75135" x2="687.924" y2="859.66" gradientUnits="userSpaceOnUse">
<stop stop-color="#73F7FF"/>
<stop offset="0.494792" stop-color="#5A5AFF"/>
<stop offset="1" stop-color="#E338FF"/>
</linearGradient>
</defs>
</svg>
