<svg width="970" height="220" viewBox="0 0 970 220" fill="none" xmlns="http://www.w3.org/2000/svg">
<g filter="url(#filter0_d_105_13)">
<rect width="950" height="200" rx="20" fill="#FF8585"/>
<rect x="2.5" y="2.5" width="945" height="195" rx="17.5" stroke="black" stroke-width="5"/>
</g>
<path d="M326.846 77.8906C326.846 78.7207 326.748 79.7949 326.553 81.1133C326.374 82.4316 326.121 83.9779 325.796 85.752C325.438 87.6725 325.063 89.7559 324.673 92.002C324.282 94.2318 323.997 96.5104 323.818 98.8379C323.818 98.9518 323.802 99.2367 323.77 99.6924C323.737 100.148 323.696 100.726 323.647 101.426C323.599 102.126 323.542 102.923 323.477 103.818C323.428 104.697 323.379 105.633 323.33 106.626C323.281 107.603 323.241 108.604 323.208 109.629C323.175 110.654 323.159 111.655 323.159 112.632C323.159 113.185 323.053 113.682 322.842 114.121C322.646 114.544 322.378 114.902 322.036 115.195C321.694 115.505 321.296 115.732 320.84 115.879C320.384 116.042 319.904 116.123 319.399 116.123C319.106 116.123 318.781 116.058 318.423 115.928C318.081 115.814 317.756 115.635 317.446 115.391C317.153 115.163 316.901 114.87 316.689 114.512C316.478 114.154 316.372 113.73 316.372 113.242C316.372 112.917 316.405 112.461 316.47 111.875C316.551 111.289 316.641 110.63 316.738 109.897C316.852 109.165 316.974 108.384 317.104 107.554C317.235 106.724 317.349 105.902 317.446 105.088C317.56 104.274 317.65 103.501 317.715 102.769C317.796 102.036 317.837 101.401 317.837 100.864C317.837 100.571 317.812 100.311 317.764 100.083C317.715 99.8551 317.576 99.7412 317.349 99.7412C316.86 99.7412 316.201 99.7738 315.371 99.8389C314.541 99.8877 313.67 99.9528 312.759 100.034C311.864 100.099 310.985 100.164 310.122 100.229C309.276 100.278 308.584 100.303 308.047 100.303C307.933 100.303 307.648 100.319 307.192 100.352C306.753 100.368 306.224 100.392 305.605 100.425C305.003 100.457 304.352 100.506 303.652 100.571C302.952 100.62 302.293 100.669 301.675 100.718C301.056 100.767 300.519 100.824 300.063 100.889C299.624 100.938 299.347 100.986 299.233 101.035C299.152 101.117 299.054 101.45 298.94 102.036C298.843 102.622 298.737 103.306 298.623 104.087C298.525 104.852 298.436 105.633 298.354 106.431C298.273 107.212 298.216 107.847 298.184 108.335C298.184 109.36 298.118 110.361 297.988 111.338C297.874 112.314 297.663 113.185 297.354 113.95C297.061 114.715 296.67 115.326 296.182 115.781C295.693 116.253 295.083 116.489 294.351 116.489C293.895 116.489 293.48 116.375 293.105 116.147C292.747 115.92 292.438 115.627 292.178 115.269C291.917 114.91 291.714 114.528 291.567 114.121C291.421 113.698 291.348 113.307 291.348 112.949C291.348 112.607 291.38 112.209 291.445 111.753C291.527 111.297 291.616 110.841 291.714 110.386C291.812 109.93 291.901 109.515 291.982 109.141C292.064 108.75 292.113 108.465 292.129 108.286C292.34 107.293 292.552 106.146 292.764 104.844C292.992 103.542 293.211 102.134 293.423 100.62C293.651 99.0902 293.87 97.487 294.082 95.8105C294.31 94.1341 294.521 92.4333 294.717 90.708C294.928 88.9665 295.132 87.2331 295.327 85.5078C295.522 83.7826 295.701 82.1143 295.864 80.5029C295.897 80.2588 295.986 80.0065 296.133 79.7461C296.296 79.4694 296.499 79.2253 296.743 79.0137C297.004 78.7858 297.297 78.5986 297.622 78.4521C297.948 78.3057 298.289 78.2324 298.647 78.2324C298.729 78.2324 298.802 78.2406 298.867 78.2568C298.932 78.2568 299.006 78.265 299.087 78.2812C299.705 78.3952 300.202 78.5579 300.576 78.7695C300.951 78.9648 301.235 79.2171 301.431 79.5264C301.626 79.8356 301.756 80.2018 301.821 80.625C301.886 81.0482 301.919 81.5365 301.919 82.0898C301.919 83.1315 301.846 84.222 301.699 85.3613C301.553 86.4844 301.349 87.6318 301.089 88.8037C300.975 89.3408 300.861 89.9023 300.747 90.4883C300.649 91.0742 300.56 91.6602 300.479 92.2461C300.397 92.832 300.332 93.4017 300.283 93.9551C300.234 94.4922 300.21 94.9967 300.21 95.4688C300.243 95.5176 300.324 95.5583 300.454 95.5908C300.601 95.6234 300.763 95.6478 300.942 95.6641C301.121 95.6803 301.3 95.6966 301.479 95.7129C301.675 95.7129 301.838 95.7129 301.968 95.7129C302.212 95.7129 302.627 95.7129 303.213 95.7129C303.799 95.6966 304.482 95.6722 305.264 95.6396C306.045 95.6071 306.891 95.5745 307.803 95.542C308.73 95.4932 309.658 95.4362 310.586 95.3711C311.53 95.306 312.441 95.2327 313.32 95.1514C314.199 95.0537 314.997 94.9479 315.713 94.834C316.429 94.7201 317.015 94.5898 317.471 94.4434C317.943 94.2969 318.236 94.1341 318.35 93.9551C318.431 93.8411 318.537 93.5156 318.667 92.9785C318.797 92.4251 318.936 91.7334 319.082 90.9033C319.245 90.0732 319.399 89.1374 319.546 88.0957C319.709 87.0378 319.855 85.9391 319.985 84.7998C320.116 83.6605 320.221 82.513 320.303 81.3574C320.384 80.2018 320.425 79.1032 320.425 78.0615C320.425 77.8662 320.506 77.6221 320.669 77.3291C320.832 77.0361 321.051 76.7513 321.328 76.4746C321.605 76.1816 321.938 75.9375 322.329 75.7422C322.72 75.5469 323.135 75.4492 323.574 75.4492C323.867 75.4492 324.201 75.498 324.575 75.5957C324.95 75.6934 325.299 75.8398 325.625 76.0352C325.967 76.2305 326.252 76.4827 326.479 76.792C326.707 77.1012 326.829 77.4674 326.846 77.8906ZM341.191 94.0039C341.191 93.2878 341.077 92.7832 340.85 92.4902C340.638 92.1973 340.394 92.0508 340.117 92.0508C339.873 92.0508 339.588 92.1973 339.263 92.4902C338.937 92.7832 338.595 93.182 338.237 93.6865C337.896 94.1748 337.546 94.7526 337.188 95.4199C336.846 96.071 336.52 96.7627 336.211 97.4951C335.918 98.2275 335.666 98.9844 335.454 99.7656C335.259 100.531 335.12 101.271 335.039 101.987C335.511 101.597 335.934 101.247 336.309 100.938C336.699 100.612 337.065 100.27 337.407 99.9121C337.749 99.5703 338.132 99.1553 338.555 98.667C338.994 98.1624 339.409 97.6416 339.8 97.1045C340.19 96.5674 340.516 96.0303 340.776 95.4932C341.053 94.9561 341.191 94.4596 341.191 94.0039ZM360.137 96.6406C360.137 96.7708 360.088 96.9743 359.99 97.251C359.893 97.5277 359.73 97.8532 359.502 98.2275C358.867 99.2367 358.07 100.335 357.109 101.523C356.165 102.712 355.116 103.9 353.96 105.088C352.821 106.26 351.592 107.399 350.273 108.506C348.971 109.596 347.645 110.565 346.294 111.411C344.959 112.257 343.625 112.941 342.29 113.462C340.955 113.966 339.686 114.219 338.481 114.219C336.951 114.219 335.617 114.007 334.478 113.584C333.338 113.161 332.394 112.55 331.646 111.753C330.897 110.939 330.335 109.954 329.961 108.799C329.587 107.627 329.399 106.3 329.399 104.819C329.399 103.696 329.481 102.508 329.644 101.255C329.823 100.002 330.14 98.7321 330.596 97.4463C331.051 96.1442 331.662 94.8421 332.427 93.54C333.208 92.2217 334.201 90.9521 335.405 89.7314C336.333 88.7874 337.334 88.0713 338.408 87.583C339.482 87.0947 340.508 86.8506 341.484 86.8506C341.663 86.8506 341.891 86.8913 342.168 86.9727C342.445 87.0378 342.721 87.1354 342.998 87.2656C343.275 87.3958 343.543 87.5505 343.804 87.7295C344.064 87.9085 344.276 88.1038 344.438 88.3154C344.959 88.9827 345.35 89.6175 345.61 90.2197C345.871 90.8057 346.001 91.473 346.001 92.2217C346.001 93.3936 345.838 94.4515 345.513 95.3955C345.187 96.3395 344.74 97.2266 344.17 98.0566C343.617 98.8704 342.957 99.6598 342.192 100.425C341.427 101.19 340.605 101.987 339.727 102.817C339.189 103.322 338.522 103.875 337.725 104.478C336.927 105.063 336.073 105.706 335.161 106.406C335.291 106.911 335.454 107.35 335.649 107.725C335.845 108.083 336.089 108.384 336.382 108.628C336.675 108.872 337.025 109.059 337.432 109.189C337.855 109.303 338.351 109.36 338.921 109.36C339.686 109.36 340.5 109.23 341.362 108.97C342.241 108.709 343.12 108.376 343.999 107.969C344.764 107.611 345.521 107.163 346.27 106.626C347.018 106.073 347.775 105.503 348.54 104.917C349.012 104.559 349.614 104.046 350.347 103.379C351.095 102.695 351.852 101.987 352.617 101.255C353.138 100.767 353.659 100.295 354.18 99.8389C354.701 99.3669 355.254 98.846 355.84 98.2764L357.134 97.0068C358.078 96.2419 358.843 95.8594 359.429 95.8594C359.738 95.8594 359.933 95.9489 360.015 96.1279C360.096 96.307 360.137 96.4779 360.137 96.6406ZM378.413 94.4922C378.397 94.7689 378.299 95.2083 378.12 95.8105C377.941 96.3965 377.713 97.0882 377.437 97.8857C377.176 98.6833 376.867 99.5622 376.509 100.522C376.167 101.466 375.817 102.443 375.459 103.452C375.117 104.461 374.775 105.479 374.434 106.504C374.092 107.513 373.791 108.473 373.53 109.385C373.514 109.434 373.441 109.661 373.311 110.068C373.197 110.459 373.042 110.972 372.847 111.606C372.651 112.225 372.432 112.933 372.188 113.73C371.943 114.512 371.691 115.317 371.431 116.147C371.187 116.978 370.934 117.783 370.674 118.564C370.43 119.362 370.21 120.078 370.015 120.713C369.819 121.348 369.657 121.868 369.526 122.275C369.396 122.699 369.323 122.935 369.307 122.983C369.176 123.423 369.03 123.936 368.867 124.521C368.721 125.107 368.509 125.653 368.232 126.157C367.972 126.678 367.622 127.118 367.183 127.476C366.743 127.834 366.165 128.013 365.449 128.013C365.042 128.013 364.676 127.931 364.351 127.769C364.041 127.606 363.773 127.394 363.545 127.134C363.333 126.89 363.162 126.605 363.032 126.279C362.918 125.97 362.861 125.661 362.861 125.352C362.861 124.993 362.951 124.513 363.13 123.911C363.309 123.325 363.529 122.674 363.789 121.958C364.066 121.258 364.359 120.509 364.668 119.712C364.993 118.931 365.295 118.158 365.571 117.393C365.571 117.393 365.628 117.23 365.742 116.904C365.872 116.595 366.035 116.18 366.23 115.659C366.426 115.138 366.637 114.552 366.865 113.901C367.109 113.25 367.354 112.599 367.598 111.948C367.842 111.297 368.07 110.679 368.281 110.093C368.509 109.507 368.696 109.019 368.843 108.628C368.468 108.937 368.037 109.271 367.549 109.629C367.061 109.987 366.54 110.353 365.986 110.728C365.449 111.086 364.88 111.436 364.277 111.777C363.675 112.103 363.073 112.396 362.471 112.656C361.885 112.917 361.299 113.128 360.713 113.291C360.143 113.438 359.598 113.511 359.077 113.511C357.954 113.511 356.961 113.324 356.099 112.949C355.236 112.575 354.512 112.103 353.926 111.533C353.34 110.947 352.892 110.312 352.583 109.629C352.29 108.929 352.144 108.254 352.144 107.603C352.144 107.114 352.192 106.512 352.29 105.796C352.404 105.08 352.55 104.315 352.729 103.501C352.925 102.671 353.153 101.816 353.413 100.938C353.674 100.042 353.95 99.1797 354.243 98.3496C354.536 97.5195 354.837 96.7546 355.146 96.0547C355.472 95.3385 355.798 94.7445 356.123 94.2725C356.628 93.54 357.108 93.0273 357.563 92.7344C358.035 92.4414 358.54 92.2949 359.077 92.2949C359.582 92.2949 359.989 92.3682 360.298 92.5146C360.623 92.6611 360.876 92.8646 361.055 93.125C361.234 93.3854 361.356 93.6784 361.421 94.0039C361.486 94.3294 361.519 94.6794 361.519 95.0537C361.519 95.2816 361.421 95.6071 361.226 96.0303C361.047 96.4535 360.819 96.958 360.542 97.5439C360.298 98.0485 360.013 98.6507 359.688 99.3506C359.362 100.034 359.061 100.783 358.784 101.597C358.507 102.394 358.271 103.232 358.076 104.111C357.881 104.99 357.783 105.877 357.783 106.772C357.783 107.082 357.865 107.342 358.027 107.554C358.19 107.765 358.377 107.936 358.589 108.066C358.817 108.18 359.045 108.27 359.272 108.335C359.517 108.384 359.712 108.408 359.858 108.408C360.444 108.408 361.055 108.294 361.689 108.066C362.324 107.822 362.951 107.529 363.569 107.188C364.204 106.829 364.814 106.455 365.4 106.064C366.003 105.658 366.572 105.291 367.109 104.966C367.549 104.689 368.037 104.339 368.574 103.916C369.111 103.477 369.575 102.988 369.966 102.451C370.145 102.207 370.356 101.776 370.601 101.157C370.861 100.522 371.13 99.8063 371.406 99.0088C371.683 98.2113 371.951 97.3975 372.212 96.5674C372.489 95.721 372.725 94.9561 372.92 94.2725C373.066 93.7842 373.254 93.361 373.481 93.0029C373.726 92.6286 373.978 92.3275 374.238 92.0996C374.515 91.8555 374.792 91.6764 375.068 91.5625C375.361 91.4323 375.63 91.3672 375.874 91.3672C376.427 91.3672 376.867 91.416 377.192 91.5137C377.534 91.6113 377.795 91.7822 377.974 92.0264C378.153 92.2542 378.267 92.5716 378.315 92.9785C378.381 93.3691 378.413 93.8574 378.413 94.4434V94.4922ZM393.125 112.241C393.125 112.42 393.035 112.754 392.856 113.242C392.677 113.714 392.466 114.219 392.222 114.756C391.978 115.293 391.717 115.806 391.44 116.294C391.18 116.799 390.952 117.148 390.757 117.344C390.513 117.588 390.236 117.848 389.927 118.125C389.634 118.402 389.292 118.662 388.901 118.906C388.527 119.167 388.112 119.395 387.656 119.59C387.217 119.785 386.737 119.932 386.216 120.029C386.004 120.062 385.841 120.094 385.728 120.127C385.614 120.176 385.508 120.216 385.41 120.249C384.775 120.526 384.165 120.737 383.579 120.884C383.009 121.047 382.489 121.128 382.017 121.128C380.942 121.128 380.405 120.534 380.405 119.346C380.405 118.923 380.592 118.524 380.967 118.149C382.09 117.873 383.083 117.515 383.945 117.075C384.824 116.636 385.549 116.147 386.118 115.61C386.248 115.464 386.387 115.244 386.533 114.951C386.68 114.658 386.818 114.357 386.948 114.048C387.078 113.722 387.184 113.438 387.266 113.193C387.363 112.933 387.412 112.77 387.412 112.705C387.412 112.526 387.404 112.314 387.388 112.07C387.388 111.826 387.371 111.574 387.339 111.313C387.306 111.037 387.257 110.776 387.192 110.532C387.127 110.272 387.038 110.06 386.924 109.897C386.615 109.425 386.46 109.002 386.46 108.628C386.46 108.433 386.501 108.205 386.582 107.944C386.68 107.668 386.802 107.407 386.948 107.163C387.111 106.903 387.306 106.691 387.534 106.528C387.778 106.349 388.047 106.26 388.34 106.26C388.633 106.26 388.983 106.317 389.39 106.431C389.813 106.545 390.212 106.683 390.586 106.846C390.977 107.008 391.318 107.188 391.611 107.383C391.904 107.562 392.075 107.733 392.124 107.896C392.791 109.67 393.125 111.118 393.125 112.241ZM425.405 79.9902C425.405 80.1367 425.373 80.3646 425.308 80.6738C425.243 80.9831 425.153 81.3167 425.039 81.6748C424.941 82.0329 424.827 82.391 424.697 82.749C424.567 83.0908 424.437 83.3838 424.307 83.6279C424.193 83.8883 423.981 84.1406 423.672 84.3848C423.363 84.6126 423.029 84.8079 422.671 84.9707C422.313 85.1335 421.955 85.2637 421.597 85.3613C421.239 85.459 420.938 85.5078 420.693 85.5078C420.368 85.5078 420.107 85.4671 419.912 85.3857C419.733 85.3044 419.595 85.1904 419.497 85.0439C419.399 84.8975 419.334 84.7347 419.302 84.5557C419.285 84.3604 419.269 84.165 419.253 83.9697C419.253 83.9372 419.245 83.8639 419.229 83.75C419.212 83.6361 419.163 83.3757 419.082 82.9688C419.033 82.8223 418.976 82.6921 418.911 82.5781C418.862 82.4642 418.813 82.3421 418.765 82.2119C418.716 82.0817 418.667 81.9352 418.618 81.7725C418.586 81.5934 418.569 81.3818 418.569 81.1377C418.569 80.8285 418.667 80.4948 418.862 80.1367C419.074 79.7624 419.351 79.4206 419.692 79.1113C420.05 78.7858 420.465 78.5173 420.938 78.3057C421.41 78.0941 421.922 77.9883 422.476 77.9883C422.638 77.9883 422.882 78.0534 423.208 78.1836C423.534 78.2975 423.859 78.4521 424.185 78.6475C424.51 78.8428 424.795 79.0625 425.039 79.3066C425.283 79.5345 425.405 79.7624 425.405 79.9902ZM432.852 107.065C432.852 107.326 432.762 107.668 432.583 108.091C432.404 108.498 432.144 108.945 431.802 109.434C431.46 109.922 431.037 110.435 430.532 110.972C430.028 111.493 429.45 111.997 428.799 112.485C428.441 112.746 427.993 113.047 427.456 113.389C426.935 113.73 426.325 114.056 425.625 114.365C424.925 114.658 424.144 114.902 423.281 115.098C422.419 115.309 421.475 115.415 420.449 115.415C419.163 115.415 418.057 115.171 417.129 114.683C416.217 114.194 415.469 113.56 414.883 112.778C414.297 111.981 413.866 111.086 413.589 110.093C413.312 109.084 413.174 108.066 413.174 107.041C413.174 106.325 413.215 105.576 413.296 104.795C413.377 103.997 413.475 103.216 413.589 102.451C413.703 101.686 413.833 100.946 413.979 100.229C414.126 99.4971 414.256 98.8379 414.37 98.252C414.484 97.666 414.582 97.1696 414.663 96.7627C414.744 96.3395 414.785 96.0465 414.785 95.8838C414.785 95.5094 414.826 95.1025 414.907 94.6631C415.005 94.2236 415.16 93.8167 415.371 93.4424C415.583 93.0518 415.868 92.7262 416.226 92.4658C416.584 92.2054 417.039 92.0752 417.593 92.0752C418.179 92.0752 418.683 92.1566 419.106 92.3193C419.546 92.4658 419.896 92.653 420.156 92.8809C420.433 93.1087 420.636 93.3529 420.767 93.6133C420.897 93.8737 420.962 94.1178 420.962 94.3457C420.962 94.6875 420.889 95.127 420.742 95.6641C420.612 96.2012 420.441 96.7871 420.229 97.4219C420.067 97.9427 419.888 98.5124 419.692 99.1309C419.513 99.7493 419.342 100.4 419.18 101.084C419.017 101.768 418.887 102.476 418.789 103.208C418.691 103.94 418.643 104.689 418.643 105.454C418.643 106.007 418.667 106.593 418.716 107.212C418.765 107.814 418.87 108.376 419.033 108.896C419.196 109.401 419.432 109.824 419.741 110.166C420.067 110.492 420.498 110.654 421.035 110.654C421.589 110.654 422.158 110.589 422.744 110.459C423.346 110.329 423.932 110.166 424.502 109.971C425.088 109.759 425.633 109.515 426.138 109.238C426.659 108.962 427.114 108.677 427.505 108.384C428.351 107.749 429.1 107.188 429.751 106.699C430.402 106.211 431.004 105.967 431.558 105.967C432.03 105.967 432.363 106.097 432.559 106.357C432.754 106.602 432.852 106.838 432.852 107.065ZM437.334 82.041C437.318 82.4967 437.253 83.0501 437.139 83.7012C437.025 84.3522 436.854 85.1172 436.626 85.9961V85.9717C436.203 87.6481 435.609 89.1455 434.844 90.4639V90.4395C434.437 91.2044 433.965 91.7741 433.428 92.1484C432.891 92.5065 432.313 92.6855 431.694 92.6855C431.336 92.6855 430.994 92.6286 430.669 92.5146C430.343 92.4007 430.059 92.2461 429.814 92.0508C429.57 91.8555 429.375 91.6276 429.229 91.3672C429.082 91.0905 429.009 90.7975 429.009 90.4883C429.009 90.293 429.049 90.0732 429.131 89.8291C429.212 89.585 429.31 89.349 429.424 89.1211C429.554 88.877 429.692 88.6572 429.839 88.4619C429.985 88.2503 430.132 88.0794 430.278 87.9492C430.636 87.6237 430.938 87.3063 431.182 86.9971C431.426 86.6715 431.621 86.3298 431.768 85.9717C431.93 85.6136 432.044 85.2311 432.109 84.8242C432.174 84.401 432.207 83.9372 432.207 83.4326C432.207 83.0094 432.085 82.6676 431.841 82.4072C431.662 82.1794 431.466 81.9515 431.255 81.7236C431.043 81.4958 430.807 81.2679 430.547 81.04C429.766 80.3564 429.375 79.8763 429.375 79.5996L429.204 78.3789C429.204 78.1022 429.22 77.8581 429.253 77.6465C429.285 77.4349 429.31 77.2884 429.326 77.207C429.505 76.735 430.026 76.32 430.889 75.9619C431.214 75.7992 431.499 75.6934 431.743 75.6445C432.004 75.5794 432.24 75.5469 432.451 75.5469C432.923 75.5469 433.411 75.7747 433.916 76.2305C434.062 76.3607 434.225 76.5153 434.404 76.6943C434.583 76.8571 434.746 77.028 434.893 77.207C435.348 77.6628 435.658 77.9883 435.82 78.1836C435.999 78.3626 436.105 78.4684 436.138 78.501C436.366 78.8428 436.561 79.1602 436.724 79.4531C436.886 79.7461 436.992 80.0065 437.041 80.2344C437.139 80.4622 437.212 80.7389 437.261 81.0645C437.31 81.3737 437.334 81.6911 437.334 82.0166V82.041ZM490.669 102.598C490.669 102.744 490.62 102.98 490.522 103.306C490.441 103.631 490.319 104.006 490.156 104.429C490.01 104.836 489.831 105.275 489.619 105.747C489.408 106.219 489.172 106.667 488.911 107.09C488.407 107.92 487.878 108.685 487.324 109.385C486.771 110.068 486.169 110.662 485.518 111.167C484.867 111.655 484.15 112.038 483.369 112.314C482.604 112.575 481.758 112.705 480.83 112.705C480.033 112.705 479.268 112.51 478.535 112.119C477.819 111.729 477.16 111.191 476.558 110.508C475.955 109.808 475.426 108.978 474.971 108.018C474.515 107.041 474.157 105.967 473.896 104.795C473.734 104.062 473.595 103.338 473.481 102.622C473.384 101.906 473.294 101.263 473.213 100.693C473.132 100.124 473.05 99.6598 472.969 99.3018C472.887 98.9437 472.798 98.7646 472.7 98.7646C472.505 98.7646 472.261 98.9111 471.968 99.2041C471.691 99.4808 471.357 99.9284 470.967 100.547C470.576 101.149 470.12 101.93 469.6 102.891C469.095 103.851 468.517 104.998 467.866 106.333C466.759 108.595 465.758 110.296 464.863 111.436C463.968 112.559 463.049 113.12 462.104 113.12C461.746 113.12 461.396 113.055 461.055 112.925C460.713 112.778 460.404 112.599 460.127 112.388C459.85 112.16 459.606 111.899 459.395 111.606C459.199 111.313 459.045 111.012 458.931 110.703C458.703 110.085 458.483 109.336 458.271 108.457C458.06 107.562 457.889 106.52 457.759 105.332C457.661 104.453 457.563 103.631 457.466 102.866C457.384 102.085 457.303 101.41 457.222 100.84C457.14 100.27 457.059 99.8307 456.978 99.5215C456.896 99.196 456.815 99.0332 456.733 99.0332C456.587 99.0332 456.351 99.196 456.025 99.5215C455.716 99.8307 455.35 100.238 454.927 100.742C454.52 101.23 454.08 101.792 453.608 102.427C453.136 103.062 452.664 103.713 452.192 104.38C451.737 105.031 451.305 105.674 450.898 106.309C450.492 106.927 450.15 107.48 449.873 107.969C449.678 108.327 449.442 108.742 449.165 109.214C448.888 109.686 448.604 110.166 448.311 110.654C448.018 111.143 447.725 111.615 447.432 112.07C447.155 112.526 446.903 112.917 446.675 113.242C446.528 113.454 446.284 113.641 445.942 113.804C445.601 113.966 445.234 114.105 444.844 114.219C444.453 114.316 444.071 114.398 443.696 114.463C443.338 114.512 443.062 114.536 442.866 114.536C442.443 114.536 442.109 114.39 441.865 114.097C441.621 113.804 441.434 113.397 441.304 112.876C441.174 112.339 441.084 111.712 441.035 110.996C441.003 110.264 440.986 109.466 440.986 108.604C440.986 107.936 441.019 107.196 441.084 106.382C441.165 105.552 441.263 104.689 441.377 103.794C441.507 102.899 441.646 102.004 441.792 101.108C441.938 100.213 442.085 99.3669 442.231 98.5693C442.313 98.0973 442.386 97.609 442.451 97.1045C442.533 96.5999 442.606 96.1198 442.671 95.6641C442.736 95.1921 442.785 94.7607 442.817 94.3701C442.85 93.9795 442.866 93.6621 442.866 93.418C442.866 92.8483 443.062 92.3682 443.452 91.9775C443.843 91.5869 444.38 91.3916 445.063 91.3916C447.244 91.3916 448.335 92.6937 448.335 95.2979C448.335 95.9163 448.262 96.6732 448.115 97.5684C447.969 98.4473 447.79 99.3669 447.578 100.327C447.367 101.287 447.139 102.231 446.895 103.159C446.667 104.087 446.455 104.901 446.26 105.601C446.895 104.575 447.537 103.558 448.188 102.549C448.84 101.523 449.474 100.555 450.093 99.6436C450.711 98.7321 451.297 97.902 451.851 97.1533C452.42 96.3883 452.933 95.7454 453.389 95.2246C454.854 93.5807 456.506 92.7588 458.345 92.7588C458.979 92.7588 459.508 92.9134 459.932 93.2227C460.371 93.5319 460.729 93.9551 461.006 94.4922C461.299 95.0293 461.535 95.6559 461.714 96.3721C461.893 97.0719 462.039 97.8206 462.153 98.6182C462.284 99.4157 462.389 100.229 462.471 101.06C462.552 101.89 462.642 102.695 462.739 103.477C462.788 103.851 462.829 104.266 462.861 104.722C462.894 105.161 462.959 105.535 463.057 105.845C463.122 105.747 463.228 105.552 463.374 105.259C463.537 104.95 463.716 104.583 463.911 104.16C464.123 103.721 464.342 103.249 464.57 102.744C464.798 102.24 465.018 101.751 465.229 101.279C465.457 100.791 465.669 100.343 465.864 99.9365C466.06 99.5296 466.214 99.2122 466.328 98.9844C466.93 97.8451 467.508 96.8848 468.062 96.1035C468.631 95.306 469.201 94.6631 469.771 94.1748C470.34 93.6702 470.926 93.304 471.528 93.0762C472.131 92.8483 472.782 92.7344 473.481 92.7344C474.214 92.7344 474.824 92.8646 475.312 93.125C475.817 93.3854 476.232 93.7354 476.558 94.1748C476.883 94.598 477.144 95.0863 477.339 95.6396C477.55 96.1768 477.738 96.7301 477.9 97.2998C478.014 97.6904 478.128 98.2194 478.242 98.8867C478.372 99.554 478.494 100.229 478.608 100.913C478.739 101.58 478.853 102.199 478.95 102.769C479.048 103.322 479.129 103.688 479.194 103.867C479.373 104.388 479.561 104.876 479.756 105.332C479.951 105.788 480.155 106.187 480.366 106.528C480.594 106.854 480.83 107.114 481.074 107.31C481.318 107.505 481.579 107.603 481.855 107.603C482.783 107.603 483.817 107.139 484.956 106.211C486.112 105.283 487.324 103.916 488.594 102.109C488.757 101.882 488.952 101.719 489.18 101.621C489.424 101.507 489.66 101.45 489.888 101.45C490.116 101.45 490.303 101.572 490.449 101.816C490.596 102.061 490.669 102.321 490.669 102.598ZM535.791 84.5312C535.791 84.7591 535.758 85.0358 535.693 85.3613C535.645 85.6868 535.563 86.0286 535.449 86.3867C535.335 86.7285 535.205 87.0622 535.059 87.3877C534.928 87.6969 534.774 87.9492 534.595 88.1445H534.619C534.098 88.763 532.869 89.0723 530.933 89.0723C530.933 88.3724 530.9 87.7702 530.835 87.2656C530.786 86.7448 530.697 86.3298 530.566 86.0205C530.452 85.7601 530.249 85.5404 529.956 85.3613C529.663 85.1823 529.329 85.0358 528.955 84.9219C528.597 84.8079 528.231 84.7266 527.856 84.6777C527.482 84.6126 527.157 84.5801 526.88 84.5801C526.18 84.5801 525.496 84.5964 524.829 84.6289C524.162 84.6615 523.503 84.7266 522.852 84.8242C522.217 84.9219 521.566 85.0602 520.898 85.2393C520.247 85.4183 519.58 85.6462 518.896 85.9229C518.408 86.1182 517.887 86.3623 517.334 86.6553C516.797 86.9482 516.292 87.2819 515.82 87.6562C515.348 88.0143 514.941 88.4131 514.6 88.8525C514.274 89.2757 514.071 89.7314 513.989 90.2197L514.014 90.1709C514.014 90.5615 514.144 91.001 514.404 91.4893C514.665 91.9613 515.015 92.4333 515.454 92.9053C515.91 93.361 516.431 93.7842 517.017 94.1748C517.603 94.5492 518.221 94.8258 518.872 95.0049C518.921 95.0212 519.059 95.07 519.287 95.1514C519.515 95.2327 519.792 95.3304 520.117 95.4443C520.443 95.542 520.785 95.6559 521.143 95.7861C521.517 95.9163 521.859 96.0384 522.168 96.1523C522.493 96.25 522.762 96.3395 522.974 96.4209C523.201 96.486 523.332 96.5267 523.364 96.543C527.14 97.5033 529.94 98.6589 531.763 100.01C533.586 101.361 534.497 103.021 534.497 104.99C534.497 105.625 534.359 106.26 534.082 106.895C533.805 107.513 533.455 108.107 533.032 108.677C532.609 109.246 532.145 109.775 531.641 110.264C531.152 110.736 530.688 111.134 530.249 111.46L530.273 111.436C529.801 111.81 529.264 112.192 528.662 112.583C528.076 112.974 527.441 113.356 526.758 113.73C526.074 114.105 525.366 114.455 524.634 114.78C523.901 115.106 523.153 115.391 522.388 115.635C521.672 115.863 520.915 116.074 520.117 116.27C519.336 116.481 518.555 116.66 517.773 116.807C516.992 116.953 516.235 117.067 515.503 117.148C514.787 117.23 514.136 117.271 513.55 117.271C513.241 117.271 512.858 117.23 512.402 117.148C511.963 117.083 511.491 116.986 510.986 116.855C510.498 116.725 510.002 116.571 509.497 116.392C509.009 116.213 508.569 116.009 508.179 115.781C507.788 115.553 507.471 115.309 507.227 115.049C506.982 114.788 506.86 114.512 506.86 114.219C506.86 113.958 506.909 113.641 507.007 113.267C507.104 112.892 507.243 112.534 507.422 112.192C507.617 111.834 507.837 111.533 508.081 111.289C508.341 111.029 508.618 110.898 508.911 110.898C509.318 110.898 509.701 110.947 510.059 111.045C510.417 111.143 510.815 111.257 511.255 111.387C511.711 111.501 512.231 111.615 512.817 111.729C513.42 111.826 514.16 111.875 515.039 111.875C515.918 111.875 516.829 111.785 517.773 111.606C518.734 111.411 519.678 111.159 520.605 110.85C521.533 110.524 522.42 110.158 523.267 109.751C524.113 109.344 524.878 108.921 525.562 108.481C525.854 108.286 526.172 108.066 526.514 107.822C526.872 107.562 527.197 107.285 527.49 106.992C527.799 106.683 528.052 106.366 528.247 106.04C528.459 105.715 528.564 105.381 528.564 105.039C528.564 104.648 528.271 104.274 527.686 103.916V103.94C526.823 103.42 525.968 103.021 525.122 102.744C524.276 102.467 523.535 102.24 522.9 102.061C521.11 101.605 518.929 100.881 516.357 99.8877H516.382C515.308 99.4645 514.266 98.9193 513.257 98.252C512.248 97.5846 511.377 96.8848 510.645 96.1523C509.017 94.3457 508.203 92.2624 508.203 89.9023C508.203 88.9746 508.464 88.0713 508.984 87.1924C509.505 86.3135 510.213 85.4915 511.108 84.7266C512.004 83.9453 513.037 83.2292 514.209 82.5781C515.397 81.9271 516.659 81.3737 517.993 80.918C519.328 80.446 520.687 80.0798 522.07 79.8193C523.47 79.5589 524.821 79.4287 526.123 79.4287C526.53 79.4287 527.035 79.4613 527.637 79.5264C528.255 79.5752 528.882 79.6566 529.517 79.7705C530.168 79.8682 530.786 79.9984 531.372 80.1611C531.958 80.3076 532.422 80.4785 532.764 80.6738H532.739C533.683 81.1784 534.424 81.7806 534.961 82.4805C535.514 83.1803 535.791 83.8639 535.791 84.5312ZM581.606 96.1279C581.606 96.3721 581.484 96.722 581.24 97.1777C580.996 97.6335 580.679 98.1299 580.288 98.667C579.897 99.2041 579.458 99.7656 578.97 100.352C578.481 100.921 578.001 101.45 577.529 101.938C576.634 102.85 575.674 103.81 574.648 104.819C573.639 105.812 572.565 106.724 571.426 107.554C570.303 108.384 569.123 109.067 567.886 109.604C566.649 110.142 565.363 110.41 564.028 110.41C562.97 110.41 562.059 110.215 561.294 109.824C560.529 109.417 559.886 108.815 559.365 108.018C558.844 107.22 558.429 106.235 558.12 105.063C557.811 103.892 557.583 102.533 557.437 100.986C557.388 100.384 557.331 99.8389 557.266 99.3506C557.217 98.846 557.16 98.4147 557.095 98.0566C557.03 97.6986 556.948 97.4219 556.851 97.2266C556.769 97.0312 556.663 96.9336 556.533 96.9336C556.077 96.9336 555.467 97.2835 554.702 97.9834C553.937 98.6833 553.05 99.6436 552.041 100.864C551.048 102.085 549.958 103.534 548.77 105.21C547.598 106.87 546.369 108.677 545.083 110.63C544.969 110.793 544.749 111.053 544.424 111.411C544.115 111.753 543.765 112.103 543.374 112.461C543 112.803 542.617 113.104 542.227 113.364C541.836 113.625 541.519 113.755 541.274 113.755C540.851 113.755 540.428 113.714 540.005 113.633C539.598 113.551 539.232 113.421 538.906 113.242C538.597 113.063 538.345 112.835 538.149 112.559C537.954 112.266 537.856 111.908 537.856 111.484C537.856 111.273 537.889 110.955 537.954 110.532C538.019 110.093 538.092 109.637 538.174 109.165C538.271 108.677 538.361 108.205 538.442 107.749C538.54 107.293 538.621 106.943 538.687 106.699C538.719 106.553 538.776 106.243 538.857 105.771C538.939 105.299 539.036 104.722 539.15 104.038C539.264 103.338 539.395 102.565 539.541 101.719C539.688 100.872 539.834 100.01 539.98 99.1309C540.127 98.252 540.273 97.3812 540.42 96.5186C540.566 95.6396 540.697 94.834 540.811 94.1016C540.941 93.3691 541.047 92.7344 541.128 92.1973C541.226 91.6439 541.291 91.2451 541.323 91.001C541.34 90.8545 541.388 90.5127 541.47 89.9756C541.551 89.4222 541.641 88.7712 541.738 88.0225C541.836 87.2738 541.942 86.4762 542.056 85.6299C542.186 84.7835 542.3 83.9941 542.397 83.2617C542.495 82.513 542.576 81.862 542.642 81.3086C542.723 80.7552 542.772 80.4053 542.788 80.2588C542.837 79.8193 542.951 79.3392 543.13 78.8184C543.309 78.2975 543.537 77.8174 543.813 77.3779C544.09 76.9222 544.399 76.5397 544.741 76.2305C545.099 75.9212 545.474 75.7666 545.864 75.7666C546.206 75.7666 546.572 75.8398 546.963 75.9863C547.37 76.1165 547.736 76.3281 548.062 76.6211C548.403 76.9141 548.688 77.2884 548.916 77.7441C549.144 78.1999 549.258 78.7451 549.258 79.3799C549.258 79.8356 549.217 80.389 549.136 81.04C549.054 81.6911 548.949 82.3828 548.818 83.1152C548.704 83.8477 548.566 84.5964 548.403 85.3613C548.257 86.1263 548.11 86.8587 547.964 87.5586C547.817 88.2422 547.671 88.877 547.524 89.4629C547.394 90.0326 547.288 90.4883 547.207 90.8301C547.077 91.3835 546.938 91.9531 546.792 92.5391C546.646 93.1087 546.515 93.6296 546.401 94.1016C546.336 94.362 546.239 94.7363 546.108 95.2246C545.978 95.7129 545.832 96.2744 545.669 96.9092C545.506 97.5439 545.327 98.2275 545.132 98.96C544.953 99.6924 544.766 100.433 544.57 101.182C544.391 101.914 544.212 102.63 544.033 103.33C543.87 104.03 543.732 104.665 543.618 105.234C544.204 104.323 544.839 103.363 545.522 102.354C546.222 101.328 546.922 100.327 547.622 99.3506C548.322 98.374 548.997 97.4707 549.648 96.6406C550.316 95.7943 550.91 95.1025 551.431 94.5654C551.984 93.9958 552.562 93.4831 553.164 93.0273C553.766 92.5553 554.368 92.1647 554.971 91.8555C555.589 91.5299 556.191 91.2858 556.777 91.123C557.38 90.944 557.941 90.8545 558.462 90.8545C558.739 90.8545 559.032 90.9115 559.341 91.0254C559.65 91.1393 559.943 91.2939 560.22 91.4893C560.513 91.6846 560.773 91.9206 561.001 92.1973C561.245 92.474 561.424 92.7832 561.538 93.125C561.864 94.0039 562.1 94.8991 562.246 95.8105C562.409 96.722 562.539 97.6172 562.637 98.4961C562.718 99.3262 562.824 100.148 562.954 100.962C563.084 101.759 563.231 102.476 563.394 103.11C563.573 103.745 563.76 104.258 563.955 104.648C564.15 105.039 564.362 105.234 564.59 105.234C565.322 105.234 566.095 105.08 566.909 104.771C567.739 104.461 568.553 104.079 569.351 103.623C570.148 103.151 570.913 102.646 571.646 102.109C572.378 101.556 573.021 101.035 573.574 100.547C575.511 98.8379 577.065 97.4707 578.237 96.4453C579.409 95.4199 580.215 94.8991 580.654 94.8828C580.964 94.8828 581.2 94.9967 581.362 95.2246C581.525 95.4525 581.606 95.7536 581.606 96.1279ZM615.801 95.835C615.801 96.0628 615.768 96.3232 615.703 96.6162C615.654 96.9092 615.589 97.194 615.508 97.4707C615.426 97.7474 615.345 97.9997 615.264 98.2275C615.182 98.4554 615.109 98.6182 615.044 98.7158C614.849 99.2855 614.556 99.9202 614.165 100.62C613.791 101.304 613.351 102.012 612.847 102.744C612.342 103.46 611.797 104.185 611.211 104.917C610.625 105.649 610.031 106.349 609.429 107.017C608.843 107.668 608.265 108.278 607.695 108.848C607.142 109.401 606.637 109.873 606.182 110.264C605.596 110.752 604.961 111.248 604.277 111.753C603.594 112.241 602.869 112.689 602.104 113.096C601.356 113.503 600.583 113.836 599.785 114.097C598.988 114.341 598.19 114.463 597.393 114.463C596.709 114.463 596.082 114.308 595.513 113.999C594.943 113.69 594.463 113.218 594.072 112.583C593.698 111.948 593.421 111.159 593.242 110.215C593.063 109.255 593.022 108.132 593.12 106.846C592.225 108.083 591.232 109.23 590.142 110.288C589.051 111.33 587.961 112.225 586.87 112.974C585.78 113.722 584.73 114.308 583.721 114.731C582.728 115.155 581.865 115.366 581.133 115.366C579.066 115.366 577.479 114.731 576.372 113.462C575.282 112.176 574.736 110.369 574.736 108.042C574.736 107.554 574.777 106.96 574.858 106.26C574.956 105.544 575.086 104.771 575.249 103.94C575.428 103.11 575.632 102.24 575.859 101.328C576.104 100.4 576.364 99.4808 576.641 98.5693C576.689 98.4229 576.787 98.1055 576.934 97.6172C577.08 97.1289 577.235 96.6081 577.397 96.0547C577.576 95.485 577.747 94.9561 577.91 94.4678C578.073 93.9795 578.195 93.6621 578.276 93.5156C578.553 92.946 578.862 92.4984 579.204 92.1729C579.562 91.8311 580.075 91.6602 580.742 91.6602C581.654 91.6602 582.362 91.8473 582.866 92.2217C583.387 92.5798 583.647 93.2145 583.647 94.126C583.647 94.3538 583.59 94.7119 583.477 95.2002C583.363 95.6722 583.224 96.1849 583.062 96.7383C582.899 97.2754 582.728 97.7962 582.549 98.3008C582.37 98.8053 582.223 99.196 582.109 99.4727C581.621 100.97 581.198 102.362 580.84 103.647C580.482 104.917 580.303 106.097 580.303 107.188C580.303 108.148 580.449 108.864 580.742 109.336C581.035 109.808 581.304 110.044 581.548 110.044C582.183 110.044 582.842 109.906 583.525 109.629C584.209 109.336 584.893 108.953 585.576 108.481C586.276 108.009 586.951 107.464 587.603 106.846C588.254 106.227 588.864 105.592 589.434 104.941C590.02 104.29 590.54 103.639 590.996 102.988C591.468 102.337 591.851 101.743 592.144 101.206C592.355 100.815 592.542 100.449 592.705 100.107C592.868 99.7656 593.031 99.4076 593.193 99.0332C593.356 98.6426 593.535 98.2194 593.73 97.7637C593.942 97.3079 594.194 96.7627 594.487 96.1279C594.65 95.7861 594.805 95.4606 594.951 95.1514C595.114 94.8258 595.285 94.541 595.464 94.2969C595.659 94.0527 595.871 93.8574 596.099 93.7109C596.326 93.5645 596.587 93.4912 596.88 93.4912C597.205 93.4912 597.523 93.5238 597.832 93.5889C598.158 93.6377 598.451 93.7435 598.711 93.9062C598.971 94.0527 599.183 94.2562 599.346 94.5166C599.508 94.7607 599.59 95.0781 599.59 95.4688C599.395 96.1849 599.224 96.7952 599.077 97.2998C598.947 97.8044 598.817 98.3333 598.687 98.8867C598.556 99.4401 598.451 99.9202 598.369 100.327C598.288 100.783 598.206 101.296 598.125 101.865C598.044 102.419 597.97 102.972 597.905 103.525C597.84 104.079 597.783 104.608 597.734 105.112C597.702 105.601 597.686 106.007 597.686 106.333C597.686 107.163 597.743 107.863 597.856 108.433C597.987 108.986 598.19 109.263 598.467 109.263C599.346 109.263 600.257 109.002 601.201 108.481C602.161 107.961 603.154 107.253 604.18 106.357C604.798 105.82 605.514 105.137 606.328 104.307C607.142 103.46 607.964 102.565 608.794 101.621C609.624 100.661 610.422 99.6842 611.187 98.6914C611.951 97.6986 612.594 96.7627 613.115 95.8838C613.343 95.5094 613.62 95.1921 613.945 94.9316C614.287 94.6549 614.645 94.5166 615.02 94.5166C615.068 94.5166 615.133 94.5329 615.215 94.5654C615.312 94.5817 615.402 94.6387 615.483 94.7363C615.581 94.834 615.654 94.9723 615.703 95.1514C615.768 95.3141 615.801 95.542 615.801 95.835ZM612.91 118.296C612.568 118.296 612.161 118.206 611.689 118.027C611.234 117.865 610.802 117.612 610.396 117.271C609.989 116.945 609.639 116.546 609.346 116.074C609.069 115.602 608.931 115.073 608.931 114.487L609.077 113.657C608.735 113.576 608.442 113.47 608.198 113.34C607.97 113.193 607.808 112.925 607.71 112.534C607.612 111.997 607.563 111.517 607.563 111.094C607.563 110.768 607.58 110.435 607.612 110.093C607.645 109.735 607.702 109.32 607.783 108.848C608.027 107.204 608.296 105.397 608.589 103.428C608.898 101.458 609.289 99.2122 609.761 96.6895C609.956 95.6803 610.168 94.6061 610.396 93.4668C610.623 92.3275 610.859 91.1963 611.104 90.0732C611.364 88.9502 611.616 87.8841 611.86 86.875C612.121 85.8659 612.357 84.9951 612.568 84.2627C612.894 83.1559 613.211 82.277 613.521 81.626C613.846 80.9587 614.18 80.446 614.521 80.0879C614.88 79.7298 615.254 79.4938 615.645 79.3799C616.051 79.266 616.499 79.209 616.987 79.209C617.215 79.209 617.443 79.2578 617.671 79.3555C617.899 79.4368 618.102 79.5915 618.281 79.8193C618.477 80.0309 618.631 80.3239 618.745 80.6982C618.875 81.0563 618.94 81.5039 618.94 82.041C618.94 82.7734 618.843 83.6035 618.647 84.5312C618.468 85.459 618.241 86.4193 617.964 87.4121C617.703 88.3887 617.419 89.3571 617.109 90.3174C616.8 91.2777 616.523 92.1566 616.279 92.9541C616.117 93.4261 615.921 94.0365 615.693 94.7852C615.465 95.5176 615.221 96.3232 614.961 97.2021C614.701 98.0648 614.432 98.9681 614.155 99.9121C613.879 100.856 613.61 101.784 613.35 102.695C614.18 101.377 615.124 100.156 616.182 99.0332C617.256 97.8939 618.338 96.9092 619.429 96.0791C620.535 95.249 621.61 94.598 622.651 94.126C623.709 93.654 624.637 93.418 625.435 93.418C626.151 93.418 626.81 93.597 627.412 93.9551C628.014 94.2969 628.527 94.7526 628.95 95.3223C629.39 95.8757 629.731 96.5104 629.976 97.2266C630.22 97.9427 630.342 98.6751 630.342 99.4238C630.342 99.7656 630.293 100.205 630.195 100.742C630.098 101.279 629.935 101.873 629.707 102.524C629.495 103.175 629.211 103.859 628.853 104.575C628.511 105.275 628.096 105.959 627.607 106.626C628.698 105.747 629.805 104.819 630.928 103.843C632.051 102.866 633.125 101.833 634.15 100.742C635.192 99.6354 636.152 98.4635 637.031 97.2266C637.91 95.9896 638.643 94.6712 639.229 93.2715C639.359 92.9785 639.497 92.6937 639.644 92.417C639.806 92.124 639.977 91.8636 640.156 91.6357C640.352 91.3916 640.563 91.2044 640.791 91.0742C641.019 90.9277 641.263 90.8545 641.523 90.8545C641.914 90.8545 642.215 91.0091 642.427 91.3184C642.655 91.6276 642.769 92.0915 642.769 92.71C642.769 92.8402 642.728 93.068 642.646 93.3936C642.581 93.7028 642.5 94.0446 642.402 94.4189C642.305 94.777 642.199 95.127 642.085 95.4688C641.987 95.8105 641.898 96.071 641.816 96.25C641.458 97.0638 640.994 97.959 640.425 98.9355C639.855 99.8958 639.18 100.889 638.398 101.914C637.617 102.939 636.722 103.981 635.713 105.039C634.704 106.081 633.581 107.09 632.344 108.066C631.66 108.604 630.806 109.23 629.78 109.946C628.771 110.662 627.673 111.403 626.484 112.168C625.296 112.917 624.059 113.657 622.773 114.39C621.488 115.122 620.234 115.773 619.014 116.343C617.809 116.929 616.678 117.401 615.62 117.759C614.562 118.117 613.659 118.296 612.91 118.296ZM624.189 98.374C623.473 98.374 622.716 98.61 621.919 99.082C621.121 99.5378 620.316 100.156 619.502 100.938C618.704 101.702 617.923 102.581 617.158 103.574C616.393 104.567 615.677 105.592 615.01 106.65C614.359 107.708 613.781 108.758 613.276 109.8C612.788 110.841 612.414 111.794 612.153 112.656C612.332 112.982 612.528 113.258 612.739 113.486C612.967 113.714 613.228 113.828 613.521 113.828C614.058 113.828 614.652 113.722 615.303 113.511C615.954 113.299 616.58 113.047 617.183 112.754C617.785 112.461 618.322 112.16 618.794 111.851C619.282 111.541 619.632 111.289 619.844 111.094C620.381 110.573 620.959 109.865 621.577 108.97C622.212 108.075 622.79 107.114 623.311 106.089C623.848 105.063 624.295 104.046 624.653 103.037C625.011 102.028 625.19 101.165 625.19 100.449C625.19 100.189 625.166 99.9365 625.117 99.6924C625.068 99.4482 625.003 99.2285 624.922 99.0332C624.84 98.8379 624.735 98.6833 624.604 98.5693C624.474 98.4391 624.336 98.374 624.189 98.374ZM669.761 99.5215C669.761 99.668 669.736 99.8796 669.688 100.156C669.655 100.433 669.606 100.726 669.541 101.035C669.476 101.344 669.403 101.637 669.321 101.914C669.256 102.191 669.191 102.402 669.126 102.549C668.507 103.688 667.783 104.779 666.953 105.82C666.123 106.846 665.228 107.757 664.268 108.555C663.324 109.352 662.323 109.987 661.265 110.459C660.223 110.931 659.173 111.167 658.115 111.167C657.09 111.167 656.195 111.021 655.43 110.728C654.665 110.435 654.014 110.052 653.477 109.58C652.956 109.092 652.524 108.538 652.183 107.92C651.857 107.301 651.597 106.675 651.401 106.04C651.206 105.389 651.076 104.762 651.011 104.16C650.946 103.542 650.913 102.988 650.913 102.5C650.913 102.256 650.929 101.955 650.962 101.597C651.011 101.222 651.06 100.84 651.108 100.449C651.174 100.042 651.222 99.6517 651.255 99.2773C651.304 98.8867 651.328 98.5693 651.328 98.3252C651.328 97.9997 651.255 97.8369 651.108 97.8369C650.685 98.2438 650.278 98.6751 649.888 99.1309C649.513 99.5866 649.131 100.083 648.74 100.62C648.366 101.157 647.975 101.751 647.568 102.402C647.161 103.037 646.714 103.745 646.226 104.526C645.786 105.226 645.322 105.991 644.834 106.821C644.346 107.651 643.849 108.49 643.345 109.336C642.84 110.182 642.327 111.004 641.807 111.802C641.302 112.599 640.806 113.307 640.317 113.926C639.829 114.528 639.365 115.016 638.926 115.391C638.503 115.765 638.12 115.952 637.778 115.952C637.388 115.952 637.062 115.944 636.802 115.928C636.541 115.911 636.322 115.879 636.143 115.83C635.964 115.798 635.801 115.757 635.654 115.708C635.508 115.659 635.353 115.602 635.19 115.537C635.028 114.935 634.897 114.284 634.8 113.584C634.702 112.868 634.629 112.184 634.58 111.533C634.548 110.866 634.523 110.264 634.507 109.727C634.507 109.189 634.507 108.791 634.507 108.53C634.507 106.154 634.694 103.639 635.068 100.986C635.459 98.3333 635.907 95.5176 636.411 92.5391C636.802 90.2604 637.176 87.8923 637.534 85.4346C637.909 82.9606 638.226 80.3971 638.486 77.7441C638.6 77.1908 638.787 76.6943 639.048 76.2549C639.325 75.8154 639.618 75.4492 639.927 75.1562C640.252 74.847 640.562 74.6191 640.854 74.4727C641.164 74.3099 641.416 74.2285 641.611 74.2285C641.953 74.2285 642.279 74.3506 642.588 74.5947C642.897 74.8226 643.174 75.1318 643.418 75.5225C643.662 75.9131 643.849 76.3525 643.979 76.8408C644.126 77.3128 644.199 77.793 644.199 78.2812C644.199 78.444 644.191 78.6068 644.175 78.7695C644.159 78.9323 644.134 79.0951 644.102 79.2578C644.085 79.3229 644.045 79.5264 643.979 79.8682C643.914 80.21 643.833 80.625 643.735 81.1133C643.654 81.6016 643.556 82.1305 643.442 82.7002C643.345 83.2536 643.247 83.7907 643.149 84.3115C643.068 84.8324 642.995 85.2962 642.93 85.7031C642.865 86.0938 642.816 86.3623 642.783 86.5088C642.767 86.6553 642.71 86.9889 642.612 87.5098C642.531 88.0143 642.425 88.641 642.295 89.3896C642.181 90.1383 642.051 90.9684 641.904 91.8799C641.758 92.7751 641.603 93.6947 641.44 94.6387C641.294 95.5664 641.147 96.486 641.001 97.3975C640.854 98.2926 640.716 99.1064 640.586 99.8389C640.472 100.571 640.374 101.19 640.293 101.694C640.228 102.199 640.187 102.524 640.171 102.671C640.155 102.85 640.122 103.094 640.073 103.403C640.041 103.713 640 104.054 639.951 104.429C639.902 104.787 639.845 105.169 639.78 105.576C639.715 105.967 639.658 106.333 639.609 106.675C639.756 106.512 640.008 106.178 640.366 105.674C640.724 105.153 641.131 104.551 641.587 103.867C642.043 103.184 642.523 102.459 643.027 101.694C643.548 100.913 644.036 100.181 644.492 99.4971C644.948 98.8135 645.347 98.2194 645.688 97.7148C646.047 97.194 646.283 96.8441 646.396 96.665C646.624 96.3232 646.917 95.9489 647.275 95.542C647.65 95.1351 648.04 94.7363 648.447 94.3457C648.87 93.9388 649.285 93.5563 649.692 93.1982C650.116 92.8239 650.49 92.5146 650.815 92.2705C651.532 91.7171 652.199 91.3835 652.817 91.2695C653.436 91.1393 654.022 91.0742 654.575 91.0742C654.836 91.0742 655.088 91.1556 655.332 91.3184C655.576 91.4811 655.796 91.7253 655.991 92.0508C656.187 92.36 656.341 92.7507 656.455 93.2227C656.585 93.6947 656.65 94.248 656.65 94.8828C656.65 95.2246 656.618 95.6396 656.553 96.1279C656.488 96.5999 656.414 97.1208 656.333 97.6904C656.252 98.2438 656.178 98.8216 656.113 99.4238C656.048 100.026 656.016 100.604 656.016 101.157C656.016 101.548 656.04 102.02 656.089 102.573C656.154 103.11 656.276 103.631 656.455 104.136C656.634 104.624 656.878 105.047 657.188 105.405C657.513 105.747 657.928 105.918 658.433 105.918C659.767 105.918 661.118 105.446 662.485 104.502C663.869 103.558 665.342 102.093 666.904 100.107C667.344 99.5378 667.767 99.139 668.174 98.9111C668.581 98.6833 668.931 98.5693 669.224 98.5693C669.435 98.5693 669.574 98.6426 669.639 98.7891C669.72 98.9193 669.761 99.1634 669.761 99.5215Z" fill="white"/>
<defs>
<filter id="filter0_d_105_13" x="0" y="0" width="970" height="220" filterUnits="userSpaceOnUse" color-interpolation-filters="sRGB">
<feFlood flood-opacity="0" result="BackgroundImageFix"/>
<feColorMatrix in="SourceAlpha" type="matrix" values="0 0 0 0 0 0 0 0 0 0 0 0 0 0 0 0 0 0 127 0" result="hardAlpha"/>
<feOffset dx="20" dy="20"/>
<feComposite in2="hardAlpha" operator="out"/>
<feColorMatrix type="matrix" values="0 0 0 0 0.985 0 0 0 0 1 0 0 0 0 0.25 0 0 0 1 0"/>
<feBlend mode="normal" in2="BackgroundImageFix" result="effect1_dropShadow_105_13"/>
<feBlend mode="normal" in="SourceGraphic" in2="effect1_dropShadow_105_13" result="shape"/>
</filter>
</defs>
</svg>
