<svg width="1605" height="144" viewBox="0 0 1605 144" fill="none" xmlns="http://www.w3.org/2000/svg">
<rect width="1605" height="144" fill="#0D1117"/>
<path d="M736.642 50.0762C736.818 50.2129 736.906 50.6914 736.906 51.5117C736.906 52.3516 736.818 52.9863 736.642 53.416L737.023 54.6465C737.668 56.9512 738.302 58.8457 738.927 60.3301C739.709 62.3223 740.48 64.4609 741.242 66.7461C742.98 72 744.787 76.502 746.662 80.252C748.556 83.9824 750.285 86.6094 751.847 88.1328C752.824 89.0898 753.429 89.7539 753.664 90.125C753.918 90.4766 754.045 90.8965 754.045 91.3848C754.045 92.2441 753.752 92.9668 753.166 93.5527C752.599 94.1582 751.916 94.4609 751.115 94.4609C748.615 94.4609 745.588 90.5254 742.033 82.6543C740.607 79.5488 739.748 77.9961 739.455 77.9961C738.517 77.9961 736.496 78.2793 733.39 78.8457C730.304 79.4121 727.482 80.0762 724.923 80.8379C723.459 81.2871 722.531 81.5117 722.14 81.5117C721.652 81.5117 721.144 81.2676 720.617 80.7793C720.519 80.7012 720.402 80.6621 720.265 80.6621C719.836 80.6621 718.908 81.9316 717.482 84.4707C715.138 88.6699 713.654 91.1797 713.029 92C712.423 92.8008 711.75 93.2012 711.007 93.2012C710.48 93.2012 709.845 92.8887 709.103 92.2637C708.361 91.6582 707.99 91.0332 707.99 90.3887C707.99 89.7637 708.341 88.9238 709.045 87.8691C709.748 86.7949 711.183 84.6465 713.351 81.4238C717.218 75.7012 720.48 70.3301 723.136 65.3105C727.336 57.3223 730.002 52.6152 731.134 51.1895C732.267 49.7441 733.136 49.0215 733.742 49.0215C735.031 49.0215 735.998 49.373 736.642 50.0762ZM738.429 73.3672C737.746 71.8047 736.74 68.9434 735.412 64.7832C733.966 60.3496 733.048 57.6543 732.658 56.6973C731.584 58.9629 729.923 62.1758 727.677 66.3359L722.375 76.3848C722.785 76.0723 723.869 75.8184 725.627 75.623C726.974 75.4863 728.146 75.3105 729.142 75.0957C734.474 74.0215 737.57 73.4453 738.429 73.3672ZM765.981 75.3301C768.481 70.7793 771.47 67.0977 774.946 64.2852C778.423 61.4531 781.557 60.0371 784.35 60.0371C785.893 60.0371 787.202 60.75 788.276 62.1758C789.35 63.6016 789.887 65.3398 789.887 67.3906C789.887 73.4648 787.593 79.168 783.003 84.5C778.432 89.8125 773.598 92.4688 768.501 92.4688C767.114 92.4688 765.835 92.0977 764.663 91.3555C763.511 90.5938 762.866 89.6465 762.729 88.5137C762.651 87.5957 762.387 86.9121 761.938 86.4629C761.098 85.623 760.679 84.7246 760.679 83.7676C760.679 81.9902 761.167 78.1914 762.143 72.3711L765.161 54.8516C766.196 48.9727 766.948 45.3398 767.417 43.9531C767.905 42.5664 768.442 41.6387 769.028 41.1699C769.614 40.7012 770.337 40.4668 771.196 40.4668C772.563 40.4668 773.247 41.6484 773.247 44.0117C773.247 46.2578 772.495 49.4023 770.991 53.4453C769.546 57.332 767.876 64.627 765.981 75.3301ZM765.278 85.0859C766.294 86.9805 767.524 87.9277 768.97 87.9277C771.196 87.9277 773.55 87.0098 776.03 85.1738C778.511 83.3184 780.649 80.7207 782.446 77.3809C784.262 74.0215 785.171 71.1895 785.171 68.8848C785.171 67.8496 784.985 66.9609 784.614 66.2188C784.243 65.4766 783.774 65.1055 783.208 65.1055C780.493 65.1055 777.173 67.332 773.247 71.7852C769.341 76.2188 766.684 80.6523 765.278 85.0859ZM805.896 93.4648C803.221 93.4648 801.014 92.4492 799.275 90.418C797.537 88.3867 796.668 85.877 796.668 82.8887C796.668 77.8496 798.357 72.8887 801.736 68.0059C805.135 63.1035 809.197 60.6523 813.924 60.6523C817.049 60.6523 819.578 61.8535 821.512 64.2559C823.465 66.6582 824.441 69.5195 824.441 72.8398C824.441 77.918 822.43 82.625 818.406 86.9609C814.402 91.2969 810.232 93.4648 805.896 93.4648ZM801.824 82.127C801.824 84.0996 802.234 85.7109 803.055 86.9609C803.895 88.2109 804.998 88.8359 806.365 88.8359C809.275 88.8359 812.195 87.2441 815.125 84.0605C818.055 80.8574 819.52 77.3027 819.52 73.3965C819.52 70.9941 818.953 69.0508 817.82 67.5664C816.707 66.0625 815.203 65.3105 813.309 65.3105C810.164 65.3105 807.459 67.2441 805.193 71.1113C802.947 74.959 801.824 78.6309 801.824 82.127ZM853.751 79.2559C851.251 83.4551 848.693 86.707 846.075 89.0117C843.458 91.3164 841.027 92.4688 838.78 92.4688C837.491 92.4688 836.173 91.7168 834.825 90.2129C833.497 88.709 832.833 86.3945 832.833 83.2695C832.833 80.7109 833.448 76.9414 834.679 71.9609C835.714 67.8008 836.232 64.8809 836.232 63.2012C836.798 62.0293 837.687 61.4434 838.898 61.4434C839.718 61.4434 840.372 61.7363 840.861 62.3223C841.349 62.8887 841.593 63.4844 841.593 64.1094C841.593 65.4766 841.114 67.4199 840.157 69.9395C838.341 74.8418 837.433 79.0508 837.433 82.5664C837.433 85.7695 838.175 87.3711 839.659 87.3711C841.554 87.3711 843.966 85.7598 846.896 82.5371C849.825 79.3145 852.335 74.8223 854.425 69.0605C855.245 66.7559 855.909 65.2617 856.417 64.5781C856.945 63.875 857.648 63.5234 858.527 63.5234C859.855 63.5234 860.519 64.4023 860.519 66.1602C860.519 66.375 860.333 67.0879 859.962 68.2988C858.79 72.5762 858.204 76.6191 858.204 80.4277C858.204 84.998 858.956 87.957 860.46 89.3047C861.241 90.0273 861.632 90.6133 861.632 91.0625C861.632 91.6094 861.232 92.1074 860.431 92.5566C859.65 93.0059 858.937 93.2305 858.292 93.2305C856.925 93.2305 855.821 92.2148 854.982 90.1836C854.142 88.1523 853.722 85.1543 853.722 81.1895V80.2227C853.722 79.9102 853.732 79.5879 853.751 79.2559ZM883.413 62.4395C885.424 62.2832 887.319 62.0977 889.096 61.8828C890.854 61.6875 892.319 61.5898 893.491 61.5898C894.975 61.5898 895.913 61.7266 896.303 62C896.694 62.2734 896.889 62.752 896.889 63.4355C896.889 65.0176 895.786 65.877 893.579 66.0137C890.746 66.1895 888.139 66.4336 885.756 66.7461C883.373 67.0586 882.084 67.3223 881.889 67.5371C881.713 67.7324 881.127 70.0566 880.131 74.5098C879.135 78.9434 878.637 81.8242 878.637 83.1523C878.637 85.3008 878.92 86.7363 879.487 87.459C880.053 88.1621 880.903 88.5137 882.036 88.5137C883.715 88.5137 886.049 87.2539 889.038 84.7344C890.19 83.6992 891.079 83.1816 891.704 83.1816C892.543 83.1816 892.963 83.6309 892.963 84.5293C892.963 85.9355 891.606 87.7617 888.891 90.0078C886.196 92.2344 883.432 93.3477 880.6 93.3477C875.873 93.3477 873.51 90.5645 873.51 84.998C873.51 82.9863 873.998 79.8711 874.975 75.6523C875.932 71.4531 876.411 68.9336 876.411 68.0938C876.411 67.8008 876.176 67.6543 875.707 67.6543L872.661 67.918C870.161 67.918 868.911 66.9219 868.911 64.9297C868.911 63.7969 869.487 63.2305 870.639 63.2305H876.674C877.084 63.2305 877.446 63.0449 877.758 62.6738C878.071 62.3027 878.53 61.0625 879.135 58.9531C879.741 56.8242 880.278 54.7246 880.746 52.6543C881.215 50.6035 882.133 49.5781 883.5 49.5781C884.34 49.5781 884.995 49.8711 885.463 50.457C885.932 51.043 886.166 51.5898 886.166 52.0977C886.166 52.3711 885.815 53.7676 885.112 56.2871L883.413 62.4395Z" fill="white"/>
<path d="M641 108.341C842 200.5 1134.96 75.9999 1603.5 76" stroke="url(#paint0_linear_226_4)" stroke-width="3" stroke-linecap="square"/>
<path d="M948.5 27.4114C744.285 -54.6741 469.773 88.5001 1.5 88.5" stroke="url(#paint1_linear_226_4)" stroke-width="3" stroke-linecap="square"/>
<defs>
<linearGradient id="paint0_linear_226_4" x1="754" y1="142" x2="716.716" y2="50.8815" gradientUnits="userSpaceOnUse">
<stop stop-color="white"/>
<stop offset="1" stop-opacity="0"/>
</linearGradient>
<linearGradient id="paint1_linear_226_4" x1="789.724" y1="43.8234" x2="844.327" y2="124.891" gradientUnits="userSpaceOnUse">
<stop stop-color="white"/>
<stop offset="1" stop-opacity="0"/>
</linearGradient>
</defs>
</svg>
