<svg width="1605" height="144" viewBox="0 0 1605 144" fill="none" xmlns="http://www.w3.org/2000/svg">
<rect width="1605" height="144" fill="#0D1117"/>
<path d="M676.911 57.2246C675.798 56.834 675.241 55.8281 675.241 54.207C675.241 52.9375 677.82 51.707 682.976 50.5156C688.152 49.3047 692.663 48.6992 696.511 48.6992C700.769 48.6992 704.148 49.5781 706.648 51.3359C709.148 53.0938 710.398 55.4277 710.398 58.3379C710.398 62.6543 708.015 66.5215 703.249 69.9395C698.503 73.3574 692.097 75.8672 684.03 77.4688C681.902 77.8984 680.7 78.2598 680.427 78.5527C680.173 78.8262 679.968 80.5645 679.812 83.7676C679.675 86.9512 679.607 89.168 679.607 90.418C679.607 91.2969 679.323 92.0879 678.757 92.791C678.21 93.4941 677.566 93.8457 676.823 93.8457C675.105 93.8457 674.245 92.6836 674.245 90.3594C674.245 89.0898 674.597 85.5547 675.3 79.7539L677.38 62.3809C677.439 62.0879 677.448 61.248 677.409 59.8613C677.39 58.4746 677.224 57.5957 676.911 57.2246ZM683.005 55.5547C682.868 56.1211 682.732 57.166 682.595 58.6895C682.321 61.4043 681.98 64.4023 681.57 67.6836C681.355 69.4023 681.15 71.2676 680.954 73.2793C687.38 72.4004 693.083 70.6035 698.064 67.8887C703.044 65.1738 705.534 62.1953 705.534 58.9531C705.534 54.9688 702.448 52.9766 696.277 52.9766C692.234 52.9766 687.81 53.8359 683.005 55.5547ZM720.577 80.3691C720.772 80.0176 721.006 79.5293 721.28 78.9043C722.608 75.8574 723.829 73.4746 724.942 71.7559C726.055 70.0176 727.276 68.3574 728.604 66.7754C729.952 65.1934 731.172 63.9922 732.266 63.1719C733.379 62.3516 734.385 61.7852 735.284 61.4727C736.182 61.1406 737.051 60.9746 737.891 60.9746C739.59 60.9746 740.977 61.4922 742.051 62.5273C743.125 63.543 743.663 64.7344 743.663 66.1016C743.663 66.707 743.467 67.2539 743.077 67.7422C742.705 68.2305 742.129 68.4746 741.348 68.4746C740.528 68.4746 739.776 68.1133 739.092 67.3906C738.389 66.668 737.657 66.3066 736.895 66.3066C734.864 66.3066 732.051 68.7676 728.457 73.6895C724.864 78.6113 722.676 84.0312 721.895 89.9492C721.7 91.4727 721.329 92.4785 720.782 92.9668C720.235 93.4551 719.463 93.6992 718.467 93.6992C717.51 93.6992 716.817 92.9863 716.387 91.5605C715.957 90.1348 715.743 87.7324 715.743 84.3535C715.743 83.4355 715.791 81.4141 715.889 78.2891C716.006 74.5977 716.241 71.6191 716.592 69.3535C716.651 68.9824 716.748 68.1133 716.885 66.7461C717.022 65.2422 717.188 64.1973 717.383 63.6113C717.598 63.0254 718.018 62.4785 718.643 61.9707C719.288 61.4629 719.981 61.209 720.723 61.209C721.446 61.209 721.983 61.4434 722.334 61.9121C722.705 62.3613 722.891 62.8496 722.891 63.377C722.891 64.1387 722.696 65.2129 722.305 66.5996C721.856 68.1426 721.592 69.207 721.514 69.793C721.455 70.457 721.348 71.1504 721.192 71.873C720.996 72.7129 720.801 74.9199 720.606 78.4941L720.577 79.5781V80.3691ZM755.599 93.4648C752.923 93.4648 750.716 92.4492 748.978 90.418C747.24 88.3867 746.371 85.877 746.371 82.8887C746.371 77.8496 748.06 72.8887 751.439 68.0059C754.838 63.1035 758.9 60.6523 763.627 60.6523C766.752 60.6523 769.281 61.8535 771.214 64.2559C773.168 66.6582 774.144 69.5195 774.144 72.8398C774.144 77.918 772.132 82.625 768.109 86.9609C764.105 91.2969 759.935 93.4648 755.599 93.4648ZM751.527 82.127C751.527 84.0996 751.937 85.7109 752.757 86.9609C753.597 88.2109 754.701 88.8359 756.068 88.8359C758.978 88.8359 761.898 87.2441 764.828 84.0605C767.757 80.8574 769.222 77.3027 769.222 73.3965C769.222 70.9941 768.656 69.0508 767.523 67.5664C766.41 66.0625 764.906 65.3105 763.011 65.3105C759.867 65.3105 757.162 67.2441 754.896 71.1113C752.65 74.959 751.527 78.6309 751.527 82.127ZM790.944 44.627H791.032C791.579 44.627 792.399 44.8223 793.493 45.2129C794.587 45.6035 795.3 45.9355 795.632 46.209C795.983 46.4629 796.159 46.9023 796.159 47.5273C796.159 48.7383 795.602 49.8027 794.489 50.7207C793.376 51.6191 792.546 52.0684 791.999 52.0684C791.061 52.0684 790.241 51.6582 789.538 50.8379C788.835 50.0176 788.483 49.1973 788.483 48.377C788.483 46.2676 789.304 45.0176 790.944 44.627ZM779.079 110.604C776.755 110.604 774.509 109.627 772.341 107.674C770.153 105.74 769.059 104.07 769.059 102.664C769.059 102.273 769.196 101.883 769.47 101.492C769.743 101.121 769.948 100.936 770.085 100.936C770.221 100.936 770.524 101.131 770.993 101.521C774.059 104.217 776.53 105.564 778.405 105.564C779.948 105.564 781.276 104.822 782.389 103.338C783.503 101.873 784.304 99.1387 784.792 95.1348C785.28 91.1504 785.739 84.9492 786.169 76.5312C786.462 70.457 786.716 66.5996 786.93 64.959C787.165 63.3184 787.634 62.1758 788.337 61.5312C789.04 60.8672 789.938 60.5352 791.032 60.5352C791.598 60.5352 792.126 60.7598 792.614 61.209C793.122 61.6387 793.376 62.166 793.376 62.791C793.376 63.1426 793.307 63.6211 793.171 64.2266C791.745 70.3984 790.817 78.4355 790.388 88.3379C790.114 94.3145 789.557 98.7383 788.718 101.609C787.878 104.48 786.579 106.697 784.821 108.26C783.083 109.822 781.169 110.604 779.079 110.604ZM828.984 82.0684C828.984 84.0605 827.217 86.4629 823.682 89.2754C820.166 92.0879 816.533 93.4941 812.783 93.4941C809.639 93.4941 807.207 92.5664 805.488 90.7109C803.789 88.8555 802.939 86.2676 802.939 82.9473C802.939 77.3613 804.824 72.0488 808.594 67.0098C812.363 61.9707 816.484 59.4512 820.957 59.4512C822.422 59.4512 823.613 59.9297 824.531 60.8867C825.469 61.8438 825.938 62.9961 825.938 64.3438C825.938 67.3516 824.463 70.2324 821.514 72.9863C818.564 75.7402 814.619 78.4453 809.678 81.1016C808.662 81.6289 808.154 82.3125 808.154 83.1523C808.154 84.7734 808.623 86.0723 809.561 87.0488C810.498 88.0254 811.885 88.5137 813.721 88.5137C817.92 88.5137 822.207 86.1895 826.582 81.541C827.227 80.8965 827.715 80.5742 828.047 80.5742C828.672 80.5742 828.984 81.0723 828.984 82.0684ZM808.623 77.498C816.904 72.5762 821.045 68.6211 821.045 65.6328C821.045 64.4609 820.518 63.875 819.463 63.875C817.666 63.875 815.635 65.1934 813.369 67.8301C811.123 70.4668 809.541 73.6895 808.623 77.498ZM844.935 93.6699C842.005 93.6699 839.749 92.8301 838.167 91.1504C836.605 89.4707 835.823 87.1172 835.823 84.0898C835.823 78.9922 837.845 73.6211 841.888 67.9766C845.931 62.3125 849.691 59.4805 853.167 59.4805C854.749 59.4805 856.107 60.3398 857.239 62.0586C858.392 63.7578 858.968 65.5645 858.968 67.4785C858.968 68.6309 858.714 69.627 858.206 70.4668C857.718 71.2871 857.22 71.6973 856.712 71.6973C855.579 71.6973 854.779 70.5547 854.31 68.2695C853.782 65.8086 853.021 64.5781 852.025 64.5781C849.993 64.5781 847.591 66.9902 844.818 71.8145C842.044 76.6387 840.657 80.7109 840.657 84.0312C840.657 87.3516 842.542 89.0117 846.312 89.0117C849.183 89.0117 852.562 87.6641 856.448 84.9688C857.816 84.0117 858.821 83.5332 859.466 83.5332C860.13 83.5332 860.462 83.9141 860.462 84.6758C860.462 86.1602 858.714 88.0352 855.218 90.3008C851.722 92.5469 848.294 93.6699 844.935 93.6699ZM881.071 62.4395C883.082 62.2832 884.977 62.0977 886.754 61.8828C888.512 61.6875 889.977 61.5898 891.149 61.5898C892.633 61.5898 893.571 61.7266 893.961 62C894.352 62.2734 894.547 62.752 894.547 63.4355C894.547 65.0176 893.444 65.877 891.237 66.0137C888.405 66.1895 885.797 66.4336 883.414 66.7461C881.032 67.0586 879.743 67.3223 879.547 67.5371C879.371 67.7324 878.786 70.0566 877.789 74.5098C876.793 78.9434 876.295 81.8242 876.295 83.1523C876.295 85.3008 876.579 86.7363 877.145 87.459C877.711 88.1621 878.561 88.5137 879.694 88.5137C881.373 88.5137 883.707 87.2539 886.696 84.7344C887.848 83.6992 888.737 83.1816 889.362 83.1816C890.202 83.1816 890.621 83.6309 890.621 84.5293C890.621 85.9355 889.264 87.7617 886.549 90.0078C883.854 92.2344 881.09 93.3477 878.258 93.3477C873.532 93.3477 871.168 90.5645 871.168 84.998C871.168 82.9863 871.657 79.8711 872.633 75.6523C873.59 71.4531 874.069 68.9336 874.069 68.0938C874.069 67.8008 873.834 67.6543 873.366 67.6543L870.319 67.918C867.819 67.918 866.569 66.9219 866.569 64.9297C866.569 63.7969 867.145 63.2305 868.297 63.2305H874.332C874.743 63.2305 875.104 63.0449 875.416 62.6738C875.729 62.3027 876.188 61.0625 876.793 58.9531C877.399 56.8242 877.936 54.7246 878.405 52.6543C878.873 50.6035 879.791 49.5781 881.159 49.5781C881.998 49.5781 882.653 49.8711 883.121 50.457C883.59 51.043 883.825 51.5898 883.825 52.0977C883.825 52.3711 883.473 53.7676 882.77 56.2871L881.071 62.4395ZM899.746 45.6816C899.804 45.4863 900.195 45.2324 900.918 44.9199C901.66 44.5879 902.187 44.4219 902.5 44.4219C902.812 44.4219 903.418 44.8809 904.316 45.7988L905.107 46.6191C905.986 47.498 906.66 48.5137 907.129 49.666C907.324 50.0762 907.421 50.7305 907.421 51.6289C907.421 53.2891 906.836 55.7891 905.664 59.1289C904.511 62.4492 903.134 64.1094 901.533 64.1094C900.947 64.1094 900.439 63.9336 900.009 63.582C899.58 63.2305 899.365 62.7812 899.365 62.2344C899.365 61.2383 899.765 60.3984 900.566 59.7148C902.421 58.0742 903.349 55.9746 903.349 53.416C903.349 52.4395 902.519 51.2188 900.859 49.7539C900.332 49.2852 900.019 48.9922 899.921 48.875C899.824 48.7383 899.755 48.1914 899.716 47.2344C899.677 46.2773 899.687 45.7598 899.746 45.6816ZM929.846 85.291C929.846 84.0215 928.284 82.5762 925.159 80.9551C921.194 78.9238 918.509 77.3027 917.102 76.0918C915.716 74.8613 915.022 73.4941 915.022 71.9902C915.022 68.1035 916.966 64.8809 920.852 62.3223C924.759 59.7637 927.942 58.4844 930.403 58.4844C931.985 58.4844 933.128 58.7578 933.831 59.3047C934.554 59.8516 934.915 60.7988 934.915 62.1465C934.915 62.752 934.651 63.2695 934.124 63.6992C933.616 64.1289 933.216 64.3438 932.923 64.3438C932.708 64.3438 932.288 64.1973 931.663 63.9043C931.038 63.6309 930.628 63.4941 930.432 63.4941C929.456 63.4941 927.473 64.207 924.485 65.6328C921.497 67.0586 920.003 68.6699 920.003 70.4668C920.003 71.5605 920.53 72.5566 921.585 73.4551C922.639 74.334 924.534 75.418 927.268 76.707C929.475 77.7617 931.233 78.8945 932.542 80.1055C933.87 81.2969 934.534 82.7031 934.534 84.3242C934.534 87.3125 932.473 89.6562 928.352 91.3555C924.231 93.0352 920.296 93.875 916.546 93.875C913.382 93.875 911.8 92.8008 911.8 90.6523C911.8 89.9102 912.151 89.3633 912.854 89.0117C913.577 88.6602 914.3 88.4844 915.022 88.4844C915.315 88.4844 915.872 88.582 916.692 88.7773C917.493 88.9727 918.02 89.0703 918.274 89.0703C920.442 89.0703 922.766 88.709 925.247 87.9863C927.727 87.2637 929.261 86.3652 929.846 85.291Z" fill="white"/>
<path d="M641 108.341C842 200.5 1134.96 75.9999 1603.5 76" stroke="url(#paint0_linear_231_29)" stroke-width="3" stroke-linecap="square"/>
<path d="M948.5 27.4114C744.285 -54.6741 469.773 88.5001 1.5 88.5" stroke="url(#paint1_linear_231_29)" stroke-width="3" stroke-linecap="square"/>
<defs>
<linearGradient id="paint0_linear_231_29" x1="754" y1="142" x2="716.716" y2="50.8815" gradientUnits="userSpaceOnUse">
<stop stop-color="white"/>
<stop offset="1" stop-opacity="0"/>
</linearGradient>
<linearGradient id="paint1_linear_231_29" x1="789.724" y1="43.8234" x2="844.327" y2="124.891" gradientUnits="userSpaceOnUse">
<stop stop-color="white"/>
<stop offset="1" stop-opacity="0"/>
</linearGradient>
</defs>
</svg>
