<svg width="1605" height="260" viewBox="0 0 1605 260" fill="none" xmlns="http://www.w3.org/2000/svg">

<defs>
 <style>

  .serenity  {
     animation: rotation1 3s linear infinite ;
    }
  @keyframes rotation1{
    50% {
        transform: translate(0, 5px); /* stay on the baseline for most of the animation duration */
        }
  0%,100% {
    transform: translate(0, -5px); /* hop up */
    }
    }



  .uplift {
     animation: rotation2 5s linear infinite ;
    }
  @keyframes rotation2{
    50% {
        transform: translate(0, 10px); /* stay on the baseline for most of the animation duration */
        }
  0%,100% {
    transform: translate(0, -9px); /* hop up */
    }
    }



   .heart {
     animation: rotation3 4s linear infinite ;
    }
  @keyframes rotation3{
    50% {
        transform: translate(0, 10px); /* stay on the baseline for most of the animation duration */
        }
  0%,100% {
    transform: translate(0, -9px); /* hop up */
    }
    }


    .broken{
     animation: rotation4 6s linear infinite ;
    }
  @keyframes rotation4{
    50% {
        transform: translate(0, 10px); /* stay on the baseline for most of the animation duration */
        }
  0%,100% {
    transform: translate(0, -9px); /* hop up */
    }
    }

   .helps {
     animation: rotation5 3s linear infinite ;
    }
  @keyframes rotation5{
    50% {
        transform: translate(0, 10px); /* stay on the baseline for most of the animation duration */
        }
  0%,100% {
    transform: translate(0, -9px); /* hop up */
    }
    }



.div{
  <!-- filter: drop-shadow(3px 5px 2px rgb(0 0 0 / 0.4)); -->
  <!-- text-shadow: 2px 2px red; -->
  animation: glitch 0.3s linear infinite;
}

@keyframes glitch{
  0%{
    transform: translate(0px,0px) skew(0deg);
    <!-- filter: drop-shadow(3px 5px 0px rgb(255 23 23/ 1)); -->
  }
  20%{
    transform: translate(2px,0px) skew(0deg);
    filter: drop-shadow(3px 5px 10px rgb(255 23 23/ 1));
  }

  40%,55%{ 
    transform: translate(0px,0px) skew(0deg);
    
  }
  
  60%{ 
    transform: translate(-2px,0px) skew(0deg);
    filter: drop-shadow(3px 5px 10px rgb(255 23 23/ 0));
  }

  80%{
    transform: translate(2px,0px) skew(0deg);
    filter: drop-shadow(5px 5px 10px rgb(255 23 23/ 1));
  }

  100%{
    transform: translate(0px,0px) skew(0deg);
  }
}


 </style>
</defs>

<path d="M0 7H1605V260H0V7Z" />
<path  class="div" d="M135.65 119.3C132.85 118.233 130.117 117.367 127.45 116.7C124.85 116.033 121.883 115.667 118.55 115.6C115.283 115.467 112.383 115.867 109.85 116.8C107.317 117.733 105.017 119.533 102.95 122.2C100.883 124.8 99.5167 128.233 98.85 132.5C98.7167 133.233 101.25 133.467 106.45 133.2C111.65 132.867 116.717 132.5 121.65 132.1C126.583 131.7 129.983 132 131.85 133C138.45 138.867 143.083 144.3 145.75 149.3C147.083 151.7 146.517 155.167 144.05 159.7C140.917 165.367 136.383 169.533 130.45 172.2C119.983 177 108.517 175.233 96.05 166.9C90.9833 163.5 85.8833 159 80.75 153.4L83.75 151.9C87.6167 153.967 90.7167 155.567 93.05 156.7C95.45 157.833 98.45 159 102.05 160.2C105.65 161.333 108.817 161.933 111.55 162C117.883 162.133 123.083 160.6 127.15 157.4C131.217 154.133 133.517 149.733 134.05 144.2C134.117 143.6 131.717 143.7 126.85 144.5C121.983 145.233 117.083 145.9 112.15 146.5C107.217 147.1 103.483 146.633 100.95 145.1C98.2833 142.967 94.1167 138.767 88.45 132.5C86.65 130.3 85.7167 127.933 85.65 125.4C85.5833 122.867 86.4167 120.3 88.15 117.7C89.8833 115.1 92.0167 112.767 94.55 110.7C97.0833 108.633 100.05 106.933 103.45 105.6C106.917 104.267 110.35 103.6 113.75 103.6C114.617 103.6 116.25 104.167 118.65 105.3C121.05 106.367 124.35 108 128.55 110.2C132.817 112.4 135.617 113.833 136.95 114.5L135.65 119.3ZM180.609 109.4L180.709 137.4L213.009 135.6V105.4L227.009 109.4V174.9L213.009 172V144.1L180.709 145.9L180.809 174.9L166.809 172V105.4L180.609 109.4ZM295.227 105.3L309.127 109.4V156.2C309.127 160 306.194 164.1 300.327 168.5C294.461 172.833 288.227 175 281.627 175C277.694 175 272.827 173 267.027 169C261.227 165 255.894 160.3 251.027 154.9C250.961 154.833 250.894 154.3 250.827 153.3C250.761 152.3 250.694 151 250.627 149.4C250.627 147.8 250.594 145.933 250.527 143.8C250.527 141.667 250.527 139.433 250.527 137.1C250.527 134.767 250.527 132.367 250.527 129.9C250.527 127.367 250.527 124.967 250.527 122.7C250.594 120.367 250.627 118.133 250.627 116C250.627 113.867 250.627 112.033 250.627 110.5C250.694 108.967 250.727 107.733 250.727 106.8V105.3C250.727 105.367 251.861 105.733 254.127 106.4C256.461 107.067 258.761 107.733 261.027 108.4L264.527 109.4C264.261 142.867 264.294 159.8 264.627 160.2C267.361 163.133 270.861 164.667 275.127 164.8C279.461 164.867 283.527 163.733 287.327 161.4C291.127 159.067 293.761 156.067 295.227 152.4V105.3ZM346.898 114.4L346.998 136.9C352.131 136.9 356.564 136.267 360.298 135C364.031 133.667 366.764 132.067 368.498 130.2C370.231 128.267 371.498 126.233 372.298 124.1C373.098 121.967 373.364 120.033 373.098 118.3C372.898 116.567 372.431 115.3 371.698 114.5C370.431 113.167 368.398 112.333 365.598 112C362.864 111.6 359.931 111.667 356.798 112.2C353.664 112.667 350.364 113.4 346.898 114.4ZM346.998 141.9L347.098 166.8C358.964 168 367.664 165.967 373.198 160.7C376.798 157.233 378.098 153.333 377.098 149C376.431 146.067 374.764 143.7 372.098 141.9C365.231 144.833 356.864 144.833 346.998 141.9ZM347.098 172.1L333.098 169V105.1C338.631 103.567 345.331 102.733 353.198 102.6C361.131 102.467 365.898 103 367.498 104.2C369.564 105.533 372.331 107.867 375.798 111.2C379.331 114.533 382.098 117.367 384.098 119.7C384.964 121.1 385.398 122.833 385.398 124.9C385.398 126.967 384.664 129.367 383.198 132.1C381.731 134.767 379.764 137.033 377.298 138.9C382.698 142.033 387.098 145.533 390.498 149.4C391.631 150.733 392.064 152.633 391.798 155.1C391.531 157.567 390.498 160.133 388.698 162.8C386.898 165.467 384.164 167.833 380.498 169.9C376.898 171.967 372.331 173.267 366.798 173.8C361.331 174.4 354.764 173.833 347.098 172.1ZM426.331 109.4L426.431 137.4L458.731 135.6V105.4L472.731 109.4V174.9L458.731 172V144.1L426.431 145.9L426.531 174.9L412.531 172V105.4L426.331 109.4Z" fill="white"/>
<path d="M108.029 93.9689C108.029 -50.6452 764.873 76.5927 1015.5 37.9995" stroke="url(#paint0_linear_209_109)" stroke-width="3" stroke-linecap="round"/>
<path d="M278.5 105.5C278.5 -17.0003 1056.28 147.983 1423 66.9995" stroke="url(#paint1_linear_209_109)" stroke-width="3" stroke-linecap="round"/>
<path d="M189 169C189 313 759.683 202.843 1361.5 232" stroke="url(#paint2_linear_209_109)" stroke-width="3" stroke-linecap="round"/>
<path d="M365.5 177C569.829 283.806 786.463 165.499 1255 165.5" stroke="url(#paint3_linear_209_109)" stroke-width="3" stroke-linecap="round"/>
<path d="M479.5 140C556.663 123.871 731.702 163.227 938.5 133.5" stroke="url(#paint4_linear_209_109)" stroke-width="3" stroke-linecap="round"/>
<path class="serenity" d="M1036.54 40.5742C1036.54 39.8337 1035.63 38.9906 1033.81 38.0449C1031.5 36.86 1029.93 35.9144 1029.11 35.208C1028.3 34.4902 1027.89 33.6927 1027.89 32.8154C1027.89 30.5482 1029.03 28.6683 1031.3 27.1758C1033.57 25.6833 1035.43 24.937 1036.87 24.937C1037.79 24.937 1038.46 25.0965 1038.87 25.4155C1039.29 25.7345 1039.5 26.2871 1039.5 27.0732C1039.5 27.4264 1039.35 27.7284 1039.04 27.979C1038.74 28.2297 1038.51 28.355 1038.34 28.355C1038.21 28.355 1037.97 28.2695 1037.6 28.0986C1037.24 27.9391 1037 27.8594 1036.88 27.8594C1036.31 27.8594 1035.16 28.2752 1033.41 29.1069C1031.67 29.9386 1030.8 30.8786 1030.8 31.9268C1030.8 32.5648 1031.11 33.1458 1031.72 33.6699C1032.34 34.1826 1033.44 34.8149 1035.04 35.5669C1036.33 36.1821 1037.35 36.8429 1038.11 37.5493C1038.89 38.2443 1039.28 39.0646 1039.28 40.0103C1039.28 41.7534 1038.07 43.1206 1035.67 44.1118C1033.27 45.0916 1030.97 45.5815 1028.78 45.5815C1026.94 45.5815 1026.01 44.9549 1026.01 43.7017C1026.01 43.2687 1026.22 42.9497 1026.63 42.7446C1027.05 42.5396 1027.47 42.437 1027.89 42.437C1028.07 42.437 1028.39 42.494 1028.87 42.6079C1029.34 42.7218 1029.64 42.7788 1029.79 42.7788C1031.06 42.7788 1032.41 42.568 1033.86 42.1465C1035.31 41.7249 1036.2 41.2008 1036.54 40.5742ZM1058.49 38.6943C1058.49 39.8564 1057.46 41.2578 1055.4 42.8984C1053.35 44.5391 1051.23 45.3594 1049.04 45.3594C1047.21 45.3594 1045.79 44.8182 1044.79 43.7358C1043.8 42.6535 1043.3 41.1439 1043.3 39.207C1043.3 35.9486 1044.4 32.8496 1046.6 29.9102C1048.8 26.9707 1051.2 25.501 1053.81 25.501C1054.67 25.501 1055.36 25.7801 1055.9 26.3384C1056.44 26.8966 1056.72 27.5688 1056.72 28.355C1056.72 30.1095 1055.86 31.79 1054.14 33.3965C1052.41 35.0029 1050.11 36.5809 1047.23 38.1304C1046.64 38.438 1046.34 38.8368 1046.34 39.3267C1046.34 40.2723 1046.62 41.0299 1047.16 41.5996C1047.71 42.1693 1048.52 42.4541 1049.59 42.4541C1052.04 42.4541 1054.54 41.0983 1057.09 38.3867C1057.47 38.0107 1057.75 37.8228 1057.95 37.8228C1058.31 37.8228 1058.49 38.1133 1058.49 38.6943ZM1046.62 36.0283C1051.45 33.1572 1053.86 30.8501 1053.86 29.1069C1053.86 28.4233 1053.55 28.0815 1052.94 28.0815C1051.89 28.0815 1050.71 28.8506 1049.38 30.3887C1048.07 31.9268 1047.15 33.8066 1046.62 36.0283ZM1066.58 37.7031C1066.7 37.498 1066.83 37.2132 1066.99 36.8486C1067.77 35.0713 1068.48 33.6813 1069.13 32.6787C1069.78 31.6647 1070.49 30.6963 1071.27 29.7734C1072.05 28.8506 1072.77 28.1499 1073.4 27.6714C1074.05 27.1929 1074.64 26.8625 1075.16 26.6802C1075.69 26.4865 1076.19 26.3896 1076.68 26.3896C1077.68 26.3896 1078.48 26.6916 1079.11 27.2954C1079.74 27.8879 1080.05 28.5828 1080.05 29.3804C1080.05 29.7336 1079.94 30.0526 1079.71 30.3374C1079.49 30.6222 1079.16 30.7646 1078.7 30.7646C1078.22 30.7646 1077.78 30.5539 1077.38 30.1323C1076.97 29.7108 1076.55 29.5 1076.1 29.5C1074.92 29.5 1073.28 30.9355 1071.18 33.8066C1069.08 36.6777 1067.81 39.8394 1067.35 43.2915C1067.24 44.1802 1067.02 44.7669 1066.7 45.0518C1066.38 45.3366 1065.93 45.479 1065.35 45.479C1064.8 45.479 1064.39 45.0632 1064.14 44.2314C1063.89 43.3997 1063.76 41.9984 1063.76 40.0273C1063.76 39.4919 1063.79 38.3127 1063.85 36.4897C1063.92 34.3364 1064.05 32.599 1064.26 31.2773C1064.29 31.0609 1064.35 30.5539 1064.43 29.7563C1064.51 28.8791 1064.61 28.2695 1064.72 27.9277C1064.85 27.5859 1065.09 27.2669 1065.46 26.9707C1065.83 26.6745 1066.24 26.5264 1066.67 26.5264C1067.09 26.5264 1067.4 26.6631 1067.61 26.9365C1067.83 27.1986 1067.93 27.4834 1067.93 27.791C1067.93 28.2354 1067.82 28.862 1067.59 29.6709C1067.33 30.571 1067.18 31.1919 1067.13 31.5337C1067.1 31.9211 1067.03 32.3255 1066.94 32.7471C1066.83 33.237 1066.72 34.5244 1066.6 36.6094L1066.58 37.2417V37.7031ZM1096.82 38.6943C1096.82 39.8564 1095.79 41.2578 1093.73 42.8984C1091.68 44.5391 1089.56 45.3594 1087.37 45.3594C1085.54 45.3594 1084.12 44.8182 1083.12 43.7358C1082.13 42.6535 1081.63 41.1439 1081.63 39.207C1081.63 35.9486 1082.73 32.8496 1084.93 29.9102C1087.13 26.9707 1089.53 25.501 1092.14 25.501C1093 25.501 1093.69 25.7801 1094.23 26.3384C1094.77 26.8966 1095.05 27.5688 1095.05 28.355C1095.05 30.1095 1094.19 31.79 1092.47 33.3965C1090.75 35.0029 1088.44 36.5809 1085.56 38.1304C1084.97 38.438 1084.67 38.8368 1084.67 39.3267C1084.67 40.2723 1084.95 41.0299 1085.49 41.5996C1086.04 42.1693 1086.85 42.4541 1087.92 42.4541C1090.37 42.4541 1092.87 41.0983 1095.42 38.3867C1095.8 38.0107 1096.08 37.8228 1096.28 37.8228C1096.64 37.8228 1096.82 38.1133 1096.82 38.6943ZM1084.95 36.0283C1089.78 33.1572 1092.19 30.8501 1092.19 29.1069C1092.19 28.4233 1091.88 28.0815 1091.27 28.0815C1090.22 28.0815 1089.04 28.8506 1087.71 30.3887C1086.4 31.9268 1085.48 33.8066 1084.95 36.0283ZM1113.1 31.3457C1112.51 31.3457 1111.86 31.7331 1111.15 32.5078C1110.46 33.2826 1109.39 35.02 1107.96 37.7202C1106.07 41.3433 1104.84 43.4054 1104.28 43.9067C1103.74 44.408 1103.28 44.6587 1102.92 44.6587C1101.57 44.6587 1100.9 44.0093 1100.9 42.7104C1100.9 42.1636 1100.99 41.3888 1101.17 40.3862C1101.8 36.9455 1102.11 33.3167 1102.11 29.5C1102.11 29.0671 1102.29 28.5885 1102.66 28.0645C1103.03 27.529 1103.39 27.2612 1103.72 27.2612C1104.31 27.2612 1104.73 27.4435 1104.98 27.8081C1105.23 28.1727 1105.36 28.9076 1105.36 30.0127C1105.36 31.1634 1105.02 33.5332 1104.33 37.1221C1104.11 38.307 1103.99 39.0589 1103.99 39.3779C1103.99 39.5602 1104.04 39.6514 1104.13 39.6514C1104.3 39.6514 1105.09 38.2899 1106.5 35.5669C1107.93 32.7983 1109.18 30.8501 1110.25 29.7222C1111.32 28.5942 1112.5 28.0303 1113.78 28.0303C1114.81 28.0303 1115.64 28.4974 1116.28 29.4316C1116.93 30.3659 1117.4 32.0692 1117.7 34.5415C1118.02 37.3556 1118.3 39.1102 1118.55 39.8052C1118.81 40.4888 1119.22 40.8306 1119.78 40.8306C1120.14 40.8306 1120.58 40.7052 1121.12 40.4546C1121.21 40.409 1121.28 40.3862 1121.32 40.3862C1121.81 40.3862 1122.06 40.6711 1122.06 41.2407C1122.06 41.742 1121.72 42.2775 1121.05 42.8472C1120.38 43.4054 1119.57 43.6846 1118.62 43.6846C1117.65 43.6846 1116.9 43.3029 1116.36 42.5396C1115.84 41.7648 1115.42 39.7083 1115.12 36.3701C1114.8 33.0205 1114.13 31.3457 1113.1 31.3457ZM1131.22 21.6045C1130.98 21.6045 1130.8 21.3481 1130.68 20.8354C1130.63 20.6759 1130.57 20.4993 1130.49 20.3057C1130.18 19.5651 1130.03 18.9214 1130.03 18.3745C1130.03 17.9188 1130.29 17.4574 1130.83 16.9902C1131.38 16.5117 1131.98 16.2725 1132.64 16.2725C1132.97 16.2725 1133.34 16.4035 1133.75 16.6655C1134.16 16.9162 1134.37 17.1611 1134.37 17.4004C1134.37 17.7764 1134.23 18.4144 1133.94 19.3145C1133.67 20.2145 1133.22 20.8241 1132.61 21.1431C1132 21.4507 1131.54 21.6045 1131.22 21.6045ZM1128.98 40.6938C1128.98 41.5597 1129.1 42.5339 1129.34 43.6162C1129.39 43.8213 1129.41 43.9922 1129.41 44.1289C1129.41 44.334 1129.22 44.596 1128.85 44.915C1128.47 45.2454 1128.07 45.4106 1127.65 45.4106C1126.55 45.4106 1125.99 44.3966 1125.99 42.3687C1125.99 40.2723 1126.43 36.9569 1127.29 32.4224C1127.59 30.8387 1127.74 29.8646 1127.74 29.5C1127.74 28.7822 1127.87 28.1727 1128.13 27.6714C1128.39 27.1587 1128.76 26.9023 1129.24 26.9023C1129.82 26.9023 1130.28 27.0448 1130.61 27.3296C1130.95 27.603 1131.12 27.9106 1131.12 28.2524C1131.12 28.5942 1131.04 29.0443 1130.88 29.6025C1130.03 32.6104 1129.5 34.7637 1129.29 36.0625C1129.09 37.3613 1128.98 38.9051 1128.98 40.6938ZM1143.84 27.2441C1145.02 27.153 1146.12 27.0448 1147.16 26.9194C1148.18 26.8055 1149.04 26.7485 1149.72 26.7485C1150.59 26.7485 1151.13 26.8283 1151.36 26.9878C1151.59 27.1473 1151.7 27.4264 1151.7 27.8252C1151.7 28.748 1151.06 29.2493 1149.77 29.3291C1148.12 29.4316 1146.6 29.5741 1145.21 29.7563C1143.82 29.9386 1143.07 30.0924 1142.95 30.2178C1142.85 30.3317 1142.51 31.6875 1141.93 34.2852C1141.35 36.8714 1141.06 38.5519 1141.06 39.3267C1141.06 40.5799 1141.22 41.4173 1141.55 41.8389C1141.88 42.249 1142.38 42.4541 1143.04 42.4541C1144.02 42.4541 1145.38 41.7192 1147.12 40.2495C1147.8 39.6457 1148.32 39.3438 1148.68 39.3438C1149.17 39.3438 1149.41 39.6058 1149.41 40.1299C1149.41 40.9502 1148.62 42.0155 1147.04 43.3257C1145.47 44.6245 1143.85 45.2739 1142.2 45.2739C1139.45 45.2739 1138.07 43.6504 1138.07 40.4033C1138.07 39.2298 1138.35 37.4126 1138.92 34.9517C1139.48 32.5021 1139.76 31.0324 1139.76 30.5425C1139.76 30.3716 1139.62 30.2861 1139.35 30.2861L1137.57 30.4399C1136.11 30.4399 1135.38 29.8589 1135.38 28.6968C1135.38 28.036 1135.72 27.7056 1136.39 27.7056H1139.91C1140.15 27.7056 1140.36 27.5973 1140.54 27.3809C1140.73 27.1644 1140.99 26.4409 1141.35 25.2104C1141.7 23.9686 1142.01 22.7438 1142.29 21.5361C1142.56 20.3398 1143.1 19.7417 1143.89 19.7417C1144.38 19.7417 1144.77 19.9126 1145.04 20.2544C1145.31 20.5962 1145.45 20.9152 1145.45 21.2114C1145.45 21.3709 1145.24 22.1855 1144.83 23.6553L1143.84 27.2441ZM1166.97 38.4551C1164.88 40.278 1163.03 41.6053 1161.44 42.437C1159.85 43.2573 1158.64 43.6675 1157.8 43.6675C1156.67 43.6675 1155.8 43.2004 1155.2 42.2661C1154.61 41.3205 1154.31 40.221 1154.31 38.9678C1154.31 37.2132 1154.66 35.0485 1155.37 32.4736C1156.09 29.8874 1156.62 28.355 1156.96 27.8765C1157.31 27.3866 1157.87 27.1416 1158.63 27.1416C1158.95 27.1416 1159.21 27.3296 1159.42 27.7056C1159.62 28.0815 1159.73 28.5088 1159.73 28.9873C1159.73 29.2721 1159.6 29.6424 1159.33 30.0981C1158.72 31.1691 1158.39 31.7616 1158.36 31.8755C1158.34 31.9894 1158.12 32.6787 1157.71 33.9434C1157.3 35.1966 1157.1 36.3758 1157.1 37.481C1157.1 37.8683 1157.19 38.4722 1157.37 39.2925C1157.56 40.1128 1157.96 40.5229 1158.55 40.5229C1159.17 40.5229 1159.94 40.335 1160.86 39.959C1161.78 39.5716 1162.81 38.945 1163.97 38.0791C1165.12 37.2132 1165.89 36.5125 1166.29 35.9771C1166.69 35.4416 1166.97 34.832 1167.13 34.1484C1167.3 33.4648 1167.42 31.9837 1167.49 29.7051C1167.55 27.4264 1168.11 26.2871 1169.14 26.2871C1169.76 26.2871 1170.16 26.4523 1170.34 26.7827C1170.52 27.1017 1170.61 27.717 1170.61 28.6284C1170.61 29.3804 1170.56 30.3203 1170.46 31.4482C1170.33 32.8724 1170.25 33.8864 1170.22 34.4902C1170.06 37.6234 1169.65 40.7736 1168.99 43.9409C1168.34 47.0968 1167.39 49.7344 1166.14 51.8535C1164.88 53.984 1163.16 55.0493 1160.96 55.0493C1158.72 55.0493 1156.74 54.4626 1154.99 53.2891C1153.26 52.127 1152.4 51.1414 1152.4 50.3325C1152.4 49.9565 1152.48 49.5863 1152.65 49.2217C1152.83 48.8571 1153.06 48.6748 1153.34 48.6748C1153.47 48.6748 1153.62 48.783 1153.78 48.9995C1155.27 51.2896 1157.62 52.4346 1160.82 52.4346C1162.47 52.4346 1163.86 50.9819 1164.97 48.0767C1166.1 45.1828 1166.72 42.4655 1166.84 39.9248C1166.86 39.4349 1166.9 38.945 1166.97 38.4551Z" fill="white"/>
<path class="uplift" d="M1445.03 61.5659C1443.58 64.0155 1442.08 65.9124 1440.56 67.2568C1439.03 68.6012 1437.61 69.2734 1436.3 69.2734C1435.55 69.2734 1434.78 68.8348 1433.99 67.9575C1433.22 67.0802 1432.83 65.7301 1432.83 63.9072C1432.83 62.4147 1433.19 60.2158 1433.91 57.3105C1434.51 54.8838 1434.82 53.1805 1434.82 52.2007C1435.15 51.5171 1435.66 51.1753 1436.37 51.1753C1436.85 51.1753 1437.23 51.3462 1437.52 51.688C1437.8 52.0184 1437.94 52.3659 1437.94 52.7305C1437.94 53.528 1437.66 54.6616 1437.11 56.1313C1436.05 58.991 1435.52 61.4463 1435.52 63.4971C1435.52 65.3656 1435.95 66.2998 1436.81 66.2998C1437.92 66.2998 1439.33 65.3599 1441.04 63.48C1442.74 61.6001 1444.21 58.9797 1445.43 55.6187C1445.91 54.2743 1446.29 53.4027 1446.59 53.0039C1446.9 52.5938 1447.31 52.3887 1447.82 52.3887C1448.6 52.3887 1448.98 52.9014 1448.98 53.9268C1448.98 54.0521 1448.87 54.4679 1448.66 55.1743C1447.97 57.6694 1447.63 60.0278 1447.63 62.2495C1447.63 64.9155 1448.07 66.6416 1448.95 67.4277C1449.4 67.8493 1449.63 68.1911 1449.63 68.4531C1449.63 68.7721 1449.4 69.0627 1448.93 69.3247C1448.48 69.5868 1448.06 69.7178 1447.68 69.7178C1446.89 69.7178 1446.24 69.1253 1445.75 67.9404C1445.26 66.7555 1445.02 65.0067 1445.02 62.6938V62.1299C1445.02 61.9476 1445.02 61.7596 1445.03 61.5659ZM1458.68 67.0176C1458.12 69.0684 1457.6 71.9451 1457.11 75.6479L1456.63 78.8779C1456.55 79.3337 1456.34 79.7837 1456 80.228C1455.66 80.6838 1455.34 80.9116 1455.06 80.9116C1454.7 80.9116 1454.3 80.7293 1453.84 80.3647C1453.4 80.0116 1453.18 79.7267 1453.18 79.5103C1453.18 78.8836 1453.32 78.0177 1453.6 76.9126C1455.69 68.493 1456.73 61.0988 1456.73 54.73L1456.71 53.2944C1456.69 52.064 1456.91 51.1696 1457.36 50.6113C1457.82 50.0531 1458.34 49.7739 1458.94 49.7739C1459.21 49.7739 1459.47 49.9904 1459.72 50.4233C1459.97 50.8449 1460.1 51.4487 1460.1 52.2349C1460.1 53.34 1459.98 54.6787 1459.76 56.251C1459.46 58.2334 1459.31 59.3727 1459.3 59.6689C1460.99 56.7067 1462.79 54.3939 1464.7 52.7305C1466.6 51.0671 1468.36 50.2354 1469.99 50.2354C1471.14 50.2354 1472.11 50.6683 1472.9 51.5342C1473.7 52.3887 1474.1 53.4539 1474.1 54.73C1474.1 58.4442 1472.67 61.8166 1469.82 64.8472C1466.97 67.8778 1464.2 69.3931 1461.5 69.3931C1460.83 69.3931 1460.29 69.2222 1459.89 68.8804C1459.51 68.5386 1459.1 67.9176 1458.68 67.0176ZM1469.29 53.2603C1467.69 53.2603 1465.7 54.7642 1463.33 57.772C1460.96 60.7798 1459.77 63.1211 1459.77 64.7959C1459.77 65.2061 1460.01 65.6048 1460.47 65.9922C1460.94 66.3796 1461.53 66.5732 1462.25 66.5732C1463.88 66.5732 1465.76 65.3713 1467.87 62.9673C1469.99 60.5519 1471.05 58.1821 1471.05 55.8579C1471.05 55.0262 1470.88 54.3882 1470.54 53.9438C1470.21 53.4881 1469.79 53.2603 1469.29 53.2603ZM1485.04 40.0669C1485.86 40.0669 1486.27 40.591 1486.27 41.6392C1486.27 42.5734 1485.77 44.7951 1484.78 48.3042C1484.16 50.5145 1483.67 52.9526 1483.33 55.6187C1482.99 58.2847 1482.82 60.3753 1482.82 61.8906C1482.82 63.7705 1482.94 65.639 1483.18 67.4961C1483.22 67.8493 1483.25 68.1056 1483.25 68.2651C1483.25 68.8348 1483.05 69.3247 1482.66 69.7349C1482.28 70.145 1481.87 70.3501 1481.43 70.3501C1480.83 70.3501 1480.41 69.9741 1480.17 69.2222C1479.94 68.4702 1479.83 67.2568 1479.83 65.582C1479.83 61.7653 1480.28 57.0371 1481.19 51.3975C1482.12 45.7578 1482.85 42.4595 1483.38 41.5024C1483.93 40.5454 1484.48 40.0669 1485.04 40.0669ZM1495.63 46.1167C1495.39 46.1167 1495.2 45.8604 1495.08 45.3477C1495.03 45.1882 1494.97 45.0116 1494.89 44.8179C1494.58 44.0773 1494.43 43.4336 1494.43 42.8867C1494.43 42.431 1494.7 41.9696 1495.23 41.5024C1495.78 41.0239 1496.38 40.7847 1497.04 40.7847C1497.38 40.7847 1497.75 40.9157 1498.16 41.1777C1498.57 41.4284 1498.77 41.6733 1498.77 41.9126C1498.77 42.2886 1498.63 42.9266 1498.34 43.8267C1498.07 44.7267 1497.63 45.3363 1497.01 45.6553C1496.41 45.9629 1495.95 46.1167 1495.63 46.1167ZM1493.39 65.2061C1493.39 66.0719 1493.51 67.0461 1493.75 68.1284C1493.79 68.3335 1493.81 68.5044 1493.81 68.6411C1493.81 68.8462 1493.63 69.1082 1493.25 69.4272C1492.87 69.7576 1492.48 69.9229 1492.05 69.9229C1490.95 69.9229 1490.4 68.9089 1490.4 66.8809C1490.4 64.7845 1490.83 61.4691 1491.7 56.9346C1491.99 55.3509 1492.14 54.3768 1492.14 54.0122C1492.14 53.2944 1492.27 52.6849 1492.53 52.1836C1492.8 51.6709 1493.17 51.4146 1493.64 51.4146C1494.22 51.4146 1494.68 51.557 1495.01 51.8418C1495.35 52.1152 1495.52 52.4229 1495.52 52.7646C1495.52 53.1064 1495.44 53.5565 1495.28 54.1147C1494.43 57.1226 1493.9 59.2759 1493.7 60.5747C1493.49 61.8735 1493.39 63.4173 1493.39 65.2061ZM1504.69 69.7861C1504.61 70.071 1504.4 70.3102 1504.04 70.5039C1503.69 70.6976 1503.34 70.7944 1502.98 70.7944C1501.82 70.7944 1501.24 69.9456 1501.24 68.248C1501.24 67.4391 1501.51 65.1491 1502.04 61.3779C1502.37 59.0651 1502.54 57.3105 1502.54 56.1143C1502.54 55.9092 1502.3 55.6414 1501.82 55.311C1501.33 54.992 1501.09 54.6787 1501.09 54.3711C1501.09 53.8812 1501.46 53.3514 1502.2 52.7817C1502.77 52.3374 1503.11 51.8418 1503.24 51.2949C1503.38 50.748 1503.53 49.9904 1503.7 49.022C1504.28 45.4901 1505.19 42.9437 1506.42 41.3828C1507.66 39.8219 1509.24 39.0415 1511.15 39.0415C1512.17 39.0415 1513.03 39.389 1513.73 40.084C1514.44 40.7676 1514.79 41.6221 1514.79 42.6475C1514.79 43.4792 1514.59 44.4248 1514.19 45.4844C1513.81 46.5326 1513.36 47.0566 1512.86 47.0566C1512.48 47.0566 1512.3 46.8687 1512.3 46.4927L1512.42 44.835C1512.42 42.6361 1511.8 41.5366 1510.57 41.5366C1509.24 41.5366 1508.13 42.8468 1507.25 45.4673C1506.38 48.0763 1505.94 50.2012 1505.94 51.8418C1505.94 52.3659 1506.28 52.6279 1506.96 52.6279C1509.94 52.6279 1511.69 52.6165 1512.21 52.5938C1512.75 52.571 1513.01 52.7931 1513.01 53.2603C1513.01 53.7274 1512.72 54.0863 1512.14 54.3369C1511.57 54.5762 1510.32 54.7926 1508.38 54.9863C1506.73 55.1572 1505.8 55.2996 1505.58 55.4136C1504.82 59.6519 1504.44 63.4287 1504.44 66.7441C1504.44 67.7354 1504.48 68.4702 1504.57 68.9487C1504.65 69.3931 1504.69 69.6722 1504.69 69.7861ZM1522.35 51.7563C1523.53 51.6652 1524.63 51.557 1525.67 51.4316C1526.69 51.3177 1527.55 51.2607 1528.23 51.2607C1529.1 51.2607 1529.64 51.3405 1529.87 51.5C1530.1 51.6595 1530.21 51.9386 1530.21 52.3374C1530.21 53.2603 1529.57 53.7616 1528.28 53.8413C1526.63 53.9438 1525.11 54.0863 1523.72 54.2686C1522.33 54.4508 1521.58 54.6047 1521.46 54.73C1521.36 54.8439 1521.02 56.1997 1520.44 58.7974C1519.86 61.3836 1519.57 63.0641 1519.57 63.8389C1519.57 65.0921 1519.73 65.9295 1520.06 66.3511C1520.39 66.7612 1520.89 66.9663 1521.55 66.9663C1522.53 66.9663 1523.89 66.2314 1525.63 64.7617C1526.31 64.1579 1526.82 63.856 1527.19 63.856C1527.68 63.856 1527.92 64.118 1527.92 64.6421C1527.92 65.4624 1527.13 66.5277 1525.55 67.8379C1523.98 69.1367 1522.36 69.7861 1520.71 69.7861C1517.95 69.7861 1516.58 68.1626 1516.58 64.9155C1516.58 63.742 1516.86 61.9248 1517.43 59.4639C1517.99 57.0143 1518.27 55.5446 1518.27 55.0547C1518.27 54.8838 1518.13 54.7983 1517.86 54.7983L1516.08 54.9521C1514.62 54.9521 1513.89 54.3711 1513.89 53.209C1513.89 52.5482 1514.23 52.2178 1514.9 52.2178H1518.42C1518.66 52.2178 1518.87 52.1095 1519.05 51.8931C1519.24 51.6766 1519.5 50.9531 1519.86 49.7227C1520.21 48.4808 1520.52 47.256 1520.8 46.0483C1521.07 44.8521 1521.61 44.2539 1522.4 44.2539C1522.89 44.2539 1523.28 44.4248 1523.55 44.7666C1523.82 45.1084 1523.96 45.4274 1523.96 45.7236C1523.96 45.8831 1523.75 46.6978 1523.34 48.1675L1522.35 51.7563Z" fill="white"/>
<path class="heart" d="M952.383 136.971C956.621 129.144 960.113 125.23 962.859 125.23C963.588 125.23 964.181 125.646 964.636 126.478C965.092 127.309 965.462 129.155 965.747 132.015C966.032 135.057 966.676 137.256 967.678 138.611C968.191 139.306 968.447 139.819 968.447 140.149C968.447 140.446 968.276 140.719 967.935 140.97C967.593 141.22 967.228 141.346 966.841 141.346C965.952 141.346 965.166 140.85 964.483 139.859C963.799 138.856 963.36 137.102 963.167 134.595C962.973 132.225 962.768 130.676 962.551 129.947C962.335 129.218 961.976 128.853 961.475 128.853C960.278 128.853 957.869 131.98 954.246 138.235C953.163 140.104 952.366 141.329 951.853 141.91C951.34 142.479 950.873 142.764 950.452 142.764C949.95 142.764 949.529 142.616 949.187 142.32C948.845 142.024 948.674 141.659 948.674 141.226C948.674 140.907 948.766 140.292 948.948 139.38C950.349 132.146 951.454 124.991 952.263 117.916C952.446 116.264 952.736 115.164 953.135 114.617C953.545 114.07 953.887 113.797 954.16 113.797C954.65 113.797 955.095 113.996 955.493 114.395C955.892 114.794 956.091 115.346 956.091 116.053C956.091 118.149 955.579 121.026 954.553 124.683C954.052 126.495 953.522 128.796 952.964 131.587C952.406 134.379 952.127 136.105 952.127 136.766C952.127 136.902 952.189 136.971 952.315 136.971H952.383ZM987.168 136.304C987.168 137.466 986.137 138.868 984.075 140.508C982.024 142.149 979.905 142.969 977.718 142.969C975.883 142.969 974.465 142.428 973.462 141.346C972.471 140.263 971.975 138.754 971.975 136.817C971.975 133.558 973.075 130.459 975.274 127.52C977.473 124.581 979.877 123.111 982.486 123.111C983.34 123.111 984.035 123.39 984.571 123.948C985.117 124.507 985.391 125.179 985.391 125.965C985.391 127.719 984.531 129.4 982.81 131.006C981.09 132.613 978.789 134.191 975.906 135.74C975.314 136.048 975.017 136.447 975.017 136.937C975.017 137.882 975.291 138.64 975.838 139.209C976.385 139.779 977.193 140.064 978.264 140.064C980.714 140.064 983.215 138.708 985.767 135.997C986.143 135.621 986.428 135.433 986.621 135.433C986.986 135.433 987.168 135.723 987.168 136.304ZM975.291 133.638C980.122 130.767 982.537 128.46 982.537 126.717C982.537 126.033 982.229 125.691 981.614 125.691C980.566 125.691 979.381 126.46 978.059 127.999C976.749 129.537 975.826 131.417 975.291 133.638ZM1003.33 135.877C1001.73 138.019 1000.15 139.625 998.592 140.696C997.031 141.767 995.601 142.303 994.302 142.303C993.425 142.303 992.667 141.932 992.029 141.192C991.391 140.451 991.072 139.5 991.072 138.338C991.072 135.341 992.411 132.117 995.088 128.665C997.766 125.201 1000.43 123.47 1003.07 123.47C1004.03 123.47 1004.74 124.017 1005.21 125.11C1005.35 125.475 1005.59 125.657 1005.91 125.657C1006.82 125.657 1007.27 126.01 1007.27 126.717C1007.27 127.07 1007.22 127.554 1007.1 128.169C1006.49 131.53 1006.18 133.9 1006.18 135.279C1006.18 138.036 1006.7 139.688 1007.75 140.235C1008.25 140.508 1008.5 140.844 1008.5 141.243C1008.5 141.596 1008.26 141.95 1007.77 142.303C1007.28 142.667 1006.81 142.85 1006.35 142.85C1005.47 142.85 1004.75 142.246 1004.18 141.038C1003.61 139.83 1003.33 138.11 1003.33 135.877ZM1002.28 126.255C1000.78 126.255 999.03 127.668 997.037 130.494C995.043 133.308 994.046 135.643 994.046 137.5C994.046 138.811 994.479 139.466 995.345 139.466C996.598 139.466 998.335 138.201 1000.56 135.672C1002.78 133.143 1003.89 130.818 1003.89 128.699C1003.89 127.07 1003.35 126.255 1002.28 126.255ZM1016.85 135.313C1016.97 135.108 1017.1 134.823 1017.26 134.458C1018.04 132.681 1018.75 131.291 1019.4 130.289C1020.05 129.275 1020.76 128.306 1021.53 127.383C1022.32 126.46 1023.03 125.76 1023.67 125.281C1024.32 124.803 1024.91 124.472 1025.43 124.29C1025.95 124.096 1026.46 124 1026.95 124C1027.94 124 1028.75 124.301 1029.38 124.905C1030 125.498 1030.32 126.193 1030.32 126.99C1030.32 127.343 1030.2 127.662 1029.98 127.947C1029.76 128.232 1029.42 128.375 1028.97 128.375C1028.49 128.375 1028.05 128.164 1027.65 127.742C1027.24 127.321 1026.81 127.11 1026.37 127.11C1025.19 127.11 1023.54 128.545 1021.45 131.417C1019.35 134.288 1018.08 137.449 1017.62 140.901C1017.51 141.79 1017.29 142.377 1016.97 142.662C1016.65 142.946 1016.2 143.089 1015.62 143.089C1015.06 143.089 1014.66 142.673 1014.41 141.841C1014.16 141.01 1014.03 139.608 1014.03 137.637C1014.03 137.102 1014.06 135.923 1014.12 134.1C1014.19 131.946 1014.32 130.209 1014.53 128.887C1014.56 128.671 1014.62 128.164 1014.7 127.366C1014.78 126.489 1014.87 125.879 1014.99 125.538C1015.11 125.196 1015.36 124.877 1015.72 124.581C1016.1 124.284 1016.5 124.136 1016.94 124.136C1017.36 124.136 1017.67 124.273 1017.88 124.546C1018.09 124.808 1018.2 125.093 1018.2 125.401C1018.2 125.845 1018.09 126.472 1017.86 127.281C1017.6 128.181 1017.44 128.802 1017.4 129.144C1017.36 129.531 1017.3 129.935 1017.21 130.357C1017.1 130.847 1016.98 132.134 1016.87 134.219L1016.85 134.852V135.313ZM1040.78 124.854C1041.96 124.763 1043.06 124.655 1044.1 124.529C1045.13 124.415 1045.98 124.358 1046.66 124.358C1047.53 124.358 1048.08 124.438 1048.3 124.598C1048.53 124.757 1048.65 125.036 1048.65 125.435C1048.65 126.358 1048 126.859 1046.71 126.939C1045.06 127.042 1043.54 127.184 1042.15 127.366C1040.76 127.549 1040.01 127.702 1039.9 127.828C1039.79 127.942 1039.45 129.297 1038.87 131.895C1038.29 134.481 1038 136.162 1038 136.937C1038 138.19 1038.16 139.027 1038.49 139.449C1038.82 139.859 1039.32 140.064 1039.98 140.064C1040.96 140.064 1042.32 139.329 1044.07 137.859C1044.74 137.256 1045.26 136.954 1045.62 136.954C1046.11 136.954 1046.36 137.216 1046.36 137.74C1046.36 138.56 1045.56 139.625 1043.98 140.936C1042.41 142.234 1040.8 142.884 1039.14 142.884C1036.39 142.884 1035.01 141.26 1035.01 138.013C1035.01 136.84 1035.29 135.022 1035.86 132.562C1036.42 130.112 1036.7 128.642 1036.7 128.152C1036.7 127.981 1036.56 127.896 1036.29 127.896L1034.51 128.05C1033.05 128.05 1032.33 127.469 1032.33 126.307C1032.33 125.646 1032.66 125.315 1033.33 125.315H1036.85C1037.09 125.315 1037.3 125.207 1037.49 124.991C1037.67 124.774 1037.94 124.051 1038.29 122.82C1038.64 121.578 1038.96 120.354 1039.23 119.146C1039.5 117.95 1040.04 117.352 1040.84 117.352C1041.33 117.352 1041.71 117.522 1041.98 117.864C1042.25 118.206 1042.39 118.525 1042.39 118.821C1042.39 118.981 1042.19 119.795 1041.78 121.265L1040.78 124.854Z" fill="white"/>
<path class="broken" d="M1274.7 168.276C1276.16 165.621 1277.91 163.474 1279.93 161.833C1281.96 160.181 1283.79 159.355 1285.42 159.355C1286.32 159.355 1287.08 159.771 1287.71 160.603C1288.34 161.434 1288.65 162.448 1288.65 163.645C1288.65 167.188 1287.31 170.515 1284.63 173.625C1281.97 176.724 1279.15 178.273 1276.17 178.273C1275.37 178.273 1274.62 178.057 1273.94 177.624C1273.26 177.18 1272.89 176.627 1272.81 175.966C1272.76 175.431 1272.61 175.032 1272.35 174.77C1271.86 174.28 1271.61 173.756 1271.61 173.198C1271.61 172.161 1271.9 169.945 1272.47 166.55L1274.23 156.33C1274.83 152.901 1275.27 150.782 1275.54 149.973C1275.83 149.164 1276.14 148.623 1276.48 148.349C1276.82 148.076 1277.25 147.939 1277.75 147.939C1278.54 147.939 1278.94 148.628 1278.94 150.007C1278.94 151.317 1278.5 153.151 1277.63 155.51C1276.78 157.777 1275.81 162.032 1274.7 168.276ZM1274.29 173.967C1274.89 175.072 1275.6 175.625 1276.45 175.625C1277.75 175.625 1279.12 175.089 1280.57 174.018C1282.01 172.936 1283.26 171.42 1284.31 169.472C1285.37 167.513 1285.9 165.861 1285.9 164.516C1285.9 163.912 1285.79 163.394 1285.57 162.961C1285.36 162.528 1285.08 162.312 1284.75 162.312C1283.17 162.312 1281.23 163.61 1278.94 166.208C1276.66 168.794 1275.11 171.381 1274.29 173.967ZM1296.45 171.215C1296.56 171.01 1296.7 170.725 1296.86 170.361C1297.64 168.583 1298.35 167.194 1299 166.191C1299.65 165.177 1300.36 164.208 1301.13 163.286C1301.92 162.363 1302.63 161.662 1303.27 161.184C1303.92 160.705 1304.51 160.375 1305.03 160.192C1305.55 159.999 1306.06 159.902 1306.55 159.902C1307.54 159.902 1308.35 160.204 1308.98 160.808C1309.6 161.4 1309.92 162.095 1309.92 162.893C1309.92 163.246 1309.8 163.565 1309.58 163.85C1309.36 164.134 1309.02 164.277 1308.57 164.277C1308.09 164.277 1307.65 164.066 1307.25 163.645C1306.84 163.223 1306.41 163.012 1305.97 163.012C1304.78 163.012 1303.14 164.448 1301.05 167.319C1298.95 170.19 1297.68 173.352 1297.22 176.804C1297.11 177.692 1296.89 178.279 1296.57 178.564C1296.25 178.849 1295.8 178.991 1295.22 178.991C1294.66 178.991 1294.26 178.575 1294.01 177.744C1293.76 176.912 1293.63 175.511 1293.63 173.54C1293.63 173.004 1293.66 171.825 1293.72 170.002C1293.78 167.849 1293.92 166.111 1294.13 164.79C1294.16 164.573 1294.22 164.066 1294.3 163.269C1294.38 162.391 1294.47 161.782 1294.59 161.44C1294.71 161.098 1294.96 160.779 1295.32 160.483C1295.7 160.187 1296.1 160.039 1296.54 160.039C1296.96 160.039 1297.27 160.175 1297.48 160.449C1297.69 160.711 1297.8 160.996 1297.8 161.303C1297.8 161.748 1297.69 162.374 1297.46 163.183C1297.2 164.083 1297.04 164.704 1297 165.046C1296.96 165.433 1296.9 165.838 1296.81 166.259C1296.7 166.749 1296.58 168.037 1296.47 170.122L1296.45 170.754V171.215ZM1316.88 178.854C1315.32 178.854 1314.03 178.262 1313.02 177.077C1312 175.892 1311.5 174.428 1311.5 172.685C1311.5 169.746 1312.48 166.852 1314.45 164.003C1316.44 161.144 1318.81 159.714 1321.56 159.714C1323.39 159.714 1324.86 160.415 1325.99 161.816C1327.13 163.217 1327.7 164.886 1327.7 166.823C1327.7 169.785 1326.52 172.531 1324.18 175.061C1321.84 177.59 1319.41 178.854 1316.88 178.854ZM1314.5 172.241C1314.5 173.391 1314.74 174.331 1315.22 175.061C1315.71 175.79 1316.36 176.154 1317.15 176.154C1318.85 176.154 1320.55 175.226 1322.26 173.369C1323.97 171.5 1324.83 169.427 1324.83 167.148C1324.83 165.747 1324.5 164.613 1323.84 163.747C1323.19 162.87 1322.31 162.431 1321.2 162.431C1319.37 162.431 1317.79 163.559 1316.47 165.815C1315.16 168.059 1314.5 170.201 1314.5 172.241ZM1336.05 170.019C1336.19 169.825 1337.21 168.908 1339.1 167.268C1340.89 165.707 1342.14 164.573 1342.85 163.867C1345.48 161.235 1347.37 159.919 1348.52 159.919C1349.41 159.919 1349.85 160.346 1349.85 161.201C1349.85 162.169 1349.42 162.881 1348.54 163.337C1347.4 163.918 1345.88 164.886 1343.98 166.242C1342.07 167.587 1341.12 168.538 1341.12 169.096C1341.12 169.324 1341.79 170.179 1343.14 171.66C1344.48 173.129 1345.64 174.217 1346.62 174.924C1347.6 175.619 1348.56 175.966 1349.48 175.966L1350.04 175.949C1350.44 175.926 1350.64 176.103 1350.64 176.479C1350.64 176.98 1350.33 177.487 1349.7 178C1349.07 178.524 1348.25 178.786 1347.22 178.786C1346.56 178.786 1345.89 178.553 1345.21 178.085C1344.53 177.63 1343.33 176.388 1341.6 174.36C1340.22 172.685 1339.36 171.688 1339.02 171.369C1338.68 171.039 1338.39 170.874 1338.16 170.874C1338.04 170.874 1337.64 171.17 1336.97 171.762C1336.3 172.355 1335.93 172.805 1335.86 173.112C1335.8 173.42 1335.77 174.593 1335.77 176.633V177.436C1335.77 177.858 1335.57 178.234 1335.17 178.564C1334.78 178.894 1334.34 179.06 1333.88 179.06C1333.4 179.06 1333.02 178.917 1332.75 178.632C1332.47 178.359 1332.34 178.074 1332.34 177.778C1332.34 177.368 1332.49 176.399 1332.8 174.873C1333.23 172.674 1333.63 169.729 1333.99 166.037C1334.84 157.321 1335.49 152.394 1335.94 151.254C1336.4 150.104 1337.05 149.528 1337.89 149.528C1338.19 149.528 1338.43 149.688 1338.63 150.007C1338.83 150.326 1338.93 150.736 1338.93 151.237C1338.93 152.149 1338.54 154.57 1337.75 158.5C1336.97 162.443 1336.4 166.282 1336.05 170.019ZM1369.12 172.207C1369.12 173.369 1368.09 174.77 1366.03 176.411C1363.98 178.051 1361.86 178.872 1359.67 178.872C1357.84 178.872 1356.42 178.33 1355.42 177.248C1354.42 176.166 1353.93 174.656 1353.93 172.719C1353.93 169.461 1355.03 166.362 1357.23 163.422C1359.43 160.483 1361.83 159.013 1364.44 159.013C1365.29 159.013 1365.99 159.292 1366.52 159.851C1367.07 160.409 1367.34 161.081 1367.34 161.867C1367.34 163.622 1366.48 165.302 1364.76 166.909C1363.04 168.515 1360.74 170.093 1357.86 171.643C1357.27 171.95 1356.97 172.349 1356.97 172.839C1356.97 173.785 1357.24 174.542 1357.79 175.112C1358.34 175.681 1359.15 175.966 1360.22 175.966C1362.67 175.966 1365.17 174.611 1367.72 171.899C1368.1 171.523 1368.38 171.335 1368.57 171.335C1368.94 171.335 1369.12 171.625 1369.12 172.207ZM1357.24 169.541C1362.08 166.669 1364.49 164.362 1364.49 162.619C1364.49 161.936 1364.18 161.594 1363.57 161.594C1362.52 161.594 1361.33 162.363 1360.01 163.901C1358.7 165.439 1357.78 167.319 1357.24 169.541ZM1385.4 164.858C1384.81 164.858 1384.16 165.245 1383.45 166.02C1382.76 166.795 1381.69 168.532 1380.25 171.232C1378.36 174.855 1377.14 176.918 1376.58 177.419C1376.03 177.92 1375.58 178.171 1375.21 178.171C1373.87 178.171 1373.2 177.521 1373.2 176.223C1373.2 175.676 1373.29 174.901 1373.47 173.898C1374.1 170.458 1374.41 166.829 1374.41 163.012C1374.41 162.579 1374.59 162.101 1374.96 161.577C1375.33 161.041 1375.69 160.773 1376.02 160.773C1376.61 160.773 1377.03 160.956 1377.28 161.32C1377.53 161.685 1377.66 162.42 1377.66 163.525C1377.66 164.676 1377.32 167.045 1376.63 170.634C1376.4 171.819 1376.29 172.571 1376.29 172.89C1376.29 173.072 1376.34 173.164 1376.43 173.164C1376.6 173.164 1377.39 171.802 1378.8 169.079C1380.23 166.311 1381.47 164.362 1382.54 163.234C1383.62 162.106 1384.8 161.542 1386.08 161.542C1387.11 161.542 1387.94 162.01 1388.58 162.944C1389.23 163.878 1389.7 165.581 1390 168.054C1390.32 170.868 1390.6 172.622 1390.85 173.317C1391.11 174.001 1391.52 174.343 1392.08 174.343C1392.43 174.343 1392.88 174.217 1393.41 173.967C1393.51 173.921 1393.57 173.898 1393.62 173.898C1394.11 173.898 1394.35 174.183 1394.35 174.753C1394.35 175.254 1394.02 175.79 1393.35 176.359C1392.67 176.918 1391.86 177.197 1390.92 177.197C1389.95 177.197 1389.2 176.815 1388.66 176.052C1388.14 175.277 1387.72 173.221 1387.42 169.882C1387.1 166.533 1386.42 164.858 1385.4 164.858Z" fill="white"/>
<path class="helps" d="M1376.95 234.873C1381.19 227.046 1384.68 223.132 1387.43 223.132C1388.15 223.132 1388.75 223.548 1389.2 224.38C1389.66 225.212 1390.03 227.057 1390.31 229.917C1390.6 232.959 1391.24 235.158 1392.25 236.514C1392.76 237.209 1393.01 237.721 1393.01 238.052C1393.01 238.348 1392.84 238.621 1392.5 238.872C1392.16 239.123 1391.8 239.248 1391.41 239.248C1390.52 239.248 1389.73 238.752 1389.05 237.761C1388.37 236.759 1387.93 235.004 1387.73 232.498C1387.54 230.128 1387.33 228.578 1387.12 227.849C1386.9 227.12 1386.54 226.755 1386.04 226.755C1384.85 226.755 1382.44 229.883 1378.81 236.138C1377.73 238.006 1376.93 239.231 1376.42 239.812C1375.91 240.382 1375.44 240.667 1375.02 240.667C1374.52 240.667 1374.1 240.518 1373.75 240.222C1373.41 239.926 1373.24 239.561 1373.24 239.128C1373.24 238.809 1373.33 238.194 1373.51 237.283C1374.92 230.048 1376.02 222.893 1376.83 215.818C1377.01 214.166 1377.3 213.066 1377.7 212.52C1378.11 211.973 1378.45 211.699 1378.73 211.699C1379.22 211.699 1379.66 211.899 1380.06 212.297C1380.46 212.696 1380.66 213.249 1380.66 213.955C1380.66 216.051 1380.15 218.928 1379.12 222.585C1378.62 224.397 1378.09 226.698 1377.53 229.49C1376.97 232.281 1376.69 234.007 1376.69 234.668C1376.69 234.805 1376.76 234.873 1376.88 234.873H1376.95ZM1411.73 234.207C1411.73 235.369 1410.7 236.77 1408.64 238.411C1406.59 240.051 1404.47 240.872 1402.28 240.872C1400.45 240.872 1399.03 240.33 1398.03 239.248C1397.04 238.166 1396.54 236.656 1396.54 234.719C1396.54 231.461 1397.64 228.362 1399.84 225.422C1402.04 222.483 1404.44 221.013 1407.05 221.013C1407.91 221.013 1408.6 221.292 1409.14 221.851C1409.68 222.409 1409.96 223.081 1409.96 223.867C1409.96 225.622 1409.1 227.302 1407.38 228.909C1405.66 230.515 1403.36 232.093 1400.47 233.643C1399.88 233.95 1399.58 234.349 1399.58 234.839C1399.58 235.785 1399.86 236.542 1400.4 237.112C1400.95 237.681 1401.76 237.966 1402.83 237.966C1405.28 237.966 1407.78 236.611 1410.33 233.899C1410.71 233.523 1410.99 233.335 1411.19 233.335C1411.55 233.335 1411.73 233.625 1411.73 234.207ZM1399.86 231.541C1404.69 228.669 1407.1 226.362 1407.1 224.619C1407.1 223.936 1406.8 223.594 1406.18 223.594C1405.13 223.594 1403.95 224.363 1402.63 225.901C1401.32 227.439 1400.39 229.319 1399.86 231.541ZM1422.36 211.067C1423.18 211.067 1423.59 211.591 1423.59 212.639C1423.59 213.573 1423.09 215.795 1422.1 219.304C1421.47 221.514 1420.99 223.953 1420.65 226.619C1420.3 229.285 1420.13 231.375 1420.13 232.891C1420.13 234.771 1420.25 236.639 1420.49 238.496C1420.54 238.849 1420.56 239.106 1420.56 239.265C1420.56 239.835 1420.37 240.325 1419.98 240.735C1419.59 241.145 1419.18 241.35 1418.75 241.35C1418.15 241.35 1417.72 240.974 1417.48 240.222C1417.26 239.47 1417.14 238.257 1417.14 236.582C1417.14 232.765 1417.6 228.037 1418.51 222.397C1419.43 216.758 1420.16 213.459 1420.7 212.502C1421.24 211.545 1421.8 211.067 1422.36 211.067ZM1430.74 238.018C1430.18 240.068 1429.65 242.945 1429.16 246.648L1428.69 249.878C1428.61 250.334 1428.4 250.784 1428.05 251.228C1427.71 251.684 1427.4 251.912 1427.11 251.912C1426.76 251.912 1426.36 251.729 1425.9 251.365C1425.46 251.012 1425.23 250.727 1425.23 250.51C1425.23 249.884 1425.38 249.018 1425.66 247.913C1427.75 239.493 1428.79 232.099 1428.79 225.73L1428.77 224.294C1428.75 223.064 1428.97 222.17 1429.42 221.611C1429.88 221.053 1430.4 220.774 1430.99 220.774C1431.27 220.774 1431.53 220.99 1431.78 221.423C1432.03 221.845 1432.16 222.449 1432.16 223.235C1432.16 224.34 1432.04 225.679 1431.81 227.251C1431.52 229.233 1431.36 230.373 1431.35 230.669C1433.05 227.707 1434.85 225.394 1436.75 223.73C1438.66 222.067 1440.42 221.235 1442.05 221.235C1443.2 221.235 1444.17 221.668 1444.96 222.534C1445.75 223.389 1446.15 224.454 1446.15 225.73C1446.15 229.444 1444.73 232.817 1441.88 235.847C1439.03 238.878 1436.26 240.393 1433.56 240.393C1432.88 240.393 1432.35 240.222 1431.95 239.88C1431.56 239.539 1431.16 238.918 1430.74 238.018ZM1441.35 224.26C1439.74 224.26 1437.76 225.764 1435.39 228.772C1433.02 231.78 1431.83 234.121 1431.83 235.796C1431.83 236.206 1432.06 236.605 1432.53 236.992C1433 237.38 1433.59 237.573 1434.31 237.573C1435.94 237.573 1437.81 236.371 1439.93 233.967C1442.05 231.552 1443.11 229.182 1443.11 226.858C1443.11 226.026 1442.94 225.388 1442.6 224.944C1442.27 224.488 1441.85 224.26 1441.35 224.26ZM1459.71 236.086C1459.71 235.346 1458.8 234.503 1456.98 233.557C1454.66 232.372 1453.1 231.427 1452.28 230.72C1451.47 230.002 1451.06 229.205 1451.06 228.328C1451.06 226.06 1452.2 224.181 1454.47 222.688C1456.74 221.195 1458.6 220.449 1460.04 220.449C1460.96 220.449 1461.63 220.609 1462.04 220.928C1462.46 221.247 1462.67 221.799 1462.67 222.585C1462.67 222.939 1462.51 223.241 1462.21 223.491C1461.91 223.742 1461.68 223.867 1461.51 223.867C1461.38 223.867 1461.14 223.782 1460.77 223.611C1460.41 223.451 1460.17 223.372 1460.05 223.372C1459.48 223.372 1458.33 223.787 1456.58 224.619C1454.84 225.451 1453.97 226.391 1453.97 227.439C1453.97 228.077 1454.28 228.658 1454.89 229.182C1455.51 229.695 1456.61 230.327 1458.21 231.079C1459.5 231.694 1460.52 232.355 1461.28 233.062C1462.06 233.757 1462.45 234.577 1462.45 235.522C1462.45 237.266 1461.24 238.633 1458.84 239.624C1456.44 240.604 1454.14 241.094 1451.95 241.094C1450.11 241.094 1449.18 240.467 1449.18 239.214C1449.18 238.781 1449.39 238.462 1449.8 238.257C1450.22 238.052 1450.64 237.949 1451.06 237.949C1451.24 237.949 1451.56 238.006 1452.04 238.12C1452.51 238.234 1452.81 238.291 1452.96 238.291C1454.23 238.291 1455.58 238.08 1457.03 237.659C1458.48 237.237 1459.37 236.713 1459.71 236.086Z" fill="white"/>
<defs>
<linearGradient id="paint0_linear_209_109" x1="187.662" y1="56.3346" x2="169.51" y2="121.1" gradientUnits="userSpaceOnUse">
<stop stop-color="white"/>
<stop offset="1" stop-opacity="0"/>
</linearGradient>
<linearGradient id="paint1_linear_209_109" x1="385.818" y1="50.0105" x2="376.885" y2="110.364" gradientUnits="userSpaceOnUse">
<stop stop-color="white"/>
<stop offset="1" stop-opacity="0"/>
</linearGradient>
<linearGradient id="paint2_linear_209_109" x1="264.825" y1="222.367" x2="248.108" y2="154.174" gradientUnits="userSpaceOnUse">
<stop stop-color="white"/>
<stop offset="1" stop-opacity="0"/>
</linearGradient>
<linearGradient id="paint3_linear_209_109" x1="464.832" y1="233.119" x2="388.832" y2="146.352" gradientUnits="userSpaceOnUse">
<stop stop-color="white"/>
<stop offset="1" stop-opacity="0"/>
</linearGradient>
<linearGradient id="paint4_linear_209_109" x1="607" y1="131" x2="482.256" y2="115.973" gradientUnits="userSpaceOnUse">
<stop offset="0.378167" stop-color="white"/>
<stop offset="1" stop-opacity="0"/>
</linearGradient>
</defs>
</svg>
