<svg width="1300" height="352" viewBox="0 0 1300 352" fill="none" xmlns="http://www.w3.org/2000/svg">
<path d="M114.65 158.3C111.85 157.233 109.117 156.367 106.45 155.7C103.85 155.033 100.883 154.667 97.55 154.6C94.2833 154.467 91.3833 154.867 88.85 155.8C86.3167 156.733 84.0167 158.533 81.95 161.2C79.8833 163.8 78.5167 167.233 77.85 171.5C77.7167 172.233 80.25 172.467 85.45 172.2C90.65 171.867 95.7167 171.5 100.65 171.1C105.583 170.7 108.983 171 110.85 172C117.45 177.867 122.083 183.3 124.75 188.3C126.083 190.7 125.517 194.167 123.05 198.7C119.917 204.367 115.383 208.533 109.45 211.2C98.9833 216 87.5167 214.233 75.05 205.9C69.9833 202.5 64.8833 198 59.75 192.4L62.75 190.9C66.6167 192.967 69.7167 194.567 72.05 195.7C74.45 196.833 77.45 198 81.05 199.2C84.65 200.333 87.8167 200.933 90.55 201C96.8833 201.133 102.083 199.6 106.15 196.4C110.217 193.133 112.517 188.733 113.05 183.2C113.117 182.6 110.717 182.7 105.85 183.5C100.983 184.233 96.0833 184.9 91.15 185.5C86.2167 186.1 82.4833 185.633 79.95 184.1C77.2833 181.967 73.1167 177.767 67.45 171.5C65.65 169.3 64.7167 166.933 64.65 164.4C64.5833 161.867 65.4167 159.3 67.15 156.7C68.8833 154.1 71.0167 151.767 73.55 149.7C76.0833 147.633 79.05 145.933 82.45 144.6C85.9167 143.267 89.35 142.6 92.75 142.6C93.6167 142.6 95.25 143.167 97.65 144.3C100.05 145.367 103.35 147 107.55 149.2C111.817 151.4 114.617 152.833 115.95 153.5L114.65 158.3ZM159.609 148.4L159.709 176.4L192.009 174.6V144.4L206.009 148.4V213.9L192.009 211V183.1L159.709 184.9L159.809 213.9L145.809 211V144.4L159.609 148.4ZM274.227 144.3L288.127 148.4V195.2C288.127 199 285.194 203.1 279.327 207.5C273.461 211.833 267.227 214 260.627 214C256.694 214 251.827 212 246.027 208C240.227 204 234.894 199.3 230.027 193.9C229.961 193.833 229.894 193.3 229.827 192.3C229.761 191.3 229.694 190 229.627 188.4C229.627 186.8 229.594 184.933 229.527 182.8C229.527 180.667 229.527 178.433 229.527 176.1C229.527 173.767 229.527 171.367 229.527 168.9C229.527 166.367 229.527 163.967 229.527 161.7C229.594 159.367 229.627 157.133 229.627 155C229.627 152.867 229.627 151.033 229.627 149.5C229.694 147.967 229.727 146.733 229.727 145.8V144.3C229.727 144.367 230.861 144.733 233.127 145.4C235.461 146.067 237.761 146.733 240.027 147.4L243.527 148.4C243.261 181.867 243.294 198.8 243.627 199.2C246.361 202.133 249.861 203.667 254.127 203.8C258.461 203.867 262.527 202.733 266.327 200.4C270.127 198.067 272.761 195.067 274.227 191.4V144.3ZM325.898 153.4L325.998 175.9C331.131 175.9 335.564 175.267 339.298 174C343.031 172.667 345.764 171.067 347.498 169.2C349.231 167.267 350.498 165.233 351.298 163.1C352.098 160.967 352.364 159.033 352.098 157.3C351.898 155.567 351.431 154.3 350.698 153.5C349.431 152.167 347.398 151.333 344.598 151C341.864 150.6 338.931 150.667 335.798 151.2C332.664 151.667 329.364 152.4 325.898 153.4ZM325.998 180.9L326.098 205.8C337.964 207 346.664 204.967 352.198 199.7C355.798 196.233 357.098 192.333 356.098 188C355.431 185.067 353.764 182.7 351.098 180.9C344.231 183.833 335.864 183.833 325.998 180.9ZM326.098 211.1L312.098 208V144.1C317.631 142.567 324.331 141.733 332.198 141.6C340.131 141.467 344.898 142 346.498 143.2C348.564 144.533 351.331 146.867 354.798 150.2C358.331 153.533 361.098 156.367 363.098 158.7C363.964 160.1 364.398 161.833 364.398 163.9C364.398 165.967 363.664 168.367 362.198 171.1C360.731 173.767 358.764 176.033 356.298 177.9C361.698 181.033 366.098 184.533 369.498 188.4C370.631 189.733 371.064 191.633 370.798 194.1C370.531 196.567 369.498 199.133 367.698 201.8C365.898 204.467 363.164 206.833 359.498 208.9C355.898 210.967 351.331 212.267 345.798 212.8C340.331 213.4 333.764 212.833 326.098 211.1ZM405.331 148.4L405.431 176.4L437.731 174.6V144.4L451.731 148.4V213.9L437.731 211V183.1L405.431 184.9L405.531 213.9L391.531 211V144.4L405.331 148.4Z" fill="white"/>
<path d="M87.5 121C174.5 -84.4799 394 86.2388 801.5 41.3596" stroke="url(#paint0_linear_209_109)" stroke-width="3" stroke-linecap="round"/>
<path d="M257 139.283C257 -17.1599 1003.5 199.76 1147.5 89.7603" stroke="url(#paint1_linear_209_109)" stroke-width="3" stroke-linecap="round"/>
<path d="M165 216C323 429.82 950 278.28 1092.5 307" stroke="url(#paint2_linear_209_109)" stroke-width="3" stroke-linecap="round"/>
<path d="M338 223C503.5 371.6 623.5 213.4 1003 213.4" stroke="url(#paint3_linear_209_109)" stroke-width="3" stroke-linecap="round"/>
<path d="M468 185C530.5 162.56 574 213.84 741.5 172.48" stroke="url(#paint4_linear_209_109)" stroke-width="3" stroke-linecap="round"/>
<path d="M827.331 44.2866C827.331 43.5461 826.419 42.703 824.596 41.7573C822.284 40.5724 820.717 39.6268 819.897 38.9204C819.088 38.2026 818.683 37.4051 818.683 36.5278C818.683 34.2606 819.817 32.3807 822.084 30.8882C824.363 29.3957 826.22 28.6494 827.656 28.6494C828.578 28.6494 829.245 28.8089 829.655 29.1279C830.077 29.4469 830.287 29.9995 830.287 30.7856C830.287 31.1388 830.134 31.4408 829.826 31.6914C829.53 31.9421 829.296 32.0674 829.125 32.0674C829 32.0674 828.755 31.9819 828.39 31.811C828.026 31.6515 827.787 31.5718 827.673 31.5718C827.103 31.5718 825.947 31.9876 824.203 32.8193C822.46 33.651 821.589 34.591 821.589 35.6392C821.589 36.2772 821.896 36.8582 822.512 37.3823C823.127 37.895 824.232 38.5273 825.827 39.2793C827.114 39.8945 828.14 40.5553 828.903 41.2617C829.678 41.9567 830.065 42.777 830.065 43.7227C830.065 45.4658 828.863 46.833 826.459 47.8242C824.055 48.804 821.76 49.2939 819.572 49.2939C817.726 49.2939 816.804 48.6673 816.804 47.4141C816.804 46.9811 817.009 46.6621 817.419 46.457C817.84 46.252 818.262 46.1494 818.683 46.1494C818.854 46.1494 819.179 46.2064 819.658 46.3203C820.125 46.4342 820.432 46.4912 820.58 46.4912C821.845 46.4912 823.201 46.2804 824.648 45.8589C826.095 45.4373 826.989 44.9132 827.331 44.2866ZM849.282 42.4067C849.282 43.5688 848.251 44.9702 846.188 46.6108C844.138 48.2515 842.019 49.0718 839.831 49.0718C837.997 49.0718 836.578 48.5306 835.576 47.4482C834.584 46.3659 834.089 44.8563 834.089 42.9194C834.089 39.661 835.188 36.562 837.387 33.6226C839.586 30.6831 841.99 29.2134 844.599 29.2134C845.454 29.2134 846.149 29.4925 846.684 30.0508C847.231 30.609 847.504 31.2812 847.504 32.0674C847.504 33.8219 846.644 35.5024 844.924 37.1089C843.203 38.7153 840.902 40.2933 838.02 41.8428C837.427 42.1504 837.131 42.5492 837.131 43.0391C837.131 43.9847 837.404 44.7424 837.951 45.312C838.498 45.8817 839.307 46.1665 840.378 46.1665C842.827 46.1665 845.328 44.8107 847.88 42.0991C848.256 41.7231 848.541 41.5352 848.735 41.5352C849.099 41.5352 849.282 41.8257 849.282 42.4067ZM837.404 39.7407C842.235 36.8696 844.65 34.5625 844.65 32.8193C844.65 32.1357 844.343 31.7939 843.728 31.7939C842.679 31.7939 841.494 32.563 840.173 34.1011C838.863 35.6392 837.94 37.519 837.404 39.7407ZM857.373 41.4155C857.487 41.2104 857.623 40.9256 857.783 40.561C858.558 38.7837 859.27 37.3937 859.919 36.3911C860.569 35.3771 861.281 34.4087 862.055 33.4858C862.841 32.563 863.554 31.8623 864.192 31.3838C864.841 30.9053 865.428 30.5749 865.952 30.3926C866.476 30.1989 866.983 30.1021 867.473 30.1021C868.464 30.1021 869.273 30.404 869.9 31.0078C870.526 31.6003 870.84 32.2952 870.84 33.0928C870.84 33.446 870.726 33.765 870.498 34.0498C870.281 34.3346 869.945 34.4771 869.489 34.4771C869.011 34.4771 868.572 34.2663 868.174 33.8447C867.763 33.4232 867.336 33.2124 866.892 33.2124C865.707 33.2124 864.066 34.6479 861.97 37.519C859.874 40.3901 858.598 43.5518 858.142 47.0039C858.028 47.8926 857.811 48.4793 857.492 48.7642C857.173 49.049 856.723 49.1914 856.142 49.1914C855.584 49.1914 855.18 48.7756 854.929 47.9438C854.678 47.1121 854.553 45.7108 854.553 43.7397C854.553 43.2043 854.581 42.0251 854.638 40.2021C854.707 38.0488 854.843 36.3114 855.049 34.9897C855.083 34.7733 855.14 34.2663 855.219 33.4688C855.299 32.5915 855.396 31.9819 855.51 31.6401C855.635 31.2983 855.88 30.9793 856.245 30.6831C856.621 30.3869 857.025 30.2388 857.458 30.2388C857.88 30.2388 858.193 30.3755 858.398 30.6489C858.615 30.911 858.723 31.1958 858.723 31.5034C858.723 31.9478 858.609 32.5744 858.381 33.3833C858.119 34.2834 857.965 34.9043 857.92 35.2461C857.885 35.6335 857.823 36.0379 857.732 36.4595C857.618 36.9494 857.504 38.2368 857.39 40.3218L857.373 40.9541V41.4155ZM887.612 42.4067C887.612 43.5688 886.581 44.9702 884.519 46.6108C882.468 48.2515 880.349 49.0718 878.162 49.0718C876.327 49.0718 874.909 48.5306 873.906 47.4482C872.915 46.3659 872.419 44.8563 872.419 42.9194C872.419 39.661 873.519 36.562 875.718 33.6226C877.917 30.6831 880.321 29.2134 882.93 29.2134C883.784 29.2134 884.479 29.4925 885.015 30.0508C885.561 30.609 885.835 31.2812 885.835 32.0674C885.835 33.8219 884.975 35.5024 883.254 37.1089C881.534 38.7153 879.232 40.2933 876.35 41.8428C875.758 42.1504 875.461 42.5492 875.461 43.0391C875.461 43.9847 875.735 44.7424 876.282 45.312C876.829 45.8817 877.637 46.1665 878.708 46.1665C881.158 46.1665 883.659 44.8107 886.211 42.0991C886.587 41.7231 886.872 41.5352 887.065 41.5352C887.43 41.5352 887.612 41.8257 887.612 42.4067ZM875.735 39.7407C880.565 36.8696 882.981 34.5625 882.981 32.8193C882.981 32.1357 882.673 31.7939 882.058 31.7939C881.01 31.7939 879.825 32.563 878.503 34.1011C877.193 35.6392 876.27 37.519 875.735 39.7407ZM903.889 35.0581C903.297 35.0581 902.647 35.4455 901.941 36.2202C901.246 36.995 900.181 38.7324 898.745 41.4326C896.854 45.0557 895.629 47.1178 895.071 47.6191C894.524 48.1204 894.068 48.3711 893.704 48.3711C892.359 48.3711 891.687 47.7217 891.687 46.4229C891.687 45.876 891.778 45.1012 891.961 44.0986C892.587 40.6579 892.9 37.0291 892.9 33.2124C892.9 32.7795 893.083 32.3009 893.447 31.7769C893.823 31.2414 894.177 30.9736 894.507 30.9736C895.099 30.9736 895.521 31.1559 895.772 31.5205C896.022 31.8851 896.148 32.62 896.148 33.7251C896.148 34.8758 895.806 37.2456 895.122 40.8345C894.894 42.0194 894.78 42.7713 894.78 43.0903C894.78 43.2726 894.826 43.3638 894.917 43.3638C895.088 43.3638 895.88 42.0023 897.293 39.2793C898.717 36.5107 899.964 34.5625 901.035 33.4346C902.106 32.3066 903.285 31.7427 904.573 31.7427C905.598 31.7427 906.43 32.2098 907.068 33.144C907.717 34.0783 908.19 35.7816 908.486 38.2539C908.805 41.068 909.09 42.8226 909.341 43.5176C909.603 44.2012 910.013 44.543 910.571 44.543C910.925 44.543 911.369 44.4176 911.904 44.167C911.996 44.1214 912.064 44.0986 912.109 44.0986C912.599 44.0986 912.844 44.3835 912.844 44.9531C912.844 45.4544 912.508 45.9899 911.836 46.5596C911.164 47.1178 910.355 47.397 909.409 47.397C908.441 47.397 907.689 47.0153 907.153 46.252C906.629 45.4772 906.213 43.4207 905.906 40.0825C905.587 36.7329 904.915 35.0581 903.889 35.0581ZM922.012 25.3169C921.773 25.3169 921.59 25.0605 921.465 24.5479C921.42 24.3883 921.357 24.2118 921.277 24.0181C920.97 23.2775 920.816 22.6338 920.816 22.0869C920.816 21.6312 921.083 21.1698 921.619 20.7026C922.166 20.2241 922.77 19.9849 923.43 19.9849C923.761 19.9849 924.131 20.1159 924.541 20.3779C924.951 20.6286 925.157 20.8735 925.157 21.1128C925.157 21.4888 925.014 22.1268 924.729 23.0269C924.456 23.9269 924.012 24.5365 923.396 24.8555C922.792 25.1631 922.331 25.3169 922.012 25.3169ZM919.773 44.4062C919.773 45.2721 919.893 46.2463 920.132 47.3286C920.178 47.5337 920.2 47.7046 920.2 47.8413C920.2 48.0464 920.012 48.3084 919.637 48.6274C919.261 48.9578 918.862 49.123 918.44 49.123C917.335 49.123 916.783 48.109 916.783 46.0811C916.783 43.9847 917.215 40.6693 918.081 36.1348C918.378 34.5511 918.526 33.577 918.526 33.2124C918.526 32.4946 918.657 31.8851 918.919 31.3838C919.181 30.8711 919.551 30.6147 920.03 30.6147C920.611 30.6147 921.066 30.7572 921.397 31.042C921.739 31.3154 921.909 31.623 921.909 31.9648C921.909 32.3066 921.83 32.7567 921.67 33.3149C920.816 36.3228 920.286 38.4761 920.081 39.7749C919.876 41.0737 919.773 42.6175 919.773 44.4062ZM934.632 30.9565C935.805 30.8654 936.91 30.7572 937.947 30.6318C938.973 30.5179 939.827 30.4609 940.511 30.4609C941.377 30.4609 941.924 30.5407 942.151 30.7002C942.379 30.8597 942.493 31.1388 942.493 31.5376C942.493 32.4604 941.849 32.9618 940.562 33.0415C938.91 33.144 937.389 33.2865 935.999 33.4688C934.609 33.651 933.857 33.8049 933.743 33.9302C933.641 34.0441 933.299 35.3999 932.718 37.9976C932.137 40.5838 931.846 42.2643 931.846 43.0391C931.846 44.2923 932.011 45.1297 932.342 45.5513C932.672 45.9614 933.168 46.1665 933.829 46.1665C934.808 46.1665 936.17 45.4316 937.913 43.9619C938.585 43.3581 939.104 43.0562 939.468 43.0562C939.958 43.0562 940.203 43.3182 940.203 43.8423C940.203 44.6626 939.411 45.7279 937.828 47.0381C936.255 48.3369 934.643 48.9863 932.991 48.9863C930.234 48.9863 928.855 47.3628 928.855 44.1157C928.855 42.9422 929.14 41.125 929.71 38.6641C930.268 36.2145 930.547 34.7448 930.547 34.2549C930.547 34.084 930.411 33.9985 930.137 33.9985L928.36 34.1523C926.902 34.1523 926.172 33.5713 926.172 32.4092C926.172 31.7484 926.508 31.418 927.181 31.418H930.701C930.94 31.418 931.151 31.3097 931.333 31.0933C931.516 30.8768 931.784 30.1533 932.137 28.9229C932.49 27.681 932.803 26.4562 933.077 25.2485C933.35 24.0522 933.886 23.4541 934.683 23.4541C935.173 23.4541 935.555 23.625 935.828 23.9668C936.102 24.3086 936.238 24.6276 936.238 24.9238C936.238 25.0833 936.033 25.8979 935.623 27.3677L934.632 30.9565ZM957.762 42.1675C955.666 43.9904 953.82 45.3177 952.225 46.1494C950.641 46.9697 949.428 47.3799 948.585 47.3799C947.457 47.3799 946.591 46.9128 945.987 45.9785C945.395 45.0329 945.098 43.9334 945.098 42.6802C945.098 40.9256 945.452 38.7609 946.158 36.186C946.876 33.5998 947.405 32.0674 947.747 31.5889C948.1 31.099 948.659 30.854 949.422 30.854C949.741 30.854 950.003 31.042 950.208 31.418C950.413 31.7939 950.516 32.2212 950.516 32.6997C950.516 32.9845 950.385 33.3548 950.123 33.8105C949.508 34.8815 949.183 35.474 949.149 35.5879C949.126 35.7018 948.909 36.3911 948.499 37.6558C948.089 38.909 947.884 40.0882 947.884 41.1934C947.884 41.5807 947.975 42.1846 948.157 43.0049C948.351 43.8252 948.744 44.2354 949.337 44.2354C949.963 44.2354 950.732 44.0474 951.644 43.6714C952.567 43.284 953.603 42.6574 954.754 41.7915C955.905 40.9256 956.68 40.2249 957.078 39.6895C957.477 39.154 957.756 38.5444 957.916 37.8608C958.087 37.1772 958.206 35.6961 958.275 33.4175C958.343 31.1388 958.896 29.9995 959.932 29.9995C960.548 29.9995 960.946 30.1647 961.129 30.4951C961.311 30.8141 961.402 31.4294 961.402 32.3408C961.402 33.0928 961.351 34.0327 961.248 35.1606C961.123 36.5848 961.043 37.5988 961.009 38.2026C960.849 41.3358 960.439 44.486 959.779 47.6533C959.129 50.8092 958.178 53.4468 956.925 55.5659C955.671 57.6965 953.945 58.7617 951.746 58.7617C949.513 58.7617 947.525 58.175 945.782 57.0015C944.05 55.8394 943.184 54.8538 943.184 54.0449C943.184 53.6689 943.27 53.2987 943.441 52.9341C943.623 52.5695 943.851 52.3872 944.124 52.3872C944.261 52.3872 944.409 52.4954 944.569 52.7119C946.061 55.002 948.408 56.147 951.61 56.147C953.262 56.147 954.646 54.6943 955.762 51.7891C956.89 48.8952 957.511 46.1779 957.625 43.6372C957.648 43.1473 957.694 42.6574 957.762 42.1675Z" fill="white"/>
<path d="M1144.42 61.606C1142.96 64.0555 1141.47 65.9525 1139.94 67.2969C1138.42 68.6413 1137 69.3135 1135.69 69.3135C1134.94 69.3135 1134.17 68.8748 1133.38 67.9976C1132.61 67.1203 1132.22 65.7702 1132.22 63.9473C1132.22 62.4548 1132.58 60.2559 1133.3 57.3506C1133.9 54.9238 1134.2 53.2205 1134.2 52.2407C1134.53 51.5571 1135.05 51.2153 1135.76 51.2153C1136.24 51.2153 1136.62 51.3862 1136.9 51.728C1137.19 52.0584 1137.33 52.4059 1137.33 52.7705C1137.33 53.568 1137.05 54.7017 1136.49 56.1714C1135.43 59.0311 1134.9 61.4863 1134.9 63.5371C1134.9 65.4056 1135.34 66.3398 1136.2 66.3398C1137.31 66.3398 1138.71 65.3999 1140.42 63.52C1142.13 61.6401 1143.6 59.0197 1144.81 55.6587C1145.29 54.3143 1145.68 53.4427 1145.98 53.0439C1146.28 52.6338 1146.69 52.4287 1147.21 52.4287C1147.98 52.4287 1148.37 52.9414 1148.37 53.9668C1148.37 54.0921 1148.26 54.508 1148.04 55.2144C1147.36 57.7095 1147.02 60.0679 1147.02 62.2896C1147.02 64.9556 1147.46 66.6816 1148.33 67.4678C1148.79 67.8893 1149.02 68.2311 1149.02 68.4932C1149.02 68.8122 1148.78 69.1027 1148.32 69.3647C1147.86 69.6268 1147.45 69.7578 1147.07 69.7578C1146.27 69.7578 1145.63 69.1654 1145.14 67.9805C1144.65 66.7956 1144.4 65.0467 1144.4 62.7339V62.1699C1144.4 61.9876 1144.41 61.7996 1144.42 61.606ZM1158.07 67.0576C1157.51 69.1084 1156.98 71.9852 1156.49 75.688L1156.02 78.918C1155.94 79.3737 1155.73 79.8237 1155.38 80.2681C1155.04 80.7238 1154.73 80.9517 1154.44 80.9517C1154.09 80.9517 1153.69 80.7694 1153.23 80.4048C1152.79 80.0516 1152.56 79.7668 1152.56 79.5503C1152.56 78.9237 1152.71 78.0578 1152.99 76.9526C1155.08 68.533 1156.12 61.1388 1156.12 54.77L1156.1 53.3345C1156.08 52.104 1156.29 51.2096 1156.75 50.6514C1157.21 50.0931 1157.73 49.814 1158.32 49.814C1158.6 49.814 1158.86 50.0304 1159.11 50.4634C1159.36 50.8849 1159.49 51.4888 1159.49 52.2749C1159.49 53.38 1159.37 54.7188 1159.14 56.291C1158.85 58.2734 1158.69 59.4128 1158.68 59.709C1160.38 56.7467 1162.18 54.4339 1164.08 52.7705C1165.98 51.1071 1167.75 50.2754 1169.38 50.2754C1170.53 50.2754 1171.5 50.7083 1172.29 51.5742C1173.08 52.4287 1173.48 53.494 1173.48 54.77C1173.48 58.4842 1172.06 61.8566 1169.21 64.8872C1166.36 67.9178 1163.59 69.4331 1160.89 69.4331C1160.21 69.4331 1159.68 69.2622 1159.28 68.9204C1158.89 68.5786 1158.49 67.9577 1158.07 67.0576ZM1168.68 53.3003C1167.07 53.3003 1165.08 54.8042 1162.72 57.812C1160.35 60.8198 1159.16 63.1611 1159.16 64.8359C1159.16 65.2461 1159.39 65.6449 1159.86 66.0322C1160.33 66.4196 1160.92 66.6133 1161.64 66.6133C1163.27 66.6133 1165.14 65.4113 1167.26 63.0073C1169.38 60.592 1170.44 58.2222 1170.44 55.8979C1170.44 55.0662 1170.27 54.4282 1169.93 53.9839C1169.6 53.5282 1169.18 53.3003 1168.68 53.3003ZM1184.43 40.1069C1185.25 40.1069 1185.66 40.631 1185.66 41.6792C1185.66 42.6134 1185.16 44.8351 1184.17 48.3442C1183.54 50.5545 1183.06 52.9927 1182.72 55.6587C1182.38 58.3247 1182.2 60.4154 1182.2 61.9307C1182.2 63.8105 1182.32 65.679 1182.56 67.5361C1182.61 67.8893 1182.63 68.1457 1182.63 68.3052C1182.63 68.8748 1182.44 69.3647 1182.05 69.7749C1181.66 70.1851 1181.25 70.3901 1180.82 70.3901C1180.22 70.3901 1179.8 70.0142 1179.56 69.2622C1179.33 68.5103 1179.21 67.2969 1179.21 65.6221C1179.21 61.8053 1179.67 57.0771 1180.58 51.4375C1181.5 45.7979 1182.23 42.4995 1182.77 41.5425C1183.32 40.5854 1183.87 40.1069 1184.43 40.1069ZM1195.01 46.1567C1194.77 46.1567 1194.59 45.9004 1194.47 45.3877C1194.42 45.2282 1194.36 45.0516 1194.28 44.8579C1193.97 44.1174 1193.82 43.4736 1193.82 42.9268C1193.82 42.471 1194.08 42.0096 1194.62 41.5425C1195.17 41.064 1195.77 40.8247 1196.43 40.8247C1196.76 40.8247 1197.13 40.9557 1197.54 41.2178C1197.95 41.4684 1198.16 41.7134 1198.16 41.9526C1198.16 42.3286 1198.01 42.9666 1197.73 43.8667C1197.46 44.7668 1197.01 45.3763 1196.4 45.6953C1195.79 46.0029 1195.33 46.1567 1195.01 46.1567ZM1192.77 65.2461C1192.77 66.112 1192.89 67.0861 1193.13 68.1685C1193.18 68.3735 1193.2 68.5444 1193.2 68.6812C1193.2 68.8862 1193.01 69.1483 1192.64 69.4673C1192.26 69.7977 1191.86 69.9629 1191.44 69.9629C1190.34 69.9629 1189.78 68.9489 1189.78 66.9209C1189.78 64.8245 1190.22 61.5091 1191.08 56.9746C1191.38 55.391 1191.53 54.4168 1191.53 54.0522C1191.53 53.3345 1191.66 52.7249 1191.92 52.2236C1192.18 51.7109 1192.55 51.4546 1193.03 51.4546C1193.61 51.4546 1194.07 51.597 1194.4 51.8818C1194.74 52.1553 1194.91 52.4629 1194.91 52.8047C1194.91 53.1465 1194.83 53.5965 1194.67 54.1548C1193.82 57.1626 1193.29 59.3159 1193.08 60.6147C1192.88 61.9136 1192.77 63.4574 1192.77 65.2461ZM1204.08 69.8262C1204 70.111 1203.78 70.3503 1203.43 70.5439C1203.08 70.7376 1202.72 70.8345 1202.37 70.8345C1201.21 70.8345 1200.63 69.9857 1200.63 68.2881C1200.63 67.4792 1200.89 65.1891 1201.43 61.418C1201.76 59.1051 1201.92 57.3506 1201.92 56.1543C1201.92 55.9492 1201.69 55.6815 1201.21 55.3511C1200.72 55.0321 1200.47 54.7188 1200.47 54.4111C1200.47 53.9212 1200.84 53.3914 1201.58 52.8218C1202.15 52.3774 1202.5 51.8818 1202.63 51.335C1202.76 50.7881 1202.92 50.0304 1203.09 49.062C1203.67 45.5301 1204.57 42.9837 1205.8 41.4229C1207.05 39.862 1208.62 39.0815 1210.54 39.0815C1211.55 39.0815 1212.41 39.429 1213.12 40.124C1213.82 40.8076 1214.18 41.6621 1214.18 42.6875C1214.18 43.5192 1213.98 44.4648 1213.58 45.5244C1213.19 46.5726 1212.75 47.0967 1212.25 47.0967C1211.87 47.0967 1211.68 46.9087 1211.68 46.5327L1211.8 44.875C1211.8 42.6761 1211.19 41.5767 1209.96 41.5767C1208.62 41.5767 1207.52 42.8869 1206.64 45.5073C1205.76 48.1164 1205.33 50.2412 1205.33 51.8818C1205.33 52.4059 1205.67 52.668 1206.35 52.668C1209.32 52.668 1211.07 52.6566 1211.6 52.6338C1212.13 52.611 1212.4 52.8332 1212.4 53.3003C1212.4 53.7674 1212.11 54.1263 1211.53 54.377C1210.96 54.6162 1209.71 54.8327 1207.77 55.0264C1206.12 55.1973 1205.18 55.3397 1204.97 55.4536C1204.2 59.6919 1203.82 63.4688 1203.82 66.7842C1203.82 67.7754 1203.87 68.5103 1203.96 68.9888C1204.04 69.4331 1204.08 69.7122 1204.08 69.8262ZM1221.74 51.7964C1222.91 51.7052 1224.02 51.597 1225.05 51.4717C1226.08 51.3577 1226.93 51.3008 1227.62 51.3008C1228.48 51.3008 1229.03 51.3805 1229.26 51.54C1229.49 51.6995 1229.6 51.9787 1229.6 52.3774C1229.6 53.3003 1228.96 53.8016 1227.67 53.8813C1226.02 53.9839 1224.5 54.1263 1223.11 54.3086C1221.72 54.4909 1220.96 54.6447 1220.85 54.77C1220.75 54.884 1220.41 56.2397 1219.83 58.8374C1219.24 61.4237 1218.95 63.1042 1218.95 63.8789C1218.95 65.1322 1219.12 65.9696 1219.45 66.3911C1219.78 66.8013 1220.28 67.0063 1220.94 67.0063C1221.92 67.0063 1223.28 66.2715 1225.02 64.8018C1225.69 64.1979 1226.21 63.896 1226.58 63.896C1227.07 63.896 1227.31 64.158 1227.31 64.6821C1227.31 65.5024 1226.52 66.5677 1224.94 67.8779C1223.36 69.1768 1221.75 69.8262 1220.1 69.8262C1217.34 69.8262 1215.96 68.2026 1215.96 64.9556C1215.96 63.7821 1216.25 61.9648 1216.82 59.5039C1217.38 57.0544 1217.65 55.5846 1217.65 55.0947C1217.65 54.9238 1217.52 54.8384 1217.24 54.8384L1215.47 54.9922C1214.01 54.9922 1213.28 54.4111 1213.28 53.249C1213.28 52.5882 1213.62 52.2578 1214.29 52.2578H1217.81C1218.05 52.2578 1218.26 52.1496 1218.44 51.9331C1218.62 51.7166 1218.89 50.9932 1219.24 49.7627C1219.6 48.5208 1219.91 47.2961 1220.18 46.0884C1220.46 44.8921 1220.99 44.2939 1221.79 44.2939C1222.28 44.2939 1222.66 44.4648 1222.94 44.8066C1223.21 45.1484 1223.35 45.4674 1223.35 45.7637C1223.35 45.9232 1223.14 46.7378 1222.73 48.2075L1221.74 51.7964Z" fill="white"/>
<path d="M760.248 178.313C764.486 170.486 767.978 166.572 770.724 166.572C771.453 166.572 772.046 166.988 772.502 167.82C772.957 168.652 773.328 170.497 773.612 173.357C773.897 176.399 774.541 178.598 775.544 179.954C776.056 180.649 776.313 181.161 776.313 181.492C776.313 181.788 776.142 182.061 775.8 182.312C775.458 182.563 775.094 182.688 774.706 182.688C773.817 182.688 773.031 182.192 772.348 181.201C771.664 180.199 771.226 178.444 771.032 175.938C770.838 173.568 770.633 172.018 770.417 171.289C770.2 170.56 769.841 170.195 769.34 170.195C768.144 170.195 765.734 173.323 762.111 179.578C761.029 181.446 760.231 182.671 759.718 183.252C759.206 183.822 758.739 184.106 758.317 184.106C757.816 184.106 757.394 183.958 757.052 183.662C756.711 183.366 756.54 183.001 756.54 182.568C756.54 182.249 756.631 181.634 756.813 180.723C758.214 173.488 759.32 166.333 760.129 159.258C760.311 157.606 760.601 156.506 761 155.959C761.41 155.413 761.752 155.139 762.025 155.139C762.515 155.139 762.96 155.339 763.358 155.737C763.757 156.136 763.957 156.689 763.957 157.395C763.957 159.491 763.444 162.368 762.419 166.025C761.917 167.837 761.387 170.138 760.829 172.93C760.271 175.721 759.992 177.447 759.992 178.108C759.992 178.245 760.054 178.313 760.18 178.313H760.248ZM795.033 177.646C795.033 178.809 794.002 180.21 791.94 181.851C789.889 183.491 787.77 184.312 785.583 184.312C783.749 184.312 782.33 183.77 781.327 182.688C780.336 181.606 779.841 180.096 779.841 178.159C779.841 174.901 780.94 171.802 783.139 168.862C785.338 165.923 787.742 164.453 790.351 164.453C791.205 164.453 791.9 164.732 792.436 165.291C792.983 165.849 793.256 166.521 793.256 167.307C793.256 169.062 792.396 170.742 790.676 172.349C788.955 173.955 786.654 175.533 783.771 177.083C783.179 177.39 782.883 177.789 782.883 178.279C782.883 179.224 783.156 179.982 783.703 180.552C784.25 181.121 785.059 181.406 786.13 181.406C788.579 181.406 791.08 180.05 793.632 177.339C794.008 176.963 794.293 176.775 794.487 176.775C794.851 176.775 795.033 177.065 795.033 177.646ZM783.156 174.98C787.987 172.109 790.402 169.802 790.402 168.059C790.402 167.375 790.095 167.034 789.479 167.034C788.431 167.034 787.246 167.803 785.925 169.341C784.614 170.879 783.692 172.759 783.156 174.98ZM811.191 177.219C809.596 179.361 808.018 180.968 806.457 182.039C804.896 183.11 803.466 183.645 802.167 183.645C801.29 183.645 800.533 183.275 799.895 182.534C799.257 181.794 798.938 180.842 798.938 179.68C798.938 176.684 800.276 173.459 802.954 170.007C805.631 166.544 808.291 164.812 810.935 164.812C811.892 164.812 812.604 165.359 813.071 166.453C813.219 166.817 813.452 167 813.771 167C814.683 167 815.139 167.353 815.139 168.059C815.139 168.412 815.082 168.896 814.968 169.512C814.353 172.873 814.045 175.243 814.045 176.621C814.045 179.378 814.569 181.03 815.617 181.577C816.118 181.851 816.369 182.187 816.369 182.585C816.369 182.939 816.124 183.292 815.634 183.645C815.144 184.01 814.672 184.192 814.216 184.192C813.339 184.192 812.615 183.588 812.045 182.38C811.476 181.173 811.191 179.452 811.191 177.219ZM810.148 167.598C808.645 167.598 806.896 169.01 804.902 171.836C802.908 174.65 801.911 176.986 801.911 178.843C801.911 180.153 802.344 180.808 803.21 180.808C804.463 180.808 806.201 179.543 808.422 177.014C810.644 174.485 811.755 172.161 811.755 170.042C811.755 168.412 811.219 167.598 810.148 167.598ZM824.717 176.655C824.83 176.45 824.967 176.165 825.127 175.801C825.901 174.023 826.613 172.633 827.263 171.631C827.912 170.617 828.624 169.648 829.399 168.726C830.185 167.803 830.897 167.102 831.535 166.624C832.185 166.145 832.772 165.815 833.296 165.632C833.82 165.439 834.327 165.342 834.817 165.342C835.808 165.342 836.617 165.644 837.243 166.248C837.87 166.84 838.183 167.535 838.183 168.333C838.183 168.686 838.069 169.005 837.842 169.29C837.625 169.574 837.289 169.717 836.833 169.717C836.355 169.717 835.916 169.506 835.517 169.084C835.107 168.663 834.68 168.452 834.236 168.452C833.051 168.452 831.41 169.888 829.314 172.759C827.217 175.63 825.941 178.792 825.486 182.244C825.372 183.132 825.155 183.719 824.836 184.004C824.517 184.289 824.067 184.431 823.486 184.431C822.928 184.431 822.523 184.015 822.273 183.184C822.022 182.352 821.897 180.951 821.897 178.979C821.897 178.444 821.925 177.265 821.982 175.442C822.05 173.289 822.187 171.551 822.392 170.229C822.426 170.013 822.483 169.506 822.563 168.708C822.643 167.831 822.74 167.222 822.854 166.88C822.979 166.538 823.224 166.219 823.589 165.923C823.965 165.627 824.369 165.479 824.802 165.479C825.224 165.479 825.537 165.615 825.742 165.889C825.958 166.151 826.067 166.436 826.067 166.743C826.067 167.188 825.953 167.814 825.725 168.623C825.463 169.523 825.309 170.144 825.263 170.486C825.229 170.873 825.167 171.278 825.075 171.699C824.961 172.189 824.848 173.477 824.734 175.562L824.717 176.194V176.655ZM848.65 166.196C849.823 166.105 850.928 165.997 851.965 165.872C852.991 165.758 853.845 165.701 854.529 165.701C855.395 165.701 855.941 165.78 856.169 165.94C856.397 166.099 856.511 166.379 856.511 166.777C856.511 167.7 855.867 168.201 854.58 168.281C852.928 168.384 851.407 168.526 850.017 168.708C848.627 168.891 847.875 169.045 847.761 169.17C847.659 169.284 847.317 170.64 846.736 173.237C846.155 175.824 845.864 177.504 845.864 178.279C845.864 179.532 846.029 180.369 846.36 180.791C846.69 181.201 847.186 181.406 847.847 181.406C848.826 181.406 850.188 180.671 851.931 179.202C852.603 178.598 853.122 178.296 853.486 178.296C853.976 178.296 854.221 178.558 854.221 179.082C854.221 179.902 853.429 180.968 851.846 182.278C850.273 183.577 848.661 184.226 847.009 184.226C844.252 184.226 842.873 182.603 842.873 179.355C842.873 178.182 843.158 176.365 843.728 173.904C844.286 171.454 844.565 169.985 844.565 169.495C844.565 169.324 844.429 169.238 844.155 169.238L842.378 169.392C840.919 169.392 840.19 168.811 840.19 167.649C840.19 166.988 840.526 166.658 841.199 166.658H844.719C844.958 166.658 845.169 166.549 845.351 166.333C845.534 166.117 845.801 165.393 846.155 164.163C846.508 162.921 846.821 161.696 847.095 160.488C847.368 159.292 847.904 158.694 848.701 158.694C849.191 158.694 849.573 158.865 849.846 159.207C850.12 159.548 850.256 159.867 850.256 160.164C850.256 160.323 850.051 161.138 849.641 162.607L848.65 166.196Z" fill="white"/>
<path d="M1015.7 220.356C1017.16 217.701 1018.91 215.554 1020.93 213.913C1022.96 212.261 1024.79 211.435 1026.42 211.435C1027.32 211.435 1028.08 211.851 1028.71 212.683C1029.34 213.514 1029.65 214.528 1029.65 215.725C1029.65 219.268 1028.31 222.595 1025.63 225.705C1022.97 228.804 1020.15 230.354 1017.17 230.354C1016.37 230.354 1015.62 230.137 1014.94 229.704C1014.26 229.26 1013.89 228.707 1013.81 228.046C1013.76 227.511 1013.61 227.112 1013.35 226.85C1012.86 226.36 1012.61 225.836 1012.61 225.278C1012.61 224.241 1012.9 222.025 1013.47 218.63L1015.23 208.41C1015.83 204.981 1016.27 202.862 1016.54 202.053C1016.83 201.244 1017.14 200.703 1017.48 200.429C1017.82 200.156 1018.25 200.019 1018.75 200.019C1019.54 200.019 1019.94 200.708 1019.94 202.087C1019.94 203.397 1019.5 205.231 1018.63 207.59C1017.78 209.857 1016.81 214.112 1015.7 220.356ZM1015.29 226.047C1015.89 227.152 1016.6 227.705 1017.45 227.705C1018.75 227.705 1020.12 227.169 1021.57 226.098C1023.01 225.016 1024.26 223.5 1025.31 221.552C1026.37 219.593 1026.9 217.941 1026.9 216.596C1026.9 215.992 1026.79 215.474 1026.57 215.041C1026.36 214.608 1026.08 214.392 1025.75 214.392C1024.17 214.392 1022.23 215.69 1019.94 218.288C1017.66 220.874 1016.11 223.461 1015.29 226.047ZM1037.45 223.295C1037.56 223.09 1037.7 222.806 1037.86 222.441C1038.64 220.664 1039.35 219.274 1040 218.271C1040.65 217.257 1041.36 216.289 1042.13 215.366C1042.92 214.443 1043.63 213.742 1044.27 213.264C1044.92 212.785 1045.51 212.455 1046.03 212.272C1046.55 212.079 1047.06 211.982 1047.55 211.982C1048.54 211.982 1049.35 212.284 1049.98 212.888C1050.6 213.48 1050.92 214.175 1050.92 214.973C1050.92 215.326 1050.8 215.645 1050.58 215.93C1050.36 216.215 1050.02 216.357 1049.57 216.357C1049.09 216.357 1048.65 216.146 1048.25 215.725C1047.84 215.303 1047.41 215.092 1046.97 215.092C1045.78 215.092 1044.14 216.528 1042.05 219.399C1039.95 222.27 1038.68 225.432 1038.22 228.884C1038.11 229.772 1037.89 230.359 1037.57 230.644C1037.25 230.929 1036.8 231.071 1036.22 231.071C1035.66 231.071 1035.26 230.655 1035.01 229.824C1034.76 228.992 1034.63 227.591 1034.63 225.62C1034.63 225.084 1034.66 223.905 1034.72 222.082C1034.78 219.929 1034.92 218.191 1035.13 216.87C1035.16 216.653 1035.22 216.146 1035.3 215.349C1035.38 214.471 1035.47 213.862 1035.59 213.52C1035.71 213.178 1035.96 212.859 1036.32 212.563C1036.7 212.267 1037.1 212.119 1037.54 212.119C1037.96 212.119 1038.27 212.255 1038.48 212.529C1038.69 212.791 1038.8 213.076 1038.8 213.383C1038.8 213.828 1038.69 214.454 1038.46 215.263C1038.2 216.163 1038.04 216.784 1038 217.126C1037.96 217.513 1037.9 217.918 1037.81 218.339C1037.7 218.829 1037.58 220.117 1037.47 222.202L1037.45 222.834V223.295ZM1057.88 230.935C1056.32 230.935 1055.03 230.342 1054.02 229.157C1053 227.972 1052.5 226.508 1052.5 224.765C1052.5 221.826 1053.48 218.932 1055.45 216.083C1057.44 213.224 1059.81 211.794 1062.56 211.794C1064.39 211.794 1065.86 212.495 1066.99 213.896C1068.13 215.297 1068.7 216.966 1068.7 218.903C1068.7 221.866 1067.52 224.611 1065.18 227.141C1062.84 229.67 1060.41 230.935 1057.88 230.935ZM1055.5 224.321C1055.5 225.472 1055.74 226.411 1056.22 227.141C1056.71 227.87 1057.36 228.234 1058.15 228.234C1059.85 228.234 1061.55 227.306 1063.26 225.449C1064.97 223.58 1065.83 221.507 1065.83 219.228C1065.83 217.827 1065.5 216.693 1064.84 215.827C1064.19 214.95 1063.31 214.511 1062.2 214.511C1060.37 214.511 1058.79 215.639 1057.47 217.895C1056.16 220.139 1055.5 222.281 1055.5 224.321ZM1077.05 222.099C1077.19 221.905 1078.21 220.988 1080.1 219.348C1081.89 217.787 1083.14 216.653 1083.85 215.947C1086.48 213.315 1088.37 211.999 1089.52 211.999C1090.41 211.999 1090.85 212.426 1090.85 213.281C1090.85 214.249 1090.42 214.961 1089.54 215.417C1088.4 215.998 1086.88 216.966 1084.98 218.322C1083.07 219.667 1082.12 220.618 1082.12 221.176C1082.12 221.404 1082.79 222.259 1084.14 223.74C1085.48 225.209 1086.64 226.298 1087.62 227.004C1088.6 227.699 1089.56 228.046 1090.48 228.046L1091.04 228.029C1091.44 228.007 1091.64 228.183 1091.64 228.559C1091.64 229.06 1091.33 229.567 1090.7 230.08C1090.07 230.604 1089.25 230.866 1088.22 230.866C1087.56 230.866 1086.89 230.633 1086.21 230.166C1085.53 229.71 1084.33 228.468 1082.6 226.44C1081.22 224.765 1080.36 223.768 1080.02 223.449C1079.68 223.119 1079.39 222.954 1079.16 222.954C1079.04 222.954 1078.64 223.25 1077.97 223.842C1077.3 224.435 1076.93 224.885 1076.86 225.192C1076.8 225.5 1076.77 226.674 1076.77 228.713V229.516C1076.77 229.938 1076.57 230.314 1076.17 230.644C1075.78 230.974 1075.34 231.14 1074.88 231.14C1074.4 231.14 1074.02 230.997 1073.75 230.712C1073.47 230.439 1073.34 230.154 1073.34 229.858C1073.34 229.448 1073.49 228.479 1073.8 226.953C1074.23 224.754 1074.63 221.809 1074.99 218.117C1075.84 209.401 1076.49 204.474 1076.94 203.334C1077.4 202.184 1078.05 201.608 1078.89 201.608C1079.19 201.608 1079.43 201.768 1079.63 202.087C1079.83 202.406 1079.93 202.816 1079.93 203.317C1079.93 204.229 1079.54 206.65 1078.75 210.581C1077.97 214.523 1077.4 218.362 1077.05 222.099ZM1110.12 224.287C1110.12 225.449 1109.09 226.85 1107.03 228.491C1104.98 230.131 1102.86 230.952 1100.67 230.952C1098.84 230.952 1097.42 230.41 1096.42 229.328C1095.42 228.246 1094.93 226.736 1094.93 224.799C1094.93 221.541 1096.03 218.442 1098.23 215.502C1100.43 212.563 1102.83 211.093 1105.44 211.093C1106.29 211.093 1106.99 211.372 1107.52 211.931C1108.07 212.489 1108.34 213.161 1108.34 213.947C1108.34 215.702 1107.48 217.382 1105.76 218.989C1104.04 220.595 1101.74 222.173 1098.86 223.723C1098.27 224.03 1097.97 224.429 1097.97 224.919C1097.97 225.865 1098.24 226.622 1098.79 227.192C1099.34 227.762 1100.15 228.046 1101.22 228.046C1103.67 228.046 1106.17 226.691 1108.72 223.979C1109.1 223.603 1109.38 223.415 1109.57 223.415C1109.94 223.415 1110.12 223.706 1110.12 224.287ZM1098.24 221.621C1103.08 218.75 1105.49 216.442 1105.49 214.699C1105.49 214.016 1105.18 213.674 1104.57 213.674C1103.52 213.674 1102.33 214.443 1101.01 215.981C1099.7 217.519 1098.78 219.399 1098.24 221.621ZM1126.4 216.938C1125.81 216.938 1125.16 217.325 1124.45 218.1C1123.76 218.875 1122.69 220.612 1121.25 223.312C1119.36 226.936 1118.14 228.998 1117.58 229.499C1117.03 230 1116.58 230.251 1116.21 230.251C1114.87 230.251 1114.2 229.602 1114.2 228.303C1114.2 227.756 1114.29 226.981 1114.47 225.979C1115.1 222.538 1115.41 218.909 1115.41 215.092C1115.41 214.659 1115.59 214.181 1115.96 213.657C1116.33 213.121 1116.69 212.854 1117.02 212.854C1117.61 212.854 1118.03 213.036 1118.28 213.4C1118.53 213.765 1118.66 214.5 1118.66 215.605C1118.66 216.756 1118.32 219.125 1117.63 222.714C1117.4 223.899 1117.29 224.651 1117.29 224.97C1117.29 225.153 1117.34 225.244 1117.43 225.244C1117.6 225.244 1118.39 223.882 1119.8 221.159C1121.23 218.391 1122.47 216.442 1123.54 215.314C1124.62 214.187 1125.8 213.623 1127.08 213.623C1128.11 213.623 1128.94 214.09 1129.58 215.024C1130.23 215.958 1130.7 217.661 1131 220.134C1131.32 222.948 1131.6 224.702 1131.85 225.397C1132.11 226.081 1132.52 226.423 1133.08 226.423C1133.43 226.423 1133.88 226.298 1134.41 226.047C1134.51 226.001 1134.57 225.979 1134.62 225.979C1135.11 225.979 1135.35 226.263 1135.35 226.833C1135.35 227.334 1135.02 227.87 1134.35 228.439C1133.67 228.998 1132.86 229.277 1131.92 229.277C1130.95 229.277 1130.2 228.895 1129.66 228.132C1129.14 227.357 1128.72 225.301 1128.42 221.962C1128.1 218.613 1127.42 216.938 1126.4 216.938Z" fill="white"/>
<path d="M1106.16 310.873C1110.4 303.046 1113.89 299.132 1116.63 299.132C1117.36 299.132 1117.96 299.548 1118.41 300.38C1118.87 301.212 1119.24 303.057 1119.52 305.917C1119.81 308.959 1120.45 311.158 1121.45 312.514C1121.97 313.209 1122.22 313.721 1122.22 314.052C1122.22 314.348 1122.05 314.621 1121.71 314.872C1121.37 315.123 1121 315.248 1120.62 315.248C1119.73 315.248 1118.94 314.752 1118.26 313.761C1117.57 312.759 1117.13 311.004 1116.94 308.498C1116.75 306.128 1116.54 304.578 1116.33 303.849C1116.11 303.12 1115.75 302.755 1115.25 302.755C1114.05 302.755 1111.64 305.883 1108.02 312.138C1106.94 314.006 1106.14 315.231 1105.63 315.812C1105.11 316.382 1104.65 316.667 1104.23 316.667C1103.72 316.667 1103.3 316.518 1102.96 316.222C1102.62 315.926 1102.45 315.561 1102.45 315.128C1102.45 314.809 1102.54 314.194 1102.72 313.283C1104.12 306.048 1105.23 298.893 1106.04 291.818C1106.22 290.166 1106.51 289.066 1106.91 288.52C1107.32 287.973 1107.66 287.699 1107.93 287.699C1108.42 287.699 1108.87 287.899 1109.27 288.297C1109.67 288.696 1109.87 289.249 1109.87 289.955C1109.87 292.051 1109.35 294.928 1108.33 298.585C1107.83 300.397 1107.3 302.698 1106.74 305.49C1106.18 308.281 1105.9 310.007 1105.9 310.668C1105.9 310.805 1105.96 310.873 1106.09 310.873H1106.16ZM1140.94 310.207C1140.94 311.369 1139.91 312.77 1137.85 314.411C1135.8 316.051 1133.68 316.872 1131.49 316.872C1129.66 316.872 1128.24 316.33 1127.24 315.248C1126.25 314.166 1125.75 312.656 1125.75 310.719C1125.75 307.461 1126.85 304.362 1129.05 301.422C1131.25 298.483 1133.65 297.013 1136.26 297.013C1137.11 297.013 1137.81 297.292 1138.35 297.851C1138.89 298.409 1139.17 299.081 1139.17 299.867C1139.17 301.622 1138.31 303.302 1136.58 304.909C1134.86 306.515 1132.56 308.093 1129.68 309.643C1129.09 309.95 1128.79 310.349 1128.79 310.839C1128.79 311.785 1129.07 312.542 1129.61 313.112C1130.16 313.681 1130.97 313.966 1132.04 313.966C1134.49 313.966 1136.99 312.611 1139.54 309.899C1139.92 309.523 1140.2 309.335 1140.4 309.335C1140.76 309.335 1140.94 309.625 1140.94 310.207ZM1129.07 307.541C1133.9 304.669 1136.31 302.362 1136.31 300.619C1136.31 299.936 1136 299.594 1135.39 299.594C1134.34 299.594 1133.16 300.363 1131.83 301.901C1130.52 303.439 1129.6 305.319 1129.07 307.541ZM1151.56 287.067C1152.38 287.067 1152.79 287.591 1152.79 288.639C1152.79 289.573 1152.3 291.795 1151.31 295.304C1150.68 297.514 1150.2 299.953 1149.85 302.619C1149.51 305.285 1149.34 307.375 1149.34 308.891C1149.34 310.771 1149.46 312.639 1149.7 314.496C1149.75 314.849 1149.77 315.106 1149.77 315.265C1149.77 315.835 1149.57 316.325 1149.19 316.735C1148.8 317.145 1148.39 317.35 1147.96 317.35C1147.35 317.35 1146.93 316.974 1146.69 316.222C1146.46 315.47 1146.35 314.257 1146.35 312.582C1146.35 308.765 1146.81 304.037 1147.72 298.397C1148.64 292.758 1149.37 289.459 1149.91 288.502C1150.45 287.545 1151 287.067 1151.56 287.067ZM1159.94 314.018C1159.39 316.068 1158.86 318.945 1158.37 322.648L1157.89 325.878C1157.81 326.334 1157.6 326.784 1157.26 327.228C1156.92 327.684 1156.61 327.912 1156.32 327.912C1155.97 327.912 1155.56 327.729 1155.11 327.365C1154.66 327.012 1154.44 326.727 1154.44 326.51C1154.44 325.884 1154.58 325.018 1154.87 323.913C1156.95 315.493 1158 308.099 1158 301.73L1157.98 300.294C1157.96 299.064 1158.17 298.17 1158.63 297.611C1159.08 297.053 1159.61 296.774 1160.2 296.774C1160.47 296.774 1160.74 296.99 1160.99 297.423C1161.24 297.845 1161.36 298.449 1161.36 299.235C1161.36 300.34 1161.25 301.679 1161.02 303.251C1160.72 305.233 1160.57 306.373 1160.56 306.669C1162.26 303.707 1164.06 301.394 1165.96 299.73C1167.86 298.067 1169.63 297.235 1171.26 297.235C1172.41 297.235 1173.38 297.668 1174.16 298.534C1174.96 299.389 1175.36 300.454 1175.36 301.73C1175.36 305.444 1173.94 308.817 1171.09 311.847C1168.24 314.878 1165.46 316.393 1162.76 316.393C1162.09 316.393 1161.56 316.222 1161.16 315.88C1160.77 315.539 1160.37 314.918 1159.94 314.018ZM1170.56 300.26C1168.95 300.26 1166.96 301.764 1164.59 304.772C1162.22 307.78 1161.04 310.121 1161.04 311.796C1161.04 312.206 1161.27 312.605 1161.74 312.992C1162.21 313.38 1162.8 313.573 1163.52 313.573C1165.15 313.573 1167.02 312.371 1169.14 309.967C1171.26 307.552 1172.32 305.182 1172.32 302.858C1172.32 302.026 1172.15 301.388 1171.8 300.944C1171.47 300.488 1171.06 300.26 1170.56 300.26ZM1188.92 312.086C1188.92 311.346 1188.01 310.503 1186.18 309.557C1183.87 308.372 1182.31 307.427 1181.49 306.72C1180.68 306.002 1180.27 305.205 1180.27 304.328C1180.27 302.06 1181.41 300.181 1183.67 298.688C1185.95 297.195 1187.81 296.449 1189.24 296.449C1190.17 296.449 1190.83 296.609 1191.24 296.928C1191.67 297.247 1191.88 297.799 1191.88 298.585C1191.88 298.939 1191.72 299.241 1191.41 299.491C1191.12 299.742 1190.88 299.867 1190.71 299.867C1190.59 299.867 1190.34 299.782 1189.98 299.611C1189.61 299.451 1189.38 299.372 1189.26 299.372C1188.69 299.372 1187.54 299.787 1185.79 300.619C1184.05 301.451 1183.18 302.391 1183.18 303.439C1183.18 304.077 1183.48 304.658 1184.1 305.182C1184.72 305.695 1185.82 306.327 1187.42 307.079C1188.7 307.694 1189.73 308.355 1190.49 309.062C1191.27 309.757 1191.65 310.577 1191.65 311.522C1191.65 313.266 1190.45 314.633 1188.05 315.624C1185.64 316.604 1183.35 317.094 1181.16 317.094C1179.31 317.094 1178.39 316.467 1178.39 315.214C1178.39 314.781 1178.6 314.462 1179.01 314.257C1179.43 314.052 1179.85 313.949 1180.27 313.949C1180.44 313.949 1180.77 314.006 1181.25 314.12C1181.71 314.234 1182.02 314.291 1182.17 314.291C1183.43 314.291 1184.79 314.08 1186.24 313.659C1187.68 313.237 1188.58 312.713 1188.92 312.086Z" fill="white"/>
<defs>
<linearGradient id="paint0_linear_209_109" x1="152" y1="68.6402" x2="114.017" y2="147.54" gradientUnits="userSpaceOnUse">
<stop stop-color="white"/>
<stop offset="1" stop-opacity="0"/>
</linearGradient>
<linearGradient id="paint1_linear_209_109" x1="312.5" y1="59.8401" x2="292.01" y2="140.441" gradientUnits="userSpaceOnUse">
<stop stop-color="white"/>
<stop offset="1" stop-opacity="0"/>
</linearGradient>
<linearGradient id="paint2_linear_209_109" x1="214.5" y1="299.64" x2="178.527" y2="214.21" gradientUnits="userSpaceOnUse">
<stop stop-color="white"/>
<stop offset="1" stop-opacity="0"/>
</linearGradient>
<linearGradient id="paint3_linear_209_109" x1="376.5" y1="314.6" x2="331.1" y2="210.957" gradientUnits="userSpaceOnUse">
<stop stop-color="white"/>
<stop offset="1" stop-opacity="0"/>
</linearGradient>
<linearGradient id="paint4_linear_209_109" x1="544.5" y1="165.44" x2="439.425" y2="162.441" gradientUnits="userSpaceOnUse">
<stop stop-color="white"/>
<stop offset="1" stop-opacity="0"/>
</linearGradient>
</defs>
</svg>
