<svg width="1300" height="237" viewBox="0 0 1300 237" fill="none" xmlns="http://www.w3.org/2000/svg">
<path d="M114.65 97.7687C111.85 96.7021 109.117 95.8354 106.45 95.1687C103.85 94.5021 100.883 94.1354 97.55 94.0687C94.2833 93.9354 91.3833 94.3354 88.85 95.2687C86.3167 96.2021 84.0167 98.0021 81.95 100.669C79.8833 103.269 78.5167 106.702 77.85 110.969C77.7167 111.702 80.25 111.935 85.45 111.669C90.65 111.335 95.7167 110.969 100.65 110.569C105.583 110.169 108.983 110.469 110.85 111.469C117.45 117.335 122.083 122.769 124.75 127.769C126.083 130.169 125.517 133.635 123.05 138.169C119.917 143.835 115.383 148.002 109.45 150.669C98.9833 155.469 87.5167 153.702 75.05 145.369C69.9833 141.969 64.8833 137.469 59.75 131.869L62.75 130.369C66.6167 132.435 69.7167 134.035 72.05 135.169C74.45 136.302 77.45 137.469 81.05 138.669C84.65 139.802 87.8167 140.402 90.55 140.469C96.8833 140.602 102.083 139.069 106.15 135.869C110.217 132.602 112.517 128.202 113.05 122.669C113.117 122.069 110.717 122.169 105.85 122.969C100.983 123.702 96.0833 124.369 91.15 124.969C86.2167 125.569 82.4833 125.102 79.95 123.569C77.2833 121.435 73.1167 117.235 67.45 110.969C65.65 108.769 64.7167 106.402 64.65 103.869C64.5833 101.335 65.4167 98.7687 67.15 96.1687C68.8833 93.5687 71.0167 91.2354 73.55 89.1687C76.0833 87.1021 79.05 85.4021 82.45 84.0687C85.9167 82.7354 89.35 82.0687 92.75 82.0687C93.6167 82.0687 95.25 82.6354 97.65 83.7687C100.05 84.8354 103.35 86.4687 107.55 88.6687C111.817 90.8687 114.617 92.3021 115.95 92.9687L114.65 97.7687ZM159.609 87.8687L159.709 115.869L192.009 114.069V83.8687L206.009 87.8687V153.369L192.009 150.469V122.569L159.709 124.369L159.809 153.369L145.809 150.469V83.8687L159.609 87.8687ZM274.227 83.7687L288.127 87.8687V134.669C288.127 138.469 285.194 142.569 279.327 146.969C273.461 151.302 267.227 153.469 260.627 153.469C256.694 153.469 251.827 151.469 246.027 147.469C240.227 143.469 234.894 138.769 230.027 133.369C229.961 133.302 229.894 132.769 229.827 131.769C229.761 130.769 229.694 129.469 229.627 127.869C229.627 126.269 229.594 124.402 229.527 122.269C229.527 120.135 229.527 117.902 229.527 115.569C229.527 113.235 229.527 110.835 229.527 108.369C229.527 105.835 229.527 103.435 229.527 101.169C229.594 98.8354 229.627 96.6021 229.627 94.4687C229.627 92.3354 229.627 90.5021 229.627 88.9687C229.694 87.4354 229.727 86.2021 229.727 85.2687V83.7687C229.727 83.8354 230.861 84.2021 233.127 84.8687C235.461 85.5354 237.761 86.2021 240.027 86.8687L243.527 87.8687C243.261 121.335 243.294 138.269 243.627 138.669C246.361 141.602 249.861 143.135 254.127 143.269C258.461 143.335 262.527 142.202 266.327 139.869C270.127 137.535 272.761 134.535 274.227 130.869V83.7687ZM325.898 92.8687L325.998 115.369C331.131 115.369 335.564 114.735 339.298 113.469C343.031 112.135 345.764 110.535 347.498 108.669C349.231 106.735 350.498 104.702 351.298 102.569C352.098 100.435 352.364 98.5021 352.098 96.7687C351.898 95.0354 351.431 93.7687 350.698 92.9687C349.431 91.6354 347.398 90.8021 344.598 90.4687C341.864 90.0687 338.931 90.1354 335.798 90.6687C332.664 91.1354 329.364 91.8687 325.898 92.8687ZM325.998 120.369L326.098 145.269C337.964 146.469 346.664 144.435 352.198 139.169C355.798 135.702 357.098 131.802 356.098 127.469C355.431 124.535 353.764 122.169 351.098 120.369C344.231 123.302 335.864 123.302 325.998 120.369ZM326.098 150.569L312.098 147.469V83.5687C317.631 82.0354 324.331 81.2021 332.198 81.0687C340.131 80.9354 344.898 81.4687 346.498 82.6687C348.564 84.0021 351.331 86.3354 354.798 89.6687C358.331 93.0021 361.098 95.8354 363.098 98.1687C363.964 99.5687 364.398 101.302 364.398 103.369C364.398 105.435 363.664 107.835 362.198 110.569C360.731 113.235 358.764 115.502 356.298 117.369C361.698 120.502 366.098 124.002 369.498 127.869C370.631 129.202 371.064 131.102 370.798 133.569C370.531 136.035 369.498 138.602 367.698 141.269C365.898 143.935 363.164 146.302 359.498 148.369C355.898 150.435 351.331 151.735 345.798 152.269C340.331 152.869 333.764 152.302 326.098 150.569ZM405.331 87.8687L405.431 115.869L437.731 114.069V83.8687L451.731 87.8687V153.369L437.731 150.469V122.569L405.431 124.369L405.531 153.369L391.531 150.469V83.8687L405.331 87.8687Z" fill="white"/>
<path d="M87.5 81.4687C174.5 -56.8802 394 58.064 801.5 27.847" stroke="url(#paint0_linear_209_109)" stroke-width="3" stroke-linecap="round"/>
<path d="M257 93.7786C257 -11.5535 1003.5 134.498 1147.5 60.4353" stroke="url(#paint1_linear_209_109)" stroke-width="3" stroke-linecap="round"/>
<path d="M165 145.432C323 289.396 950 187.364 1092.5 206.702" stroke="url(#paint2_linear_209_109)" stroke-width="3" stroke-linecap="round"/>
<path d="M338 150.145C503.5 250.197 623.5 143.681 1003 143.681" stroke="url(#paint3_linear_209_109)" stroke-width="3" stroke-linecap="round"/>
<path d="M468 124.56C530.5 109.451 574 143.978 741.5 116.13" stroke="url(#paint4_linear_209_109)" stroke-width="3" stroke-linecap="round"/>
<path d="M827.331 32.9741C827.331 32.2336 826.419 31.3905 824.596 30.4448C822.284 29.2599 820.717 28.3143 819.897 27.6079C819.088 26.8901 818.683 26.0926 818.683 25.2153C818.683 22.9481 819.817 21.0682 822.084 19.5757C824.363 18.0832 826.22 17.3369 827.656 17.3369C828.578 17.3369 829.245 17.4964 829.655 17.8154C830.077 18.1344 830.287 18.687 830.287 19.4731C830.287 19.8263 830.134 20.1283 829.826 20.3789C829.53 20.6296 829.296 20.7549 829.125 20.7549C829 20.7549 828.755 20.6694 828.39 20.4985C828.026 20.339 827.787 20.2593 827.673 20.2593C827.103 20.2593 825.947 20.6751 824.203 21.5068C822.46 22.3385 821.589 23.2785 821.589 24.3267C821.589 24.9647 821.896 25.5457 822.512 26.0698C823.127 26.5825 824.232 27.2148 825.827 27.9668C827.114 28.582 828.14 29.2428 828.903 29.9492C829.678 30.6442 830.065 31.4645 830.065 32.4102C830.065 34.1533 828.863 35.5205 826.459 36.5117C824.055 37.4915 821.76 37.9814 819.572 37.9814C817.726 37.9814 816.804 37.3548 816.804 36.1016C816.804 35.6686 817.009 35.3496 817.419 35.1445C817.84 34.9395 818.262 34.8369 818.683 34.8369C818.854 34.8369 819.179 34.8939 819.658 35.0078C820.125 35.1217 820.432 35.1787 820.58 35.1787C821.845 35.1787 823.201 34.9679 824.648 34.5464C826.095 34.1248 826.989 33.6007 827.331 32.9741ZM849.282 31.0942C849.282 32.2563 848.251 33.6577 846.188 35.2983C844.138 36.939 842.019 37.7593 839.831 37.7593C837.997 37.7593 836.578 37.2181 835.576 36.1357C834.584 35.0534 834.089 33.5438 834.089 31.6069C834.089 28.3485 835.188 25.2495 837.387 22.3101C839.586 19.3706 841.99 17.9009 844.599 17.9009C845.454 17.9009 846.149 18.18 846.684 18.7383C847.231 19.2965 847.504 19.9688 847.504 20.7549C847.504 22.5094 846.644 24.1899 844.924 25.7964C843.203 27.4028 840.902 28.9808 838.02 30.5303C837.427 30.8379 837.131 31.2367 837.131 31.7266C837.131 32.6722 837.404 33.4299 837.951 33.9995C838.498 34.5692 839.307 34.854 840.378 34.854C842.827 34.854 845.328 33.4982 847.88 30.7866C848.256 30.4106 848.541 30.2227 848.735 30.2227C849.099 30.2227 849.282 30.5132 849.282 31.0942ZM837.404 28.4282C842.235 25.5571 844.65 23.25 844.65 21.5068C844.65 20.8232 844.343 20.4814 843.728 20.4814C842.679 20.4814 841.494 21.2505 840.173 22.7886C838.863 24.3267 837.94 26.2065 837.404 28.4282ZM857.373 30.103C857.487 29.8979 857.623 29.6131 857.783 29.2485C858.558 27.4712 859.27 26.0812 859.919 25.0786C860.569 24.0646 861.281 23.0962 862.055 22.1733C862.841 21.2505 863.554 20.5498 864.192 20.0713C864.841 19.5928 865.428 19.2624 865.952 19.0801C866.476 18.8864 866.983 18.7896 867.473 18.7896C868.464 18.7896 869.273 19.0915 869.9 19.6953C870.526 20.2878 870.84 20.9827 870.84 21.7803C870.84 22.1335 870.726 22.4525 870.498 22.7373C870.281 23.0221 869.945 23.1646 869.489 23.1646C869.011 23.1646 868.572 22.9538 868.174 22.5322C867.763 22.1107 867.336 21.8999 866.892 21.8999C865.707 21.8999 864.066 23.3354 861.97 26.2065C859.874 29.0776 858.598 32.2393 858.142 35.6914C858.028 36.5801 857.811 37.1668 857.492 37.4517C857.173 37.7365 856.723 37.8789 856.142 37.8789C855.584 37.8789 855.18 37.4631 854.929 36.6313C854.678 35.7996 854.553 34.3983 854.553 32.4272C854.553 31.8918 854.581 30.7126 854.638 28.8896C854.707 26.7363 854.843 24.9989 855.049 23.6772C855.083 23.4608 855.14 22.9538 855.219 22.1562C855.299 21.279 855.396 20.6694 855.51 20.3276C855.635 19.9858 855.88 19.6668 856.245 19.3706C856.621 19.0744 857.025 18.9263 857.458 18.9263C857.88 18.9263 858.193 19.063 858.398 19.3364C858.615 19.5985 858.723 19.8833 858.723 20.1909C858.723 20.6353 858.609 21.2619 858.381 22.0708C858.119 22.9709 857.965 23.5918 857.92 23.9336C857.885 24.321 857.823 24.7254 857.732 25.147C857.618 25.6369 857.504 26.9243 857.39 29.0093L857.373 29.6416V30.103ZM887.612 31.0942C887.612 32.2563 886.581 33.6577 884.519 35.2983C882.468 36.939 880.349 37.7593 878.162 37.7593C876.327 37.7593 874.909 37.2181 873.906 36.1357C872.915 35.0534 872.419 33.5438 872.419 31.6069C872.419 28.3485 873.519 25.2495 875.718 22.3101C877.917 19.3706 880.321 17.9009 882.93 17.9009C883.784 17.9009 884.479 18.18 885.015 18.7383C885.561 19.2965 885.835 19.9688 885.835 20.7549C885.835 22.5094 884.975 24.1899 883.254 25.7964C881.534 27.4028 879.232 28.9808 876.35 30.5303C875.758 30.8379 875.461 31.2367 875.461 31.7266C875.461 32.6722 875.735 33.4299 876.282 33.9995C876.829 34.5692 877.637 34.854 878.708 34.854C881.158 34.854 883.659 33.4982 886.211 30.7866C886.587 30.4106 886.872 30.2227 887.065 30.2227C887.43 30.2227 887.612 30.5132 887.612 31.0942ZM875.735 28.4282C880.565 25.5571 882.981 23.25 882.981 21.5068C882.981 20.8232 882.673 20.4814 882.058 20.4814C881.01 20.4814 879.825 21.2505 878.503 22.7886C877.193 24.3267 876.27 26.2065 875.735 28.4282ZM903.889 23.7456C903.297 23.7456 902.647 24.133 901.941 24.9077C901.246 25.6825 900.181 27.4199 898.745 30.1201C896.854 33.7432 895.629 35.8053 895.071 36.3066C894.524 36.8079 894.068 37.0586 893.704 37.0586C892.359 37.0586 891.687 36.4092 891.687 35.1104C891.687 34.5635 891.778 33.7887 891.961 32.7861C892.587 29.3454 892.9 25.7166 892.9 21.8999C892.9 21.467 893.083 20.9884 893.447 20.4644C893.823 19.9289 894.177 19.6611 894.507 19.6611C895.099 19.6611 895.521 19.8434 895.772 20.208C896.022 20.5726 896.148 21.3075 896.148 22.4126C896.148 23.5633 895.806 25.9331 895.122 29.522C894.894 30.7069 894.78 31.4588 894.78 31.7778C894.78 31.9601 894.826 32.0513 894.917 32.0513C895.088 32.0513 895.88 30.6898 897.293 27.9668C898.717 25.1982 899.964 23.25 901.035 22.1221C902.106 20.9941 903.285 20.4302 904.573 20.4302C905.598 20.4302 906.43 20.8973 907.068 21.8315C907.717 22.7658 908.19 24.4691 908.486 26.9414C908.805 29.7555 909.09 31.5101 909.341 32.2051C909.603 32.8887 910.013 33.2305 910.571 33.2305C910.925 33.2305 911.369 33.1051 911.904 32.8545C911.996 32.8089 912.064 32.7861 912.109 32.7861C912.599 32.7861 912.844 33.071 912.844 33.6406C912.844 34.1419 912.508 34.6774 911.836 35.2471C911.164 35.8053 910.355 36.0845 909.409 36.0845C908.441 36.0845 907.689 35.7028 907.153 34.9395C906.629 34.1647 906.213 32.1082 905.906 28.77C905.587 25.4204 904.915 23.7456 903.889 23.7456ZM922.012 14.0044C921.773 14.0044 921.59 13.748 921.465 13.2354C921.42 13.0758 921.357 12.8993 921.277 12.7056C920.97 11.965 920.816 11.3213 920.816 10.7744C920.816 10.3187 921.083 9.85726 921.619 9.39014C922.166 8.91162 922.77 8.67236 923.43 8.67236C923.761 8.67236 924.131 8.80339 924.541 9.06543C924.951 9.31608 925.157 9.56104 925.157 9.80029C925.157 10.1763 925.014 10.8143 924.729 11.7144C924.456 12.6144 924.012 13.224 923.396 13.543C922.792 13.8506 922.331 14.0044 922.012 14.0044ZM919.773 33.0938C919.773 33.9596 919.893 34.9338 920.132 36.0161C920.178 36.2212 920.2 36.3921 920.2 36.5288C920.2 36.7339 920.012 36.9959 919.637 37.3149C919.261 37.6453 918.862 37.8105 918.44 37.8105C917.335 37.8105 916.783 36.7965 916.783 34.7686C916.783 32.6722 917.215 29.3568 918.081 24.8223C918.378 23.2386 918.526 22.2645 918.526 21.8999C918.526 21.1821 918.657 20.5726 918.919 20.0713C919.181 19.5586 919.551 19.3022 920.03 19.3022C920.611 19.3022 921.066 19.4447 921.397 19.7295C921.739 20.0029 921.909 20.3105 921.909 20.6523C921.909 20.9941 921.83 21.4442 921.67 22.0024C920.816 25.0103 920.286 27.1636 920.081 28.4624C919.876 29.7612 919.773 31.305 919.773 33.0938ZM934.632 19.644C935.805 19.5529 936.91 19.4447 937.947 19.3193C938.973 19.2054 939.827 19.1484 940.511 19.1484C941.377 19.1484 941.924 19.2282 942.151 19.3877C942.379 19.5472 942.493 19.8263 942.493 20.2251C942.493 21.1479 941.849 21.6493 940.562 21.729C938.91 21.8315 937.389 21.974 935.999 22.1562C934.609 22.3385 933.857 22.4924 933.743 22.6177C933.641 22.7316 933.299 24.0874 932.718 26.6851C932.137 29.2713 931.846 30.9518 931.846 31.7266C931.846 32.9798 932.011 33.8172 932.342 34.2388C932.672 34.6489 933.168 34.854 933.829 34.854C934.808 34.854 936.17 34.1191 937.913 32.6494C938.585 32.0456 939.104 31.7437 939.468 31.7437C939.958 31.7437 940.203 32.0057 940.203 32.5298C940.203 33.3501 939.411 34.4154 937.828 35.7256C936.255 37.0244 934.643 37.6738 932.991 37.6738C930.234 37.6738 928.855 36.0503 928.855 32.8032C928.855 31.6297 929.14 29.8125 929.71 27.3516C930.268 24.902 930.547 23.4323 930.547 22.9424C930.547 22.7715 930.411 22.686 930.137 22.686L928.36 22.8398C926.902 22.8398 926.172 22.2588 926.172 21.0967C926.172 20.4359 926.508 20.1055 927.181 20.1055H930.701C930.94 20.1055 931.151 19.9972 931.333 19.7808C931.516 19.5643 931.784 18.8408 932.137 17.6104C932.49 16.3685 932.803 15.1437 933.077 13.936C933.35 12.7397 933.886 12.1416 934.683 12.1416C935.173 12.1416 935.555 12.3125 935.828 12.6543C936.102 12.9961 936.238 13.3151 936.238 13.6113C936.238 13.7708 936.033 14.5854 935.623 16.0552L934.632 19.644ZM957.762 30.855C955.666 32.6779 953.82 34.0052 952.225 34.8369C950.641 35.6572 949.428 36.0674 948.585 36.0674C947.457 36.0674 946.591 35.6003 945.987 34.666C945.395 33.7204 945.098 32.6209 945.098 31.3677C945.098 29.6131 945.452 27.4484 946.158 24.8735C946.876 22.2873 947.405 20.7549 947.747 20.2764C948.1 19.7865 948.659 19.5415 949.422 19.5415C949.741 19.5415 950.003 19.7295 950.208 20.1055C950.413 20.4814 950.516 20.9087 950.516 21.3872C950.516 21.672 950.385 22.0423 950.123 22.498C949.508 23.569 949.183 24.1615 949.149 24.2754C949.126 24.3893 948.909 25.0786 948.499 26.3433C948.089 27.5965 947.884 28.7757 947.884 29.8809C947.884 30.2682 947.975 30.8721 948.157 31.6924C948.351 32.5127 948.744 32.9229 949.337 32.9229C949.963 32.9229 950.732 32.7349 951.644 32.3589C952.567 31.9715 953.603 31.3449 954.754 30.479C955.905 29.6131 956.68 28.9124 957.078 28.377C957.477 27.8415 957.756 27.2319 957.916 26.5483C958.087 25.8647 958.206 24.3836 958.275 22.105C958.343 19.8263 958.896 18.687 959.932 18.687C960.548 18.687 960.946 18.8522 961.129 19.1826C961.311 19.5016 961.402 20.1169 961.402 21.0283C961.402 21.7803 961.351 22.7202 961.248 23.8481C961.123 25.2723 961.043 26.2863 961.009 26.8901C960.849 30.0233 960.439 33.1735 959.779 36.3408C959.129 39.4967 958.178 42.1343 956.925 44.2534C955.671 46.384 953.945 47.4492 951.746 47.4492C949.513 47.4492 947.525 46.8625 945.782 45.689C944.05 44.5269 943.184 43.5413 943.184 42.7324C943.184 42.3564 943.27 41.9862 943.441 41.6216C943.623 41.257 943.851 41.0747 944.124 41.0747C944.261 41.0747 944.409 41.1829 944.569 41.3994C946.061 43.6895 948.408 44.8345 951.61 44.8345C953.262 44.8345 954.646 43.3818 955.762 40.4766C956.89 37.5827 957.511 34.8654 957.625 32.3247C957.648 31.8348 957.694 31.3449 957.762 30.855Z" fill="white"/>
<path d="M1144.42 44.1187C1142.96 46.5682 1141.47 48.4652 1139.94 49.8096C1138.42 51.154 1137 51.8262 1135.69 51.8262C1134.94 51.8262 1134.17 51.3875 1133.38 50.5103C1132.61 49.633 1132.22 48.2829 1132.22 46.46C1132.22 44.9674 1132.58 42.7686 1133.3 39.8633C1133.9 37.4365 1134.2 35.7332 1134.2 34.7534C1134.53 34.0698 1135.05 33.728 1135.76 33.728C1136.24 33.728 1136.62 33.8989 1136.9 34.2407C1137.19 34.5711 1137.33 34.9186 1137.33 35.2832C1137.33 36.0807 1137.05 37.2144 1136.49 38.6841C1135.43 41.5438 1134.9 43.999 1134.9 46.0498C1134.9 47.9183 1135.34 48.8525 1136.2 48.8525C1137.31 48.8525 1138.71 47.9126 1140.42 46.0327C1142.13 44.1528 1143.6 41.5324 1144.81 38.1714C1145.29 36.827 1145.68 35.9554 1145.98 35.5566C1146.28 35.1465 1146.69 34.9414 1147.21 34.9414C1147.98 34.9414 1148.37 35.4541 1148.37 36.4795C1148.37 36.6048 1148.26 37.0207 1148.04 37.7271C1147.36 40.2222 1147.02 42.5806 1147.02 44.8022C1147.02 47.4683 1147.46 49.1943 1148.33 49.9805C1148.79 50.402 1149.02 50.7438 1149.02 51.0059C1149.02 51.3249 1148.78 51.6154 1148.32 51.8774C1147.86 52.1395 1147.45 52.2705 1147.07 52.2705C1146.27 52.2705 1145.63 51.6781 1145.14 50.4932C1144.65 49.3083 1144.4 47.5594 1144.4 45.2466V44.6826C1144.4 44.5003 1144.41 44.3123 1144.42 44.1187ZM1158.07 49.5703C1157.51 51.6211 1156.98 54.4979 1156.49 58.2007L1156.02 61.4307C1155.94 61.8864 1155.73 62.3364 1155.38 62.7808C1155.04 63.2365 1154.73 63.4644 1154.44 63.4644C1154.09 63.4644 1153.69 63.2821 1153.23 62.9175C1152.79 62.5643 1152.56 62.2795 1152.56 62.063C1152.56 61.4364 1152.71 60.5705 1152.99 59.4653C1155.08 51.0457 1156.12 43.6515 1156.12 37.2827L1156.1 35.8472C1156.08 34.6167 1156.29 33.7223 1156.75 33.1641C1157.21 32.6058 1157.73 32.3267 1158.32 32.3267C1158.6 32.3267 1158.86 32.5431 1159.11 32.9761C1159.36 33.3976 1159.49 34.0015 1159.49 34.7876C1159.49 35.8927 1159.37 37.2314 1159.14 38.8037C1158.85 40.7861 1158.69 41.9255 1158.68 42.2217C1160.38 39.2594 1162.18 36.9466 1164.08 35.2832C1165.98 33.6198 1167.75 32.7881 1169.38 32.7881C1170.53 32.7881 1171.5 33.221 1172.29 34.0869C1173.08 34.9414 1173.48 36.0067 1173.48 37.2827C1173.48 40.9969 1172.06 44.3693 1169.21 47.3999C1166.36 50.4305 1163.59 51.9458 1160.89 51.9458C1160.21 51.9458 1159.68 51.7749 1159.28 51.4331C1158.89 51.0913 1158.49 50.4704 1158.07 49.5703ZM1168.68 35.813C1167.07 35.813 1165.08 37.3169 1162.72 40.3247C1160.35 43.3325 1159.16 45.6738 1159.16 47.3486C1159.16 47.7588 1159.39 48.1576 1159.86 48.5449C1160.33 48.9323 1160.92 49.126 1161.64 49.126C1163.27 49.126 1165.14 47.924 1167.26 45.52C1169.38 43.1047 1170.44 40.7349 1170.44 38.4106C1170.44 37.5789 1170.27 36.9409 1169.93 36.4966C1169.6 36.0409 1169.18 35.813 1168.68 35.813ZM1184.43 22.6196C1185.25 22.6196 1185.66 23.1437 1185.66 24.1919C1185.66 25.1261 1185.16 27.3478 1184.17 30.8569C1183.54 33.0672 1183.06 35.5054 1182.72 38.1714C1182.38 40.8374 1182.2 42.9281 1182.2 44.4434C1182.2 46.3232 1182.32 48.1917 1182.56 50.0488C1182.61 50.402 1182.63 50.6584 1182.63 50.8179C1182.63 51.3875 1182.44 51.8774 1182.05 52.2876C1181.66 52.6978 1181.25 52.9028 1180.82 52.9028C1180.22 52.9028 1179.8 52.5269 1179.56 51.7749C1179.33 51.0229 1179.21 49.8096 1179.21 48.1348C1179.21 44.318 1179.67 39.5898 1180.58 33.9502C1181.5 28.3105 1182.23 25.0122 1182.77 24.0552C1183.32 23.0981 1183.87 22.6196 1184.43 22.6196ZM1195.01 28.6694C1194.77 28.6694 1194.59 28.4131 1194.47 27.9004C1194.42 27.7409 1194.36 27.5643 1194.28 27.3706C1193.97 26.63 1193.82 25.9863 1193.82 25.4395C1193.82 24.9837 1194.08 24.5223 1194.62 24.0552C1195.17 23.5767 1195.77 23.3374 1196.43 23.3374C1196.76 23.3374 1197.13 23.4684 1197.54 23.7305C1197.95 23.9811 1198.16 24.2261 1198.16 24.4653C1198.16 24.8413 1198.01 25.4793 1197.73 26.3794C1197.46 27.2795 1197.01 27.889 1196.4 28.208C1195.79 28.5156 1195.33 28.6694 1195.01 28.6694ZM1192.77 47.7588C1192.77 48.6247 1192.89 49.5988 1193.13 50.6812C1193.18 50.8862 1193.2 51.0571 1193.2 51.1938C1193.2 51.3989 1193.01 51.661 1192.64 51.98C1192.26 52.3104 1191.86 52.4756 1191.44 52.4756C1190.34 52.4756 1189.78 51.4616 1189.78 49.4336C1189.78 47.3372 1190.22 44.0218 1191.08 39.4873C1191.38 37.9036 1191.53 36.9295 1191.53 36.5649C1191.53 35.8472 1191.66 35.2376 1191.92 34.7363C1192.18 34.2236 1192.55 33.9673 1193.03 33.9673C1193.61 33.9673 1194.07 34.1097 1194.4 34.3945C1194.74 34.668 1194.91 34.9756 1194.91 35.3174C1194.91 35.6592 1194.83 36.1092 1194.67 36.6675C1193.82 39.6753 1193.29 41.8286 1193.08 43.1274C1192.88 44.4263 1192.77 45.9701 1192.77 47.7588ZM1204.08 52.3389C1204 52.6237 1203.78 52.863 1203.43 53.0566C1203.08 53.2503 1202.72 53.3472 1202.37 53.3472C1201.21 53.3472 1200.63 52.4984 1200.63 50.8008C1200.63 49.9919 1200.89 47.7018 1201.43 43.9307C1201.76 41.6178 1201.92 39.8633 1201.92 38.667C1201.92 38.4619 1201.69 38.1942 1201.21 37.8638C1200.72 37.5448 1200.47 37.2314 1200.47 36.9238C1200.47 36.4339 1200.84 35.9041 1201.58 35.3345C1202.15 34.8901 1202.5 34.3945 1202.63 33.8477C1202.76 33.3008 1202.92 32.5431 1203.09 31.5747C1203.67 28.0428 1204.57 25.4964 1205.8 23.9355C1207.05 22.3747 1208.62 21.5942 1210.54 21.5942C1211.55 21.5942 1212.41 21.9417 1213.12 22.6367C1213.82 23.3203 1214.18 24.1748 1214.18 25.2002C1214.18 26.0319 1213.98 26.9775 1213.58 28.0371C1213.19 29.0853 1212.75 29.6094 1212.25 29.6094C1211.87 29.6094 1211.68 29.4214 1211.68 29.0454L1211.8 27.3877C1211.8 25.1888 1211.19 24.0894 1209.96 24.0894C1208.62 24.0894 1207.52 25.3996 1206.64 28.02C1205.76 30.6291 1205.33 32.7539 1205.33 34.3945C1205.33 34.9186 1205.67 35.1807 1206.35 35.1807C1209.32 35.1807 1211.07 35.1693 1211.6 35.1465C1212.13 35.1237 1212.4 35.3459 1212.4 35.813C1212.4 36.2801 1212.11 36.639 1211.53 36.8896C1210.96 37.1289 1209.71 37.3454 1207.77 37.5391C1206.12 37.71 1205.18 37.8524 1204.97 37.9663C1204.2 42.2046 1203.82 45.9814 1203.82 49.2969C1203.82 50.2881 1203.87 51.0229 1203.96 51.5015C1204.04 51.9458 1204.08 52.2249 1204.08 52.3389ZM1221.74 34.3091C1222.91 34.2179 1224.02 34.1097 1225.05 33.9844C1226.08 33.8704 1226.93 33.8135 1227.62 33.8135C1228.48 33.8135 1229.03 33.8932 1229.26 34.0527C1229.49 34.2122 1229.6 34.4914 1229.6 34.8901C1229.6 35.813 1228.96 36.3143 1227.67 36.394C1226.02 36.4966 1224.5 36.639 1223.11 36.8213C1221.72 37.0036 1220.96 37.1574 1220.85 37.2827C1220.75 37.3966 1220.41 38.7524 1219.83 41.3501C1219.24 43.9364 1218.95 45.6169 1218.95 46.3916C1218.95 47.6449 1219.12 48.4823 1219.45 48.9038C1219.78 49.314 1220.28 49.519 1220.94 49.519C1221.92 49.519 1223.28 48.7842 1225.02 47.3145C1225.69 46.7106 1226.21 46.4087 1226.58 46.4087C1227.07 46.4087 1227.31 46.6707 1227.31 47.1948C1227.31 48.0151 1226.52 49.0804 1224.94 50.3906C1223.36 51.6895 1221.75 52.3389 1220.1 52.3389C1217.34 52.3389 1215.96 50.7153 1215.96 47.4683C1215.96 46.2948 1216.25 44.4775 1216.82 42.0166C1217.38 39.5671 1217.65 38.0973 1217.65 37.6074C1217.65 37.4365 1217.52 37.3511 1217.24 37.3511L1215.47 37.5049C1214.01 37.5049 1213.28 36.9238 1213.28 35.7617C1213.28 35.1009 1213.62 34.7705 1214.29 34.7705H1217.81C1218.05 34.7705 1218.26 34.6623 1218.44 34.4458C1218.62 34.2293 1218.89 33.5059 1219.24 32.2754C1219.6 31.0335 1219.91 29.8088 1220.18 28.6011C1220.46 27.4048 1220.99 26.8066 1221.79 26.8066C1222.28 26.8066 1222.66 26.9775 1222.94 27.3193C1223.21 27.6611 1223.35 27.9801 1223.35 28.2764C1223.35 28.4359 1223.14 29.2505 1222.73 30.7202L1221.74 34.3091Z" fill="white"/>
<path d="M760.248 123.451C764.486 115.624 767.978 111.71 770.724 111.71C771.453 111.71 772.046 112.126 772.502 112.958C772.957 113.789 773.328 115.635 773.612 118.495C773.897 121.537 774.541 123.736 775.544 125.091C776.056 125.786 776.313 126.299 776.313 126.629C776.313 126.926 776.142 127.199 775.8 127.45C775.458 127.7 775.094 127.826 774.706 127.826C773.817 127.826 773.031 127.33 772.348 126.339C771.664 125.336 771.226 123.582 771.032 121.075C770.838 118.705 770.633 117.156 770.417 116.427C770.2 115.698 769.841 115.333 769.34 115.333C768.144 115.333 765.734 118.46 762.111 124.715C761.029 126.584 760.231 127.809 759.718 128.39C759.206 128.959 758.739 129.244 758.317 129.244C757.816 129.244 757.394 129.096 757.052 128.8C756.711 128.504 756.54 128.139 756.54 127.706C756.54 127.387 756.631 126.772 756.813 125.86C758.214 118.626 759.32 111.471 760.129 104.396C760.311 102.743 760.601 101.644 761 101.097C761.41 100.55 761.752 100.277 762.025 100.277C762.515 100.277 762.96 100.476 763.358 100.875C763.757 101.274 763.957 101.826 763.957 102.533C763.957 104.629 763.444 107.506 762.419 111.163C761.917 112.975 761.387 115.276 760.829 118.067C760.271 120.859 759.992 122.585 759.992 123.246C759.992 123.382 760.054 123.451 760.18 123.451H760.248ZM795.033 122.784C795.033 123.946 794.002 125.348 791.94 126.988C789.889 128.629 787.77 129.449 785.583 129.449C783.749 129.449 782.33 128.908 781.327 127.826C780.336 126.743 779.841 125.234 779.841 123.297C779.841 120.038 780.94 116.939 783.139 114C785.338 111.061 787.742 109.591 790.351 109.591C791.205 109.591 791.9 109.87 792.436 110.428C792.983 110.986 793.256 111.659 793.256 112.445C793.256 114.199 792.396 115.88 790.676 117.486C788.955 119.093 786.654 120.671 783.771 122.22C783.179 122.528 782.883 122.927 782.883 123.417C782.883 124.362 783.156 125.12 783.703 125.689C784.25 126.259 785.059 126.544 786.13 126.544C788.579 126.544 791.08 125.188 793.632 122.477C794.008 122.101 794.293 121.913 794.487 121.913C794.851 121.913 795.033 122.203 795.033 122.784ZM783.156 120.118C787.987 117.247 790.402 114.94 790.402 113.197C790.402 112.513 790.095 112.171 789.479 112.171C788.431 112.171 787.246 112.94 785.925 114.479C784.614 116.017 783.692 117.896 783.156 120.118ZM811.191 122.357C809.596 124.499 808.018 126.105 806.457 127.176C804.896 128.247 803.466 128.783 802.167 128.783C801.29 128.783 800.533 128.412 799.895 127.672C799.257 126.931 798.938 125.98 798.938 124.818C798.938 121.821 800.276 118.597 802.954 115.145C805.631 111.681 808.291 109.95 810.935 109.95C811.892 109.95 812.604 110.497 813.071 111.59C813.219 111.955 813.452 112.137 813.771 112.137C814.683 112.137 815.139 112.49 815.139 113.197C815.139 113.55 815.082 114.034 814.968 114.649C814.353 118.01 814.045 120.38 814.045 121.759C814.045 124.516 814.569 126.168 815.617 126.715C816.118 126.988 816.369 127.324 816.369 127.723C816.369 128.076 816.124 128.43 815.634 128.783C815.144 129.147 814.672 129.33 814.216 129.33C813.339 129.33 812.615 128.726 812.045 127.518C811.476 126.31 811.191 124.59 811.191 122.357ZM810.148 112.735C808.645 112.735 806.896 114.148 804.902 116.974C802.908 119.788 801.911 122.123 801.911 123.98C801.911 125.291 802.344 125.946 803.21 125.946C804.463 125.946 806.201 124.681 808.422 122.152C810.644 119.623 811.755 117.298 811.755 115.179C811.755 113.55 811.219 112.735 810.148 112.735ZM824.717 121.793C824.83 121.588 824.967 121.303 825.127 120.938C825.901 119.161 826.613 117.771 827.263 116.769C827.912 115.755 828.624 114.786 829.399 113.863C830.185 112.94 830.897 112.24 831.535 111.761C832.185 111.283 832.772 110.952 833.296 110.77C833.82 110.576 834.327 110.479 834.817 110.479C835.808 110.479 836.617 110.781 837.243 111.385C837.87 111.978 838.183 112.673 838.183 113.47C838.183 113.823 838.069 114.142 837.842 114.427C837.625 114.712 837.289 114.854 836.833 114.854C836.355 114.854 835.916 114.644 835.517 114.222C835.107 113.801 834.68 113.59 834.236 113.59C833.051 113.59 831.41 115.025 829.314 117.896C827.217 120.768 825.941 123.929 825.486 127.381C825.372 128.27 825.155 128.857 824.836 129.142C824.517 129.426 824.067 129.569 823.486 129.569C822.928 129.569 822.523 129.153 822.273 128.321C822.022 127.49 821.897 126.088 821.897 124.117C821.897 123.582 821.925 122.403 821.982 120.58C822.05 118.426 822.187 116.689 822.392 115.367C822.426 115.151 822.483 114.644 822.563 113.846C822.643 112.969 822.74 112.359 822.854 112.018C822.979 111.676 823.224 111.357 823.589 111.061C823.965 110.764 824.369 110.616 824.802 110.616C825.224 110.616 825.537 110.753 825.742 111.026C825.958 111.288 826.067 111.573 826.067 111.881C826.067 112.325 825.953 112.952 825.725 113.761C825.463 114.661 825.309 115.282 825.263 115.624C825.229 116.011 825.167 116.415 825.075 116.837C824.961 117.327 824.848 118.614 824.734 120.699L824.717 121.332V121.793ZM848.65 111.334C849.823 111.243 850.928 111.135 851.965 111.009C852.991 110.895 853.845 110.838 854.529 110.838C855.395 110.838 855.941 110.918 856.169 111.078C856.397 111.237 856.511 111.516 856.511 111.915C856.511 112.838 855.867 113.339 854.58 113.419C852.928 113.521 851.407 113.664 850.017 113.846C848.627 114.028 847.875 114.182 847.761 114.308C847.659 114.422 847.317 115.777 846.736 118.375C846.155 120.961 845.864 122.642 845.864 123.417C845.864 124.67 846.029 125.507 846.36 125.929C846.69 126.339 847.186 126.544 847.847 126.544C848.826 126.544 850.188 125.809 851.931 124.339C852.603 123.736 853.122 123.434 853.486 123.434C853.976 123.434 854.221 123.696 854.221 124.22C854.221 125.04 853.429 126.105 851.846 127.416C850.273 128.714 848.661 129.364 847.009 129.364C844.252 129.364 842.873 127.74 842.873 124.493C842.873 123.32 843.158 121.502 843.728 119.042C844.286 116.592 844.565 115.122 844.565 114.632C844.565 114.461 844.429 114.376 844.155 114.376L842.378 114.53C840.919 114.53 840.19 113.949 840.19 112.787C840.19 112.126 840.526 111.795 841.199 111.795H844.719C844.958 111.795 845.169 111.687 845.351 111.471C845.534 111.254 845.801 110.531 846.155 109.3C846.508 108.058 846.821 106.834 847.095 105.626C847.368 104.43 847.904 103.832 848.701 103.832C849.191 103.832 849.573 104.002 849.846 104.344C850.12 104.686 850.256 105.005 850.256 105.301C850.256 105.461 850.051 106.275 849.641 107.745L848.65 111.334Z" fill="white"/>
<path d="M1015.7 150.256C1017.16 147.601 1018.91 145.454 1020.93 143.813C1022.96 142.161 1024.79 141.335 1026.42 141.335C1027.32 141.335 1028.08 141.751 1028.71 142.583C1029.34 143.414 1029.65 144.428 1029.65 145.625C1029.65 149.168 1028.31 152.495 1025.63 155.605C1022.97 158.704 1020.15 160.253 1017.17 160.253C1016.37 160.253 1015.62 160.037 1014.94 159.604C1014.26 159.16 1013.89 158.607 1013.81 157.946C1013.76 157.411 1013.61 157.012 1013.35 156.75C1012.86 156.26 1012.61 155.736 1012.61 155.178C1012.61 154.141 1012.9 151.925 1013.47 148.53L1015.23 138.31C1015.83 134.881 1016.27 132.762 1016.54 131.953C1016.83 131.144 1017.14 130.603 1017.48 130.329C1017.82 130.056 1018.25 129.919 1018.75 129.919C1019.54 129.919 1019.94 130.608 1019.94 131.987C1019.94 133.297 1019.5 135.131 1018.63 137.49C1017.78 139.757 1016.81 144.012 1015.7 150.256ZM1015.29 155.947C1015.89 157.052 1016.6 157.604 1017.45 157.604C1018.75 157.604 1020.12 157.069 1021.57 155.998C1023.01 154.916 1024.26 153.4 1025.31 151.452C1026.37 149.493 1026.9 147.84 1026.9 146.496C1026.9 145.892 1026.79 145.374 1026.57 144.941C1026.36 144.508 1026.08 144.292 1025.75 144.292C1024.17 144.292 1022.23 145.59 1019.94 148.188C1017.66 150.774 1016.11 153.361 1015.29 155.947ZM1037.45 153.195C1037.56 152.99 1037.7 152.705 1037.86 152.341C1038.64 150.563 1039.35 149.174 1040 148.171C1040.65 147.157 1041.36 146.188 1042.13 145.266C1042.92 144.343 1043.63 143.642 1044.27 143.164C1044.92 142.685 1045.51 142.355 1046.03 142.172C1046.55 141.979 1047.06 141.882 1047.55 141.882C1048.54 141.882 1049.35 142.184 1049.98 142.788C1050.6 143.38 1050.92 144.075 1050.92 144.873C1050.92 145.226 1050.8 145.545 1050.58 145.83C1050.36 146.114 1050.02 146.257 1049.57 146.257C1049.09 146.257 1048.65 146.046 1048.25 145.625C1047.84 145.203 1047.41 144.992 1046.97 144.992C1045.78 144.992 1044.14 146.428 1042.05 149.299C1039.95 152.17 1038.68 155.332 1038.22 158.784C1038.11 159.672 1037.89 160.259 1037.57 160.544C1037.25 160.829 1036.8 160.971 1036.22 160.971C1035.66 160.971 1035.26 160.555 1035.01 159.724C1034.76 158.892 1034.63 157.491 1034.63 155.52C1034.63 154.984 1034.66 153.805 1034.72 151.982C1034.78 149.829 1034.92 148.091 1035.13 146.77C1035.16 146.553 1035.22 146.046 1035.3 145.249C1035.38 144.371 1035.47 143.762 1035.59 143.42C1035.71 143.078 1035.96 142.759 1036.32 142.463C1036.7 142.167 1037.1 142.019 1037.54 142.019C1037.96 142.019 1038.27 142.155 1038.48 142.429C1038.69 142.691 1038.8 142.976 1038.8 143.283C1038.8 143.728 1038.69 144.354 1038.46 145.163C1038.2 146.063 1038.04 146.684 1038 147.026C1037.96 147.413 1037.9 147.818 1037.81 148.239C1037.7 148.729 1037.58 150.017 1037.47 152.102L1037.45 152.734V153.195ZM1057.88 160.834C1056.32 160.834 1055.03 160.242 1054.02 159.057C1053 157.872 1052.5 156.408 1052.5 154.665C1052.5 151.726 1053.48 148.832 1055.45 145.983C1057.44 143.124 1059.81 141.694 1062.56 141.694C1064.39 141.694 1065.86 142.395 1066.99 143.796C1068.13 145.197 1068.7 146.866 1068.7 148.803C1068.7 151.765 1067.52 154.511 1065.18 157.041C1062.84 159.57 1060.41 160.834 1057.88 160.834ZM1055.5 154.221C1055.5 155.371 1055.74 156.311 1056.22 157.041C1056.71 157.77 1057.36 158.134 1058.15 158.134C1059.85 158.134 1061.55 157.206 1063.26 155.349C1064.97 153.48 1065.83 151.407 1065.83 149.128C1065.83 147.727 1065.5 146.593 1064.84 145.727C1064.19 144.85 1063.31 144.411 1062.2 144.411C1060.37 144.411 1058.79 145.539 1057.47 147.795C1056.16 150.039 1055.5 152.181 1055.5 154.221ZM1077.05 151.999C1077.19 151.805 1078.21 150.888 1080.1 149.248C1081.89 147.687 1083.14 146.553 1083.85 145.847C1086.48 143.215 1088.37 141.899 1089.52 141.899C1090.41 141.899 1090.85 142.326 1090.85 143.181C1090.85 144.149 1090.42 144.861 1089.54 145.317C1088.4 145.898 1086.88 146.866 1084.98 148.222C1083.07 149.567 1082.12 150.518 1082.12 151.076C1082.12 151.304 1082.79 152.159 1084.14 153.64C1085.48 155.109 1086.64 156.197 1087.62 156.904C1088.6 157.599 1089.56 157.946 1090.48 157.946L1091.04 157.929C1091.44 157.906 1091.64 158.083 1091.64 158.459C1091.64 158.96 1091.33 159.467 1090.7 159.98C1090.07 160.504 1089.25 160.766 1088.22 160.766C1087.56 160.766 1086.89 160.533 1086.21 160.065C1085.53 159.61 1084.33 158.368 1082.6 156.34C1081.22 154.665 1080.36 153.668 1080.02 153.349C1079.68 153.019 1079.39 152.854 1079.16 152.854C1079.04 152.854 1078.64 153.15 1077.97 153.742C1077.3 154.335 1076.93 154.785 1076.86 155.092C1076.8 155.4 1076.77 156.573 1076.77 158.613V159.416C1076.77 159.838 1076.57 160.214 1076.17 160.544C1075.78 160.874 1075.34 161.04 1074.88 161.04C1074.4 161.04 1074.02 160.897 1073.75 160.612C1073.47 160.339 1073.34 160.054 1073.34 159.758C1073.34 159.348 1073.49 158.379 1073.8 156.853C1074.23 154.654 1074.63 151.708 1074.99 148.017C1075.84 139.301 1076.49 134.374 1076.94 133.234C1077.4 132.084 1078.05 131.508 1078.89 131.508C1079.19 131.508 1079.43 131.668 1079.63 131.987C1079.83 132.306 1079.93 132.716 1079.93 133.217C1079.93 134.129 1079.54 136.55 1078.75 140.48C1077.97 144.423 1077.4 148.262 1077.05 151.999ZM1110.12 154.187C1110.12 155.349 1109.09 156.75 1107.03 158.391C1104.98 160.031 1102.86 160.852 1100.67 160.852C1098.84 160.852 1097.42 160.31 1096.42 159.228C1095.42 158.146 1094.93 156.636 1094.93 154.699C1094.93 151.441 1096.03 148.342 1098.23 145.402C1100.43 142.463 1102.83 140.993 1105.44 140.993C1106.29 140.993 1106.99 141.272 1107.52 141.831C1108.07 142.389 1108.34 143.061 1108.34 143.847C1108.34 145.602 1107.48 147.282 1105.76 148.889C1104.04 150.495 1101.74 152.073 1098.86 153.623C1098.27 153.93 1097.97 154.329 1097.97 154.819C1097.97 155.764 1098.24 156.522 1098.79 157.092C1099.34 157.661 1100.15 157.946 1101.22 157.946C1103.67 157.946 1106.17 156.59 1108.72 153.879C1109.1 153.503 1109.38 153.315 1109.57 153.315C1109.94 153.315 1110.12 153.605 1110.12 154.187ZM1098.24 151.521C1103.08 148.649 1105.49 146.342 1105.49 144.599C1105.49 143.916 1105.18 143.574 1104.57 143.574C1103.52 143.574 1102.33 144.343 1101.01 145.881C1099.7 147.419 1098.78 149.299 1098.24 151.521ZM1126.4 146.838C1125.81 146.838 1125.16 147.225 1124.45 148C1123.76 148.775 1122.69 150.512 1121.25 153.212C1119.36 156.835 1118.14 158.898 1117.58 159.399C1117.03 159.9 1116.58 160.151 1116.21 160.151C1114.87 160.151 1114.2 159.501 1114.2 158.203C1114.2 157.656 1114.29 156.881 1114.47 155.878C1115.1 152.438 1115.41 148.809 1115.41 144.992C1115.41 144.559 1115.59 144.081 1115.96 143.557C1116.33 143.021 1116.69 142.753 1117.02 142.753C1117.61 142.753 1118.03 142.936 1118.28 143.3C1118.53 143.665 1118.66 144.4 1118.66 145.505C1118.66 146.656 1118.32 149.025 1117.63 152.614C1117.4 153.799 1117.29 154.551 1117.29 154.87C1117.29 155.052 1117.34 155.144 1117.43 155.144C1117.6 155.144 1118.39 153.782 1119.8 151.059C1121.23 148.291 1122.47 146.342 1123.54 145.214C1124.62 144.086 1125.8 143.522 1127.08 143.522C1128.11 143.522 1128.94 143.99 1129.58 144.924C1130.23 145.858 1130.7 147.561 1131 150.034C1131.32 152.848 1131.6 154.602 1131.85 155.297C1132.11 155.981 1132.52 156.323 1133.08 156.323C1133.43 156.323 1133.88 156.197 1134.41 155.947C1134.51 155.901 1134.57 155.878 1134.62 155.878C1135.11 155.878 1135.35 156.163 1135.35 156.733C1135.35 157.234 1135.02 157.77 1134.35 158.339C1133.67 158.898 1132.86 159.177 1131.92 159.177C1130.95 159.177 1130.2 158.795 1129.66 158.032C1129.14 157.257 1128.72 155.201 1128.42 151.862C1128.1 148.513 1127.42 146.838 1126.4 146.838Z" fill="white"/>
<path d="M1106.16 212.703C1110.4 204.875 1113.89 200.962 1116.63 200.962C1117.36 200.962 1117.96 201.378 1118.41 202.209C1118.87 203.041 1119.24 204.887 1119.52 207.747C1119.81 210.789 1120.45 212.987 1121.45 214.343C1121.97 215.038 1122.22 215.551 1122.22 215.881C1122.22 216.178 1122.05 216.451 1121.71 216.702C1121.37 216.952 1121 217.078 1120.62 217.078C1119.73 217.078 1118.94 216.582 1118.26 215.591C1117.57 214.588 1117.13 212.834 1116.94 210.327C1116.75 207.957 1116.54 206.408 1116.33 205.679C1116.11 204.95 1115.75 204.585 1115.25 204.585C1114.05 204.585 1111.64 207.712 1108.02 213.967C1106.94 215.836 1106.14 217.061 1105.63 217.642C1105.11 218.211 1104.65 218.496 1104.23 218.496C1103.72 218.496 1103.3 218.348 1102.96 218.052C1102.62 217.756 1102.45 217.391 1102.45 216.958C1102.45 216.639 1102.54 216.024 1102.72 215.112C1104.12 207.878 1105.23 200.723 1106.04 193.647C1106.22 191.995 1106.51 190.896 1106.91 190.349C1107.32 189.802 1107.66 189.529 1107.93 189.529C1108.42 189.529 1108.87 189.728 1109.27 190.127C1109.67 190.526 1109.87 191.078 1109.87 191.785C1109.87 193.881 1109.35 196.758 1108.33 200.415C1107.83 202.227 1107.3 204.528 1106.74 207.319C1106.18 210.111 1105.9 211.837 1105.9 212.498C1105.9 212.634 1105.96 212.703 1106.09 212.703H1106.16ZM1140.94 212.036C1140.94 213.198 1139.91 214.6 1137.85 216.24C1135.8 217.881 1133.68 218.701 1131.49 218.701C1129.66 218.701 1128.24 218.16 1127.24 217.078C1126.25 215.995 1125.75 214.486 1125.75 212.549C1125.75 209.29 1126.85 206.191 1129.05 203.252C1131.25 200.312 1133.65 198.843 1136.26 198.843C1137.11 198.843 1137.81 199.122 1138.35 199.68C1138.89 200.238 1139.17 200.911 1139.17 201.697C1139.17 203.451 1138.31 205.132 1136.58 206.738C1134.86 208.345 1132.56 209.923 1129.68 211.472C1129.09 211.78 1128.79 212.179 1128.79 212.668C1128.79 213.614 1129.07 214.372 1129.61 214.941C1130.16 215.511 1130.97 215.796 1132.04 215.796C1134.49 215.796 1136.99 214.44 1139.54 211.729C1139.92 211.353 1140.2 211.165 1140.4 211.165C1140.76 211.165 1140.94 211.455 1140.94 212.036ZM1129.07 209.37C1133.9 206.499 1136.31 204.192 1136.31 202.449C1136.31 201.765 1136 201.423 1135.39 201.423C1134.34 201.423 1133.16 202.192 1131.83 203.73C1130.52 205.269 1129.6 207.148 1129.07 209.37ZM1151.56 188.896C1152.38 188.896 1152.79 189.421 1152.79 190.469C1152.79 191.403 1152.3 193.625 1151.31 197.134C1150.68 199.344 1150.2 201.782 1149.85 204.448C1149.51 207.114 1149.34 209.205 1149.34 210.72C1149.34 212.6 1149.46 214.469 1149.7 216.326C1149.75 216.679 1149.77 216.935 1149.77 217.095C1149.77 217.664 1149.57 218.154 1149.19 218.564C1148.8 218.975 1148.39 219.18 1147.96 219.18C1147.35 219.18 1146.93 218.804 1146.69 218.052C1146.46 217.3 1146.35 216.086 1146.35 214.412C1146.35 210.595 1146.81 205.867 1147.72 200.227C1148.64 194.587 1149.37 191.289 1149.91 190.332C1150.45 189.375 1151 188.896 1151.56 188.896ZM1159.94 215.847C1159.39 217.898 1158.86 220.775 1158.37 224.478L1157.89 227.708C1157.81 228.163 1157.6 228.613 1157.26 229.058C1156.92 229.513 1156.61 229.741 1156.32 229.741C1155.97 229.741 1155.56 229.559 1155.11 229.194C1154.66 228.841 1154.44 228.556 1154.44 228.34C1154.44 227.713 1154.58 226.847 1154.87 225.742C1156.95 217.323 1158 209.928 1158 203.56L1157.98 202.124C1157.96 200.894 1158.17 199.999 1158.63 199.441C1159.08 198.883 1159.61 198.604 1160.2 198.604C1160.47 198.604 1160.74 198.82 1160.99 199.253C1161.24 199.674 1161.36 200.278 1161.36 201.064C1161.36 202.17 1161.25 203.508 1161.02 205.081C1160.72 207.063 1160.57 208.202 1160.56 208.499C1162.26 205.536 1164.06 203.223 1165.96 201.56C1167.86 199.897 1169.63 199.065 1171.26 199.065C1172.41 199.065 1173.38 199.498 1174.16 200.364C1174.96 201.218 1175.36 202.284 1175.36 203.56C1175.36 207.274 1173.94 210.646 1171.09 213.677C1168.24 216.707 1165.46 218.223 1162.76 218.223C1162.09 218.223 1161.56 218.052 1161.16 217.71C1160.77 217.368 1160.37 216.747 1159.94 215.847ZM1170.56 202.09C1168.95 202.09 1166.96 203.594 1164.59 206.602C1162.22 209.609 1161.04 211.951 1161.04 213.625C1161.04 214.036 1161.27 214.434 1161.74 214.822C1162.21 215.209 1162.8 215.403 1163.52 215.403C1165.15 215.403 1167.02 214.201 1169.14 211.797C1171.26 209.382 1172.32 207.012 1172.32 204.688C1172.32 203.856 1172.15 203.218 1171.8 202.773C1171.47 202.318 1171.06 202.09 1170.56 202.09ZM1188.92 213.916C1188.92 213.175 1188.01 212.332 1186.18 211.387C1183.87 210.202 1182.31 209.256 1181.49 208.55C1180.68 207.832 1180.27 207.035 1180.27 206.157C1180.27 203.89 1181.41 202.01 1183.67 200.518C1185.95 199.025 1187.81 198.279 1189.24 198.279C1190.17 198.279 1190.83 198.438 1191.24 198.757C1191.67 199.076 1191.88 199.629 1191.88 200.415C1191.88 200.768 1191.72 201.07 1191.41 201.321C1191.12 201.571 1190.88 201.697 1190.71 201.697C1190.59 201.697 1190.34 201.611 1189.98 201.44C1189.61 201.281 1189.38 201.201 1189.26 201.201C1188.69 201.201 1187.54 201.617 1185.79 202.449C1184.05 203.28 1183.18 204.22 1183.18 205.269C1183.18 205.907 1183.48 206.488 1184.1 207.012C1184.72 207.524 1185.82 208.157 1187.42 208.909C1188.7 209.524 1189.73 210.185 1190.49 210.891C1191.27 211.586 1191.65 212.406 1191.65 213.352C1191.65 215.095 1190.45 216.462 1188.05 217.454C1185.64 218.433 1183.35 218.923 1181.16 218.923C1179.31 218.923 1178.39 218.297 1178.39 217.043C1178.39 216.611 1178.6 216.292 1179.01 216.086C1179.43 215.881 1179.85 215.779 1180.27 215.779C1180.44 215.779 1180.77 215.836 1181.25 215.95C1181.71 216.064 1182.02 216.121 1182.17 216.121C1183.43 216.121 1184.79 215.91 1186.24 215.488C1187.68 215.067 1188.58 214.543 1188.92 213.916Z" fill="white"/>
<defs>
<linearGradient id="paint0_linear_209_109" x1="152" y1="46.2149" x2="132.807" y2="105.428" gradientUnits="userSpaceOnUse">
<stop stop-color="white"/>
<stop offset="1" stop-opacity="0"/>
</linearGradient>
<linearGradient id="paint1_linear_209_109" x1="312.5" y1="40.2902" x2="302.892" y2="96.4211" gradientUnits="userSpaceOnUse">
<stop stop-color="white"/>
<stop offset="1" stop-opacity="0"/>
</linearGradient>
<linearGradient id="paint2_linear_209_109" x1="214.5" y1="201.746" x2="196.73" y2="139.066" gradientUnits="userSpaceOnUse">
<stop stop-color="white"/>
<stop offset="1" stop-opacity="0"/>
</linearGradient>
<linearGradient id="paint3_linear_209_109" x1="376.5" y1="211.819" x2="353.933" y2="135.302" gradientUnits="userSpaceOnUse">
<stop stop-color="white"/>
<stop offset="1" stop-opacity="0"/>
</linearGradient>
<linearGradient id="paint4_linear_209_109" x1="544.5" y1="111.39" x2="439.528" y2="106.941" gradientUnits="userSpaceOnUse">
<stop stop-color="white"/>
<stop offset="1" stop-opacity="0"/>
</linearGradient>
</defs>
</svg>
