<svg width="451" height="140" viewBox="0 0 451 140" fill="none" xmlns="http://www.w3.org/2000/svg">
<path d="M38.4911 98.2011C38.6209 98.3641 38.8079 98.3898 39.0522 98.2785C40.4035 97.7178 41.8669 97.5589 43.4424 97.8019C45.0098 98.0347 46.2926 98.7774 47.2906 100.03C48.8243 101.955 49.1704 104.917 48.3289 108.917C47.4875 112.918 45.7073 116.001 42.9884 118.168C42.2246 118.776 41.5427 119.153 40.9425 119.298C40.3606 119.446 39.9642 119.387 39.7532 119.122C38.7308 117.839 39.1259 116.476 40.9385 115.031C41.1931 114.828 41.5933 114.526 42.139 114.124C42.695 113.715 43.2096 113.097 43.683 112.27C44.1584 111.425 44.5526 110.52 44.8656 109.554C45.1705 108.579 45.3705 107.67 45.4657 106.829C45.5629 105.969 45.5431 105.16 45.4063 104.403C45.2797 103.639 45.0013 102.986 44.5712 102.447C43.8734 101.571 42.8708 101.096 41.5634 101.022C40.2661 100.941 38.9862 101.403 37.7234 102.409C37.5198 102.571 37.1659 103.12 36.6618 104.054C36.1659 104.999 35.8008 105.564 35.5666 105.751C34.7723 106.384 34.1921 106.68 33.8262 106.638C33.4704 106.589 33.0856 106.304 32.6718 105.785C32.4202 105.469 32.875 104.275 34.0361 102.201C35.0175 100.486 35.665 98.4468 35.9787 96.0824C36.3025 93.71 36.1074 92.0756 35.3933 91.1795C34.8983 90.5583 34.2502 90.2673 33.4489 90.3065C32.6476 90.3456 31.7888 90.7303 30.8723 91.4606C29.355 92.6696 27.998 94.059 26.8013 95.6286C25.5965 97.188 25.0475 98.1915 25.1544 98.6391C25.2715 99.0785 26.8269 101.877 29.8204 107.033C32.8059 112.18 34.5867 115.114 35.1628 115.837C35.7308 116.55 36.2776 117.205 36.8031 117.802C37.3205 118.389 37.6264 119.002 37.7207 119.643C37.8334 120.286 37.5893 120.847 36.9885 121.325C36.4386 121.764 35.8364 121.885 35.182 121.691C34.5459 121.499 33.9641 121.071 33.4367 120.41C33.2987 120.236 33.1336 119.935 32.9412 119.506C31.7261 116.894 29.9937 113.696 27.7437 109.912C25.4938 106.127 24.1579 103.97 23.7359 103.441C23.3951 103.013 23.0825 102.746 22.798 102.64C22.5237 102.525 22.1778 102.634 21.7603 102.967C21.5973 103.097 21.4385 103.232 21.2837 103.372C21.139 103.504 20.9041 103.533 20.5789 103.459C20.2638 103.377 19.9927 103.193 19.7655 102.908C19.0514 102.012 19.7905 99.9831 21.9826 96.8211C24.1747 93.6591 26.7575 90.8934 29.731 88.524C31.2585 87.3069 32.8346 86.7253 34.4593 86.7792C36.086 86.8149 37.3376 87.3826 38.2139 88.4824C38.8631 89.2971 39.2124 90.5921 39.2618 92.3674C39.3133 94.1245 39.0564 96.0691 38.4911 98.2011Z" fill="white"/>
<path d="M66.8641 98.9778C65.3577 99.9333 63.7526 100.15 62.0486 99.6268C60.3447 99.1039 58.9592 98.0013 57.8922 96.319C56.0929 93.4821 55.2726 90.086 55.4313 86.1305C55.594 82.1571 57.0059 79.3266 59.6668 77.6388C61.4261 76.523 63.279 76.2961 65.2253 76.9581C67.1827 77.6131 68.7542 78.8753 69.9398 80.7445C71.7531 83.6034 72.3013 86.9717 71.5844 90.8494C70.8786 94.7201 69.3051 97.4296 66.8641 98.9778ZM60.5231 94.049C61.2274 95.1595 62.0337 95.9202 62.9419 96.331C63.861 96.7349 64.7055 96.6927 65.4751 96.2045C67.1135 95.1654 68.189 93.2266 68.7015 90.3882C69.2071 87.5388 68.7625 85.0145 67.3677 82.8154C66.5098 81.4629 65.4971 80.5711 64.3293 80.1399C63.1655 79.6908 62.0503 79.8045 60.9838 80.481C59.2135 81.6038 58.381 83.6583 58.4864 86.6444C58.5958 89.6126 59.2747 92.0808 60.5231 94.049Z" fill="white"/>
<path d="M83.38 65.5712C84.524 64.8636 85.5896 64.1744 86.5769 63.5037C87.5585 62.8506 88.3965 62.3449 89.0907 61.9866C89.9701 61.5327 90.5673 61.3271 90.8823 61.3697C91.1973 61.4122 91.4593 61.636 91.6683 62.041C92.152 62.9782 91.761 63.8247 90.4953 64.5805C88.8713 65.5505 87.4013 66.4923 86.0852 67.406C84.7691 68.3196 84.086 68.87 84.036 69.057C83.9916 69.2264 84.3551 70.7825 85.1265 73.7252C85.8919 76.6563 86.4777 78.5152 86.8837 79.3021C87.5406 80.5748 88.1473 81.3387 88.7038 81.5937C89.2543 81.837 89.8651 81.7855 90.5362 81.4392C91.5313 80.9256 92.5288 79.4657 93.5288 77.0595C93.895 76.0939 94.2633 75.5156 94.6335 75.3245C95.1311 75.0677 95.5172 75.2054 95.7919 75.7377C96.2218 76.5708 95.976 78.0677 95.0544 80.2283C94.1384 82.3715 92.8415 83.876 91.1637 84.7419C88.3636 86.187 86.1126 85.2607 84.4107 81.963C83.7956 80.7712 83.1324 78.7764 82.4211 75.9785C81.7042 73.1982 81.2174 71.5593 80.9606 71.0617C80.871 70.8882 80.6874 70.8731 80.4097 71.0164L78.6853 72.1041C77.2042 72.8685 76.1591 72.6606 75.55 71.4803C75.2037 70.8092 75.3718 70.2975 76.0545 69.9452L79.6299 68.1C79.8729 67.9746 80.0302 67.7542 80.1019 67.4388C80.1736 67.1234 80.0663 66.2484 79.78 64.8136C79.4878 63.3673 79.1641 61.9592 78.8088 60.5894C78.4595 59.2311 78.6898 58.343 79.4998 57.925C79.9973 57.6682 80.4745 57.6417 80.9314 57.8455C81.3882 58.0493 81.6943 58.3017 81.8495 58.6025C81.9331 58.7645 82.1518 59.6993 82.5056 61.4069L83.38 65.5712Z" fill="white"/>
<path d="M122.772 44.4788C122.621 43.9937 122.243 43.7633 121.637 43.7875C120.54 43.8549 119.897 43.5838 119.709 42.9744C119.566 42.5142 119.626 42.0048 119.889 41.4462C120.161 40.8712 120.527 40.5124 120.987 40.3698L123.622 39.6349C124.841 39.2572 126.42 38.6791 128.36 37.9006C130.287 37.1261 131.742 36.5865 132.725 36.282C136.157 35.2181 139.213 35.3344 141.891 36.6308C144.578 37.911 146.411 40.1306 147.39 43.2896C148.466 46.7596 147.954 50.3874 145.856 54.1731C143.766 57.9425 140.171 61.3402 135.07 64.3662C133.055 65.5631 131.745 66.5485 131.14 67.3223C130.336 68.3348 129.598 68.9452 128.927 69.1533C128.454 69.2998 127.952 69.1759 127.421 68.7816C126.906 68.3959 126.602 68.0538 126.51 67.7553C126.471 67.631 126.495 67.2691 126.582 66.6696C126.67 66.029 126.675 65.4072 126.597 64.8043C126.532 64.1974 126.307 63.1425 125.923 61.6393C125.53 60.1525 125.02 57.7138 124.392 54.3233C123.772 50.9166 123.374 48.4906 123.199 47.0454C123.053 45.782 122.91 44.9265 122.772 44.4788ZM125.761 42.1823C127.037 51.5336 128.242 58.0375 129.375 61.694C129.626 62.5024 129.895 63.0868 130.184 63.4471C130.311 63.5033 130.517 63.4871 130.803 63.3984C131.599 63.1517 133.52 61.9837 136.567 59.8944C139.614 57.805 141.851 55.3464 143.278 52.5184C144.705 49.6905 144.989 46.8897 144.13 44.1162C143.416 41.8154 142.033 40.2334 139.98 39.3702C137.935 38.4908 135.582 38.4636 132.921 39.2885C131.304 39.7896 129.404 40.5421 127.22 41.546C126.733 41.7787 126.247 41.9908 125.761 42.1823Z" fill="white"/>
<path d="M176.656 48.3224C176.911 49.6259 176.061 51.4237 174.108 53.7158C172.167 56.0055 169.97 57.39 167.516 57.8695C165.459 58.2715 163.749 57.9753 162.387 56.981C161.038 55.9843 160.152 54.3996 159.727 52.2272C159.013 48.5723 159.567 44.8555 161.389 41.0765C163.211 37.2976 165.586 35.1222 168.512 34.5504C169.471 34.3631 170.311 34.5239 171.034 35.0327C171.77 35.539 172.224 36.2331 172.396 37.1148C172.781 39.0828 172.184 41.1563 170.607 43.3352C169.029 45.5141 166.794 47.7884 163.9 50.1581C163.303 50.633 163.058 51.1452 163.166 51.6947C163.373 52.7553 163.846 53.5452 164.584 54.0643C165.322 54.5834 166.292 54.7256 167.493 54.4909C170.241 53.9541 172.748 51.8852 175.017 48.2845C175.356 47.7804 175.634 47.5071 175.851 47.4646C176.26 47.3847 176.529 47.6706 176.656 48.3224ZM162.749 47.9352C167.538 43.6561 169.742 40.539 169.36 38.5837C169.21 37.817 168.79 37.501 168.1 37.6359C166.924 37.8656 165.764 38.9879 164.619 41.0027C163.486 43.0151 162.863 45.3259 162.749 47.9352Z" fill="white"/>
<path d="M190.755 53.3387C190.703 52.5848 189.953 50.6985 188.504 47.6798C185.766 42.058 184.28 38.1007 184.044 35.8081C183.856 33.9818 184.371 33.0061 185.588 32.8809C186.78 32.7584 187.46 33.5131 187.628 35.1451C187.765 36.4792 187.909 37.505 188.062 38.2223C188.226 38.9254 188.672 40.2081 189.4 42.0705C190.127 43.9199 190.891 45.628 191.694 47.1948C192.106 48.0163 192.406 48.6465 192.595 49.0852C192.824 48.6427 193.116 48.0369 193.468 47.2676C195.354 43.1992 196.864 40.0596 197.998 37.8487C199.144 35.6364 200.097 34.0136 200.854 32.9802C201.612 31.9467 202.182 31.3187 202.565 31.0961C202.947 30.8605 203.345 30.7214 203.759 30.6788C204.264 30.6269 204.678 30.7676 205 31.1009C205.336 31.433 205.527 31.8322 205.575 32.2984C205.638 32.9072 205.175 33.6224 204.186 34.444C203.258 35.2201 201.961 37.0615 200.297 39.9684C198.632 42.8752 196.889 46.5428 195.067 50.9712C194.132 53.2139 193.354 54.3673 192.732 54.4312C192.188 54.4871 191.529 54.1229 190.755 53.3387Z" fill="white"/>
<path d="M230.426 44.3958C230.441 45.7238 229.282 47.3394 226.948 49.2424C224.627 51.1453 222.216 52.1117 219.717 52.1416C217.62 52.1666 215.992 51.5676 214.832 50.3444C213.684 49.121 213.097 47.4026 213.071 45.1893C213.026 41.4656 214.24 37.9091 216.713 34.52C219.185 31.1308 221.913 29.4184 224.894 29.3827C225.871 29.3711 226.669 29.6806 227.288 30.3112C227.921 30.9417 228.242 31.7062 228.253 32.6045C228.277 34.6096 227.317 36.5418 225.373 38.4011C223.429 40.2604 220.821 42.0951 217.548 43.9052C216.875 44.2648 216.542 44.7246 216.548 45.2844C216.561 46.3651 216.884 47.2272 217.517 47.8707C218.15 48.5142 219.078 48.8287 220.302 48.814C223.101 48.7806 225.941 47.197 228.82 44.0634C229.244 43.6286 229.567 43.4099 229.789 43.4073C230.205 43.4023 230.418 43.7318 230.426 44.3958ZM216.816 41.5114C222.297 38.1644 225.026 35.4949 225.002 33.5028C224.993 32.7216 224.636 32.3353 223.933 32.3437C222.736 32.358 221.392 33.253 219.903 35.0287C218.426 36.8043 217.397 38.9652 216.816 41.5114Z" fill="white"/>
<path d="M248.541 18.8587C249.476 18.9163 249.907 19.5429 249.834 20.7386C249.768 21.8042 249.047 24.3037 247.67 28.237C246.8 30.7142 246.076 33.4614 245.499 36.4786C244.922 39.4957 244.58 41.8685 244.474 43.597C244.342 45.7414 244.347 47.8811 244.49 50.0163C244.517 50.4224 244.525 50.7164 244.514 50.8984C244.474 51.5482 244.218 52.0934 243.748 52.5341C243.277 52.9748 242.795 53.1799 242.301 53.1495C241.612 53.1071 241.158 52.6486 240.938 51.7741C240.73 50.9003 240.686 49.5082 240.803 47.5978C241.071 43.244 241.923 37.8826 243.359 31.5135C244.807 25.1451 245.871 21.4339 246.549 20.3798C247.24 19.3265 247.904 18.8195 248.541 18.8587Z" fill="white"/>
<path d="M262.062 54.4113C260.295 54.1653 258.931 53.2918 257.97 51.7908C257.009 50.2898 256.666 48.5527 256.94 46.5795C257.404 43.2523 258.975 40.1318 261.655 37.2183C264.35 34.2937 267.257 33.0486 270.378 33.4831C272.442 33.7703 274.002 34.7959 275.057 36.5599C276.126 38.3257 276.508 40.3048 276.203 42.4972C275.736 45.8503 273.975 48.7734 270.92 51.2666C267.878 53.7616 264.925 54.8098 262.062 54.4113ZM260.415 46.5505C260.234 47.8531 260.357 48.9547 260.783 49.8555C261.223 50.7581 261.894 51.2722 262.797 51.3979C264.718 51.6654 266.793 50.8827 269.02 49.0499C271.249 47.2042 272.543 44.9917 272.902 42.4124C273.123 40.8261 272.927 39.4908 272.316 38.4066C271.719 37.3112 270.795 36.6765 269.544 36.5023C267.468 36.2133 265.504 37.2414 263.652 39.5866C261.816 41.9208 260.736 44.2421 260.415 46.5505Z" fill="white"/>
<path d="M288.293 55.62C287.118 57.746 285.757 60.7984 284.211 64.7772L282.806 68.2341C282.594 68.7186 282.238 69.1612 281.738 69.5621C281.236 69.9756 280.826 70.1438 280.51 70.0667C280.118 69.9712 279.718 69.6593 279.31 69.1311C278.913 68.6187 278.743 68.2423 278.802 68.002C278.971 67.3062 279.364 66.3833 279.979 65.2333C284.573 56.4488 287.731 48.5208 289.455 41.4491L289.824 39.8506C290.132 38.4781 290.615 37.5437 291.272 37.0471C291.929 36.5506 292.586 36.3825 293.244 36.5428C293.548 36.6168 293.78 36.9281 293.941 37.4766C294.105 38.0125 294.081 38.7169 293.868 39.5898C293.569 40.8169 293.08 42.2725 292.402 43.9566C291.537 46.0776 291.057 47.3011 290.965 47.6269C293.651 44.7972 296.276 42.7163 298.839 41.3842C301.402 40.0522 303.587 39.6066 305.396 40.0475C306.674 40.3589 307.632 41.1017 308.271 42.2759C308.925 43.4406 309.08 44.7313 308.734 46.1481C307.729 50.2722 305.235 53.6313 301.252 56.2255C297.27 58.8197 293.779 59.7515 290.781 59.0207C290.035 58.8388 289.486 58.5041 289.136 58.0167C288.798 57.5323 288.517 56.7334 288.293 55.62ZM303.8 43.2166C302.016 42.7819 299.402 43.9137 295.956 46.6121C292.511 49.3105 290.562 51.5895 290.108 53.4491C289.997 53.9045 290.149 54.4105 290.563 54.967C290.977 55.5236 291.582 55.899 292.379 56.0932C294.188 56.5341 296.594 55.7067 299.598 53.611C302.604 51.5026 304.422 49.158 305.051 46.5773C305.276 45.6538 305.259 44.8991 305 44.3133C304.757 43.7178 304.356 43.3523 303.8 43.2166Z" fill="white"/>
<path d="M333.414 55.3465C332.276 54.9303 328.558 57.3294 322.259 62.5437C320.133 64.2997 318.927 65.2406 318.64 65.3663C318.358 65.4798 317.908 65.5065 317.288 65.4463C316.681 65.3909 316.195 65.2921 315.831 65.15C315.019 64.8327 315.23 63.0912 316.466 59.9256C317.163 58.1426 318.805 55.0655 321.392 50.6942C322.446 48.9252 323.132 47.6344 323.449 46.8218C323.762 46.0213 324.276 45.7607 324.992 46.0401C326.338 46.5658 326.632 47.799 325.874 49.7397C325.519 50.6493 324.599 52.3447 323.113 54.8257C321.407 57.6543 320.42 59.3937 320.152 60.0439C321.189 59.6098 322.915 58.4458 325.332 56.552C328.711 53.9852 331.06 52.4426 332.381 51.9239C333.719 51.3978 334.909 51.3385 335.952 51.7458C336.741 52.0536 337.159 52.8251 337.208 54.0603C337.269 55.3002 336.571 57.9283 335.115 61.9445C334.751 62.9485 334.553 63.7239 334.521 64.2707C334.489 64.8174 334.51 65.105 334.583 65.1334C335.153 65.356 337.148 63.8984 340.567 60.7607C342.387 59.1087 343.984 57.9361 345.359 57.2429C346.746 56.5545 348.028 56.4399 349.204 56.8993C350.187 57.283 350.703 58.0718 350.754 59.2659C350.81 60.4478 350.546 62.0712 349.964 64.1362C349.359 66.2206 348.919 68.1732 348.641 69.9938C348.376 71.8191 348.66 73.1672 349.494 74.0381C350.057 74.6355 350.254 75.1526 350.083 75.5892C349.918 76.0137 349.456 76.3367 348.699 76.5581C347.941 76.7796 347.32 76.7956 346.835 76.6061C345.864 76.2273 345.229 75.2943 344.929 73.8073C344.629 72.3203 345.057 69.524 346.213 65.4184C346.664 63.7632 346.94 62.5713 347.043 61.8426C347.146 61.1139 347.028 60.6833 346.688 60.5507C346.179 60.3518 345.383 60.6001 344.3 61.2958C343.23 61.9961 341.339 63.529 338.626 65.8944C336.508 67.7374 334.983 68.9239 334.049 69.4539C333.132 69.9765 332.382 70.1241 331.8 69.8968C331.279 69.6931 330.892 69.3046 330.641 68.7312C330.394 68.1456 330.33 67.5405 330.448 66.9156C330.571 66.2787 331.022 64.7843 331.8 62.4324C333.115 58.5286 333.653 56.1667 333.414 55.3465Z" fill="white"/>
<path d="M375.045 84.74C374.412 85.9075 372.613 86.7536 369.647 87.2783C366.693 87.8092 364.117 87.4787 361.919 86.2869C360.077 85.2875 358.946 83.971 358.529 82.3374C358.123 80.71 358.447 78.9234 359.503 76.9776C361.278 73.704 364.071 71.1897 367.882 69.4347C371.692 67.6796 374.908 67.5128 377.529 68.9343C378.388 69.3999 378.934 70.059 379.167 70.9116C379.413 71.7704 379.321 72.5947 378.893 73.3844C377.937 75.1471 376.157 76.3667 373.554 77.0433C370.95 77.7199 367.778 78.0513 364.038 78.0375C363.275 78.0237 362.76 78.2629 362.494 78.7551C361.978 79.7051 361.84 80.6153 362.079 81.4855C362.318 82.3558 362.976 83.0826 364.052 83.6661C366.513 85.0007 369.764 85.0012 373.805 83.6675C374.388 83.4946 374.776 83.4609 374.971 83.5664C375.337 83.7651 375.362 84.1563 375.045 84.74ZM364.565 75.5905C370.983 75.338 374.666 74.3362 375.616 72.5849C375.988 71.8982 375.866 71.3872 375.247 71.052C374.194 70.4809 372.585 70.6079 370.419 71.4331C368.265 72.2645 366.314 73.6503 364.565 75.5905Z" fill="white"/>
<path d="M399.211 90.2704C398.651 89.8904 397.788 89.8402 396.623 90.1198C395.469 90.4067 393.347 91.3667 390.257 92.9998C386.144 95.2133 383.662 96.3781 382.813 96.4941C381.974 96.6174 381.382 96.5622 381.037 96.3283C379.766 95.4658 379.546 94.4204 380.38 93.1919C380.731 92.6747 381.314 92.0004 382.129 91.169C384.929 88.3166 387.553 85.0854 390.002 81.4754C390.28 81.0659 390.759 80.7303 391.44 80.4684C392.139 80.2032 392.645 80.1765 392.957 80.3884C393.518 80.7685 393.8 81.2113 393.803 81.717C393.806 82.2226 393.453 82.998 392.744 84.0433C392.006 85.1317 390.162 87.1539 387.214 90.1098C386.238 91.0844 385.648 91.7225 385.443 92.0242C385.326 92.1966 385.311 92.3121 385.397 92.3706C385.559 92.4802 387.181 91.7004 390.264 90.0312C393.387 88.3262 395.817 87.2838 397.553 86.904C399.29 86.5242 400.767 86.7472 401.985 87.5731C402.955 88.2309 403.442 89.2062 403.446 90.4992C403.461 91.7994 402.815 93.7138 401.509 96.2422C400.006 99.1085 399.15 100.951 398.941 101.769C398.75 102.584 398.919 103.17 399.447 103.528C399.781 103.755 400.282 103.921 400.949 104.028C401.064 104.043 401.144 104.065 401.187 104.095C401.65 104.409 401.699 104.835 401.334 105.374C401.012 105.848 400.351 106.139 399.35 106.247C398.356 106.344 397.411 106.089 396.517 105.482C395.601 104.861 395.135 104.017 395.118 102.952C395.119 101.883 396.045 99.6711 397.896 96.3163C399.743 92.9435 400.181 90.9282 399.211 90.2704Z" fill="white"/>
<path d="M424.458 103.568C425.557 104.344 426.609 105.054 427.613 105.699C428.599 106.346 429.392 106.919 429.994 107.417C430.756 108.048 431.179 108.517 431.264 108.824C431.348 109.13 431.245 109.459 430.954 109.81C430.282 110.622 429.35 110.594 428.158 109.726C426.629 108.612 425.187 107.629 423.83 106.776C422.474 105.924 421.7 105.511 421.508 105.538C421.335 105.564 420.046 106.508 417.641 108.371C415.244 110.224 413.764 111.492 413.199 112.174C412.286 113.277 411.821 114.135 411.804 114.746C411.796 115.348 412.083 115.89 412.665 116.372C413.527 117.086 415.261 117.431 417.867 117.408C418.899 117.367 419.575 117.479 419.896 117.744C420.327 118.101 420.352 118.511 419.97 118.972C419.372 119.694 417.898 120.055 415.549 120.054C413.219 120.051 411.326 119.448 409.872 118.244C407.445 116.234 407.415 113.8 409.782 110.942C410.637 109.909 412.212 108.517 414.507 106.766C416.784 105.016 418.101 103.926 418.458 103.495C418.583 103.344 418.525 103.169 418.284 102.97L416.607 101.81C415.324 100.747 415.105 99.7042 415.952 98.6812C416.434 98.0995 416.971 98.0537 417.563 98.5436L420.661 101.11C420.872 101.284 421.137 101.342 421.455 101.285C421.773 101.227 422.536 100.785 423.744 99.9596C424.96 99.1239 426.128 98.2741 427.249 97.4104C428.362 96.5566 429.269 96.4204 429.971 97.0017C430.403 97.3588 430.614 97.7874 430.606 98.2876C430.597 98.7878 430.485 99.1682 430.269 99.429C430.153 99.5694 429.378 100.137 427.946 101.132L424.458 103.568Z" fill="white"/>
</svg>
