<svg width="464" height="142" viewBox="0 0 464 142" fill="none" xmlns="http://www.w3.org/2000/svg">
<path d="M38.5547 100.58C38.567 101.325 38.7394 102.89 39.0718 105.275C40.5472 115.326 41.0522 120.53 40.5868 120.886C39.8835 121.424 38.9982 121.445 37.931 120.95C36.8717 120.465 34.6066 118.747 31.1358 115.795C27.6754 112.836 24.4474 109.944 21.4518 107.121C20.5591 106.361 19.7982 105.763 19.1691 105.326C18.3172 104.748 17.7449 104.268 17.4523 103.885C17.1437 103.482 17.0168 103.005 17.0715 102.455C17.1286 101.887 17.3434 101.46 17.7157 101.176C18.1708 100.828 18.8327 100.879 19.7016 101.329C20.5729 101.761 22.2438 103.163 24.7143 105.535C30.0733 110.698 34.3612 114.418 37.5782 116.695C37.0074 110.591 36.6103 106.739 36.3868 105.14C36.1555 103.53 35.6566 101.035 34.8902 97.6536C34.7708 96.8761 34.9749 96.2856 35.5024 95.8821C35.7299 95.7081 36.1625 95.7379 36.8001 95.9714C37.4299 96.1946 38.882 97.0429 41.1564 98.5163C46.7927 102.156 50.3202 104.228 51.7391 104.733C50.7756 95.9291 48.1165 88.0697 43.7619 81.1549C43.6511 81.0101 43.6353 80.7108 43.7143 80.2569C43.7958 79.7847 43.9606 79.4537 44.2088 79.2639C45.0362 78.631 45.8534 78.842 46.6602 79.897C47.4988 80.9932 48.4773 82.8513 49.5959 85.471C50.7169 88.0725 51.5976 90.5955 52.2379 93.0401C52.8807 95.4664 53.7357 99.2632 54.8028 104.43C54.9696 105.27 55.1316 106.007 55.2886 106.641C55.3355 106.916 55.2604 107.236 55.0633 107.6C54.8765 107.956 54.6953 108.201 54.5194 108.336C54.0747 108.676 53.4389 108.777 52.6121 108.639C51.7852 108.501 50.0046 107.609 47.2701 105.963C44.5278 104.306 42.4949 103.042 41.1715 102.169C40.2569 101.573 39.3847 101.044 38.5547 100.58Z" fill="white"/>
<path d="M81.1743 83.1342C81.8509 84.277 81.6528 86.2555 80.58 89.0696C79.5184 91.877 77.912 93.9176 75.7607 95.1912C73.9568 96.2592 72.2467 96.5528 70.6306 96.0721C69.0256 95.5848 67.6593 94.3888 66.5316 92.484C64.6345 89.2795 63.9114 85.5918 64.3625 81.4208C64.8135 77.2498 66.3219 74.4048 68.8878 72.8857C69.7281 72.3882 70.5741 72.2581 71.4257 72.4953C72.2886 72.726 72.9489 73.2278 73.4066 74.0009C74.4281 75.7264 74.5606 77.8799 73.804 80.4614C73.0475 83.0428 71.7029 85.9346 69.7703 89.1367C69.3668 89.7841 69.3076 90.3487 69.5929 90.8305C70.1434 91.7605 70.8535 92.3464 71.723 92.5882C72.5924 92.83 73.5538 92.6392 74.607 92.0156C77.016 90.5895 78.686 87.8001 79.617 83.6476C79.7679 83.0589 79.9385 82.7082 80.129 82.5954C80.4876 82.3832 80.836 82.5627 81.1743 83.1342ZM67.9414 87.4276C71.0205 81.7916 72.0526 78.1164 71.0377 76.4021C70.6397 75.7298 70.1381 75.5728 69.5331 75.931C68.5023 76.5413 67.7848 77.9874 67.3806 80.2695C66.9876 82.545 67.1745 84.931 67.9414 87.4276Z" fill="white"/>
<path d="M91.0846 72.9257C91.2862 69.4701 92.0307 66.3978 93.318 63.7089C94.5998 61.0083 96.0814 59.258 97.7628 58.458C98.6916 58.0161 99.6836 58.0704 100.739 58.6211C101.794 59.1718 102.615 60.0644 103.202 61.2989C104.942 64.9557 105.194 69.0463 103.958 73.5708C102.728 78.078 100.579 81.0616 97.5102 82.5216C96.6754 82.9188 95.799 83.0618 94.8809 82.9507C93.969 82.8222 93.3097 82.4365 92.903 81.7937C92.593 81.2635 92.2385 80.9275 91.8394 80.7857C91.0932 80.5206 90.5831 80.1001 90.309 79.5239C89.7999 78.4539 89.0058 76.0272 87.9267 72.2436L84.7254 60.8325C83.6647 56.9969 83.0769 54.5945 82.9619 53.6255C82.8587 52.6508 82.9163 51.9385 83.1348 51.4885C83.3533 51.0384 83.7212 50.6904 84.2385 50.4442C85.0616 50.0526 85.8116 50.5682 86.4884 51.9909C87.1318 53.3431 87.5797 55.4515 87.8324 58.3161C88.0755 61.0699 89.1596 65.9397 91.0846 72.9257ZM93.4556 79.0002C94.6096 79.8498 95.6217 80.0676 96.4918 79.6537C97.8322 79.0159 98.9861 77.7892 99.9535 75.9735C100.915 74.1461 101.459 71.9697 101.584 69.4445C101.715 66.9019 101.451 64.9368 100.791 63.5494C100.494 62.9262 100.128 62.4444 99.692 62.1039C99.256 61.7634 98.8676 61.6742 98.5266 61.8365C96.8922 62.614 95.5311 64.9054 94.4432 68.7106C93.3615 72.4985 93.0323 75.9283 93.4556 79.0002Z" fill="white"/>
<path d="M136.042 41.5524C135.909 41.0625 135.539 40.8193 134.932 40.8229C133.833 40.8528 133.2 40.56 133.032 39.9445C132.905 39.4797 132.983 38.9727 133.265 38.4233C133.556 37.8579 133.934 37.5118 134.399 37.385L137.057 36.7404C138.288 36.4044 139.886 35.8805 141.852 35.1686C143.804 34.4602 145.277 33.9706 146.269 33.6997C149.736 32.7535 152.786 32.9738 155.418 34.3609C158.06 35.7319 159.816 38.0127 160.687 41.2033C161.644 44.7079 161.009 48.3162 158.783 52.0281C156.566 55.7241 152.857 58.9972 147.655 61.8475C145.601 62.9751 144.258 63.9152 143.627 64.6679C142.789 65.6525 142.031 66.2373 141.352 66.4225C140.875 66.5528 140.378 66.4118 139.86 65.9997C139.359 65.5966 139.067 65.2444 138.985 64.9429C138.95 64.8173 138.987 64.4564 139.094 63.8603C139.204 63.223 139.23 62.6017 139.172 61.9965C139.128 61.3878 138.939 60.3258 138.607 58.8104C138.265 57.311 137.838 54.8564 137.326 51.4465C136.822 48.0206 136.508 45.5824 136.382 44.1321C136.279 42.8645 136.166 42.0046 136.042 41.5524ZM139.108 39.3592C140.065 48.7485 141.047 55.2897 142.055 58.9828C142.278 59.7993 142.527 60.3925 142.804 60.7624C142.928 60.8229 143.135 60.8138 143.424 60.7349C144.228 60.5155 146.188 59.4136 149.304 57.4294C152.42 55.4451 154.74 53.0641 156.263 50.2865C157.785 47.5088 158.165 44.7194 157.4 41.9182C156.766 39.5944 155.437 37.9662 153.415 37.0335C151.401 36.0849 149.05 35.9775 146.362 36.7112C144.729 37.1569 142.804 37.8441 140.588 38.773C140.094 38.989 139.6 39.1843 139.108 39.3592Z" fill="white"/>
<path d="M189.725 47.1385C189.941 48.4491 189.038 50.2205 187.016 52.4527C185.007 54.6829 182.769 56.0006 180.302 56.4059C178.234 56.7457 176.534 56.3982 175.203 55.3633C173.884 54.3264 173.046 52.7157 172.687 50.5315C172.083 46.8568 172.749 43.1583 174.684 39.4359C176.619 35.7136 179.058 33.6108 182 33.1274C182.964 32.9691 183.799 33.1551 184.507 33.6855C185.227 34.2137 185.66 34.9212 185.805 35.8077C186.131 37.7864 185.472 39.8409 183.829 41.9713C182.187 44.1017 179.884 46.3076 176.92 48.5891C176.309 49.0457 176.049 49.5503 176.14 50.1028C176.315 51.1692 176.763 51.973 177.486 52.5141C178.208 53.0552 179.173 53.2266 180.381 53.0282C183.143 52.5743 185.712 50.582 188.088 47.0512C188.442 46.5576 188.729 46.2928 188.947 46.2569C189.358 46.1894 189.618 46.4833 189.725 47.1385ZM175.837 46.3325C180.753 42.1996 183.049 39.1503 182.726 37.1845C182.6 36.4136 182.189 36.0851 181.495 36.1991C180.313 36.3933 179.12 37.4801 177.914 39.4595C176.722 41.4368 176.029 43.7278 175.837 46.3325Z" fill="white"/>
<path d="M203.669 52.5487C203.638 51.7937 202.938 49.888 201.571 46.8316C198.984 41.1384 197.604 37.1427 197.43 34.8446C197.291 33.0139 197.832 32.0523 199.053 31.9598C200.247 31.8693 200.906 32.642 201.03 34.2779C201.132 35.6152 201.249 36.6444 201.382 37.3656C201.527 38.0728 201.938 39.367 202.616 41.2483C203.293 43.1165 204.012 44.8445 204.772 46.4322C205.162 47.2645 205.445 47.9024 205.622 48.346C205.864 47.9099 206.171 47.312 206.544 46.5525C208.538 42.5361 210.131 39.4381 211.324 37.2584C212.53 35.0776 213.525 33.4809 214.31 32.4681C215.095 31.4554 215.682 30.8429 216.071 30.6306C216.459 30.4053 216.86 30.2769 217.276 30.2455C217.782 30.2071 218.192 30.3588 218.505 30.7007C218.831 31.0416 219.012 31.4458 219.048 31.9132C219.094 32.5234 218.612 33.2259 217.601 34.0207C216.653 34.7717 215.307 36.5777 213.566 39.4389C211.824 42.3001 209.983 45.9197 208.042 50.2976C207.048 52.5145 206.24 53.6466 205.616 53.6938C205.071 53.7352 204.422 53.3534 203.669 52.5487Z" fill="white"/>
<path d="M243.547 44.5984C243.532 45.9264 242.335 47.5143 239.957 49.362C237.591 51.2099 235.159 52.1195 232.659 52.0907C230.563 52.0666 228.949 51.4294 227.818 50.1794C226.699 48.9294 226.153 47.1977 226.178 44.9843C226.221 41.2606 227.518 37.7337 230.07 34.4035C232.621 31.0732 235.388 29.4253 238.369 29.4596C239.346 29.4709 240.136 29.799 240.741 30.444C241.359 31.0892 241.662 31.861 241.652 32.7593C241.629 34.7644 240.624 36.6735 238.636 38.4867C236.649 40.2999 233.998 42.0729 230.684 43.8057C230.003 44.1494 229.659 44.6012 229.653 45.1611C229.64 46.2417 229.943 47.1112 230.56 47.7694C231.178 48.4276 232.098 48.7637 233.322 48.7778C236.122 48.81 238.997 47.2935 241.949 44.2284C242.384 43.8037 242.712 43.5926 242.933 43.5951C243.35 43.5999 243.555 43.9343 243.547 44.5984ZM230.009 41.3954C235.567 38.1779 238.357 35.5732 238.38 33.5811C238.389 32.7999 238.042 32.4053 237.339 32.3972C236.141 32.3834 234.777 33.2466 233.247 34.9869C231.729 36.7274 230.65 38.8636 230.009 41.3954Z" fill="white"/>
<path d="M262.173 19.4477C263.108 19.5247 263.525 20.1602 263.427 21.354C263.339 22.4181 262.566 24.9021 261.108 28.8059C260.187 31.2646 259.406 33.9961 258.767 37.0006C258.127 40.0051 257.736 42.3703 257.594 44.0963C257.417 46.2374 257.378 48.3769 257.476 50.5145C257.495 50.9211 257.497 51.2152 257.482 51.3969C257.429 52.0457 257.162 52.5856 256.682 53.0164C256.203 53.4472 255.716 53.6422 255.223 53.6016C254.535 53.5449 254.09 53.0771 253.889 52.1982C253.7 51.3203 253.684 49.9276 253.841 48.02C254.199 43.6727 255.162 38.3301 256.73 31.9922C258.31 25.6553 259.451 21.9669 260.15 20.9272C260.863 19.8884 261.537 19.3953 262.173 19.4477Z" fill="white"/>
<path d="M274.962 55.2518C273.2 54.9742 271.852 54.0764 270.918 52.5584C269.984 51.0404 269.672 49.2974 269.982 47.3295C270.505 44.0111 272.132 40.9193 274.864 38.0543C277.611 35.1785 280.54 33.9857 283.653 34.4761C285.711 34.8003 287.252 35.8537 288.276 37.6363C289.313 39.421 289.659 41.4066 289.315 43.5932C288.788 46.9374 286.975 49.8285 283.875 52.2665C280.789 54.7065 277.818 55.7016 274.962 55.2518ZM273.457 47.3628C273.252 48.6619 273.355 49.7656 273.766 50.6739C274.189 51.5842 274.851 52.1102 275.751 52.2521C277.668 52.554 279.756 51.8086 282.015 50.016C284.277 48.2106 285.611 46.0216 286.016 43.4492C286.265 41.8671 286.094 40.5286 285.502 39.4335C284.924 38.3276 284.012 37.6764 282.764 37.4799C280.694 37.1537 278.712 38.1464 276.818 40.4581C274.94 42.7589 273.82 45.0605 273.457 47.3628Z" fill="white"/>
<path d="M301.17 56.9C299.965 59.0091 298.561 62.0418 296.959 65.9983L295.504 69.4349C295.286 69.9162 294.923 70.3538 294.418 70.7475C293.909 71.1538 293.497 71.3162 293.182 71.2346C292.792 71.1335 292.396 70.816 291.996 70.2821C291.606 69.7641 291.442 69.3853 291.504 69.1458C291.683 68.4525 292.089 67.5353 292.72 66.3941C297.438 57.6759 300.71 49.7935 302.533 42.7471L302.926 41.1539C303.253 39.786 303.748 38.8585 304.413 38.3714C305.077 37.8842 305.736 37.7255 306.392 37.8951C306.694 37.9735 306.922 38.288 307.076 38.8388C307.232 39.377 307.198 40.081 306.973 40.9507C306.656 42.1734 306.147 43.6219 305.445 45.2962C304.549 47.4047 304.053 48.6212 303.955 48.9457C306.682 46.1545 309.336 44.1111 311.917 42.8156C314.499 41.5201 316.691 41.1057 318.493 41.5723C319.766 41.9018 320.714 42.6582 321.336 43.8413C321.973 45.0152 322.11 46.308 321.744 47.7198C320.68 51.8291 318.139 55.1524 314.12 57.6898C310.1 60.2271 306.597 61.1091 303.609 60.3358C302.866 60.1433 302.322 59.8008 301.979 59.3085C301.648 58.8194 301.379 58.0165 301.17 56.9ZM316.852 44.7184C315.074 44.2583 312.444 45.3528 308.961 48.002C305.477 50.6511 303.496 52.9022 303.016 54.7552C302.899 55.209 303.043 55.717 303.449 56.2794C303.855 56.8418 304.455 57.2257 305.249 57.4313C307.052 57.8979 309.469 57.1048 312.502 55.0519C315.539 52.9865 317.39 50.668 318.055 48.0965C318.294 47.1763 318.287 46.4215 318.036 45.832C317.801 45.2331 317.406 44.8619 316.852 44.7184Z" fill="white"/>
<path d="M346.251 57.1685C345.118 56.7418 341.377 59.1061 335.029 64.2615C332.888 65.9977 331.673 66.9273 331.385 67.0503C331.102 67.1612 330.651 67.1837 330.032 67.1178C329.425 67.0567 328.941 66.9534 328.578 66.8079C327.768 66.483 327.996 64.7436 329.262 61.5896C329.975 59.8132 331.645 56.7515 334.273 52.4045C335.344 50.6454 336.042 49.361 336.366 48.5514C336.686 47.7538 337.203 47.4981 337.916 47.7841C339.257 48.3224 339.54 49.5582 338.764 51.4917C338.401 52.398 337.464 54.0847 335.955 56.5518C334.223 59.3644 333.221 61.0945 332.947 61.7422C333.987 61.3178 335.724 60.17 338.159 58.2987C341.561 55.7635 343.925 54.2428 345.25 53.7364C346.593 53.2229 347.784 53.1746 348.823 53.5916C349.608 53.9067 350.02 54.6821 350.057 55.9177C350.107 57.1582 349.385 59.7796 347.891 63.7821C347.517 64.7827 347.312 65.5562 347.275 66.1026C347.238 66.649 347.256 66.9368 347.329 66.9658C347.897 67.1937 349.905 65.7548 353.354 62.6491C355.189 61.0141 356.797 59.8565 358.178 59.1761C359.571 58.5006 360.854 58.398 362.026 58.8683C363.005 59.2611 363.514 60.0547 363.554 61.2492C363.599 62.4316 363.32 64.0525 362.719 66.1119C362.095 68.1906 361.636 70.139 361.341 71.9569C361.059 73.7797 361.331 75.1304 362.157 76.009C362.715 76.6117 362.906 77.1305 362.732 77.5656C362.562 77.9885 362.097 78.3072 361.338 78.5216C360.578 78.7359 359.957 78.7461 359.474 78.5522C358.507 78.1643 357.88 77.2255 357.594 75.7357C357.308 74.246 357.762 71.4538 358.956 67.3591C359.422 65.7082 359.71 64.5189 359.82 63.7912C359.929 63.0636 359.815 62.6318 359.476 62.4961C358.969 62.2924 358.171 62.5334 357.082 63.2189C356.005 63.9092 354.099 65.4244 351.365 67.7645C349.23 69.5877 347.693 70.7599 346.755 71.2812C345.833 71.7952 345.082 71.9359 344.502 71.7031C343.982 71.4946 343.6 71.1025 343.354 70.5268C343.112 69.939 343.054 69.3332 343.178 68.7095C343.307 68.0738 343.771 66.5836 344.572 64.2391C345.923 60.3477 346.483 57.9909 346.251 57.1685Z" fill="white"/>
<path d="M387.643 86.8265C387.004 87.991 385.201 88.8285 382.233 89.3392C379.276 89.8562 376.702 89.5136 374.51 88.3114C372.672 87.3033 371.548 85.9815 371.138 84.3459C370.74 82.7166 371.073 80.9316 372.137 78.9908C373.928 75.7256 376.733 73.2245 380.552 71.4875C384.37 69.7504 387.587 69.5988 390.201 71.0327C391.058 71.5023 391.601 72.1639 391.83 73.0176C392.072 73.8776 391.976 74.7014 391.544 75.4892C390.58 77.2473 388.794 78.4585 386.188 79.1228C383.581 79.7871 380.408 80.1035 376.668 80.072C375.905 80.0547 375.389 80.2915 375.12 80.7824C374.6 81.73 374.458 82.6394 374.693 83.5108C374.927 84.3822 375.582 85.1122 376.655 85.7007C379.109 87.0469 382.36 87.0627 386.408 85.7481C386.991 85.578 387.38 85.5461 387.574 85.6526C387.939 85.8529 387.962 86.2442 387.643 86.8265ZM377.206 77.6276C383.625 77.4054 387.313 76.4209 388.271 74.6742C388.647 73.9892 388.526 73.4776 387.91 73.1395C386.859 72.5635 385.249 72.6829 383.08 73.4979C380.922 74.3191 378.964 75.6956 377.206 77.6276Z" fill="white"/>
<path d="M411.774 92.3906C411.215 92.0099 410.352 91.9588 409.186 92.2372C408.032 92.5229 405.909 93.4806 402.817 95.1103C398.702 97.3195 396.219 98.4816 395.369 98.5967C394.53 98.7191 393.938 98.6632 393.594 98.429C392.323 97.5652 392.105 96.5195 392.94 95.2919C393.291 94.775 393.875 94.1014 394.691 93.2709C397.494 90.4215 400.122 87.1931 402.574 83.5857C402.853 83.1765 403.332 82.8414 404.014 82.5803C404.713 82.3157 405.219 82.2896 405.531 82.5019C406.091 82.8825 406.372 83.3257 406.375 83.8313C406.378 84.3369 406.024 85.112 405.314 86.1565C404.575 87.2441 402.729 89.2643 399.777 92.2171C398.8 93.1906 398.209 93.8281 398.004 94.1296C397.887 94.3019 397.872 94.4174 397.958 94.4759C398.119 94.5857 399.743 93.8077 402.827 92.1418C405.952 90.4401 408.383 89.4003 410.12 89.0224C411.857 88.6444 413.334 88.869 414.551 89.6962C415.52 90.355 416.006 91.3309 416.009 92.6238C416.022 93.9241 415.375 95.8377 414.066 98.3648C412.56 101.23 411.701 103.071 411.492 103.889C411.3 104.703 411.468 105.29 411.996 105.648C412.33 105.875 412.83 106.042 413.497 106.15C413.613 106.165 413.692 106.187 413.735 106.217C414.198 106.532 414.247 106.958 413.881 107.497C413.559 107.97 412.897 108.261 411.896 108.367C410.902 108.463 409.958 108.207 409.064 107.599C408.149 106.977 407.683 106.133 407.667 105.068C407.67 103.999 408.598 101.788 410.452 98.4351C412.303 95.0642 412.744 93.0494 411.774 92.3906Z" fill="white"/>
<path d="M436.989 105.633C438.09 106.405 439.144 107.113 440.149 107.756C441.137 108.4 441.932 108.971 442.535 109.468C443.298 110.097 443.723 110.565 443.808 110.871C443.893 111.177 443.791 111.506 443.501 111.858C442.83 112.672 441.898 112.646 440.705 111.781C439.173 110.671 437.728 109.691 436.369 108.842C435.011 107.993 434.236 107.582 434.044 107.61C433.871 107.636 432.584 108.583 430.184 110.452C427.792 112.311 426.314 113.582 425.751 114.265C424.841 115.371 424.378 116.23 424.363 116.842C424.356 117.443 424.644 117.984 425.227 118.465C426.091 119.177 427.826 119.518 430.432 119.488C431.464 119.444 432.14 119.555 432.462 119.82C432.894 120.176 432.92 120.585 432.539 121.047C431.943 121.771 430.47 122.135 428.121 122.14C425.79 122.143 423.897 121.544 422.439 120.343C420.007 118.34 419.971 115.906 422.331 113.042C423.184 112.007 424.756 110.611 427.047 108.854C429.319 107.099 430.633 106.006 430.989 105.574C431.114 105.423 431.055 105.248 430.814 105.049L429.134 103.893C427.848 102.834 427.627 101.791 428.472 100.766C428.952 100.183 429.489 100.136 430.081 100.625L433.187 103.183C433.398 103.357 433.662 103.415 433.98 103.356C434.299 103.298 435.06 102.854 436.266 102.025C437.48 101.187 438.647 100.334 439.765 99.4676C440.876 98.6112 441.783 98.4727 442.486 99.0523C442.919 99.4083 443.131 99.8364 443.124 100.337C443.117 100.837 443.005 101.218 442.79 101.479C442.674 101.62 441.901 102.189 440.471 103.187L436.989 105.633Z" fill="white"/>
</svg>
