<svg width="551" height="163" viewBox="0 0 551 163" fill="none" xmlns="http://www.w3.org/2000/svg">
<path d="M44.8984 139.311C43.9367 140.15 42.4718 140.857 40.5036 141.434C38.5453 142.001 36.522 141.83 34.4339 140.922C32.3457 140.013 30.4887 138.626 28.8627 136.762C27.8871 135.643 26.4937 133.55 24.6823 130.482C24.3513 129.924 23.8114 129.047 23.0625 127.852C21.5538 125.488 20.6743 124.043 20.4241 123.519C20.1837 122.985 20.089 122.481 20.14 122.004C20.1825 121.518 20.3803 121.121 20.7336 120.813C20.979 120.599 21.4346 120.616 22.1005 120.865C22.7677 121.095 23.2125 121.337 23.435 121.593C23.6062 121.789 24.155 122.874 25.0813 124.847C25.539 125.848 26.5119 127.479 28 129.74C29.4795 131.991 30.5787 133.529 31.2976 134.353C33.7023 137.111 35.9753 138.42 38.1167 138.28C40.2679 138.132 41.7802 137.677 42.6536 136.915C44.3415 135.444 45.5518 133.939 46.2844 132.402C47.0183 130.846 47.099 129.126 46.5265 127.241C45.954 125.356 44.1907 122.462 41.2367 118.56C38.2143 114.579 36.4824 111.969 36.041 110.729C35.601 109.472 35.7195 108.548 36.3967 107.957C37.064 107.376 37.8726 107.629 38.8225 108.719C39.6269 109.641 40.7535 111.319 42.2021 113.753C43.0864 115.262 44.227 116.937 45.6239 118.777C46.7141 120.245 47.6287 121.581 48.3677 122.785C49.0982 123.979 49.566 125.1 49.7713 126.148C49.9765 127.195 50.0353 128.293 49.9476 129.441C49.8697 130.58 49.6982 131.671 49.4331 132.714C49.168 133.757 48.5622 134.925 47.6156 136.216C46.6874 137.51 45.7817 138.541 44.8984 139.311Z" fill="white"/>
<path d="M54.706 96.5594C54.946 97.0137 55.6784 98.7322 56.9033 101.715C57.4771 103.121 58.0158 104.262 58.5193 105.137C58.8601 105.727 59.2202 106.376 59.5995 107.084C61.1682 110.071 62.3172 112.055 63.0468 113.038C64.1411 114.512 65.3049 115.894 66.5381 117.184C67.2558 117.933 67.5518 118.637 67.4261 119.298C67.3005 119.959 67.039 120.437 66.6417 120.732C66.0771 121.151 65.4522 121.128 64.767 120.664C64.074 120.189 63.2037 119.246 62.1559 117.835C61.0616 116.36 59.7573 114.167 58.243 111.253C57.6599 110.161 57.305 109.509 57.1784 109.294C56.9355 108.923 56.7057 108.526 56.489 108.103C56.2696 107.699 56.0398 107.302 55.7995 106.913C55.1405 105.894 54.3857 104.484 53.5352 102.683C52.8882 101.33 52.2833 100.166 51.7204 99.1892C51.3279 98.5076 51.0972 98.0221 51.0283 97.7327C50.9595 97.4433 51.0214 97.0243 51.2142 96.4758C51.4175 95.9195 51.6184 95.5676 51.8171 95.4201C52.2562 95.0942 52.7446 95.064 53.2824 95.3297C53.8124 95.5849 54.2869 95.9948 54.706 96.5594Z" fill="white"/>
<path d="M78.4587 114.412C78.1849 114.588 77.814 114.625 77.3462 114.523C76.8783 114.422 76.5529 114.228 76.3698 113.944C76.243 113.747 76.0818 112.906 75.8861 111.422C75.7013 109.931 75.6174 107.91 75.6344 105.361C75.6553 102.793 75.7356 100.559 75.8755 98.6574C75.8896 98.4626 75.8942 98.2893 75.8895 98.1376C75.8581 96.5478 75.8876 94.3307 75.9781 91.486C76.1007 88.4505 76.1239 85.6337 76.0478 83.0355C76.0171 81.8323 76.0702 80.374 76.207 78.6606C76.3367 76.9363 76.5932 75.9509 76.9765 75.7045C77.1956 75.5636 77.5961 75.5847 78.1782 75.7677C78.7603 75.9508 79.1288 76.1627 79.2837 76.4037C79.5584 76.8308 79.6094 78.5473 79.4368 81.5531C79.0407 88.0153 78.7831 94.4039 78.664 100.719C78.6476 101.488 78.6137 102.555 78.5622 103.919C78.5092 106.244 78.5453 107.769 78.6706 108.494C78.7958 109.218 78.8311 110.356 78.7765 111.909C78.7398 113.465 78.6339 114.299 78.4587 114.412Z" fill="white"/>
<path d="M113.385 92.1376C112.252 92.7236 110.661 93.0625 108.612 93.1542C106.575 93.2399 104.65 92.5933 102.838 91.2142C101.026 89.8352 99.5513 88.0468 98.4152 85.8492C97.7335 84.5306 96.8776 82.1661 95.8473 78.7557C95.6584 78.1352 95.3424 77.1552 94.8992 75.816C93.9956 73.1609 93.4847 71.5489 93.3663 70.9798C93.2596 70.4047 93.2876 69.8918 93.4504 69.4412C93.6072 68.979 93.8938 68.6403 94.3102 68.425C94.5994 68.2755 95.0379 68.4006 95.6256 68.8003C96.219 69.1825 96.5934 69.524 96.7488 69.8247C96.8684 70.056 97.1436 71.2403 97.5742 73.3776C97.781 74.458 98.3384 76.2733 99.2463 78.8234C100.148 81.362 100.85 83.1171 101.353 84.0887C103.033 87.3389 104.93 89.1506 107.043 89.5239C109.168 89.8913 110.745 89.8088 111.774 89.2766C113.764 88.2481 115.297 87.0744 116.374 85.7553C117.457 84.4188 117.944 82.767 117.836 80.8001C117.728 78.8332 116.703 75.6032 114.761 71.1103C112.772 66.5248 111.71 63.5779 111.576 62.2694C111.447 60.9433 111.782 60.074 112.58 59.6614C113.367 59.2548 114.092 59.6934 114.755 60.9773C115.318 62.0645 116.013 63.9624 116.841 66.6708C117.342 68.3471 118.052 70.2448 118.971 72.3638C119.681 74.0489 120.252 75.5641 120.683 76.9093C121.109 78.243 121.297 79.4431 121.247 80.5094C121.198 81.5758 120.994 82.656 120.636 83.7498C120.29 84.8377 119.864 85.8567 119.358 86.807C118.853 87.7572 117.987 88.7473 116.76 89.7772C115.551 90.8126 114.426 91.5994 113.385 92.1376Z" fill="white"/>
<path d="M140.732 59.4257C143.125 53.0161 144.747 48.8468 145.598 46.9177C146.461 44.9839 147.074 43.9455 147.438 43.8027C147.789 43.6647 148.253 43.7062 148.83 43.9274C149.402 44.1365 149.764 44.435 149.916 44.8228C150.025 45.1015 149.697 45.9929 148.931 47.497C147.961 49.4446 146.773 52.1357 145.366 55.5701C143.955 58.9924 143.318 60.8793 143.456 61.2307C143.48 61.2913 143.758 61.5179 144.289 61.9105C144.829 62.2863 146.024 62.978 147.874 63.9857C149.737 64.9886 151.081 65.6498 151.906 65.9693C152.731 66.2888 153.663 66.5243 154.702 66.6758C155.409 66.8035 156.115 67.086 156.818 67.5232C157.534 67.9556 157.929 68.2688 158.006 68.4627C158.129 68.7778 158.12 69.1453 157.977 69.5651C157.829 69.9728 157.556 70.2552 157.156 70.4123C156.089 70.8312 154.723 70.7176 153.056 70.0713C151.384 69.4129 148.48 67.8606 144.344 65.4145C143.505 64.9184 142.727 64.4687 142.009 64.0653C141.813 64.5621 141.555 65.188 141.236 65.9428C138.504 72.4156 137.17 76.409 137.233 77.9231C137.318 79.4566 137.24 80.5224 137 81.1206C136.759 81.7187 136.196 82.1916 135.311 82.5391C134.402 82.8961 133.762 82.602 133.391 81.6567C132.701 79.8994 134.399 74.2519 138.487 64.7143C139.076 63.3639 139.344 62.6221 139.292 62.4888C139.23 62.3312 138.579 61.8665 137.338 61.0948C130.919 57.1813 127.592 54.9276 127.359 54.3337C127.149 53.8005 127.099 53.2259 127.206 52.61C127.309 51.982 127.519 51.6061 127.834 51.4823C128.609 51.1776 129.627 51.5962 130.887 52.7381C133.265 54.9097 136.547 57.1389 140.732 59.4257Z" fill="white"/>
<path d="M187.289 37.7362C187.183 37.2397 186.827 36.9765 186.221 36.9467C185.122 36.9161 184.506 36.589 184.372 35.9651C184.271 35.4941 184.376 34.9921 184.688 34.459C185.01 33.9106 185.406 33.5858 185.877 33.4847L188.567 32.9872C189.815 32.7194 191.439 32.2842 193.441 31.6815C195.429 31.0815 196.927 30.6736 197.932 30.4577C201.446 29.7036 204.479 30.0913 207.031 31.621C209.594 33.1352 211.222 35.5092 211.916 38.7428C212.678 42.2947 211.846 45.8626 209.419 49.4465C207.002 53.015 203.119 56.0792 197.769 58.6392C195.655 59.6521 194.263 60.5169 193.591 61.2338C192.7 62.1708 191.911 62.713 191.224 62.8606C190.74 62.9644 190.251 62.7964 189.757 62.3564C189.278 61.9264 189.006 61.5586 188.941 61.2531C188.914 61.1258 188.97 60.7674 189.11 60.1781C189.254 59.5478 189.314 58.9289 189.29 58.3214C189.279 57.7112 189.149 56.6404 188.901 55.1091C188.642 53.5932 188.35 51.1187 188.026 47.6858C187.712 44.2374 187.532 41.7857 187.487 40.3306C187.453 39.0593 187.388 38.1945 187.289 37.7362ZM190.471 35.7148C190.91 45.1426 191.531 51.7279 192.334 55.4708C192.512 56.2983 192.728 56.9043 192.984 57.2889C193.105 57.3562 193.312 57.3584 193.605 57.2955C194.42 57.1207 196.437 56.1283 199.658 54.3184C202.878 52.5085 205.325 50.2587 206.999 47.569C208.672 44.8793 209.204 42.1149 208.595 39.2759C208.089 36.9207 206.852 35.2219 204.884 34.1794C202.926 33.1215 200.584 32.885 197.86 33.4697C196.205 33.825 194.245 34.4054 191.981 35.211C191.475 35.3994 190.972 35.5673 190.471 35.7148Z" fill="white"/>
<path d="M240.467 45.943C240.628 47.2614 239.652 48.9939 237.54 51.1406C235.44 53.2857 233.15 54.5096 230.668 54.8124C228.587 55.0664 226.903 54.6488 225.616 53.5597C224.342 52.4691 223.57 50.8251 223.302 48.6279C222.851 44.9313 223.67 41.2636 225.757 37.6245C227.845 33.9855 230.368 31.9854 233.328 31.6242C234.298 31.5059 235.125 31.7263 235.809 32.2855C236.507 32.8431 236.91 33.5679 237.019 34.4597C237.262 36.4501 236.519 38.4756 234.79 40.5362C233.06 42.5968 230.668 44.7055 227.612 46.8623C226.983 47.2933 226.702 47.7867 226.77 48.3425C226.901 49.4152 227.316 50.2369 228.015 50.8074C228.714 51.378 229.671 51.5891 230.886 51.4409C233.665 51.1018 236.315 49.2175 238.834 45.7881C239.209 45.3095 239.506 45.0568 239.726 45.03C240.139 44.9795 240.386 45.2839 240.467 45.943ZM226.623 44.5628C231.706 40.637 234.127 37.6853 233.886 35.7078C233.791 34.9323 233.395 34.5872 232.697 34.6723C231.508 34.8174 230.27 35.8539 228.984 37.7817C227.71 39.708 226.923 41.9684 226.623 44.5628Z" fill="white"/>
<path d="M260.013 46.829C259.968 45.9839 258.877 45.0767 256.739 44.1075C254.028 42.8949 252.183 41.9103 251.204 41.1537C250.238 40.3833 249.728 39.4976 249.675 38.4964C249.538 35.9088 250.718 33.695 253.216 31.8547C255.726 30.0138 257.801 29.05 259.439 28.9633C260.492 28.9076 261.262 29.0494 261.75 29.3887C262.25 29.7273 262.524 30.3452 262.572 31.2424C262.593 31.6455 262.436 31.9993 262.1 32.304C261.777 32.6079 261.518 32.765 261.323 32.7753C261.18 32.7829 260.895 32.7002 260.469 32.5272C260.043 32.3671 259.765 32.2906 259.635 32.2974C258.985 32.3318 257.69 32.8763 255.751 33.9307C253.812 34.9851 252.874 36.1105 252.937 37.3067C252.976 38.0349 253.362 38.6794 254.096 39.2404C254.829 39.7884 256.128 40.4433 257.994 41.2052C259.5 41.8296 260.71 42.5218 261.624 43.2819C262.55 44.0283 263.042 44.9411 263.099 46.0203C263.204 48.0097 261.915 49.6426 259.231 50.919C256.547 52.1824 253.957 52.8801 251.46 53.0122C249.354 53.1236 248.263 52.4642 248.187 51.0339C248.161 50.5398 248.376 50.1633 248.831 49.9045C249.3 49.645 249.775 49.5026 250.256 49.4771C250.451 49.4668 250.825 49.5122 251.378 49.6133C251.918 49.7151 252.273 49.7616 252.442 49.7526C253.885 49.6763 255.42 49.3539 257.045 48.7854C258.671 48.2169 259.66 47.5648 260.013 46.829Z" fill="white"/>
<path d="M278.713 24.8729C278.44 24.8722 278.232 24.5786 278.091 23.9923C278.039 23.8098 277.968 23.6078 277.878 23.3862C277.528 22.5388 277.355 21.8026 277.357 21.1776C277.358 20.6568 277.665 20.1304 278.279 19.5982C278.906 19.0532 279.596 18.7817 280.352 18.7839C280.729 18.7849 281.152 18.9359 281.62 19.2367C282.088 19.5245 282.321 19.8051 282.321 20.0785C282.319 20.5082 282.155 21.2369 281.826 22.2646C281.511 23.2924 281.001 23.9876 280.297 24.3501C279.606 24.6997 279.078 24.874 278.713 24.8729ZM276.092 46.682C276.089 47.6715 276.223 48.7852 276.493 50.023C276.544 50.2575 276.57 50.4529 276.569 50.6091C276.569 50.8435 276.353 51.1424 275.922 51.5057C275.491 51.8821 275.035 52.0696 274.553 52.0682C273.29 52.0646 272.662 50.9039 272.669 48.5862C272.676 46.1904 273.181 42.4028 274.186 37.2233C274.529 35.4144 274.702 34.3016 274.703 33.885C274.705 33.0647 274.857 32.3685 275.158 31.7964C275.459 31.2113 275.883 30.9196 276.43 30.9211C277.094 30.923 277.615 31.0873 277.991 31.4139C278.381 31.7275 278.575 32.0796 278.574 32.4702C278.573 32.8609 278.481 33.3749 278.296 34.0124C277.31 37.4471 276.698 39.9063 276.459 41.39C276.22 42.8737 276.098 44.6377 276.092 46.682Z" fill="white"/>
<path d="M303.52 45.076C303.372 44.9486 302.912 45.2831 302.141 46.0795C300.865 47.3901 299.269 48.5225 297.352 49.4767C295.447 50.4318 293.709 50.8565 292.137 50.7508C290.968 50.6722 290.076 50.2469 289.463 49.4748C288.85 48.6897 288.587 47.6476 288.675 46.3484C288.81 44.3348 289.721 42.1448 291.407 39.7787C293.094 37.3995 295.363 35.3793 298.215 33.7179C301.081 32.0575 303.54 31.2962 305.592 31.4343C306.671 31.5068 307.598 31.8823 308.375 32.561C308.559 32.73 308.719 32.8712 308.855 32.9848C309.078 33.1694 309.275 33.5285 309.448 34.0622C309.622 34.5828 309.698 34.999 309.677 35.3108C309.664 35.5057 309.573 35.7997 309.403 36.1928C308.465 38.2961 307.806 40.0462 307.425 41.4431C307.044 42.8399 306.572 45.2029 306.009 48.532C305.494 51.525 305 53.8213 304.528 55.4208C304.055 57.0203 303.293 58.5481 302.242 60.0043C301.192 61.4606 299.978 62.5209 298.603 63.1853C297.226 63.8627 295.836 64.1542 294.433 64.0598C292.004 63.8965 289.663 62.8974 287.411 61.0625C285.159 59.2276 284.068 57.8034 284.136 56.7901C284.179 56.1535 284.44 55.8514 284.921 55.8837C285.155 55.8994 285.824 56.3294 286.929 57.1737C289.845 59.4186 292.524 60.6232 294.966 60.7875C297.097 60.9307 298.791 59.9027 300.048 57.7035C301.318 55.5051 302.306 52.1589 303.013 47.665C303.173 46.6448 303.342 45.7818 303.52 45.076ZM304.201 34.3749C303.096 34.3006 301.674 34.7792 299.934 35.8106C298.208 36.8429 296.49 38.4109 294.783 40.5147C293.075 42.6184 292.172 44.4172 292.071 45.9113C292.037 46.4179 292.166 46.8312 292.458 47.1509C292.763 47.4586 293.111 47.6255 293.5 47.6517C294.657 47.7295 296.204 47.2332 298.142 46.1629C300.093 45.0935 301.809 43.545 303.29 41.5173C304.784 39.4776 305.572 37.8536 305.653 36.6454C305.75 35.2033 305.266 34.4465 304.201 34.3749Z" fill="white"/>
<path d="M332.507 40.6023C331.837 40.4992 331.036 40.8237 330.104 41.5759C329.184 42.3301 327.678 44.1072 325.587 46.9074C322.82 50.6706 321.078 52.7868 320.36 53.2558C319.655 53.7269 319.097 53.9307 318.685 53.8673C317.166 53.6333 316.52 52.7828 316.746 51.3158C316.841 50.6981 317.079 49.8388 317.46 48.7381C318.766 44.9607 319.751 40.9164 320.416 36.6053C320.491 36.1163 320.78 35.6075 321.283 35.079C321.801 34.5395 322.246 34.2986 322.62 34.3561C323.289 34.4592 323.733 34.7384 323.953 35.1939C324.173 35.6493 324.186 36.5011 323.994 37.7494C323.794 39.0492 322.995 41.6665 321.599 45.6013C321.135 46.9 320.876 47.7295 320.82 48.0899C320.788 48.2958 320.824 48.4066 320.927 48.4225C321.12 48.4522 322.251 47.0522 324.321 44.2223C326.411 41.343 328.159 39.3595 329.565 38.2718C330.971 37.1841 332.401 36.7523 333.856 36.9764C335.014 37.1548 335.872 37.8271 336.43 38.9934C337.001 40.1617 337.239 42.1679 337.143 45.012C337.014 48.2462 337.03 50.2776 337.192 51.1062C337.369 51.9239 337.773 52.3814 338.404 52.4785C338.803 52.54 339.326 52.4757 339.975 52.2858C340.086 52.2502 340.167 52.2363 340.218 52.2443C340.772 52.3295 340.999 52.6939 340.9 53.3373C340.812 53.9036 340.34 54.4499 339.481 54.9764C338.625 55.49 337.663 55.6645 336.594 55.5C335.501 55.3315 334.718 54.7695 334.246 53.8141C333.788 52.8478 333.677 50.4526 333.91 46.6284C334.133 42.7894 333.665 40.7807 332.507 40.6023Z" fill="white"/>
<path d="M368.835 53.5609C368.486 53.8379 367.863 53.8671 366.964 53.6487C366.635 53.5687 366.102 53.3921 365.364 53.1189C364.529 52.8084 363.921 52.607 363.541 52.5147L362.289 52.2101C361.922 52.1209 361.592 52.0472 361.297 51.9891L360.387 51.7675C360.083 51.6937 359.759 51.6216 359.414 51.5511C359.003 52.0275 358.655 52.854 358.369 54.0306C358.018 55.4729 357.766 56.3699 357.614 56.7214C357.464 57.0603 357.329 57.5633 357.207 58.2304C357.088 58.8849 356.661 59.1229 355.927 58.9444C355.383 58.8121 355.047 58.6232 354.92 58.3777C354.807 58.1226 354.817 57.723 354.95 57.179C355.021 56.888 355.37 55.921 355.997 54.2779C356.298 53.4801 356.672 52.3851 357.118 50.9926C356.326 50.7198 355.115 50.3849 353.483 49.988C353.204 49.9203 352.816 49.8928 352.317 49.9054C351.796 49.8993 351.459 49.8778 351.307 49.8409C350.966 49.7578 350.687 49.5559 350.47 49.2351C350.269 48.9048 350.21 48.5689 350.293 48.2273C350.354 47.9742 350.507 47.7301 350.752 47.4948C351.013 47.25 351.257 47.1552 351.485 47.2106C351.928 47.3183 352.379 47.4749 352.838 47.6804C353.31 47.889 353.666 48.0225 353.906 48.0809L357.767 48.8189C358.036 48.375 358.232 47.9001 358.355 47.394C358.521 46.7108 358.753 45.5345 359.052 43.8651C359.168 43.1696 359.285 42.5751 359.405 42.0817C359.51 41.6515 359.741 41.2521 360.099 40.8835C360.469 40.5179 360.85 40.3828 361.243 40.4782C361.445 40.5275 361.616 40.7901 361.755 41.266C361.906 41.7451 361.954 42.0985 361.899 42.3262C361.739 42.9841 361.468 43.8496 361.086 44.9227C360.705 45.9957 360.465 46.7346 360.366 47.1395C360.209 47.7848 360.09 48.4392 360.009 49.103C360.241 49.2531 360.97 49.4773 362.198 49.7758L366.562 50.7569C367.739 51.043 368.467 51.3542 368.747 51.6903C369.027 52.0264 369.056 52.6499 368.835 53.5609Z" fill="white"/>
<path d="M382.255 69.4174C380.286 68.7367 378.87 67.1521 378.008 64.6636C377.159 62.1794 377.098 59.8851 377.825 57.7807C378.685 55.2949 380.422 52.72 383.038 50.056C385.653 47.392 388.526 45.4782 391.656 44.3147C394.791 43.1389 397.675 43.0062 400.308 43.9167C402.326 44.6144 403.919 45.4474 405.086 46.4157C406.257 47.3717 407.216 48.5024 407.964 49.8078C408.711 51.1132 409.093 52.3199 409.109 53.4277C409.126 54.5356 408.828 55.9756 408.215 57.7477C407.637 59.4213 406.456 61.2036 404.672 63.0944C402.889 64.9853 400.558 66.625 397.681 68.0137C394.816 69.4067 392.266 70.2472 390.031 70.5353C387.8 70.8111 385.208 70.4385 382.255 69.4174ZM381.261 58.7825C380.669 60.493 380.713 62.12 381.392 63.6635C382.071 65.207 383.124 66.2255 384.551 66.719C388.268 68.0039 392.274 67.4739 396.57 65.1292C400.867 62.7845 403.678 59.6924 405.006 55.8528C405.512 54.3884 405.621 53.1378 405.332 52.101C405.059 51.0562 404.391 50.0193 403.328 48.9904C402.269 47.9492 400.952 47.1563 399.376 46.6117C396.62 45.6587 393.21 46.5741 389.148 49.3579C385.098 52.146 382.469 55.2875 381.261 58.7825Z" fill="white"/>
<path d="M426.413 63.9704C427.679 64.424 428.883 64.8278 430.022 65.1818C431.145 65.5423 432.063 65.8824 432.776 66.202C433.679 66.6068 434.212 66.9456 434.375 67.2185C434.538 67.4914 434.526 67.8357 434.34 68.2516C433.908 69.214 433.003 69.4358 431.623 68.9171C429.852 68.2517 428.199 67.6892 426.664 67.2295C425.13 66.7698 424.274 66.5786 424.096 66.6561C423.936 66.7269 422.946 67.9811 421.125 70.4184C419.31 72.8439 418.222 74.4606 417.859 75.2686C417.274 76.5755 417.054 77.5261 417.202 78.1201C417.355 78.7023 417.776 79.1479 418.465 79.4568C419.487 79.9149 421.25 79.785 423.755 79.0672C424.738 78.7518 425.42 78.6793 425.8 78.8497C426.311 79.0787 426.444 79.4665 426.199 80.0131C425.816 80.8686 424.492 81.6093 422.228 82.2353C419.981 82.8548 417.996 82.7784 416.273 82.006C413.398 80.7171 412.719 78.3794 414.237 74.9932C414.786 73.7694 415.932 72.0074 417.677 69.7073C419.404 67.4138 420.383 66.0116 420.612 65.5007C420.691 65.3224 420.589 65.1694 420.304 65.0416L418.378 64.3711C416.857 63.6893 416.369 62.7424 416.912 61.5305C417.221 60.8414 417.726 60.6539 418.427 60.9682L422.098 62.614C422.348 62.7259 422.618 62.7116 422.909 62.571C423.201 62.4305 423.818 61.8012 424.762 60.6831C425.711 59.5531 426.61 58.4223 427.46 57.2907C428.304 56.171 429.142 55.7975 429.974 56.1704C430.485 56.3994 430.803 56.7561 430.928 57.2403C431.054 57.7246 431.047 58.1212 430.909 58.4302C430.834 58.5965 430.239 59.3502 429.125 60.6911L426.413 63.9704Z" fill="white"/>
<path d="M438.422 85.109C446.962 79.581 452.608 77.5692 455.362 79.0737C456.093 79.4732 456.46 80.2149 456.461 81.2987C456.463 82.3826 455.823 84.4366 454.541 87.4608C453.16 90.6679 452.601 93.226 452.864 95.1351C452.997 96.113 452.973 96.7677 452.792 97.0991C452.63 97.3962 452.309 97.5768 451.829 97.6409C451.349 97.705 450.914 97.631 450.526 97.4187C449.634 96.9318 449.118 96.004 448.975 94.6353C448.839 93.2552 449.36 91.2551 450.539 88.6351C451.644 86.1522 452.287 84.4858 452.469 83.6358C452.652 82.7859 452.491 82.2236 451.989 81.9489C450.789 81.2935 446.658 83.1099 439.598 87.3981C437.488 88.679 436.017 89.4705 435.185 89.7723C434.358 90.0627 433.734 90.0925 433.311 89.8615C432.808 89.5868 432.467 89.2073 432.286 88.7229C432.106 88.2386 432.134 87.7793 432.371 87.345C432.546 87.0251 432.975 86.458 433.657 85.6437C439.026 79.1555 444.055 72.5849 448.743 65.9321C449.831 64.3751 450.725 63.4316 451.424 63.1016C452.135 62.7778 452.628 62.6908 452.902 62.8407C453.393 63.1091 453.73 63.5525 453.911 64.1709C454.093 64.7894 453.99 65.4528 453.603 66.1613C452.454 68.2638 450.364 70.8682 447.332 73.9744C445.836 75.5166 444.044 77.5345 441.955 80.0282C439.865 82.5219 438.64 84.1001 438.278 84.7629C438.203 84.9 438.228 85.0029 438.354 85.0716L438.422 85.109Z" fill="white"/>
<path d="M477.272 107.623C476.543 108.733 474.678 109.425 471.679 109.697C468.691 109.977 466.152 109.43 464.063 108.057C462.311 106.906 461.296 105.498 461.017 103.835C460.75 102.179 461.224 100.427 462.44 98.5768C464.485 95.4648 467.481 93.1952 471.426 91.7681C475.371 90.3409 478.589 90.4461 481.081 92.0838C481.897 92.6201 482.386 93.3229 482.547 94.1922C482.719 95.0687 482.558 95.8823 482.064 96.6331C480.963 98.3088 479.087 99.3739 476.435 99.8283C473.784 100.283 470.595 100.345 466.87 100.016C466.111 99.9377 465.578 100.133 465.27 100.6C464.677 101.504 464.462 102.399 464.627 103.286C464.792 104.174 465.386 104.953 466.408 105.626C468.748 107.163 471.987 107.438 476.127 106.45C476.722 106.327 477.112 106.326 477.297 106.448C477.645 106.677 477.637 107.068 477.272 107.623ZM467.602 97.622C474.018 97.9121 477.772 97.2247 478.867 95.5599C479.296 94.907 479.216 94.3875 478.629 94.0013C477.628 93.3434 476.013 93.3341 473.786 93.9735C471.569 94.6201 469.508 95.8363 467.602 97.622Z" fill="white"/>
<path d="M488.958 114.773C489.204 114.667 489.526 114.504 489.925 114.285C491.865 113.215 493.479 112.452 494.766 111.996C496.061 111.53 497.38 111.149 498.725 110.853C500.08 110.565 501.214 110.426 502.125 110.437C503.047 110.456 503.809 110.566 504.41 110.766C505.02 110.956 505.547 111.221 505.991 111.563C506.888 112.253 507.411 113.091 507.558 114.074C507.712 115.048 507.512 115.895 506.956 116.618C506.71 116.938 506.385 117.147 505.98 117.247C505.585 117.354 505.182 117.249 504.769 116.931C504.335 116.598 504.085 116.101 504.017 115.441C503.94 114.774 503.699 114.285 503.297 113.975C502.224 113.15 499.737 113.307 495.837 114.447C491.938 115.587 488.579 117.561 485.76 120.371C485.038 121.097 484.433 121.477 483.946 121.513C483.458 121.549 482.951 121.364 482.425 120.959C481.919 120.57 481.843 119.912 482.195 118.984C482.548 118.056 483.411 116.699 484.784 114.913C485.157 114.428 486.005 113.38 487.327 111.768C488.889 109.865 490.224 108.387 491.33 107.333C491.512 107.16 491.917 106.741 492.545 106.074C493.228 105.335 493.741 104.85 494.082 104.62C494.434 104.398 494.878 104.279 495.415 104.265C495.962 104.259 496.431 104.406 496.824 104.708C497.205 105.002 497.394 105.344 497.389 105.735C497.403 106.123 497.302 106.456 497.088 106.735C496.778 107.137 496.238 107.626 495.468 108.2C494.604 108.832 494.032 109.288 493.752 109.565C493.451 109.893 493.113 110.215 492.737 110.534C492.292 110.898 491.292 111.985 489.736 113.794L489.279 114.355L488.958 114.773Z" fill="white"/>
<path d="M511.705 137.797C512.266 137.164 512.124 135.752 511.28 133.562C510.197 130.796 509.573 128.8 509.405 127.575C509.256 126.348 509.514 125.359 510.179 124.608C511.895 122.667 514.289 121.916 517.36 122.356C520.441 122.804 522.596 123.571 523.824 124.658C524.614 125.357 525.064 125.998 525.174 126.582C525.293 127.174 525.055 127.807 524.459 128.48C524.192 128.782 523.832 128.924 523.379 128.906C522.935 128.896 522.64 128.826 522.494 128.697C522.387 128.602 522.242 128.343 522.059 127.921C521.868 127.508 521.724 127.259 521.626 127.173C521.138 126.741 519.834 126.222 517.712 125.614C515.59 125.005 514.132 125.15 513.338 126.047C512.855 126.593 512.678 127.324 512.808 128.238C512.947 129.143 513.414 130.521 514.21 132.372C514.846 133.874 515.223 135.216 515.342 136.399C515.478 137.58 515.189 138.576 514.473 139.385C513.153 140.877 511.088 141.137 508.28 140.166C505.48 139.184 503.144 137.865 501.272 136.208C499.692 134.81 499.377 133.575 500.326 132.503C500.654 132.132 501.071 132.014 501.577 132.149C502.093 132.293 502.532 132.524 502.892 132.844C503.039 132.973 503.274 133.268 503.597 133.728C503.91 134.179 504.131 134.46 504.257 134.573C505.34 135.53 506.66 136.377 508.218 137.111C509.776 137.846 510.938 138.075 511.705 137.797Z" fill="white"/>
</svg>
