<svg width="1150" height="22" viewBox="0 0 1150 22" fill="none" xmlns="http://www.w3.org/2000/svg">
<path d="M0 12.5C0 13.8807 1.11929 15 2.5 15H1147.5C1148.88 15 1150 13.8807 1150 12.5V12.5C1150 11.1193 1148.88 10 1147.5 10H1002.42H803.722H589.056H392.278H165.472H2.5C1.11929 10 0 11.1193 0 12.5V12.5Z" fill="url(#paint0_linear_40_29)"/>
<path d="M0 12.5C0 13.8807 1.11929 15 2.5 15H1147.5C1148.88 15 1150 13.8807 1150 12.5V12.5C1150 11.1193 1148.88 10 1147.5 10H1002.42H803.722H589.056H392.278H165.472H2.5C1.11929 10 0 11.1193 0 12.5V12.5Z" fill="url(#paint1_linear_40_29)"/>
<path d="M548.215 12.7246C548.573 12.6351 548.936 12.5415 549.302 12.4438C549.676 12.3462 550.022 12.2485 550.339 12.1509C550.209 11.7521 550.075 11.3371 549.937 10.9058C549.798 10.4744 549.652 10.0472 549.497 9.62402C549.351 9.19271 549.2 8.77767 549.045 8.37891C548.891 7.97201 548.728 7.60173 548.557 7.26807C547.865 8.21208 547.17 9.20492 546.47 10.2466C545.778 11.2882 545.119 12.3503 544.492 13.4326C544.736 13.4082 544.993 13.3919 545.261 13.3838C545.53 13.3675 545.745 13.335 545.908 13.2861C546.128 13.221 546.323 13.1641 546.494 13.1152C546.673 13.0664 546.848 13.0216 547.019 12.981C547.198 12.9403 547.381 12.8996 547.568 12.8589C547.756 12.8182 547.971 12.7734 548.215 12.7246ZM556.37 18.877C556.37 19.0804 556.329 19.2716 556.248 19.4507C556.174 19.6297 556.069 19.7884 555.93 19.9268C555.8 20.057 555.637 20.1628 555.442 20.2441C555.255 20.3255 555.051 20.3662 554.832 20.3662C554.628 20.3662 554.429 20.3011 554.233 20.1709C554.038 20.0407 553.847 19.8739 553.66 19.6704C553.481 19.467 553.306 19.2391 553.135 18.9868C552.972 18.7264 552.821 18.466 552.683 18.2056C552.553 17.9451 552.435 17.6969 552.329 17.4609C552.223 17.2249 552.138 17.0296 552.073 16.875C551.983 16.6553 551.894 16.4518 551.804 16.2646C551.715 16.0775 551.621 15.8374 551.523 15.5444C551.466 15.3817 551.422 15.2596 551.389 15.1782C551.365 15.0968 551.34 15.0358 551.316 14.9951C551.3 14.9463 551.283 14.9097 551.267 14.8853C551.259 14.8527 551.247 14.8079 551.23 14.751C551.068 14.8242 550.893 14.869 550.706 14.8853C550.518 14.8934 550.311 14.8975 550.083 14.8975C550.042 14.8975 549.973 14.9137 549.875 14.9463C549.778 14.9707 549.664 15.0033 549.534 15.0439C549.412 15.0846 549.281 15.1294 549.143 15.1782C549.013 15.2189 548.887 15.2555 548.765 15.2881C548.374 15.3857 547.951 15.4793 547.495 15.5688C547.039 15.6584 546.563 15.7479 546.067 15.8374C545.57 15.9188 545.062 16.0042 544.541 16.0938C544.028 16.1751 543.512 16.2606 542.991 16.3501C542.934 16.3582 542.885 16.3745 542.844 16.3989C542.804 16.4233 542.747 16.4884 542.673 16.5942C542.6 16.6919 542.49 16.8465 542.344 17.0581C542.197 17.2697 541.99 17.5708 541.721 17.9614C541.412 18.409 541.119 18.7996 540.842 19.1333C540.566 19.4588 540.305 19.7396 540.061 19.9756C539.825 20.2116 539.573 20.3906 539.304 20.5127C539.044 20.6348 538.771 20.6958 538.486 20.6958C538.112 20.6958 537.778 20.647 537.485 20.5493C537.192 20.4598 536.944 20.3418 536.741 20.1953C536.545 20.0488 536.395 19.8901 536.289 19.7192C536.191 19.5483 536.143 19.3896 536.143 19.2432C536.143 18.9665 536.261 18.7752 536.497 18.6694C536.733 18.5555 537.058 18.4619 537.473 18.3887C537.473 18.3805 537.518 18.3195 537.607 18.2056C537.697 18.0916 537.803 17.9614 537.925 17.8149C538.047 17.6685 538.165 17.526 538.279 17.3877C538.401 17.2412 538.486 17.1313 538.535 17.0581C538.853 16.6187 539.182 16.1629 539.524 15.6909C539.874 15.2108 540.256 14.6615 540.671 14.043V14.0552C540.883 13.7459 541.054 13.4896 541.184 13.2861C541.322 13.0827 541.453 12.8914 541.575 12.7124C541.697 12.5334 541.823 12.3503 541.953 12.1631C542.091 11.9759 542.258 11.744 542.454 11.4673C542.958 10.7593 543.398 10.1611 543.772 9.67285C544.154 9.17643 544.468 8.76546 544.712 8.43994C545.005 7.98421 545.282 7.54883 545.542 7.13379C545.656 6.95475 545.766 6.77572 545.872 6.59668C545.977 6.40951 546.079 6.23047 546.177 6.05957C546.274 5.88867 546.36 5.72998 546.433 5.5835C546.514 5.42887 546.576 5.29867 546.616 5.19287C547.585 2.82471 548.415 1.64062 549.106 1.64062C549.408 1.64062 549.652 1.66504 549.839 1.71387C550.026 1.75456 550.168 1.83187 550.266 1.9458C550.372 2.0516 550.441 2.19401 550.474 2.37305C550.514 2.55208 550.535 2.77588 550.535 3.04443C550.535 3.29671 550.535 3.49609 550.535 3.64258C550.535 3.78092 550.531 3.90299 550.522 4.00879C550.514 4.11458 550.506 4.22038 550.498 4.32617C550.498 4.43197 550.49 4.57438 550.474 4.75342C550.669 5.16846 550.856 5.5957 551.035 6.03516C551.222 6.47461 551.397 6.90999 551.56 7.34131C551.593 7.43896 551.662 7.64648 551.768 7.96387C551.882 8.27311 552.012 8.63932 552.158 9.0625C552.313 9.48568 552.472 9.93327 552.634 10.4053C552.805 10.8773 552.96 11.3208 553.098 11.7358C553.245 12.1509 553.371 12.509 553.477 12.8101C553.582 13.1112 553.652 13.3024 553.684 13.3838C553.79 13.8395 554.087 14.5923 554.575 15.6421C554.64 15.7723 554.693 15.8862 554.734 15.9839C554.783 16.0815 554.836 16.1833 554.893 16.2891C554.958 16.3949 555.039 16.5169 555.137 16.6553C555.234 16.7936 555.365 16.9727 555.527 17.1924C556.089 17.9574 556.37 18.5189 556.37 18.877ZM576.677 11.1255C576.677 11.2801 576.632 11.451 576.543 11.6382C576.462 11.8172 576.311 12.0207 576.091 12.2485C575.88 12.4764 575.591 12.7327 575.225 13.0176C574.858 13.3024 574.39 13.632 573.821 14.0063C573.259 14.3726 572.584 14.7876 571.794 15.2515C571.005 15.7153 570.085 16.2402 569.036 16.8262C568.564 17.0866 568.161 17.3145 567.827 17.5098C567.502 17.7051 567.253 17.8597 567.083 17.9736C566.977 18.0387 566.847 18.1445 566.692 18.291C566.545 18.4375 566.37 18.6165 566.167 18.8281C565.858 19.1211 565.544 19.4222 565.227 19.7314C564.91 20.0407 564.584 20.3174 564.25 20.5615C563.917 20.8138 563.571 21.0173 563.213 21.1719C562.855 21.3346 562.476 21.416 562.078 21.416C561.63 21.416 561.264 21.3387 560.979 21.1841C560.702 21.0376 560.564 20.8057 560.564 20.4883C560.564 20.3255 560.629 20.1465 560.759 19.9512C560.889 19.7559 561.052 19.5605 561.248 19.3652C561.451 19.1618 561.675 18.9665 561.919 18.7793C562.163 18.584 562.399 18.4049 562.627 18.2422C562.863 18.0713 563.075 17.9248 563.262 17.8027C563.449 17.6807 563.587 17.5871 563.677 17.522C564.067 17.2778 564.373 17.0785 564.592 16.9238C564.82 16.7611 564.942 16.6715 564.958 16.6553C565.398 16.3379 565.797 16.0042 566.155 15.6543C566.521 15.2962 566.838 14.9422 567.107 14.5923C567.351 14.2749 567.534 13.9209 567.656 13.5303C567.778 13.1315 567.839 12.7124 567.839 12.2729C567.839 12.1346 567.815 11.9556 567.766 11.7358C567.725 11.508 567.664 11.2923 567.583 11.0889C567.502 10.8773 567.4 10.6982 567.278 10.5518C567.164 10.3971 567.034 10.3198 566.887 10.3198C566.521 10.3198 566.134 10.4541 565.728 10.7227C565.329 10.9912 564.934 11.3127 564.543 11.687C564.153 12.0614 563.762 12.4967 563.372 12.9932C562.989 13.4814 562.59 14.0186 562.175 14.6045C561.89 15.0195 561.667 15.402 561.504 15.752C561.341 16.0938 561.219 16.4071 561.138 16.6919C561.056 16.9767 561.003 17.2371 560.979 17.4731C560.955 17.7091 560.938 17.9207 560.93 18.1079C560.922 18.3276 560.873 18.5433 560.784 18.7549C560.694 18.9583 560.58 19.1414 560.442 19.3042C560.304 19.467 560.149 19.5972 559.978 19.6948C559.807 19.7925 559.632 19.8413 559.453 19.8413C558.94 19.8413 558.59 19.6785 558.403 19.353C558.216 19.0194 558.123 18.5107 558.123 17.8271C558.123 17.8027 558.127 17.701 558.135 17.522C558.143 17.3429 558.151 17.1273 558.159 16.875C558.167 16.6146 558.175 16.3379 558.184 16.0449C558.2 15.752 558.212 15.4793 558.22 15.2271C558.228 14.9748 558.236 14.7632 558.245 14.5923C558.253 14.4132 558.257 14.3156 558.257 14.2993C558.281 13.8192 558.31 13.3512 558.342 12.8955C558.383 12.4316 558.424 11.9596 558.464 11.4795C558.513 10.9993 558.562 10.507 558.611 10.0024C558.668 9.49788 558.733 8.96484 558.806 8.40332C558.944 7.33724 559.079 6.30371 559.209 5.30273C559.347 4.29362 559.543 3.31299 559.795 2.36084C559.811 2.2876 559.852 2.16146 559.917 1.98242C559.982 1.80339 560.068 1.62028 560.173 1.43311C560.287 1.23779 560.426 1.06689 560.588 0.92041C560.751 0.773926 560.934 0.700684 561.138 0.700684C561.52 0.700684 561.817 0.761719 562.029 0.883789C562.249 1.00586 562.407 1.15234 562.505 1.32324C562.611 1.49414 562.676 1.67318 562.7 1.86035C562.725 2.04753 562.737 2.21029 562.737 2.34863C562.737 2.47884 562.696 2.6945 562.615 2.99561C562.533 3.29671 562.436 3.71175 562.322 4.24072C562.135 5.0708 561.951 5.95378 561.772 6.88965C561.593 7.82552 561.447 8.74105 561.333 9.63623C561.309 9.81527 561.28 10.0391 561.248 10.3076C561.223 10.568 561.195 10.8447 561.162 11.1377C561.138 11.4307 561.109 11.7236 561.077 12.0166C561.052 12.3014 561.028 12.5618 561.003 12.7979C561.451 11.984 561.931 11.2598 562.444 10.625C562.965 9.9821 563.555 9.4165 564.214 8.92822C564.67 8.6027 565.133 8.35449 565.605 8.18359C566.086 8.00456 566.537 7.91504 566.96 7.91504C567.449 7.91504 567.909 8.03304 568.34 8.26904C568.779 8.50505 569.162 8.81429 569.487 9.19678C569.813 9.57113 570.069 9.9943 570.256 10.4663C570.444 10.9383 570.537 11.4062 570.537 11.8701C570.537 11.9515 570.525 12.0695 570.5 12.2241C570.484 12.3787 570.448 12.5496 570.391 12.7368C570.342 12.924 570.269 13.1193 570.171 13.3228C570.081 13.5181 569.963 13.7093 569.817 13.8965C570.509 13.4652 571.164 13.0461 571.782 12.6392C572.401 12.2323 573.027 11.8376 573.662 11.4551C573.971 11.2679 574.224 11.1051 574.419 10.9668C574.614 10.8285 574.789 10.7145 574.944 10.625C575.367 10.3646 575.66 10.2344 575.823 10.2344C576.132 10.2344 576.352 10.328 576.482 10.5151C576.612 10.7023 576.677 10.9058 576.677 11.1255ZM590.222 9.35547C590.222 9.51009 590.169 9.67692 590.063 9.85596C589.966 10.0269 589.836 10.2018 589.673 10.3809C589.518 10.5518 589.339 10.7227 589.136 10.8936C588.932 11.0645 588.729 11.2231 588.525 11.3696C588.322 11.508 588.127 11.63 587.939 11.7358C587.76 11.8416 587.61 11.923 587.488 11.98C587.268 12.0695 586.983 12.1549 586.633 12.2363C586.292 12.3096 585.929 12.3747 585.547 12.4316C585.173 12.4805 584.806 12.5212 584.448 12.5537C584.098 12.5863 583.801 12.6025 583.557 12.6025C583.5 12.6025 583.419 12.5985 583.313 12.5903C583.215 12.5741 583.105 12.5537 582.983 12.5293C582.869 12.5049 582.751 12.4764 582.629 12.4438C582.515 12.4032 582.418 12.3543 582.336 12.2974C582.426 12.4845 582.475 12.6921 582.483 12.9199C582.499 13.1396 582.507 13.3594 582.507 13.5791C582.507 13.7337 582.491 13.9168 582.458 14.1284C582.426 14.34 582.381 14.5557 582.324 14.7754C582.275 14.9951 582.214 15.2067 582.141 15.4102C582.068 15.6136 581.991 15.7845 581.909 15.9229C581.706 16.2728 581.486 16.5942 581.25 16.8872C581.022 17.1802 580.766 17.4528 580.481 17.7051C580.196 17.9574 579.875 18.1934 579.517 18.4131C579.159 18.6328 578.743 18.8485 578.271 19.0601C577.767 19.2798 577.262 19.4344 576.758 19.5239C576.253 19.6053 575.732 19.646 575.195 19.646C574.797 19.646 574.443 19.5443 574.133 19.3408C573.824 19.1292 573.564 18.8485 573.352 18.4985C573.14 18.1486 572.978 17.7458 572.864 17.29C572.758 16.8343 572.705 16.3582 572.705 15.8618C572.705 15.7397 572.713 15.5892 572.729 15.4102C572.754 15.223 572.782 15.0358 572.815 14.8486C572.856 14.6615 572.896 14.4784 572.937 14.2993C572.986 14.1203 573.031 13.9697 573.071 13.8477C573.185 13.5059 573.348 13.1152 573.56 12.6758C573.779 12.2363 574.036 11.7887 574.329 11.333C574.622 10.8691 574.947 10.4175 575.305 9.97803C575.663 9.53044 576.042 9.13574 576.44 8.79395C576.847 8.44401 577.266 8.16325 577.698 7.95166C578.137 7.74007 578.577 7.63428 579.016 7.63428C579.203 7.63428 579.354 7.65462 579.468 7.69531C579.582 7.72786 579.675 7.77669 579.749 7.8418C579.822 7.89876 579.887 7.96794 579.944 8.04932C580.009 8.12256 580.078 8.1958 580.151 8.26904C580.208 8.25277 580.265 8.24056 580.322 8.23242C580.387 8.22428 580.452 8.22021 580.518 8.22021C580.77 8.22021 581.018 8.31787 581.262 8.51318C581.506 8.7085 581.755 8.92415 582.007 9.16016C582.121 9.26595 582.235 9.37581 582.349 9.48975C582.471 9.59554 582.581 9.6932 582.678 9.78271C582.776 9.8641 582.861 9.93327 582.935 9.99023C583.016 10.0391 583.073 10.0635 583.105 10.0635C583.317 10.0635 583.545 10.0635 583.789 10.0635C584.041 10.0553 584.294 10.0472 584.546 10.0391C584.806 10.0228 585.055 10.0024 585.291 9.97803C585.535 9.95361 585.754 9.92513 585.95 9.89258C585.974 9.88444 586.08 9.86003 586.267 9.81934C586.454 9.77051 586.678 9.71354 586.938 9.64844C587.207 9.5752 587.496 9.49788 587.805 9.4165C588.114 9.33512 588.399 9.26188 588.66 9.19678C588.928 9.12354 589.156 9.06657 589.343 9.02588C589.539 8.97705 589.653 8.95264 589.685 8.95264C589.848 8.95264 589.978 8.97298 590.076 9.01367C590.173 9.05436 590.222 9.16829 590.222 9.35547ZM576.135 17.4976C576.794 17.4976 577.376 17.3226 577.881 16.9727C578.394 16.6227 578.825 16.1589 579.175 15.5811C579.525 14.9951 579.793 14.3319 579.98 13.5913C580.176 12.8426 580.278 12.0736 580.286 11.2842C580.229 11.1621 580.143 11.036 580.029 10.9058C579.924 10.7756 579.801 10.6616 579.663 10.564C579.525 10.4582 579.382 10.3727 579.236 10.3076C579.089 10.2425 578.955 10.21 578.833 10.21C578.638 10.21 578.426 10.2873 578.198 10.4419C577.97 10.5965 577.759 10.7552 577.563 10.918C577.368 11.0807 577.173 11.2964 576.978 11.5649C576.79 11.8254 576.615 12.1183 576.453 12.4438C576.29 12.7694 576.139 13.1152 576.001 13.4814C575.863 13.8395 575.745 14.1976 575.647 14.5557C575.549 14.9056 575.472 15.2474 575.415 15.5811C575.366 15.9147 575.342 16.2118 575.342 16.4722C575.342 16.6024 575.362 16.7285 575.403 16.8506C575.444 16.9727 575.496 17.0825 575.562 17.1802C575.635 17.2778 575.72 17.3551 575.818 17.4121C575.916 17.4691 576.021 17.4976 576.135 17.4976ZM608.467 10.21C608.467 10.6657 608.304 11.1702 607.979 11.7236C607.661 12.2689 607.242 12.8182 606.721 13.3716C606.208 13.925 605.631 14.4621 604.988 14.9829C604.353 15.5037 603.714 15.9676 603.071 16.3745C602.437 16.7733 601.834 17.0947 601.265 17.3389C600.695 17.583 600.223 17.7051 599.849 17.7051C599.328 17.7051 598.884 17.5952 598.518 17.3755C598.16 17.1476 597.859 16.8506 597.615 16.4844C597.379 16.11 597.192 15.6868 597.053 15.2148C596.915 14.7347 596.813 14.2424 596.748 13.7378C596.626 14.0308 596.463 14.3481 596.26 14.6899C596.056 15.0317 595.837 15.3695 595.601 15.7031C595.365 16.0368 595.125 16.3542 594.88 16.6553C594.644 16.9482 594.425 17.2005 594.221 17.4121C593.936 17.7132 593.623 18.0062 593.281 18.291C592.939 18.5677 592.573 18.8118 592.183 19.0234C591.792 19.235 591.377 19.4059 590.938 19.5361C590.506 19.6582 590.055 19.7192 589.583 19.7192C589.184 19.7192 588.83 19.6379 588.521 19.4751C588.219 19.3042 587.967 19.0845 587.764 18.8159C587.56 18.5474 587.406 18.2422 587.3 17.9004C587.202 17.5505 587.153 17.2005 587.153 16.8506C587.153 16.5413 587.178 16.224 587.227 15.8984C587.284 15.5648 587.345 15.2311 587.41 14.8975C587.475 14.5557 587.536 14.222 587.593 13.8965C587.658 13.5628 587.703 13.2414 587.727 12.9321C587.743 12.6961 587.76 12.4438 587.776 12.1753C587.792 11.9067 587.808 11.6382 587.825 11.3696C587.841 11.0929 587.861 10.8203 587.886 10.5518C587.918 10.2751 587.955 10.0187 587.996 9.78271C588.028 9.61182 588.073 9.44906 588.13 9.29443C588.195 9.13981 588.285 9.00553 588.398 8.8916C588.512 8.76953 588.655 8.67594 588.826 8.61084C589.005 8.5376 589.22 8.50098 589.473 8.50098C589.985 8.50098 590.343 8.6556 590.547 8.96484C590.758 9.26595 590.864 9.72575 590.864 10.3442C590.864 10.5314 590.852 10.7471 590.828 10.9912C590.803 11.2354 590.771 11.4917 590.73 11.7603C590.689 12.0207 590.64 12.2852 590.583 12.5537C590.535 12.8223 590.478 13.0786 590.413 13.3228C590.274 13.868 590.144 14.401 590.022 14.9219C589.9 15.4346 589.839 15.8944 589.839 16.3013C589.839 16.5617 589.884 16.7773 589.973 16.9482C590.071 17.1191 590.189 17.2046 590.327 17.2046C590.677 17.2046 591.039 17.0988 591.414 16.8872C591.796 16.6675 592.166 16.3989 592.524 16.0815C592.882 15.756 593.22 15.4061 593.538 15.0317C593.863 14.6493 594.14 14.2993 594.368 13.9819C594.579 13.689 594.791 13.3268 595.002 12.8955C595.222 12.4642 595.434 12.0125 595.637 11.5405C595.849 11.0604 596.052 10.5884 596.248 10.1245C596.443 9.65251 596.618 9.23747 596.772 8.87939C596.984 8.39925 597.228 8.02897 597.505 7.76855C597.782 7.50814 598.05 7.37793 598.311 7.37793C598.62 7.37793 598.848 7.43896 598.994 7.56104C599.141 7.68311 599.214 7.9069 599.214 8.23242C599.214 8.36263 599.198 8.56201 599.165 8.83057C599.132 9.09912 599.096 9.38395 599.055 9.68506C599.014 9.97803 598.978 10.2629 598.945 10.5396C598.913 10.8081 598.896 11.0116 598.896 11.1499C598.896 11.2801 598.896 11.4388 598.896 11.626C598.905 11.8132 598.913 12.0085 598.921 12.2119C598.929 12.4072 598.941 12.5985 598.958 12.7856C598.982 12.9728 599.006 13.1315 599.031 13.2617C599.063 13.4001 599.116 13.5791 599.189 13.7988C599.263 14.0186 599.352 14.2342 599.458 14.4458C599.572 14.6493 599.694 14.8283 599.824 14.9829C599.954 15.1294 600.093 15.2026 600.239 15.2026C600.662 15.2026 601.11 15.0928 601.582 14.873C602.062 14.6533 602.55 14.3685 603.047 14.0186C603.543 13.6605 604.04 13.2576 604.536 12.8101C605.041 12.3625 605.529 11.9149 606.001 11.4673C606.196 11.2801 606.388 11.0929 606.575 10.9058C606.77 10.7104 606.957 10.5396 607.136 10.3931C607.315 10.2384 607.482 10.1123 607.637 10.0146C607.791 9.91699 607.926 9.86816 608.04 9.86816C608.17 9.86816 608.271 9.90885 608.345 9.99023C608.426 10.0716 608.467 10.1449 608.467 10.21ZM615.652 8.8916C615.652 9.09505 615.591 9.26595 615.469 9.4043C615.355 9.53451 615.212 9.6403 615.042 9.72168C614.871 9.80306 614.688 9.8641 614.492 9.90479C614.297 9.93734 614.118 9.96175 613.955 9.97803C613.345 10.0187 612.734 10.0757 612.124 10.1489C611.514 10.214 610.96 10.2791 610.464 10.3442C609.976 10.4012 609.573 10.4541 609.255 10.5029C608.938 10.5436 608.767 10.564 608.743 10.564C608.686 10.7837 608.612 11.0604 608.523 11.394C608.442 11.7277 608.352 12.0898 608.254 12.4805C608.165 12.863 608.075 13.2576 607.986 13.6646C607.896 14.0633 607.811 14.4458 607.729 14.812C607.656 15.1782 607.595 15.5119 607.546 15.813C607.506 16.106 607.485 16.3379 607.485 16.5088C607.485 16.6471 607.498 16.8221 607.522 17.0337C607.555 17.2371 607.607 17.4365 607.681 17.6318C607.754 17.8271 607.852 17.998 607.974 18.1445C608.096 18.2829 608.25 18.3521 608.438 18.3521C608.568 18.3521 608.726 18.3236 608.914 18.2666C609.109 18.2096 609.32 18.1201 609.548 17.998C609.784 17.876 610.033 17.7214 610.293 17.5342C610.553 17.3389 610.814 17.1029 611.074 16.8262C611.156 16.7367 611.249 16.6431 611.355 16.5454C611.461 16.4478 611.575 16.3623 611.697 16.2891C611.819 16.2077 611.949 16.1426 612.087 16.0938C612.234 16.0368 612.384 16.0083 612.539 16.0083C612.783 16.0083 612.95 16.0612 613.04 16.167C613.129 16.2728 613.174 16.4071 613.174 16.5698C613.174 16.8953 613.08 17.1924 612.893 17.4609C612.706 17.7295 612.47 18.0306 612.185 18.3643C612.055 18.5189 611.847 18.7305 611.562 18.999C611.286 19.2594 610.952 19.5199 610.562 19.7803C610.179 20.0326 609.748 20.2523 609.268 20.4395C608.796 20.6348 608.295 20.7324 607.766 20.7324C607.253 20.7324 606.818 20.6632 606.46 20.5249C606.11 20.3947 605.817 20.2197 605.581 20C605.353 19.7884 605.174 19.5443 605.044 19.2676C604.914 18.9827 604.816 18.6938 604.751 18.4009C604.694 18.1079 604.657 17.819 604.641 17.5342C604.633 17.2493 604.629 16.993 604.629 16.7651C604.629 16.521 604.653 16.2402 604.702 15.9229C604.759 15.5973 604.824 15.2555 604.897 14.8975C604.971 14.5394 605.052 14.1732 605.142 13.7988C605.239 13.4163 605.325 13.0542 605.398 12.7124C605.471 12.3625 605.532 12.041 605.581 11.748C605.638 11.4551 605.667 11.2069 605.667 11.0034C605.667 10.9546 605.658 10.9098 605.642 10.8691C605.634 10.8285 605.605 10.7959 605.557 10.7715C605.508 10.7389 605.431 10.7186 605.325 10.7104C605.219 10.6942 605.072 10.686 604.885 10.686C604.674 10.686 604.446 10.682 604.202 10.6738C603.966 10.6576 603.746 10.6128 603.542 10.5396C603.339 10.4663 603.168 10.3524 603.03 10.1978C602.9 10.035 602.834 9.80713 602.834 9.51416C602.834 9.32699 602.863 9.17236 602.92 9.05029C602.985 8.92008 603.066 8.81836 603.164 8.74512C603.27 8.66374 603.388 8.60677 603.518 8.57422C603.656 8.54167 603.803 8.52132 603.958 8.51318L606.533 8.40332C606.582 8.3138 606.659 8.13883 606.765 7.87842C606.871 7.618 606.989 7.31283 607.119 6.96289C607.257 6.60482 607.396 6.2264 607.534 5.82764C607.673 5.42887 607.799 5.05452 607.913 4.70459C608.075 4.20003 608.283 3.83789 608.535 3.61816C608.787 3.39844 609.121 3.28857 609.536 3.28857C609.805 3.28857 610.012 3.3252 610.159 3.39844C610.305 3.46354 610.411 3.54899 610.476 3.65479C610.541 3.76058 610.578 3.88265 610.586 4.021C610.602 4.1512 610.61 4.27734 610.61 4.39941C610.61 4.43197 610.586 4.52555 610.537 4.68018C610.496 4.8348 610.439 5.02604 610.366 5.25391C610.293 5.47363 610.212 5.71777 610.122 5.98633C610.033 6.25488 609.939 6.52751 609.841 6.8042C609.752 7.07275 609.662 7.33317 609.573 7.58545C609.491 7.82959 609.422 8.04118 609.365 8.22021C609.463 8.21208 609.622 8.1958 609.841 8.17139C610.069 8.14697 610.33 8.12256 610.623 8.09814C610.916 8.06559 611.221 8.03711 611.538 8.0127C611.864 7.98014 612.165 7.95166 612.441 7.92725C612.726 7.89469 612.97 7.87028 613.174 7.854C613.385 7.83773 613.524 7.82959 613.589 7.82959C614.028 7.82959 614.382 7.854 614.651 7.90283C614.928 7.94352 615.139 8.00863 615.286 8.09814C615.432 8.18766 615.53 8.29753 615.579 8.42773C615.627 8.55794 615.652 8.71257 615.652 8.8916Z" fill="white"/>
<defs>
<linearGradient id="paint0_linear_40_29" x1="2.83531e-05" y1="12.5" x2="1150" y2="12.4956" gradientUnits="userSpaceOnUse">
<stop stop-color="#73F7FF"/>
<stop offset="0.391474" stop-color="#6391FF"/>
<stop offset="0.467267" stop-opacity="0"/>
<stop offset="0.536736" stop-opacity="0"/>
<stop offset="0.603012" stop-color="#5A5AFF"/>
<stop offset="1" stop-color="#E338FF"/>
</linearGradient>
<linearGradient id="paint1_linear_40_29" x1="2.83531e-05" y1="12.5" x2="1150" y2="12.4956" gradientUnits="userSpaceOnUse">
<stop stop-color="#73F7FF"/>
<stop offset="0.391474" stop-color="#6391FF"/>
<stop offset="0.467267" stop-opacity="0"/>
<stop offset="0.536736" stop-opacity="0"/>
<stop offset="0.603012" stop-color="#5A5AFF"/>
<stop offset="1" stop-color="#E338FF"/>
</linearGradient>
</defs>
</svg>
