<svg width="1190" height="62" viewBox="0 0 1190 62" fill="none" xmlns="http://www.w3.org/2000/svg">
<g filter="url(#filter0_d_40_29)">
<path d="M15 22.5C15 23.8807 16.1193 25 17.5 25H1162.5C1163.88 25 1165 23.8807 1165 22.5V22.5C1165 21.1193 1163.88 20 1162.5 20H1017.42H818.722H604.056H407.278H180.472H17.5C16.1193 20 15 21.1193 15 22.5V22.5Z" fill="url(#paint0_linear_40_29)"/>
<path d="M15 22.5C15 23.8807 16.1193 25 17.5 25H1162.5C1163.88 25 1165 23.8807 1165 22.5V22.5C1165 21.1193 1163.88 20 1162.5 20H1017.42H818.722H604.056H407.278H180.472H17.5C16.1193 20 15 21.1193 15 22.5V22.5Z" fill="url(#paint1_linear_40_29)"/>
<path d="M563.215 22.7246C563.573 22.6351 563.936 22.5415 564.302 22.4438C564.676 22.3462 565.022 22.2485 565.339 22.1509C565.209 21.7521 565.075 21.3371 564.937 20.9058C564.798 20.4744 564.652 20.0472 564.497 19.624C564.351 19.1927 564.2 18.7777 564.045 18.3789C563.891 17.972 563.728 17.6017 563.557 17.2681C562.865 18.2121 562.17 19.2049 561.47 20.2466C560.778 21.2882 560.119 22.3503 559.492 23.4326C559.736 23.4082 559.993 23.3919 560.261 23.3838C560.53 23.3675 560.745 23.335 560.908 23.2861C561.128 23.221 561.323 23.1641 561.494 23.1152C561.673 23.0664 561.848 23.0216 562.019 22.981C562.198 22.9403 562.381 22.8996 562.568 22.8589C562.756 22.8182 562.971 22.7734 563.215 22.7246ZM571.37 28.877C571.37 29.0804 571.329 29.2716 571.248 29.4507C571.174 29.6297 571.069 29.7884 570.93 29.9268C570.8 30.057 570.637 30.1628 570.442 30.2441C570.255 30.3255 570.051 30.3662 569.832 30.3662C569.628 30.3662 569.429 30.3011 569.233 30.1709C569.038 30.0407 568.847 29.8739 568.66 29.6704C568.481 29.467 568.306 29.2391 568.135 28.9868C567.972 28.7264 567.821 28.466 567.683 28.2056C567.553 27.9451 567.435 27.6969 567.329 27.4609C567.223 27.2249 567.138 27.0296 567.073 26.875C566.983 26.6553 566.894 26.4518 566.804 26.2646C566.715 26.0775 566.621 25.8374 566.523 25.5444C566.466 25.3817 566.422 25.2596 566.389 25.1782C566.365 25.0968 566.34 25.0358 566.316 24.9951C566.3 24.9463 566.283 24.9097 566.267 24.8853C566.259 24.8527 566.247 24.8079 566.23 24.751C566.068 24.8242 565.893 24.869 565.706 24.8853C565.518 24.8934 565.311 24.8975 565.083 24.8975C565.042 24.8975 564.973 24.9137 564.875 24.9463C564.778 24.9707 564.664 25.0033 564.534 25.0439C564.412 25.0846 564.281 25.1294 564.143 25.1782C564.013 25.2189 563.887 25.2555 563.765 25.2881C563.374 25.3857 562.951 25.4793 562.495 25.5688C562.039 25.6584 561.563 25.7479 561.067 25.8374C560.57 25.9188 560.062 26.0042 559.541 26.0938C559.028 26.1751 558.512 26.2606 557.991 26.3501C557.934 26.3582 557.885 26.3745 557.844 26.3989C557.804 26.4233 557.747 26.4884 557.673 26.5942C557.6 26.6919 557.49 26.8465 557.344 27.0581C557.197 27.2697 556.99 27.5708 556.721 27.9614C556.412 28.409 556.119 28.7996 555.842 29.1333C555.566 29.4588 555.305 29.7396 555.061 29.9756C554.825 30.2116 554.573 30.3906 554.304 30.5127C554.044 30.6348 553.771 30.6958 553.486 30.6958C553.112 30.6958 552.778 30.647 552.485 30.5493C552.192 30.4598 551.944 30.3418 551.741 30.1953C551.545 30.0488 551.395 29.8901 551.289 29.7192C551.191 29.5483 551.143 29.3896 551.143 29.2432C551.143 28.9665 551.261 28.7752 551.497 28.6694C551.733 28.5555 552.058 28.4619 552.473 28.3887C552.473 28.3805 552.518 28.3195 552.607 28.2056C552.697 28.0916 552.803 27.9614 552.925 27.8149C553.047 27.6685 553.165 27.526 553.279 27.3877C553.401 27.2412 553.486 27.1313 553.535 27.0581C553.853 26.6187 554.182 26.1629 554.524 25.6909C554.874 25.2108 555.256 24.6615 555.671 24.043V24.0552C555.883 23.7459 556.054 23.4896 556.184 23.2861C556.322 23.0827 556.453 22.8914 556.575 22.7124C556.697 22.5334 556.823 22.3503 556.953 22.1631C557.091 21.9759 557.258 21.744 557.454 21.4673C557.958 20.7593 558.398 20.1611 558.772 19.6729C559.154 19.1764 559.468 18.7655 559.712 18.4399C560.005 17.9842 560.282 17.5488 560.542 17.1338C560.656 16.9548 560.766 16.7757 560.872 16.5967C560.977 16.4095 561.079 16.2305 561.177 16.0596C561.274 15.8887 561.36 15.73 561.433 15.5835C561.514 15.4289 561.576 15.2987 561.616 15.1929C562.585 12.8247 563.415 11.6406 564.106 11.6406C564.408 11.6406 564.652 11.665 564.839 11.7139C565.026 11.7546 565.168 11.8319 565.266 11.9458C565.372 12.0516 565.441 12.194 565.474 12.373C565.514 12.5521 565.535 12.7759 565.535 13.0444C565.535 13.2967 565.535 13.4961 565.535 13.6426C565.535 13.7809 565.531 13.903 565.522 14.0088C565.514 14.1146 565.506 14.2204 565.498 14.3262C565.498 14.432 565.49 14.5744 565.474 14.7534C565.669 15.1685 565.856 15.5957 566.035 16.0352C566.222 16.4746 566.397 16.91 566.56 17.3413C566.593 17.439 566.662 17.6465 566.768 17.9639C566.882 18.2731 567.012 18.6393 567.158 19.0625C567.313 19.4857 567.472 19.9333 567.634 20.4053C567.805 20.8773 567.96 21.3208 568.098 21.7358C568.245 22.1509 568.371 22.509 568.477 22.8101C568.582 23.1112 568.652 23.3024 568.684 23.3838C568.79 23.8395 569.087 24.5923 569.575 25.6421C569.64 25.7723 569.693 25.8862 569.734 25.9839C569.783 26.0815 569.836 26.1833 569.893 26.2891C569.958 26.3949 570.039 26.5169 570.137 26.6553C570.234 26.7936 570.365 26.9727 570.527 27.1924C571.089 27.9574 571.37 28.5189 571.37 28.877ZM591.677 21.1255C591.677 21.2801 591.632 21.451 591.543 21.6382C591.462 21.8172 591.311 22.0207 591.091 22.2485C590.88 22.4764 590.591 22.7327 590.225 23.0176C589.858 23.3024 589.39 23.632 588.821 24.0063C588.259 24.3726 587.584 24.7876 586.794 25.2515C586.005 25.7153 585.085 26.2402 584.036 26.8262C583.564 27.0866 583.161 27.3145 582.827 27.5098C582.502 27.7051 582.253 27.8597 582.083 27.9736C581.977 28.0387 581.847 28.1445 581.692 28.291C581.545 28.4375 581.37 28.6165 581.167 28.8281C580.858 29.1211 580.544 29.4222 580.227 29.7314C579.91 30.0407 579.584 30.3174 579.25 30.5615C578.917 30.8138 578.571 31.0173 578.213 31.1719C577.855 31.3346 577.476 31.416 577.078 31.416C576.63 31.416 576.264 31.3387 575.979 31.1841C575.702 31.0376 575.564 30.8057 575.564 30.4883C575.564 30.3255 575.629 30.1465 575.759 29.9512C575.889 29.7559 576.052 29.5605 576.248 29.3652C576.451 29.1618 576.675 28.9665 576.919 28.7793C577.163 28.584 577.399 28.4049 577.627 28.2422C577.863 28.0713 578.075 27.9248 578.262 27.8027C578.449 27.6807 578.587 27.5871 578.677 27.522C579.067 27.2778 579.373 27.0785 579.592 26.9238C579.82 26.7611 579.942 26.6715 579.958 26.6553C580.398 26.3379 580.797 26.0042 581.155 25.6543C581.521 25.2962 581.838 24.9422 582.107 24.5923C582.351 24.2749 582.534 23.9209 582.656 23.5303C582.778 23.1315 582.839 22.7124 582.839 22.2729C582.839 22.1346 582.815 21.9556 582.766 21.7358C582.725 21.508 582.664 21.2923 582.583 21.0889C582.502 20.8773 582.4 20.6982 582.278 20.5518C582.164 20.3971 582.034 20.3198 581.887 20.3198C581.521 20.3198 581.134 20.4541 580.728 20.7227C580.329 20.9912 579.934 21.3127 579.543 21.687C579.153 22.0614 578.762 22.4967 578.372 22.9932C577.989 23.4814 577.59 24.0186 577.175 24.6045C576.89 25.0195 576.667 25.402 576.504 25.752C576.341 26.0938 576.219 26.4071 576.138 26.6919C576.056 26.9767 576.003 27.2371 575.979 27.4731C575.955 27.7091 575.938 27.9207 575.93 28.1079C575.922 28.3276 575.873 28.5433 575.784 28.7549C575.694 28.9583 575.58 29.1414 575.442 29.3042C575.304 29.467 575.149 29.5972 574.978 29.6948C574.807 29.7925 574.632 29.8413 574.453 29.8413C573.94 29.8413 573.59 29.6785 573.403 29.353C573.216 29.0194 573.123 28.5107 573.123 27.8271C573.123 27.8027 573.127 27.701 573.135 27.522C573.143 27.3429 573.151 27.1273 573.159 26.875C573.167 26.6146 573.175 26.3379 573.184 26.0449C573.2 25.752 573.212 25.4793 573.22 25.2271C573.228 24.9748 573.236 24.7632 573.245 24.5923C573.253 24.4132 573.257 24.3156 573.257 24.2993C573.281 23.8192 573.31 23.3512 573.342 22.8955C573.383 22.4316 573.424 21.9596 573.464 21.4795C573.513 20.9993 573.562 20.507 573.611 20.0024C573.668 19.4979 573.733 18.9648 573.806 18.4033C573.944 17.3372 574.079 16.3037 574.209 15.3027C574.347 14.2936 574.543 13.313 574.795 12.3608C574.811 12.2876 574.852 12.1615 574.917 11.9824C574.982 11.8034 575.068 11.6203 575.173 11.4331C575.287 11.2378 575.426 11.0669 575.588 10.9204C575.751 10.7739 575.934 10.7007 576.138 10.7007C576.52 10.7007 576.817 10.7617 577.029 10.8838C577.249 11.0059 577.407 11.1523 577.505 11.3232C577.611 11.4941 577.676 11.6732 577.7 11.8604C577.725 12.0475 577.737 12.2103 577.737 12.3486C577.737 12.4788 577.696 12.6945 577.615 12.9956C577.533 13.2967 577.436 13.7118 577.322 14.2407C577.135 15.0708 576.951 15.9538 576.772 16.8896C576.593 17.8255 576.447 18.741 576.333 19.6362C576.309 19.8153 576.28 20.0391 576.248 20.3076C576.223 20.568 576.195 20.8447 576.162 21.1377C576.138 21.4307 576.109 21.7236 576.077 22.0166C576.052 22.3014 576.028 22.5618 576.003 22.7979C576.451 21.984 576.931 21.2598 577.444 20.625C577.965 19.9821 578.555 19.4165 579.214 18.9282C579.67 18.6027 580.133 18.3545 580.605 18.1836C581.086 18.0046 581.537 17.915 581.96 17.915C582.449 17.915 582.909 18.033 583.34 18.269C583.779 18.505 584.162 18.8143 584.487 19.1968C584.813 19.5711 585.069 19.9943 585.256 20.4663C585.444 20.9383 585.537 21.4062 585.537 21.8701C585.537 21.9515 585.525 22.0695 585.5 22.2241C585.484 22.3787 585.448 22.5496 585.391 22.7368C585.342 22.924 585.269 23.1193 585.171 23.3228C585.081 23.5181 584.963 23.7093 584.817 23.8965C585.509 23.4652 586.164 23.0461 586.782 22.6392C587.401 22.2323 588.027 21.8376 588.662 21.4551C588.971 21.2679 589.224 21.1051 589.419 20.9668C589.614 20.8285 589.789 20.7145 589.944 20.625C590.367 20.3646 590.66 20.2344 590.823 20.2344C591.132 20.2344 591.352 20.328 591.482 20.5151C591.612 20.7023 591.677 20.9058 591.677 21.1255ZM605.222 19.3555C605.222 19.5101 605.169 19.6769 605.063 19.856C604.966 20.0269 604.836 20.2018 604.673 20.3809C604.518 20.5518 604.339 20.7227 604.136 20.8936C603.932 21.0645 603.729 21.2231 603.525 21.3696C603.322 21.508 603.127 21.63 602.939 21.7358C602.76 21.8416 602.61 21.923 602.488 21.98C602.268 22.0695 601.983 22.1549 601.633 22.2363C601.292 22.3096 600.929 22.3747 600.547 22.4316C600.173 22.4805 599.806 22.5212 599.448 22.5537C599.098 22.5863 598.801 22.6025 598.557 22.6025C598.5 22.6025 598.419 22.5985 598.313 22.5903C598.215 22.5741 598.105 22.5537 597.983 22.5293C597.869 22.5049 597.751 22.4764 597.629 22.4438C597.515 22.4032 597.418 22.3543 597.336 22.2974C597.426 22.4845 597.475 22.6921 597.483 22.9199C597.499 23.1396 597.507 23.3594 597.507 23.5791C597.507 23.7337 597.491 23.9168 597.458 24.1284C597.426 24.34 597.381 24.5557 597.324 24.7754C597.275 24.9951 597.214 25.2067 597.141 25.4102C597.068 25.6136 596.991 25.7845 596.909 25.9229C596.706 26.2728 596.486 26.5942 596.25 26.8872C596.022 27.1802 595.766 27.4528 595.481 27.7051C595.196 27.9574 594.875 28.1934 594.517 28.4131C594.159 28.6328 593.743 28.8485 593.271 29.0601C592.767 29.2798 592.262 29.4344 591.758 29.5239C591.253 29.6053 590.732 29.646 590.195 29.646C589.797 29.646 589.443 29.5443 589.133 29.3408C588.824 29.1292 588.564 28.8485 588.352 28.4985C588.14 28.1486 587.978 27.7458 587.864 27.29C587.758 26.8343 587.705 26.3582 587.705 25.8618C587.705 25.7397 587.713 25.5892 587.729 25.4102C587.754 25.223 587.782 25.0358 587.815 24.8486C587.856 24.6615 587.896 24.4784 587.937 24.2993C587.986 24.1203 588.031 23.9697 588.071 23.8477C588.185 23.5059 588.348 23.1152 588.56 22.6758C588.779 22.2363 589.036 21.7887 589.329 21.333C589.622 20.8691 589.947 20.4175 590.305 19.978C590.663 19.5304 591.042 19.1357 591.44 18.7939C591.847 18.444 592.266 18.1632 592.698 17.9517C593.137 17.7401 593.577 17.6343 594.016 17.6343C594.203 17.6343 594.354 17.6546 594.468 17.6953C594.582 17.7279 594.675 17.7767 594.749 17.8418C594.822 17.8988 594.887 17.9679 594.944 18.0493C595.009 18.1226 595.078 18.1958 595.151 18.269C595.208 18.2528 595.265 18.2406 595.322 18.2324C595.387 18.2243 595.452 18.2202 595.518 18.2202C595.77 18.2202 596.018 18.3179 596.262 18.5132C596.506 18.7085 596.755 18.9242 597.007 19.1602C597.121 19.266 597.235 19.3758 597.349 19.4897C597.471 19.5955 597.581 19.6932 597.678 19.7827C597.776 19.8641 597.861 19.9333 597.935 19.9902C598.016 20.0391 598.073 20.0635 598.105 20.0635C598.317 20.0635 598.545 20.0635 598.789 20.0635C599.041 20.0553 599.294 20.0472 599.546 20.0391C599.806 20.0228 600.055 20.0024 600.291 19.978C600.535 19.9536 600.754 19.9251 600.95 19.8926C600.974 19.8844 601.08 19.86 601.267 19.8193C601.454 19.7705 601.678 19.7135 601.938 19.6484C602.207 19.5752 602.496 19.4979 602.805 19.4165C603.114 19.3351 603.399 19.2619 603.66 19.1968C603.928 19.1235 604.156 19.0666 604.343 19.0259C604.539 18.9771 604.653 18.9526 604.685 18.9526C604.848 18.9526 604.978 18.973 605.076 19.0137C605.173 19.0544 605.222 19.1683 605.222 19.3555ZM591.135 27.4976C591.794 27.4976 592.376 27.3226 592.881 26.9727C593.394 26.6227 593.825 26.1589 594.175 25.5811C594.525 24.9951 594.793 24.3319 594.98 23.5913C595.176 22.8426 595.278 22.0736 595.286 21.2842C595.229 21.1621 595.143 21.036 595.029 20.9058C594.924 20.7756 594.801 20.6616 594.663 20.564C594.525 20.4582 594.382 20.3727 594.236 20.3076C594.089 20.2425 593.955 20.21 593.833 20.21C593.638 20.21 593.426 20.2873 593.198 20.4419C592.97 20.5965 592.759 20.7552 592.563 20.918C592.368 21.0807 592.173 21.2964 591.978 21.5649C591.79 21.8254 591.615 22.1183 591.453 22.4438C591.29 22.7694 591.139 23.1152 591.001 23.4814C590.863 23.8395 590.745 24.1976 590.647 24.5557C590.549 24.9056 590.472 25.2474 590.415 25.5811C590.366 25.9147 590.342 26.2118 590.342 26.4722C590.342 26.6024 590.362 26.7285 590.403 26.8506C590.444 26.9727 590.496 27.0825 590.562 27.1802C590.635 27.2778 590.72 27.3551 590.818 27.4121C590.916 27.4691 591.021 27.4976 591.135 27.4976ZM623.467 20.21C623.467 20.6657 623.304 21.1702 622.979 21.7236C622.661 22.2689 622.242 22.8182 621.721 23.3716C621.208 23.925 620.631 24.4621 619.988 24.9829C619.353 25.5037 618.714 25.9676 618.071 26.3745C617.437 26.7733 616.834 27.0947 616.265 27.3389C615.695 27.583 615.223 27.7051 614.849 27.7051C614.328 27.7051 613.884 27.5952 613.518 27.3755C613.16 27.1476 612.859 26.8506 612.615 26.4844C612.379 26.11 612.192 25.6868 612.053 25.2148C611.915 24.7347 611.813 24.2424 611.748 23.7378C611.626 24.0308 611.463 24.3481 611.26 24.6899C611.056 25.0317 610.837 25.3695 610.601 25.7031C610.365 26.0368 610.125 26.3542 609.88 26.6553C609.644 26.9482 609.425 27.2005 609.221 27.4121C608.936 27.7132 608.623 28.0062 608.281 28.291C607.939 28.5677 607.573 28.8118 607.183 29.0234C606.792 29.235 606.377 29.4059 605.938 29.5361C605.506 29.6582 605.055 29.7192 604.583 29.7192C604.184 29.7192 603.83 29.6379 603.521 29.4751C603.219 29.3042 602.967 29.0845 602.764 28.8159C602.56 28.5474 602.406 28.2422 602.3 27.9004C602.202 27.5505 602.153 27.2005 602.153 26.8506C602.153 26.5413 602.178 26.224 602.227 25.8984C602.284 25.5648 602.345 25.2311 602.41 24.8975C602.475 24.5557 602.536 24.222 602.593 23.8965C602.658 23.5628 602.703 23.2414 602.727 22.9321C602.743 22.6961 602.76 22.4438 602.776 22.1753C602.792 21.9067 602.808 21.6382 602.825 21.3696C602.841 21.0929 602.861 20.8203 602.886 20.5518C602.918 20.2751 602.955 20.0187 602.996 19.7827C603.028 19.6118 603.073 19.4491 603.13 19.2944C603.195 19.1398 603.285 19.0055 603.398 18.8916C603.512 18.7695 603.655 18.6759 603.826 18.6108C604.005 18.5376 604.22 18.501 604.473 18.501C604.985 18.501 605.343 18.6556 605.547 18.9648C605.758 19.266 605.864 19.7257 605.864 20.3442C605.864 20.5314 605.852 20.7471 605.828 20.9912C605.803 21.2354 605.771 21.4917 605.73 21.7603C605.689 22.0207 605.64 22.2852 605.583 22.5537C605.535 22.8223 605.478 23.0786 605.413 23.3228C605.274 23.868 605.144 24.401 605.022 24.9219C604.9 25.4346 604.839 25.8944 604.839 26.3013C604.839 26.5617 604.884 26.7773 604.973 26.9482C605.071 27.1191 605.189 27.2046 605.327 27.2046C605.677 27.2046 606.039 27.0988 606.414 26.8872C606.796 26.6675 607.166 26.3989 607.524 26.0815C607.882 25.756 608.22 25.4061 608.538 25.0317C608.863 24.6493 609.14 24.2993 609.368 23.9819C609.579 23.689 609.791 23.3268 610.002 22.8955C610.222 22.4642 610.434 22.0125 610.637 21.5405C610.849 21.0604 611.052 20.5884 611.248 20.1245C611.443 19.6525 611.618 19.2375 611.772 18.8794C611.984 18.3993 612.228 18.029 612.505 17.7686C612.782 17.5081 613.05 17.3779 613.311 17.3779C613.62 17.3779 613.848 17.439 613.994 17.561C614.141 17.6831 614.214 17.9069 614.214 18.2324C614.214 18.3626 614.198 18.562 614.165 18.8306C614.132 19.0991 614.096 19.384 614.055 19.6851C614.014 19.978 613.978 20.2629 613.945 20.5396C613.913 20.8081 613.896 21.0116 613.896 21.1499C613.896 21.2801 613.896 21.4388 613.896 21.626C613.905 21.8132 613.913 22.0085 613.921 22.2119C613.929 22.4072 613.941 22.5985 613.958 22.7856C613.982 22.9728 614.006 23.1315 614.031 23.2617C614.063 23.4001 614.116 23.5791 614.189 23.7988C614.263 24.0186 614.352 24.2342 614.458 24.4458C614.572 24.6493 614.694 24.8283 614.824 24.9829C614.954 25.1294 615.093 25.2026 615.239 25.2026C615.662 25.2026 616.11 25.0928 616.582 24.873C617.062 24.6533 617.55 24.3685 618.047 24.0186C618.543 23.6605 619.04 23.2576 619.536 22.8101C620.041 22.3625 620.529 21.9149 621.001 21.4673C621.196 21.2801 621.388 21.0929 621.575 20.9058C621.77 20.7104 621.957 20.5396 622.136 20.3931C622.315 20.2384 622.482 20.1123 622.637 20.0146C622.791 19.917 622.926 19.8682 623.04 19.8682C623.17 19.8682 623.271 19.9089 623.345 19.9902C623.426 20.0716 623.467 20.1449 623.467 20.21ZM630.652 18.8916C630.652 19.0951 630.591 19.266 630.469 19.4043C630.355 19.5345 630.212 19.6403 630.042 19.7217C629.871 19.8031 629.688 19.8641 629.492 19.9048C629.297 19.9373 629.118 19.9618 628.955 19.978C628.345 20.0187 627.734 20.0757 627.124 20.1489C626.514 20.214 625.96 20.2791 625.464 20.3442C624.976 20.4012 624.573 20.4541 624.255 20.5029C623.938 20.5436 623.767 20.564 623.743 20.564C623.686 20.7837 623.612 21.0604 623.523 21.394C623.442 21.7277 623.352 22.0898 623.254 22.4805C623.165 22.863 623.075 23.2576 622.986 23.6646C622.896 24.0633 622.811 24.4458 622.729 24.812C622.656 25.1782 622.595 25.5119 622.546 25.813C622.506 26.106 622.485 26.3379 622.485 26.5088C622.485 26.6471 622.498 26.8221 622.522 27.0337C622.555 27.2371 622.607 27.4365 622.681 27.6318C622.754 27.8271 622.852 27.998 622.974 28.1445C623.096 28.2829 623.25 28.3521 623.438 28.3521C623.568 28.3521 623.726 28.3236 623.914 28.2666C624.109 28.2096 624.32 28.1201 624.548 27.998C624.784 27.876 625.033 27.7214 625.293 27.5342C625.553 27.3389 625.814 27.1029 626.074 26.8262C626.156 26.7367 626.249 26.6431 626.355 26.5454C626.461 26.4478 626.575 26.3623 626.697 26.2891C626.819 26.2077 626.949 26.1426 627.087 26.0938C627.234 26.0368 627.384 26.0083 627.539 26.0083C627.783 26.0083 627.95 26.0612 628.04 26.167C628.129 26.2728 628.174 26.4071 628.174 26.5698C628.174 26.8953 628.08 27.1924 627.893 27.4609C627.706 27.7295 627.47 28.0306 627.185 28.3643C627.055 28.5189 626.847 28.7305 626.562 28.999C626.286 29.2594 625.952 29.5199 625.562 29.7803C625.179 30.0326 624.748 30.2523 624.268 30.4395C623.796 30.6348 623.295 30.7324 622.766 30.7324C622.253 30.7324 621.818 30.6632 621.46 30.5249C621.11 30.3947 620.817 30.2197 620.581 30C620.353 29.7884 620.174 29.5443 620.044 29.2676C619.914 28.9827 619.816 28.6938 619.751 28.4009C619.694 28.1079 619.657 27.819 619.641 27.5342C619.633 27.2493 619.629 26.993 619.629 26.7651C619.629 26.521 619.653 26.2402 619.702 25.9229C619.759 25.5973 619.824 25.2555 619.897 24.8975C619.971 24.5394 620.052 24.1732 620.142 23.7988C620.239 23.4163 620.325 23.0542 620.398 22.7124C620.471 22.3625 620.532 22.041 620.581 21.748C620.638 21.4551 620.667 21.2069 620.667 21.0034C620.667 20.9546 620.658 20.9098 620.642 20.8691C620.634 20.8285 620.605 20.7959 620.557 20.7715C620.508 20.7389 620.431 20.7186 620.325 20.7104C620.219 20.6942 620.072 20.686 619.885 20.686C619.674 20.686 619.446 20.682 619.202 20.6738C618.966 20.6576 618.746 20.6128 618.542 20.5396C618.339 20.4663 618.168 20.3524 618.03 20.1978C617.9 20.035 617.834 19.8071 617.834 19.5142C617.834 19.327 617.863 19.1724 617.92 19.0503C617.985 18.9201 618.066 18.8184 618.164 18.7451C618.27 18.6637 618.388 18.6068 618.518 18.5742C618.656 18.5417 618.803 18.5213 618.958 18.5132L621.533 18.4033C621.582 18.3138 621.659 18.1388 621.765 17.8784C621.871 17.618 621.989 17.3128 622.119 16.9629C622.257 16.6048 622.396 16.2264 622.534 15.8276C622.673 15.4289 622.799 15.0545 622.913 14.7046C623.075 14.2 623.283 13.8379 623.535 13.6182C623.787 13.3984 624.121 13.2886 624.536 13.2886C624.805 13.2886 625.012 13.3252 625.159 13.3984C625.305 13.4635 625.411 13.549 625.476 13.6548C625.541 13.7606 625.578 13.8826 625.586 14.021C625.602 14.1512 625.61 14.2773 625.61 14.3994C625.61 14.432 625.586 14.5256 625.537 14.6802C625.496 14.8348 625.439 15.026 625.366 15.2539C625.293 15.4736 625.212 15.7178 625.122 15.9863C625.033 16.2549 624.939 16.5275 624.841 16.8042C624.752 17.0728 624.662 17.3332 624.573 17.5854C624.491 17.8296 624.422 18.0412 624.365 18.2202C624.463 18.2121 624.622 18.1958 624.841 18.1714C625.069 18.147 625.33 18.1226 625.623 18.0981C625.916 18.0656 626.221 18.0371 626.538 18.0127C626.864 17.9801 627.165 17.9517 627.441 17.9272C627.726 17.8947 627.97 17.8703 628.174 17.854C628.385 17.8377 628.524 17.8296 628.589 17.8296C629.028 17.8296 629.382 17.854 629.651 17.9028C629.928 17.9435 630.139 18.0086 630.286 18.0981C630.432 18.1877 630.53 18.2975 630.579 18.4277C630.627 18.5579 630.652 18.7126 630.652 18.8916Z" fill="white"/>
</g>
<defs>
<filter id="filter0_d_40_29" x="0" y="0.700684" width="1190" height="60.7153" filterUnits="userSpaceOnUse" color-interpolation-filters="sRGB">
<feFlood flood-opacity="0" result="BackgroundImageFix"/>
<feColorMatrix in="SourceAlpha" type="matrix" values="0 0 0 0 0 0 0 0 0 0 0 0 0 0 0 0 0 0 127 0" result="hardAlpha"/>
<feOffset dx="5" dy="10"/>
<feGaussianBlur stdDeviation="10"/>
<feComposite in2="hardAlpha" operator="out"/>
<feColorMatrix type="matrix" values="0 0 0 0 0 0 0 0 0 0 0 0 0 0 0 0 0 0 0.35 0"/>
<feBlend mode="normal" in2="BackgroundImageFix" result="effect1_dropShadow_40_29"/>
<feBlend mode="normal" in="SourceGraphic" in2="effect1_dropShadow_40_29" result="shape"/>
</filter>
<linearGradient id="paint0_linear_40_29" x1="15" y1="22.5" x2="1165" y2="22.4956" gradientUnits="userSpaceOnUse">
<stop stop-color="#73F7FF"/>
<stop offset="0.37587" stop-color="#6391FF"/>
<stop offset="0.5" stop-opacity="0"/>
<stop offset="0.604167" stop-color="#5A5AFF"/>
<stop offset="1" stop-color="#E338FF"/>
</linearGradient>
<linearGradient id="paint1_linear_40_29" x1="15" y1="22.5" x2="1165" y2="22.4956" gradientUnits="userSpaceOnUse">
<stop stop-color="#73F7FF"/>
<stop offset="0.37587" stop-color="#6391FF"/>
<stop offset="0.5" stop-opacity="0"/>
<stop offset="0.604167" stop-color="#5A5AFF"/>
<stop offset="1" stop-color="#E338FF"/>
</linearGradient>
</defs>
</svg>
