<svg width="1190" height="66" viewBox="0 0 1190 66" fill="none" xmlns="http://www.w3.org/2000/svg">
<g filter="url(#filter0_d_40_32)">
<path d="M15 21.5C15 22.8807 16.1193 24 17.5 24H1162.5C1163.88 24 1165 22.8807 1165 21.5V21.5C1165 20.1193 1163.88 19 1162.5 19H1017.42H818.722H604.056H407.278H180.472H17.5C16.1193 19 15 20.1193 15 21.5V21.5Z" fill="url(#paint0_linear_40_32)"/>
<path d="M15 21.5C15 22.8807 16.1193 24 17.5 24H1162.5C1163.88 24 1165 22.8807 1165 21.5V21.5C1165 20.1193 1163.88 19 1162.5 19H1017.42H818.722H604.056H407.278H180.472H17.5C16.1193 19 15 20.1193 15 21.5V21.5Z" fill="url(#paint1_linear_40_32)"/>
<path d="M526.157 18.0259C526.157 17.4888 526.051 17.033 525.84 16.6587C525.636 16.2762 525.364 15.9548 525.022 15.6943C524.688 15.4339 524.306 15.2305 523.875 15.084C523.443 14.9375 523.004 14.8276 522.556 14.7544C522.011 14.6649 521.466 14.5998 520.92 14.5591C520.375 14.5103 519.822 14.4858 519.26 14.4858C519.024 14.4858 518.768 14.498 518.491 14.5225C518.223 14.5387 517.942 14.5632 517.649 14.5957C517.356 14.6201 517.059 14.6486 516.758 14.6812C516.465 14.7056 516.176 14.7218 515.891 14.73C515.753 15.4299 515.614 16.1297 515.476 16.8296C515.346 17.5213 515.224 18.1683 515.11 18.7705C514.996 19.3646 514.898 19.8895 514.817 20.3452C514.736 20.8009 514.683 21.1346 514.658 21.3462C514.593 21.8101 514.528 22.2943 514.463 22.7988C514.406 23.2952 514.377 23.751 514.377 24.166C514.377 24.3695 514.386 24.5485 514.402 24.7031C514.418 24.8577 514.447 25.0042 514.487 25.1426C515.236 25.0124 516.025 24.8089 516.855 24.5322C517.686 24.2474 518.609 23.9341 519.626 23.5923C520.164 23.4132 520.668 23.2301 521.14 23.043C521.62 22.8558 522.052 22.6727 522.434 22.4937C522.825 22.3065 523.162 22.1274 523.447 21.9565C523.74 21.7775 523.972 21.6107 524.143 21.4561C524.2 21.4072 524.285 21.3136 524.399 21.1753C524.521 21.0369 524.656 20.8701 524.802 20.6748C524.957 20.4795 525.111 20.2679 525.266 20.04C525.429 19.804 525.575 19.568 525.706 19.332C525.836 19.0879 525.942 18.856 526.023 18.6362C526.112 18.4084 526.157 18.2049 526.157 18.0259ZM529.136 18.0259C529.136 19.0675 528.729 20.1011 527.915 21.1265C527.174 22.0623 526.198 22.9372 524.985 23.751C524.448 24.1172 523.866 24.4712 523.24 24.813C522.613 25.1466 521.991 25.4559 521.372 25.7407C520.745 26.0256 520.151 26.2738 519.59 26.4854C519.036 26.6969 518.52 26.876 518.04 27.0225C517.706 27.1283 517.344 27.2625 516.953 27.4253C516.562 27.5799 516.111 27.7915 515.598 28.0601C515.37 28.1821 515.134 28.2839 514.89 28.3652C514.646 28.4385 514.414 28.4995 514.194 28.5483C513.983 28.5972 513.792 28.6338 513.621 28.6582C513.45 28.6745 513.328 28.6826 513.254 28.6826C512.766 28.6826 512.347 28.5443 511.997 28.2676C511.647 27.9909 511.419 27.6247 511.313 27.1689C511.232 26.8271 511.171 26.5382 511.13 26.3022C511.098 26.0662 511.082 25.8872 511.082 25.7651C511.082 25.7163 511.09 25.6471 511.106 25.5576C511.122 25.46 511.139 25.3623 511.155 25.2646C511.171 25.167 511.187 25.0693 511.204 24.9717C511.22 24.874 511.228 24.7967 511.228 24.7397C511.228 24.6502 511.232 24.5444 511.24 24.4224C511.257 24.3003 511.273 24.1742 511.289 24.0439C511.313 23.9137 511.334 23.7835 511.35 23.6533C511.375 23.5231 511.395 23.4051 511.411 23.2993C511.623 22.2088 511.806 21.1021 511.96 19.979C512.123 18.8478 512.331 17.6922 512.583 16.5122C512.607 16.3983 512.636 16.2721 512.668 16.1338C512.701 15.9954 512.734 15.8571 512.766 15.7188C512.799 15.5723 512.827 15.438 512.852 15.3159C512.876 15.1857 512.888 15.0799 512.888 14.9985C512.888 14.8602 512.856 14.7707 512.791 14.73C512.734 14.6812 512.652 14.6201 512.546 14.5469C512.432 14.4574 512.335 14.38 512.253 14.3149C512.172 14.2417 512.103 14.1725 512.046 14.1074C511.997 14.0342 511.96 13.9569 511.936 13.8755C511.912 13.7941 511.899 13.6965 511.899 13.5825C511.899 13.4035 511.944 13.2122 512.034 13.0088C512.131 12.7972 512.257 12.606 512.412 12.4351C512.575 12.256 512.758 12.1095 512.961 11.9956C513.173 11.8735 513.393 11.8125 513.621 11.8125C513.792 11.8125 514.015 11.8247 514.292 11.8491C514.569 11.8654 514.845 11.8898 515.122 11.9224C515.399 11.9468 515.647 11.9712 515.867 11.9956C516.095 12.0119 516.241 12.02 516.306 12.02C516.9 12.02 517.568 11.9956 518.308 11.9468C519.057 11.8979 519.801 11.8735 520.542 11.8735C521.608 11.8735 522.605 11.9793 523.533 12.1909C524.46 12.3944 525.307 12.7158 526.072 13.1553C526.243 13.2529 526.43 13.3709 526.633 13.5093C526.837 13.6476 527.044 13.8185 527.256 14.022C527.467 14.2173 527.675 14.4533 527.878 14.73C528.09 15.0067 528.285 15.3403 528.464 15.731C528.676 16.1867 528.839 16.6139 528.953 17.0127C529.075 17.4033 529.136 17.741 529.136 18.0259ZM536.284 18.502C536.284 18.1439 536.227 17.8916 536.113 17.7451C536.007 17.5986 535.885 17.5254 535.747 17.5254C535.625 17.5254 535.483 17.5986 535.32 17.7451C535.157 17.8916 534.986 18.091 534.807 18.3433C534.636 18.5874 534.461 18.8763 534.282 19.21C534.111 19.5355 533.949 19.8813 533.794 20.2476C533.647 20.6138 533.521 20.9922 533.416 21.3828C533.318 21.7653 533.249 22.1356 533.208 22.4937C533.444 22.2983 533.656 22.1234 533.843 21.9688C534.038 21.806 534.221 21.6351 534.392 21.4561C534.563 21.2852 534.754 21.0776 534.966 20.8335C535.186 20.5812 535.393 20.3208 535.588 20.0522C535.784 19.7837 535.946 19.5151 536.077 19.2466C536.215 18.978 536.284 18.7298 536.284 18.502ZM545.757 19.8203C545.757 19.8854 545.732 19.9871 545.684 20.1255C545.635 20.2638 545.553 20.4266 545.439 20.6138C545.122 21.1183 544.723 21.6676 544.243 22.2617C543.771 22.8558 543.246 23.4499 542.668 24.0439C542.099 24.6299 541.484 25.1995 540.825 25.7529C540.174 26.2982 539.511 26.7824 538.835 27.2056C538.168 27.6287 537.501 27.9705 536.833 28.231C536.166 28.4832 535.531 28.6094 534.929 28.6094C534.164 28.6094 533.497 28.5036 532.927 28.292C532.358 28.0804 531.886 27.7752 531.511 27.3765C531.137 26.9696 530.856 26.4772 530.669 25.8994C530.482 25.3135 530.388 24.6502 530.388 23.9097C530.388 23.3481 530.429 22.7541 530.51 22.1274C530.6 21.5008 530.758 20.866 530.986 20.2231C531.214 19.5721 531.519 18.9211 531.902 18.27C532.292 17.6108 532.789 16.9761 533.391 16.3657C533.855 15.8937 534.355 15.5356 534.893 15.2915C535.43 15.0474 535.942 14.9253 536.431 14.9253C536.52 14.9253 536.634 14.9456 536.772 14.9863C536.911 15.0189 537.049 15.0677 537.188 15.1328C537.326 15.1979 537.46 15.2752 537.59 15.3647C537.721 15.4543 537.826 15.5519 537.908 15.6577C538.168 15.9914 538.363 16.3088 538.494 16.6099C538.624 16.9028 538.689 17.2365 538.689 17.6108C538.689 18.1968 538.608 18.7257 538.445 19.1978C538.282 19.6698 538.058 20.1133 537.773 20.5283C537.497 20.9352 537.167 21.3299 536.785 21.7124C536.402 22.0949 535.991 22.4937 535.552 22.9087C535.283 23.161 534.95 23.4377 534.551 23.7388C534.152 24.0317 533.725 24.3532 533.269 24.7031C533.334 24.9554 533.416 25.1751 533.513 25.3623C533.611 25.5413 533.733 25.6919 533.879 25.814C534.026 25.936 534.201 26.0296 534.404 26.0947C534.616 26.1517 534.864 26.1802 535.149 26.1802C535.531 26.1802 535.938 26.1151 536.37 25.9849C536.809 25.8547 537.249 25.6878 537.688 25.4844C538.07 25.3053 538.449 25.0815 538.823 24.813C539.198 24.5363 539.576 24.2515 539.958 23.9585C540.194 23.7795 540.496 23.5231 540.862 23.1895C541.236 22.8477 541.615 22.4937 541.997 22.1274C542.257 21.8833 542.518 21.6473 542.778 21.4194C543.039 21.1834 543.315 20.923 543.608 20.6382L544.255 20.0034C544.727 19.6209 545.11 19.4297 545.403 19.4297C545.557 19.4297 545.655 19.4744 545.696 19.564C545.736 19.6535 545.757 19.7389 545.757 19.8203ZM560.645 23.4336C560.645 23.5638 560.596 23.7103 560.498 23.873C560.409 24.0358 560.286 24.1986 560.132 24.3613C559.977 24.5241 559.794 24.6828 559.583 24.8374C559.379 24.992 559.163 25.1304 558.936 25.2524C558.496 25.4722 558.032 25.6349 557.544 25.7407C557.064 25.8384 556.58 25.8872 556.091 25.8872C555.79 25.8872 555.461 25.8343 555.103 25.7285C554.744 25.6227 554.403 25.464 554.077 25.2524C553.752 25.0327 553.467 24.756 553.223 24.4224C552.987 24.0887 552.836 23.694 552.771 23.2383C552.747 23.3766 552.706 23.5272 552.649 23.6899C552.592 23.8446 552.527 24.0033 552.454 24.166C552.38 24.3206 552.303 24.4793 552.222 24.6421C552.148 24.7967 552.075 24.9432 552.002 25.0815C551.799 25.4722 551.575 25.8709 551.331 26.2778C551.095 26.6766 550.854 27.0591 550.61 27.4253C550.366 27.7915 550.134 28.1292 549.915 28.4385C549.703 28.7396 549.52 28.9878 549.365 29.1831C549.162 29.4517 548.95 29.6632 548.73 29.8179C548.511 29.9806 548.299 30.1068 548.096 30.1963C547.892 30.2858 547.709 30.3428 547.546 30.3672C547.384 30.3997 547.257 30.416 547.168 30.416C547.046 30.416 546.912 30.3835 546.765 30.3184C546.619 30.2614 546.476 30.1841 546.338 30.0864C546.208 29.9969 546.09 29.8911 545.984 29.769C545.886 29.6551 545.817 29.5371 545.776 29.415C545.768 28.9512 545.691 28.3652 545.544 27.6572C545.406 26.9411 545.142 26.0581 544.751 25.0083C544.328 23.8771 544.031 22.8843 543.86 22.0298C543.697 21.1672 543.616 20.4307 543.616 19.8203C543.616 19.2832 543.783 18.8478 544.116 18.5142C544.45 18.1805 544.906 18.0137 545.483 18.0137C545.728 18.0137 545.931 18.0503 546.094 18.1235C546.257 18.1968 546.391 18.2985 546.497 18.4287C546.602 18.5508 546.676 18.6973 546.716 18.8682C546.765 19.0391 546.79 19.2181 546.79 19.4053C546.79 19.6413 546.753 19.8732 546.68 20.1011C546.615 20.3289 546.582 20.5568 546.582 20.7847C546.582 21.0614 546.611 21.3747 546.667 21.7246C546.733 22.0745 546.81 22.4448 546.899 22.8354C546.997 23.2261 547.103 23.6248 547.217 24.0317C547.339 24.4386 547.457 24.8333 547.571 25.2158C547.685 25.5983 547.791 25.9604 547.888 26.3022C547.986 26.644 548.063 26.9411 548.12 27.1934C548.242 27.0306 548.385 26.819 548.547 26.5586C548.718 26.2982 548.889 26.0256 549.06 25.7407C549.231 25.4478 549.394 25.167 549.548 24.8984C549.711 24.6217 549.841 24.3898 549.939 24.2026C550.053 23.9829 550.183 23.7225 550.33 23.4214C550.476 23.1121 550.618 22.7948 550.757 22.4692C550.903 22.1356 551.034 21.806 551.147 21.4805C551.27 21.1549 551.359 20.866 551.416 20.6138C551.489 20.2476 551.652 19.9383 551.904 19.686C552.165 19.4338 552.502 19.3076 552.917 19.3076C553.048 19.3076 553.186 19.332 553.333 19.3809C553.479 19.4215 553.617 19.5029 553.748 19.625C553.878 19.7389 553.984 19.8936 554.065 20.0889C554.154 20.276 554.203 20.5161 554.211 20.8091C554.22 21.2974 554.297 21.7409 554.443 22.1396C554.59 22.5303 554.773 22.868 554.993 23.1528C555.221 23.4295 555.465 23.6452 555.725 23.7998C555.994 23.9463 556.25 24.0195 556.494 24.0195C556.689 24.0195 556.893 24.0073 557.104 23.9829C557.324 23.9504 557.54 23.9097 557.751 23.8608C557.963 23.812 558.167 23.755 558.362 23.6899C558.557 23.6167 558.728 23.5435 558.875 23.4702C559.119 23.34 559.338 23.2342 559.534 23.1528C559.729 23.0715 559.928 23.0308 560.132 23.0308C560.343 23.047 560.482 23.0959 560.547 23.1772C560.612 23.2505 560.645 23.3359 560.645 23.4336ZM564.338 18.0991C564.338 17.7817 564.285 17.5579 564.18 17.4277C564.082 17.2975 563.984 17.2324 563.887 17.2324C563.667 17.2324 563.443 17.3057 563.215 17.4521C562.996 17.5986 562.78 17.7939 562.568 18.0381C562.365 18.2822 562.166 18.563 561.97 18.8804C561.783 19.1896 561.616 19.5151 561.47 19.8569C561.323 20.1906 561.201 20.5243 561.104 20.8579C561.006 21.1834 560.941 21.4805 560.908 21.749C561.421 21.334 561.889 20.9474 562.312 20.5894C562.735 20.2231 563.093 19.8854 563.386 19.5762C563.687 19.2669 563.919 18.9902 564.082 18.7461C564.253 18.4938 564.338 18.2782 564.338 18.0991ZM573.518 17.9404C573.518 18.1195 573.437 18.4165 573.274 18.8315C573.111 19.2466 572.887 19.7186 572.603 20.2476C572.318 20.7684 571.984 21.3218 571.602 21.9077C571.219 22.4855 570.808 23.0308 570.369 23.5435C569.913 24.0806 569.4 24.6055 568.831 25.1182C568.261 25.6309 567.646 26.0907 566.987 26.4976C566.336 26.8963 565.645 27.2178 564.912 27.4619C564.188 27.7061 563.435 27.8281 562.654 27.8281C561.816 27.8281 561.104 27.6938 560.518 27.4253C559.932 27.1486 559.451 26.7865 559.077 26.3389C558.711 25.8913 558.442 25.3826 558.271 24.813C558.109 24.2433 558.027 23.6655 558.027 23.0796C558.027 22.5669 558.076 22.0542 558.174 21.5415C558.28 21.0207 558.422 20.512 558.601 20.0156C558.788 19.5192 559.008 19.0391 559.26 18.5752C559.513 18.1113 559.793 17.6841 560.103 17.2935C560.298 17.0412 560.538 16.7726 560.823 16.4878C561.116 16.203 561.445 15.9425 561.812 15.7065C562.186 15.4624 562.593 15.263 563.032 15.1084C563.472 14.9456 563.94 14.8643 564.436 14.8643C564.819 14.8643 565.152 14.9456 565.437 15.1084C565.73 15.263 565.97 15.4624 566.157 15.7065C566.353 15.9507 566.499 16.2233 566.597 16.5244C566.694 16.8174 566.743 17.0981 566.743 17.3667C566.743 17.8468 566.65 18.3188 566.462 18.7827C566.275 19.2466 565.978 19.7227 565.571 20.2109C565.164 20.6992 564.631 21.2078 563.972 21.7368C563.321 22.2658 562.528 22.8314 561.592 23.4336C561.527 23.4743 561.453 23.519 561.372 23.5679C561.291 23.6167 561.213 23.6655 561.14 23.7144C561.067 23.7632 561.006 23.8079 560.957 23.8486C560.916 23.8812 560.896 23.9015 560.896 23.9097C560.937 24.0887 560.99 24.2677 561.055 24.4468C561.12 24.6258 561.226 24.7886 561.372 24.9351C561.519 25.0734 561.718 25.1873 561.97 25.2769C562.222 25.3664 562.552 25.4111 562.959 25.4111C563.276 25.4111 563.614 25.3786 563.972 25.3135C564.33 25.2402 564.692 25.1344 565.059 24.9961C565.425 24.8577 565.783 24.6909 566.133 24.4956C566.491 24.2922 566.829 24.0602 567.146 23.7998C567.561 23.4661 567.996 23.0715 568.452 22.6157C568.908 22.16 569.355 21.6676 569.795 21.1387C570.243 20.6016 570.666 20.036 571.064 19.4419C571.471 18.8478 571.829 18.2415 572.139 17.623C572.261 17.387 572.419 17.2243 572.615 17.1348C572.81 17.0452 572.977 17.0005 573.115 17.0005C573.213 17.0005 573.302 17.0656 573.384 17.1958C573.473 17.326 573.518 17.5742 573.518 17.9404ZM581.997 21.5537C581.997 21.7409 581.948 21.9769 581.851 22.2617C581.761 22.5384 581.606 22.8639 581.387 23.2383C581.167 23.6045 580.874 24.0195 580.508 24.4834C580.142 24.9473 579.686 25.4559 579.141 26.0093C578.84 26.3104 578.498 26.6115 578.115 26.9126C577.741 27.2137 577.342 27.4823 576.919 27.7183C576.496 27.9461 576.056 28.1333 575.601 28.2798C575.153 28.4263 574.705 28.4995 574.258 28.4995C573.656 28.4995 573.09 28.3937 572.561 28.1821C572.04 27.9705 571.584 27.6491 571.194 27.2178C570.803 26.7783 570.494 26.229 570.266 25.5698C570.046 24.9106 569.937 24.1375 569.937 23.2505C569.937 22.6727 569.965 22.0745 570.022 21.4561C570.079 20.8294 570.148 20.1987 570.229 19.564C570.319 18.9292 570.417 18.3026 570.522 17.6841C570.636 17.0575 570.746 16.4593 570.852 15.8896C570.925 15.499 570.986 15.1532 571.035 14.8521C571.084 14.5509 571.129 14.2498 571.169 13.9487C571.218 13.6476 571.271 13.3262 571.328 12.9844C571.385 12.6344 571.454 12.2235 571.536 11.7515C571.576 11.5236 571.646 11.3079 571.743 11.1045C571.841 10.8929 571.963 10.7098 572.109 10.5552C572.264 10.3924 572.443 10.2663 572.646 10.1768C572.85 10.0791 573.074 10.0303 573.318 10.0303C573.92 10.0303 574.36 10.311 574.636 10.8726L574.502 11.5684C574.429 11.959 574.331 12.4188 574.209 12.9478C574.095 13.4686 573.969 14.0382 573.831 14.6567C573.7 15.2752 573.566 15.9263 573.428 16.6099C573.298 17.2853 573.175 17.973 573.062 18.6729C572.956 19.3727 572.866 20.0685 572.793 20.7603C572.728 21.452 572.695 22.1193 572.695 22.7622C572.695 23.2505 572.728 23.694 572.793 24.0928C572.866 24.4915 572.98 24.8333 573.135 25.1182C573.289 25.3949 573.489 25.6105 573.733 25.7651C573.977 25.9198 574.27 25.9971 574.612 25.9971C574.954 25.9971 575.308 25.9279 575.674 25.7896C576.04 25.6431 576.406 25.4559 576.772 25.228C577.147 25.0002 577.509 24.7397 577.859 24.4468C578.217 24.1538 578.551 23.8608 578.86 23.5679C579.169 23.2668 579.446 22.9779 579.69 22.7012C579.934 22.4163 580.133 22.1722 580.288 21.9688C580.361 21.8711 580.439 21.7694 580.52 21.6636C580.61 21.5496 580.707 21.4438 580.813 21.3462C580.927 21.2485 581.045 21.1672 581.167 21.1021C581.297 21.0369 581.436 21.0044 581.582 21.0044C581.696 21.0044 581.794 21.0532 581.875 21.1509C581.956 21.2404 581.997 21.3747 581.997 21.5537ZM596.335 18.3555C596.335 18.5101 596.283 18.6769 596.177 18.856C596.079 19.0269 595.949 19.2018 595.786 19.3809C595.632 19.5518 595.452 19.7227 595.249 19.8936C595.046 20.0645 594.842 20.2231 594.639 20.3696C594.435 20.508 594.24 20.63 594.053 20.7358C593.874 20.8416 593.723 20.923 593.601 20.98C593.381 21.0695 593.097 21.1549 592.747 21.2363C592.405 21.3096 592.043 21.3747 591.66 21.4316C591.286 21.4805 590.92 21.5212 590.562 21.5537C590.212 21.5863 589.915 21.6025 589.67 21.6025C589.613 21.6025 589.532 21.5985 589.426 21.5903C589.329 21.5741 589.219 21.5537 589.097 21.5293C588.983 21.5049 588.865 21.4764 588.743 21.4438C588.629 21.4032 588.531 21.3543 588.45 21.2974C588.539 21.4845 588.588 21.6921 588.596 21.9199C588.612 22.1396 588.621 22.3594 588.621 22.5791C588.621 22.7337 588.604 22.9168 588.572 23.1284C588.539 23.34 588.494 23.5557 588.438 23.7754C588.389 23.9951 588.328 24.2067 588.254 24.4102C588.181 24.6136 588.104 24.7845 588.022 24.9229C587.819 25.2728 587.599 25.5942 587.363 25.8872C587.135 26.1802 586.879 26.4528 586.594 26.7051C586.309 26.9574 585.988 27.1934 585.63 27.4131C585.272 27.6328 584.857 27.8485 584.385 28.0601C583.88 28.2798 583.376 28.4344 582.871 28.5239C582.367 28.6053 581.846 28.646 581.309 28.646C580.91 28.646 580.556 28.5443 580.247 28.3408C579.937 28.1292 579.677 27.8485 579.465 27.4985C579.254 27.1486 579.091 26.7458 578.977 26.29C578.871 25.8343 578.818 25.3582 578.818 24.8618C578.818 24.7397 578.826 24.5892 578.843 24.4102C578.867 24.223 578.896 24.0358 578.928 23.8486C578.969 23.6615 579.01 23.4784 579.05 23.2993C579.099 23.1203 579.144 22.9697 579.185 22.8477C579.299 22.5059 579.461 22.1152 579.673 21.6758C579.893 21.2363 580.149 20.7887 580.442 20.333C580.735 19.8691 581.06 19.4175 581.418 18.978C581.777 18.5304 582.155 18.1357 582.554 17.7939C582.961 17.444 583.38 17.1632 583.811 16.9517C584.25 16.7401 584.69 16.6343 585.129 16.6343C585.317 16.6343 585.467 16.6546 585.581 16.6953C585.695 16.7279 585.789 16.7767 585.862 16.8418C585.935 16.8988 586 16.9679 586.057 17.0493C586.122 17.1226 586.191 17.1958 586.265 17.269C586.322 17.2528 586.379 17.2406 586.436 17.2324C586.501 17.2243 586.566 17.2202 586.631 17.2202C586.883 17.2202 587.131 17.3179 587.375 17.5132C587.62 17.7085 587.868 17.9242 588.12 18.1602C588.234 18.266 588.348 18.3758 588.462 18.4897C588.584 18.5955 588.694 18.6932 588.792 18.7827C588.889 18.8641 588.975 18.9333 589.048 18.9902C589.129 19.0391 589.186 19.0635 589.219 19.0635C589.43 19.0635 589.658 19.0635 589.902 19.0635C590.155 19.0553 590.407 19.0472 590.659 19.0391C590.92 19.0228 591.168 19.0024 591.404 18.978C591.648 18.9536 591.868 18.9251 592.063 18.8926C592.087 18.8844 592.193 18.86 592.38 18.8193C592.568 18.7705 592.791 18.7135 593.052 18.6484C593.32 18.5752 593.609 18.4979 593.918 18.4165C594.228 18.3351 594.513 18.2619 594.773 18.1968C595.042 18.1235 595.269 18.0666 595.457 18.0259C595.652 17.9771 595.766 17.9526 595.798 17.9526C595.961 17.9526 596.091 17.973 596.189 18.0137C596.287 18.0544 596.335 18.1683 596.335 18.3555ZM582.249 26.4976C582.908 26.4976 583.49 26.3226 583.994 25.9727C584.507 25.6227 584.938 25.1589 585.288 24.5811C585.638 23.9951 585.907 23.3319 586.094 22.5913C586.289 21.8426 586.391 21.0736 586.399 20.2842C586.342 20.1621 586.257 20.036 586.143 19.9058C586.037 19.7756 585.915 19.6616 585.776 19.564C585.638 19.4582 585.496 19.3727 585.349 19.3076C585.203 19.2425 585.068 19.21 584.946 19.21C584.751 19.21 584.539 19.2873 584.312 19.4419C584.084 19.5965 583.872 19.7552 583.677 19.918C583.481 20.0807 583.286 20.2964 583.091 20.5649C582.904 20.8254 582.729 21.1183 582.566 21.4438C582.403 21.7694 582.253 22.1152 582.114 22.4814C581.976 22.8395 581.858 23.1976 581.76 23.5557C581.663 23.9056 581.585 24.2474 581.528 24.5811C581.479 24.9147 581.455 25.2118 581.455 25.4722C581.455 25.6024 581.475 25.7285 581.516 25.8506C581.557 25.9727 581.61 26.0825 581.675 26.1802C581.748 26.2778 581.833 26.3551 581.931 26.4121C582.029 26.4691 582.135 26.4976 582.249 26.4976ZM612.188 19.7227C612.188 20.0075 612.102 20.3045 611.931 20.6138C611.768 20.923 611.504 21.2323 611.138 21.5415C610.389 22.1763 609.535 22.7826 608.574 23.3604C607.622 23.9382 606.556 24.4997 605.376 25.0449C604.237 25.5739 603.158 26.0296 602.141 26.4121C601.124 26.7865 600.123 27.1079 599.138 27.3765C599.065 27.3927 598.979 27.409 598.882 27.4253C598.784 27.4334 598.666 27.4375 598.528 27.4375C598.251 27.4375 597.995 27.3968 597.759 27.3154C597.531 27.234 597.332 27.1242 597.161 26.9858C596.99 26.8475 596.855 26.6847 596.758 26.4976C596.668 26.3104 596.624 26.1069 596.624 25.8872C596.624 25.7326 596.685 25.5942 596.807 25.4722C596.937 25.342 597.108 25.224 597.319 25.1182C597.539 25.0042 597.791 24.8984 598.076 24.8008C598.369 24.695 598.674 24.5933 598.992 24.4956C599.089 24.4712 599.203 24.4427 599.333 24.4102C599.464 24.3776 599.598 24.3491 599.736 24.3247C599.883 24.2922 600.025 24.2596 600.164 24.2271C600.31 24.1945 600.436 24.166 600.542 24.1416C600.884 23.9544 601.209 23.6899 601.519 23.3481C601.836 23.0063 602.113 22.6361 602.349 22.2373C602.593 21.8385 602.784 21.4398 602.922 21.041C603.061 20.6341 603.13 20.2842 603.13 19.9912C603.13 19.1611 602.943 18.7461 602.568 18.7461C602.414 18.7461 602.222 18.7868 601.995 18.8682C601.767 18.9495 601.523 19.0594 601.262 19.1978C601.01 19.328 600.754 19.4744 600.493 19.6372C600.241 19.8 600.009 19.9627 599.797 20.1255C599.496 20.3615 599.159 20.687 598.784 21.1021C598.418 21.509 598.048 21.9565 597.673 22.4448C597.307 22.925 596.961 23.4214 596.636 23.9341C596.31 24.4386 596.038 24.9066 595.818 25.3379C595.777 25.7041 595.736 26.1069 595.696 26.5464C595.655 26.9777 595.614 27.4538 595.574 27.9746C595.525 28.4954 595.488 29.0244 595.464 29.5615C595.448 30.1068 595.427 30.6357 595.403 31.1484C595.378 31.6611 595.35 32.1453 595.317 32.6011C595.285 33.0649 595.232 33.4759 595.159 33.834C595.159 34.3385 595.061 34.7048 594.866 34.9326C594.67 35.1605 594.394 35.2744 594.036 35.2744C593.84 35.2744 593.633 35.2297 593.413 35.1401C593.193 35.0506 592.99 34.9367 592.803 34.7983C592.616 34.6681 592.461 34.5257 592.339 34.3711C592.217 34.2165 592.156 34.07 592.156 33.9316C592.156 33.777 592.164 33.6061 592.18 33.4189C592.205 33.2318 592.229 33.0243 592.253 32.7964C592.294 32.479 592.331 32.1698 592.363 31.8687C592.396 31.5757 592.424 31.3031 592.449 31.0508C592.481 30.7985 592.51 30.5706 592.534 30.3672C592.559 30.1637 592.579 29.9969 592.595 29.8667C592.709 29.0773 592.807 28.2065 592.888 27.2544C592.978 26.2941 593.047 25.2931 593.096 24.2515C593.136 23.283 593.161 22.3879 593.169 21.5659C593.185 20.744 593.238 20.036 593.328 19.4419C593.425 18.8397 593.588 18.3717 593.816 18.0381C594.044 17.6963 594.394 17.5254 594.866 17.5254C595.077 17.5254 595.264 17.5701 595.427 17.6597C595.598 17.7492 595.745 17.8631 595.867 18.0015C595.989 18.1398 596.082 18.2944 596.147 18.4653C596.213 18.6362 596.245 18.8071 596.245 18.978C596.245 19.2954 596.2 19.6657 596.111 20.0889C596.029 20.5039 595.948 20.9922 595.867 21.5537C596.038 21.2607 596.221 20.9678 596.416 20.6748C596.619 20.3737 596.823 20.0848 597.026 19.8081C597.238 19.5314 597.445 19.271 597.649 19.0269C597.861 18.7827 598.064 18.5711 598.259 18.3921C599.041 17.6678 599.826 17.1307 600.615 16.7808C601.014 16.6017 601.441 16.4756 601.897 16.4023C602.361 16.321 602.861 16.2803 603.398 16.2803C603.757 16.2803 604.078 16.3983 604.363 16.6343C604.648 16.8703 604.888 17.1592 605.083 17.501C605.286 17.8346 605.441 18.1927 605.547 18.5752C605.653 18.9495 605.706 19.2832 605.706 19.5762C605.706 19.8691 605.645 20.2028 605.522 20.5771C605.409 20.9434 605.258 21.3136 605.071 21.688C604.892 22.0542 604.684 22.4082 604.448 22.75C604.22 23.0918 603.988 23.3766 603.752 23.6045C604.322 23.3604 604.92 23.0796 605.547 22.7622C606.174 22.4448 606.784 22.1152 607.378 21.7734C607.98 21.4235 608.546 21.0695 609.075 20.7114C609.612 20.3452 610.076 19.9953 610.466 19.6616C610.653 19.4989 610.849 19.3768 611.052 19.2954C611.264 19.2059 611.463 19.1611 611.65 19.1611C611.829 19.1611 611.964 19.1978 612.053 19.271C612.143 19.3442 612.188 19.4948 612.188 19.7227ZM634.766 23.812C634.766 23.9259 634.721 24.0602 634.631 24.2148C634.542 24.3613 634.432 24.5119 634.302 24.6665C634.172 24.813 634.029 24.9554 633.875 25.0938C633.728 25.224 633.59 25.3298 633.459 25.4111C632.678 25.8994 631.913 26.2819 631.165 26.5586C630.424 26.8353 629.647 26.9736 628.833 26.9736C628.32 26.9736 627.865 26.8678 627.466 26.6562C627.075 26.4365 626.737 26.1232 626.453 25.7163C626.168 25.3094 625.924 24.813 625.72 24.2271C625.525 23.633 625.366 22.9657 625.244 22.2251C625.212 22.0135 625.175 21.8101 625.134 21.6147C625.094 21.4194 625.057 21.2485 625.024 21.1021C624.992 20.9474 624.963 20.8254 624.939 20.7358C624.915 20.6463 624.898 20.6016 624.89 20.6016C624.703 20.6016 624.422 20.8864 624.048 21.4561C623.682 22.0176 623.21 22.807 622.632 23.8242C622.306 24.3939 622.001 24.9066 621.716 25.3623C621.431 25.8099 621.159 26.1883 620.898 26.4976C620.638 26.7987 620.386 27.0306 620.142 27.1934C619.897 27.3561 619.657 27.4375 619.421 27.4375C619.047 27.4375 618.742 27.3765 618.506 27.2544C618.27 27.1323 618.083 26.9289 617.944 26.644C617.806 26.3592 617.708 25.9808 617.651 25.5088C617.594 25.0368 617.558 24.4508 617.542 23.751C617.525 22.9372 617.46 22.3065 617.346 21.8589C617.24 21.4032 617.118 21.1753 616.98 21.1753C616.923 21.1753 616.821 21.2526 616.675 21.4072C616.528 21.5537 616.353 21.749 616.15 21.9932C615.955 22.2373 615.743 22.514 615.515 22.8232C615.287 23.1325 615.063 23.4458 614.844 23.7632C614.624 24.0806 614.417 24.3898 614.221 24.6909C614.026 24.992 613.867 25.2565 613.745 25.4844C613.647 25.6634 613.529 25.8709 613.391 26.1069C613.253 26.3429 613.11 26.583 612.964 26.8271C612.817 27.0713 612.671 27.3073 612.524 27.5352C612.378 27.763 612.248 27.9583 612.134 28.1211C611.987 28.3327 611.808 28.4954 611.597 28.6094C611.393 28.7152 611.169 28.7681 610.925 28.7681C610.551 28.7681 610.242 28.6826 609.998 28.5117C609.762 28.3408 609.574 28.117 609.436 27.8403C609.306 27.5636 609.216 27.2463 609.167 26.8882C609.119 26.5301 609.094 26.168 609.094 25.8018C609.094 25.4844 609.111 25.1507 609.143 24.8008C609.176 24.4427 609.216 24.0806 609.265 23.7144C609.322 23.3481 609.383 22.9819 609.448 22.6157C609.513 22.2414 609.578 21.8792 609.644 21.5293C609.757 20.8783 609.855 20.2842 609.937 19.7471C610.026 19.21 610.071 18.6973 610.071 18.209C610.071 17.9242 610.164 17.6841 610.352 17.4888C610.547 17.2935 610.815 17.1958 611.157 17.1958C612.248 17.1958 612.793 17.8468 612.793 19.1489C612.793 19.3605 612.769 19.6169 612.72 19.918C612.671 20.2109 612.606 20.5283 612.524 20.8701C612.443 21.2038 612.354 21.5537 612.256 21.9199C612.158 22.2861 612.065 22.6483 611.975 23.0063C611.886 23.3563 611.8 23.694 611.719 24.0195C611.646 24.3451 611.589 24.638 611.548 24.8984C611.564 24.874 611.609 24.7967 611.682 24.6665C611.755 24.5363 611.841 24.3817 611.938 24.2026C612.044 24.0236 612.154 23.8324 612.268 23.6289C612.382 23.4255 612.488 23.2342 612.585 23.0552C612.691 22.868 612.781 22.7093 612.854 22.5791C612.935 22.4489 612.984 22.3675 613 22.335C613.432 21.6514 613.839 21.041 614.221 20.5039C614.604 19.9668 614.974 19.5029 615.332 19.1123C615.706 18.6973 616.093 18.388 616.492 18.1846C616.899 17.9811 617.334 17.8794 617.798 17.8794C618.205 17.8794 618.526 18.0015 618.762 18.2456C619.006 18.4897 619.198 18.7949 619.336 19.1611C619.474 19.5273 619.572 19.9261 619.629 20.3574C619.694 20.7887 619.747 21.1875 619.788 21.5537C619.812 21.7653 619.836 21.9972 619.861 22.2495C619.885 22.4937 619.906 22.7297 619.922 22.9575C619.946 23.1854 619.963 23.3929 619.971 23.5801C619.987 23.7673 619.995 23.9097 619.995 24.0073C619.995 24.048 620.007 24.0765 620.032 24.0928C620.064 24.1009 620.093 24.105 620.117 24.105C620.158 24.105 620.219 24.0439 620.3 23.9219C620.382 23.7917 620.475 23.6289 620.581 23.4336C620.687 23.2301 620.797 23.0104 620.911 22.7744C621.033 22.5303 621.151 22.2943 621.265 22.0664C621.379 21.8304 621.484 21.6147 621.582 21.4194C621.68 21.2241 621.757 21.0776 621.814 20.98C622.009 20.6626 622.221 20.3086 622.449 19.918C622.685 19.5273 622.945 19.1611 623.23 18.8193C623.515 18.4694 623.824 18.1764 624.158 17.9404C624.5 17.7044 624.874 17.5864 625.281 17.5864C625.745 17.5864 626.103 17.6719 626.355 17.8428C626.607 18.0137 626.807 18.27 626.953 18.6118C627.108 18.9536 627.238 19.3809 627.344 19.8936C627.45 20.3981 627.584 20.9881 627.747 21.6636C627.974 22.6076 628.219 23.34 628.479 23.8608C628.748 24.3817 629.036 24.6421 629.346 24.6421C629.875 24.6421 630.448 24.5688 631.067 24.4224C631.694 24.2759 632.402 23.9788 633.191 23.5312C633.223 23.515 633.28 23.4865 633.362 23.4458C633.451 23.4051 633.545 23.3685 633.643 23.3359C633.74 23.2952 633.834 23.2627 633.923 23.2383C634.013 23.2057 634.078 23.1895 634.119 23.1895C634.184 23.1895 634.253 23.2057 634.326 23.2383C634.399 23.2708 634.469 23.3156 634.534 23.3726C634.599 23.4295 634.652 23.4946 634.692 23.5679C634.741 23.6411 634.766 23.7225 634.766 23.812ZM638.301 18.502C638.301 18.1439 638.244 17.8916 638.13 17.7451C638.024 17.5986 637.902 17.5254 637.764 17.5254C637.642 17.5254 637.499 17.5986 637.336 17.7451C637.174 17.8916 637.003 18.091 636.824 18.3433C636.653 18.5874 636.478 18.8763 636.299 19.21C636.128 19.5355 635.965 19.8813 635.811 20.2476C635.664 20.6138 635.538 20.9922 635.432 21.3828C635.334 21.7653 635.265 22.1356 635.225 22.4937C635.461 22.2983 635.672 22.1234 635.859 21.9688C636.055 21.806 636.238 21.6351 636.409 21.4561C636.58 21.2852 636.771 21.0776 636.982 20.8335C637.202 20.5812 637.41 20.3208 637.605 20.0522C637.8 19.7837 637.963 19.5151 638.093 19.2466C638.232 18.978 638.301 18.7298 638.301 18.502ZM647.773 19.8203C647.773 19.8854 647.749 19.9871 647.7 20.1255C647.651 20.2638 647.57 20.4266 647.456 20.6138C647.139 21.1183 646.74 21.6676 646.26 22.2617C645.788 22.8558 645.263 23.4499 644.685 24.0439C644.115 24.6299 643.501 25.1995 642.842 25.7529C642.191 26.2982 641.528 26.7824 640.852 27.2056C640.185 27.6287 639.517 27.9705 638.85 28.231C638.183 28.4832 637.548 28.6094 636.946 28.6094C636.181 28.6094 635.514 28.5036 634.944 28.292C634.374 28.0804 633.902 27.7752 633.528 27.3765C633.153 26.9696 632.873 26.4772 632.686 25.8994C632.498 25.3135 632.405 24.6502 632.405 23.9097C632.405 23.3481 632.445 22.7541 632.527 22.1274C632.616 21.5008 632.775 20.866 633.003 20.2231C633.231 19.5721 633.536 18.9211 633.918 18.27C634.309 17.6108 634.806 16.9761 635.408 16.3657C635.872 15.8937 636.372 15.5356 636.909 15.2915C637.446 15.0474 637.959 14.9253 638.447 14.9253C638.537 14.9253 638.651 14.9456 638.789 14.9863C638.927 15.0189 639.066 15.0677 639.204 15.1328C639.342 15.1979 639.477 15.2752 639.607 15.3647C639.737 15.4543 639.843 15.5519 639.924 15.6577C640.185 15.9914 640.38 16.3088 640.51 16.6099C640.64 16.9028 640.706 17.2365 640.706 17.6108C640.706 18.1968 640.624 18.7257 640.461 19.1978C640.299 19.6698 640.075 20.1133 639.79 20.5283C639.513 20.9352 639.184 21.3299 638.801 21.7124C638.419 22.0949 638.008 22.4937 637.568 22.9087C637.3 23.161 636.966 23.4377 636.567 23.7388C636.169 24.0317 635.741 24.3532 635.286 24.7031C635.351 24.9554 635.432 25.1751 635.53 25.3623C635.627 25.5413 635.75 25.6919 635.896 25.814C636.042 25.936 636.217 26.0296 636.421 26.0947C636.632 26.1517 636.881 26.1802 637.166 26.1802C637.548 26.1802 637.955 26.1151 638.386 25.9849C638.826 25.8547 639.265 25.6878 639.705 25.4844C640.087 25.3053 640.465 25.0815 640.84 24.813C641.214 24.5363 641.593 24.2515 641.975 23.9585C642.211 23.7795 642.512 23.5231 642.878 23.1895C643.253 22.8477 643.631 22.4937 644.014 22.1274C644.274 21.8833 644.535 21.6473 644.795 21.4194C645.055 21.1834 645.332 20.923 645.625 20.6382L646.272 20.0034C646.744 19.6209 647.126 19.4297 647.419 19.4297C647.574 19.4297 647.672 19.4744 647.712 19.564C647.753 19.6535 647.773 19.7389 647.773 19.8203ZM665.676 20.272C665.676 20.4266 665.648 20.5975 665.591 20.7847C665.534 20.9637 665.461 21.1427 665.371 21.3218C665.29 21.5008 665.196 21.6717 665.09 21.8345C664.993 21.9891 664.899 22.1193 664.81 22.2251C664.549 22.5506 664.256 22.8965 663.931 23.2627C663.613 23.6289 663.28 23.991 662.93 24.3491C662.58 24.7072 662.222 25.0531 661.855 25.3867C661.489 25.7122 661.123 25.9971 660.757 26.2412C660.472 26.4365 660.195 26.6196 659.927 26.7905C659.666 26.9533 659.394 27.0998 659.109 27.23C658.832 27.3602 658.535 27.4619 658.218 27.5352C657.909 27.6084 657.567 27.645 657.192 27.645C656.582 27.645 656.073 27.5229 655.667 27.2788C655.268 27.0347 654.942 26.7091 654.69 26.3022C654.438 25.8953 654.242 25.4315 654.104 24.9106C653.974 24.3817 653.872 23.8324 653.799 23.2627C653.693 22.4896 653.575 21.8792 653.445 21.4316C653.315 20.9759 653.156 20.748 652.969 20.748C652.806 20.748 652.647 20.7887 652.493 20.8701C652.338 20.9434 652.143 21.1061 651.907 21.3584C651.679 21.6107 651.386 21.981 651.028 22.4692C650.678 22.9494 650.218 23.5923 649.648 24.3979C649.453 24.6746 649.213 24.9839 648.928 25.3257C648.652 25.6675 648.359 25.9971 648.049 26.3145C647.74 26.6237 647.431 26.9004 647.122 27.1445C646.82 27.3805 646.54 27.5433 646.279 27.6328C645.254 27.4049 644.741 26.4243 644.741 24.6909C644.741 24.2515 644.79 23.6045 644.888 22.75C644.937 22.3675 644.989 21.9647 645.046 21.5415C645.111 21.1183 645.189 20.6951 645.278 20.272C645.376 19.8407 645.49 19.4215 645.62 19.0146C645.75 18.5996 645.901 18.2171 646.072 17.8672C646.169 17.6719 646.279 17.5173 646.401 17.4033C646.523 17.2894 646.646 17.2039 646.768 17.147C646.898 17.09 647.032 17.0534 647.17 17.0371C647.309 17.0208 647.447 17.0127 647.585 17.0127C647.708 17.0127 647.826 17.0452 647.939 17.1104C648.053 17.1673 648.155 17.2528 648.245 17.3667C648.334 17.4806 648.403 17.619 648.452 17.7817C648.509 17.9445 648.538 18.1317 648.538 18.3433C648.538 18.5304 648.521 18.7095 648.489 18.8804C648.456 19.0513 648.411 19.2303 648.354 19.4175C648.298 19.5965 648.236 19.7878 648.171 19.9912C648.114 20.1947 648.053 20.4266 647.988 20.687C647.948 20.8579 647.887 21.0776 647.805 21.3462C647.732 21.6147 647.655 21.8955 647.573 22.1885C647.5 22.4733 647.431 22.7541 647.366 23.0308C647.301 23.3075 647.26 23.5394 647.244 23.7266C647.39 23.5557 647.557 23.3441 647.744 23.0918C647.939 22.8314 648.143 22.5547 648.354 22.2617C648.566 21.9606 648.782 21.6554 649.001 21.3462C649.221 21.0369 649.441 20.744 649.661 20.4673C649.945 20.1092 650.226 19.7715 650.503 19.4541C650.78 19.1367 651.069 18.8641 651.37 18.6362C651.679 18.4002 652.013 18.2171 652.371 18.0869C652.729 17.9486 653.132 17.8794 653.579 17.8794C654.108 17.8794 654.539 17.9893 654.873 18.209C655.207 18.4206 655.471 18.7176 655.667 19.1001C655.87 19.4826 656.021 19.9383 656.118 20.4673C656.216 20.9881 656.293 21.5578 656.35 22.1763C656.383 22.4937 656.423 22.8192 656.472 23.1528C656.529 23.4865 656.611 23.7917 656.716 24.0684C656.822 24.3369 656.96 24.5607 657.131 24.7397C657.302 24.9106 657.514 24.9961 657.766 24.9961C658.14 24.9961 658.547 24.8984 658.987 24.7031C659.434 24.4997 659.902 24.223 660.391 23.873C660.879 23.5231 661.379 23.1162 661.892 22.6523C662.405 22.1885 662.917 21.6921 663.43 21.1631C663.593 20.9922 663.748 20.8254 663.894 20.6626C664.049 20.4917 664.195 20.3411 664.333 20.2109C664.472 20.0726 664.606 19.9627 664.736 19.8813C664.867 19.8 664.997 19.7593 665.127 19.7593C665.176 19.7593 665.233 19.7674 665.298 19.7837C665.363 19.7918 665.424 19.8162 665.481 19.8569C665.538 19.8895 665.583 19.9383 665.615 20.0034C665.656 20.0685 665.676 20.158 665.676 20.272ZM673.264 17.8916C673.264 18.0951 673.203 18.266 673.081 18.4043C672.967 18.5345 672.825 18.6403 672.654 18.7217C672.483 18.8031 672.3 18.8641 672.104 18.9048C671.909 18.9373 671.73 18.9618 671.567 18.978C670.957 19.0187 670.347 19.0757 669.736 19.1489C669.126 19.214 668.573 19.2791 668.076 19.3442C667.588 19.4012 667.185 19.4541 666.868 19.5029C666.55 19.5436 666.379 19.564 666.355 19.564C666.298 19.7837 666.225 20.0604 666.135 20.394C666.054 20.7277 665.964 21.0898 665.867 21.4805C665.777 21.863 665.688 22.2576 665.598 22.6646C665.509 23.0633 665.423 23.4458 665.342 23.812C665.269 24.1782 665.208 24.5119 665.159 24.813C665.118 25.106 665.098 25.3379 665.098 25.5088C665.098 25.6471 665.11 25.8221 665.134 26.0337C665.167 26.2371 665.22 26.4365 665.293 26.6318C665.366 26.8271 665.464 26.998 665.586 27.1445C665.708 27.2829 665.863 27.3521 666.05 27.3521C666.18 27.3521 666.339 27.3236 666.526 27.2666C666.721 27.2096 666.933 27.1201 667.161 26.998C667.397 26.876 667.645 26.7214 667.905 26.5342C668.166 26.3389 668.426 26.1029 668.687 25.8262C668.768 25.7367 668.861 25.6431 668.967 25.5454C669.073 25.4478 669.187 25.3623 669.309 25.2891C669.431 25.2077 669.561 25.1426 669.7 25.0938C669.846 25.0368 669.997 25.0083 670.151 25.0083C670.396 25.0083 670.562 25.0612 670.652 25.167C670.741 25.2728 670.786 25.4071 670.786 25.5698C670.786 25.8953 670.693 26.1924 670.505 26.4609C670.318 26.7295 670.082 27.0306 669.797 27.3643C669.667 27.5189 669.46 27.7305 669.175 27.999C668.898 28.2594 668.564 28.5199 668.174 28.7803C667.791 29.0326 667.36 29.2523 666.88 29.4395C666.408 29.6348 665.907 29.7324 665.378 29.7324C664.866 29.7324 664.43 29.6632 664.072 29.5249C663.722 29.3947 663.429 29.2197 663.193 29C662.965 28.7884 662.786 28.5443 662.656 28.2676C662.526 27.9827 662.428 27.6938 662.363 27.4009C662.306 27.1079 662.27 26.819 662.253 26.5342C662.245 26.2493 662.241 25.993 662.241 25.7651C662.241 25.521 662.266 25.2402 662.314 24.9229C662.371 24.5973 662.437 24.2555 662.51 23.8975C662.583 23.5394 662.664 23.1732 662.754 22.7988C662.852 22.4163 662.937 22.0542 663.01 21.7124C663.083 21.3625 663.145 21.041 663.193 20.748C663.25 20.4551 663.279 20.2069 663.279 20.0034C663.279 19.9546 663.271 19.9098 663.254 19.8691C663.246 19.8285 663.218 19.7959 663.169 19.7715C663.12 19.7389 663.043 19.7186 662.937 19.7104C662.831 19.6942 662.685 19.686 662.498 19.686C662.286 19.686 662.058 19.682 661.814 19.6738C661.578 19.6576 661.358 19.6128 661.155 19.5396C660.951 19.4663 660.78 19.3524 660.642 19.1978C660.512 19.035 660.447 18.8071 660.447 18.5142C660.447 18.327 660.475 18.1724 660.532 18.0503C660.597 17.9201 660.679 17.8184 660.776 17.7451C660.882 17.6637 661 17.6068 661.13 17.5742C661.269 17.5417 661.415 17.5213 661.57 17.5132L664.146 17.4033C664.194 17.3138 664.272 17.1388 664.377 16.8784C664.483 16.618 664.601 16.3128 664.731 15.9629C664.87 15.6048 665.008 15.2264 665.146 14.8276C665.285 14.4289 665.411 14.0545 665.525 13.7046C665.688 13.2 665.895 12.8379 666.147 12.6182C666.4 12.3984 666.733 12.2886 667.148 12.2886C667.417 12.2886 667.625 12.3252 667.771 12.3984C667.917 12.4635 668.023 12.549 668.088 12.6548C668.153 12.7606 668.19 12.8826 668.198 13.021C668.215 13.1512 668.223 13.2773 668.223 13.3994C668.223 13.432 668.198 13.5256 668.149 13.6802C668.109 13.8348 668.052 14.026 667.979 14.2539C667.905 14.4736 667.824 14.7178 667.734 14.9863C667.645 15.2549 667.551 15.5275 667.454 15.8042C667.364 16.0728 667.275 16.3332 667.185 16.5854C667.104 16.8296 667.035 17.0412 666.978 17.2202C667.075 17.2121 667.234 17.1958 667.454 17.1714C667.681 17.147 667.942 17.1226 668.235 17.0981C668.528 17.0656 668.833 17.0371 669.15 17.0127C669.476 16.9801 669.777 16.9517 670.054 16.9272C670.339 16.8947 670.583 16.8703 670.786 16.854C670.998 16.8377 671.136 16.8296 671.201 16.8296C671.641 16.8296 671.995 16.854 672.263 16.9028C672.54 16.9435 672.751 17.0086 672.898 17.0981C673.044 17.1877 673.142 17.2975 673.191 17.4277C673.24 17.5579 673.264 17.7126 673.264 17.8916Z" fill="white"/>
</g>
<defs>
<filter id="filter0_d_40_32" x="0" y="0.0302734" width="1190" height="65.2441" filterUnits="userSpaceOnUse" color-interpolation-filters="sRGB">
<feFlood flood-opacity="0" result="BackgroundImageFix"/>
<feColorMatrix in="SourceAlpha" type="matrix" values="0 0 0 0 0 0 0 0 0 0 0 0 0 0 0 0 0 0 127 0" result="hardAlpha"/>
<feOffset dx="5" dy="10"/>
<feGaussianBlur stdDeviation="10"/>
<feComposite in2="hardAlpha" operator="out"/>
<feColorMatrix type="matrix" values="0 0 0 0 0 0 0 0 0 0 0 0 0 0 0 0 0 0 0.35 0"/>
<feBlend mode="normal" in2="BackgroundImageFix" result="effect1_dropShadow_40_32"/>
<feBlend mode="normal" in="SourceGraphic" in2="effect1_dropShadow_40_32" result="shape"/>
</filter>
<linearGradient id="paint0_linear_40_32" x1="15" y1="21.5" x2="1165" y2="21.4956" gradientUnits="userSpaceOnUse">
<stop stop-color="#73F7FF"/>
<stop offset="0.387894" stop-color="#6391FF"/>
<stop offset="0.444936" stop-opacity="0"/>
<stop offset="0.550922" stop-opacity="0"/>
<stop offset="0.618257" stop-color="#5A5AFF"/>
<stop offset="1" stop-color="#E338FF"/>
</linearGradient>
<linearGradient id="paint1_linear_40_32" x1="15" y1="21.5" x2="1165" y2="21.4956" gradientUnits="userSpaceOnUse">
<stop stop-color="#73F7FF"/>
<stop offset="0.387894" stop-color="#6391FF"/>
<stop offset="0.444936" stop-opacity="0"/>
<stop offset="0.550922" stop-opacity="0"/>
<stop offset="0.618257" stop-color="#5A5AFF"/>
<stop offset="1" stop-color="#E338FF"/>
</linearGradient>
</defs>
</svg>
