<svg width="1150" height="26" viewBox="0 0 1150 26" fill="none" xmlns="http://www.w3.org/2000/svg">
<path d="M0 11.5C0 12.8807 1.11929 14 2.5 14H1147.5C1148.88 14 1150 12.8807 1150 11.5V11.5C1150 10.1193 1148.88 9 1147.5 9H1002.42H803.722H589.056H392.278H165.472H2.5C1.11929 9 0 10.1193 0 11.5V11.5Z" fill="url(#paint0_linear_40_32)"/>
<path d="M0 11.5C0 12.8807 1.11929 14 2.5 14H1147.5C1148.88 14 1150 12.8807 1150 11.5V11.5C1150 10.1193 1148.88 9 1147.5 9H1002.42H803.722H589.056H392.278H165.472H2.5C1.11929 9 0 10.1193 0 11.5V11.5Z" fill="url(#paint1_linear_40_32)"/>
<path d="M511.157 8.02588C511.157 7.48877 511.051 7.03304 510.84 6.65869C510.636 6.2762 510.364 5.95475 510.022 5.69434C509.688 5.43392 509.306 5.23047 508.875 5.08398C508.443 4.9375 508.004 4.82764 507.556 4.75439C507.011 4.66488 506.466 4.59977 505.92 4.55908C505.375 4.51025 504.822 4.48584 504.26 4.48584C504.024 4.48584 503.768 4.49805 503.491 4.52246C503.223 4.53874 502.942 4.56315 502.649 4.5957C502.356 4.62012 502.059 4.6486 501.758 4.68115C501.465 4.70557 501.176 4.72184 500.891 4.72998C500.753 5.42985 500.614 6.12972 500.476 6.82959C500.346 7.52132 500.224 8.16829 500.11 8.77051C499.996 9.36458 499.898 9.88949 499.817 10.3452C499.736 10.8009 499.683 11.1346 499.658 11.3462C499.593 11.8101 499.528 12.2943 499.463 12.7988C499.406 13.2952 499.377 13.751 499.377 14.166C499.377 14.3695 499.386 14.5485 499.402 14.7031C499.418 14.8577 499.447 15.0042 499.487 15.1426C500.236 15.0124 501.025 14.8089 501.855 14.5322C502.686 14.2474 503.609 13.9341 504.626 13.5923C505.164 13.4132 505.668 13.2301 506.14 13.043C506.62 12.8558 507.052 12.6727 507.434 12.4937C507.825 12.3065 508.162 12.1274 508.447 11.9565C508.74 11.7775 508.972 11.6107 509.143 11.4561C509.2 11.4072 509.285 11.3136 509.399 11.1753C509.521 11.0369 509.656 10.8701 509.802 10.6748C509.957 10.4795 510.111 10.2679 510.266 10.04C510.429 9.80404 510.575 9.56803 510.706 9.33203C510.836 9.08789 510.942 8.85596 511.023 8.63623C511.112 8.40837 511.157 8.20492 511.157 8.02588ZM514.136 8.02588C514.136 9.06755 513.729 10.1011 512.915 11.1265C512.174 12.0623 511.198 12.9372 509.985 13.751C509.448 14.1172 508.866 14.4712 508.24 14.813C507.613 15.1466 506.991 15.4559 506.372 15.7407C505.745 16.0256 505.151 16.2738 504.59 16.4854C504.036 16.6969 503.52 16.876 503.04 17.0225C502.706 17.1283 502.344 17.2625 501.953 17.4253C501.562 17.5799 501.111 17.7915 500.598 18.0601C500.37 18.1821 500.134 18.2839 499.89 18.3652C499.646 18.4385 499.414 18.4995 499.194 18.5483C498.983 18.5972 498.792 18.6338 498.621 18.6582C498.45 18.6745 498.328 18.6826 498.254 18.6826C497.766 18.6826 497.347 18.5443 496.997 18.2676C496.647 17.9909 496.419 17.6247 496.313 17.1689C496.232 16.8271 496.171 16.5382 496.13 16.3022C496.098 16.0662 496.082 15.8872 496.082 15.7651C496.082 15.7163 496.09 15.6471 496.106 15.5576C496.122 15.46 496.139 15.3623 496.155 15.2646C496.171 15.167 496.187 15.0693 496.204 14.9717C496.22 14.874 496.228 14.7967 496.228 14.7397C496.228 14.6502 496.232 14.5444 496.24 14.4224C496.257 14.3003 496.273 14.1742 496.289 14.0439C496.313 13.9137 496.334 13.7835 496.35 13.6533C496.375 13.5231 496.395 13.4051 496.411 13.2993C496.623 12.2088 496.806 11.1021 496.96 9.979C497.123 8.84782 497.331 7.69222 497.583 6.51221C497.607 6.39827 497.636 6.27214 497.668 6.13379C497.701 5.99544 497.734 5.8571 497.766 5.71875C497.799 5.57227 497.827 5.43799 497.852 5.31592C497.876 5.18571 497.888 5.07992 497.888 4.99854C497.888 4.86019 497.856 4.77067 497.791 4.72998C497.734 4.68115 497.652 4.62012 497.546 4.54688C497.432 4.45736 497.335 4.38005 497.253 4.31494C497.172 4.2417 497.103 4.17253 497.046 4.10742C496.997 4.03418 496.96 3.95687 496.936 3.87549C496.912 3.79411 496.899 3.69645 496.899 3.58252C496.899 3.40348 496.944 3.21224 497.034 3.00879C497.131 2.7972 497.257 2.60596 497.412 2.43506C497.575 2.25602 497.758 2.10954 497.961 1.99561C498.173 1.87354 498.393 1.8125 498.621 1.8125C498.792 1.8125 499.015 1.82471 499.292 1.84912C499.569 1.8654 499.845 1.88981 500.122 1.92236C500.399 1.94678 500.647 1.97119 500.867 1.99561C501.095 2.01188 501.241 2.02002 501.306 2.02002C501.9 2.02002 502.568 1.99561 503.308 1.94678C504.057 1.89795 504.801 1.87354 505.542 1.87354C506.608 1.87354 507.605 1.97933 508.533 2.19092C509.46 2.39437 510.307 2.71582 511.072 3.15527C511.243 3.25293 511.43 3.37093 511.633 3.50928C511.837 3.64762 512.044 3.81852 512.256 4.02197C512.467 4.21729 512.675 4.45329 512.878 4.72998C513.09 5.00667 513.285 5.34033 513.464 5.73096C513.676 6.18669 513.839 6.61393 513.953 7.0127C514.075 7.40332 514.136 7.74105 514.136 8.02588ZM521.284 8.50195C521.284 8.14388 521.227 7.8916 521.113 7.74512C521.007 7.59863 520.885 7.52539 520.747 7.52539C520.625 7.52539 520.483 7.59863 520.32 7.74512C520.157 7.8916 519.986 8.09098 519.807 8.34326C519.636 8.5874 519.461 8.8763 519.282 9.20996C519.111 9.53548 518.949 9.88135 518.794 10.2476C518.647 10.6138 518.521 10.9922 518.416 11.3828C518.318 11.7653 518.249 12.1356 518.208 12.4937C518.444 12.2983 518.656 12.1234 518.843 11.9688C519.038 11.806 519.221 11.6351 519.392 11.4561C519.563 11.2852 519.754 11.0776 519.966 10.8335C520.186 10.5812 520.393 10.3208 520.588 10.0522C520.784 9.78369 520.946 9.51514 521.077 9.24658C521.215 8.97803 521.284 8.72982 521.284 8.50195ZM530.757 9.82031C530.757 9.88542 530.732 9.98714 530.684 10.1255C530.635 10.2638 530.553 10.4266 530.439 10.6138C530.122 11.1183 529.723 11.6676 529.243 12.2617C528.771 12.8558 528.246 13.4499 527.668 14.0439C527.099 14.6299 526.484 15.1995 525.825 15.7529C525.174 16.2982 524.511 16.7824 523.835 17.2056C523.168 17.6287 522.501 17.9705 521.833 18.231C521.166 18.4832 520.531 18.6094 519.929 18.6094C519.164 18.6094 518.497 18.5036 517.927 18.292C517.358 18.0804 516.886 17.7752 516.511 17.3765C516.137 16.9696 515.856 16.4772 515.669 15.8994C515.482 15.3135 515.388 14.6502 515.388 13.9097C515.388 13.3481 515.429 12.7541 515.51 12.1274C515.6 11.5008 515.758 10.866 515.986 10.2231C516.214 9.5721 516.519 8.92106 516.902 8.27002C517.292 7.61084 517.789 6.97607 518.391 6.36572C518.855 5.89372 519.355 5.53564 519.893 5.2915C520.43 5.04736 520.942 4.92529 521.431 4.92529C521.52 4.92529 521.634 4.94564 521.772 4.98633C521.911 5.01888 522.049 5.06771 522.188 5.13281C522.326 5.19792 522.46 5.27523 522.59 5.36475C522.721 5.45426 522.826 5.55192 522.908 5.65771C523.168 5.99137 523.363 6.30876 523.494 6.60986C523.624 6.90283 523.689 7.23649 523.689 7.61084C523.689 8.19678 523.608 8.72575 523.445 9.19775C523.282 9.66976 523.058 10.1133 522.773 10.5283C522.497 10.9352 522.167 11.3299 521.785 11.7124C521.402 12.0949 520.991 12.4937 520.552 12.9087C520.283 13.161 519.95 13.4377 519.551 13.7388C519.152 14.0317 518.725 14.3532 518.269 14.7031C518.334 14.9554 518.416 15.1751 518.513 15.3623C518.611 15.5413 518.733 15.6919 518.879 15.814C519.026 15.936 519.201 16.0296 519.404 16.0947C519.616 16.1517 519.864 16.1802 520.149 16.1802C520.531 16.1802 520.938 16.1151 521.37 15.9849C521.809 15.8547 522.249 15.6878 522.688 15.4844C523.07 15.3053 523.449 15.0815 523.823 14.813C524.198 14.5363 524.576 14.2515 524.958 13.9585C525.194 13.7795 525.496 13.5231 525.862 13.1895C526.236 12.8477 526.615 12.4937 526.997 12.1274C527.257 11.8833 527.518 11.6473 527.778 11.4194C528.039 11.1834 528.315 10.923 528.608 10.6382L529.255 10.0034C529.727 9.62093 530.11 9.42969 530.403 9.42969C530.557 9.42969 530.655 9.47445 530.696 9.56396C530.736 9.65348 530.757 9.73893 530.757 9.82031ZM545.645 13.4336C545.645 13.5638 545.596 13.7103 545.498 13.873C545.409 14.0358 545.286 14.1986 545.132 14.3613C544.977 14.5241 544.794 14.6828 544.583 14.8374C544.379 14.992 544.163 15.1304 543.936 15.2524C543.496 15.4722 543.032 15.6349 542.544 15.7407C542.064 15.8384 541.58 15.8872 541.091 15.8872C540.79 15.8872 540.461 15.8343 540.103 15.7285C539.744 15.6227 539.403 15.464 539.077 15.2524C538.752 15.0327 538.467 14.756 538.223 14.4224C537.987 14.0887 537.836 13.694 537.771 13.2383C537.747 13.3766 537.706 13.5272 537.649 13.6899C537.592 13.8446 537.527 14.0033 537.454 14.166C537.38 14.3206 537.303 14.4793 537.222 14.6421C537.148 14.7967 537.075 14.9432 537.002 15.0815C536.799 15.4722 536.575 15.8709 536.331 16.2778C536.095 16.6766 535.854 17.0591 535.61 17.4253C535.366 17.7915 535.134 18.1292 534.915 18.4385C534.703 18.7396 534.52 18.9878 534.365 19.1831C534.162 19.4517 533.95 19.6632 533.73 19.8179C533.511 19.9806 533.299 20.1068 533.096 20.1963C532.892 20.2858 532.709 20.3428 532.546 20.3672C532.384 20.3997 532.257 20.416 532.168 20.416C532.046 20.416 531.912 20.3835 531.765 20.3184C531.619 20.2614 531.476 20.1841 531.338 20.0864C531.208 19.9969 531.09 19.8911 530.984 19.769C530.886 19.6551 530.817 19.5371 530.776 19.415C530.768 18.9512 530.691 18.3652 530.544 17.6572C530.406 16.9411 530.142 16.0581 529.751 15.0083C529.328 13.8771 529.031 12.8843 528.86 12.0298C528.697 11.1672 528.616 10.4307 528.616 9.82031C528.616 9.2832 528.783 8.84782 529.116 8.51416C529.45 8.1805 529.906 8.01367 530.483 8.01367C530.728 8.01367 530.931 8.05029 531.094 8.12354C531.257 8.19678 531.391 8.2985 531.497 8.42871C531.602 8.55078 531.676 8.69727 531.716 8.86816C531.765 9.03906 531.79 9.2181 531.79 9.40527C531.79 9.64128 531.753 9.87321 531.68 10.1011C531.615 10.3289 531.582 10.5568 531.582 10.7847C531.582 11.0614 531.611 11.3747 531.667 11.7246C531.733 12.0745 531.81 12.4448 531.899 12.8354C531.997 13.2261 532.103 13.6248 532.217 14.0317C532.339 14.4386 532.457 14.8333 532.571 15.2158C532.685 15.5983 532.791 15.9604 532.888 16.3022C532.986 16.644 533.063 16.9411 533.12 17.1934C533.242 17.0306 533.385 16.819 533.547 16.5586C533.718 16.2982 533.889 16.0256 534.06 15.7407C534.231 15.4478 534.394 15.167 534.548 14.8984C534.711 14.6217 534.841 14.3898 534.939 14.2026C535.053 13.9829 535.183 13.7225 535.33 13.4214C535.476 13.1121 535.618 12.7948 535.757 12.4692C535.903 12.1356 536.034 11.806 536.147 11.4805C536.27 11.1549 536.359 10.866 536.416 10.6138C536.489 10.2476 536.652 9.93831 536.904 9.68604C537.165 9.43376 537.502 9.30762 537.917 9.30762C538.048 9.30762 538.186 9.33203 538.333 9.38086C538.479 9.42155 538.617 9.50293 538.748 9.625C538.878 9.73893 538.984 9.89355 539.065 10.0889C539.154 10.276 539.203 10.5161 539.211 10.8091C539.22 11.2974 539.297 11.7409 539.443 12.1396C539.59 12.5303 539.773 12.868 539.993 13.1528C540.221 13.4295 540.465 13.6452 540.725 13.7998C540.994 13.9463 541.25 14.0195 541.494 14.0195C541.689 14.0195 541.893 14.0073 542.104 13.9829C542.324 13.9504 542.54 13.9097 542.751 13.8608C542.963 13.812 543.167 13.755 543.362 13.6899C543.557 13.6167 543.728 13.5435 543.875 13.4702C544.119 13.34 544.338 13.2342 544.534 13.1528C544.729 13.0715 544.928 13.0308 545.132 13.0308C545.343 13.047 545.482 13.0959 545.547 13.1772C545.612 13.2505 545.645 13.3359 545.645 13.4336ZM549.338 8.09912C549.338 7.78174 549.285 7.55794 549.18 7.42773C549.082 7.29753 548.984 7.23242 548.887 7.23242C548.667 7.23242 548.443 7.30566 548.215 7.45215C547.996 7.59863 547.78 7.79395 547.568 8.03809C547.365 8.28223 547.166 8.56299 546.97 8.88037C546.783 9.18962 546.616 9.51514 546.47 9.85693C546.323 10.1906 546.201 10.5243 546.104 10.8579C546.006 11.1834 545.941 11.4805 545.908 11.749C546.421 11.334 546.889 10.9474 547.312 10.5894C547.735 10.2231 548.093 9.88542 548.386 9.57617C548.687 9.26693 548.919 8.99023 549.082 8.74609C549.253 8.49382 549.338 8.27816 549.338 8.09912ZM558.518 7.94043C558.518 8.11947 558.437 8.4165 558.274 8.83154C558.111 9.24658 557.887 9.71859 557.603 10.2476C557.318 10.7684 556.984 11.3218 556.602 11.9077C556.219 12.4855 555.808 13.0308 555.369 13.5435C554.913 14.0806 554.4 14.6055 553.831 15.1182C553.261 15.6309 552.646 16.0907 551.987 16.4976C551.336 16.8963 550.645 17.2178 549.912 17.4619C549.188 17.7061 548.435 17.8281 547.654 17.8281C546.816 17.8281 546.104 17.6938 545.518 17.4253C544.932 17.1486 544.451 16.7865 544.077 16.3389C543.711 15.8913 543.442 15.3826 543.271 14.813C543.109 14.2433 543.027 13.6655 543.027 13.0796C543.027 12.5669 543.076 12.0542 543.174 11.5415C543.28 11.0207 543.422 10.512 543.601 10.0156C543.788 9.51921 544.008 9.03906 544.26 8.5752C544.513 8.11133 544.793 7.68408 545.103 7.29346C545.298 7.04118 545.538 6.77262 545.823 6.48779C546.116 6.20296 546.445 5.94255 546.812 5.70654C547.186 5.4624 547.593 5.26302 548.032 5.1084C548.472 4.94564 548.94 4.86426 549.436 4.86426C549.819 4.86426 550.152 4.94564 550.437 5.1084C550.73 5.26302 550.97 5.4624 551.157 5.70654C551.353 5.95068 551.499 6.22331 551.597 6.52441C551.694 6.81738 551.743 7.09814 551.743 7.3667C551.743 7.84684 551.65 8.31885 551.462 8.78271C551.275 9.24658 550.978 9.72266 550.571 10.2109C550.164 10.6992 549.631 11.2078 548.972 11.7368C548.321 12.2658 547.528 12.8314 546.592 13.4336C546.527 13.4743 546.453 13.519 546.372 13.5679C546.291 13.6167 546.213 13.6655 546.14 13.7144C546.067 13.7632 546.006 13.8079 545.957 13.8486C545.916 13.8812 545.896 13.9015 545.896 13.9097C545.937 14.0887 545.99 14.2677 546.055 14.4468C546.12 14.6258 546.226 14.7886 546.372 14.9351C546.519 15.0734 546.718 15.1873 546.97 15.2769C547.222 15.3664 547.552 15.4111 547.959 15.4111C548.276 15.4111 548.614 15.3786 548.972 15.3135C549.33 15.2402 549.692 15.1344 550.059 14.9961C550.425 14.8577 550.783 14.6909 551.133 14.4956C551.491 14.2922 551.829 14.0602 552.146 13.7998C552.561 13.4661 552.996 13.0715 553.452 12.6157C553.908 12.16 554.355 11.6676 554.795 11.1387C555.243 10.6016 555.666 10.036 556.064 9.44189C556.471 8.84782 556.829 8.24154 557.139 7.62305C557.261 7.38704 557.419 7.22428 557.615 7.13477C557.81 7.04525 557.977 7.00049 558.115 7.00049C558.213 7.00049 558.302 7.06559 558.384 7.1958C558.473 7.32601 558.518 7.57422 558.518 7.94043ZM566.997 11.5537C566.997 11.7409 566.948 11.9769 566.851 12.2617C566.761 12.5384 566.606 12.8639 566.387 13.2383C566.167 13.6045 565.874 14.0195 565.508 14.4834C565.142 14.9473 564.686 15.4559 564.141 16.0093C563.84 16.3104 563.498 16.6115 563.115 16.9126C562.741 17.2137 562.342 17.4823 561.919 17.7183C561.496 17.9461 561.056 18.1333 560.601 18.2798C560.153 18.4263 559.705 18.4995 559.258 18.4995C558.656 18.4995 558.09 18.3937 557.561 18.1821C557.04 17.9705 556.584 17.6491 556.194 17.2178C555.803 16.7783 555.494 16.229 555.266 15.5698C555.046 14.9106 554.937 14.1375 554.937 13.2505C554.937 12.6727 554.965 12.0745 555.022 11.4561C555.079 10.8294 555.148 10.1987 555.229 9.56396C555.319 8.9292 555.417 8.30257 555.522 7.68408C555.636 7.05745 555.746 6.45931 555.852 5.88965C555.925 5.49902 555.986 5.15316 556.035 4.85205C556.084 4.55094 556.129 4.24984 556.169 3.94873C556.218 3.64762 556.271 3.32617 556.328 2.98438C556.385 2.63444 556.454 2.22347 556.536 1.75146C556.576 1.5236 556.646 1.30794 556.743 1.10449C556.841 0.892904 556.963 0.709798 557.109 0.555176C557.264 0.392415 557.443 0.266276 557.646 0.176758C557.85 0.0791016 558.074 0.0302734 558.318 0.0302734C558.92 0.0302734 559.36 0.311035 559.636 0.872559L559.502 1.56836C559.429 1.95898 559.331 2.41878 559.209 2.94775C559.095 3.46859 558.969 4.03825 558.831 4.65674C558.7 5.27523 558.566 5.92627 558.428 6.60986C558.298 7.28532 558.175 7.97298 558.062 8.67285C557.956 9.37272 557.866 10.0685 557.793 10.7603C557.728 11.452 557.695 12.1193 557.695 12.7622C557.695 13.2505 557.728 13.694 557.793 14.0928C557.866 14.4915 557.98 14.8333 558.135 15.1182C558.289 15.3949 558.489 15.6105 558.733 15.7651C558.977 15.9198 559.27 15.9971 559.612 15.9971C559.954 15.9971 560.308 15.9279 560.674 15.7896C561.04 15.6431 561.406 15.4559 561.772 15.228C562.147 15.0002 562.509 14.7397 562.859 14.4468C563.217 14.1538 563.551 13.8608 563.86 13.5679C564.169 13.2668 564.446 12.9779 564.69 12.7012C564.934 12.4163 565.133 12.1722 565.288 11.9688C565.361 11.8711 565.439 11.7694 565.52 11.6636C565.61 11.5496 565.707 11.4438 565.813 11.3462C565.927 11.2485 566.045 11.1672 566.167 11.1021C566.297 11.0369 566.436 11.0044 566.582 11.0044C566.696 11.0044 566.794 11.0532 566.875 11.1509C566.956 11.2404 566.997 11.3747 566.997 11.5537ZM581.335 8.35547C581.335 8.51009 581.283 8.67692 581.177 8.85596C581.079 9.02686 580.949 9.20182 580.786 9.38086C580.632 9.55176 580.452 9.72266 580.249 9.89355C580.046 10.0645 579.842 10.2231 579.639 10.3696C579.435 10.508 579.24 10.63 579.053 10.7358C578.874 10.8416 578.723 10.923 578.601 10.98C578.381 11.0695 578.097 11.1549 577.747 11.2363C577.405 11.3096 577.043 11.3747 576.66 11.4316C576.286 11.4805 575.92 11.5212 575.562 11.5537C575.212 11.5863 574.915 11.6025 574.67 11.6025C574.613 11.6025 574.532 11.5985 574.426 11.5903C574.329 11.5741 574.219 11.5537 574.097 11.5293C573.983 11.5049 573.865 11.4764 573.743 11.4438C573.629 11.4032 573.531 11.3543 573.45 11.2974C573.539 11.4845 573.588 11.6921 573.596 11.9199C573.612 12.1396 573.621 12.3594 573.621 12.5791C573.621 12.7337 573.604 12.9168 573.572 13.1284C573.539 13.34 573.494 13.5557 573.438 13.7754C573.389 13.9951 573.328 14.2067 573.254 14.4102C573.181 14.6136 573.104 14.7845 573.022 14.9229C572.819 15.2728 572.599 15.5942 572.363 15.8872C572.135 16.1802 571.879 16.4528 571.594 16.7051C571.309 16.9574 570.988 17.1934 570.63 17.4131C570.272 17.6328 569.857 17.8485 569.385 18.0601C568.88 18.2798 568.376 18.4344 567.871 18.5239C567.367 18.6053 566.846 18.646 566.309 18.646C565.91 18.646 565.556 18.5443 565.247 18.3408C564.937 18.1292 564.677 17.8485 564.465 17.4985C564.254 17.1486 564.091 16.7458 563.977 16.29C563.871 15.8343 563.818 15.3582 563.818 14.8618C563.818 14.7397 563.826 14.5892 563.843 14.4102C563.867 14.223 563.896 14.0358 563.928 13.8486C563.969 13.6615 564.01 13.4784 564.05 13.2993C564.099 13.1203 564.144 12.9697 564.185 12.8477C564.299 12.5059 564.461 12.1152 564.673 11.6758C564.893 11.2363 565.149 10.7887 565.442 10.333C565.735 9.86914 566.06 9.41748 566.418 8.97803C566.777 8.53044 567.155 8.13574 567.554 7.79395C567.961 7.44401 568.38 7.16325 568.811 6.95166C569.25 6.74007 569.69 6.63428 570.129 6.63428C570.317 6.63428 570.467 6.65462 570.581 6.69531C570.695 6.72786 570.789 6.77669 570.862 6.8418C570.935 6.89876 571 6.96794 571.057 7.04932C571.122 7.12256 571.191 7.1958 571.265 7.26904C571.322 7.25277 571.379 7.24056 571.436 7.23242C571.501 7.22428 571.566 7.22021 571.631 7.22021C571.883 7.22021 572.131 7.31787 572.375 7.51318C572.62 7.7085 572.868 7.92415 573.12 8.16016C573.234 8.26595 573.348 8.37581 573.462 8.48975C573.584 8.59554 573.694 8.6932 573.792 8.78271C573.889 8.8641 573.975 8.93327 574.048 8.99023C574.129 9.03906 574.186 9.06348 574.219 9.06348C574.43 9.06348 574.658 9.06348 574.902 9.06348C575.155 9.05534 575.407 9.0472 575.659 9.03906C575.92 9.02279 576.168 9.00244 576.404 8.97803C576.648 8.95361 576.868 8.92513 577.063 8.89258C577.087 8.88444 577.193 8.86003 577.38 8.81934C577.568 8.77051 577.791 8.71354 578.052 8.64844C578.32 8.5752 578.609 8.49788 578.918 8.4165C579.228 8.33512 579.513 8.26188 579.773 8.19678C580.042 8.12354 580.269 8.06657 580.457 8.02588C580.652 7.97705 580.766 7.95264 580.798 7.95264C580.961 7.95264 581.091 7.97298 581.189 8.01367C581.287 8.05436 581.335 8.16829 581.335 8.35547ZM567.249 16.4976C567.908 16.4976 568.49 16.3226 568.994 15.9727C569.507 15.6227 569.938 15.1589 570.288 14.5811C570.638 13.9951 570.907 13.3319 571.094 12.5913C571.289 11.8426 571.391 11.0736 571.399 10.2842C571.342 10.1621 571.257 10.036 571.143 9.90576C571.037 9.77555 570.915 9.66162 570.776 9.56396C570.638 9.45817 570.496 9.37272 570.349 9.30762C570.203 9.24251 570.068 9.20996 569.946 9.20996C569.751 9.20996 569.539 9.28727 569.312 9.44189C569.084 9.59652 568.872 9.75521 568.677 9.91797C568.481 10.0807 568.286 10.2964 568.091 10.5649C567.904 10.8254 567.729 11.1183 567.566 11.4438C567.403 11.7694 567.253 12.1152 567.114 12.4814C566.976 12.8395 566.858 13.1976 566.76 13.5557C566.663 13.9056 566.585 14.2474 566.528 14.5811C566.479 14.9147 566.455 15.2118 566.455 15.4722C566.455 15.6024 566.475 15.7285 566.516 15.8506C566.557 15.9727 566.61 16.0825 566.675 16.1802C566.748 16.2778 566.833 16.3551 566.931 16.4121C567.029 16.4691 567.135 16.4976 567.249 16.4976ZM597.188 9.72266C597.188 10.0075 597.102 10.3045 596.931 10.6138C596.768 10.923 596.504 11.2323 596.138 11.5415C595.389 12.1763 594.535 12.7826 593.574 13.3604C592.622 13.9382 591.556 14.4997 590.376 15.0449C589.237 15.5739 588.158 16.0296 587.141 16.4121C586.124 16.7865 585.123 17.1079 584.138 17.3765C584.065 17.3927 583.979 17.409 583.882 17.4253C583.784 17.4334 583.666 17.4375 583.528 17.4375C583.251 17.4375 582.995 17.3968 582.759 17.3154C582.531 17.234 582.332 17.1242 582.161 16.9858C581.99 16.8475 581.855 16.6847 581.758 16.4976C581.668 16.3104 581.624 16.1069 581.624 15.8872C581.624 15.7326 581.685 15.5942 581.807 15.4722C581.937 15.342 582.108 15.224 582.319 15.1182C582.539 15.0042 582.791 14.8984 583.076 14.8008C583.369 14.695 583.674 14.5933 583.992 14.4956C584.089 14.4712 584.203 14.4427 584.333 14.4102C584.464 14.3776 584.598 14.3491 584.736 14.3247C584.883 14.2922 585.025 14.2596 585.164 14.2271C585.31 14.1945 585.436 14.166 585.542 14.1416C585.884 13.9544 586.209 13.6899 586.519 13.3481C586.836 13.0063 587.113 12.6361 587.349 12.2373C587.593 11.8385 587.784 11.4398 587.922 11.041C588.061 10.6341 588.13 10.2842 588.13 9.99121C588.13 9.16113 587.943 8.74609 587.568 8.74609C587.414 8.74609 587.222 8.78678 586.995 8.86816C586.767 8.94954 586.523 9.05941 586.262 9.19775C586.01 9.32796 585.754 9.47445 585.493 9.63721C585.241 9.79997 585.009 9.96273 584.797 10.1255C584.496 10.3615 584.159 10.687 583.784 11.1021C583.418 11.509 583.048 11.9565 582.673 12.4448C582.307 12.925 581.961 13.4214 581.636 13.9341C581.31 14.4386 581.038 14.9066 580.818 15.3379C580.777 15.7041 580.736 16.1069 580.696 16.5464C580.655 16.9777 580.614 17.4538 580.574 17.9746C580.525 18.4954 580.488 19.0244 580.464 19.5615C580.448 20.1068 580.427 20.6357 580.403 21.1484C580.378 21.6611 580.35 22.1453 580.317 22.6011C580.285 23.0649 580.232 23.4759 580.159 23.834C580.159 24.3385 580.061 24.7048 579.866 24.9326C579.67 25.1605 579.394 25.2744 579.036 25.2744C578.84 25.2744 578.633 25.2297 578.413 25.1401C578.193 25.0506 577.99 24.9367 577.803 24.7983C577.616 24.6681 577.461 24.5257 577.339 24.3711C577.217 24.2165 577.156 24.07 577.156 23.9316C577.156 23.777 577.164 23.6061 577.18 23.4189C577.205 23.2318 577.229 23.0243 577.253 22.7964C577.294 22.479 577.331 22.1698 577.363 21.8687C577.396 21.5757 577.424 21.3031 577.449 21.0508C577.481 20.7985 577.51 20.5706 577.534 20.3672C577.559 20.1637 577.579 19.9969 577.595 19.8667C577.709 19.0773 577.807 18.2065 577.888 17.2544C577.978 16.2941 578.047 15.2931 578.096 14.2515C578.136 13.283 578.161 12.3879 578.169 11.5659C578.185 10.744 578.238 10.036 578.328 9.44189C578.425 8.83968 578.588 8.37174 578.816 8.03809C579.044 7.69629 579.394 7.52539 579.866 7.52539C580.077 7.52539 580.264 7.57015 580.427 7.65967C580.598 7.74919 580.745 7.86312 580.867 8.00146C580.989 8.13981 581.082 8.29443 581.147 8.46533C581.213 8.63623 581.245 8.80713 581.245 8.97803C581.245 9.29541 581.2 9.66569 581.111 10.0889C581.029 10.5039 580.948 10.9922 580.867 11.5537C581.038 11.2607 581.221 10.9678 581.416 10.6748C581.619 10.3737 581.823 10.0848 582.026 9.80811C582.238 9.53141 582.445 9.271 582.649 9.02686C582.861 8.78271 583.064 8.57113 583.259 8.39209C584.041 7.66781 584.826 7.1307 585.615 6.78076C586.014 6.60173 586.441 6.47559 586.897 6.40234C587.361 6.32096 587.861 6.28027 588.398 6.28027C588.757 6.28027 589.078 6.39827 589.363 6.63428C589.648 6.87028 589.888 7.15918 590.083 7.50098C590.286 7.83464 590.441 8.19271 590.547 8.5752C590.653 8.94954 590.706 9.2832 590.706 9.57617C590.706 9.86914 590.645 10.2028 590.522 10.5771C590.409 10.9434 590.258 11.3136 590.071 11.688C589.892 12.0542 589.684 12.4082 589.448 12.75C589.22 13.0918 588.988 13.3766 588.752 13.6045C589.322 13.3604 589.92 13.0796 590.547 12.7622C591.174 12.4448 591.784 12.1152 592.378 11.7734C592.98 11.4235 593.546 11.0695 594.075 10.7114C594.612 10.3452 595.076 9.99528 595.466 9.66162C595.653 9.49886 595.849 9.37679 596.052 9.29541C596.264 9.20589 596.463 9.16113 596.65 9.16113C596.829 9.16113 596.964 9.19775 597.053 9.271C597.143 9.34424 597.188 9.49479 597.188 9.72266ZM619.766 13.812C619.766 13.9259 619.721 14.0602 619.631 14.2148C619.542 14.3613 619.432 14.5119 619.302 14.6665C619.172 14.813 619.029 14.9554 618.875 15.0938C618.728 15.224 618.59 15.3298 618.459 15.4111C617.678 15.8994 616.913 16.2819 616.165 16.5586C615.424 16.8353 614.647 16.9736 613.833 16.9736C613.32 16.9736 612.865 16.8678 612.466 16.6562C612.075 16.4365 611.737 16.1232 611.453 15.7163C611.168 15.3094 610.924 14.813 610.72 14.2271C610.525 13.633 610.366 12.9657 610.244 12.2251C610.212 12.0135 610.175 11.8101 610.134 11.6147C610.094 11.4194 610.057 11.2485 610.024 11.1021C609.992 10.9474 609.963 10.8254 609.939 10.7358C609.915 10.6463 609.898 10.6016 609.89 10.6016C609.703 10.6016 609.422 10.8864 609.048 11.4561C608.682 12.0176 608.21 12.807 607.632 13.8242C607.306 14.3939 607.001 14.9066 606.716 15.3623C606.431 15.8099 606.159 16.1883 605.898 16.4976C605.638 16.7987 605.386 17.0306 605.142 17.1934C604.897 17.3561 604.657 17.4375 604.421 17.4375C604.047 17.4375 603.742 17.3765 603.506 17.2544C603.27 17.1323 603.083 16.9289 602.944 16.644C602.806 16.3592 602.708 15.9808 602.651 15.5088C602.594 15.0368 602.558 14.4508 602.542 13.751C602.525 12.9372 602.46 12.3065 602.346 11.8589C602.24 11.4032 602.118 11.1753 601.98 11.1753C601.923 11.1753 601.821 11.2526 601.675 11.4072C601.528 11.5537 601.353 11.749 601.15 11.9932C600.955 12.2373 600.743 12.514 600.515 12.8232C600.287 13.1325 600.063 13.4458 599.844 13.7632C599.624 14.0806 599.417 14.3898 599.221 14.6909C599.026 14.992 598.867 15.2565 598.745 15.4844C598.647 15.6634 598.529 15.8709 598.391 16.1069C598.253 16.3429 598.11 16.583 597.964 16.8271C597.817 17.0713 597.671 17.3073 597.524 17.5352C597.378 17.763 597.248 17.9583 597.134 18.1211C596.987 18.3327 596.808 18.4954 596.597 18.6094C596.393 18.7152 596.169 18.7681 595.925 18.7681C595.551 18.7681 595.242 18.6826 594.998 18.5117C594.762 18.3408 594.574 18.117 594.436 17.8403C594.306 17.5636 594.216 17.2463 594.167 16.8882C594.119 16.5301 594.094 16.168 594.094 15.8018C594.094 15.4844 594.111 15.1507 594.143 14.8008C594.176 14.4427 594.216 14.0806 594.265 13.7144C594.322 13.3481 594.383 12.9819 594.448 12.6157C594.513 12.2414 594.578 11.8792 594.644 11.5293C594.757 10.8783 594.855 10.2842 594.937 9.74707C595.026 9.20996 595.071 8.69727 595.071 8.20898C595.071 7.92415 595.164 7.68408 595.352 7.48877C595.547 7.29346 595.815 7.1958 596.157 7.1958C597.248 7.1958 597.793 7.84684 597.793 9.14893C597.793 9.36051 597.769 9.61686 597.72 9.91797C597.671 10.2109 597.606 10.5283 597.524 10.8701C597.443 11.2038 597.354 11.5537 597.256 11.9199C597.158 12.2861 597.065 12.6483 596.975 13.0063C596.886 13.3563 596.8 13.694 596.719 14.0195C596.646 14.3451 596.589 14.638 596.548 14.8984C596.564 14.874 596.609 14.7967 596.682 14.6665C596.755 14.5363 596.841 14.3817 596.938 14.2026C597.044 14.0236 597.154 13.8324 597.268 13.6289C597.382 13.4255 597.488 13.2342 597.585 13.0552C597.691 12.868 597.781 12.7093 597.854 12.5791C597.935 12.4489 597.984 12.3675 598 12.335C598.432 11.6514 598.839 11.041 599.221 10.5039C599.604 9.9668 599.974 9.50293 600.332 9.1123C600.706 8.69727 601.093 8.38802 601.492 8.18457C601.899 7.98112 602.334 7.87939 602.798 7.87939C603.205 7.87939 603.526 8.00146 603.762 8.24561C604.006 8.48975 604.198 8.79492 604.336 9.16113C604.474 9.52734 604.572 9.92611 604.629 10.3574C604.694 10.7887 604.747 11.1875 604.788 11.5537C604.812 11.7653 604.836 11.9972 604.861 12.2495C604.885 12.4937 604.906 12.7297 604.922 12.9575C604.946 13.1854 604.963 13.3929 604.971 13.5801C604.987 13.7673 604.995 13.9097 604.995 14.0073C604.995 14.048 605.007 14.0765 605.032 14.0928C605.064 14.1009 605.093 14.105 605.117 14.105C605.158 14.105 605.219 14.0439 605.3 13.9219C605.382 13.7917 605.475 13.6289 605.581 13.4336C605.687 13.2301 605.797 13.0104 605.911 12.7744C606.033 12.5303 606.151 12.2943 606.265 12.0664C606.379 11.8304 606.484 11.6147 606.582 11.4194C606.68 11.2241 606.757 11.0776 606.814 10.98C607.009 10.6626 607.221 10.3086 607.449 9.91797C607.685 9.52734 607.945 9.16113 608.23 8.81934C608.515 8.4694 608.824 8.17643 609.158 7.94043C609.5 7.70443 609.874 7.58643 610.281 7.58643C610.745 7.58643 611.103 7.67188 611.355 7.84277C611.607 8.01367 611.807 8.27002 611.953 8.61182C612.108 8.95361 612.238 9.38086 612.344 9.89355C612.45 10.3981 612.584 10.9881 612.747 11.6636C612.974 12.6076 613.219 13.34 613.479 13.8608C613.748 14.3817 614.036 14.6421 614.346 14.6421C614.875 14.6421 615.448 14.5688 616.067 14.4224C616.694 14.2759 617.402 13.9788 618.191 13.5312C618.223 13.515 618.28 13.4865 618.362 13.4458C618.451 13.4051 618.545 13.3685 618.643 13.3359C618.74 13.2952 618.834 13.2627 618.923 13.2383C619.013 13.2057 619.078 13.1895 619.119 13.1895C619.184 13.1895 619.253 13.2057 619.326 13.2383C619.399 13.2708 619.469 13.3156 619.534 13.3726C619.599 13.4295 619.652 13.4946 619.692 13.5679C619.741 13.6411 619.766 13.7225 619.766 13.812ZM623.301 8.50195C623.301 8.14388 623.244 7.8916 623.13 7.74512C623.024 7.59863 622.902 7.52539 622.764 7.52539C622.642 7.52539 622.499 7.59863 622.336 7.74512C622.174 7.8916 622.003 8.09098 621.824 8.34326C621.653 8.5874 621.478 8.8763 621.299 9.20996C621.128 9.53548 620.965 9.88135 620.811 10.2476C620.664 10.6138 620.538 10.9922 620.432 11.3828C620.334 11.7653 620.265 12.1356 620.225 12.4937C620.461 12.2983 620.672 12.1234 620.859 11.9688C621.055 11.806 621.238 11.6351 621.409 11.4561C621.58 11.2852 621.771 11.0776 621.982 10.8335C622.202 10.5812 622.41 10.3208 622.605 10.0522C622.8 9.78369 622.963 9.51514 623.093 9.24658C623.232 8.97803 623.301 8.72982 623.301 8.50195ZM632.773 9.82031C632.773 9.88542 632.749 9.98714 632.7 10.1255C632.651 10.2638 632.57 10.4266 632.456 10.6138C632.139 11.1183 631.74 11.6676 631.26 12.2617C630.788 12.8558 630.263 13.4499 629.685 14.0439C629.115 14.6299 628.501 15.1995 627.842 15.7529C627.191 16.2982 626.528 16.7824 625.852 17.2056C625.185 17.6287 624.517 17.9705 623.85 18.231C623.183 18.4832 622.548 18.6094 621.946 18.6094C621.181 18.6094 620.514 18.5036 619.944 18.292C619.374 18.0804 618.902 17.7752 618.528 17.3765C618.153 16.9696 617.873 16.4772 617.686 15.8994C617.498 15.3135 617.405 14.6502 617.405 13.9097C617.405 13.3481 617.445 12.7541 617.527 12.1274C617.616 11.5008 617.775 10.866 618.003 10.2231C618.231 9.5721 618.536 8.92106 618.918 8.27002C619.309 7.61084 619.806 6.97607 620.408 6.36572C620.872 5.89372 621.372 5.53564 621.909 5.2915C622.446 5.04736 622.959 4.92529 623.447 4.92529C623.537 4.92529 623.651 4.94564 623.789 4.98633C623.927 5.01888 624.066 5.06771 624.204 5.13281C624.342 5.19792 624.477 5.27523 624.607 5.36475C624.737 5.45426 624.843 5.55192 624.924 5.65771C625.185 5.99137 625.38 6.30876 625.51 6.60986C625.64 6.90283 625.706 7.23649 625.706 7.61084C625.706 8.19678 625.624 8.72575 625.461 9.19775C625.299 9.66976 625.075 10.1133 624.79 10.5283C624.513 10.9352 624.184 11.3299 623.801 11.7124C623.419 12.0949 623.008 12.4937 622.568 12.9087C622.3 13.161 621.966 13.4377 621.567 13.7388C621.169 14.0317 620.741 14.3532 620.286 14.7031C620.351 14.9554 620.432 15.1751 620.53 15.3623C620.627 15.5413 620.75 15.6919 620.896 15.814C621.042 15.936 621.217 16.0296 621.421 16.0947C621.632 16.1517 621.881 16.1802 622.166 16.1802C622.548 16.1802 622.955 16.1151 623.386 15.9849C623.826 15.8547 624.265 15.6878 624.705 15.4844C625.087 15.3053 625.465 15.0815 625.84 14.813C626.214 14.5363 626.593 14.2515 626.975 13.9585C627.211 13.7795 627.512 13.5231 627.878 13.1895C628.253 12.8477 628.631 12.4937 629.014 12.1274C629.274 11.8833 629.535 11.6473 629.795 11.4194C630.055 11.1834 630.332 10.923 630.625 10.6382L631.272 10.0034C631.744 9.62093 632.126 9.42969 632.419 9.42969C632.574 9.42969 632.672 9.47445 632.712 9.56396C632.753 9.65348 632.773 9.73893 632.773 9.82031ZM650.676 10.272C650.676 10.4266 650.648 10.5975 650.591 10.7847C650.534 10.9637 650.461 11.1427 650.371 11.3218C650.29 11.5008 650.196 11.6717 650.09 11.8345C649.993 11.9891 649.899 12.1193 649.81 12.2251C649.549 12.5506 649.256 12.8965 648.931 13.2627C648.613 13.6289 648.28 13.991 647.93 14.3491C647.58 14.7072 647.222 15.0531 646.855 15.3867C646.489 15.7122 646.123 15.9971 645.757 16.2412C645.472 16.4365 645.195 16.6196 644.927 16.7905C644.666 16.9533 644.394 17.0998 644.109 17.23C643.832 17.3602 643.535 17.4619 643.218 17.5352C642.909 17.6084 642.567 17.645 642.192 17.645C641.582 17.645 641.073 17.5229 640.667 17.2788C640.268 17.0347 639.942 16.7091 639.69 16.3022C639.438 15.8953 639.242 15.4315 639.104 14.9106C638.974 14.3817 638.872 13.8324 638.799 13.2627C638.693 12.4896 638.575 11.8792 638.445 11.4316C638.315 10.9759 638.156 10.748 637.969 10.748C637.806 10.748 637.647 10.7887 637.493 10.8701C637.338 10.9434 637.143 11.1061 636.907 11.3584C636.679 11.6107 636.386 11.981 636.028 12.4692C635.678 12.9494 635.218 13.5923 634.648 14.3979C634.453 14.6746 634.213 14.9839 633.928 15.3257C633.652 15.6675 633.359 15.9971 633.049 16.3145C632.74 16.6237 632.431 16.9004 632.122 17.1445C631.82 17.3805 631.54 17.5433 631.279 17.6328C630.254 17.4049 629.741 16.4243 629.741 14.6909C629.741 14.2515 629.79 13.6045 629.888 12.75C629.937 12.3675 629.989 11.9647 630.046 11.5415C630.111 11.1183 630.189 10.6951 630.278 10.272C630.376 9.84066 630.49 9.42155 630.62 9.01465C630.75 8.59961 630.901 8.21712 631.072 7.86719C631.169 7.67188 631.279 7.51725 631.401 7.40332C631.523 7.28939 631.646 7.20394 631.768 7.14697C631.898 7.09001 632.032 7.05339 632.17 7.03711C632.309 7.02083 632.447 7.0127 632.585 7.0127C632.708 7.0127 632.826 7.04525 632.939 7.11035C633.053 7.16732 633.155 7.25277 633.245 7.3667C633.334 7.48063 633.403 7.61898 633.452 7.78174C633.509 7.9445 633.538 8.13167 633.538 8.34326C633.538 8.53044 633.521 8.70947 633.489 8.88037C633.456 9.05127 633.411 9.23031 633.354 9.41748C633.298 9.59652 633.236 9.78776 633.171 9.99121C633.114 10.1947 633.053 10.4266 632.988 10.687C632.948 10.8579 632.887 11.0776 632.805 11.3462C632.732 11.6147 632.655 11.8955 632.573 12.1885C632.5 12.4733 632.431 12.7541 632.366 13.0308C632.301 13.3075 632.26 13.5394 632.244 13.7266C632.39 13.5557 632.557 13.3441 632.744 13.0918C632.939 12.8314 633.143 12.5547 633.354 12.2617C633.566 11.9606 633.782 11.6554 634.001 11.3462C634.221 11.0369 634.441 10.744 634.661 10.4673C634.945 10.1092 635.226 9.77148 635.503 9.4541C635.78 9.13672 636.069 8.8641 636.37 8.63623C636.679 8.40023 637.013 8.21712 637.371 8.08691C637.729 7.94857 638.132 7.87939 638.579 7.87939C639.108 7.87939 639.539 7.98926 639.873 8.20898C640.207 8.42057 640.471 8.71761 640.667 9.1001C640.87 9.48258 641.021 9.93831 641.118 10.4673C641.216 10.9881 641.293 11.5578 641.35 12.1763C641.383 12.4937 641.423 12.8192 641.472 13.1528C641.529 13.4865 641.611 13.7917 641.716 14.0684C641.822 14.3369 641.96 14.5607 642.131 14.7397C642.302 14.9106 642.514 14.9961 642.766 14.9961C643.14 14.9961 643.547 14.8984 643.987 14.7031C644.434 14.4997 644.902 14.223 645.391 13.873C645.879 13.5231 646.379 13.1162 646.892 12.6523C647.405 12.1885 647.917 11.6921 648.43 11.1631C648.593 10.9922 648.748 10.8254 648.894 10.6626C649.049 10.4917 649.195 10.3411 649.333 10.2109C649.472 10.0726 649.606 9.96273 649.736 9.88135C649.867 9.79997 649.997 9.75928 650.127 9.75928C650.176 9.75928 650.233 9.76742 650.298 9.78369C650.363 9.79183 650.424 9.81624 650.481 9.85693C650.538 9.88949 650.583 9.93831 650.615 10.0034C650.656 10.0685 650.676 10.158 650.676 10.272ZM658.264 7.8916C658.264 8.09505 658.203 8.26595 658.081 8.4043C657.967 8.53451 657.825 8.6403 657.654 8.72168C657.483 8.80306 657.3 8.8641 657.104 8.90479C656.909 8.93734 656.73 8.96175 656.567 8.97803C655.957 9.01872 655.347 9.07568 654.736 9.14893C654.126 9.21403 653.573 9.27913 653.076 9.34424C652.588 9.4012 652.185 9.4541 651.868 9.50293C651.55 9.54362 651.379 9.56396 651.355 9.56396C651.298 9.78369 651.225 10.0604 651.135 10.394C651.054 10.7277 650.964 11.0898 650.867 11.4805C650.777 11.863 650.688 12.2576 650.598 12.6646C650.509 13.0633 650.423 13.4458 650.342 13.812C650.269 14.1782 650.208 14.5119 650.159 14.813C650.118 15.106 650.098 15.3379 650.098 15.5088C650.098 15.6471 650.11 15.8221 650.134 16.0337C650.167 16.2371 650.22 16.4365 650.293 16.6318C650.366 16.8271 650.464 16.998 650.586 17.1445C650.708 17.2829 650.863 17.3521 651.05 17.3521C651.18 17.3521 651.339 17.3236 651.526 17.2666C651.721 17.2096 651.933 17.1201 652.161 16.998C652.397 16.876 652.645 16.7214 652.905 16.5342C653.166 16.3389 653.426 16.1029 653.687 15.8262C653.768 15.7367 653.861 15.6431 653.967 15.5454C654.073 15.4478 654.187 15.3623 654.309 15.2891C654.431 15.2077 654.561 15.1426 654.7 15.0938C654.846 15.0368 654.997 15.0083 655.151 15.0083C655.396 15.0083 655.562 15.0612 655.652 15.167C655.741 15.2728 655.786 15.4071 655.786 15.5698C655.786 15.8953 655.693 16.1924 655.505 16.4609C655.318 16.7295 655.082 17.0306 654.797 17.3643C654.667 17.5189 654.46 17.7305 654.175 17.999C653.898 18.2594 653.564 18.5199 653.174 18.7803C652.791 19.0326 652.36 19.2523 651.88 19.4395C651.408 19.6348 650.907 19.7324 650.378 19.7324C649.866 19.7324 649.43 19.6632 649.072 19.5249C648.722 19.3947 648.429 19.2197 648.193 19C647.965 18.7884 647.786 18.5443 647.656 18.2676C647.526 17.9827 647.428 17.6938 647.363 17.4009C647.306 17.1079 647.27 16.819 647.253 16.5342C647.245 16.2493 647.241 15.993 647.241 15.7651C647.241 15.521 647.266 15.2402 647.314 14.9229C647.371 14.5973 647.437 14.2555 647.51 13.8975C647.583 13.5394 647.664 13.1732 647.754 12.7988C647.852 12.4163 647.937 12.0542 648.01 11.7124C648.083 11.3625 648.145 11.041 648.193 10.748C648.25 10.4551 648.279 10.2069 648.279 10.0034C648.279 9.95459 648.271 9.90983 648.254 9.86914C648.246 9.82845 648.218 9.7959 648.169 9.77148C648.12 9.73893 648.043 9.71859 647.937 9.71045C647.831 9.69417 647.685 9.68604 647.498 9.68604C647.286 9.68604 647.058 9.68197 646.814 9.67383C646.578 9.65755 646.358 9.61279 646.155 9.53955C645.951 9.46631 645.78 9.35238 645.642 9.19775C645.512 9.03499 645.447 8.80713 645.447 8.51416C645.447 8.32699 645.475 8.17236 645.532 8.05029C645.597 7.92008 645.679 7.81836 645.776 7.74512C645.882 7.66374 646 7.60677 646.13 7.57422C646.269 7.54167 646.415 7.52132 646.57 7.51318L649.146 7.40332C649.194 7.3138 649.272 7.13883 649.377 6.87842C649.483 6.618 649.601 6.31283 649.731 5.96289C649.87 5.60482 650.008 5.2264 650.146 4.82764C650.285 4.42887 650.411 4.05452 650.525 3.70459C650.688 3.20003 650.895 2.83789 651.147 2.61816C651.4 2.39844 651.733 2.28857 652.148 2.28857C652.417 2.28857 652.625 2.3252 652.771 2.39844C652.917 2.46354 653.023 2.54899 653.088 2.65479C653.153 2.76058 653.19 2.88265 653.198 3.021C653.215 3.1512 653.223 3.27734 653.223 3.39941C653.223 3.43197 653.198 3.52555 653.149 3.68018C653.109 3.8348 653.052 4.02604 652.979 4.25391C652.905 4.47363 652.824 4.71777 652.734 4.98633C652.645 5.25488 652.551 5.52751 652.454 5.8042C652.364 6.07275 652.275 6.33317 652.185 6.58545C652.104 6.82959 652.035 7.04118 651.978 7.22021C652.075 7.21208 652.234 7.1958 652.454 7.17139C652.681 7.14697 652.942 7.12256 653.235 7.09814C653.528 7.06559 653.833 7.03711 654.15 7.0127C654.476 6.98014 654.777 6.95166 655.054 6.92725C655.339 6.89469 655.583 6.87028 655.786 6.854C655.998 6.83773 656.136 6.82959 656.201 6.82959C656.641 6.82959 656.995 6.854 657.263 6.90283C657.54 6.94352 657.751 7.00863 657.898 7.09814C658.044 7.18766 658.142 7.29753 658.191 7.42773C658.24 7.55794 658.264 7.71257 658.264 7.8916Z" fill="white"/>
<defs>
<linearGradient id="paint0_linear_40_32" x1="2.83531e-05" y1="11.5" x2="1150" y2="11.4956" gradientUnits="userSpaceOnUse">
<stop stop-color="#73F7FF"/>
<stop offset="0.372898" stop-color="#6391FF"/>
<stop offset="0.428558" stop-opacity="0"/>
<stop offset="0.573577" stop-opacity="0"/>
<stop offset="0.626674" stop-color="#5A5AFF"/>
<stop offset="1" stop-color="#E338FF"/>
</linearGradient>
<linearGradient id="paint1_linear_40_32" x1="2.83531e-05" y1="11.5" x2="1150" y2="11.4956" gradientUnits="userSpaceOnUse">
<stop stop-color="#73F7FF"/>
<stop offset="0.372898" stop-color="#6391FF"/>
<stop offset="0.428558" stop-opacity="0"/>
<stop offset="0.573577" stop-opacity="0"/>
<stop offset="0.626674" stop-color="#5A5AFF"/>
<stop offset="1" stop-color="#E338FF"/>
</linearGradient>
</defs>
</svg>
