<svg width="1300" height="228" viewBox="0 0 1300 228" fill="none" xmlns="http://www.w3.org/2000/svg">
<path d="M0 0H1300V228H0V0Z" fill="#0D1117"/>
<path d="M44.2367 93C44.2367 87.4667 46.4367 83.1667 50.8367 80.1C55.2367 77.0333 60.9367 75.5 67.9367 75.5C75.4034 75.5 82.2367 76.2667 88.4367 77.8L87.9367 97H83.4367L78.4367 82.6C75.6367 82.0667 72.8034 81.8 69.9367 81.8C65.3367 81.8 61.7034 82.7 59.0367 84.5C56.4367 86.3 55.1367 88.8 55.1367 92C55.1367 94.7333 56.3034 97.0333 58.6367 98.9C61.0367 100.7 65.1701 102.833 71.0367 105.3C74.1701 106.567 76.7367 107.767 78.7367 108.9C80.8034 109.967 83.0034 111.4 85.3367 113.2C87.6701 115 89.4034 117.167 90.5367 119.7C91.7367 122.233 92.3367 125.067 92.3367 128.2C92.3367 134.867 89.8701 140 84.9367 143.6C80.3367 146.933 74.5701 148.567 67.6367 148.5C65.7701 148.5 62.6701 148.333 58.3367 148C54.0701 147.667 49.4367 146.767 44.4367 145.3V125.6H49.0367L54.1367 140.6C56.9367 141.467 60.2034 141.9 63.9367 141.9C69.1367 141.9 73.3367 141 76.5367 139.2C79.7367 137.333 81.3367 134.433 81.3367 130.5C81.3367 127.5 79.9034 124.9 77.0367 122.7C74.1701 120.5 69.9701 118.2 64.4367 115.8C56.8367 112.533 51.5701 109.367 48.6367 106.3C45.7034 103.233 44.2367 98.8 44.2367 93ZM101.423 147V142.4L110.623 140.2V83.8L101.423 81.6V77H132.123V81.6L122.923 83.8V108.3H153.823V83.8L144.623 81.6V77H175.323V81.6L166.123 83.8V140.2L175.323 142.4V147H144.623V142.4L153.823 140.2V115H122.923V140.2L132.123 142.4V147H101.423ZM181.938 81.6V77H212.638V81.6L203.438 83.8V120.8C203.438 127.467 205.072 132.467 208.338 135.8C211.672 139.133 216.138 140.8 221.738 140.8C227.272 140.8 231.738 139.133 235.138 135.8C238.538 132.4 240.238 127.4 240.238 120.8V83.8L230.938 81.6V77H256.538V81.6L247.338 83.8V120.8C247.338 125.2 246.638 129.133 245.238 132.6C243.905 136.067 242.005 138.967 239.538 141.3C237.072 143.633 234.105 145.433 230.638 146.7C227.238 147.9 223.505 148.5 219.438 148.5C215.305 148.5 211.505 147.9 208.038 146.7C204.572 145.5 201.572 143.733 199.038 141.4C196.572 139 194.638 136.1 193.238 132.7C191.838 129.233 191.138 125.267 191.138 120.8V83.8L181.938 81.6ZM263.142 147V142.4L272.342 140.2V83.8L263.142 81.6V77H291.842C308.109 77 316.242 82.6667 316.242 94C316.242 97.6667 315.142 100.867 312.942 103.6C310.809 106.333 307.876 108.3 304.142 109.5V109.7C309.609 110.7 313.809 112.733 316.742 115.8C319.742 118.867 321.242 122.7 321.242 127.3C321.242 133.3 319.009 138.1 314.542 141.7C310.076 145.233 304.042 147 296.442 147H263.142ZM284.642 140.9H293.342C298.209 140.9 301.976 139.733 304.642 137.4C307.309 135.067 308.642 131.7 308.642 127.3C308.642 123.233 307.242 119.967 304.442 117.5C301.709 115.033 297.842 113.8 292.842 113.8H284.642V140.9ZM284.642 107.5H290.342C294.209 107.5 297.376 106.4 299.842 104.2C302.376 101.933 303.642 98.8333 303.642 94.9C303.642 90.9 302.376 87.9333 299.842 86C297.376 84.0667 294.009 83.1 289.742 83.1H284.642V107.5ZM329.548 147V142.4L338.748 140.2V83.8L329.548 81.6V77H360.248V81.6L351.048 83.8V108.3H381.948V83.8L372.748 81.6V77H403.448V81.6L394.248 83.8V140.2L403.448 142.4V147H372.748V142.4L381.948 140.2V115H351.048V140.2L360.248 142.4V147H329.548Z" fill="white"/>
<g clip-path="url(#clip0_209_109)">
<path d="M1121.62 54.0539C1126.31 54.0539 1130.11 50.2556 1130.11 45.5702C1130.11 40.8847 1126.31 37.0864 1121.62 37.0864C1116.94 37.0864 1113.14 40.8847 1113.14 45.5702C1113.14 50.2556 1116.94 54.0539 1121.62 54.0539Z" fill="#F2F2F2"/>
<path d="M1187.44 179.962C1200.05 170.357 1206.07 154.218 1202.3 138.821C1202.2 138.439 1202.11 138.057 1202 137.676C1199.5 128.537 1193.32 119.851 1184.3 116.931C1176.74 114.479 1168.47 116.364 1160.58 115.389C1145.08 113.475 1133.06 100.934 1124.61 87.8038C1116.15 74.6733 1109.65 59.9756 1098.42 49.1279C1079.9 31.2472 1049.69 27.3975 1026.73 39.0365C1003.77 50.6755 989.143 76.4975 989.767 102.232C990.391 127.967 1005.67 152.572 1027.86 165.626C1036.01 170.421 1045.43 173.819 1054.81 172.63C1062.95 171.598 1070.35 167.224 1078.45 165.926C1091.19 163.884 1103.85 169.644 1114.87 176.355C1125.88 183.067 1136.53 191.022 1149.05 194.133C1161.2 197.154 1176.27 188.471 1187.44 179.962Z" fill="#F2F2F2"/>
<path d="M1169.32 39.5771C1169.04 39.3928 1168.76 39.218 1168.49 39.0401C1160.49 33.9296 1151.93 29.7779 1142.97 26.6707L1140.89 55.3367H1127.72V22.4861C1126.89 22.3146 1126.05 22.1525 1125.22 22V55.3367H1109.56C1100.94 55.3367 1092.68 51.9132 1086.58 45.8193C1080.49 39.7253 1077.07 31.4602 1077.07 22.842C1076.23 23.0231 1075.4 23.2169 1074.56 23.4235V55.3367H1061.81L1059.83 28.002C1050.62 31.534 1041.88 36.1788 1033.8 41.833C1033.66 41.9283 1033.52 42.0268 1033.38 42.1221C1032.68 42.6146 1031.99 43.1167 1031.3 43.625V152.986H1068.88L1068.21 143.788L1064.56 93.2838H1138.14L1134.49 143.788L1133.82 152.986H1170.99V40.6828C1170.43 40.3079 1169.88 39.9393 1169.32 39.5771ZM1074.56 84.9432H1063.95L1061.99 57.8405H1074.56V84.9432ZM1125.22 84.9432H1107.4V84.4063C1107.4 84.1481 1107.35 83.8925 1107.25 83.6541C1107.15 83.4156 1107 83.199 1106.82 83.0167C1106.64 82.8343 1106.42 82.6897 1106.18 82.5912C1105.95 82.4927 1105.69 82.4422 1105.43 82.4427H1097.68C1097.43 82.4426 1097.17 82.4933 1096.93 82.5919C1096.7 82.6906 1096.48 82.8352 1096.3 83.0176C1096.11 83.1999 1095.97 83.4164 1095.87 83.6547C1095.77 83.893 1095.72 84.1484 1095.72 84.4063V84.9432H1077.07V57.8405H1125.22V84.9432ZM1127.72 84.9432V57.8405H1140.71L1138.75 84.9432H1127.72Z" fill="#3F3D56"/>
<path d="M976 159.989C978.76 163.26 981.746 166.333 984.935 169.188L1217.07 169.505C1220.25 166.651 1223.24 163.578 1226 160.307L976 159.989Z" fill="#3F3D56"/>
<path d="M1133.42 130.535V157.766C1133.42 158.114 1133.55 158.446 1133.8 158.692C1134.04 158.937 1134.38 159.075 1134.72 159.075H1175.08C1175.42 159.075 1175.76 158.937 1176 158.692C1176.25 158.446 1176.39 158.114 1176.39 157.766V130.535C1176.39 130.189 1176.25 129.856 1176 129.611C1175.76 129.366 1175.42 129.228 1175.08 129.228H1134.72C1134.38 129.228 1134.04 129.366 1133.8 129.611C1133.55 129.856 1133.42 130.189 1133.42 130.535Z" fill="#3F3D56"/>
<path d="M1134.36 130.874V157.431C1134.36 157.616 1134.44 157.794 1134.57 157.925C1134.7 158.056 1134.88 158.13 1135.06 158.13H1174.74C1174.93 158.13 1175.11 158.056 1175.24 157.925C1175.37 157.794 1175.44 157.616 1175.44 157.431V130.874C1175.44 130.689 1175.37 130.511 1175.24 130.379C1175.11 130.248 1174.93 130.174 1174.74 130.173H1135.06C1134.88 130.174 1134.7 130.248 1134.57 130.379C1134.44 130.511 1134.36 130.689 1134.36 130.874Z" fill="#FF8016"/>
<path d="M1132.57 163.077C1132.65 163.17 1132.74 163.245 1132.85 163.296C1132.95 163.347 1133.07 163.373 1133.19 163.373H1176.4C1176.52 163.373 1176.63 163.346 1176.74 163.295C1176.85 163.244 1176.94 163.17 1177.01 163.078C1177.09 162.987 1177.14 162.879 1177.17 162.765C1177.2 162.65 1177.2 162.53 1177.18 162.414L1176.5 159.228C1176.48 159.099 1176.42 158.978 1176.33 158.877C1176.24 158.776 1176.13 158.698 1176.01 158.651C1175.92 158.616 1175.82 158.598 1175.73 158.598H1133.86C1133.76 158.598 1133.66 158.616 1133.57 158.651C1133.45 158.698 1133.34 158.776 1133.25 158.877C1133.17 158.978 1133.11 159.099 1133.08 159.228L1132.41 162.414C1132.39 162.53 1132.39 162.65 1132.42 162.764C1132.44 162.879 1132.5 162.986 1132.57 163.077Z" fill="#2F2E41"/>
<path d="M1174.24 159.97H1175.27C1175.35 159.97 1175.42 159.901 1175.42 159.815V159.327C1175.42 159.241 1175.35 159.172 1175.27 159.172H1174.24C1174.16 159.172 1174.09 159.241 1174.09 159.327V159.815C1174.09 159.901 1174.16 159.97 1174.24 159.97Z" fill="#3F3D56"/>
<path d="M1171.58 159.97H1172.6C1172.69 159.97 1172.76 159.901 1172.76 159.815V159.327C1172.76 159.241 1172.69 159.172 1172.6 159.172H1171.58C1171.5 159.172 1171.43 159.241 1171.43 159.327V159.815C1171.43 159.901 1171.5 159.97 1171.58 159.97Z" fill="#3F3D56"/>
<path d="M1168.92 159.97H1169.94C1170.03 159.97 1170.1 159.901 1170.1 159.815V159.327C1170.1 159.241 1170.03 159.172 1169.94 159.172H1168.92C1168.84 159.172 1168.77 159.241 1168.77 159.327V159.815C1168.77 159.901 1168.84 159.97 1168.92 159.97Z" fill="#3F3D56"/>
<path d="M1166.26 159.97H1167.28C1167.37 159.97 1167.44 159.901 1167.44 159.815V159.327C1167.44 159.241 1167.37 159.172 1167.28 159.172H1166.26C1166.17 159.172 1166.1 159.241 1166.1 159.327V159.815C1166.1 159.901 1166.17 159.97 1166.26 159.97Z" fill="#3F3D56"/>
<path d="M1163.6 159.97H1164.62C1164.7 159.97 1164.77 159.901 1164.77 159.815V159.327C1164.77 159.241 1164.7 159.172 1164.62 159.172H1163.6C1163.51 159.172 1163.44 159.241 1163.44 159.327V159.815C1163.44 159.901 1163.51 159.97 1163.6 159.97Z" fill="#3F3D56"/>
<path d="M1160.94 159.97H1161.96C1162.04 159.97 1162.11 159.901 1162.11 159.815V159.327C1162.11 159.241 1162.04 159.172 1161.96 159.172H1160.94C1160.85 159.172 1160.78 159.241 1160.78 159.327V159.815C1160.78 159.901 1160.85 159.97 1160.94 159.97Z" fill="#3F3D56"/>
<path d="M1158.27 159.97H1159.3C1159.38 159.97 1159.45 159.901 1159.45 159.815V159.327C1159.45 159.241 1159.38 159.172 1159.3 159.172H1158.27C1158.19 159.172 1158.12 159.241 1158.12 159.327V159.815C1158.12 159.901 1158.19 159.97 1158.27 159.97Z" fill="#3F3D56"/>
<path d="M1155.61 159.97H1156.63C1156.72 159.97 1156.79 159.901 1156.79 159.815V159.327C1156.79 159.241 1156.72 159.172 1156.63 159.172H1155.61C1155.53 159.172 1155.46 159.241 1155.46 159.327V159.815C1155.46 159.901 1155.53 159.97 1155.61 159.97Z" fill="#3F3D56"/>
<path d="M1152.95 159.97H1153.97C1154.06 159.97 1154.13 159.901 1154.13 159.815V159.327C1154.13 159.241 1154.06 159.172 1153.97 159.172H1152.95C1152.87 159.172 1152.8 159.241 1152.8 159.327V159.815C1152.8 159.901 1152.87 159.97 1152.95 159.97Z" fill="#3F3D56"/>
<path d="M1150.29 159.97H1151.31C1151.4 159.97 1151.47 159.901 1151.47 159.815V159.327C1151.47 159.241 1151.4 159.172 1151.31 159.172H1150.29C1150.2 159.172 1150.13 159.241 1150.13 159.327V159.815C1150.13 159.901 1150.2 159.97 1150.29 159.97Z" fill="#3F3D56"/>
<path d="M1147.63 159.97H1148.65C1148.73 159.97 1148.8 159.901 1148.8 159.815V159.327C1148.8 159.241 1148.73 159.172 1148.65 159.172H1147.63C1147.54 159.172 1147.47 159.241 1147.47 159.327V159.815C1147.47 159.901 1147.54 159.97 1147.63 159.97Z" fill="#3F3D56"/>
<path d="M1144.97 159.97H1145.99C1146.07 159.97 1146.14 159.901 1146.14 159.815V159.327C1146.14 159.241 1146.07 159.172 1145.99 159.172H1144.97C1144.88 159.172 1144.81 159.241 1144.81 159.327V159.815C1144.81 159.901 1144.88 159.97 1144.97 159.97Z" fill="#3F3D56"/>
<path d="M1142.3 159.97H1143.33C1143.41 159.97 1143.48 159.901 1143.48 159.815V159.327C1143.48 159.241 1143.41 159.172 1143.33 159.172H1142.3C1142.22 159.172 1142.15 159.241 1142.15 159.327V159.815C1142.15 159.901 1142.22 159.97 1142.3 159.97Z" fill="#3F3D56"/>
<path d="M1139.64 159.97H1140.66C1140.75 159.97 1140.82 159.901 1140.82 159.815V159.327C1140.82 159.241 1140.75 159.172 1140.66 159.172H1139.64C1139.56 159.172 1139.49 159.241 1139.49 159.327V159.815C1139.49 159.901 1139.56 159.97 1139.64 159.97Z" fill="#3F3D56"/>
<path d="M1136.98 159.97H1138C1138.09 159.97 1138.16 159.901 1138.16 159.815V159.327C1138.16 159.241 1138.09 159.172 1138 159.172H1136.98C1136.9 159.172 1136.83 159.241 1136.83 159.327V159.815C1136.83 159.901 1136.9 159.97 1136.98 159.97Z" fill="#3F3D56"/>
<path d="M1134.32 159.97H1135.34C1135.43 159.97 1135.5 159.901 1135.5 159.815V159.327C1135.5 159.241 1135.43 159.172 1135.34 159.172H1134.32C1134.23 159.172 1134.16 159.241 1134.16 159.327V159.815C1134.16 159.901 1134.23 159.97 1134.32 159.97Z" fill="#3F3D56"/>
<path d="M1174.28 161.301H1175.3C1175.38 161.301 1175.45 161.231 1175.45 161.146V160.657C1175.45 160.572 1175.38 160.502 1175.3 160.502H1174.28C1174.19 160.502 1174.12 160.572 1174.12 160.657V161.146C1174.12 161.231 1174.19 161.301 1174.28 161.301Z" fill="#3F3D56"/>
<path d="M1171.61 161.301H1172.64C1172.72 161.301 1172.79 161.231 1172.79 161.146V160.657C1172.79 160.572 1172.72 160.502 1172.64 160.502H1171.61C1171.53 160.502 1171.46 160.572 1171.46 160.657V161.146C1171.46 161.231 1171.53 161.301 1171.61 161.301Z" fill="#3F3D56"/>
<path d="M1168.95 161.301H1169.97C1170.06 161.301 1170.13 161.231 1170.13 161.146V160.657C1170.13 160.572 1170.06 160.502 1169.97 160.502H1168.95C1168.87 160.502 1168.8 160.572 1168.8 160.657V161.146C1168.8 161.231 1168.87 161.301 1168.95 161.301Z" fill="#3F3D56"/>
<path d="M1166.29 161.301H1167.31C1167.4 161.301 1167.47 161.231 1167.47 161.146V160.657C1167.47 160.572 1167.4 160.502 1167.31 160.502H1166.29C1166.21 160.502 1166.14 160.572 1166.14 160.657V161.146C1166.14 161.231 1166.21 161.301 1166.29 161.301Z" fill="#3F3D56"/>
<path d="M1163.63 161.301H1164.65C1164.74 161.301 1164.81 161.231 1164.81 161.146V160.657C1164.81 160.572 1164.74 160.502 1164.65 160.502H1163.63C1163.54 160.502 1163.47 160.572 1163.47 160.657V161.146C1163.47 161.231 1163.54 161.301 1163.63 161.301Z" fill="#3F3D56"/>
<path d="M1160.97 161.301H1161.99C1162.07 161.301 1162.14 161.231 1162.14 161.146V160.657C1162.14 160.572 1162.07 160.502 1161.99 160.502H1160.97C1160.88 160.502 1160.81 160.572 1160.81 160.657V161.146C1160.81 161.231 1160.88 161.301 1160.97 161.301Z" fill="#3F3D56"/>
<path d="M1158.31 161.301H1159.33C1159.41 161.301 1159.48 161.231 1159.48 161.146V160.657C1159.48 160.572 1159.41 160.502 1159.33 160.502H1158.31C1158.22 160.502 1158.15 160.572 1158.15 160.657V161.146C1158.15 161.231 1158.22 161.301 1158.31 161.301Z" fill="#3F3D56"/>
<path d="M1155.64 161.301H1156.67C1156.75 161.301 1156.82 161.231 1156.82 161.146V160.657C1156.82 160.572 1156.75 160.502 1156.67 160.502H1155.64C1155.56 160.502 1155.49 160.572 1155.49 160.657V161.146C1155.49 161.231 1155.56 161.301 1155.64 161.301Z" fill="#3F3D56"/>
<path d="M1152.98 161.301H1154C1154.09 161.301 1154.16 161.231 1154.16 161.146V160.657C1154.16 160.572 1154.09 160.502 1154 160.502H1152.98C1152.9 160.502 1152.83 160.572 1152.83 160.657V161.146C1152.83 161.231 1152.9 161.301 1152.98 161.301Z" fill="#3F3D56"/>
<path d="M1150.32 161.301H1151.34C1151.43 161.301 1151.5 161.231 1151.5 161.146V160.657C1151.5 160.572 1151.43 160.502 1151.34 160.502H1150.32C1150.24 160.502 1150.17 160.572 1150.17 160.657V161.146C1150.17 161.231 1150.24 161.301 1150.32 161.301Z" fill="#3F3D56"/>
<path d="M1147.66 161.301H1148.68C1148.77 161.301 1148.84 161.231 1148.84 161.146V160.657C1148.84 160.572 1148.77 160.502 1148.68 160.502H1147.66C1147.57 160.502 1147.5 160.572 1147.5 160.657V161.146C1147.5 161.231 1147.57 161.301 1147.66 161.301Z" fill="#3F3D56"/>
<path d="M1145 161.301H1146.02C1146.1 161.301 1146.17 161.231 1146.17 161.146V160.657C1146.17 160.572 1146.1 160.502 1146.02 160.502H1145C1144.91 160.502 1144.84 160.572 1144.84 160.657V161.146C1144.84 161.231 1144.91 161.301 1145 161.301Z" fill="#3F3D56"/>
<path d="M1142.34 161.301H1143.36C1143.44 161.301 1143.51 161.231 1143.51 161.146V160.657C1143.51 160.572 1143.44 160.502 1143.36 160.502H1142.34C1142.25 160.502 1142.18 160.572 1142.18 160.657V161.146C1142.18 161.231 1142.25 161.301 1142.34 161.301Z" fill="#3F3D56"/>
<path d="M1139.67 161.301H1140.7C1140.78 161.301 1140.85 161.231 1140.85 161.146V160.657C1140.85 160.572 1140.78 160.502 1140.7 160.502H1139.67C1139.59 160.502 1139.52 160.572 1139.52 160.657V161.146C1139.52 161.231 1139.59 161.301 1139.67 161.301Z" fill="#3F3D56"/>
<path d="M1137.01 161.301H1138.03C1138.12 161.301 1138.19 161.231 1138.19 161.146V160.657C1138.19 160.572 1138.12 160.502 1138.03 160.502H1137.01C1136.93 160.502 1136.86 160.572 1136.86 160.657V161.146C1136.86 161.231 1136.93 161.301 1137.01 161.301Z" fill="#3F3D56"/>
<path d="M1134.35 161.301H1135.37C1135.46 161.301 1135.53 161.231 1135.53 161.146V160.657C1135.53 160.572 1135.46 160.502 1135.37 160.502H1134.35C1134.27 160.502 1134.2 160.572 1134.2 160.657V161.146C1134.2 161.231 1134.27 161.301 1134.35 161.301Z" fill="#3F3D56"/>
<path d="M1152.18 162.898H1162.52C1162.61 162.898 1162.68 162.828 1162.68 162.743V162.255C1162.68 162.169 1162.61 162.099 1162.52 162.099H1152.18C1152.1 162.099 1152.03 162.169 1152.03 162.255V162.743C1152.03 162.828 1152.1 162.898 1152.18 162.898Z" fill="#3F3D56"/>
<path d="M1141.23 135.983H1140.33C1140.06 135.983 1139.83 136.205 1139.83 136.479C1139.83 136.753 1140.06 136.975 1140.33 136.975H1141.23C1141.51 136.975 1141.73 136.753 1141.73 136.479C1141.73 136.205 1141.51 135.983 1141.23 135.983Z" fill="white"/>
<path d="M1151.57 135.983H1150.66C1150.39 135.983 1150.17 136.205 1150.17 136.479C1150.17 136.753 1150.39 136.975 1150.66 136.975H1151.57C1151.84 136.975 1152.06 136.753 1152.06 136.479C1152.06 136.205 1151.84 135.983 1151.57 135.983Z" fill="white"/>
<path d="M1154.5 135.983H1153.59C1153.32 135.983 1153.1 136.205 1153.1 136.479C1153.1 136.753 1153.32 136.975 1153.59 136.975H1154.5C1154.77 136.975 1154.99 136.753 1154.99 136.479C1154.99 136.205 1154.77 135.983 1154.5 135.983Z" fill="white"/>
<path d="M1148.76 135.9H1143.14C1142.87 135.9 1142.64 136.122 1142.64 136.396C1142.64 136.67 1142.87 136.892 1143.14 136.892H1148.76C1149.03 136.892 1149.25 136.67 1149.25 136.396C1149.25 136.122 1149.03 135.9 1148.76 135.9Z" fill="white"/>
<path d="M1162.53 135.9H1156.92C1156.64 135.9 1156.42 136.122 1156.42 136.396C1156.42 136.67 1156.64 136.892 1156.92 136.892H1162.53C1162.81 136.892 1163.03 136.67 1163.03 136.396C1163.03 136.122 1162.81 135.9 1162.53 135.9Z" fill="white"/>
<path d="M1143.99 138.222H1143.09C1142.81 138.222 1142.59 138.444 1142.59 138.718C1142.59 138.992 1142.81 139.214 1143.09 139.214H1143.99C1144.26 139.214 1144.49 138.992 1144.49 138.718C1144.49 138.444 1144.26 138.222 1143.99 138.222Z" fill="white"/>
<path d="M1154.32 138.222H1153.42C1153.15 138.222 1152.92 138.444 1152.92 138.718C1152.92 138.992 1153.15 139.214 1153.42 139.214H1154.32C1154.6 139.214 1154.82 138.992 1154.82 138.718C1154.82 138.444 1154.6 138.222 1154.32 138.222Z" fill="white"/>
<path d="M1157.25 138.222H1156.35C1156.07 138.222 1155.85 138.444 1155.85 138.718C1155.85 138.992 1156.07 139.214 1156.35 139.214H1157.25C1157.52 139.214 1157.75 138.992 1157.75 138.718C1157.75 138.444 1157.52 138.222 1157.25 138.222Z" fill="white"/>
<path d="M1151.51 138.14H1145.9C1145.62 138.14 1145.4 138.362 1145.4 138.636C1145.4 138.91 1145.62 139.132 1145.9 139.132H1151.51C1151.79 139.132 1152.01 138.91 1152.01 138.636C1152.01 138.362 1151.79 138.14 1151.51 138.14Z" fill="white"/>
<path d="M1165.29 138.14H1159.67C1159.4 138.14 1159.18 138.362 1159.18 138.636C1159.18 138.91 1159.4 139.132 1159.67 139.132H1165.29C1165.56 139.132 1165.79 138.91 1165.79 138.636C1165.79 138.362 1165.56 138.14 1165.29 138.14Z" fill="white"/>
<path d="M1146.74 140.461H1145.84C1145.57 140.461 1145.35 140.683 1145.35 140.957C1145.35 141.231 1145.57 141.453 1145.84 141.453H1146.74C1147.02 141.453 1147.24 141.231 1147.24 140.957C1147.24 140.683 1147.02 140.461 1146.74 140.461Z" fill="white"/>
<path d="M1157.08 140.461H1156.17C1155.9 140.461 1155.68 140.683 1155.68 140.957C1155.68 141.231 1155.9 141.453 1156.17 141.453H1157.08C1157.35 141.453 1157.57 141.231 1157.57 140.957C1157.57 140.683 1157.35 140.461 1157.08 140.461Z" fill="white"/>
<path d="M1160.01 140.461H1159.1C1158.83 140.461 1158.61 140.683 1158.61 140.957C1158.61 141.231 1158.83 141.453 1159.1 141.453H1160.01C1160.28 141.453 1160.5 141.231 1160.5 140.957C1160.5 140.683 1160.28 140.461 1160.01 140.461Z" fill="white"/>
<path d="M1154.27 140.378H1148.65C1148.38 140.378 1148.16 140.6 1148.16 140.874C1148.16 141.148 1148.38 141.37 1148.65 141.37H1154.27C1154.54 141.37 1154.76 141.148 1154.76 140.874C1154.76 140.6 1154.54 140.378 1154.27 140.378Z" fill="white"/>
<path d="M1168.05 140.378H1162.43C1162.16 140.378 1161.93 140.6 1161.93 140.874C1161.93 141.148 1162.16 141.37 1162.43 141.37H1168.05C1168.32 141.37 1168.54 141.148 1168.54 140.874C1168.54 140.6 1168.32 140.378 1168.05 140.378Z" fill="white"/>
<path d="M1149.5 142.7H1148.6C1148.32 142.7 1148.1 142.922 1148.1 143.196C1148.1 143.47 1148.32 143.692 1148.6 143.692H1149.5C1149.77 143.692 1150 143.47 1150 143.196C1150 142.922 1149.77 142.7 1149.5 142.7Z" fill="white"/>
<path d="M1159.83 142.7H1158.93C1158.66 142.7 1158.43 142.922 1158.43 143.196C1158.43 143.47 1158.66 143.692 1158.93 143.692H1159.83C1160.11 143.692 1160.33 143.47 1160.33 143.196C1160.33 142.922 1160.11 142.7 1159.83 142.7Z" fill="white"/>
<path d="M1162.76 142.7H1161.86C1161.58 142.7 1161.36 142.922 1161.36 143.196C1161.36 143.47 1161.58 143.692 1161.86 143.692H1162.76C1163.04 143.692 1163.26 143.47 1163.26 143.196C1163.26 142.922 1163.04 142.7 1162.76 142.7Z" fill="white"/>
<path d="M1157.02 142.617H1151.41C1151.13 142.617 1150.91 142.839 1150.91 143.113C1150.91 143.387 1151.13 143.609 1151.41 143.609H1157.02C1157.3 143.609 1157.52 143.387 1157.52 143.113C1157.52 142.839 1157.3 142.617 1157.02 142.617Z" fill="white"/>
<path d="M1151.57 151.603H1150.66C1150.39 151.603 1150.17 151.825 1150.17 152.099C1150.17 152.373 1150.39 152.595 1150.66 152.595H1151.57C1151.84 152.595 1152.06 152.373 1152.06 152.099C1152.06 151.825 1151.84 151.603 1151.57 151.603Z" fill="white"/>
<path d="M1154.5 151.603H1153.59C1153.32 151.603 1153.1 151.825 1153.1 152.099C1153.1 152.373 1153.32 152.595 1153.59 152.595H1154.5C1154.77 152.595 1154.99 152.373 1154.99 152.099C1154.99 151.825 1154.77 151.603 1154.5 151.603Z" fill="white"/>
<path d="M1162.53 151.686H1156.92C1156.64 151.686 1156.42 151.908 1156.42 152.182C1156.42 152.456 1156.64 152.678 1156.92 152.678H1162.53C1162.81 152.678 1163.03 152.456 1163.03 152.182C1163.03 151.908 1162.81 151.686 1162.53 151.686Z" fill="white"/>
<path d="M1141.23 151.603H1140.33C1140.06 151.603 1139.83 151.825 1139.83 152.099C1139.83 152.373 1140.06 152.595 1140.33 152.595H1141.23C1141.51 152.595 1141.73 152.373 1141.73 152.099C1141.73 151.825 1141.51 151.603 1141.23 151.603Z" fill="white"/>
<path d="M1148.76 151.686H1143.14C1142.87 151.686 1142.64 151.908 1142.64 152.182C1142.64 152.456 1142.87 152.678 1143.14 152.678H1148.76C1149.03 152.678 1149.25 152.456 1149.25 152.182C1149.25 151.908 1149.03 151.686 1148.76 151.686Z" fill="white"/>
<path d="M1143.99 149.364H1143.09C1142.81 149.364 1142.59 149.586 1142.59 149.86C1142.59 150.134 1142.81 150.356 1143.09 150.356H1143.99C1144.26 150.356 1144.49 150.134 1144.49 149.86C1144.49 149.586 1144.26 149.364 1143.99 149.364Z" fill="white"/>
<path d="M1154.32 149.364H1153.42C1153.15 149.364 1152.92 149.586 1152.92 149.86C1152.92 150.134 1153.15 150.356 1153.42 150.356H1154.32C1154.6 150.356 1154.82 150.134 1154.82 149.86C1154.82 149.586 1154.6 149.364 1154.32 149.364Z" fill="white"/>
<path d="M1157.25 149.364H1156.35C1156.07 149.364 1155.85 149.586 1155.85 149.86C1155.85 150.134 1156.07 150.356 1156.35 150.356H1157.25C1157.52 150.356 1157.75 150.134 1157.75 149.86C1157.75 149.586 1157.52 149.364 1157.25 149.364Z" fill="white"/>
<path d="M1151.51 149.447H1145.9C1145.62 149.447 1145.4 149.669 1145.4 149.943C1145.4 150.217 1145.62 150.439 1145.9 150.439H1151.51C1151.79 150.439 1152.01 150.217 1152.01 149.943C1152.01 149.669 1151.79 149.447 1151.51 149.447Z" fill="white"/>
<path d="M1146.74 147.125H1145.84C1145.57 147.125 1145.35 147.348 1145.35 147.622C1145.35 147.895 1145.57 148.118 1145.84 148.118H1146.74C1147.02 148.118 1147.24 147.895 1147.24 147.622C1147.24 147.348 1147.02 147.125 1146.74 147.125Z" fill="white"/>
<path d="M1157.08 147.125H1156.17C1155.9 147.125 1155.68 147.348 1155.68 147.622C1155.68 147.895 1155.9 148.118 1156.17 148.118H1157.08C1157.35 148.118 1157.57 147.895 1157.57 147.622C1157.57 147.348 1157.35 147.125 1157.08 147.125Z" fill="white"/>
<path d="M1160.01 147.125H1159.1C1158.83 147.125 1158.61 147.348 1158.61 147.622C1158.61 147.895 1158.83 148.118 1159.1 148.118H1160.01C1160.28 148.118 1160.5 147.895 1160.5 147.622C1160.5 147.348 1160.28 147.125 1160.01 147.125Z" fill="white"/>
<path d="M1154.27 147.208H1148.65C1148.38 147.208 1148.16 147.43 1148.16 147.704C1148.16 147.978 1148.38 148.2 1148.65 148.2H1154.27C1154.54 148.2 1154.76 147.978 1154.76 147.704C1154.76 147.43 1154.54 147.208 1154.27 147.208Z" fill="white"/>
<path d="M1149.5 144.886H1148.6C1148.32 144.886 1148.1 145.108 1148.1 145.382C1148.1 145.656 1148.32 145.878 1148.6 145.878H1149.5C1149.77 145.878 1150 145.656 1150 145.382C1150 145.108 1149.77 144.886 1149.5 144.886Z" fill="white"/>
<path d="M1159.83 144.886H1158.93C1158.66 144.886 1158.43 145.108 1158.43 145.382C1158.43 145.656 1158.66 145.878 1158.93 145.878H1159.83C1160.11 145.878 1160.33 145.656 1160.33 145.382C1160.33 145.108 1160.11 144.886 1159.83 144.886Z" fill="white"/>
<path d="M1162.76 144.886H1161.86C1161.58 144.886 1161.36 145.108 1161.36 145.382C1161.36 145.656 1161.58 145.878 1161.86 145.878H1162.76C1163.04 145.878 1163.26 145.656 1163.26 145.382C1163.26 145.108 1163.04 144.886 1162.76 144.886Z" fill="white"/>
<path d="M1157.02 144.969H1151.41C1151.13 144.969 1150.91 145.191 1150.91 145.465C1150.91 145.739 1151.13 145.961 1151.41 145.961H1157.02C1157.3 145.961 1157.52 145.739 1157.52 145.465C1157.52 145.191 1157.3 144.969 1157.02 144.969Z" fill="white"/>
<path d="M1136.43 177.843L1132.19 171.138L1145.5 160.525L1151 154.437C1151.71 153.646 1152.62 153.056 1153.63 152.727C1154.65 152.397 1155.73 152.339 1156.77 152.559C1157.81 152.779 1158.78 153.268 1159.57 153.978C1160.37 154.688 1160.96 155.595 1161.3 156.607C1161.79 158.106 1161.69 159.739 1161 161.161C1160.31 162.583 1159.1 163.683 1157.62 164.229L1148.93 167.431L1136.43 177.843Z" fill="#FFB6B6"/>
<path d="M1036.91 129.229V161.816H1059.74V129.229C1059.74 128.995 1059.66 128.767 1059.52 128.578C1059.38 128.389 1059.19 128.25 1058.96 128.181C1058.86 128.146 1058.75 128.129 1058.64 128.13H1038.01C1037.86 128.13 1037.72 128.158 1037.59 128.213C1037.45 128.268 1037.33 128.349 1037.23 128.451C1037.13 128.553 1037.05 128.674 1036.99 128.808C1036.94 128.942 1036.91 129.085 1036.91 129.229ZM1045.82 140.426C1045.82 139.784 1046.08 139.17 1046.54 138.718C1046.99 138.265 1047.61 138.012 1048.25 138.012C1048.9 138.012 1049.51 138.265 1049.97 138.718C1050.42 139.17 1050.68 139.784 1050.69 140.426V144.207C1050.69 144.852 1050.43 145.468 1049.97 145.923C1049.51 146.377 1048.9 146.632 1048.25 146.632C1047.61 146.632 1046.99 146.377 1046.53 145.923C1046.08 145.468 1045.82 144.852 1045.82 144.207V140.426Z" fill="#2F2E41"/>
<path d="M1036.84 160.774V163.916C1036.84 164.079 1036.9 164.235 1037.02 164.35C1037.13 164.466 1037.29 164.531 1037.45 164.533H1059.19C1059.36 164.532 1059.51 164.467 1059.63 164.351C1059.74 164.236 1059.81 164.079 1059.81 163.916V160.774H1036.84Z" fill="#3F3D56"/>
<path d="M1000.99 80.1328V139.632C1000.99 140.39 1001.29 141.117 1001.83 141.653C1002.37 142.189 1003.09 142.491 1003.85 142.491H1092.02C1092.78 142.491 1093.51 142.189 1094.05 141.653C1094.58 141.117 1094.88 140.39 1094.88 139.632V80.1328C1094.88 79.3752 1094.58 78.6492 1094.04 78.1139C1093.51 77.5785 1092.78 77.2773 1092.02 77.2764H1003.85C1003.09 77.2773 1002.37 77.5785 1001.83 78.1139C1001.3 78.6493 1000.99 79.3752 1000.99 80.1328Z" fill="#3F3D56"/>
<path d="M1003.06 80.8733V138.898C1003.06 139.303 1003.22 139.691 1003.51 139.978C1003.8 140.264 1004.18 140.426 1004.59 140.426H1091.29C1091.7 140.426 1092.08 140.264 1092.37 139.978C1092.66 139.691 1092.82 139.303 1092.82 138.898V80.8733C1092.82 80.4677 1092.66 80.0786 1092.37 79.7915C1092.08 79.5044 1091.7 79.3427 1091.29 79.3418H1004.59C1004.18 79.3427 1003.8 79.5044 1003.51 79.7915C1003.22 80.0786 1003.06 80.4677 1003.06 80.8733Z" fill="white"/>
<path d="M1019.15 164.32C1019.24 164.431 1019.35 164.52 1019.48 164.581C1019.61 164.642 1019.75 164.674 1019.89 164.673H1071.47C1071.61 164.673 1071.75 164.641 1071.88 164.58C1072 164.519 1072.12 164.431 1072.21 164.322C1072.29 164.212 1072.36 164.084 1072.39 163.947C1072.42 163.81 1072.43 163.667 1072.4 163.529L1071.6 159.726C1071.56 159.571 1071.49 159.426 1071.39 159.306C1071.29 159.185 1071.15 159.093 1071.01 159.036C1070.9 158.994 1070.78 158.973 1070.67 158.973H1020.69C1020.57 158.973 1020.46 158.994 1020.35 159.036C1020.2 159.093 1020.07 159.185 1019.97 159.306C1019.86 159.426 1019.79 159.571 1019.76 159.726L1018.96 163.529C1018.93 163.667 1018.93 163.81 1018.97 163.946C1019 164.083 1019.06 164.211 1019.15 164.32Z" fill="#2F2E41"/>
<path d="M1088.48 87.3352H1007.35C1007.27 87.3333 1007.19 87.2985 1007.13 87.2382C1007.07 87.1779 1007.04 87.0969 1007.04 87.0126C1007.04 86.9282 1007.07 86.8472 1007.13 86.7869C1007.19 86.7266 1007.27 86.6918 1007.35 86.6899H1088.48C1088.56 86.6918 1088.64 86.7266 1088.7 86.7869C1088.76 86.8472 1088.79 86.9282 1088.79 87.0126C1088.79 87.0969 1088.76 87.1779 1088.7 87.2382C1088.64 87.2985 1088.56 87.3333 1088.48 87.3352Z" fill="#3F3D56"/>
<path d="M1012.87 85.0423C1013.92 85.0423 1014.76 84.177 1014.76 83.1095C1014.76 82.0421 1013.92 81.1768 1012.87 81.1768C1011.83 81.1768 1010.98 82.0421 1010.98 83.1095C1010.98 84.177 1011.83 85.0423 1012.87 85.0423Z" fill="#3F3D56"/>
<path d="M1019.4 85.0423C1020.45 85.0423 1021.3 84.177 1021.3 83.1095C1021.3 82.0421 1020.45 81.1768 1019.4 81.1768C1018.36 81.1768 1017.51 82.0421 1017.51 83.1095C1017.51 84.177 1018.36 85.0423 1019.4 85.0423Z" fill="#3F3D56"/>
<path d="M1025.94 85.0423C1026.98 85.0423 1027.83 84.177 1027.83 83.1095C1027.83 82.0421 1026.98 81.1768 1025.94 81.1768C1024.89 81.1768 1024.05 82.0421 1024.05 83.1095C1024.05 84.177 1024.89 85.0423 1025.94 85.0423Z" fill="#3F3D56"/>
<path d="M1084.54 81.6548H1079.9C1079.81 81.6569 1079.73 81.6948 1079.66 81.7605C1079.6 81.8261 1079.56 81.9142 1079.56 82.0059C1079.56 82.0976 1079.6 82.1857 1079.66 82.2513C1079.73 82.3169 1079.81 82.3548 1079.9 82.357H1084.54C1084.64 82.3557 1084.72 82.3181 1084.79 82.2524C1084.85 82.1867 1084.89 82.0981 1084.89 82.0059C1084.89 81.9136 1084.85 81.8251 1084.79 81.7594C1084.72 81.6937 1084.64 81.6561 1084.54 81.6548Z" fill="#3F3D56"/>
<path d="M1084.54 82.9736H1079.9C1079.81 82.9757 1079.73 83.0135 1079.66 83.0792C1079.6 83.1448 1079.56 83.2329 1079.56 83.3247C1079.56 83.4165 1079.6 83.5047 1079.66 83.5703C1079.73 83.6359 1079.81 83.6738 1079.9 83.6758H1084.54C1084.64 83.6747 1084.72 83.6372 1084.79 83.5715C1084.85 83.5058 1084.89 83.4171 1084.89 83.3247C1084.89 83.2323 1084.85 83.1437 1084.79 83.0779C1084.72 83.0122 1084.64 82.9747 1084.54 82.9736Z" fill="#3F3D56"/>
<path d="M1084.54 84.292H1079.9C1079.81 84.2941 1079.73 84.3321 1079.66 84.3977C1079.6 84.4633 1079.56 84.5514 1079.56 84.6431C1079.56 84.7348 1079.6 84.8229 1079.66 84.8885C1079.73 84.9541 1079.81 84.992 1079.9 84.9942H1084.54C1084.64 84.9929 1084.72 84.9553 1084.79 84.8896C1084.85 84.8239 1084.89 84.7354 1084.89 84.6431C1084.89 84.5508 1084.85 84.4623 1084.79 84.3966C1084.72 84.3309 1084.64 84.2933 1084.54 84.292Z" fill="#3F3D56"/>
<path d="M1196.38 162.153C1196.52 162.561 1196.78 162.913 1197.14 163.161C1197.49 163.408 1197.91 163.537 1198.34 163.529L1206.76 163.313C1207.2 163.304 1207.62 163.155 1207.96 162.889C1208.3 162.622 1208.55 162.252 1208.66 161.833L1209.85 149.096C1210.28 149.287 1210.74 149.382 1211.2 149.372C1211.6 149.362 1212 149.273 1212.37 149.109C1212.74 148.946 1213.07 148.711 1213.35 148.419C1213.62 148.127 1213.84 147.783 1213.99 147.407C1214.13 147.031 1214.2 146.63 1214.19 146.227C1214.18 145.824 1214.09 145.427 1213.93 145.058C1213.76 144.69 1213.53 144.357 1213.24 144.079C1212.95 143.801 1212.6 143.584 1212.23 143.439C1211.85 143.294 1211.45 143.225 1211.05 143.235C1210.86 143.234 1210.67 143.254 1210.49 143.292C1210.3 143.079 1210.06 142.909 1209.79 142.794C1209.52 142.679 1209.24 142.621 1208.95 142.624L1196 142.958C1195.89 142.962 1195.78 142.976 1195.68 142.998C1195.39 143.051 1195.12 143.164 1194.89 143.33C1194.65 143.496 1194.45 143.71 1194.31 143.959C1194.16 144.208 1194.07 144.485 1194.04 144.772C1194.01 145.06 1194.04 145.35 1194.13 145.624L1196.38 162.153ZM1210.1 148.231L1210.94 145.196C1211.04 144.845 1211.04 144.475 1210.95 144.124C1210.99 144.123 1211.03 144.104 1211.07 144.104C1211.65 144.092 1212.21 144.311 1212.63 144.713C1213.05 145.115 1213.3 145.667 1213.31 146.248C1213.32 146.829 1213.11 147.392 1212.71 147.813C1212.3 148.234 1211.75 148.479 1211.17 148.494C1210.8 148.506 1210.43 148.415 1210.1 148.231Z" fill="#2F2E41"/>
<path d="M1195.68 142.998C1195.95 144.575 1199.05 145.684 1202.78 145.491C1206.21 145.333 1209.02 144.129 1209.53 142.702C1209.34 142.646 1209.14 142.62 1208.94 142.624L1196 142.958C1195.89 142.962 1195.78 142.976 1195.68 142.998Z" fill="#3F3D56"/>
<path d="M1203.47 155.154C1203.48 155.15 1203.5 155.143 1203.52 155.133L1205.34 153.936C1205.37 153.922 1205.38 153.902 1205.4 153.879C1205.41 153.856 1205.42 153.83 1205.42 153.804C1205.42 153.777 1205.41 153.751 1205.4 153.728C1205.38 153.705 1205.37 153.685 1205.34 153.671L1203.44 152.426C1203.43 152.415 1203.41 152.407 1203.39 152.403C1203.37 152.399 1203.34 152.399 1203.32 152.403C1203.3 152.407 1203.28 152.416 1203.27 152.427C1203.25 152.439 1203.23 152.454 1203.22 152.472C1203.21 152.489 1203.2 152.509 1203.2 152.529C1203.2 152.55 1203.2 152.571 1203.2 152.591C1203.2 152.612 1203.21 152.631 1203.23 152.648C1203.24 152.666 1203.25 152.68 1203.27 152.692L1204.97 153.803L1203.34 154.867C1203.31 154.888 1203.29 154.919 1203.28 154.955C1203.27 154.991 1203.27 155.029 1203.28 155.064C1203.3 155.098 1203.33 155.126 1203.36 155.143C1203.39 155.159 1203.43 155.163 1203.47 155.154Z" fill="#FF8016"/>
<path d="M1200.58 155.287C1200.61 155.28 1200.64 155.263 1200.66 155.239C1200.68 155.216 1200.69 155.186 1200.7 155.155C1200.7 155.124 1200.7 155.092 1200.68 155.063C1200.67 155.035 1200.65 155.011 1200.62 154.996L1198.94 154.03L1200.56 152.82C1200.58 152.807 1200.6 152.792 1200.61 152.774C1200.62 152.756 1200.62 152.736 1200.63 152.716C1200.63 152.695 1200.63 152.674 1200.62 152.654C1200.62 152.634 1200.61 152.614 1200.6 152.598C1200.58 152.581 1200.57 152.567 1200.55 152.556C1200.53 152.546 1200.51 152.538 1200.49 152.535C1200.47 152.532 1200.45 152.533 1200.43 152.538C1200.41 152.544 1200.39 152.553 1200.37 152.565L1198.55 153.919C1198.53 153.935 1198.51 153.956 1198.5 153.98C1198.49 154.004 1198.49 154.03 1198.49 154.056C1198.49 154.083 1198.5 154.108 1198.51 154.131C1198.53 154.153 1198.54 154.172 1198.57 154.185L1200.46 155.271C1200.5 155.292 1200.54 155.298 1200.58 155.287Z" fill="#FF8016"/>
<path d="M1203.29 156.202C1203.3 156.199 1203.32 156.192 1203.33 156.184C1203.35 156.173 1203.36 156.159 1203.38 156.142C1203.39 156.125 1203.4 156.106 1203.4 156.086C1203.41 156.066 1203.41 156.045 1203.4 156.024C1203.4 156.003 1203.39 155.984 1203.38 155.966L1200.79 151.705C1200.77 151.669 1200.73 151.644 1200.69 151.634C1200.65 151.624 1200.61 151.631 1200.57 151.653C1200.54 151.675 1200.51 151.71 1200.5 151.751C1200.49 151.792 1200.5 151.835 1200.52 151.871L1203.11 156.131C1203.13 156.16 1203.16 156.183 1203.19 156.195C1203.22 156.208 1203.25 156.211 1203.29 156.202Z" fill="#FF8016"/>
<path d="M1057.61 104.874H1043.57C1042.99 104.874 1042.53 105.338 1042.53 105.911V107.283C1042.53 107.856 1042.99 108.32 1043.57 108.32H1057.61C1058.18 108.32 1058.64 107.856 1058.64 107.283V105.911C1058.64 105.338 1058.18 104.874 1057.61 104.874Z" fill="#FF8016"/>
<path d="M1065.79 111.766H1035.38C1034.81 111.766 1034.34 112.23 1034.34 112.803V114.175C1034.34 114.748 1034.81 115.212 1035.38 115.212H1065.79C1066.36 115.212 1066.83 114.748 1066.83 114.175V112.803C1066.83 112.23 1066.36 111.766 1065.79 111.766Z" fill="#E6E6E6"/>
<path d="M1065.79 118.658H1035.38C1034.81 118.658 1034.34 119.123 1034.34 119.695V121.067C1034.34 121.64 1034.81 122.104 1035.38 122.104H1065.79C1066.36 122.104 1066.83 121.64 1066.83 121.067V119.695C1066.83 119.123 1066.36 118.658 1065.79 118.658Z" fill="#E6E6E6"/>
<path d="M1068.37 141.737L1068.44 141.954L1068.44 141.962L1070.51 148.265L1072.9 155.529L1077.39 169.179L1077.43 171.299V171.306L1077.76 188.364L1076.84 190.676L1077.88 194.468C1077.88 194.468 1077.4 188.737 1074.84 192.028C1073.38 193.898 1071.68 195.812 1070.29 197.606C1072.32 198.429 1074.39 199.173 1076.48 199.839C1076.94 199.984 1077.39 200.122 1077.85 200.259C1077.95 200.288 1078.05 200.317 1078.14 200.346C1085.1 202.404 1092.29 203.56 1099.54 203.786C1099.92 203.797 1100.29 203.804 1100.65 203.812C1100.78 203.815 1100.9 203.819 1101.02 203.819C1101.43 203.822 1101.83 203.826 1102.24 203.826C1103.06 203.826 1103.87 203.814 1104.68 203.79C1110.69 203.62 1116.67 202.812 1122.51 201.379C1122.47 198.969 1122.36 196.153 1122.2 193.144C1122.13 191.669 1120.5 190.071 1120.4 188.527C1120.34 187.367 1121.8 186.276 1121.72 185.098C1121.23 177.845 1120.61 180.629 1120.15 175.493C1120.11 174.989 1120.06 174.507 1120.02 174.047C1119.73 170.748 1119.53 168.686 1119.53 168.686L1121.48 156.395L1124.54 137.097L1124.3 136.71L1124.04 136.579L1107.88 128.583L1107.01 126.336C1106.75 125.688 1106.31 125.132 1105.73 124.739C1105.16 124.346 1104.48 124.133 1103.79 124.128L1093.14 124.085C1092.59 124.083 1092.05 124.212 1091.55 124.462C1091.06 124.712 1090.64 125.076 1090.31 125.524L1087.43 129.515L1068.37 141.737Z" fill="#3F3D56"/>
<path d="M1079.84 166.141L1077.43 171.299L1075.79 174.822L1072.95 189.643L1071.54 191.148L1070.32 185.823L1057.61 188.644C1057.2 186.328 1057.5 188.723 1057.25 186.182C1057.32 186.109 1057.39 186.037 1057.47 185.964C1057.67 185.776 1057.84 185.598 1057.84 185.428C1057.69 176.664 1058.13 161.748 1061.76 152.712C1062.33 151.237 1063.08 149.838 1063.99 148.547C1064.07 148.45 1064.14 148.352 1064.2 148.254C1065.88 145.909 1066.94 143.6 1068.44 141.958V141.954C1068.45 141.947 1068.46 141.938 1068.46 141.929C1068.47 141.926 1068.47 141.923 1068.48 141.918L1078.79 136.452L1079.23 148.877L1079.54 157.808L1079.84 166.141Z" fill="#3F3D56"/>
<path d="M1117.01 167.607L1120.02 174.049L1121.07 176.292L1123.9 191.112L1125.32 192.612L1126.53 187.289L1127.1 187.171L1137.42 185.035L1140.42 194.582C1141.1 193.453 1141.37 192.125 1141.18 190.822C1140.99 189.519 1140.36 188.321 1139.39 187.431C1139.18 187.246 1139.01 187.065 1139.02 186.894C1139.19 176.585 1138.56 157.763 1132.86 150.016C1131.05 147.557 1129.97 145.108 1128.39 143.398C1128.39 143.393 1128.39 143.388 1128.38 143.388L1124.54 137.097L1124.3 136.711L1124.04 136.579L1117.01 167.607Z" fill="#3F3D56"/>
<path d="M1098.77 121.057C1106.59 121.057 1112.93 114.718 1112.93 106.899C1112.93 99.0798 1106.59 92.7412 1098.77 92.7412C1090.95 92.7412 1084.61 99.0798 1084.61 106.899C1084.61 114.718 1090.95 121.057 1098.77 121.057Z" fill="#FFB6B6"/>
<path d="M1117.91 97.0096C1117.8 96.8923 1117.67 96.7984 1117.52 96.7335C1117.37 96.6685 1117.21 96.6338 1117.05 96.6315L1117.27 96.0405C1117.33 95.8544 1117.35 95.6531 1117.32 95.4573C1117.29 95.2615 1117.2 95.0783 1117.07 94.9263C1116.94 94.7744 1116.78 94.6592 1116.59 94.5925C1116.4 94.5259 1116.2 94.5103 1116.01 94.5471L1115.23 94.6965L1115.31 94.1786C1115.33 93.9857 1115.31 93.7888 1115.24 93.6074C1115.17 93.4259 1115.05 93.266 1114.9 93.1436C1114.75 93.0211 1114.57 92.9402 1114.37 92.9089C1114.18 92.8776 1113.98 92.8968 1113.8 92.9648C1113.64 93.0302 1113.46 93.0576 1113.28 93.045C1113.1 93.0323 1112.93 92.98 1112.77 92.8918C1112.62 92.8062 1112.48 92.6877 1112.38 92.5445C1112.27 92.4012 1112.2 92.2367 1112.16 92.0624L1111.89 90.7597L1111.86 90.6898C1110.55 88.4975 1108.02 86.9024 1104.92 86.3178C1102.17 85.7935 1099.35 86.0604 1096.62 86.3114C1095.54 86.4131 1094.32 86.5275 1093.31 87.1503C1092.44 87.6841 1091.71 88.7517 1091.86 89.8288C1089.17 89.0058 1086.3 90.6485 1084.87 92.7202C1083.18 95.1858 1082.9 98.2742 1082.86 100.689C1082.74 106.402 1083.92 111.076 1086.35 114.583C1086.53 114.838 1086.58 115.368 1086.93 115.546L1086.86 115.429C1087.25 115.626 1087.65 115.943 1087.5 116.283C1087.07 117.262 1089.92 119.426 1091.93 120.141C1095.59 121.447 1100.46 121.335 1103.89 120.865L1104.01 120.055C1105.25 119.886 1106.12 119.566 1106.36 119.064C1106.79 118.695 1107.16 118.365 1107.48 118.059L1107.49 118.056C1107.49 118.05 1107.5 118.04 1107.51 118.034C1109.06 116.55 1109.42 115.705 1109.58 114.418C1109.74 113.157 1109.46 111.876 1109.18 110.723C1115.13 111.644 1106.83 104.381 1112.38 102.977C1112.44 102.957 1112.51 102.941 1112.57 102.929C1112.73 102.891 1112.9 102.853 1113.05 102.808C1113.8 102.605 1114.52 102.298 1115.19 101.896C1116.74 100.953 1117.25 99.7008 1118.05 98.2901C1118.17 98.0892 1118.21 97.8567 1118.19 97.6264C1118.16 97.3961 1118.06 97.18 1117.91 97.0096Z" fill="#2F2E41"/>
<path d="M1148.85 168.614C1148.84 169.17 1148.84 169.949 1148.81 170.912C1148.81 171.045 1148.8 171.182 1148.8 171.322C1148.76 173.091 1148.72 174.575 1148.65 176.224C1148.65 176.339 1148.64 176.45 1148.64 176.564C1148.55 178.865 1148.41 181.543 1148.17 185.785C1147.72 193.62 1146.94 186.862 1146.15 189.61C1146.12 189.747 1146.07 189.909 1146.04 190.1C1145.92 190.791 1145.72 191.466 1145.44 192.111C1145.02 192.359 1144.59 192.597 1144.17 192.835C1142.97 193.506 1141.74 194.151 1140.51 194.764C1139.82 195.107 1139.12 195.444 1138.42 195.768C1138.31 195.819 1138.2 195.87 1138.1 195.917C1134.52 197.573 1130.83 198.981 1127.05 200.131C1126.32 200.353 1125.58 200.569 1124.84 200.769C1124.07 200.985 1123.29 201.189 1122.5 201.379C1116.67 202.813 1110.69 203.621 1104.68 203.791C1103.87 203.816 1103.06 203.826 1102.24 203.826C1101.83 203.826 1101.43 203.823 1101.02 203.819C1100.9 203.819 1100.78 203.816 1100.65 203.813C1100.29 203.804 1099.92 203.797 1099.55 203.788C1092.29 203.562 1085.1 202.405 1078.15 200.347L1077.85 200.261C1077.39 200.121 1076.94 199.984 1076.48 199.838C1074.39 199.174 1072.32 198.431 1070.29 197.608C1068.73 196.982 1067.2 196.31 1065.68 195.593C1065.66 195.59 1065.65 195.583 1065.64 195.574C1065.32 195.428 1065 195.276 1064.68 195.12C1064.64 195.098 1064.6 195.075 1064.55 195.053C1063.37 194.475 1062.2 193.869 1061.04 193.236C1060.06 190.996 1058.69 190.567 1057.84 188.597C1057.59 188.012 1057.41 187.4 1057.3 186.773C1057.3 186.767 1057.3 186.76 1057.3 186.751C1057.39 187.933 1056.92 184.654 1057.3 186.738C1057.29 186.7 1057.29 186.659 1057.29 186.611C1057.28 186.497 1057.26 186.357 1057.25 186.182C1056.16 175.541 1056.23 163.372 1055.75 153.344C1055.72 152.696 1055.69 152.075 1055.65 151.482C1055.64 151.285 1055.63 151.091 1055.62 150.901C1055.64 150.844 1055.67 150.783 1055.69 150.726C1055.7 150.71 1055.71 150.694 1055.72 150.678C1055.73 150.659 1055.74 150.64 1055.75 150.621C1055.76 150.612 1055.76 150.599 1055.77 150.589C1055.78 150.578 1055.78 150.568 1055.79 150.558C1055.82 150.513 1055.85 150.465 1055.88 150.421C1055.9 150.402 1055.91 150.386 1055.93 150.37C1055.94 150.354 1055.95 150.339 1055.96 150.326C1055.97 150.31 1055.99 150.296 1056 150.284C1056.01 150.272 1056.03 150.256 1056.04 150.24C1056.05 150.23 1056.06 150.221 1056.07 150.214C1056.09 150.186 1056.12 150.159 1056.15 150.135C1056.26 150.031 1056.38 149.935 1056.51 149.849C1056.56 149.82 1056.6 149.792 1056.65 149.76C1056.97 149.569 1057.31 149.407 1057.66 149.277C1057.78 149.233 1057.9 149.191 1058.03 149.147C1058.07 149.134 1058.12 149.118 1058.17 149.102C1058.24 149.08 1058.31 149.058 1058.38 149.042C1058.74 148.934 1059.13 148.842 1059.56 148.756C1059.61 148.747 1059.66 148.737 1059.71 148.724C1059.79 148.708 1059.87 148.696 1059.95 148.683C1060.06 148.664 1060.17 148.645 1060.28 148.626C1061.22 148.476 1062.29 148.365 1063.48 148.292C1063.59 148.286 1063.7 148.279 1063.81 148.273C1063.94 148.267 1064.07 148.26 1064.2 148.254C1064.32 148.248 1064.43 148.244 1064.54 148.241C1064.66 148.235 1064.77 148.232 1064.89 148.229C1065.21 148.219 1065.54 148.21 1065.88 148.203C1066.83 148.184 1067.85 148.19 1068.91 148.213C1069.4 148.225 1069.9 148.238 1070.42 148.26C1070.45 148.26 1070.48 148.264 1070.51 148.264C1070.96 148.279 1071.41 148.299 1071.88 148.324C1072.2 148.34 1072.53 148.356 1072.86 148.375C1073.16 148.394 1073.48 148.413 1073.79 148.435C1074.03 148.448 1074.28 148.467 1074.53 148.483C1074.74 148.499 1074.95 148.515 1075.16 148.527L1075.44 148.546C1075.6 148.559 1075.75 148.569 1075.91 148.584C1076.26 148.613 1076.61 148.642 1076.97 148.67C1077.32 148.702 1077.68 148.734 1078.04 148.766C1078.4 148.797 1078.76 148.832 1079.12 148.867C1079.16 148.87 1079.19 148.874 1079.23 148.877C1079.56 148.912 1079.89 148.944 1080.22 148.978C1080.3 148.985 1080.38 148.991 1080.46 149.001C1080.77 149.033 1081.1 149.07 1081.42 149.104C1081.52 149.115 1081.62 149.125 1081.71 149.136C1081.97 149.163 1082.21 149.187 1082.47 149.217C1082.8 149.255 1083.14 149.29 1083.47 149.334C1083.73 149.363 1083.99 149.392 1084.24 149.423C1084.65 149.471 1085.06 149.522 1085.47 149.576C1085.62 149.595 1085.78 149.614 1085.93 149.636C1087.1 149.782 1088.28 149.944 1089.49 150.113C1091.31 150.37 1093.16 150.65 1095.02 150.952C1096.88 151.253 1098.76 151.572 1100.64 151.908C1101.12 151.994 1101.6 152.08 1102.08 152.169C1102.29 152.21 1102.51 152.251 1102.73 152.292C1103.09 152.359 1103.46 152.429 1103.83 152.499C1104.2 152.569 1104.57 152.639 1104.94 152.712C1105.38 152.798 1105.82 152.883 1106.26 152.969C1109.14 153.541 1112.02 154.151 1114.82 154.79C1115.28 154.895 1115.74 155.003 1116.2 155.108C1117.11 155.32 1118.02 155.536 1118.92 155.756C1119.17 155.813 1119.41 155.873 1119.65 155.934C1120.26 156.086 1120.87 156.239 1121.48 156.394L1121.58 156.423C1122.02 156.531 1122.45 156.642 1122.89 156.757C1123.91 157.023 1124.91 157.294 1125.9 157.567C1126.55 157.748 1127.2 157.931 1127.84 158.116C1128.79 158.393 1129.73 158.673 1130.64 158.955C1130.87 159.025 1131.09 159.095 1131.32 159.162C1131.98 159.368 1132.64 159.578 1133.28 159.788C1133.79 159.953 1134.28 160.121 1134.77 160.29C1135.26 160.458 1135.74 160.627 1136.21 160.795C1136.51 160.903 1136.81 161.017 1137.11 161.125C1137.54 161.284 1137.96 161.443 1138.38 161.602C1138.5 161.65 1138.63 161.701 1138.75 161.748C1138.83 161.783 1138.91 161.812 1138.98 161.844C1139.13 161.904 1139.28 161.961 1139.43 162.021C1139.58 162.079 1139.73 162.139 1139.87 162.203C1140.02 162.26 1140.16 162.32 1140.3 162.38C1140.44 162.438 1140.58 162.498 1140.72 162.562C1140.84 162.609 1140.96 162.66 1141.07 162.711C1141.29 162.809 1141.52 162.908 1141.74 163.01C1141.85 163.06 1141.95 163.108 1142.06 163.159L1142.31 163.273C1142.34 163.292 1142.38 163.308 1142.41 163.324C1142.49 163.362 1142.58 163.404 1142.66 163.442C1142.84 163.528 1143.02 163.62 1143.2 163.705C1143.44 163.826 1143.67 163.947 1143.89 164.064C1144.12 164.185 1144.34 164.306 1144.55 164.424C1144.58 164.443 1144.61 164.462 1144.65 164.481C1144.7 164.506 1144.74 164.535 1144.79 164.56C1144.95 164.652 1145.11 164.748 1145.26 164.84C1145.57 165.027 1145.86 165.211 1146.13 165.396C1146.19 165.437 1146.25 165.478 1146.31 165.517C1146.51 165.659 1146.7 165.799 1146.88 165.942C1146.88 165.945 1146.88 165.945 1146.88 165.945C1146.94 165.99 1147 166.038 1147.05 166.082C1147.1 166.127 1147.15 166.165 1147.2 166.209C1147.36 166.352 1147.52 166.489 1147.66 166.629C1147.7 166.672 1147.75 166.717 1147.79 166.765C1147.81 166.781 1147.83 166.798 1147.84 166.816C1147.9 166.88 1147.96 166.943 1148.02 167.007C1148.02 167.015 1148.03 167.025 1148.04 167.035C1148.11 167.124 1148.18 167.213 1148.25 167.302C1148.28 167.347 1148.32 167.391 1148.35 167.436C1148.38 167.49 1148.42 167.547 1148.45 167.601C1148.48 167.645 1148.51 167.693 1148.53 167.738C1148.6 167.852 1148.66 167.972 1148.71 168.097C1148.74 168.181 1148.77 168.268 1148.79 168.357C1148.82 168.441 1148.83 168.527 1148.85 168.614Z" fill="#2F2E41"/>
<path opacity="0.2" d="M1148.85 168.614C1148.84 169.17 1148.84 169.949 1148.81 170.912C1148.81 171.045 1148.8 171.182 1148.8 171.322C1148.77 172.672 1148.72 174.34 1148.65 176.224C1148.65 176.339 1148.65 176.45 1148.64 176.564C1148.55 178.865 1148.41 181.543 1148.17 185.785C1147.72 193.62 1146.94 186.862 1146.15 189.61C1143.97 188.27 1141.58 186.865 1139.03 185.423C1138.57 185.162 1138.1 184.9 1137.64 184.638C1132.53 181.788 1126.82 178.801 1120.86 175.843C1120.63 175.725 1120.39 175.608 1120.15 175.493C1106.51 168.748 1091.61 162.187 1079.54 157.808C1077.22 156.963 1074.99 156.201 1072.9 155.53C1068.5 154.123 1064.69 153.138 1061.76 152.712C1058.71 152.267 1056.6 152.426 1055.75 153.344C1055.72 152.696 1055.69 152.075 1055.65 151.482C1055.64 151.285 1055.63 151.091 1055.62 150.901C1055.64 150.848 1055.66 150.799 1055.69 150.748C1055.69 150.741 1055.69 150.733 1055.69 150.726C1055.7 150.71 1055.71 150.694 1055.72 150.678C1055.73 150.659 1055.74 150.639 1055.75 150.621C1055.76 150.599 1055.77 150.577 1055.79 150.558C1055.82 150.513 1055.85 150.465 1055.88 150.421C1055.91 150.388 1055.94 150.356 1055.96 150.326C1055.97 150.31 1055.99 150.296 1056 150.284C1056.01 150.272 1056.03 150.256 1056.04 150.24C1056.05 150.23 1056.06 150.221 1056.07 150.214C1056.09 150.186 1056.12 150.159 1056.15 150.135C1056.26 150.031 1056.38 149.935 1056.51 149.849C1056.56 149.82 1056.6 149.792 1056.65 149.76C1056.97 149.569 1057.31 149.407 1057.66 149.277C1057.78 149.233 1057.9 149.191 1058.03 149.147C1058.07 149.134 1058.12 149.118 1058.17 149.102C1058.24 149.08 1058.31 149.058 1058.38 149.042C1058.74 148.934 1059.13 148.842 1059.56 148.756C1059.68 148.731 1059.82 148.705 1059.95 148.683C1060.06 148.664 1060.17 148.645 1060.28 148.626C1061.22 148.476 1062.29 148.365 1063.48 148.292C1063.59 148.286 1063.7 148.279 1063.81 148.273C1063.94 148.267 1064.07 148.26 1064.2 148.254C1064.32 148.248 1064.43 148.244 1064.54 148.241C1064.66 148.235 1064.77 148.232 1064.89 148.229C1065.21 148.219 1065.54 148.21 1065.88 148.203C1066.83 148.187 1067.85 148.194 1068.91 148.216C1069.4 148.225 1069.9 148.241 1070.42 148.264C1070.45 148.264 1070.48 148.267 1070.51 148.267C1070.96 148.279 1071.42 148.302 1071.88 148.324C1072.2 148.34 1072.53 148.356 1072.86 148.375C1073.16 148.394 1073.48 148.413 1073.79 148.435C1074.03 148.448 1074.28 148.467 1074.53 148.483C1074.74 148.499 1074.95 148.515 1075.16 148.527C1075.41 148.546 1075.66 148.565 1075.91 148.584C1076.26 148.613 1076.61 148.642 1076.97 148.67C1077.32 148.702 1077.68 148.734 1078.04 148.766C1078.4 148.797 1078.76 148.832 1079.12 148.867C1079.16 148.87 1079.19 148.874 1079.23 148.877C1079.56 148.912 1079.89 148.943 1080.22 148.978C1082.07 149.166 1083.98 149.385 1085.93 149.636C1087.1 149.785 1088.29 149.945 1089.49 150.116C1091.31 150.373 1093.16 150.653 1095.02 150.952C1096.88 151.253 1098.76 151.572 1100.64 151.908C1101.12 151.994 1101.6 152.08 1102.08 152.168C1102.66 152.277 1103.25 152.387 1103.83 152.499C1104.2 152.569 1104.57 152.639 1104.94 152.712C1105.38 152.798 1105.82 152.883 1106.26 152.969C1109.14 153.541 1112.02 154.151 1114.82 154.79C1115.28 154.895 1115.74 155.003 1116.2 155.108C1117.11 155.32 1118.02 155.536 1118.92 155.756C1119.17 155.816 1119.41 155.876 1119.65 155.937C1120.27 156.089 1120.87 156.242 1121.48 156.394V156.398C1121.51 156.404 1121.55 156.413 1121.58 156.423C1122.02 156.534 1122.45 156.645 1122.89 156.76C1123.91 157.027 1124.91 157.296 1125.9 157.567C1126.55 157.751 1127.2 157.932 1127.84 158.116C1128.79 158.396 1129.73 158.676 1130.64 158.955C1130.87 159.025 1131.09 159.095 1131.32 159.162C1131.98 159.372 1132.64 159.58 1133.28 159.788C1133.79 159.953 1134.28 160.121 1134.77 160.29C1135.26 160.458 1135.74 160.627 1136.21 160.795C1136.52 160.903 1136.82 161.014 1137.11 161.122C1137.54 161.281 1137.96 161.44 1138.38 161.602C1138.5 161.65 1138.63 161.701 1138.75 161.748C1138.98 161.837 1139.21 161.929 1139.43 162.021C1139.58 162.079 1139.73 162.139 1139.87 162.203C1140.02 162.26 1140.16 162.32 1140.3 162.38C1140.44 162.438 1140.58 162.498 1140.72 162.562C1140.84 162.609 1140.96 162.66 1141.07 162.711C1141.29 162.809 1141.52 162.908 1141.74 163.01C1141.85 163.06 1141.95 163.108 1142.06 163.159L1142.31 163.273C1142.34 163.292 1142.38 163.308 1142.41 163.324C1142.68 163.451 1142.94 163.578 1143.2 163.705C1143.44 163.826 1143.67 163.947 1143.89 164.064C1144.16 164.204 1144.41 164.341 1144.65 164.481C1144.7 164.506 1144.74 164.535 1144.79 164.56C1144.95 164.652 1145.11 164.748 1145.26 164.84C1145.57 165.027 1145.86 165.211 1146.13 165.396C1146.4 165.58 1146.64 165.761 1146.88 165.942C1146.88 165.945 1146.88 165.945 1146.88 165.945C1146.99 166.034 1147.1 166.123 1147.2 166.209C1147.36 166.352 1147.52 166.489 1147.66 166.629C1147.7 166.672 1147.75 166.717 1147.79 166.765C1147.81 166.781 1147.83 166.798 1147.84 166.816C1147.91 166.889 1147.97 166.962 1148.04 167.035C1148.11 167.124 1148.18 167.213 1148.25 167.302C1148.28 167.347 1148.32 167.391 1148.35 167.436C1148.38 167.49 1148.42 167.547 1148.45 167.601C1148.48 167.645 1148.51 167.693 1148.53 167.737C1148.6 167.852 1148.66 167.972 1148.71 168.097C1148.74 168.181 1148.77 168.268 1148.79 168.357C1148.82 168.441 1148.83 168.527 1148.85 168.614Z" fill="black"/>
</g>
<defs>
<clipPath id="clip0_209_109">
<rect width="250" height="181.826" fill="white" transform="translate(976 22)"/>
</clipPath>
</defs>
</svg>
