<svg id="ecNjut2xZ4g1" xmlns="http://www.w3.org/2000/svg" xmlns:xlink="http://www.w3.org/1999/xlink" viewBox="0 0 1341 240" shape-rendering="geometricPrecision" text-rendering="geometricPrecision"><defs><linearGradient id="ecNjut2xZ4g3-fill" x1="52.1365" y1="7.75135" x2="688.646" y2="859.66" spreadMethod="pad" gradientUnits="userSpaceOnUse" gradientTransform="translate(0 0)"><stop id="ecNjut2xZ4g3-fill-0" offset="0%" stop-color="#73f7ff"/><stop id="ecNjut2xZ4g3-fill-1" offset="49.4792%" stop-color="#5a5aff"/><stop id="ecNjut2xZ4g3-fill-2" offset="100%" stop-color="#e338ff"/></linearGradient></defs><g id="ecNjut2xZ4g2"><path d="M15.7218,10h1299.9982v162.105c0,0-80.87-38.166-155.71-49.473-111.8-16.894-192.496,49.473-264.786,57.321s-95.497,4.685-238.744-32.394c-81.292-21.043-149.407-8.451-240.579,16.125-91.171,24.576-112.114612,22.105-241.696612,0C44.622688,141.579,15.7218,210,15.7218,210v-200Z" fill="url(#ecNjut2xZ4g3-fill)"/><path d="M15.7218,10h1299.9982v162.105c0,0-80.87-38.166-155.71-49.473-111.8-16.894-192.496,49.473-264.786,57.321s-95.497,4.685-238.744-32.394c-81.292-21.043-149.407-8.451-240.579,16.125-91.171,24.576-112.114612,22.105-241.696612,0C44.622688,141.579,15.7218,210,15.7218,210v-200Z" fill="#030303" fill-opacity="0.3"/></g><path id="ecNjut2xZ4g5" d="M517.846,63.8906c0,.8301-.098,1.9043-.293,3.2227-.179,1.3183-.432,2.8646-.757,4.6387-.358,1.9205-.733,4.0039-1.123,6.25-.391,2.2298-.676,4.5084-.855,6.8359c0,.1139-.016.3988-.048.8545-.033.4557-.074,1.0335-.123,1.7334-.048.6999-.105,1.4974-.17,2.3926-.049.8789-.098,1.8147-.147,2.8076-.049.9765-.089,1.9775-.122,3.0029s-.049,2.0264-.049,3.0029c0,.5534-.106,1.0498-.317,1.4892-.196.423-.464.781-.806,1.074-.342.31-.74.537-1.196.684-.456.163-.936.244-1.441.244-.293,0-.618-.065-.976-.195-.342-.114-.667-.293-.977-.537-.293-.228-.545-.521-.757-.879-.211-.358-.317-.7815-.317-1.2698c0-.3255.033-.7813.098-1.3672.081-.5859.171-1.2451.268-1.9775.114-.7325.236-1.5137.366-2.3438.131-.8301.245-1.652.342-2.4658.114-.8138.204-1.5869.269-2.3193.081-.7325.122-1.3672.122-1.9043c0-.293-.025-.5534-.073-.7813-.049-.2279-.188-.3418-.415-.3418-.489,0-1.148.0326-1.978.0977-.83.0488-1.701.1139-2.612.1953-.895.0651-1.774.1302-2.637.1953-.846.0488-1.538.0732-2.075.0732-.114,0-.399.0163-.855.0489-.439.0162-.968.0407-1.587.0732-.602.0326-1.253.0814-1.953.1465-.7.0488-1.359.0976-1.977.1465-.619.0488-1.156.1058-1.612.1709-.439.0488-.716.0976-.83.1465-.081.0813-.179.415-.293,1.0009-.097.586-.203,1.2696-.317,2.0508-.098.765-.187,1.5462-.269,2.3438-.081.7812-.138,1.416-.17,1.9043c0,1.0254-.066,2.0263-.196,3.0029-.114.9766-.325,1.8473-.634,2.6123-.293.7648-.684,1.3758-1.172,1.8308-.489.472-1.099.708-1.831.708-.456,0-.871-.114-1.246-.342-.358-.227-.667-.52-.927-.878-.261-.359-.464-.741-.611-1.148-.146-.4231-.219-.8137-.219-1.1718c0-.3418.032-.7405.097-1.1963.082-.4557.171-.9114.269-1.3672.098-.4557.187-.8707.268-1.2451.082-.3906.131-.6754.147-.8545.211-.9928.423-2.1403.635-3.4423.228-1.3021.447-2.71.659-4.2237.228-1.5299.447-3.1331.659-4.8096.228-1.6764.439-3.3772.635-5.1025.211-1.7415.415-3.4749.61-5.2002s.374-3.3935.537-5.0049c.033-.2441.122-.4964.269-.7568.163-.2767.366-.5208.61-.7324.261-.2279.554-.4151.879-.5616.326-.1464.667-.2197,1.025-.2197.082,0,.155.0082.22.0244.065,0,.139.0082.22.0244.618.114,1.115.2767,1.489.4883.375.1953.659.4476.855.7569.195.3092.325.6754.39,1.0986s.098.9115.098,1.4648c0,1.0417-.073,2.1322-.22,3.2715-.146,1.1231-.35,2.2705-.61,3.4424-.114.5371-.228,1.0986-.342,1.6846-.098.5859-.187,1.1719-.268,1.7578-.082.5859-.147,1.1556-.196,1.709-.049.5371-.073,1.0416-.073,1.5137.033.0488.114.0895.244.122.147.0326.309.057.488.0733.179.0162.358.0325.537.0488.196,0,.359,0,.489,0c.244,0,.659,0,1.245,0c.586-.0163,1.269-.0407,2.051-.0733.781-.0325,1.627-.0651,2.539-.0976.927-.0488,1.855-.1058,2.783-.1709.944-.0651,1.855-.1384,2.734-.2197.879-.0977,1.677-.2035,2.393-.3174s1.302-.2442,1.758-.3906c.472-.1465.765-.3093.879-.4883.081-.114.187-.4395.317-.9766.13-.5534.269-1.2451.415-2.0752.163-.8301.317-1.7659.464-2.8076.163-1.0579.309-2.1566.439-3.2959.131-1.1393.236-2.2868.318-3.4424.081-1.1556.122-2.2542.122-3.2959c0-.1953.081-.4394.244-.7324s.382-.5778.659-.8545c.277-.293.61-.5371,1.001-.7324s.806-.293,1.245-.293c.293,0,.627.0488,1.001.1465.375.0977.724.2441,1.05.4395.342.1953.627.4475.854.7568.228.3092.35.6754.367,1.0986Zm14.345,16.1133c0-.7161-.114-1.2207-.341-1.5137-.212-.2929-.456-.4394-.733-.4394-.244,0-.529.1465-.854.4394-.326.293-.668.6918-1.026,1.1963-.341.4883-.691,1.0661-1.049,1.7334-.342.6511-.668,1.3428-.977,2.0752-.293.7324-.545,1.4893-.757,2.2705-.195.765-.334,1.5056-.415,2.2217.472-.3906.895-.7406,1.27-1.0498.39-.3255.756-.6673,1.098-1.0254.342-.3418.725-.7568,1.148-1.2451.439-.5046.854-1.0254,1.245-1.5625.39-.5371.716-1.0742.976-1.6113.277-.5371.415-1.0336.415-1.4893Zm18.946,2.6367c0,.1302-.049.3337-.147.6104-.097.2767-.26.6022-.488.9765-.635,1.0092-1.432,2.1078-2.393,3.2959-.944,1.1882-1.993,2.3763-3.149,3.5645-1.139,1.1719-2.368,2.3112-3.687,3.418-1.302,1.0905-2.628,2.0589-3.979,2.9052-1.335.8464-2.669,1.53-4.004,2.0508-1.335.5046-2.604.7571-3.809.7571-1.53,0-2.864-.212-4.003-.635-1.14-.4232-2.084-1.0335-2.832-1.8311-.749-.8138-1.311-1.7985-1.685-2.9541-.374-1.1718-.562-2.4983-.562-3.9795c0-1.123.082-2.3112.245-3.5644.179-1.2533.496-2.5228.952-3.8086.455-1.3021,1.066-2.6042,1.831-3.9063.781-1.3183,1.774-2.5879,2.978-3.8086.928-.944,1.929-1.6601,3.003-2.1484s2.1-.7324,3.076-.7324c.179,0,.407.0407.684.1221.277.0651.553.1627.83.2929s.545.2849.806.4639c.26.179.472.3743.634.5859.521.6673.912,1.3021,1.172,1.9043.261.586.391,1.2533.391,2.002c0,1.1719-.163,2.2298-.488,3.1738-.326.944-.773,1.8311-1.343,2.6611-.553.8138-1.213,1.6032-1.978,2.3682s-1.587,1.5625-2.465,2.3926c-.538.5045-1.205,1.0579-2.002,1.6601-.798.586-1.652,1.2289-2.564,1.9287.13.5046.293.9441.488,1.3184.196.3581.44.6592.733.9033.293.2442.643.4313,1.05.5616.423.1139.919.1709,1.489.1709.765,0,1.579-.1303,2.441-.3907.879-.2604,1.758-.594,2.637-1.0009.765-.3581,1.522-.8057,2.271-1.3428.748-.5534,1.505-1.1231,2.27-1.709.472-.3581,1.074-.8708,1.807-1.5381.748-.6836,1.505-1.3916,2.27-2.124.521-.4883,1.042-.9603,1.563-1.416.521-.472,1.074-.9929,1.66-1.5625l1.294-1.2696c.944-.7649,1.709-1.1474,2.295-1.1474.309,0,.504.0895.586.2685.081.1791.122.35.122.5127Zm18.276-2.1484c-.016.2767-.114.7161-.293,1.3183-.179.586-.407,1.2777-.683,2.0752-.261.7976-.57,1.6765-.928,2.6368-.342.944-.692,1.9205-1.05,2.9296-.342,1.0092-.684,2.0264-1.025,3.0518-.342,1.0091-.643,1.9694-.904,2.8809-.016.0488-.089.2767-.219.6836-.114.3906-.269.9033-.464,1.538-.196.6185-.415,1.3265-.659,2.1241-.245.7815-.497,1.5865-.757,2.4165-.244.831-.497,1.636-.757,2.417-.244.798-.464,1.514-.659,2.149-.196.635-.358,1.155-.489,1.562-.13.424-.203.66-.219.708-.131.44-.277.953-.44,1.538-.146.586-.358,1.132-.635,1.636-.26.521-.61.961-1.049,1.319-.44.358-1.018.537-1.734.537-.407,0-.773-.082-1.098-.244-.31-.163-.578-.375-.806-.635-.212-.244-.383-.529-.513-.855-.114-.309-.171-.618-.171-.927c0-.359.09-.839.269-1.441.179-.586.399-1.237.659-1.953.277-.7.57-1.449.879-2.246.325-.781.627-1.554.903-2.319c0,0,.057-.163.171-.489.13-.309.293-.724.488-1.245.196-.521.407-1.107.635-1.7576.244-.6511.489-1.3021.733-1.9532.244-.651.472-1.2695.683-1.8554.228-.586.415-1.0742.562-1.4649-.375.3093-.806.6429-1.294,1.001s-1.009.7243-1.563,1.0986c-.537.3581-1.106.708-1.709,1.0498-.602.3256-1.204.6185-1.806.8789-.586.2605-1.172.4721-1.758.6348-.57.1465-1.115.2197-1.636.2197-1.123,0-2.116-.1871-2.978-.5615-.863-.3743-1.587-.8463-2.173-1.416-.586-.5859-1.034-1.2207-1.343-1.9043-.293-.6999-.439-1.3753-.439-2.0264c0-.4882.048-1.0905.146-1.8066.114-.7161.26-1.4811.439-2.2949.196-.8301.424-1.6846.684-2.5635.261-.8952.537-1.7578.83-2.5879s.594-1.595.903-2.2949c.326-.7162.652-1.3102.977-1.7822.505-.7325.985-1.2452,1.44-1.5381.472-.293.977-.4395,1.514-.4395.505,0,.912.0733,1.221.2197.325.1465.578.35.757.6104s.301.5534.366.8789.098.6755.098,1.0498c0,.2279-.098.5534-.293.9766-.179.4232-.407.9277-.684,1.5136-.244.5046-.529,1.1068-.854,1.8067-.326.6836-.627,1.4323-.904,2.2461-.277.7975-.513,1.6357-.708,2.5146s-.293,1.766-.293,2.6612c0,.3092.082.5696.244.7812.163.2116.35.3825.562.5127.228.1139.456.2035.683.2686.245.0488.44.0732.586.0732.586,0,1.197-.1139,1.831-.3418.635-.2441,1.262-.5371,1.88-.8789.635-.3581,1.245-.7324,1.831-1.123.603-.4069,1.172-.7732,1.709-1.0987.44-.2767.928-.6266,1.465-1.0498.537-.4394,1.001-.9277,1.392-1.4648.179-.2442.39-.6755.635-1.294.26-.6347.529-1.3509.805-2.1484.277-.7975.545-1.6113.806-2.4414.277-.8464.513-1.6113.708-2.2949.146-.4883.334-.9115.561-1.2696.245-.3743.497-.6754.757-.9033.277-.2441.554-.4232.83-.5371.293-.1302.562-.1953.806-.1953.553,0,.993.0488,1.318.1465.342.0976.603.2685.782.5127.179.2278.293.5452.341.9521.066.3906.098.8789.098,1.4649v.0488Zm14.712,17.749c0,.179-.09.5127-.269,1.001-.179.472-.39.9768-.634,1.5138s-.505,1.05-.782,1.538c-.26.505-.488.854-.683,1.05-.244.244-.521.504-.83.781-.293.277-.635.537-1.026.781-.374.261-.789.489-1.245.684-.439.195-.919.342-1.44.439-.212.033-.375.065-.488.098-.114.049-.22.089-.318.122-.635.277-1.245.488-1.831.635-.57.163-1.09.244-1.562.244-1.075,0-1.612-.594-1.612-1.782c0-.423.187-.822.562-1.197c1.123-.276,2.116-.634,2.978-1.074.879-.439,1.604-.928,2.173-1.465.13-.146.269-.366.415-.659.147-.293.285-.594.415-.903.13-.3257.236-.6105.318-.8546.097-.2605.146-.4232.146-.4883c0-.1791-.008-.3906-.024-.6348c0-.2441-.017-.4964-.049-.7568-.033-.2767-.082-.5371-.147-.7813-.065-.2604-.154-.472-.268-.6347-.309-.472-.464-.8952-.464-1.2696c0-.1953.041-.4231.122-.6836.098-.2767.22-.5371.366-.7812.163-.2604.358-.472.586-.6348.244-.179.513-.2685.806-.2685s.643.0569,1.05.1709c.423.1139.822.2522,1.196.415.391.1628.732.3418,1.025.5371.293.179.464.3499.513.5127.667,1.7741,1.001,3.2227,1.001,4.3457Zm32.28-32.251c0,.1465-.032.3744-.097.6836s-.155.6429-.269,1.001c-.098.3581-.212.7162-.342,1.0742-.13.3418-.26.6348-.39.8789-.114.2604-.326.5127-.635.7569-.309.2278-.643.4231-1.001.5859s-.716.293-1.074.3906c-.358.0977-.659.1465-.904.1465-.325,0-.586-.0407-.781-.1221-.179-.0813-.317-.1953-.415-.3418-.098-.1464-.163-.3092-.195-.4882-.017-.1953-.033-.3907-.049-.586c0-.0325-.008-.1058-.024-.2197-.017-.1139-.066-.3743-.147-.7812-.049-.1465-.106-.2767-.171-.3907-.049-.1139-.098-.236-.146-.3662-.049-.1302-.098-.2767-.147-.4394-.032-.1791-.049-.3907-.049-.6348c0-.3092.098-.6429.293-1.001.212-.3743.489-.7161.83-1.0254.358-.3255.773-.594,1.246-.8056.472-.2116.984-.3174,1.538-.3174.162,0,.406.0651.732.1953.326.1139.651.2685.977.4639.325.1953.61.415.854.6591.244.2279.366.4558.366.6836Zm7.447,27.0752c0,.2604-.09.6022-.269,1.0254-.179.4069-.439.8545-.781,1.3428s-.765,1.001-1.27,1.5381c-.504.5208-1.082,1.0254-1.733,1.5137-.358.2604-.806.5615-1.343.9033-.521.3418-1.131.6673-1.831.9763-.7.293-1.481.537-2.344.733-.862.211-1.806.317-2.832.317-1.286,0-2.392-.244-3.32-.732-.912-.489-1.66-1.1234-2.246-1.9047-.586-.7975-1.017-1.6927-1.294-2.6855-.277-1.0091-.415-2.0264-.415-3.0518c0-.7161.041-1.4648.122-2.2461.081-.7975.179-1.5788.293-2.3437.114-.765.244-1.5056.39-2.2217.147-.7324.277-1.3916.391-1.9775s.212-1.0824.293-1.4893c.081-.4232.122-.7162.122-.8789c0-.3744.041-.7813.122-1.2207.098-.4395.253-.8464.464-1.2207.212-.3906.497-.7162.855-.9766s.813-.3906,1.367-.3906c.586,0,1.09.0814,1.513.2441.44.1465.79.3337,1.05.5616.277.2278.48.472.611.7324.13.2604.195.5045.195.7324c0,.3418-.073.7813-.22,1.3184-.13.5371-.301,1.123-.513,1.7578-.162.5208-.341,1.0905-.537,1.709-.179.6184-.35,1.2695-.512,1.9531-.163.6836-.293,1.3916-.391,2.124s-.146,1.4811-.146,2.2461c0,.5534.024,1.1393.073,1.7578.049.6022.154,1.1638.317,1.6846.163.5045.399.9277.708,1.2695.326.3255.757.4883,1.294.4883.554,0,1.123-.0651,1.709-.1953.602-.1302,1.188-.293,1.758-.4883.586-.2116,1.131-.4557,1.636-.7324.521-.2767.976-.5615,1.367-.8545.846-.6348,1.595-1.1963,2.246-1.6846s1.253-.7324,1.807-.7324c.472,0,.805.1302,1.001.3906.195.2442.293.4802.293.708Zm4.482-25.0244c-.016.4557-.081,1.0091-.195,1.6602-.114.651-.285,1.416-.513,2.2949v-.0244c-.423,1.6764-1.017,3.1738-1.782,4.4922v-.0244c-.407.7649-.879,1.3346-1.416,1.7089-.537.3581-1.115.5371-1.734.5371-.358,0-.7-.0569-1.025-.1709-.326-.1139-.61-.2685-.855-.4638-.244-.1953-.439-.4232-.585-.6836-.147-.2767-.22-.5697-.22-.8789c0-.1953.04-.4151.122-.6592.081-.2441.179-.4801.293-.708.13-.2441.268-.4639.415-.6592.146-.2116.293-.3825.439-.5127.358-.3255.66-.6429.904-.9521.244-.3256.439-.6673.586-1.0254.162-.3581.276-.7406.341-1.1475.065-.4232.098-.887.098-1.3916c0-.4232-.122-.765-.366-1.0254-.179-.2278-.375-.4557-.586-.6836-.212-.2278-.448-.4557-.708-.6836-.781-.6836-1.172-1.1637-1.172-1.4404l-.171-1.2207c0-.2767.016-.5208.049-.7324.032-.2116.057-.3581.073-.4395.179-.472.7-.887,1.563-1.2451.325-.1627.61-.2685.854-.3174.261-.0651.497-.0976.708-.0976.472,0,.96.2278,1.465.6836.146.1302.309.2848.488.4638.179.1628.342.3337.489.5127.455.4558.765.7813.927.9766.179.179.285.2848.318.3174.228.3418.423.6592.586.9521.162.293.268.5534.317.7813.098.2278.171.5045.22.8301.049.3092.073.6266.073.9521v.0244Zm53.335,20.5567c0,.1464-.049.3824-.147.708-.081.3255-.203.6998-.366,1.123-.146.4069-.325.8464-.537,1.3184-.211.472-.447.9196-.708,1.3427-.504.8301-1.033,1.5951-1.587,2.295-.553.6836-1.155,1.2776-1.806,1.7822-.651.4883-1.368.8708-2.149,1.1475-.765.2604-1.611.3906-2.539.3906-.797,0-1.562-.1953-2.295-.586-.716-.3906-1.375-.9277-1.977-1.6113-.603-.6999-1.132-1.5299-1.587-2.4902-.456-.9766-.814-2.0508-1.075-3.2227-.162-.7324-.301-1.4567-.415-2.1728-.097-.7162-.187-1.3591-.268-1.9287s-.163-1.0336-.244-1.3916c-.082-.3581-.171-.5372-.269-.5372-.195,0-.439.1465-.732.4395-.277.2767-.611.7243-1.001,1.3428-.391.6022-.847,1.3834-1.367,2.3437-.505.9603-1.083,2.1078-1.734,3.4424-1.107,2.2624-2.108,3.9632-3.003,5.1025-.895,1.1231-1.814,1.6846-2.759,1.6846-.358,0-.708-.0651-1.049-.1953-.342-.1465-.651-.3255-.928-.5371-.277-.2279-.521-.4883-.732-.7813-.196-.2929-.35-.594-.464-.9033-.228-.6185-.448-1.3672-.66-2.2461-.211-.8952-.382-1.9368-.512-3.125-.098-.8789-.196-1.7008-.293-2.4658-.082-.7812-.163-1.4567-.244-2.0264-.082-.5696-.163-1.0091-.244-1.3183-.082-.3255-.163-.4883-.245-.4883-.146,0-.382.1628-.708.4883-.309.3092-.675.7161-1.098,1.2207-.407.4883-.847,1.0498-1.319,1.6846-.472.6347-.944,1.2858-1.416,1.9531-.455.651-.887,1.2939-1.294,1.9287-.406.6185-.748,1.1719-1.025,1.6602-.195.358-.431.7731-.708,1.2451s-.561.9521-.854,1.4404-.586.9603-.879,1.416c-.277.4557-.529.8464-.757,1.1719-.147.2116-.391.3988-.733.5615-.341.1628-.708.3013-1.098.4153-.391.097-.773.179-1.148.244-.358.049-.634.073-.83.073-.423,0-.757-.146-1.001-.439-.244-.2933-.431-.7002-.561-1.221-.13-.5371-.22-1.1638-.269-1.8799-.032-.7324-.049-1.53-.049-2.3926c0-.6673.033-1.4079.098-2.2217.081-.83.179-1.6927.293-2.5879.13-.8951.269-1.7903.415-2.6855s.293-1.7415.439-2.5391c.082-.472.155-.9603.22-1.4648.082-.5046.155-.9847.22-1.4404.065-.472.114-.9034.146-1.294.033-.3906.049-.708.049-.9521c0-.5697.196-1.0498.586-1.4405.391-.3906.928-.5859,1.611-.5859c2.181,0,3.272,1.3021,3.272,3.9063c0,.6184-.073,1.3753-.22,2.2705-.146.8789-.325,1.7985-.537,2.7587-.211.9603-.439,1.9043-.683,2.8321-.228.9277-.44,1.7415-.635,2.4414.635-1.0254,1.277-2.0427,1.928-3.0518.652-1.0254,1.286-1.9938,1.905-2.9052.618-.9115,1.204-1.7416,1.758-2.4903.569-.765,1.082-1.4079,1.538-1.9287c1.465-1.6439,3.117-2.4658,4.956-2.4658.634,0,1.163.1546,1.587.4639.439.3092.797.7324,1.074,1.2695.293.5371.529,1.1637.708,1.8799.179.6998.325,1.4485.439,2.2461.131.7975.236,1.6113.318,2.4414.081.83.171,1.6357.268,2.417.049.3743.09.7894.122,1.2451.033.4394.098.8138.196,1.123.065-.0976.171-.2929.317-.5859.163-.3093.342-.6755.537-1.0986.212-.4395.431-.9115.659-1.4161s.448-.9928.659-1.4648c.228-.4883.44-.9359.635-1.3428.196-.4069.35-.7243.464-.9521.602-1.1393,1.18-2.0996,1.734-2.8809.569-.7975,1.139-1.4404,1.709-1.9287.569-.5046,1.155-.8708,1.757-1.0986.603-.2279,1.254-.3418,1.953-.3418.733,0,1.343.1302,1.831.3906.505.2604.92.6104,1.246,1.0498.325.4232.586.9115.781,1.4648.211.5372.399,1.0905.561,1.6602.114.3906.228.9196.342,1.5869.13.6673.252,1.3428.366,2.0264.131.6673.245,1.2858.342,1.8555.098.5533.179.9196.244,1.0986.179.5208.367,1.0091.562,1.4648.195.4558.399.8545.61,1.1963.228.3255.464.586.708.7813s.505.2929.781.2929c.928,0,1.962-.4638,3.101-1.3916c1.156-.9277,2.368-2.2949,3.638-4.1015.163-.2279.358-.3906.586-.4883.244-.1139.48-.1709.708-.1709s.415.1221.561.3662c.147.2441.22.5046.22.7813Zm45.122-18.0665c0,.2279-.033.5046-.098.8301-.048.3255-.13.6673-.244,1.0254-.114.3418-.244.6755-.39,1.001-.131.3092-.285.5615-.464.7568h.024c-.521.6185-1.75.9278-3.686.9278c0-.6999-.033-1.3021-.098-1.8067-.049-.5208-.138-.9358-.269-1.2451-.114-.2604-.317-.4801-.61-.6592-.293-.179-.627-.3255-1.001-.4394-.358-.114-.724-.1953-1.099-.2442-.374-.0651-.699-.0976-.976-.0976-.7,0-1.384.0163-2.051.0488-.667.0326-1.326.0977-1.977.1953-.635.0977-1.286.236-1.954.4151-.651.179-1.318.4069-2.002.6836-.488.1953-1.009.4394-1.562.7324-.537.2929-1.042.6266-1.514,1.0009-.472.3581-.879.7569-1.22,1.1963-.326.4232-.529.8789-.611,1.3672l.025-.0488c0,.3906.13.8301.39,1.3184.261.472.611.944,1.05,1.416.456.4557.977.8789,1.563,1.2695.586.3744,1.204.651,1.855.8301.049.0163.187.0651.415.1465.228.0813.505.179.83.2929.326.0977.668.2116,1.026.3418.374.1302.716.2523,1.025.3662.325.0977.594.1872.806.2686.227.0651.358.1058.39.1221c3.776.9603,6.576,2.1159,8.399,3.4668s2.734,3.011,2.734,4.9804c0,.6348-.138,1.2696-.415,1.9043-.277.6185-.627,1.2126-1.05,1.7823-.423.5696-.887,1.0986-1.391,1.5869-.489.472-.953.8707-1.392,1.1963l.024-.0245c-.472.3744-1.009.7569-1.611,1.1475-.586.3906-1.221.7731-1.904,1.1475-.684.3745-1.392.7245-2.124,1.0495-.733.326-1.481.611-2.246.855-.716.228-1.473.439-2.271.635-.781.211-1.562.39-2.344.537-.781.146-1.538.26-2.27.341-.716.082-1.367.123-1.953.123-.309,0-.692-.041-1.148-.123-.439-.065-.911-.162-1.416-.293-.488-.13-.984-.284-1.489-.463-.488-.179-.928-.383-1.318-.611-.391-.228-.708-.472-.952-.732-.245-.261-.367-.537-.367-.83c0-.2607.049-.578.147-.9524.097-.3743.236-.7324.415-1.0742.195-.3581.415-.6592.659-.9033.26-.2605.537-.3907.83-.3907.407,0,.79.0489,1.148.1465.358.0977.756.2116,1.196.3418.456.114.976.2279,1.562.3418.603.0977,1.343.1465,2.222.1465s1.79-.0895,2.734-.2686c.961-.1953,1.905-.4475,2.832-.7568.928-.3255,1.815-.6917,2.662-1.0986.846-.4069,1.611-.8301,2.295-1.2696.292-.1953.61-.415.952-.6591.358-.2605.683-.5371.976-.8301.309-.3093.562-.6266.757-.9522.212-.3255.317-.6591.317-1.0009c0-.3907-.293-.765-.878-1.1231v.0244c-.863-.5208-1.718-.9196-2.564-1.1963s-1.587-.5045-2.222-.6836c-1.79-.4557-3.971-1.18-6.543-2.1728h.025c-1.074-.4232-2.116-.9684-3.125-1.6357s-1.88-1.3672-2.612-2.0997c-1.628-1.8066-2.442-3.8899-2.442-6.25c0-.9277.261-1.831.781-2.7099.521-.8789,1.229-1.7009,2.124-2.4658.896-.7813,1.929-1.4974,3.101-2.1485c1.188-.651,2.45-1.2044,3.784-1.6601c1.335-.472,2.694-.8382,4.077-1.0987c1.4-.2604,2.751-.3906,4.053-.3906.407,0,.912.0326,1.514.0977.618.0488,1.245.1302,1.88.2441.651.0977,1.269.2279,1.855.3906.586.1465,1.05.3174,1.392.5127h-.025c.944.5046,1.685,1.1068,2.222,1.8067.553.6998.83,1.3834.83,2.0507Zm45.815,11.5967c0,.2442-.122.5941-.366,1.0498s-.561.9522-.952,1.4893-.83,1.0986-1.318,1.6846c-.489.5696-.969,1.0986-1.441,1.5869-.895.9114-1.855,1.8717-2.881,2.8808-1.009.9929-2.083,1.9043-3.222,2.7344-1.123.8301-2.303,1.5137-3.54,2.0508s-2.523.8057-3.858.8057c-1.058,0-1.969-.1954-2.734-.586-.765-.4069-1.408-1.0091-1.929-1.8066s-.936-1.7822-1.245-2.9541-.537-2.5309-.683-4.0772c-.049-.6022-.106-1.1474-.171-1.6357-.049-.5046-.106-.9359-.171-1.294s-.147-.6347-.244-.83c-.082-.1954-.188-.293-.318-.293-.456,0-1.066.3499-1.831,1.0498s-1.652,1.6602-2.661,2.8809c-.993,1.2207-2.083,2.6692-3.271,4.3457-1.172,1.6601-2.401,3.4668-3.687,5.4199-.114.1627-.334.4232-.659.7812-.309.3418-.659.6918-1.05,1.0498-.374.3418-.757.6429-1.147.9034-.391.2604-.708.3906-.953.3906-.423,0-.846-.0407-1.269-.1221-.407-.0814-.773-.2116-1.099-.3906-.309-.179-.561-.4069-.757-.6836-.195-.293-.293-.651-.293-1.0742c0-.2116.033-.529.098-.9522.065-.4394.138-.8952.22-1.3672.097-.4882.187-.9602.268-1.416.098-.4557.179-.8056.245-1.0498.032-.1465.089-.4557.17-.9277.082-.472.179-1.0498.293-1.7334.114-.6999.245-1.473.391-2.3193.147-.8464.293-1.709.439-2.5879.147-.8789.293-1.7497.44-2.6123.146-.879.277-1.6846.391-2.417.13-.7325.236-1.3672.317-1.9043.098-.5534.163-.9522.195-1.1963.017-.1465.065-.4883.147-1.0254.081-.5534.171-1.2044.268-1.9531.098-.7487.204-1.5463.318-2.3926.13-.8464.244-1.6358.341-2.3682.098-.7487.179-1.3997.245-1.9531.081-.5534.13-.9033.146-1.0498.049-.4395.163-.9196.342-1.4404s.407-1.001.683-1.4405c.277-.4557.586-.8382.928-1.1474.358-.3093.733-.4639,1.123-.4639.342,0,.708.0732,1.099.2197.407.1302.773.3418,1.099.6348.341.293.626.6673.854,1.123s.342,1.001.342,1.6358c0,.4557-.041,1.0091-.122,1.6601-.082.6511-.187,1.3428-.318,2.0752-.114.7325-.252,1.4812-.415,2.2461-.146.765-.293,1.4974-.439,2.1973-.147.6836-.293,1.3184-.44,1.9043-.13.5697-.236,1.0254-.317,1.3672-.13.5534-.269,1.123-.415,1.709-.146.5696-.277,1.0905-.391,1.5625-.065.2604-.162.6347-.293,1.123-.13.4883-.276,1.0498-.439,1.6846-.163.6347-.342,1.3183-.537,2.0508-.179.7324-.366,1.4729-.562,2.2216-.179.7325-.358,1.4486-.537,2.1485-.163.6998-.301,1.3346-.415,1.9043.586-.9115,1.221-1.8718,1.904-2.8809.7-1.0254,1.4-2.0264,2.1-3.0029.7-.9766,1.375-1.8799,2.026-2.71.668-.8463,1.262-1.5381,1.783-2.0752.553-.5696,1.131-1.0823,1.733-1.5381.602-.472,1.204-.8626,1.807-1.1718.618-.3256,1.22-.5697,1.806-.7325.603-.179,1.164-.2685,1.685-.2685.277,0,.57.057.879.1709s.602.2685.879.4639c.293.1953.553.4313.781.708.244.2767.423.5859.537.9277.326.8789.562,1.7741.708,2.6855.163.9115.293,1.8067.391,2.6856.081.8301.187,1.652.317,2.4658.13.7975.277,1.5137.44,2.1485.179.6347.366,1.1474.561,1.538.195.3907.407.586.635.586.732,0,1.505-.1546,2.319-.4639.83-.3092,1.644-.6917,2.442-1.1475.797-.472,1.562-.9765,2.295-1.5136.732-.5534,1.375-1.0742,1.928-1.5625c1.937-1.709,3.491-3.0762,4.663-4.1016s1.978-1.5462,2.417-1.5625c.31,0,.546.1139.708.3418.163.2279.244.529.244.9033Zm34.195-.2929c0,.2278-.033.4882-.098.7812-.049.293-.114.5778-.195.8545-.082.2767-.163.529-.244.7568-.082.2279-.155.3907-.22.4883-.195.5697-.488,1.2044-.879,1.9043-.374.6836-.814,1.3916-1.318,2.124-.505.7162-1.05,1.4405-1.636,2.1729s-1.18,1.4323-1.782,2.0996c-.586.651-1.164,1.2614-1.734,1.8311-.553.5533-1.058,1.0253-1.513,1.416-.586.4883-1.221.9847-1.905,1.4892-.683.4883-1.408.9359-2.173,1.3428-.748.4069-1.521.7406-2.319,1.0013-.797.244-1.595.366-2.392.366-.684,0-1.311-.155-1.88-.464-.57-.3092-1.05-.7812-1.441-1.416-.374-.6348-.651-1.4241-.83-2.3682-.179-.9602-.22-2.0833-.122-3.3691-.895,1.237-1.888,2.3844-2.978,3.4424-1.091,1.0417-2.181,1.9368-3.272,2.6855-1.09.7487-2.14,1.3344-3.149,1.7574-.993.424-1.856.635-2.588.635-2.067,0-3.654-.635-4.761-1.9041-1.09-1.2858-1.636-3.0924-1.636-5.4199c0-.4883.041-1.0824.122-1.7822.098-.7162.228-1.4893.391-2.3194.179-.83.383-1.7008.61-2.6123.245-.9277.505-1.8473.782-2.7588.048-.1464.146-.4638.293-.9521.146-.4883.301-1.0091.463-1.5625.179-.5697.35-1.0986.513-1.5869s.285-.8057.366-.9522c.277-.5696.586-1.0172.928-1.3427.358-.3418.871-.5127,1.538-.5127.912,0,1.62.1871,2.124.5615.521.3581.781.9928.781,1.9043c0,.2278-.057.5859-.17,1.0742-.114.472-.253.9847-.415,1.5381-.163.5371-.334,1.0579-.513,1.5625s-.326.8952-.44,1.1719c-.488,1.4974-.911,2.889-1.269,4.1748-.358,1.2695-.537,2.4495-.537,3.54c0,.9603.146,1.6764.439,2.1484s.562.708.806.708c.635,0,1.294-.1383,1.977-.415.684-.293,1.368-.6754,2.051-1.1475.7-.472,1.375-1.0172,2.027-1.6357.651-.6185,1.261-1.2533,1.831-1.9043.586-.651,1.106-1.3021,1.562-1.9531.472-.6511.855-1.2451,1.148-1.7822.211-.3907.398-.7569.561-1.0987s.326-.6998.488-1.0742c.163-.3906.342-.8138.537-1.2695.212-.4558.464-1.001.757-1.6358.163-.3418.318-.6673.464-.9765.163-.3256.334-.6104.513-.8545.195-.2442.407-.4395.635-.586.227-.1464.488-.2197.781-.2197.325,0,.643.0326.952.0977.326.0488.619.1546.879.3173.26.1465.472.35.635.6104.162.2441.244.5615.244.9522-.195.7161-.366,1.3264-.513,1.831-.13.5046-.26,1.0335-.39,1.5869-.131.5534-.236,1.0335-.318,1.4404-.081.4558-.163.9685-.244,1.5381-.081.5534-.155,1.1068-.22,1.6602s-.122,1.0823-.171,1.5869c-.032.4883-.048.8952-.048,1.2207c0,.8301.057,1.53.17,2.0996.131.5534.334.8301.611.8301.879,0,1.79-.2604,2.734-.7813.96-.5208,1.953-1.2288,2.979-2.124.618-.5371,1.334-1.2207,2.148-2.0508.814-.8463,1.636-1.7415,2.466-2.6855.83-.9603,1.628-1.9369,2.393-2.9297.764-.9928,1.407-1.9287,1.928-2.8076.228-.3744.505-.6917.83-.9522.342-.2767.7-.415,1.075-.415.048,0,.113.0163.195.0488.097.0163.187.0733.268.1709.098.0977.171.236.22.4151.065.1627.098.3906.098.6836Zm-2.891,22.461c-.342,0-.749-.09-1.221-.269-.455-.162-.887-.415-1.293-.756-.407-.326-.757-.725-1.05-1.197-.277-.472-.415-1.001-.415-1.587l.146-.8298c-.342-.0814-.635-.1871-.879-.3174-.228-.1464-.39-.415-.488-.8056-.098-.5371-.147-1.0173-.147-1.4404c0-.3256.017-.6592.049-1.001.033-.3581.09-.7731.171-1.2451.244-1.6439.513-3.4506.806-5.42.309-1.9694.7-4.2155,1.172-6.7382.195-1.0092.407-2.0834.635-3.2227.227-1.1393.463-2.2705.708-3.3936.26-1.123.512-2.1891.756-3.1982.261-1.0091.497-1.8799.708-2.6123.326-1.1068.643-1.9857.953-2.6367.325-.6673.659-1.18,1-1.5381.359-.3581.733-.5941,1.124-.708.406-.1139.854-.1709,1.342-.1709.228,0,.456.0488.684.1465.228.0813.431.236.61.4638.196.2116.35.5046.464.8789.13.3581.195.8057.195,1.3428c0,.7324-.097,1.5625-.293,2.4902-.179.9278-.406,1.8881-.683,2.8809-.261.9766-.545,1.945-.855,2.9053-.309.9603-.586,1.8392-.83,2.6367-.162.472-.358,1.0824-.586,1.8311-.228.7324-.472,1.538-.732,2.4169-.26.8627-.529,1.766-.806,2.71-.276.944-.545,1.8718-.805,2.7832.83-1.3183,1.774-2.5391,2.832-3.6621c1.074-1.1393,2.156-2.124,3.247-2.9541c1.106-.8301,2.181-1.4811,3.222-1.9531c1.058-.472,1.986-.708,2.784-.708.716,0,1.375.179,1.977.5371.602.3418,1.115.7975,1.538,1.3672.44.5534.781,1.1881,1.026,1.9043.244.7161.366,1.4485.366,2.1972c0,.3418-.049.7813-.147,1.3184-.097.5371-.26,1.1312-.488,1.7822-.212.6511-.496,1.3346-.854,2.0508-.342.6999-.757,1.3835-1.246,2.0508c1.091-.8789,2.198-1.8067,3.321-2.7832s2.197-2.0101,3.222-3.1006c1.042-1.1068,2.002-2.2787,2.881-3.5156.879-1.237,1.612-2.5554,2.198-3.9551.13-.293.268-.5778.415-.8545.162-.293.333-.5534.512-.7813.196-.2441.407-.4313.635-.5615.228-.1465.472-.2197.732-.2197.391,0,.692.1546.904.4639.228.3092.342.7731.342,1.3916c0,.1302-.041.358-.123.6836-.065.3092-.146.651-.244,1.0253-.097.3581-.203.7081-.317,1.0499-.098.3417-.187.6022-.269.7812-.358.8138-.822,1.709-1.391,2.6855-.57.9603-1.245,1.9532-2.027,2.9786-.781,1.0254-1.676,2.067-2.685,3.125-1.009,1.0416-2.132,2.0507-3.369,3.0273-.684.5371-1.538,1.1637-2.564,1.8799-1.009.7161-2.107,1.4567-3.296,2.2217-1.188.7487-2.425,1.4892-3.711,2.222-1.285.732-2.539,1.383-3.759,1.953-1.205.586-2.336,1.058-3.394,1.416s-1.961.537-2.71.537Zm11.279-19.922c-.716,0-1.473.236-2.27.708-.798.4558-1.603,1.0742-2.417,1.8555-.798.765-1.579,1.6439-2.344,2.6367s-1.481,2.0182-2.148,3.0762c-.651,1.0579-1.229,2.1077-1.734,3.1494-.488,1.0417-.862,1.9938-1.123,2.8564.179.3256.375.6023.586.8301.228.2279.489.3418.782.3418.537,0,1.131-.1058,1.782-.3174.651-.2115,1.277-.4638,1.88-.7568.602-.293,1.139-.5941,1.611-.9033.488-.3093.838-.5615,1.05-.7568.537-.5209,1.115-1.2289,1.733-2.1241.635-.8952,1.213-1.8554,1.734-2.8808.537-1.0254.984-2.0427,1.342-3.0518s.537-1.8717.537-2.5879c0-.2604-.024-.5127-.073-.7568-.049-.2442-.114-.4639-.195-.6592-.082-.1953-.187-.3499-.318-.4639-.13-.1302-.268-.1953-.415-.1953Zm45.572,1.1475c0,.1465-.025.3581-.073.6347-.033.2767-.082.5697-.147.879-.065.3092-.138.6022-.22.8789-.065.2767-.13.4882-.195.6347-.619,1.1394-1.343,2.2298-2.173,3.2715-.83,1.0254-1.725,1.9369-2.685,2.7344-.944.7975-1.945,1.4323-3.003,1.9043-1.042.472-2.092.708-3.15.708-1.025,0-1.92-.1465-2.685-.4395s-1.416-.6754-1.953-1.1474c-.521-.4883-.953-1.0417-1.294-1.6602-.326-.6185-.586-1.2451-.782-1.8799-.195-.651-.325-1.2776-.39-1.8798-.065-.6185-.098-1.1719-.098-1.6602c0-.2441.016-.5452.049-.9033.049-.3744.098-.7569.146-1.1475.066-.4069.114-.7975.147-1.1719.049-.3906.073-.708.073-.9521c0-.3255-.073-.4883-.22-.4883-.423.4069-.83.8382-1.22,1.294-.375.4557-.757.9521-1.148,1.4892-.374.5371-.765,1.1312-1.172,1.7822-.407.6348-.854,1.3428-1.342,2.1241-.44.6998-.904,1.4648-1.392,2.2949s-.985,1.6683-1.489,2.5146c-.505.8464-1.018,1.6683-1.538,2.4659-.505.7975-1.001,1.5055-1.49,2.124-.488.6022-.952,1.0902-1.391,1.4652-.423.374-.806.561-1.148.561-.39,0-.716-.008-.976-.024-.261-.017-.48-.049-.659-.098-.179-.032-.342-.073-.489-.122-.146-.049-.301-.106-.464-.171-.162-.602-.293-1.253-.39-1.953-.098-.7162-.171-1.3998-.22-2.0508-.032-.6673-.057-1.2695-.073-1.8066c0-.5371,0-.9359,0-1.1963c0-2.3763.187-4.891.561-7.544.391-2.653.839-5.4687,1.343-8.4472.391-2.2787.765-4.6468,1.123-7.1045.375-2.474.692-5.0375.952-7.6905.114-.5533.301-1.0498.562-1.4892.277-.4395.57-.8057.879-1.0987.325-.3092.635-.5371.927-.6835.31-.1628.562-.2442.757-.2442.342,0,.668.1221.977.3662.309.2279.586.5371.83.9278.244.3906.431.83.561,1.3183.147.472.22.9522.22,1.4404c0,.1628-.008.3256-.024.4883-.016.1628-.041.3256-.073.4883-.017.0651-.057.2686-.123.6104-.065.3418-.146.7568-.244,1.2451-.081.4883-.179,1.0172-.293,1.5869-.097.5534-.195,1.0905-.293,1.6113-.081.5209-.154.9847-.219,1.3916-.065.3907-.114.6592-.147.8057-.016.1465-.073.4801-.171,1.001-.081.5045-.187,1.1312-.317,1.8798-.114.7487-.244,1.5788-.391,2.4903-.146.8952-.301,1.8148-.464,2.7588-.146.9277-.293,1.8473-.439,2.7588-.147.8951-.285,1.7089-.415,2.4414-.114.7324-.212,1.3509-.293,1.8554-.065.5046-.106.8301-.122.9766-.016.179-.049.4232-.098.7324-.032.3093-.073.6511-.122,1.0254-.049.3581-.106.7406-.171,1.1475-.065.3906-.122.7568-.171,1.0986.147-.1628.399-.4964.757-1.001.358-.5208.765-1.123,1.221-1.8066s.936-1.4079,1.44-2.1729c.521-.7812,1.009-1.5136,1.465-2.1972s.855-1.2777,1.196-1.7823c.359-.5208.595-.8707.708-1.0498.228-.3418.521-.7161.879-1.123.375-.4069.765-.8057,1.172-1.1963.423-.4069.838-.7894,1.245-1.1475.424-.3743.798-.6836,1.123-.9277.717-.5534,1.384-.887,2.002-1.001.619-.1302,1.205-.1953,1.758-.1953.261,0,.513.0814.757.2442s.464.4069.659.7324c.196.3092.35.6999.464,1.1719.13.472.195,1.0253.195,1.6601c0,.3418-.032.7568-.097,1.2451-.065.472-.139.9929-.22,1.5625-.081.5534-.155,1.1312-.22,1.7334s-.097,1.18-.097,1.7334c0,.3907.024.8627.073,1.416.065.5372.187,1.058.366,1.5625.179.4883.423.9115.733,1.2696.325.3418.74.5127,1.245.5127c1.334,0,2.685-.472,4.052-1.416c1.384-.9441,2.857-2.4089,4.419-4.3946.44-.5696.863-.9684,1.27-1.1963s.757-.3418,1.05-.3418c.211,0,.35.0733.415.2198.081.1302.122.3743.122.7324Z" opacity="0.5" paint-order="fill markers stroke" fill="#fff" stroke-width="0"/>
<script><![CDATA[
!function(t,n){"object"==typeof exports&&"undefined"!=typeof module?module.exports=n():"function"==typeof __SVGATOR_DEFINE__&&__SVGATOR_DEFINE__.amd?__SVGATOR_DEFINE__(n):((t="undefined"!=typeof globalThis?globalThis:t||self).__SVGATOR_PLAYER__=t.__SVGATOR_PLAYER__||{},t.__SVGATOR_PLAYER__["5c7f360c"]=n())}(this,(function(){"use strict";function t(t,n){var e=Object.keys(t);if(Object.getOwnPropertySymbols){var r=Object.getOwnPropertySymbols(t);n&&(r=r.filter((function(n){return Object.getOwnPropertyDescriptor(t,n).enumerable}))),e.push.apply(e,r)}return e}function n(n){for(var e=1;e<arguments.length;e++){var r=null!=arguments[e]?arguments[e]:{};e%2?t(Object(r),!0).forEach((function(t){o(n,t,r[t])})):Object.getOwnPropertyDescriptors?Object.defineProperties(n,Object.getOwnPropertyDescriptors(r)):t(Object(r)).forEach((function(t){Object.defineProperty(n,t,Object.getOwnPropertyDescriptor(r,t))}))}return n}function e(t){return(e="function"==typeof Symbol&&"symbol"==typeof Symbol.iterator?function(t){return typeof t}:function(t){return t&&"function"==typeof Symbol&&t.constructor===Symbol&&t!==Symbol.prototype?"symbol":typeof t})(t)}function r(t,n){if(!(t instanceof n))throw new TypeError("Cannot call a class as a function")}function i(t,n){for(var e=0;e<n.length;e++){var r=n[e];r.enumerable=r.enumerable||!1,r.configurable=!0,"value"in r&&(r.writable=!0),Object.defineProperty(t,r.key,r)}}function u(t,n,e){return n&&i(t.prototype,n),e&&i(t,e),t}function o(t,n,e){return n in t?Object.defineProperty(t,n,{value:e,enumerable:!0,configurable:!0,writable:!0}):t[n]=e,t}function a(t){return(a=Object.setPrototypeOf?Object.getPrototypeOf:function(t){return t.__proto__||Object.getPrototypeOf(t)})(t)}function l(t,n){return(l=Object.setPrototypeOf||function(t,n){return t.__proto__=n,t})(t,n)}function s(){if("undefined"==typeof Reflect||!Reflect.construct)return!1;if(Reflect.construct.sham)return!1;if("function"==typeof Proxy)return!0;try{return Boolean.prototype.valueOf.call(Reflect.construct(Boolean,[],(function(){}))),!0}catch(t){return!1}}function f(t,n,e){return(f=s()?Reflect.construct:function(t,n,e){var r=[null];r.push.apply(r,n);var i=new(Function.bind.apply(t,r));return e&&l(i,e.prototype),i}).apply(null,arguments)}function c(t,n){if(n&&("object"==typeof n||"function"==typeof n))return n;if(void 0!==n)throw new TypeError("Derived constructors may only return object or undefined");return function(t){if(void 0===t)throw new ReferenceError("this hasn't been initialised - super() hasn't been called");return t}(t)}function h(t,n,e){return(h="undefined"!=typeof Reflect&&Reflect.get?Reflect.get:function(t,n,e){var r=function(t,n){for(;!Object.prototype.hasOwnProperty.call(t,n)&&null!==(t=a(t)););return t}(t,n);if(r){var i=Object.getOwnPropertyDescriptor(r,n);return i.get?i.get.call(e):i.value}})(t,n,e||t)}function v(t){return function(t){if(Array.isArray(t))return y(t)}(t)||function(t){if("undefined"!=typeof Symbol&&null!=t[Symbol.iterator]||null!=t["@@iterator"])return Array.from(t)}(t)||function(t,n){if(!t)return;if("string"==typeof t)return y(t,n);var e=Object.prototype.toString.call(t).slice(8,-1);"Object"===e&&t.constructor&&(e=t.constructor.name);if("Map"===e||"Set"===e)return Array.from(t);if("Arguments"===e||/^(?:Ui|I)nt(?:8|16|32)(?:Clamped)?Array$/.test(e))return y(t,n)}(t)||function(){throw new TypeError("Invalid attempt to spread non-iterable instance.\nIn order to be iterable, non-array objects must have a [Symbol.iterator]() method.")}()}function y(t,n){(null==n||n>t.length)&&(n=t.length);for(var e=0,r=new Array(n);e<n;e++)r[e]=t[e];return r}Number.isInteger||(Number.isInteger=function(t){return"number"==typeof t&&isFinite(t)&&Math.floor(t)===t}),Number.EPSILON||(Number.EPSILON=2220446049250313e-31);var g=p(Math.pow(10,-6));function p(t){var n=arguments.length>1&&void 0!==arguments[1]?arguments[1]:6;if(Number.isInteger(t))return t;var e=Math.pow(10,n);return Math.round((+t+Number.EPSILON)*e)/e}function d(t,n){var e=arguments.length>2&&void 0!==arguments[2]?arguments[2]:g;return Math.abs(t-n)<e}var m=Math.PI/180;function b(t){return t}function w(t,n,e){var r=1-e;return 3*e*r*(t*r+n*e)+e*e*e}function A(){var t=arguments.length>0&&void 0!==arguments[0]?arguments[0]:0,n=arguments.length>1&&void 0!==arguments[1]?arguments[1]:0,e=arguments.length>2&&void 0!==arguments[2]?arguments[2]:1,r=arguments.length>3&&void 0!==arguments[3]?arguments[3]:1;return t<0||t>1||e<0||e>1?null:d(t,n)&&d(e,r)?b:function(i){if(i<=0)return t>0?i*n/t:0===n&&e>0?i*r/e:0;if(i>=1)return e<1?1+(i-1)*(r-1)/(e-1):1===e&&t<1?1+(i-1)*(n-1)/(t-1):1;for(var u,o=0,a=1;o<a;){var l=w(t,e,u=(o+a)/2);if(d(i,l))break;l<i?o=u:a=u}return w(n,r,u)}}function _(){return 1}function x(t){return 1===t?1:0}function k(){var t=arguments.length>0&&void 0!==arguments[0]?arguments[0]:1,n=arguments.length>1&&void 0!==arguments[1]?arguments[1]:0;if(1===t){if(0===n)return x;if(1===n)return _}var e=1/t;return function(t){return t>=1?1:(t+=n*e)-t%e}}var S=Math.sin,O=Math.cos,j=Math.acos,E=Math.asin,M=Math.tan,P=Math.atan2,I=Math.PI/180,R=180/Math.PI,F=Math.sqrt,N=function(){function t(){var n=arguments.length>0&&void 0!==arguments[0]?arguments[0]:1,e=arguments.length>1&&void 0!==arguments[1]?arguments[1]:0,i=arguments.length>2&&void 0!==arguments[2]?arguments[2]:0,u=arguments.length>3&&void 0!==arguments[3]?arguments[3]:1,o=arguments.length>4&&void 0!==arguments[4]?arguments[4]:0,a=arguments.length>5&&void 0!==arguments[5]?arguments[5]:0;r(this,t),this.m=[n,e,i,u,o,a],this.i=null,this.w=null,this.s=null}return u(t,[{key:"determinant",get:function(){var t=this.m;return t[0]*t[3]-t[1]*t[2]}},{key:"isIdentity",get:function(){if(null===this.i){var t=this.m;this.i=1===t[0]&&0===t[1]&&0===t[2]&&1===t[3]&&0===t[4]&&0===t[5]}return this.i}},{key:"point",value:function(t,n){var e=this.m;return{x:e[0]*t+e[2]*n+e[4],y:e[1]*t+e[3]*n+e[5]}}},{key:"translateSelf",value:function(){var t=arguments.length>0&&void 0!==arguments[0]?arguments[0]:0,n=arguments.length>1&&void 0!==arguments[1]?arguments[1]:0;if(!t&&!n)return this;var e=this.m;return e[4]+=e[0]*t+e[2]*n,e[5]+=e[1]*t+e[3]*n,this.w=this.s=this.i=null,this}},{key:"rotateSelf",value:function(){var t=arguments.length>0&&void 0!==arguments[0]?arguments[0]:0;if(t%=360){var n=S(t*=I),e=O(t),r=this.m,i=r[0],u=r[1];r[0]=i*e+r[2]*n,r[1]=u*e+r[3]*n,r[2]=r[2]*e-i*n,r[3]=r[3]*e-u*n,this.w=this.s=this.i=null}return this}},{key:"scaleSelf",value:function(){var t=arguments.length>0&&void 0!==arguments[0]?arguments[0]:1,n=arguments.length>1&&void 0!==arguments[1]?arguments[1]:1;if(1!==t||1!==n){var e=this.m;e[0]*=t,e[1]*=t,e[2]*=n,e[3]*=n,this.w=this.s=this.i=null}return this}},{key:"skewSelf",value:function(t,n){if(n%=360,(t%=360)||n){var e=this.m,r=e[0],i=e[1],u=e[2],o=e[3];t&&(t=M(t*I),e[2]+=r*t,e[3]+=i*t),n&&(n=M(n*I),e[0]+=u*n,e[1]+=o*n),this.w=this.s=this.i=null}return this}},{key:"resetSelf",value:function(){var t=arguments.length>0&&void 0!==arguments[0]?arguments[0]:1,n=arguments.length>1&&void 0!==arguments[1]?arguments[1]:0,e=arguments.length>2&&void 0!==arguments[2]?arguments[2]:0,r=arguments.length>3&&void 0!==arguments[3]?arguments[3]:1,i=arguments.length>4&&void 0!==arguments[4]?arguments[4]:0,u=arguments.length>5&&void 0!==arguments[5]?arguments[5]:0,o=this.m;return o[0]=t,o[1]=n,o[2]=e,o[3]=r,o[4]=i,o[5]=u,this.w=this.s=this.i=null,this}},{key:"recomposeSelf",value:function(){var t=arguments.length>0&&void 0!==arguments[0]?arguments[0]:null,n=arguments.length>1&&void 0!==arguments[1]?arguments[1]:null,e=arguments.length>2&&void 0!==arguments[2]?arguments[2]:null,r=arguments.length>3&&void 0!==arguments[3]?arguments[3]:null,i=arguments.length>4&&void 0!==arguments[4]?arguments[4]:null;return this.isIdentity||this.resetSelf(),t&&(t.x||t.y)&&this.translateSelf(t.x,t.y),n&&this.rotateSelf(n),e&&(e.x&&this.skewSelf(e.x,0),e.y&&this.skewSelf(0,e.y)),!r||1===r.x&&1===r.y||this.scaleSelf(r.x,r.y),i&&(i.x||i.y)&&this.translateSelf(i.x,i.y),this}},{key:"decompose",value:function(){var t=arguments.length>0&&void 0!==arguments[0]?arguments[0]:0,n=arguments.length>1&&void 0!==arguments[1]?arguments[1]:0,e=this.m,r=e[0]*e[0]+e[1]*e[1],i=[[e[0],e[1]],[e[2],e[3]]],u=F(r);if(0===u)return{origin:{x:p(e[4]),y:p(e[5])},translate:{x:p(t),y:p(n)},scale:{x:0,y:0},skew:{x:0,y:0},rotate:0};i[0][0]/=u,i[0][1]/=u;var o=e[0]*e[3]-e[1]*e[2]<0;o&&(u=-u);var a=i[0][0]*i[1][0]+i[0][1]*i[1][1];i[1][0]-=i[0][0]*a,i[1][1]-=i[0][1]*a;var l=F(i[1][0]*i[1][0]+i[1][1]*i[1][1]);if(0===l)return{origin:{x:p(e[4]),y:p(e[5])},translate:{x:p(t),y:p(n)},scale:{x:p(u),y:0},skew:{x:0,y:0},rotate:0};i[1][0]/=l,i[1][1]/=l,a/=l;var s=0;return i[1][1]<0?(s=j(i[1][1])*R,i[0][1]<0&&(s=360-s)):s=E(i[0][1])*R,o&&(s=-s),a=P(a,F(i[0][0]*i[0][0]+i[0][1]*i[0][1]))*R,o&&(a=-a),{origin:{x:p(e[4]),y:p(e[5])},translate:{x:p(t),y:p(n)},scale:{x:p(u),y:p(l)},skew:{x:p(a),y:0},rotate:p(s)}}},{key:"clone",value:function(){var t=this.m;return new this.constructor(t[0],t[1],t[2],t[3],t[4],t[5])}},{key:"toString",value:function(){var t=arguments.length>0&&void 0!==arguments[0]?arguments[0]:" ";if(null===this.s){var n=this.m.map((function(t){return p(t)}));1===n[0]&&0===n[1]&&0===n[2]&&1===n[3]?this.s="translate("+n[4]+t+n[5]+")":this.s="matrix("+n.join(t)+")"}return this.s}}],[{key:"create",value:function(t){return t?Array.isArray(t)?f(this,v(t)):t instanceof this?t.clone():(new this).recomposeSelf(t.origin,t.rotate,t.skew,t.scale,t.translate):new this}}]),t}();function T(t,n,e){return t>=.5?e:n}function q(t,n,e){return 0===t||n===e?n:t*(e-n)+n}function B(t,n,e){var r=q(t,n,e);return r<=0?0:r}function D(t,n,e){var r=q(t,n,e);return r<=0?0:r>=1?1:r}function L(t,n,e){return 0===t?n:1===t?e:{x:q(t,n.x,e.x),y:q(t,n.y,e.y)}}function C(t,n,e){var r=function(t,n,e){return Math.round(q(t,n,e))}(t,n,e);return r<=0?0:r>=255?255:r}function V(t,n,e){return 0===t?n:1===t?e:{r:C(t,n.r,e.r),g:C(t,n.g,e.g),b:C(t,n.b,e.b),a:q(t,null==n.a?1:n.a,null==e.a?1:e.a)}}function G(t,n){for(var e=[],r=0;r<t;r++)e.push(n);return e}function z(t,n){if(--n<=0)return t;var e=(t=Object.assign([],t)).length;do{for(var r=0;r<e;r++)t.push(t[r])}while(--n>0);return t}var Y,$=function(){function t(n){r(this,t),this.list=n,this.length=n.length}return u(t,[{key:"setAttribute",value:function(t,n){for(var e=this.list,r=0;r<this.length;r++)e[r].setAttribute(t,n)}},{key:"removeAttribute",value:function(t){for(var n=this.list,e=0;e<this.length;e++)n[e].removeAttribute(t)}},{key:"style",value:function(t,n){for(var e=this.list,r=0;r<this.length;r++)e[r].style[t]=n}}]),t}(),U=/-./g,Q=function(t,n){return n.toUpperCase()};function H(t){return"function"==typeof t?t:T}function J(t){return t?"function"==typeof t?t:Array.isArray(t)?function(t){var n=arguments.length>1&&void 0!==arguments[1]?arguments[1]:b;if(!Array.isArray(t))return n;switch(t.length){case 1:return k(t[0])||n;case 2:return k(t[0],t[1])||n;case 4:return A(t[0],t[1],t[2],t[3])||n}return n}(t,null):function(t,n){var e=arguments.length>2&&void 0!==arguments[2]?arguments[2]:b;switch(t){case"linear":return b;case"steps":return k(n.steps||1,n.jump||0)||e;case"bezier":case"cubic-bezier":return A(n.x1||0,n.y1||0,n.x2||0,n.y2||0)||e}return e}(t.type,t.value,null):null}function Z(t,n,e){var r=arguments.length>3&&void 0!==arguments[3]&&arguments[3],i=n.length-1;if(t<=n[0].t)return r?[0,0,n[0].v]:n[0].v;if(t>=n[i].t)return r?[i,1,n[i].v]:n[i].v;var u,o=n[0],a=null;for(u=1;u<=i;u++){if(!(t>n[u].t)){a=n[u];break}o=n[u]}return null==a?r?[i,1,n[i].v]:n[i].v:o.t===a.t?r?[u,1,a.v]:a.v:(t=(t-o.t)/(a.t-o.t),o.e&&(t=o.e(t)),r?[u,t,e(t,o.v,a.v)]:e(t,o.v,a.v))}function K(t,n){var e=arguments.length>2&&void 0!==arguments[2]?arguments[2]:null;return t&&t.length?"function"!=typeof n?null:("function"!=typeof e&&(e=null),function(r){var i=Z(r,t,n);return null!=i&&e&&(i=e(i)),i}):null}function W(t,n){return t.t-n.t}function X(t,n,r,i,u){var o,a="@"===r[0],l="#"===r[0],s=Y[r],f=T;switch(a?(o=r.substr(1),r=o.replace(U,Q)):l&&(r=r.substr(1)),e(s)){case"function":if(f=s(i,u,Z,J,r,a,n,t),l)return f;break;case"string":f=K(i,H(s));break;case"object":if((f=K(i,H(s.i),s.f))&&"function"==typeof s.u)return s.u(n,f,r,a,t)}return f?function(t,n,e){if(arguments.length>3&&void 0!==arguments[3]&&arguments[3])return t instanceof $?function(r){return t.style(n,e(r))}:function(r){return t.style[n]=e(r)};if(Array.isArray(n)){var r=n.length;return function(i){var u=e(i);if(null==u)for(var o=0;o<r;o++)t[o].removeAttribute(n);else for(var a=0;a<r;a++)t[a].setAttribute(n,u)}}return function(r){var i=e(r);null==i?t.removeAttribute(n):t.setAttribute(n,i)}}(n,r,f,a):null}function tt(t,n,r,i){if(!i||"object"!==e(i))return null;var u=null,o=null;return Array.isArray(i)?o=function(t){if(!t||!t.length)return null;for(var n=0;n<t.length;n++)t[n].e&&(t[n].e=J(t[n].e));return t.sort(W)}(i):(o=i.keys,u=i.data||null),o?X(t,n,r,o,u):null}function nt(t,n,e){if(!e)return null;var r=[];for(var i in e)if(e.hasOwnProperty(i)){var u=tt(t,n,i,e[i]);u&&r.push(u)}return r.length?r:null}function et(t,n){if(!n.settings.duration||n.settings.duration<0)return null;var e,r,i,u,o,a=function(t,n){if(!n)return null;var e=[];if(Array.isArray(n))for(var r=n.length,i=0;i<r;i++){var u=n[i];if(2===u.length){var o=null;if("string"==typeof u[0])o=t.getElementById(u[0]);else if(Array.isArray(u[0])){o=[];for(var a=0;a<u[0].length;a++)if("string"==typeof u[0][a]){var l=t.getElementById(u[0][a]);l&&o.push(l)}o=o.length?1===o.length?o[0]:new $(o):null}if(o){var s=nt(t,o,u[1]);s&&(e=e.concat(s))}}}else for(var f in n)if(n.hasOwnProperty(f)){var c=t.getElementById(f);if(c){var h=nt(t,c,n[f]);h&&(e=e.concat(h))}}return e.length?e:null}(t,n.elements);return a?(e=a,r=n.settings,i=r.duration,u=e.length,o=null,function(t,n){var a=r.iterations||1/0,l=(r.alternate&&a%2==0)^r.direction>0?i:0,s=t%i,f=1+(t-s)/i;n*=r.direction,r.alternate&&f%2==0&&(n=-n);var c=!1;if(f>a)s=l,c=!0,-1===r.fill&&(s=r.direction>0?0:i);else if(n<0&&(s=i-s),s===o)return!1;o=s;for(var h=0;h<u;h++)e[h](s);return c}):null}function rt(t,n){if(Y=n,!t||!t.root||!Array.isArray(t.animations))return null;var e=function(t){for(var n=document.getElementsByTagName("svg"),e=0;e<n.length;e++)if(n[e].id===t.root&&!n[e].svgatorAnimation)return n[e].svgatorAnimation=!0,n[e];return null}(t);if(!e)return null;var r=t.animations.map((function(t){return et(e,t)})).filter((function(t){return!!t}));return r.length?{svg:e,animations:r,animationSettings:t.animationSettings,options:t.options||void 0}:null}function it(t){return+("0x"+(t.replace(/[^0-9a-fA-F]+/g,"")||27))}function ut(t,n,e){return!t||!e||n>t.length?t:t.substring(0,n)+ut(t.substring(n+1),e,e)}function ot(t){var n=arguments.length>1&&void 0!==arguments[1]?arguments[1]:27;return!t||t%n?t%n:ot(t/n,n)}function at(t,n,e){if(t&&t.length){var r=it(e),i=it(n),u=ot(r)+5,o=ut(t,ot(r,5),u);return o=o.replace(/\x7c$/g,"==").replace(/\x2f$/g,"="),o=function(t,n,e){var r=+("0x"+t.substring(0,4));t=t.substring(4);for(var i=n%r+e%27,u=[],o=0;o<t.length;o+=2)if("|"!==t[o]){var a=+("0x"+t[o]+t[o+1])-i;u.push(a)}else{var l=+("0x"+t.substring(o+1,o+1+4))-i;o+=3,u.push(l)}return String.fromCharCode.apply(String,u)}(o=(o=atob(o)).replace(/[\x41-\x5A]/g,""),i,r),o=JSON.parse(o)}}var lt=[{key:"alternate",def:!1},{key:"fill",def:1},{key:"iterations",def:0},{key:"direction",def:1},{key:"speed",def:1},{key:"fps",def:100}],st=function(){function t(n,e){var i=this,u=arguments.length>2&&void 0!==arguments[2]?arguments[2]:null;r(this,t),this._id=0,this._running=!1,this._rollingBack=!1,this._animations=n,this._settings=e,(!u||u<"2022-05-02")&&delete this._settings.speed,lt.forEach((function(t){i._settings[t.key]=i._settings[t.key]||t.def})),this.duration=e.duration,this.offset=e.offset||0,this.rollbackStartOffset=0}return u(t,[{key:"alternate",get:function(){return this._settings.alternate}},{key:"fill",get:function(){return this._settings.fill}},{key:"iterations",get:function(){return this._settings.iterations}},{key:"direction",get:function(){return this._settings.direction}},{key:"speed",get:function(){return this._settings.speed}},{key:"fps",get:function(){return this._settings.fps}},{key:"maxFiniteDuration",get:function(){return this.iterations>0?this.iterations*this.duration:this.duration}},{key:"_apply",value:function(t){for(var n=arguments.length>1&&void 0!==arguments[1]?arguments[1]:{},e=this._animations,r=e.length,i=0,u=0;u<r;u++)n[u]?i++:(n[u]=e[u](t,1),n[u]&&i++);return i}},{key:"_rollback",value:function(t){var n=this,e=1/0,r=null;this.rollbackStartOffset=t,this._rollingBack=!0,this._running=!0;this._id=window.requestAnimationFrame((function i(u){if(n._rollingBack){null==r&&(r=u);var o=Math.round(t-(u-r)*n.speed);if(o>n.duration&&e!==1/0){var a=!!n.alternate&&o/n.duration%2>1,l=o%n.duration;o=(l+=a?n.duration:0)||n.duration}var s=(n.fps?1e3/n.fps:0)*n.speed,f=Math.max(0,o);f<=e-s&&(n.offset=f,e=f,n._apply(f));var c=n.iterations>0&&-1===n.fill&&o>=n.maxFiniteDuration;(o<=0||n.offset<o||c)&&n.stop(),n._id=window.requestAnimationFrame(i)}}))}},{key:"_start",value:function(){var t=this,n=arguments.length>0&&void 0!==arguments[0]?arguments[0]:0,e=-1/0,r=null,i={};this._running=!0;var u=function u(o){null==r&&(r=o);var a=Math.round((o-r)*t.speed+n),l=(t.fps?1e3/t.fps:0)*t.speed;if(a>=e+l&&!t._rollingBack&&(t.offset=a,e=a,t._apply(a,i)===t._animations.length))return void t.pause(!0);t._id=window.requestAnimationFrame(u)};this._id=window.requestAnimationFrame(u)}},{key:"_pause",value:function(){this._id&&window.cancelAnimationFrame(this._id),this._running=!1}},{key:"play",value:function(){if(!this._running)return this._rollingBack?this._rollback(this.offset):this._start(this.offset)}},{key:"stop",value:function(){this._pause(),this.offset=0,this.rollbackStartOffset=0,this._rollingBack=!1,this._apply(0)}},{key:"reachedToEnd",value:function(){return this.iterations>0&&this.offset>=this.iterations*this.duration}},{key:"restart",value:function(){var t=arguments.length>0&&void 0!==arguments[0]&&arguments[0];this.stop(t),this.play(t)}},{key:"pause",value:function(){this._pause()}},{key:"reverse",value:function(){this.direction=-this.direction}}],[{key:"build",value:function(t,n){delete t.animationSettings,t.options=at(t.options,t.root,"5c7f360c"),t.animations.map((function(n){n.settings=at(n.s,t.root,"5c7f360c"),delete n.s,t.animationSettings||(t.animationSettings=n.settings)}));var e=t.version;if(!(t=rt(t,n)))return null;var r=t.options||{},i=new this(t.animations,t.animationSettings,e);return{el:t.svg,options:r,player:i}}},{key:"push",value:function(t){return this.build(t)}},{key:"init",value:function(){var t=this,n=window.__SVGATOR_PLAYER__&&window.__SVGATOR_PLAYER__["5c7f360c"];Array.isArray(n)&&n.splice(0).forEach((function(n){return t.build(n)}))}}]),t}();function ft(t){return p(t)+""}function ct(t){var n=arguments.length>1&&void 0!==arguments[1]?arguments[1]:" ";return t&&t.length?t.map(ft).join(n):""}function ht(t){if(!t)return"transparent";if(null==t.a||t.a>=1){var n=function(t){return 1===(t=parseInt(t).toString(16)).length?"0"+t:t},e=function(t){return t.charAt(0)===t.charAt(1)},r=n(t.r),i=n(t.g),u=n(t.b);return e(r)&&e(i)&&e(u)&&(r=r.charAt(0),i=i.charAt(0),u=u.charAt(0)),"#"+r+i+u}return"rgba("+t.r+","+t.g+","+t.b+","+t.a+")"}function vt(t){return t?"url(#"+t+")":"none"}!function(){for(var t=0,n=["ms","moz","webkit","o"],e=0;e<n.length&&!window.requestAnimationFrame;++e)window.requestAnimationFrame=window[n[e]+"RequestAnimationFrame"],window.cancelAnimationFrame=window[n[e]+"CancelAnimationFrame"]||window[n[e]+"CancelRequestAnimationFrame"];window.requestAnimationFrame||(window.requestAnimationFrame=function(n){var e=Date.now(),r=Math.max(0,16-(e-t)),i=window.setTimeout((function(){n(e+r)}),r);return t=e+r,i},window.cancelAnimationFrame=window.clearTimeout)}();var yt={f:null,i:function(t,n,e){return 0===t?n:1===t?e:{x:B(t,n.x,e.x),y:B(t,n.y,e.y)}},u:function(t,n){return function(e){var r=n(e);t.setAttribute("rx",ft(r.x)),t.setAttribute("ry",ft(r.y))}}},gt={f:null,i:function(t,n,e){return 0===t?n:1===t?e:{width:B(t,n.width,e.width),height:B(t,n.height,e.height)}},u:function(t,n){return function(e){var r=n(e);t.setAttribute("width",ft(r.width)),t.setAttribute("height",ft(r.height))}}};Object.freeze({M:2,L:2,Z:0,H:1,V:1,C:6,Q:4,T:2,S:4,A:7});var pt={},dt=null;function mt(t){var n=function(){if(dt)return dt;if("object"!==("undefined"==typeof document?"undefined":e(document))||!document.createElementNS)return{};var t=document.createElementNS("http://www.w3.org/2000/svg","svg");return t&&t.style?(t.style.position="absolute",t.style.opacity="0.01",t.style.zIndex="-9999",t.style.left="-9999px",t.style.width="1px",t.style.height="1px",dt={svg:t}):{}}().svg;if(!n)return function(t){return null};var r=document.createElementNS(n.namespaceURI,"path");r.setAttributeNS(null,"d",t),r.setAttributeNS(null,"fill","none"),r.setAttributeNS(null,"stroke","none"),n.appendChild(r);var i=r.getTotalLength();return function(t){var n=r.getPointAtLength(i*t);return{x:n.x,y:n.y}}}function bt(t){return pt[t]?pt[t]:pt[t]=mt(t)}function wt(t,n,e,r){if(!t||!r)return!1;var i=["M",t.x,t.y];if(n&&e&&(i.push("C"),i.push(n.x),i.push(n.y),i.push(e.x),i.push(e.y)),n?!e:e){var u=n||e;i.push("Q"),i.push(u.x),i.push(u.y)}return n||e||i.push("L"),i.push(r.x),i.push(r.y),i.join(" ")}function At(t,n,e,r){var i=arguments.length>4&&void 0!==arguments[4]?arguments[4]:1,u=wt(t,n,e,r),o=bt(u);try{return o(i)}catch(t){return null}}function _t(t,n,e){return t+(n-t)*e}function xt(t,n,e){var r=arguments.length>3&&void 0!==arguments[3]&&arguments[3],i={x:_t(t.x,n.x,e),y:_t(t.y,n.y,e)};return r&&(i.a=kt(t,n)),i}function kt(t,n){return Math.atan2(n.y-t.y,n.x-t.x)}function St(t,n,e,r){var i=1-r;return i*i*t+2*i*r*n+r*r*e}function Ot(t,n,e,r){return 2*(1-r)*(n-t)+2*r*(e-n)}function jt(t,n,e,r){var i=arguments.length>4&&void 0!==arguments[4]&&arguments[4],u=At(t,n,null,e,r);return u||(u={x:St(t.x,n.x,e.x,r),y:St(t.y,n.y,e.y,r)}),i&&(u.a=Et(t,n,e,r)),u}function Et(t,n,e,r){return Math.atan2(Ot(t.y,n.y,e.y,r),Ot(t.x,n.x,e.x,r))}function Mt(t,n,e,r,i){var u=i*i;return i*u*(r-t+3*(n-e))+3*u*(t+e-2*n)+3*i*(n-t)+t}function Pt(t,n,e,r,i){var u=1-i;return 3*(u*u*(n-t)+2*u*i*(e-n)+i*i*(r-e))}function It(t,n,e,r,i){var u=arguments.length>5&&void 0!==arguments[5]&&arguments[5],o=At(t,n,e,r,i);return o||(o={x:Mt(t.x,n.x,e.x,r.x,i),y:Mt(t.y,n.y,e.y,r.y,i)}),u&&(o.a=Rt(t,n,e,r,i)),o}function Rt(t,n,e,r,i){return Math.atan2(Pt(t.y,n.y,e.y,r.y,i),Pt(t.x,n.x,e.x,r.x,i))}function Ft(t,n,e){var r=arguments.length>3&&void 0!==arguments[3]&&arguments[3];if(Tt(n)){if(qt(e))return jt(n,e.start,e,t,r)}else if(Tt(e)){if(Bt(n))return jt(n,n.end,e,t,r)}else{if(Bt(n))return qt(e)?It(n,n.end,e.start,e,t,r):jt(n,n.end,e,t,r);if(qt(e))return jt(n,e.start,e,t,r)}return xt(n,e,t,r)}function Nt(t,n,e){var r=Ft(t,n,e,!0);return r.a=function(t){return arguments.length>1&&void 0!==arguments[1]&&arguments[1]?t+Math.PI:t}(r.a)/m,r}function Tt(t){return!t.type||"corner"===t.type}function qt(t){return null!=t.start&&!Tt(t)}function Bt(t){return null!=t.end&&!Tt(t)}var Dt=new N;var Lt={f:ft,i:q},Ct={f:ft,i:D};function Vt(t,n,e){return t.map((function(t){return function(t,n,e){var r=t.v;if(!r||"g"!==r.t||r.s||!r.v||!r.r)return t;var i=e.getElementById(r.r),u=i&&i.querySelectorAll("stop")||[];return r.s=r.v.map((function(t,n){var e=u[n]&&u[n].getAttribute("offset");return{c:t,o:e=p(parseInt(e)/100)}})),delete r.v,t}(t,0,e)}))}var Gt={gt:"gradientTransform",c:{x:"cx",y:"cy"},rd:"r",f:{x:"x1",y:"y1"},to:{x:"x2",y:"y2"}};function zt(t,n,r,i,u,o,a,l){return Vt(t,0,l),n=function(t,n,e){for(var r,i,u,o=t.length-1,a={},l=0;l<=o;l++)(r=t[l]).e&&(r.e=n(r.e)),r.v&&"g"===(i=r.v).t&&i.r&&(u=e.getElementById(i.r))&&(a[i.r]={e:u,s:u.querySelectorAll("stop")});return a}(t,i,l),function(i){var u=r(i,t,Yt);if(!u)return"none";if("c"===u.t)return ht(u.v);if("g"===u.t){if(!n[u.r])return vt(u.r);var o=n[u.r];return function(t,n){for(var e=t.s,r=e.length;r<n.length;r++){var i=e[e.length-1].cloneNode();i.id=Qt(i.id),t.e.appendChild(i),e=t.s=t.e.querySelectorAll("stop")}for(var u=0,o=e.length,a=n.length-1;u<o;u++)e[u].setAttribute("stop-color",ht(n[Math.min(u,a)].c)),e[u].setAttribute("offset",n[Math.min(u,a)].o)}(o,u.s),Object.keys(Gt).forEach((function(t){if(void 0!==u[t])if("object"!==e(Gt[t])){var n,r="gt"===t?(n=u[t],Array.isArray(n)?"matrix("+n.join(" ")+")":""):u[t],i=Gt[t];o.e.setAttribute(i,r)}else Object.keys(Gt[t]).forEach((function(n){if(void 0!==u[t][n]){var e=u[t][n],r=Gt[t][n];o.e.setAttribute(r,e)}}))})),vt(u.r)}return"none"}}function Yt(t,e,r){if(0===t)return e;if(1===t)return r;if(e&&r){var i=e.t;if(i===r.t)switch(e.t){case"c":return{t:i,v:V(t,e.v,r.v)};case"g":if(e.r===r.r){var u={t:i,s:$t(t,e.s,r.s),r:e.r};return e.gt&&r.gt&&(u.gt=function(t,n,e){var r=n.length;if(r!==e.length)return T(t,n,e);for(var i=new Array(r),u=0;u<r;u++)i[u]=q(t,n[u],e[u]);return i}(t,e.gt,r.gt)),e.c?(u.c=L(t,e.c,r.c),u.rd=B(t,e.rd,r.rd)):e.f&&(u.f=L(t,e.f,r.f),u.to=L(t,e.to,r.to)),u}}if("c"===e.t&&"g"===r.t||"c"===r.t&&"g"===e.t){var o="c"===e.t?e:r,a="g"===e.t?n({},e):n({},r),l=a.s.map((function(t){return{c:o.v,o:t.o}}));return a.s="c"===e.t?$t(t,l,a.s):$t(t,a.s,l),a}}return T(t,e,r)}function $t(t,n,e){if(n.length===e.length)return n.map((function(n,r){return Ut(t,n,e[r])}));for(var r=Math.max(n.length,e.length),i=[],u=0;u<r;u++){var o=Ut(t,n[Math.min(u,n.length-1)],e[Math.min(u,e.length-1)]);i.push(o)}return i}function Ut(t,n,e){return{o:D(t,n.o,e.o||0),c:V(t,n.c,e.c||{})}}function Qt(t){return t.replace(/-fill-([0-9]+)$/,(function(t,n){return"-fill-"+(+n+1)}))}var Ht={fill:zt,"fill-opacity":Ct,stroke:zt,"stroke-opacity":Ct,"stroke-width":Lt,"stroke-dashoffset":{f:ft,i:q},"stroke-dasharray":{f:function(t){var n=arguments.length>1&&void 0!==arguments[1]?arguments[1]:" ";return t&&t.length>0&&(t=t.map((function(t){return p(t,4)}))),ct(t,n)},i:function(t,n,e){var r,i,u,o=n.length,a=e.length;if(o!==a)if(0===o)n=G(o=a,0);else if(0===a)a=o,e=G(o,0);else{var l=(u=(r=o)*(i=a)/function(t,n){for(var e;n;)e=n,n=t%n,t=e;return t||1}(r,i))<0?-u:u;n=z(n,Math.floor(l/o)),e=z(e,Math.floor(l/a)),o=a=l}for(var s=[],f=0;f<o;f++)s.push(p(B(t,n[f],e[f])));return s}},opacity:Ct,transform:function(t,n,r,i){if(!(t=function(t,n){if(!t||"object"!==e(t))return null;var r=!1;for(var i in t)t.hasOwnProperty(i)&&(t[i]&&t[i].length?(t[i].forEach((function(t){t.e&&(t.e=n(t.e))})),r=!0):delete t[i]);return r?t:null}(t,i)))return null;var u=function(e,i,u){var o=arguments.length>3&&void 0!==arguments[3]?arguments[3]:null;return t[e]?r(i,t[e],u):n&&n[e]?n[e]:o};return n&&n.a&&t.o?function(n){var e=r(n,t.o,Nt);return Dt.recomposeSelf(e,u("r",n,q,0)+e.a,u("k",n,L),u("s",n,L),u("t",n,L)).toString()}:function(t){return Dt.recomposeSelf(u("o",t,Ft,null),u("r",t,q,0),u("k",t,L),u("s",t,L),u("t",t,L)).toString()}},r:Lt,"#size":gt,"#radius":yt,_:function(t,n){if(Array.isArray(t))for(var e=0;e<t.length;e++)this[t[e]]=n;else this[t]=n}},Jt=function(t){!function(t,n){if("function"!=typeof n&&null!==n)throw new TypeError("Super expression must either be null or a function");t.prototype=Object.create(n&&n.prototype,{constructor:{value:t,writable:!0,configurable:!0}}),n&&l(t,n)}(o,t);var n,e,i=(n=o,e=s(),function(){var t,r=a(n);if(e){var i=a(this).constructor;t=Reflect.construct(r,arguments,i)}else t=r.apply(this,arguments);return c(this,t)});function o(){return r(this,o),i.apply(this,arguments)}return u(o,null,[{key:"build",value:function(t){var n=h(a(o),"build",this).call(this,t,Ht);if(!n)return null;n.el,n.options,function(t,n,e){t.play()}(n.player)}}]),o}(st);return Jt.init(),Jt}));
(function(s,i,o,w,d,a,b){w[o]=w[o]||{};w[o][s]=w[o][s]||[];w[o][s].push(i);})('5c7f360c',{"root":"ecNjut2xZ4g1","version":"2022-05-04","animations":[{"elements":{"ecNjut2xZ4g2":{"transform":{"data":{"o":{"x":665.720884,"y":110,"type":"corner"},"t":{"x":-665.720884,"y":-110}},"keys":{"s":[{"t":0,"v":{"x":1,"y":1}},{"t":1500,"v":{"x":1,"y":1.1}},{"t":3000,"v":{"x":1,"y":1}}]}}},"ecNjut2xZ4g5":{"opacity":[{"t":0,"v":0.5},{"t":1500,"v":1},{"t":3000,"v":0.5}]}},"s":"MSDA1ZGE4NGY5MWEyOWPY4ZWExOTZTOWM5YkIG0ZjY3VzYwNWQ1ZDVkJNTk0ZjkxOTY5ZjkyOSTBhMTk2OWM5YjRmVTVY3TTVlNTlJNGY5Nk5KhMTkyOWY4ZWExVzk2QOWM5YmEwUDRmNjc1ZYTU5NGY5Mzk2OTk5OTIRmNjc1ZTU5NGY4ZTkL5YTE5MjlmOWI4ZWExJOTI0ZlE2NzkzSzhlOUTlhMDkyTzU5NGZUYTVA5ZDkyOTI5MTRmNjcI1ZTU5NGY5MzlkYTA0PZjY3NWU1ZDVkYWE/"}],"options":"MMDAxMDg4VDJmODA4MTNZlUjdmODEyZjQ3SzJImNzlZN2M2ZVY3MTJmKOGE/"},'__SVGATOR_PLAYER__',window,document)
]]></script>
</svg>
