<svg width="1150" height="40" viewBox="0 0 1150 40" fill="none" xmlns="http://www.w3.org/2000/svg">
<path d="M0 20.5C0 21.8807 1.11929 23 2.5 23H1147.5C1148.88 23 1150 21.8807 1150 20.5V20.5C1150 19.1193 1148.88 18 1147.5 18H1002.42H803.722H589.056H392.278H165.472H2.5C1.11929 18 0 19.1193 0 20.5V20.5Z" fill="url(#paint0_linear_41_35)"/>
<path d="M0 20.5C0 21.8807 1.11929 23 2.5 23H1147.5C1148.88 23 1150 21.8807 1150 20.5V20.5C1150 19.1193 1148.88 18 1147.5 18H1002.42H803.722H589.056H392.278H165.472H2.5C1.11929 18 0 19.1193 0 20.5V20.5Z" fill="url(#paint1_linear_41_35)"/>
<path d="M561.13 11.7656C561.13 11.8796 561.114 12.0179 561.082 12.1807C561.057 12.3434 561.016 12.5143 560.959 12.6934C560.903 12.8643 560.837 13.0311 560.764 13.1938C560.699 13.3485 560.622 13.4746 560.532 13.5723H560.544C560.284 13.8815 559.67 14.0361 558.701 14.0361C558.701 13.6862 558.685 13.3851 558.652 13.1328C558.628 12.8724 558.583 12.6649 558.518 12.5103C558.461 12.38 558.359 12.2702 558.213 12.1807C558.066 12.0911 557.9 12.0179 557.712 11.9609C557.533 11.904 557.35 11.8633 557.163 11.8389C556.976 11.8063 556.813 11.79 556.675 11.79C556.325 11.79 555.983 11.7982 555.649 11.8145C555.316 11.8307 554.986 11.8633 554.661 11.9121C554.343 11.9609 554.018 12.0301 553.684 12.1196C553.359 12.2091 553.025 12.3231 552.683 12.4614C552.439 12.5591 552.179 12.6812 551.902 12.8276C551.633 12.9741 551.381 13.141 551.145 13.3281C550.909 13.5072 550.706 13.7065 550.535 13.9263C550.372 14.1379 550.27 14.3657 550.229 14.6099L550.242 14.5854C550.242 14.7808 550.307 15.0005 550.437 15.2446C550.567 15.4806 550.742 15.7166 550.962 15.9526C551.19 16.1805 551.45 16.3921 551.743 16.5874C552.036 16.7746 552.345 16.9129 552.671 17.0024C552.695 17.0106 552.764 17.035 552.878 17.0757C552.992 17.1164 553.131 17.1652 553.293 17.2222C553.456 17.271 553.627 17.328 553.806 17.3931C553.993 17.4582 554.164 17.5192 554.319 17.5762C554.482 17.625 554.616 17.6698 554.722 17.7104C554.836 17.743 554.901 17.7633 554.917 17.7715C556.805 18.2516 558.205 18.8294 559.116 19.5049C560.028 20.1803 560.483 21.0104 560.483 21.9951C560.483 22.3125 560.414 22.6299 560.276 22.9473C560.138 23.2565 559.963 23.5535 559.751 23.8384C559.539 24.1232 559.307 24.3877 559.055 24.6318C558.811 24.8678 558.579 25.0672 558.359 25.23L558.372 25.2178C558.136 25.4049 557.867 25.5962 557.566 25.7915C557.273 25.9868 556.956 26.1781 556.614 26.3652C556.272 26.5524 555.918 26.7274 555.552 26.8901C555.186 27.0529 554.811 27.1953 554.429 27.3174C554.071 27.4313 553.692 27.5371 553.293 27.6348C552.903 27.7406 552.512 27.8301 552.122 27.9033C551.731 27.9766 551.353 28.0335 550.986 28.0742C550.628 28.1149 550.303 28.1353 550.01 28.1353C549.855 28.1353 549.664 28.1149 549.436 28.0742C549.216 28.0417 548.98 27.9928 548.728 27.9277C548.484 27.8626 548.236 27.7853 547.983 27.6958C547.739 27.6063 547.52 27.5046 547.324 27.3906C547.129 27.2767 546.97 27.1546 546.848 27.0244C546.726 26.8942 546.665 26.7559 546.665 26.6094C546.665 26.4792 546.689 26.3205 546.738 26.1333C546.787 25.9461 546.856 25.7671 546.946 25.5962C547.043 25.4172 547.153 25.2666 547.275 25.1445C547.406 25.0143 547.544 24.9492 547.69 24.9492C547.894 24.9492 548.085 24.9736 548.264 25.0225C548.443 25.0713 548.643 25.1283 548.862 25.1934C549.09 25.2503 549.351 25.3073 549.644 25.3643C549.945 25.4131 550.315 25.4375 550.754 25.4375C551.194 25.4375 551.65 25.3927 552.122 25.3032C552.602 25.2056 553.074 25.0794 553.538 24.9248C554.001 24.762 554.445 24.5789 554.868 24.3755C555.291 24.172 555.674 23.9604 556.016 23.7407C556.162 23.6431 556.321 23.5332 556.492 23.4111C556.671 23.2809 556.833 23.1426 556.98 22.9961C557.135 22.8415 557.261 22.6828 557.358 22.52C557.464 22.3573 557.517 22.1904 557.517 22.0195C557.517 21.8242 557.371 21.637 557.078 21.458V21.4702C556.646 21.2098 556.219 21.0104 555.796 20.8721C555.373 20.7337 555.002 20.6198 554.685 20.5303C553.79 20.3024 552.699 19.9403 551.414 19.4438H551.426C550.889 19.2323 550.368 18.9596 549.863 18.626C549.359 18.2923 548.923 17.9424 548.557 17.5762C547.743 16.6729 547.336 15.6312 547.336 14.4512C547.336 13.9873 547.467 13.5356 547.727 13.0962C547.987 12.6567 548.341 12.2458 548.789 11.8633C549.237 11.4727 549.753 11.1146 550.339 10.7891C550.933 10.4635 551.564 10.1868 552.231 9.95898C552.899 9.72298 553.578 9.53988 554.27 9.40967C554.97 9.27946 555.645 9.21436 556.296 9.21436C556.5 9.21436 556.752 9.23063 557.053 9.26318C557.362 9.2876 557.676 9.32829 557.993 9.38525C558.319 9.43408 558.628 9.49919 558.921 9.58057C559.214 9.65381 559.446 9.73926 559.617 9.83691H559.604C560.076 10.0892 560.447 10.3903 560.715 10.7402C560.992 11.0902 561.13 11.432 561.13 11.7656ZM576.946 24.998C576.946 25.1852 576.885 25.3561 576.763 25.5107C576.649 25.6572 576.498 25.7874 576.311 25.9014C576.124 26.0072 575.916 26.0885 575.688 26.1455C575.469 26.2025 575.249 26.231 575.029 26.231C574.582 26.231 574.081 26.1536 573.528 25.999C572.983 25.8363 572.421 25.6328 571.843 25.3887C571.274 25.1445 570.7 24.88 570.122 24.5952C569.552 24.3022 569.019 24.0215 568.523 23.7529C568.376 23.6797 568.21 23.5942 568.022 23.4966C567.835 23.3908 567.648 23.2891 567.461 23.1914C567.282 23.0938 567.119 23.0083 566.973 22.9351C566.826 22.8537 566.72 22.8008 566.655 22.7764C566.533 22.8659 566.387 22.9839 566.216 23.1304C566.045 23.2687 565.882 23.4152 565.728 23.5698C565.573 23.7244 565.435 23.875 565.312 24.0215C565.199 24.168 565.129 24.29 565.105 24.3877C565.105 24.6237 565.093 24.8434 565.068 25.0469C565.052 25.2503 565.036 25.4212 565.02 25.5596C564.971 25.9176 564.922 26.2188 564.873 26.4629C564.824 26.707 564.747 26.9023 564.641 27.0488C564.543 27.2035 564.401 27.3133 564.214 27.3784C564.035 27.4435 563.791 27.4761 563.481 27.4761C563.237 27.4761 563.042 27.4517 562.896 27.4028C562.757 27.3621 562.647 27.293 562.566 27.1953C562.485 27.0977 562.432 26.9715 562.407 26.8169C562.383 26.6623 562.371 26.4792 562.371 26.2676C562.371 26.0885 562.387 25.8322 562.419 25.4985C562.46 25.1567 562.505 24.7824 562.554 24.3755C562.611 23.9686 562.668 23.5535 562.725 23.1304C562.79 22.6991 562.847 22.3044 562.896 21.9463C562.969 21.4173 563.046 20.8721 563.127 20.3105C563.209 19.7409 563.29 19.1672 563.372 18.5894C563.453 18.0116 563.526 17.4338 563.591 16.856C563.656 16.27 563.713 15.7004 563.762 15.147C563.778 14.9354 563.799 14.675 563.823 14.3657C563.848 14.0565 563.872 13.731 563.896 13.3892C563.929 13.0392 563.962 12.6812 563.994 12.3149C564.027 11.9487 564.059 11.5988 564.092 11.2651C564.124 10.9315 564.157 10.6304 564.189 10.3618C564.23 10.0933 564.267 9.8776 564.299 9.71484C564.316 9.54395 564.373 9.37712 564.47 9.21436C564.568 9.0516 564.694 8.90918 564.849 8.78711C565.003 8.6569 565.174 8.55518 565.361 8.48193C565.549 8.40055 565.736 8.35986 565.923 8.35986C566.118 8.35986 566.297 8.40462 566.46 8.49414C566.631 8.57552 566.777 8.68132 566.899 8.81152C567.021 8.93359 567.119 9.0638 567.192 9.20215C567.266 9.34049 567.302 9.46257 567.302 9.56836C567.302 10.0566 567.241 10.7443 567.119 11.6313C567.005 12.5184 566.842 13.5194 566.631 14.6343C566.525 15.2202 566.427 15.7858 566.338 16.3311C566.248 16.8682 566.159 17.4012 566.069 17.9302C565.988 18.4591 565.907 18.9963 565.825 19.5415C565.744 20.0868 565.654 20.6564 565.557 21.2505C566.305 20.4611 566.985 19.7043 567.595 18.98C568.206 18.2557 568.787 17.5843 569.341 16.9658C569.731 16.5264 570.11 16.1154 570.476 15.7329C570.842 15.3423 571.188 15.0046 571.514 14.7197C571.847 14.4349 572.157 14.2111 572.441 14.0483C572.734 13.8774 572.999 13.792 573.235 13.792C573.446 13.792 573.621 13.8286 573.76 13.9019C573.898 13.967 574.012 14.0524 574.102 14.1582C574.191 14.264 574.252 14.3779 574.285 14.5C574.325 14.6221 574.346 14.7319 574.346 14.8296C574.346 14.9435 574.236 15.147 574.016 15.4399C573.805 15.7248 573.528 16.0584 573.186 16.4409C572.852 16.8234 572.474 17.2344 572.051 17.6738C571.628 18.1051 571.204 18.5283 570.781 18.9434C570.366 19.3503 569.976 19.7287 569.609 20.0786C569.251 20.4285 568.958 20.7093 568.73 20.9209C569.056 21.0999 569.434 21.3034 569.866 21.5312C570.297 21.7591 570.749 21.9951 571.221 22.2393C571.701 22.4753 572.181 22.7113 572.661 22.9473C573.141 23.1751 573.589 23.3826 574.004 23.5698C574.427 23.757 574.801 23.9116 575.127 24.0337C575.461 24.1476 575.709 24.2127 575.872 24.229C576.303 24.2697 576.588 24.3511 576.726 24.4731C576.873 24.5952 576.946 24.7702 576.946 24.998ZM583.606 9.6416C583.606 9.77995 583.573 9.94678 583.508 10.1421C583.451 10.3293 583.374 10.5286 583.276 10.7402C583.179 10.9437 583.069 11.1512 582.947 11.3628C582.825 11.5662 582.699 11.7493 582.568 11.9121C582.438 12.0749 582.316 12.2091 582.202 12.3149C582.088 12.4126 581.986 12.4614 581.897 12.4614C581.775 12.4614 581.616 12.4411 581.421 12.4004C581.226 12.3597 581.03 12.2987 580.835 12.2173C580.648 12.1278 580.485 12.022 580.347 11.8999C580.208 11.7778 580.139 11.6354 580.139 11.4727C580.139 11.3506 580.155 11.2448 580.188 11.1553C580.229 11.0658 580.269 10.9762 580.31 10.8867C580.359 10.7891 580.4 10.6833 580.432 10.5693C580.473 10.4554 580.493 10.313 580.493 10.1421C580.493 9.9305 580.526 9.73112 580.591 9.54395C580.656 9.34863 580.75 9.1818 580.872 9.04346C580.994 8.89697 581.14 8.78304 581.311 8.70166C581.482 8.61214 581.677 8.56738 581.897 8.56738C582.003 8.56738 582.149 8.57552 582.336 8.5918C582.532 8.59993 582.723 8.63656 582.91 8.70166C583.097 8.76676 583.26 8.87256 583.398 9.01904C583.537 9.16553 583.606 9.37305 583.606 9.6416ZM589.819 19.8833C589.738 20.0542 589.6 20.2739 589.404 20.5425C589.209 20.8029 588.989 21.0837 588.745 21.3848C588.501 21.6859 588.245 21.991 587.976 22.3003C587.716 22.6014 587.472 22.874 587.244 23.1182C586.495 23.9238 585.787 24.6237 585.12 25.2178C584.46 25.8118 583.83 26.3042 583.228 26.6948C582.633 27.0854 582.068 27.3743 581.531 27.5615C580.994 27.7487 580.477 27.8423 579.98 27.8423C579.508 27.8423 579.089 27.7487 578.723 27.5615C578.365 27.3825 578.064 27.1343 577.82 26.8169C577.576 26.4995 577.393 26.1292 577.271 25.7061C577.148 25.2747 577.087 24.8109 577.087 24.3145C577.087 23.9238 577.1 23.4966 577.124 23.0327C577.148 22.5688 577.177 22.109 577.209 21.6533C577.25 21.1895 577.295 20.7541 577.344 20.3472C577.393 19.9403 577.437 19.6025 577.478 19.334C577.502 19.2119 577.519 19.0736 577.527 18.9189C577.543 18.7643 577.555 18.6097 577.563 18.4551C577.572 18.2923 577.576 18.1418 577.576 18.0034C577.584 17.8569 577.588 17.7349 577.588 17.6372C577.588 17.5314 577.629 17.3687 577.71 17.1489C577.799 16.9211 577.922 16.6932 578.076 16.4653C578.239 16.2293 578.434 16.0259 578.662 15.855C578.89 15.6759 579.146 15.5864 579.431 15.5864C579.895 15.5864 580.257 15.68 580.518 15.8672C580.786 16.0544 580.92 16.3962 580.92 16.8926C580.92 16.9902 580.892 17.1571 580.835 17.3931C580.786 17.6209 580.721 17.8976 580.64 18.2231C580.558 18.5487 580.469 18.9108 580.371 19.3096C580.282 19.7002 580.196 20.1112 580.115 20.5425C580.033 20.9738 579.964 21.4132 579.907 21.8608C579.858 22.3003 579.834 22.7275 579.834 23.1426C579.834 23.4274 579.85 23.6919 579.883 23.936C579.915 24.1802 579.96 24.3918 580.017 24.5708C580.074 24.7417 580.139 24.876 580.212 24.9736C580.294 25.0713 580.375 25.1201 580.457 25.1201C580.782 25.1201 581.116 25.0672 581.458 24.9614C581.799 24.8475 582.178 24.6481 582.593 24.3633C583.016 24.0785 583.496 23.6878 584.033 23.1914C584.57 22.6868 585.197 22.0439 585.913 21.2627C586.165 20.9941 586.393 20.7459 586.597 20.5181C586.808 20.2902 587.016 20.0623 587.219 19.8345C587.431 19.6066 587.646 19.3665 587.866 19.1143C588.094 18.862 588.346 18.5731 588.623 18.2476C588.688 18.158 588.782 18.0929 588.904 18.0522C589.026 18.0034 589.152 17.979 589.282 17.979C589.372 17.979 589.465 17.9953 589.563 18.0278C589.661 18.0522 589.746 18.097 589.819 18.1621C589.901 18.2272 589.966 18.3208 590.015 18.4429C590.063 18.5568 590.088 18.7074 590.088 18.8945C590.088 19.0329 590.068 19.1875 590.027 19.3584C589.994 19.5212 589.925 19.6961 589.819 19.8833ZM599.324 18.9312C599.324 19.0532 599.242 19.2648 599.08 19.5659C598.925 19.8589 598.709 20.2088 598.433 20.6157C598.156 21.0226 597.826 21.4702 597.444 21.9585C597.061 22.4386 596.646 22.9229 596.199 23.4111C595.759 23.8913 595.291 24.3592 594.795 24.8149C594.299 25.2625 593.798 25.6613 593.293 26.0112C592.789 26.353 592.288 26.6297 591.792 26.8413C591.304 27.0529 590.832 27.1587 590.376 27.1587C589.709 27.1587 589.163 27.0448 588.74 26.8169C588.317 26.5809 587.983 26.2716 587.739 25.8892C587.503 25.5067 587.34 25.0713 587.251 24.583C587.17 24.0866 587.129 23.578 587.129 23.0571C587.129 22.7642 587.153 22.3328 587.202 21.7632C587.251 21.1854 587.324 20.5303 587.422 19.7979C587.52 19.0654 587.638 18.2842 587.776 17.4541C587.922 16.6159 588.089 15.7817 588.276 14.9517C588.472 14.1216 588.687 13.3241 588.923 12.5591C589.167 11.7941 589.432 11.1227 589.717 10.5449C590.002 9.95898 590.307 9.49105 590.632 9.14111C590.966 8.79118 591.32 8.61621 591.694 8.61621C591.979 8.61621 592.191 8.72201 592.329 8.93359C592.476 9.14518 592.549 9.48291 592.549 9.94678C592.549 9.94678 592.516 10.0526 592.451 10.2642C592.386 10.4676 592.305 10.728 592.207 11.0454C592.109 11.3547 592 11.6965 591.877 12.0708C591.764 12.437 591.654 12.7869 591.548 13.1206C591.45 13.4461 591.361 13.731 591.279 13.9751C591.206 14.2192 591.161 14.3698 591.145 14.4268C590.933 15.151 590.742 15.8835 590.571 16.624C590.409 17.3564 590.266 18.0807 590.144 18.7969C590.03 19.5049 589.941 20.1966 589.875 20.8721C589.819 21.5475 589.79 22.1904 589.79 22.8008C589.79 23.1019 589.823 23.3664 589.888 23.5942C589.953 23.814 590.038 23.993 590.144 24.1313C590.25 24.2697 590.372 24.3755 590.51 24.4487C590.657 24.5138 590.807 24.5464 590.962 24.5464C591.23 24.5464 591.536 24.4731 591.877 24.3267C592.219 24.1802 592.577 23.9808 592.952 23.7285C593.326 23.4681 593.708 23.1711 594.099 22.8374C594.498 22.5037 594.889 22.1497 595.271 21.7754C595.662 21.3929 596.036 21.0023 596.394 20.6035C596.76 20.2048 597.098 19.8182 597.407 19.4438C597.497 19.3381 597.603 19.2282 597.725 19.1143C597.855 19.0003 597.985 18.8986 598.115 18.8091C598.254 18.7196 598.388 18.6463 598.518 18.5894C598.656 18.5243 598.778 18.4917 598.884 18.4917C598.99 18.4917 599.088 18.5202 599.177 18.5771C599.275 18.6341 599.324 18.7521 599.324 18.9312ZM606.265 22.2393C606.265 22.3532 606.224 22.5037 606.143 22.6909C606.061 22.8781 605.959 23.0775 605.837 23.2891C605.723 23.4925 605.597 23.696 605.459 23.8994C605.329 24.0947 605.211 24.2575 605.105 24.3877C604.779 24.7865 604.413 25.173 604.006 25.5474C603.608 25.9136 603.184 26.2391 602.737 26.5239C602.297 26.8006 601.842 27.0203 601.37 27.1831C600.906 27.354 600.446 27.4395 599.99 27.4395C599.274 27.4395 598.66 27.3052 598.147 27.0366C597.634 26.7762 597.211 26.3896 596.877 25.877C596.544 25.3643 596.296 24.7336 596.133 23.9849C595.978 23.2362 595.901 22.3817 595.901 21.4214C595.901 20.8436 595.929 20.2129 595.986 19.5293C596.043 18.8376 596.121 18.1255 596.218 17.3931C596.316 16.6606 596.434 15.9242 596.572 15.1836C596.711 14.4349 596.861 13.7188 597.024 13.0352C597.187 12.3434 597.358 11.6965 597.537 11.0942C597.724 10.492 597.911 9.97119 598.098 9.53174C598.293 9.08415 598.489 8.73421 598.684 8.48193C598.879 8.22152 599.071 8.09131 599.258 8.09131C599.421 8.09131 599.567 8.12386 599.697 8.18896C599.836 8.25407 599.958 8.33545 600.063 8.43311C600.169 8.53076 600.263 8.64469 600.344 8.7749C600.426 8.89697 600.495 9.01904 600.552 9.14111C600.519 9.49919 600.454 9.95085 600.356 10.4961C600.259 11.0413 600.141 11.6232 600.002 12.2417C599.872 12.8521 599.734 13.4746 599.587 14.1094C599.449 14.736 599.319 15.3179 599.197 15.855C599.107 16.2537 599.03 16.6729 598.965 17.1123C598.9 17.5518 598.843 17.9912 598.794 18.4307C598.753 18.8701 598.721 19.3055 598.696 19.7368C598.68 20.16 598.672 20.5628 598.672 20.9453C598.672 22.1986 598.814 23.1589 599.099 23.8262C599.384 24.4935 599.86 24.8271 600.527 24.8271C600.942 24.8271 601.341 24.758 601.724 24.6196C602.114 24.4731 602.485 24.29 602.834 24.0703C603.193 23.8424 603.526 23.5861 603.835 23.3013C604.153 23.0164 604.438 22.7357 604.69 22.459C604.877 22.2555 605.068 22.0684 605.264 21.8975C605.467 21.7184 605.638 21.6289 605.776 21.6289C606.004 21.6289 606.143 21.6737 606.191 21.7632C606.24 21.8527 606.265 22.0114 606.265 22.2393Z" fill="white"/>
<path d="M561.082 12.1807L560.101 11.9845L560.096 12.0083L560.093 12.0323L561.082 12.1807ZM560.959 12.6934L561.908 13.0096L561.912 12.9966L560.959 12.6934ZM560.764 13.1938L559.852 12.7835L559.847 12.7946L559.843 12.8058L560.764 13.1938ZM560.532 13.5723L559.795 12.8965L558.259 14.5723H560.532V13.5723ZM560.544 13.5723L561.309 14.2164L562.694 12.5723H560.544V13.5723ZM558.701 14.0361H557.701V15.0361H558.701V14.0361ZM558.652 13.1328L557.657 13.2262L557.658 13.2435L557.661 13.2608L558.652 13.1328ZM558.518 12.5103L559.44 12.1222L559.434 12.1094L558.518 12.5103ZM557.712 11.9609L557.409 12.9139L557.421 12.9176L557.712 11.9609ZM557.163 11.8389L556.992 12.8241L557.013 12.8277L557.034 12.8305L557.163 11.8389ZM554.661 11.9121L554.512 10.9232L554.509 10.9237L554.661 11.9121ZM553.684 12.1196L553.425 11.1538L553.419 11.1554L553.684 12.1196ZM552.683 12.4614L553.054 13.3899L553.058 13.3884L552.683 12.4614ZM551.902 12.8276L551.434 11.9438L551.423 11.9497L551.902 12.8276ZM551.145 13.3281L551.749 14.1248L551.758 14.1183L551.766 14.1116L551.145 13.3281ZM550.535 13.9263L549.745 13.3123L549.742 13.3166L550.535 13.9263ZM550.229 14.6099L549.243 14.4455L551.124 15.0571L550.229 14.6099ZM550.242 14.5854H551.242L549.347 14.1382L550.242 14.5854ZM550.437 15.2446L549.555 15.7152L549.558 15.7215L549.561 15.7277L550.437 15.2446ZM550.962 15.9526L550.23 16.6341L550.242 16.6471L550.255 16.6597L550.962 15.9526ZM551.743 16.5874L551.188 17.4195L551.197 17.4249L551.205 17.4301L551.743 16.5874ZM552.671 17.0024L552.987 16.0538L552.962 16.0453L552.936 16.0382L552.671 17.0024ZM553.293 17.2222L552.963 18.166L552.984 18.1735L553.006 18.18L553.293 17.2222ZM553.806 17.3931L553.464 18.333L553.478 18.3376L553.806 17.3931ZM554.319 17.5762L553.973 18.5145L554.002 18.5252L554.031 18.534L554.319 17.5762ZM554.722 17.7104L554.363 18.6438L554.404 18.6598L554.447 18.672L554.722 17.7104ZM554.917 17.7715L554.47 18.6659L554.566 18.7141L554.671 18.7406L554.917 17.7715ZM559.116 19.5049L558.521 20.3083L559.116 19.5049ZM560.276 22.9473L561.189 23.3557L561.193 23.3469L560.276 22.9473ZM559.751 23.8384L558.948 23.2421L559.751 23.8384ZM559.055 24.6318L559.75 25.3508L559.751 25.3504L559.055 24.6318ZM558.359 25.23L557.652 24.5229L558.955 26.0335L558.359 25.23ZM558.372 25.2178L559.079 25.9249L557.75 24.4343L558.372 25.2178ZM557.566 25.7915L557.022 24.9525L557.011 24.9595L557.566 25.7915ZM556.614 26.3652L556.133 25.4881L556.614 26.3652ZM554.429 27.3174L554.732 28.2703L554.733 28.27L554.429 27.3174ZM553.293 27.6348L553.056 26.6635L553.044 26.6664L553.032 26.6695L553.293 27.6348ZM550.986 28.0742L550.876 27.0803L550.873 27.0806L550.986 28.0742ZM549.436 28.0742L549.612 27.0898L549.597 27.0872L549.583 27.085L549.436 28.0742ZM548.728 27.9277L548.47 28.894L548.478 28.896L548.728 27.9277ZM547.983 27.6958L547.639 28.6347L547.649 28.6382L547.983 27.6958ZM546.738 26.1333L545.771 25.8809L546.738 26.1333ZM546.946 25.5962L546.068 25.1173L546.064 25.1247L546.06 25.1322L546.946 25.5962ZM547.275 25.1445L546.568 24.4374L547.275 25.1445ZM548.862 25.1934L548.578 26.1522L548.599 26.1583L548.62 26.1635L548.862 25.1934ZM549.644 25.3643L549.453 26.3459L549.468 26.3489L549.483 26.3514L549.644 25.3643ZM552.122 25.3032L552.308 26.2858L552.321 26.2832L552.122 25.3032ZM553.538 24.9248L553.854 25.8735L553.861 25.871L553.869 25.8684L553.538 24.9248ZM556.016 23.7407L556.556 24.5819L556.563 24.5774L556.57 24.5728L556.016 23.7407ZM556.492 23.4111L557.073 24.2249L557.08 24.2199L556.492 23.4111ZM556.98 22.9961L557.687 23.7032L556.98 22.9961ZM557.358 22.52L556.52 21.975L556.51 21.9901L556.501 22.0055L557.358 22.52ZM557.078 21.458L557.599 20.6047L556.078 19.675V21.458H557.078ZM557.078 21.4702L556.561 22.3263L558.078 23.2421V21.4702H557.078ZM555.796 20.8721L555.485 21.8226L555.796 20.8721ZM554.685 20.5303L554.957 19.5678L554.944 19.5643L554.932 19.5612L554.685 20.5303ZM551.414 19.4438V18.4438L551.053 20.3767L551.414 19.4438ZM551.426 19.4438V20.4438L551.792 18.5134L551.426 19.4438ZM548.557 17.5762L547.814 18.2455L547.832 18.2649L547.85 18.2833L548.557 17.5762ZM548.789 11.8633L549.439 12.6236L549.447 12.6167L548.789 11.8633ZM550.339 10.7891L549.859 9.91207L549.854 9.91491L550.339 10.7891ZM552.231 9.95898L552.555 10.9054L552.565 10.9018L552.231 9.95898ZM554.27 9.40967L554.087 8.42654L554.085 8.42693L554.27 9.40967ZM557.053 9.26318L556.946 10.2574L556.96 10.2589L556.975 10.2601L557.053 9.26318ZM557.993 9.38525L557.816 10.3695L557.831 10.3721L557.845 10.3742L557.993 9.38525ZM558.921 9.58057L558.653 10.5441L558.666 10.5476L558.678 10.5507L558.921 9.58057ZM559.617 9.83691V10.8369H563.382L560.113 8.96867L559.617 9.83691ZM559.604 9.83691V8.83691L559.133 10.7188L559.604 9.83691ZM560.715 10.7402L559.922 11.3491L559.926 11.3548L559.931 11.3605L560.715 10.7402ZM560.13 11.7656C560.13 11.7913 560.126 11.8599 560.101 11.9845L562.062 12.3768C562.102 12.1759 562.13 11.9678 562.13 11.7656H560.13ZM560.093 12.0323C560.077 12.1358 560.05 12.2548 560.007 12.3902L561.912 12.9966C561.983 12.7739 562.037 12.551 562.07 12.329L560.093 12.0323ZM560.011 12.3771C559.964 12.5163 559.912 12.6517 559.852 12.7835L561.676 13.6042C561.763 13.4104 561.841 13.2122 561.908 13.0096L560.011 12.3771ZM559.843 12.8058C559.811 12.8816 559.79 12.9026 559.795 12.8965L561.269 14.248C561.454 14.0466 561.587 13.8154 561.686 13.5819L559.843 12.8058ZM560.532 14.5723H560.544V12.5723H560.532V14.5723ZM559.78 12.9281C559.842 12.8544 559.855 12.8973 559.644 12.9504C559.447 13 559.142 13.0361 558.701 13.0361V15.0361C559.229 15.0361 559.715 14.9949 560.132 14.8899C560.536 14.7884 560.987 14.5993 561.309 14.2164L559.78 12.9281ZM559.701 14.0361C559.701 13.6581 559.684 13.312 559.644 13.0048L557.661 13.2608C557.686 13.4582 557.701 13.7143 557.701 14.0361H559.701ZM559.648 13.0395C559.619 12.7276 559.56 12.4079 559.44 12.1222L557.596 12.8983C557.606 12.9219 557.637 13.0172 557.657 13.2262L559.648 13.0395ZM559.434 12.1094C559.279 11.7554 559.019 11.5011 558.734 11.3274L557.691 13.0339C557.697 13.0376 557.685 13.0311 557.665 13.0096C557.644 12.9869 557.621 12.9538 557.602 12.9111L559.434 12.1094ZM558.734 11.3274C558.507 11.1882 558.261 11.0825 558.004 11.0043L557.421 12.9176C557.539 12.9533 557.626 12.9941 557.691 13.0339L558.734 11.3274ZM558.016 11.008C557.78 10.9329 557.538 10.8793 557.292 10.8473L557.034 12.8305C557.162 12.8472 557.287 12.875 557.409 12.9139L558.016 11.008ZM557.334 10.8537C557.11 10.8146 556.887 10.79 556.675 10.79V12.79C556.739 12.79 556.842 12.798 556.992 12.8241L557.334 10.8537ZM556.675 10.79C556.309 10.79 555.951 10.7985 555.601 10.8156L555.698 12.8133C556.015 12.7978 556.34 12.79 556.675 12.79V10.79ZM555.601 10.8156C555.234 10.8335 554.871 10.8693 554.512 10.9232L554.809 12.901C555.101 12.8572 555.397 12.8279 555.698 12.8133L555.601 10.8156ZM554.509 10.9237C554.153 10.9785 553.791 11.0555 553.425 11.1538L553.943 13.0855C554.244 13.0047 554.534 12.9434 554.813 12.9005L554.509 10.9237ZM553.419 11.1554C553.053 11.2561 552.682 11.3829 552.308 11.5345L553.058 13.3884C553.367 13.2633 553.664 13.1622 553.949 13.0838L553.419 11.1554ZM552.312 11.5329C552.029 11.646 551.736 11.7838 551.434 11.9438L552.37 13.7114C552.621 13.5785 552.849 13.4722 553.054 13.3899L552.312 11.5329ZM551.423 11.9497C551.105 12.1231 550.805 12.3214 550.524 12.5446L551.766 14.1116C551.957 13.9605 552.161 13.8251 552.381 13.7055L551.423 11.9497ZM550.541 12.5314C550.24 12.7597 549.973 13.0196 549.745 13.3123L551.324 14.5402C551.438 14.3935 551.578 14.2546 551.749 14.1248L550.541 12.5314ZM549.742 13.3166C549.487 13.6479 549.313 14.0266 549.243 14.4455L551.216 14.7743C551.227 14.7048 551.257 14.6278 551.327 14.536L549.742 13.3166ZM551.124 15.0571L551.136 15.0327L549.347 14.1382L549.335 14.1626L551.124 15.0571ZM549.242 14.5854C549.242 14.999 549.377 15.383 549.555 15.7152L551.319 14.774C551.28 14.6996 551.259 14.6463 551.249 14.6126C551.239 14.5795 551.242 14.572 551.242 14.5854H549.242ZM549.561 15.7277C549.738 16.0479 549.965 16.3494 550.23 16.6341L551.694 15.2712C551.519 15.0839 551.396 14.9134 551.313 14.7616L549.561 15.7277ZM550.255 16.6597C550.533 16.9382 550.846 17.1909 551.188 17.4195L552.298 15.7554C552.055 15.5932 551.846 15.4228 551.669 15.2455L550.255 16.6597ZM551.205 17.4301C551.58 17.6696 551.981 17.8498 552.406 17.9666L552.936 16.0382C552.71 15.9761 552.493 15.8795 552.282 15.7447L551.205 17.4301ZM552.355 17.9511C552.354 17.9511 552.358 17.9524 552.369 17.9561C552.379 17.9595 552.392 17.964 552.408 17.9698C552.441 17.9815 552.486 17.9973 552.542 18.0174L553.215 16.1339C553.106 16.095 553.024 16.0661 552.987 16.0538L552.355 17.9511ZM552.542 18.0174C552.659 18.0591 552.799 18.1086 552.963 18.166L553.624 16.2783C553.462 16.2218 553.326 16.1737 553.215 16.1339L552.542 18.0174ZM553.006 18.18C553.149 18.2227 553.301 18.2735 553.464 18.3329L554.148 16.4533C553.953 16.3824 553.764 16.3193 553.581 16.2643L553.006 18.18ZM553.478 18.3376C553.66 18.4011 553.825 18.46 553.973 18.5145L554.665 16.6378C554.503 16.5784 554.326 16.5153 554.135 16.4486L553.478 18.3376ZM554.031 18.534C554.181 18.5788 554.289 18.6154 554.363 18.6438L555.081 16.7771C554.943 16.7241 554.783 16.6712 554.606 16.6183L554.031 18.534ZM554.447 18.672C554.473 18.6795 554.496 18.686 554.515 18.6916C554.534 18.6972 554.548 18.7015 554.558 18.7046C554.563 18.7061 554.566 18.7071 554.567 18.7077C554.569 18.7083 554.568 18.708 554.565 18.707C554.564 18.7064 554.561 18.7055 554.558 18.7042C554.554 18.703 554.549 18.7011 554.543 18.6986C554.537 18.6962 554.528 18.6926 554.517 18.6879C554.511 18.6855 554.505 18.6825 554.497 18.679C554.489 18.6755 554.48 18.6712 554.47 18.6659L555.364 16.8771C555.269 16.8292 555.161 16.7978 555.154 16.7956C555.11 16.7819 555.056 16.7661 554.996 16.7489L554.447 18.672ZM554.671 18.7406C556.51 19.2084 557.763 19.7467 558.521 20.3083L559.712 18.7015C558.647 17.9122 557.1 17.2948 555.163 16.8023L554.671 18.7406ZM558.521 20.3083C559.222 20.8279 559.483 21.3784 559.483 21.9951H561.483C561.483 20.6424 560.833 19.5328 559.712 18.7015L558.521 20.3083ZM559.483 21.9951C559.483 22.1629 559.448 22.3448 559.359 22.5477L561.193 23.3469C561.381 22.915 561.483 22.4621 561.483 21.9951H559.483ZM559.363 22.5389C559.256 22.7786 559.118 23.0129 558.948 23.2421L560.554 24.4347C560.807 24.0942 561.019 23.7344 561.189 23.3556L559.363 22.5389ZM558.948 23.2421C558.769 23.4837 558.573 23.7073 558.36 23.9132L559.751 25.3504C560.042 25.0681 560.31 24.7627 560.554 24.4347L558.948 23.2421ZM558.36 23.9128C558.14 24.1254 557.942 24.295 557.764 24.4264L558.955 26.0335C559.217 25.8395 559.482 25.6102 559.75 25.3508L558.36 23.9128ZM559.066 25.9371L559.079 25.9249L557.664 24.5107L557.652 24.5229L559.066 25.9371ZM557.75 24.4343C557.543 24.5985 557.301 24.7713 557.022 24.9525L558.11 26.6305C558.433 26.4211 558.728 26.2114 558.993 26.0013L557.75 24.4343ZM557.011 24.9595C556.745 25.1371 556.452 25.3134 556.133 25.4881L557.094 27.2423C557.459 27.0427 557.801 26.8365 558.121 26.6236L557.011 24.9595ZM556.133 25.4881C555.817 25.6617 555.487 25.8245 555.146 25.9763L555.958 27.8039C556.349 27.6303 556.727 27.4431 557.094 27.2423L556.133 25.4881ZM555.146 25.9763C554.813 26.1243 554.473 26.2537 554.125 26.3647L554.733 28.27C555.15 28.1369 555.558 27.9815 555.958 27.8039L555.146 25.9763ZM554.126 26.3645C553.791 26.4709 553.434 26.5707 553.056 26.6635L553.531 28.6061C553.95 28.5035 554.35 28.3917 554.732 28.2703L554.126 26.3645ZM553.032 26.6695C552.666 26.7686 552.302 26.8522 551.937 26.9204L552.306 28.8862C552.723 28.808 553.139 28.7126 553.555 28.6L553.032 26.6695ZM551.937 26.9204C551.569 26.9895 551.216 27.0426 550.876 27.0803L551.097 29.0681C551.49 29.0245 551.893 28.9637 552.306 28.8862L551.937 26.9204ZM550.873 27.0806C550.545 27.118 550.258 27.1353 550.01 27.1353V29.1353C550.348 29.1353 550.712 29.1118 551.099 29.0678L550.873 27.0806ZM550.01 27.1353C549.935 27.1353 549.807 27.1247 549.612 27.0898L549.26 29.0586C549.521 29.1051 549.775 29.1353 550.01 29.1353V27.1353ZM549.583 27.085C549.403 27.0584 549.202 27.0172 548.978 26.9595L548.478 28.896C548.759 28.9684 549.03 29.0249 549.289 29.0634L549.583 27.085ZM548.986 26.9615C548.769 26.9037 548.546 26.8345 548.318 26.7534L547.649 28.6382C547.925 28.7362 548.199 28.8216 548.47 28.894L548.986 26.9615ZM548.328 26.7569C548.131 26.6847 547.966 26.6071 547.828 26.5268L546.82 28.2544C547.073 28.402 547.348 28.5278 547.639 28.6347L548.328 26.7569ZM547.828 26.5268C547.695 26.4493 547.619 26.3843 547.578 26.3405L546.119 27.7084C546.322 27.925 546.563 28.1041 546.82 28.2544L547.828 26.5268ZM547.578 26.3405C547.58 26.3432 547.603 26.3686 547.626 26.4194C547.649 26.4731 547.665 26.5391 547.665 26.6094H545.665C545.665 27.063 545.863 27.4355 546.119 27.7084L547.578 26.3405ZM547.665 26.6094C547.665 26.5947 547.669 26.5263 547.706 26.3857L545.771 25.8809C545.71 26.1147 545.665 26.3636 545.665 26.6094H547.665ZM547.706 26.3857C547.736 26.2718 547.777 26.1637 547.832 26.0602L546.06 25.1322C545.935 25.3705 545.839 25.6205 545.771 25.8809L547.706 26.3857ZM547.824 26.075C547.884 25.9651 547.939 25.8952 547.982 25.8516L546.568 24.4374C546.368 24.638 546.203 24.8692 546.068 25.1173L547.824 26.075ZM547.982 25.8516C547.982 25.852 547.957 25.8774 547.903 25.9029C547.845 25.9302 547.771 25.9492 547.69 25.9492V23.9492C547.215 23.9492 546.835 24.1705 546.568 24.4374L547.982 25.8516ZM547.69 25.9492C547.813 25.9492 547.916 25.9639 548.001 25.9872L548.527 24.0577C548.255 23.9834 547.974 23.9492 547.69 23.9492V25.9492ZM548.001 25.9872C548.172 26.0338 548.364 26.0887 548.578 26.1522L549.146 24.2346C548.921 24.1678 548.715 24.1088 548.527 24.0577L548.001 25.9872ZM548.62 26.1635C548.869 26.2257 549.147 26.2864 549.453 26.3459L549.834 24.3826C549.554 24.3282 549.312 24.2749 549.105 24.2232L548.62 26.1635ZM549.483 26.3514C549.855 26.4116 550.283 26.4375 550.754 26.4375V24.4375C550.347 24.4375 550.034 24.4146 549.804 24.3772L549.483 26.3514ZM550.754 26.4375C551.262 26.4375 551.78 26.3858 552.308 26.2857L551.935 24.3207C551.519 24.3997 551.126 24.4375 550.754 24.4375V26.4375ZM552.321 26.2832C552.841 26.1775 553.352 26.0409 553.854 25.8735L553.221 23.9761C552.796 24.1179 552.363 24.2337 551.922 24.3233L552.321 26.2832ZM553.869 25.8684C554.366 25.694 554.844 25.4969 555.301 25.2767L554.435 23.4742C554.046 23.661 553.637 23.8301 553.207 23.9812L553.869 25.8684ZM555.301 25.2767C555.756 25.0582 556.175 24.8269 556.556 24.5819L555.475 22.8995C555.172 23.094 554.827 23.2859 554.435 23.4742L555.301 25.2767ZM556.57 24.5728C556.727 24.4682 556.895 24.352 557.073 24.2249L555.91 22.5974C555.747 22.7144 555.597 22.818 555.461 22.9087L556.57 24.5728ZM557.08 24.2199C557.298 24.061 557.501 23.889 557.687 23.7032L556.273 22.289C556.166 22.3961 556.043 22.5008 555.904 22.6024L557.08 24.2199ZM557.687 23.7032C557.891 23.4993 558.07 23.2771 558.216 23.0345L556.501 22.0055C556.451 22.0885 556.378 22.1836 556.273 22.289L557.687 23.7032ZM558.197 23.065C558.393 22.7627 558.517 22.4093 558.517 22.0195H556.517C556.517 22.0104 556.518 22.0012 556.519 21.9922C556.521 21.9833 556.522 21.9759 556.524 21.9706C556.528 21.9595 556.529 21.9609 556.52 21.975L558.197 23.065ZM558.517 22.0195C558.517 21.2748 557.963 20.8274 557.599 20.6047L556.556 22.3113C556.642 22.3637 556.645 22.3816 556.62 22.349C556.605 22.3296 556.578 22.291 556.556 22.2322C556.533 22.1715 556.517 22.0988 556.517 22.0195H558.517ZM556.078 21.458V21.4702H558.078V21.458H556.078ZM557.595 20.6142C557.107 20.3196 556.611 20.0863 556.107 19.9216L555.485 21.8226C555.828 21.9345 556.186 22.1 556.561 22.3263L557.595 20.6142ZM556.107 19.9216C555.675 19.7803 555.291 19.6621 554.957 19.5678L554.414 21.4927C554.714 21.5775 555.071 21.6871 555.485 21.8226L556.107 19.9216ZM554.932 19.5612C554.089 19.3466 553.039 18.9993 551.774 18.511L551.053 20.3767C552.36 20.8812 553.491 21.2582 554.438 21.4994L554.932 19.5612ZM551.414 20.4438H551.426V18.4438H551.414V20.4438ZM551.792 18.5134C551.323 18.3286 550.864 18.0889 550.415 17.7919L549.312 19.4601C549.872 19.8304 550.454 20.1359 551.059 20.3743L551.792 18.5134ZM550.415 17.7919C549.957 17.4892 549.576 17.1807 549.264 16.8691L547.85 18.2833C548.271 18.7041 548.76 19.0954 549.312 19.4601L550.415 17.7919ZM549.3 16.9068C548.646 16.181 548.336 15.3758 548.336 14.4512H546.336C546.336 15.8865 546.84 17.1647 547.814 18.2455L549.3 16.9068ZM548.336 14.4512C548.336 14.1845 548.409 13.9072 548.587 13.606L546.867 12.5864C546.524 13.1641 546.336 13.7901 546.336 14.4512H548.336ZM548.587 13.606C548.784 13.2742 549.062 12.9453 549.439 12.6235L548.139 11.103C547.621 11.5462 547.191 12.0393 546.867 12.5864L548.587 13.606ZM549.447 12.6167C549.835 12.2777 550.293 11.9589 550.825 11.6632L549.854 9.91491C549.214 10.2703 548.638 10.6676 548.132 11.1099L549.447 12.6167ZM550.82 11.666C551.362 11.3692 551.939 11.1154 552.555 10.9053L551.908 9.01263C551.189 9.2583 550.505 9.55786 549.859 9.91209L550.82 11.666ZM552.565 10.9018C553.184 10.6828 553.814 10.5131 554.455 10.3924L554.085 8.42693C553.343 8.56668 552.613 8.76319 551.898 9.01621L552.565 10.9018ZM554.453 10.3928C555.098 10.2728 555.712 10.2144 556.296 10.2144V8.21436C555.579 8.21436 554.842 8.28614 554.087 8.42654L554.453 10.3928ZM556.296 10.2144C556.451 10.2144 556.665 10.227 556.946 10.2574L557.161 8.26898C556.839 8.23423 556.548 8.21436 556.296 8.21436V10.2144ZM556.975 10.2601C557.25 10.2818 557.53 10.3182 557.816 10.3695L558.17 8.40098C557.821 8.33842 557.475 8.29339 557.132 8.26629L556.975 10.2601ZM557.845 10.3742C558.133 10.4175 558.403 10.4744 558.653 10.5441L559.189 8.61705C558.853 8.52393 558.504 8.45069 558.142 8.39632L557.845 10.3742ZM558.678 10.5507C558.924 10.6122 559.06 10.6703 559.121 10.7052L560.113 8.96867C559.832 8.80824 559.503 8.69538 559.163 8.61042L558.678 10.5507ZM559.617 8.83691H559.604V10.8369H559.617V8.83691ZM559.133 10.7188C559.506 10.9181 559.757 11.1335 559.922 11.3491L561.509 10.1314C561.137 9.64714 560.647 9.26033 560.076 8.95498L559.133 10.7188ZM559.931 11.3605C560.115 11.5932 560.13 11.7227 560.13 11.7656H562.13C562.13 11.1413 561.869 10.5871 561.5 10.12L559.931 11.3605ZM576.763 25.5107L575.978 24.8911L575.973 24.8968L576.763 25.5107ZM576.311 25.9014L576.803 26.7719L576.817 26.764L576.831 26.7556L576.311 25.9014ZM575.688 26.1455L575.446 25.1753L575.438 25.1775L575.688 26.1455ZM573.528 25.999L573.242 26.9572L573.25 26.9598L573.259 26.9621L573.528 25.999ZM571.843 25.3887L571.449 26.3078L571.454 26.3098L571.843 25.3887ZM570.122 24.5952L569.665 25.4845L569.672 25.4884L569.68 25.4922L570.122 24.5952ZM568.523 23.7529L568.999 22.8734L568.985 22.8657L568.97 22.8585L568.523 23.7529ZM568.022 23.4966L567.53 24.3671L567.545 24.3754L567.56 24.3832L568.022 23.4966ZM567.461 23.1914L566.982 24.0693L566.99 24.0737L566.998 24.078L567.461 23.1914ZM566.973 22.9351L566.487 23.8092L566.506 23.8198L566.525 23.8295L566.973 22.9351ZM566.655 22.7764L567.006 21.84L566.5 21.6501L566.064 21.97L566.655 22.7764ZM566.216 23.1304L566.845 23.9076L566.856 23.8988L566.867 23.8896L566.216 23.1304ZM565.312 24.0215L564.544 23.3813L564.533 23.3942L564.523 23.4075L565.312 24.0215ZM565.105 24.3877L564.135 24.1452L564.105 24.2646V24.3877H565.105ZM565.068 25.0469L564.075 24.9277L564.073 24.9474L564.072 24.9671L565.068 25.0469ZM565.02 25.5596L566.01 25.6947L566.012 25.6856L566.013 25.6764L565.02 25.5596ZM564.641 27.0488L563.83 26.4633L563.812 26.4885L563.796 26.5148L564.641 27.0488ZM564.214 27.3784L563.885 26.4338L563.872 26.4386L564.214 27.3784ZM562.896 27.4028L563.212 26.4541L563.195 26.4485L563.178 26.4435L562.896 27.4028ZM562.419 25.4985L561.426 25.3803L561.425 25.3909L561.424 25.4014L562.419 25.4985ZM562.554 24.3755L561.563 24.2368L561.562 24.2466L561.561 24.2563L562.554 24.3755ZM562.725 23.1304L561.736 22.9811L561.735 22.989L561.734 22.997L562.725 23.1304ZM562.896 21.9463L561.905 21.8091L561.905 21.8112L562.896 21.9463ZM563.127 20.3105L564.117 20.454L564.117 20.452L563.127 20.3105ZM563.591 16.856L564.585 16.9679L564.585 16.9664L563.591 16.856ZM563.762 15.147L564.758 15.2349L564.759 15.2237L563.762 15.147ZM563.823 14.3657L562.826 14.287L563.823 14.3657ZM563.896 13.3892L562.901 13.2965L562.9 13.3072L562.899 13.3179L563.896 13.3892ZM564.092 11.2651L563.097 11.168L564.092 11.2651ZM564.189 10.3618L563.201 10.212L563.199 10.2267L563.197 10.2415L564.189 10.3618ZM564.299 9.71484L565.28 9.91096L565.29 9.86069L565.295 9.80965L564.299 9.71484ZM564.849 8.78711L565.468 9.57199L565.481 9.5622L565.493 9.55202L564.849 8.78711ZM565.361 8.48193L565.726 9.41318L565.743 9.40641L565.76 9.399L565.361 8.48193ZM566.46 8.49414L565.978 9.37036L566.004 9.38444L566.03 9.397L566.46 8.49414ZM566.899 8.81152L566.17 9.49546L566.181 9.50723L566.192 9.51863L566.899 8.81152ZM567.119 11.6313L566.128 11.495L566.127 11.504L567.119 11.6313ZM566.631 14.6343L565.648 14.4478L565.647 14.4566L566.631 14.6343ZM566.338 16.3311L567.324 16.4955L567.325 16.4931L566.338 16.3311ZM566.069 17.9302L565.083 17.7633L565.082 17.7707L565.081 17.7781L566.069 17.9302ZM565.825 19.5415L564.836 19.3939L565.825 19.5415ZM565.557 21.2505L564.57 21.0883L564.042 24.3008L566.282 21.9386L565.557 21.2505ZM569.341 16.9658L570.086 17.6326L570.088 17.6302L569.341 16.9658ZM570.476 15.7329L571.198 16.4245L571.206 16.4169L570.476 15.7329ZM571.514 14.7197L570.864 13.9591L570.855 13.9671L571.514 14.7197ZM572.441 14.0483L572.938 14.9166L572.945 14.9121L572.441 14.0483ZM573.76 13.9019L573.292 14.7856L573.313 14.7967L573.334 14.8067L573.76 13.9019ZM574.285 14.5L573.318 14.7577L573.326 14.7872L573.336 14.8162L574.285 14.5ZM574.016 15.4399L573.216 14.8399L573.213 14.8436L574.016 15.4399ZM573.186 16.4409L572.44 15.7745L572.432 15.7835L573.186 16.4409ZM572.051 17.6738L572.765 18.3742L572.771 18.3675L572.051 17.6738ZM570.781 18.9434L571.481 19.6574L571.481 19.6573L570.781 18.9434ZM569.609 20.0786L568.918 19.3556L568.91 19.3634L569.609 20.0786ZM568.73 20.9209L568.05 20.1881L567.036 21.13L568.249 21.7971L568.73 20.9209ZM571.221 22.2393L570.761 23.1275L570.77 23.1322L570.78 23.1367L571.221 22.2393ZM572.661 22.9473L572.22 23.8448L572.232 23.8507L572.661 22.9473ZM574.004 23.5698L573.593 24.4814L573.599 24.4844L574.004 23.5698ZM575.127 24.0337L574.776 24.97L574.79 24.9752L574.804 24.98L575.127 24.0337ZM575.872 24.229L575.772 25.2241L575.778 25.2246L575.872 24.229ZM576.726 24.4731L576.064 25.223L576.075 25.2323L576.086 25.2414L576.726 24.4731ZM575.946 24.998C575.946 24.9807 575.949 24.9561 575.958 24.9303C575.963 24.9183 575.967 24.9086 575.971 24.9015C575.975 24.8944 575.978 24.891 575.978 24.8911L577.548 26.1304C577.801 25.8092 577.946 25.4225 577.946 24.998H575.946ZM575.973 24.8968C575.946 24.9319 575.893 24.9852 575.791 25.0472L576.831 26.7556C577.103 26.5897 577.351 26.3825 577.552 26.1247L575.973 24.8968ZM575.819 25.0308C575.717 25.0885 575.595 25.1382 575.446 25.1754L575.931 27.1157C576.238 27.0389 576.531 26.9259 576.803 26.7719L575.819 25.0308ZM575.438 25.1775C575.297 25.2139 575.162 25.231 575.029 25.231V27.231C575.336 27.231 575.64 27.191 575.939 27.1135L575.438 25.1775ZM575.029 25.231C574.694 25.231 574.286 25.1726 573.797 25.0359L573.259 26.9621C573.876 27.1347 574.469 27.231 575.029 27.231V25.231ZM573.814 25.0408C573.307 24.8895 572.78 24.6989 572.232 24.4675L571.454 26.3098C572.062 26.5668 572.658 26.783 573.242 26.9572L573.814 25.0408ZM572.237 24.4695C571.684 24.2326 571.127 23.9756 570.564 23.6983L569.68 25.4922C570.273 25.7845 570.863 26.0564 571.449 26.3078L572.237 24.4695ZM570.579 23.7059C570.015 23.4157 569.488 23.1382 568.999 22.8734L568.047 24.6325C568.55 24.9047 569.09 25.1888 569.665 25.4845L570.579 23.7059ZM568.97 22.8585C568.83 22.7884 568.668 22.7057 568.485 22.61L567.56 24.3832C567.751 24.4828 567.923 24.5709 568.076 24.6474L568.97 22.8585ZM568.515 22.626C568.318 22.5148 568.121 22.4077 567.924 22.3048L566.998 24.078C567.175 24.1704 567.353 24.2668 567.53 24.3671L568.515 22.626ZM567.94 22.3135C567.753 22.2115 567.579 22.1203 567.42 22.0406L566.525 23.8295C566.659 23.8963 566.811 23.976 566.982 24.0693L567.94 22.3135ZM567.458 22.0609C567.312 21.9796 567.148 21.8933 567.006 21.84L566.304 23.7127C566.289 23.7071 566.296 23.7088 566.336 23.7288C566.372 23.7467 566.422 23.7729 566.487 23.8092L567.458 22.0609ZM566.064 21.97C565.914 22.0797 565.747 22.2153 565.565 22.3711L566.867 23.8896C567.027 23.7525 567.152 23.652 567.247 23.5828L566.064 21.97ZM565.587 22.3531C565.389 22.5134 565.2 22.6832 565.02 22.8627L566.435 24.2769C566.564 24.1472 566.701 24.0241 566.845 23.9076L565.587 22.3531ZM565.02 22.8627C564.847 23.0357 564.688 23.2085 564.544 23.3813L566.081 24.6617C566.181 24.5415 566.298 24.4132 566.435 24.2769L565.02 22.8627ZM564.523 23.4075C564.384 23.5867 564.211 23.8421 564.135 24.1452L566.075 24.6302C566.066 24.6652 566.057 24.6895 566.052 24.7017C566.046 24.7143 566.043 24.7192 566.045 24.7159C566.047 24.7128 566.052 24.7043 566.062 24.6901C566.071 24.676 566.084 24.6578 566.102 24.6354L564.523 23.4075ZM564.105 24.3877C564.105 24.5897 564.095 24.7692 564.075 24.9277L566.061 25.166C566.091 24.9176 566.105 24.6577 566.105 24.3877H564.105ZM564.072 24.9671C564.056 25.1633 564.041 25.3209 564.026 25.4427L566.013 25.6764C566.031 25.5215 566.048 25.3373 566.065 25.1266L564.072 24.9671ZM564.029 25.4245C563.982 25.7703 563.936 26.0496 563.892 26.2668L565.854 26.659C565.908 26.3879 565.96 26.065 566.01 25.6947L564.029 25.4245ZM563.892 26.2668C563.862 26.4203 563.827 26.4681 563.83 26.4633L565.452 27.6343C565.667 27.3366 565.787 26.9937 565.854 26.659L563.892 26.2668ZM563.796 26.5148C563.808 26.4948 563.827 26.4732 563.85 26.4554C563.873 26.4382 563.888 26.4332 563.885 26.4339L564.542 28.3229C564.924 28.1901 565.258 27.9453 565.487 27.5828L563.796 26.5148ZM563.872 26.4386C563.85 26.4468 563.737 26.4761 563.481 26.4761V28.4761C563.844 28.4761 564.22 28.4402 564.556 28.3182L563.872 26.4386ZM563.481 26.4761C563.391 26.4761 563.324 26.4715 563.276 26.4655C563.227 26.4593 563.208 26.453 563.212 26.4541L562.579 28.3515C562.869 28.4482 563.185 28.4761 563.481 28.4761V26.4761ZM563.178 26.4435C563.187 26.4463 563.211 26.4546 563.242 26.4742C563.274 26.4943 563.306 26.5216 563.334 26.5551L561.798 27.8355C562.022 28.1052 562.311 28.2734 562.613 28.3622L563.178 26.4435ZM563.334 26.5551C563.392 26.6249 563.398 26.6784 563.395 26.6609L561.419 26.9729C561.466 27.2647 561.577 27.5704 561.798 27.8355L563.334 26.5551ZM563.395 26.6609C563.381 26.5722 563.371 26.4438 563.371 26.2676H561.371C561.371 26.5145 561.385 26.7523 561.419 26.9729L563.395 26.6609ZM563.371 26.2676C563.371 26.1377 563.383 25.9196 563.415 25.5956L561.424 25.4014C561.391 25.7447 561.371 26.0394 561.371 26.2676H563.371ZM563.412 25.6167C563.453 25.2753 563.498 24.9013 563.547 24.4946L561.561 24.2563C561.512 24.6635 561.467 25.0382 561.426 25.3803L563.412 25.6167ZM563.544 24.5141C563.601 24.1054 563.658 23.6886 563.716 23.2638L561.734 22.997C561.677 23.4185 561.62 23.8318 561.563 24.2368L563.544 24.5141ZM563.713 23.2796C563.779 22.8445 563.837 22.445 563.886 22.0814L561.905 21.8112C561.857 22.1637 561.8 22.5536 561.736 22.9811L563.713 23.2796ZM563.886 22.0834C563.959 21.5567 564.036 21.0135 564.117 20.454L562.138 20.1671C562.056 20.7306 561.979 21.2779 561.905 21.8091L563.886 22.0834ZM564.117 20.452C564.199 19.8816 564.28 19.3073 564.362 18.7288L562.381 18.4499C562.3 19.027 562.219 19.6001 562.137 20.1691L564.117 20.452ZM564.362 18.7288C564.444 18.1419 564.519 17.5549 564.585 16.9679L562.598 16.744C562.534 17.3126 562.461 17.8812 562.381 18.4499L564.362 18.7288ZM564.585 16.9664C564.651 16.3734 564.709 15.7962 564.758 15.2349L562.766 15.0591C562.718 15.6045 562.662 16.1666 562.597 16.7455L564.585 16.9664ZM564.759 15.2237C564.775 15.013 564.796 14.7533 564.82 14.4444L562.826 14.287C562.802 14.5967 562.781 14.8578 562.765 15.0703L564.759 15.2237ZM564.82 14.4444C564.845 14.1325 564.869 13.8044 564.894 13.4604L562.899 13.3179C562.875 13.6575 562.851 13.9805 562.826 14.287L564.82 14.4444ZM564.892 13.4818C564.925 13.1304 564.958 12.771 564.99 12.4035L562.998 12.2264C562.966 12.5913 562.933 12.948 562.901 13.2965L564.892 13.4818ZM564.99 12.4035C565.023 12.0399 565.055 11.6928 565.087 11.3622L563.097 11.168C563.064 11.5048 563.031 11.8576 562.998 12.2264L564.99 12.4035ZM565.087 11.3622C565.119 11.0346 565.151 10.7414 565.182 10.4821L563.197 10.2415C563.163 10.5193 563.13 10.8284 563.097 11.168L565.087 11.3622ZM565.178 10.5116C565.218 10.2502 565.252 10.0518 565.28 9.91096L563.319 9.51873C563.282 9.70339 563.243 9.93635 563.201 10.212L565.178 10.5116ZM565.295 9.80965C565.296 9.80227 565.299 9.77741 565.328 9.72885L563.613 8.69986C563.447 8.97682 563.336 9.28562 563.304 9.62003L565.295 9.80965ZM565.328 9.72885C565.361 9.67379 565.405 9.62195 565.468 9.57199L564.229 8.00223C563.983 8.19641 563.775 8.4294 563.613 8.69986L565.328 9.72885ZM565.493 9.55202C565.564 9.49175 565.641 9.44639 565.726 9.41318L564.997 7.55069C564.707 7.66396 564.442 7.82205 564.204 8.0222L565.493 9.55202ZM565.76 9.399C565.833 9.36733 565.885 9.35986 565.923 9.35986V7.35986C565.586 7.35986 565.264 7.43377 564.963 7.56486L565.76 9.399ZM565.923 9.35986C565.959 9.35986 565.971 9.36626 565.978 9.37036L566.942 7.61792C566.624 7.44298 566.278 7.35986 565.923 7.35986V9.35986ZM566.03 9.397C566.095 9.42802 566.138 9.46169 566.17 9.49546L567.629 8.12758C567.416 7.90094 567.167 7.72302 566.89 7.59128L566.03 9.397ZM566.192 9.51863C566.251 9.57739 566.287 9.62834 566.309 9.67004L568.076 8.73426C567.952 8.49927 567.792 8.28979 567.607 8.10442L566.192 9.51863ZM566.309 9.67004C566.321 9.69409 566.321 9.69845 566.317 9.68481C566.313 9.67102 566.302 9.63029 566.302 9.56836H568.302C568.302 9.2399 568.192 8.95286 568.076 8.73426L566.309 9.67004ZM566.302 9.56836C566.302 9.98807 566.249 10.6226 566.128 11.495L568.11 11.7677C568.234 10.8661 568.302 10.1252 568.302 9.56836H566.302ZM566.127 11.504C566.016 12.3668 565.857 13.3476 565.648 14.4478L567.613 14.8207C567.828 13.6912 567.994 12.67 568.111 11.7587L566.127 11.504ZM565.647 14.4566C565.54 15.0474 565.442 15.6182 565.351 16.169L567.325 16.4931C567.413 15.9534 567.51 15.3931 567.615 14.812L565.647 14.4566ZM565.351 16.1667C565.262 16.703 565.173 17.2352 565.083 17.7633L567.055 18.097C567.145 17.5672 567.235 17.0334 567.324 16.4955L565.351 16.1667ZM565.081 17.7781C564.999 18.3086 564.918 18.8472 564.836 19.3939L566.814 19.6891C566.895 19.1453 566.977 18.6097 567.058 18.0822L565.081 17.7781ZM564.836 19.3939C564.756 19.9338 564.667 20.4986 564.57 21.0883L566.543 21.4127C566.642 20.8142 566.732 20.2397 566.814 19.6891L564.836 19.3939ZM566.282 21.9386C567.042 21.1371 567.735 20.3656 568.36 19.6244L566.831 18.3356C566.234 19.0429 565.568 19.7851 564.831 20.5623L566.282 21.9386ZM568.36 19.6244C568.965 18.9066 569.54 18.2428 570.086 17.6326L568.596 16.299C568.035 16.9258 567.446 17.6048 566.831 18.3356L568.36 19.6244ZM570.088 17.6302C570.472 17.199 570.842 16.7971 571.198 16.4245L569.754 15.0413C569.378 15.4336 568.991 15.8538 568.593 16.3015L570.088 17.6302ZM571.206 16.4169C571.554 16.0449 571.876 15.7311 572.172 15.4723L570.855 13.9671C570.5 14.2781 570.13 14.6397 569.747 15.049L571.206 16.4169ZM572.163 15.4803C572.464 15.2234 572.722 15.04 572.938 14.9166L571.945 13.1801C571.592 13.3822 571.231 13.6464 570.864 13.9592L572.163 15.4803ZM572.945 14.9121C573.148 14.7937 573.237 14.792 573.235 14.792V12.792C572.761 12.792 572.32 12.9612 571.938 13.1846L572.945 14.9121ZM573.235 14.792C573.284 14.792 573.311 14.7963 573.32 14.7982C573.328 14.8 573.316 14.7986 573.292 14.7856L574.228 13.0181C573.903 12.8464 573.555 12.792 573.235 12.792V14.792ZM573.334 14.8067C573.346 14.8124 573.35 14.8157 573.349 14.8148C573.348 14.8137 573.343 14.8101 573.338 14.8041L574.865 13.5123C574.674 13.2861 574.44 13.1169 574.186 12.997L573.334 14.8067ZM573.338 14.8041C573.341 14.8073 573.338 14.8044 573.333 14.7952C573.328 14.7858 573.322 14.7729 573.318 14.7577L575.251 14.2423C575.177 13.9641 575.041 13.7198 574.865 13.5123L573.338 14.8041ZM573.336 14.8162C573.344 14.8398 573.347 14.8528 573.347 14.856C573.348 14.8593 573.346 14.8498 573.346 14.8296H575.346C575.346 14.5965 575.298 14.3774 575.233 14.1838L573.336 14.8162ZM573.346 14.8296C573.346 14.7649 573.353 14.7133 573.36 14.679C573.367 14.6442 573.375 14.6189 573.38 14.6047C573.389 14.5784 573.394 14.5728 573.383 14.5925C573.374 14.6103 573.356 14.6403 573.327 14.6839C573.299 14.7269 573.262 14.7787 573.216 14.8399L574.816 16.0399C574.941 15.8739 575.055 15.7056 575.143 15.5428C575.212 15.4162 575.346 15.1502 575.346 14.8296H573.346ZM573.213 14.8436C573.026 15.0962 572.77 15.4056 572.44 15.7746L573.932 17.1072C574.286 16.7112 574.583 16.3533 574.819 16.0363L573.213 14.8436ZM572.432 15.7835C572.111 16.1515 571.744 16.5503 571.33 16.9802L572.771 18.3675C573.203 17.9185 573.593 17.4953 573.94 17.0983L572.432 15.7835ZM571.337 16.9735C570.918 17.4003 570.5 17.819 570.081 18.2294L571.481 19.6573C571.909 19.2377 572.337 18.81 572.765 18.3742L571.337 16.9735ZM570.081 18.2293C569.669 18.6336 569.281 19.009 568.919 19.3556L570.3 20.8016C570.67 20.4483 571.064 20.0669 571.481 19.6574L570.081 18.2293ZM568.91 19.3634C568.555 19.7105 568.269 19.9847 568.05 20.1881L569.411 21.6537C569.648 21.4339 569.947 21.1466 570.308 20.7938L568.91 19.3634ZM568.249 21.7971C568.58 21.9795 568.964 22.1857 569.399 22.4154L570.333 20.6471C569.905 20.4211 569.532 20.2203 569.212 20.0447L568.249 21.7971ZM569.399 22.4154C569.833 22.6448 570.287 22.8821 570.761 23.1275L571.68 21.351C571.21 21.1081 570.761 20.8735 570.333 20.6471L569.399 22.4154ZM570.78 23.1367C570.781 23.1372 570.781 23.1376 570.782 23.1381C570.783 23.1386 570.784 23.139 570.785 23.1395C570.786 23.1399 570.787 23.1404 570.788 23.1409C570.789 23.1413 570.79 23.1418 570.791 23.1422C570.792 23.1427 570.793 23.1432 570.794 23.1436C570.795 23.1441 570.796 23.1445 570.796 23.145C570.797 23.1455 570.798 23.1459 570.799 23.1464C570.8 23.1468 570.801 23.1473 570.802 23.1478C570.803 23.1482 570.804 23.1487 570.805 23.1492C570.806 23.1496 570.807 23.1501 570.808 23.1505C570.809 23.151 570.81 23.1515 570.811 23.1519C570.811 23.1524 570.812 23.1528 570.813 23.1533C570.814 23.1538 570.815 23.1542 570.816 23.1547C570.817 23.1551 570.818 23.1556 570.819 23.1561C570.82 23.1565 570.821 23.157 570.822 23.1574C570.823 23.1579 570.824 23.1584 570.825 23.1588C570.826 23.1593 570.826 23.1598 570.827 23.1602C570.828 23.1607 570.829 23.1611 570.83 23.1616C570.831 23.1621 570.832 23.1625 570.833 23.163C570.834 23.1634 570.835 23.1639 570.836 23.1644C570.837 23.1648 570.838 23.1653 570.839 23.1657C570.84 23.1662 570.841 23.1667 570.841 23.1671C570.842 23.1676 570.843 23.1681 570.844 23.1685C570.845 23.169 570.846 23.1694 570.847 23.1699C570.848 23.1704 570.849 23.1708 570.85 23.1713C570.851 23.1717 570.852 23.1722 570.853 23.1727C570.854 23.1731 570.855 23.1736 570.856 23.174C570.856 23.1745 570.857 23.175 570.858 23.1754C570.859 23.1759 570.86 23.1763 570.861 23.1768C570.862 23.1773 570.863 23.1777 570.864 23.1782C570.865 23.1787 570.866 23.1791 570.867 23.1796C570.868 23.18 570.869 23.1805 570.87 23.181C570.871 23.1814 570.871 23.1819 570.872 23.1823C570.873 23.1828 570.874 23.1833 570.875 23.1837C570.876 23.1842 570.877 23.1846 570.878 23.1851C570.879 23.1856 570.88 23.186 570.881 23.1865C570.882 23.1869 570.883 23.1874 570.884 23.1879C570.885 23.1883 570.886 23.1888 570.886 23.1893C570.887 23.1897 570.888 23.1902 570.889 23.1906C570.89 23.1911 570.891 23.1916 570.892 23.192C570.893 23.1925 570.894 23.1929 570.895 23.1934C570.896 23.1939 570.897 23.1943 570.898 23.1948C570.899 23.1952 570.9 23.1957 570.901 23.1962C570.901 23.1966 570.902 23.1971 570.903 23.1976C570.904 23.198 570.905 23.1985 570.906 23.1989C570.907 23.1994 570.908 23.1999 570.909 23.2003C570.91 23.2008 570.911 23.2012 570.912 23.2017C570.913 23.2022 570.914 23.2026 570.915 23.2031C570.916 23.2035 570.917 23.204 570.917 23.2045C570.918 23.2049 570.919 23.2054 570.92 23.2058C570.921 23.2063 570.922 23.2068 570.923 23.2072C570.924 23.2077 570.925 23.2082 570.926 23.2086C570.927 23.2091 570.928 23.2095 570.929 23.21C570.93 23.2105 570.931 23.2109 570.932 23.2114C570.932 23.2118 570.933 23.2123 570.934 23.2128C570.935 23.2132 570.936 23.2137 570.937 23.2141C570.938 23.2146 570.939 23.2151 570.94 23.2155C570.941 23.216 570.942 23.2164 570.943 23.2169C570.944 23.2174 570.945 23.2178 570.946 23.2183C570.947 23.2188 570.947 23.2192 570.948 23.2197C570.949 23.2201 570.95 23.2206 570.951 23.2211C570.952 23.2215 570.953 23.222 570.954 23.2224C570.955 23.2229 570.956 23.2234 570.957 23.2238C570.958 23.2243 570.959 23.2247 570.96 23.2252C570.961 23.2257 570.962 23.2261 570.962 23.2266C570.963 23.2271 570.964 23.2275 570.965 23.228C570.966 23.2284 570.967 23.2289 570.968 23.2294C570.969 23.2298 570.97 23.2303 570.971 23.2307C570.972 23.2312 570.973 23.2317 570.974 23.2321C570.975 23.2326 570.976 23.233 570.977 23.2335C570.977 23.234 570.978 23.2344 570.979 23.2349C570.98 23.2353 570.981 23.2358 570.982 23.2363C570.983 23.2367 570.984 23.2372 570.985 23.2377C570.986 23.2381 570.987 23.2386 570.988 23.239C570.989 23.2395 570.99 23.24 570.991 23.2404C570.992 23.2409 570.992 23.2413 570.993 23.2418C570.994 23.2423 570.995 23.2427 570.996 23.2432C570.997 23.2436 570.998 23.2441 570.999 23.2446C571 23.245 571.001 23.2455 571.002 23.2459C571.003 23.2464 571.004 23.2469 571.005 23.2473C571.006 23.2478 571.007 23.2483 571.007 23.2487C571.008 23.2492 571.009 23.2496 571.01 23.2501C571.011 23.2506 571.012 23.251 571.013 23.2515C571.014 23.2519 571.015 23.2524 571.016 23.2529C571.017 23.2533 571.018 23.2538 571.019 23.2542C571.02 23.2547 571.021 23.2552 571.022 23.2556C571.022 23.2561 571.023 23.2566 571.024 23.257C571.025 23.2575 571.026 23.2579 571.027 23.2584C571.028 23.2589 571.029 23.2593 571.03 23.2598C571.031 23.2602 571.032 23.2607 571.033 23.2612C571.034 23.2616 571.035 23.2621 571.036 23.2625C571.037 23.263 571.037 23.2635 571.038 23.2639C571.039 23.2644 571.04 23.2648 571.041 23.2653C571.042 23.2658 571.043 23.2662 571.044 23.2667C571.045 23.2672 571.046 23.2676 571.047 23.2681C571.048 23.2685 571.049 23.269 571.05 23.2695C571.051 23.2699 571.052 23.2704 571.052 23.2708C571.053 23.2713 571.054 23.2718 571.055 23.2722C571.056 23.2727 571.057 23.2731 571.058 23.2736C571.059 23.2741 571.06 23.2745 571.061 23.275C571.062 23.2755 571.063 23.2759 571.064 23.2764C571.065 23.2768 571.066 23.2773 571.067 23.2778C571.067 23.2782 571.068 23.2787 571.069 23.2791C571.07 23.2796 571.071 23.2801 571.072 23.2805C571.073 23.281 571.074 23.2814 571.075 23.2819C571.076 23.2824 571.077 23.2828 571.078 23.2833C571.079 23.2837 571.08 23.2842 571.081 23.2847C571.082 23.2851 571.082 23.2856 571.083 23.2861C571.084 23.2865 571.085 23.287 571.086 23.2874C571.087 23.2879 571.088 23.2884 571.089 23.2888C571.09 23.2893 571.091 23.2897 571.092 23.2902C571.093 23.2907 571.094 23.2911 571.095 23.2916C571.096 23.292 571.097 23.2925 571.097 23.293C571.098 23.2934 571.099 23.2939 571.1 23.2943C571.101 23.2948 571.102 23.2953 571.103 23.2957C571.104 23.2962 571.105 23.2967 571.106 23.2971C571.107 23.2976 571.108 23.298 571.109 23.2985C571.11 23.299 571.111 23.2994 571.112 23.2999C571.112 23.3003 571.113 23.3008 571.114 23.3013C571.115 23.3017 571.116 23.3022 571.117 23.3026C571.118 23.3031 571.119 23.3036 571.12 23.304C571.121 23.3045 571.122 23.305 571.123 23.3054C571.124 23.3059 571.125 23.3063 571.126 23.3068C571.127 23.3073 571.128 23.3077 571.128 23.3082C571.129 23.3086 571.13 23.3091 571.131 23.3096C571.132 23.31 571.133 23.3105 571.134 23.3109C571.135 23.3114 571.136 23.3119 571.137 23.3123C571.138 23.3128 571.139 23.3132 571.14 23.3137C571.141 23.3142 571.142 23.3146 571.143 23.3151C571.143 23.3156 571.144 23.316 571.145 23.3165C571.146 23.3169 571.147 23.3174 571.148 23.3179C571.149 23.3183 571.15 23.3188 571.151 23.3192C571.152 23.3197 571.153 23.3202 571.154 23.3206C571.155 23.3211 571.156 23.3215 571.157 23.322C571.158 23.3225 571.158 23.3229 571.159 23.3234C571.16 23.3238 571.161 23.3243 571.162 23.3248C571.163 23.3252 571.164 23.3257 571.165 23.3262C571.166 23.3266 571.167 23.3271 571.168 23.3275C571.169 23.328 571.17 23.3285 571.171 23.3289C571.172 23.3294 571.173 23.3298 571.173 23.3303C571.174 23.3308 571.175 23.3312 571.176 23.3317C571.177 23.3321 571.178 23.3326 571.179 23.3331C571.18 23.3335 571.181 23.334 571.182 23.3345C571.183 23.3349 571.184 23.3354 571.185 23.3358C571.186 23.3363 571.187 23.3368 571.188 23.3372C571.188 23.3377 571.189 23.3381 571.19 23.3386C571.191 23.3391 571.192 23.3395 571.193 23.34C571.194 23.3404 571.195 23.3409 571.196 23.3414C571.197 23.3418 571.198 23.3423 571.199 23.3427C571.2 23.3432 571.201 23.3437 571.202 23.3441C571.203 23.3446 571.203 23.3451 571.204 23.3455C571.205 23.346 571.206 23.3464 571.207 23.3469C571.208 23.3474 571.209 23.3478 571.21 23.3483C571.211 23.3487 571.212 23.3492 571.213 23.3497C571.214 23.3501 571.215 23.3506 571.216 23.351C571.217 23.3515 571.218 23.352 571.218 23.3524C571.219 23.3529 571.22 23.3533 571.221 23.3538C571.222 23.3543 571.223 23.3547 571.224 23.3552C571.225 23.3557 571.226 23.3561 571.227 23.3566C571.228 23.357 571.229 23.3575 571.23 23.358C571.231 23.3584 571.232 23.3589 571.233 23.3593C571.233 23.3598 571.234 23.3603 571.235 23.3607C571.236 23.3612 571.237 23.3616 571.238 23.3621C571.239 23.3626 571.24 23.363 571.241 23.3635C571.242 23.364 571.243 23.3644 571.244 23.3649C571.245 23.3653 571.246 23.3658 571.247 23.3663C571.248 23.3667 571.248 23.3672 571.249 23.3676C571.25 23.3681 571.251 23.3686 571.252 23.369C571.253 23.3695 571.254 23.3699 571.255 23.3704C571.256 23.3709 571.257 23.3713 571.258 23.3718C571.259 23.3722 571.26 23.3727 571.261 23.3732C571.262 23.3736 571.263 23.3741 571.263 23.3746C571.264 23.375 571.265 23.3755 571.266 23.3759C571.267 23.3764 571.268 23.3769 571.269 23.3773C571.27 23.3778 571.271 23.3782 571.272 23.3787C571.273 23.3792 571.274 23.3796 571.275 23.3801C571.276 23.3805 571.277 23.381 571.278 23.3815C571.278 23.3819 571.279 23.3824 571.28 23.3828C571.281 23.3833 571.282 23.3838 571.283 23.3842C571.284 23.3847 571.285 23.3852 571.286 23.3856C571.287 23.3861 571.288 23.3865 571.289 23.387C571.29 23.3875 571.291 23.3879 571.292 23.3884C571.293 23.3888 571.293 23.3893 571.294 23.3898C571.295 23.3902 571.296 23.3907 571.297 23.3911C571.298 23.3916 571.299 23.3921 571.3 23.3925C571.301 23.393 571.302 23.3935 571.303 23.3939C571.304 23.3944 571.305 23.3948 571.306 23.3953C571.307 23.3958 571.308 23.3962 571.308 23.3967C571.309 23.3971 571.31 23.3976 571.311 23.3981C571.312 23.3985 571.313 23.399 571.314 23.3994C571.315 23.3999 571.316 23.4004 571.317 23.4008C571.318 23.4013 571.319 23.4017 571.32 23.4022C571.321 23.4027 571.322 23.4031 571.323 23.4036C571.323 23.4041 571.324 23.4045 571.325 23.405C571.326 23.4054 571.327 23.4059 571.328 23.4064C571.329 23.4068 571.33 23.4073 571.331 23.4077C571.332 23.4082 571.333 23.4087 571.334 23.4091C571.335 23.4096 571.336 23.41 571.337 23.4105C571.338 23.411 571.339 23.4114 571.339 23.4119C571.34 23.4124 571.341 23.4128 571.342 23.4133C571.343 23.4137 571.344 23.4142 571.345 23.4147C571.346 23.4151 571.347 23.4156 571.348 23.416C571.349 23.4165 571.35 23.417 571.351 23.4174C571.352 23.4179 571.353 23.4183 571.354 23.4188C571.354 23.4193 571.355 23.4197 571.356 23.4202C571.357 23.4206 571.358 23.4211 571.359 23.4216C571.36 23.422 571.361 23.4225 571.362 23.423C571.363 23.4234 571.364 23.4239 571.365 23.4243C571.366 23.4248 571.367 23.4253 571.368 23.4257C571.369 23.4262 571.369 23.4266 571.37 23.4271C571.371 23.4276 571.372 23.428 571.373 23.4285C571.374 23.4289 571.375 23.4294 571.376 23.4299C571.377 23.4303 571.378 23.4308 571.379 23.4312C571.38 23.4317 571.381 23.4322 571.382 23.4326C571.383 23.4331 571.384 23.4336 571.384 23.434C571.385 23.4345 571.386 23.4349 571.387 23.4354C571.388 23.4359 571.389 23.4363 571.39 23.4368C571.391 23.4372 571.392 23.4377 571.393 23.4382C571.394 23.4386 571.395 23.4391 571.396 23.4395C571.397 23.44 571.398 23.4405 571.399 23.4409C571.399 23.4414 571.4 23.4419 571.401 23.4423C571.402 23.4428 571.403 23.4432 571.404 23.4437C571.405 23.4442 571.406 23.4446 571.407 23.4451C571.408 23.4455 571.409 23.446 571.41 23.4465C571.411 23.4469 571.412 23.4474 571.413 23.4478C571.414 23.4483 571.414 23.4488 571.415 23.4492C571.416 23.4497 571.417 23.4501 571.418 23.4506C571.419 23.4511 571.42 23.4515 571.421 23.452C571.422 23.4525 571.423 23.4529 571.424 23.4534C571.425 23.4538 571.426 23.4543 571.427 23.4548C571.428 23.4552 571.429 23.4557 571.429 23.4561C571.43 23.4566 571.431 23.4571 571.432 23.4575C571.433 23.458 571.434 23.4584 571.435 23.4589C571.436 23.4594 571.437 23.4598 571.438 23.4603C571.439 23.4607 571.44 23.4612 571.441 23.4617C571.442 23.4621 571.443 23.4626 571.444 23.4631C571.444 23.4635 571.445 23.464 571.446 23.4644C571.447 23.4649 571.448 23.4654 571.449 23.4658C571.45 23.4663 571.451 23.4667 571.452 23.4672C571.453 23.4677 571.454 23.4681 571.455 23.4686C571.456 23.469 571.457 23.4695 571.458 23.47C571.459 23.4704 571.459 23.4709 571.46 23.4714C571.461 23.4718 571.462 23.4723 571.463 23.4727C571.464 23.4732 571.465 23.4737 571.466 23.4741C571.467 23.4746 571.468 23.475 571.469 23.4755C571.47 23.476 571.471 23.4764 571.472 23.4769C571.473 23.4773 571.474 23.4778 571.474 23.4783C571.475 23.4787 571.476 23.4792 571.477 23.4796C571.478 23.4801 571.479 23.4806 571.48 23.481C571.481 23.4815 571.482 23.482 571.483 23.4824C571.484 23.4829 571.485 23.4833 571.486 23.4838C571.487 23.4843 571.488 23.4847 571.489 23.4852C571.489 23.4856 571.49 23.4861 571.491 23.4866C571.492 23.487 571.493 23.4875 571.494 23.4879C571.495 23.4884 571.496 23.4889 571.497 23.4893C571.498 23.4898 571.499 23.4902 571.5 23.4907C571.524 23.5026 571.656 23.5673 571.68 23.5792C571.704 23.5911 571.836 23.6558 571.86 23.6677C571.884 23.6796 572.016 23.7443 572.04 23.7562C572.064 23.7681 572.196 23.8328 572.22 23.8447L573.102 22.0498C572.938 21.9691 572.906 21.9536 572.742 21.8728C572.578 21.7921 572.546 21.7766 572.382 21.6958C572.378 21.6938 572.206 21.6093 572.202 21.6073C572.198 21.6053 572.026 21.5208 572.022 21.5188C572.018 21.5168 571.846 21.4323 571.842 21.4303C571.838 21.4283 571.666 21.3438 571.662 21.3418L570.78 23.1367ZM572.232 23.8507C572.717 24.0809 573.171 24.2912 573.593 24.4814L574.415 22.6582C574.007 22.4741 573.565 22.2694 573.09 22.0438L572.232 23.8507ZM573.599 24.4844C574.035 24.6769 574.428 24.8394 574.776 24.97L575.478 23.0974C575.175 22.9838 574.819 22.8371 574.408 22.6553L573.599 24.4844ZM574.804 24.98C575.147 25.0971 575.487 25.1956 575.772 25.224L575.971 23.234C575.93 23.2299 575.775 23.1982 575.45 23.0873L574.804 24.98ZM575.778 25.2246C575.957 25.2415 576.071 25.2641 576.134 25.2821C576.164 25.2907 576.171 25.295 576.162 25.2905C576.153 25.2864 576.114 25.2671 576.064 25.223L577.388 23.7233C577.159 23.5219 576.892 23.4186 576.683 23.359C576.462 23.2957 576.217 23.2572 575.966 23.2334L575.778 25.2246ZM576.086 25.2414C576.036 25.2001 575.994 25.1436 575.968 25.0821C575.945 25.0253 575.946 24.9906 575.946 24.998H577.946C577.946 24.5373 577.786 24.0544 577.366 23.7049L576.086 25.2414ZM583.508 10.1421L582.56 9.82586L582.555 9.83834L582.552 9.85093L583.508 10.1421ZM583.276 10.7402L584.178 11.173L584.181 11.1662L584.184 11.1593L583.276 10.7402ZM582.947 11.3628L583.804 11.8773L583.809 11.8699L583.813 11.8625L582.947 11.3628ZM582.202 12.3149L582.853 13.0742L582.868 13.0613L582.883 13.0477L582.202 12.3149ZM580.835 12.2173L580.404 13.1194L580.427 13.1305L580.45 13.1404L580.835 12.2173ZM580.188 11.1553L579.278 10.7415L579.262 10.7769L579.248 10.8135L580.188 11.1553ZM580.31 10.8867L579.416 10.4395L579.407 10.4561L579.4 10.4729L580.31 10.8867ZM580.432 10.5693L579.49 10.233L579.479 10.2635L579.471 10.2946L580.432 10.5693ZM580.591 9.54395L581.535 9.87249L581.54 9.86017L580.591 9.54395ZM580.872 9.04346L581.621 9.70508L581.631 9.69449L581.64 9.68364L580.872 9.04346ZM581.311 8.70166L581.741 9.60452L581.758 9.59633L581.775 9.58749L581.311 8.70166ZM582.336 8.5918L582.25 9.58804L582.272 9.58999L582.295 9.59093L582.336 8.5918ZM589.819 19.8833L588.949 19.3912L588.932 19.4217L588.916 19.4534L589.819 19.8833ZM589.404 20.5425L590.204 21.1425L590.209 21.1366L590.213 21.1307L589.404 20.5425ZM587.976 22.3003L587.221 21.6446L587.22 21.6461L587.976 22.3003ZM587.244 23.1182L586.513 22.4358L586.511 22.4374L587.244 23.1182ZM585.12 25.2178L584.455 24.4709L584.45 24.4749L585.12 25.2178ZM583.228 26.6948L582.683 25.8558L582.678 25.8593L583.228 26.6948ZM581.531 27.5615L581.202 26.6172L581.531 27.5615ZM578.723 27.5615L579.178 26.6711L579.17 26.6671L578.723 27.5615ZM577.271 25.7061L576.308 25.9784L576.31 25.9832L577.271 25.7061ZM577.209 21.6533L576.213 21.5659L576.213 21.574L576.212 21.5821L577.209 21.6533ZM577.478 19.334L576.497 19.1379L576.493 19.1609L576.489 19.1842L577.478 19.334ZM577.527 18.9189L576.532 18.8143L576.53 18.8403L576.528 18.8664L577.527 18.9189ZM577.563 18.4551L578.562 18.5076L578.562 18.505L577.563 18.4551ZM577.576 18.0034L576.577 17.9479L576.576 17.9757V18.0034H577.576ZM577.71 17.1489L576.779 16.7833L576.776 16.7924L576.772 16.8016L577.71 17.1489ZM578.076 16.4653L577.253 15.8976L577.249 15.9038L578.076 16.4653ZM578.662 15.855L579.262 16.655L579.271 16.6482L579.28 16.6413L578.662 15.855ZM580.518 15.8672L579.934 16.6792L579.94 16.6834L579.946 16.6876L580.518 15.8672ZM580.835 17.3931L579.863 17.1584L579.86 17.1709L579.857 17.1835L580.835 17.3931ZM580.64 18.2231L581.61 18.4657L580.64 18.2231ZM580.371 19.3096L579.4 19.0717L579.398 19.0789L579.396 19.0862L580.371 19.3096ZM579.907 21.8608L578.915 21.7346L578.914 21.7425L578.913 21.7504L579.907 21.8608ZM580.017 24.5708L579.064 24.874L579.068 24.887L580.017 24.5708ZM580.212 24.9736L579.412 25.5736L579.428 25.5941L579.444 25.6138L580.212 24.9736ZM581.458 24.9614L581.753 25.9167L581.764 25.9135L581.774 25.9101L581.458 24.9614ZM582.593 24.3633L582.034 23.5337L582.027 23.5388L582.593 24.3633ZM584.033 23.1914L584.712 23.9258L584.718 23.9203L584.033 23.1914ZM585.913 21.2627L585.184 20.578L585.176 20.587L585.913 21.2627ZM586.597 20.5181L585.864 19.8376L585.857 19.8448L585.851 19.8521L586.597 20.5181ZM587.219 19.8345L586.486 19.154L586.48 19.1612L586.473 19.1685L587.219 19.8345ZM587.866 19.1143L587.124 18.444L587.118 18.4507L587.112 18.4575L587.866 19.1143ZM588.623 18.2476L589.385 18.8952L589.41 18.8664L589.432 18.8357L588.623 18.2476ZM588.904 18.0522L589.22 19.0009L589.248 18.9916L589.275 18.9807L588.904 18.0522ZM589.563 18.0278L589.247 18.9765L589.283 18.9887L589.32 18.998L589.563 18.0278ZM589.819 18.1621L589.155 18.9095L589.174 18.9268L589.195 18.943L589.819 18.1621ZM590.015 18.4429L589.086 18.8143L589.091 18.8256L589.096 18.8368L590.015 18.4429ZM590.027 19.3584L589.054 19.1268L589.05 19.1445L589.046 19.1623L590.027 19.3584ZM582.606 9.6416C582.606 9.63389 582.607 9.64495 582.6 9.67897C582.594 9.71245 582.581 9.76083 582.56 9.82586L584.457 10.4583C584.541 10.2058 584.606 9.9262 584.606 9.6416H582.606ZM582.552 9.85093C582.51 9.98709 582.45 10.1435 582.368 10.3212L584.184 11.1593C584.298 10.9138 584.392 10.6714 584.465 10.4333L582.552 9.85093ZM582.375 10.3075C582.289 10.4864 582.191 10.6716 582.081 10.8631L583.813 11.8625C583.947 11.6308 584.068 11.401 584.178 11.173L582.375 10.3075ZM582.089 10.8483C581.987 11.0185 581.886 11.164 581.787 11.2874L583.349 12.5368C583.511 12.3347 583.662 12.114 583.804 11.8773L582.089 10.8483ZM581.787 11.2874C581.678 11.4238 581.59 11.5189 581.522 11.5821L582.883 13.0477C583.042 12.8993 583.198 12.726 583.349 12.5368L581.787 11.2874ZM581.551 11.5557C581.54 11.5652 581.559 11.5466 581.608 11.5233C581.658 11.4993 581.758 11.4614 581.897 11.4614V13.4614C582.341 13.4614 582.671 13.2302 582.853 13.0742L581.551 11.5557ZM581.897 11.4614C581.873 11.4614 581.79 11.4557 581.625 11.4214L581.217 13.3794C581.443 13.4264 581.677 13.4614 581.897 13.4614V11.4614ZM581.625 11.4214C581.495 11.3944 581.36 11.3527 581.22 11.2942L580.45 13.1404C580.7 13.2446 580.956 13.325 581.217 13.3794L581.625 11.4214ZM581.266 11.3152C581.152 11.2606 581.069 11.2039 581.008 11.1501L579.685 12.6497C579.901 12.84 580.143 12.9949 580.404 13.1194L581.266 11.3152ZM581.008 11.1501C581.022 11.1623 581.059 11.1988 581.091 11.2646C581.124 11.3335 581.139 11.407 581.139 11.4727H579.139C579.139 11.9624 579.364 12.366 579.685 12.6497L581.008 11.1501ZM581.139 11.4727C581.139 11.4556 581.14 11.45 581.14 11.4538C581.139 11.4578 581.136 11.4733 581.128 11.497L579.248 10.8135C579.166 11.0385 579.139 11.2653 579.139 11.4727H581.139ZM581.098 11.5691C581.105 11.5542 581.107 11.5504 581.114 11.5355C581.12 11.5206 581.122 11.5169 581.129 11.5019C581.136 11.487 581.137 11.4833 581.144 11.4684C581.151 11.4534 581.153 11.4497 581.159 11.4348C581.168 11.4149 581.211 11.3204 581.22 11.3005L579.4 10.4729C579.379 10.5193 579.36 10.5608 579.339 10.6072C579.327 10.6333 579.347 10.5895 579.335 10.6156C579.323 10.6417 579.343 10.5979 579.331 10.624C579.319 10.6501 579.339 10.6063 579.327 10.6324C579.315 10.6585 579.335 10.6147 579.323 10.6408C579.312 10.6669 579.331 10.623 579.32 10.6492C579.308 10.6753 579.328 10.6314 579.316 10.6575C579.304 10.6837 579.324 10.6398 579.312 10.6659C579.3 10.692 579.32 10.6482 579.308 10.6743C579.296 10.7004 579.316 10.6566 579.304 10.6827C579.292 10.7088 579.312 10.665 579.301 10.6911C579.289 10.7172 579.309 10.6734 579.297 10.6995C579.285 10.7256 579.305 10.6818 579.293 10.7079C579.281 10.734 579.301 10.6902 579.289 10.7163C579.277 10.7424 579.297 10.6986 579.285 10.7247C579.273 10.7508 579.293 10.707 579.281 10.7331C579.27 10.7592 579.289 10.7154 579.278 10.7415L581.098 11.5691ZM581.204 11.3339C581.283 11.1765 581.346 11.0124 581.394 10.8441L579.471 10.2946C579.454 10.3541 579.435 10.4016 579.416 10.4395L581.204 11.3339ZM581.374 10.9057C581.465 10.6493 581.493 10.3841 581.493 10.1421H579.493C579.493 10.1887 579.49 10.219 579.488 10.2357C579.486 10.2525 579.484 10.2497 579.49 10.233L581.374 10.9057ZM581.493 10.1421C581.493 10.0347 581.509 9.94706 581.535 9.87247L579.646 9.21542C579.542 9.51518 579.493 9.82626 579.493 10.1421H581.493ZM581.54 9.86017C581.567 9.7774 581.598 9.73175 581.621 9.70508L580.122 8.38184C579.901 8.63185 579.745 8.91986 579.642 9.22772L581.54 9.86017ZM581.64 9.68364C581.67 9.64727 581.701 9.62333 581.741 9.60452L580.881 7.7988C580.579 7.94275 580.317 8.14667 580.103 8.40327L581.64 9.68364ZM581.775 9.58749C581.784 9.58282 581.816 9.56738 581.897 9.56738V7.56738C581.538 7.56738 581.18 7.64147 580.847 7.81583L581.775 9.58749ZM581.897 9.56738C581.96 9.56738 582.073 9.57267 582.25 9.58804L582.423 7.59556C582.225 7.57837 582.046 7.56738 581.897 7.56738V9.56738ZM582.295 9.59093C582.391 9.59494 582.486 9.61276 582.582 9.64616L583.239 7.75716C582.96 7.66035 582.673 7.60493 582.378 7.59266L582.295 9.59093ZM582.582 9.64616C582.615 9.65762 582.641 9.67385 582.671 9.70567L584.125 8.33242C583.879 8.07127 583.58 7.87591 583.239 7.75716L582.582 9.64616ZM582.671 9.70567C582.653 9.68631 582.638 9.66586 582.627 9.64607C582.615 9.62651 582.609 9.61055 582.605 9.60077C582.599 9.5824 582.606 9.59126 582.606 9.6416H584.606C584.606 9.20477 584.491 8.7194 584.125 8.33242L582.671 9.70567ZM588.916 19.4534C588.874 19.5423 588.777 19.7043 588.596 19.9543L590.213 21.1307C590.422 20.8435 590.602 20.5661 590.722 20.3132L588.916 19.4534ZM588.604 19.9425C588.418 20.1911 588.206 20.4619 587.968 20.755L589.522 22.0146C589.773 21.7055 590 21.4147 590.204 21.1425L588.604 19.9425ZM587.968 20.755C587.732 21.0468 587.483 21.3434 587.221 21.6446L588.731 22.956C589.007 22.6387 589.27 22.3249 589.522 22.0146L587.968 20.755ZM587.22 21.6461C586.966 21.9394 586.73 22.2025 586.513 22.4358L587.975 23.8005C588.213 23.5456 588.465 23.2634 588.732 22.9544L587.22 21.6461ZM586.511 22.4374C585.779 23.225 585.094 23.9019 584.455 24.4709L585.785 25.9647C586.48 25.3455 587.211 24.6226 587.976 23.7989L586.511 22.4374ZM584.45 24.4749C583.821 25.0416 583.232 25.4997 582.683 25.8559L583.772 27.5338C584.427 27.1087 585.1 26.5821 585.789 25.9606L584.45 24.4749ZM582.678 25.8593C582.136 26.2154 581.645 26.4628 581.202 26.6172L581.86 28.5058C582.491 28.2859 583.13 27.9555 583.777 27.5304L582.678 25.8593ZM581.202 26.6172C580.755 26.7728 580.35 26.8423 579.98 26.8423V28.8423C580.604 28.8423 581.232 28.7246 581.86 28.5058L581.202 26.6172ZM579.98 26.8423C579.643 26.8423 579.384 26.7763 579.178 26.6711L578.268 28.452C578.795 28.7211 579.374 28.8423 579.98 28.8423V26.8423ZM579.17 26.6671C578.947 26.5557 578.764 26.4048 578.612 26.2072L577.027 27.4266C577.363 27.8637 577.783 28.2093 578.276 28.456L579.17 26.6671ZM578.612 26.2072C578.452 25.9986 578.322 25.7437 578.231 25.4289L576.31 25.9832C576.463 26.5148 576.699 27.0004 577.027 27.4266L578.612 26.2072ZM578.233 25.4337C578.138 25.0999 578.087 24.7286 578.087 24.3145H576.087C576.087 24.8932 576.159 25.4495 576.308 25.9784L578.233 25.4337ZM578.087 24.3145C578.087 23.9443 578.099 23.5348 578.123 23.0853L576.125 22.9802C576.1 23.4584 576.087 23.9034 576.087 24.3145H578.087ZM578.123 23.0853C578.147 22.6275 578.175 22.174 578.207 21.7246L576.212 21.5821C576.179 22.0441 576.15 22.5102 576.125 22.9802L578.123 23.0853ZM578.206 21.7407C578.246 21.286 578.289 20.8613 578.337 20.4663L576.351 20.228C576.301 20.6468 576.255 21.0929 576.213 21.5659L578.206 21.7407ZM578.337 20.4663C578.385 20.0651 578.428 19.7384 578.467 19.4838L576.489 19.1842C576.447 19.4666 576.4 19.8155 576.351 20.228L578.337 20.4663ZM578.459 19.5301C578.494 19.3509 578.515 19.1633 578.525 18.9715L576.528 18.8664C576.522 18.9839 576.51 19.0729 576.497 19.1379L578.459 19.5301ZM578.521 19.0236C578.539 18.8517 578.553 18.6797 578.562 18.5076L576.565 18.4025C576.558 18.5397 576.547 18.6769 576.532 18.8143L578.521 19.0236ZM578.562 18.505C578.571 18.3285 578.576 18.161 578.576 18.0034H576.576C576.576 18.1225 576.572 18.2562 576.565 18.4051L578.562 18.505ZM578.574 18.0589C578.583 17.9021 578.588 17.76 578.588 17.6372H576.588C576.588 17.7097 576.585 17.8118 576.577 17.9479L578.574 18.0589ZM578.588 17.6372C578.588 17.6726 578.585 17.6941 578.584 17.697C578.584 17.7008 578.584 17.6952 578.589 17.6783C578.597 17.6432 578.615 17.5841 578.648 17.4962L576.772 16.8016C576.687 17.0305 576.588 17.3386 576.588 17.6372H578.588ZM578.641 17.5146C578.7 17.3635 578.786 17.2009 578.904 17.0268L577.249 15.9038C577.058 16.1855 576.899 16.4786 576.779 16.7833L578.641 17.5146ZM578.899 17.0331C579.001 16.8854 579.121 16.7606 579.262 16.655L578.062 15.055C577.747 15.2912 577.477 15.5732 577.253 15.8976L578.899 17.0331ZM579.28 16.6413C579.335 16.5981 579.375 16.5864 579.431 16.5864V14.5864C578.918 14.5864 578.445 14.7538 578.044 15.0687L579.28 16.6413ZM579.431 16.5864C579.775 16.5864 579.904 16.6579 579.934 16.6792L581.101 15.0552C580.61 14.7022 580.015 14.5864 579.431 14.5864V16.5864ZM579.946 16.6876C579.926 16.674 579.91 16.6577 579.898 16.6424C579.887 16.6279 579.886 16.6212 579.889 16.6296C579.897 16.6509 579.92 16.7282 579.92 16.8926H581.92C581.92 16.2457 581.744 15.5032 581.089 15.0468L579.946 16.6876ZM579.92 16.8926C579.92 16.8711 579.922 16.8625 579.921 16.8717C579.92 16.8797 579.918 16.8961 579.913 16.9226C579.904 16.9766 579.888 17.0538 579.863 17.1584L581.807 17.6277C581.863 17.3951 581.92 17.1228 581.92 16.8926H579.92ZM579.857 17.1835C579.811 17.3967 579.749 17.6617 579.67 17.9806L581.61 18.4657C581.693 18.1335 581.761 17.8451 581.813 17.6026L579.857 17.1835ZM579.67 17.9806C579.588 18.308 579.498 18.6717 579.4 19.0717L581.342 19.5474C581.44 19.1499 581.529 18.7893 581.61 18.4657L579.67 17.9806ZM579.396 19.0862C579.304 19.4905 579.216 19.9142 579.132 20.3571L581.097 20.7279C581.177 20.3081 581.259 19.9098 581.346 19.5329L579.396 19.0862ZM579.132 20.3571C579.047 20.8085 578.975 21.2677 578.915 21.7346L580.899 21.9871C580.954 21.5588 581.02 21.139 581.097 20.7279L579.132 20.3571ZM578.913 21.7504C578.861 22.2242 578.834 22.6883 578.834 23.1426H580.834C580.834 22.7667 580.856 22.3764 580.901 21.9713L578.913 21.7504ZM578.834 23.1426C578.834 23.4649 578.852 23.7741 578.892 24.0682L580.874 23.8039C580.848 23.6097 580.834 23.3899 580.834 23.1426H578.834ZM578.892 24.0682C578.93 24.3536 578.985 24.6251 579.064 24.874L580.97 24.2676C580.935 24.1584 580.901 24.0067 580.874 23.8039L578.892 24.0682ZM579.068 24.887C579.145 25.1161 579.252 25.3595 579.412 25.5736L581.012 24.3736C581.022 24.3859 581.019 24.3851 581.008 24.3634C580.998 24.3422 580.983 24.3071 580.966 24.2546L579.068 24.887ZM579.444 25.6138C579.609 25.8112 579.944 26.1201 580.457 26.1201V24.1201C580.806 24.1201 580.979 24.3314 580.981 24.3334L579.444 25.6138ZM580.457 26.1201C580.892 26.1201 581.325 26.0492 581.753 25.9167L581.162 24.0061C580.906 24.0852 580.672 24.1201 580.457 24.1201V26.1201ZM581.774 25.9101C582.231 25.7575 582.695 25.5062 583.159 25.1878L582.027 23.5388C581.661 23.79 581.367 23.9374 581.141 24.0127L581.774 25.9101ZM583.151 25.1929C583.631 24.8701 584.152 24.4434 584.712 23.9258L583.354 22.457C582.84 22.9322 582.401 23.2868 582.034 23.5337L583.151 25.1929ZM584.718 23.9203C585.279 23.3931 585.924 22.7308 586.65 21.9384L585.176 20.587C584.47 21.3571 583.862 21.9806 583.349 22.4626L584.718 23.9203ZM586.642 21.9474C586.899 21.6739 587.133 21.4194 587.343 21.1841L585.851 19.8521C585.654 20.0725 585.432 20.3144 585.184 20.578L586.642 21.9474ZM587.329 21.1985C587.545 20.966 587.757 20.7333 587.965 20.5005L586.473 19.1685C586.274 19.3914 586.071 19.6144 585.864 19.8376L587.329 21.1985ZM587.952 20.5149C588.171 20.2787 588.394 20.0307 588.62 19.771L587.112 18.4575C586.899 18.7023 586.69 18.9345 586.486 19.154L587.952 20.5149ZM588.608 19.7845C588.844 19.5232 589.103 19.2265 589.385 18.8952L587.861 17.5999C587.589 17.9196 587.344 18.2007 587.124 18.444L588.608 19.7845ZM589.432 18.8357C589.397 18.884 589.355 18.9232 589.313 18.9525C589.272 18.981 589.238 18.9949 589.22 19.0009L588.588 17.1036C588.301 17.1991 588.021 17.3751 587.814 17.6594L589.432 18.8357ZM589.275 18.9807C589.277 18.9799 589.279 18.9795 589.279 18.9793C589.279 18.9792 589.28 18.9792 589.28 18.9791C589.28 18.9791 589.28 18.9791 589.28 18.9791C589.28 18.9791 589.28 18.9791 589.28 18.9791C589.28 18.9791 589.28 18.9791 589.28 18.9791C589.28 18.9791 589.281 18.979 589.282 18.979V16.979C589.024 16.979 588.771 17.0282 588.532 17.1238L589.275 18.9807ZM589.282 18.979C589.25 18.979 589.236 18.973 589.247 18.9765L589.879 17.0791C589.695 17.0176 589.494 16.979 589.282 16.979V18.979ZM589.32 18.998C589.266 18.9844 589.206 18.9546 589.155 18.9095L590.484 17.4147C590.287 17.2394 590.055 17.1201 589.806 17.0577L589.32 18.998ZM589.195 18.943C589.11 18.8754 589.085 18.8114 589.086 18.8143L590.943 18.0715C590.847 17.8302 590.691 17.579 590.444 17.3812L589.195 18.943ZM589.096 18.8368C589.081 18.804 589.08 18.7888 589.082 18.8013C589.084 18.8134 589.088 18.843 589.088 18.8945H591.088C591.088 18.6344 591.056 18.3342 590.934 18.049L589.096 18.8368ZM589.088 18.8945C589.088 18.9373 589.081 19.0125 589.054 19.1268L591 19.59C591.054 19.3625 591.088 19.1285 591.088 18.8945H589.088ZM589.046 19.1623C589.04 19.1957 589.017 19.2705 588.949 19.3912L590.69 20.3754C590.833 20.1217 590.949 19.8466 591.007 19.5545L589.046 19.1623ZM599.08 19.5659L598.2 19.0904L598.195 19.0992L599.08 19.5659ZM598.433 20.6157L599.26 21.178L598.433 20.6157ZM597.444 21.9585L598.226 22.5816L598.231 22.5752L597.444 21.9585ZM596.199 23.4111L595.462 22.7354L595.461 22.736L596.199 23.4111ZM594.795 24.8149L595.465 25.5577L595.471 25.5516L594.795 24.8149ZM593.293 26.0112L593.854 26.8392L593.863 26.8329L593.293 26.0112ZM591.792 26.8413L591.4 25.9214L591.394 25.9238L591.792 26.8413ZM588.74 26.8169L588.253 27.6903L588.26 27.6939L588.266 27.6974L588.74 26.8169ZM587.739 25.8892L586.888 26.4143L586.892 26.4208L586.896 26.4272L587.739 25.8892ZM587.251 24.583L586.264 24.7448L586.266 24.7541L586.267 24.7633L587.251 24.583ZM587.202 21.7632L588.198 21.8486L588.199 21.8474L587.202 21.7632ZM587.776 17.4541L586.791 17.2819L586.789 17.2897L587.776 17.4541ZM588.276 14.9517L587.303 14.7226L587.301 14.7317L588.276 14.9517ZM588.923 12.5591L587.971 12.255L587.968 12.2643L588.923 12.5591ZM589.717 10.5449L590.614 10.9871L590.616 10.9821L589.717 10.5449ZM590.632 9.14111L589.909 8.45099L589.9 8.46001L590.632 9.14111ZM592.329 8.93359L591.492 9.48084L591.499 9.49192L591.507 9.5028L592.329 8.93359ZM592.549 9.94678L593.505 10.2409L593.549 10.0971V9.94678H592.549ZM592.451 10.2642L593.404 10.569L593.407 10.5582L592.451 10.2642ZM592.207 11.0454L593.161 11.3465L593.163 11.3395L592.207 11.0454ZM591.877 12.0708L590.927 11.7608L590.923 11.7737L591.877 12.0708ZM591.548 13.1206L590.595 12.8184L590.592 12.8258L590.59 12.8333L591.548 13.1206ZM591.279 13.9751L590.331 13.6589L590.326 13.6732L590.321 13.6877L591.279 13.9751ZM591.145 14.4268L592.105 14.7072L592.107 14.7015L591.145 14.4268ZM590.571 16.624L589.597 16.3992L589.595 16.4071L590.571 16.624ZM590.144 18.7969L589.158 18.6288L589.157 18.638L590.144 18.7969ZM589.875 20.8721L588.88 20.7761L588.879 20.788L589.875 20.8721ZM589.888 23.5942L588.926 23.869L588.929 23.8783L589.888 23.5942ZM590.51 24.4487L590.042 25.3325L590.073 25.3486L590.104 25.3625L590.51 24.4487ZM592.952 23.7285L593.511 24.5578L593.517 24.5536L593.523 24.5494L592.952 23.7285ZM594.099 22.8374L593.457 22.0704L593.45 22.077L594.099 22.8374ZM595.271 21.7754L595.97 22.4901L595.971 22.4899L595.271 21.7754ZM596.394 20.6035L595.657 19.9271L595.65 19.9354L596.394 20.6035ZM597.407 19.4438L596.644 18.7979L596.636 18.807L597.407 19.4438ZM597.725 19.1143L597.066 18.3617L597.054 18.3723L597.042 18.3832L597.725 19.1143ZM598.115 18.8091L597.572 17.9695L597.56 17.9771L597.549 17.985L598.115 18.8091ZM598.518 18.5894L598.919 19.5055L598.931 19.5L598.944 19.4942L598.518 18.5894ZM599.177 18.5771L598.64 19.4208L598.657 19.4312L598.673 19.4409L599.177 18.5771ZM598.324 18.9312C598.324 18.8569 598.335 18.8097 598.337 18.8025C598.339 18.7921 598.339 18.7976 598.329 18.8224C598.31 18.8736 598.27 18.9606 598.2 19.0904L599.959 20.0414C600.052 19.8701 600.134 19.7008 600.196 19.5404C600.25 19.401 600.324 19.179 600.324 18.9312H598.324ZM598.195 19.0992C598.064 19.3476 597.87 19.6641 597.606 20.0534L599.26 21.178C599.548 20.7536 599.786 20.3702 599.964 20.0327L598.195 19.0992ZM597.606 20.0534C597.344 20.4377 597.029 20.8669 596.657 21.3418L598.231 22.5752C598.624 22.0735 598.967 21.6075 599.26 21.178L597.606 20.0534ZM596.662 21.3354C596.295 21.7962 595.895 22.2628 595.462 22.7354L596.936 24.0869C597.398 23.5829 597.828 23.0811 598.226 22.5816L596.662 21.3354ZM595.461 22.736C595.042 23.194 594.594 23.6415 594.119 24.0783L595.471 25.5516C595.988 25.077 596.477 24.5885 596.936 24.0863L595.461 22.736ZM594.125 24.0723C593.658 24.4939 593.19 24.8658 592.724 25.1895L593.863 26.8329C594.406 26.4568 594.939 26.0312 595.465 25.5576L594.125 24.0723ZM592.733 25.1833C592.275 25.4936 591.83 25.738 591.4 25.9214L592.184 27.7612C592.747 27.5215 593.303 27.2124 593.854 26.8391L592.733 25.1833ZM591.394 25.9238C591.011 26.09 590.674 26.1587 590.376 26.1587V28.1587C590.989 28.1587 591.597 28.0158 592.19 27.7589L591.394 25.9238ZM590.376 26.1587C589.813 26.1587 589.446 26.0613 589.214 25.9364L588.266 27.6974C588.881 28.0282 589.604 28.1587 590.376 28.1587V26.1587ZM589.227 25.9435C588.939 25.7825 588.731 25.5847 588.582 25.3511L586.896 26.4272C587.236 26.9586 587.696 27.3793 588.253 27.6903L589.227 25.9435ZM588.59 25.3641C588.426 25.0978 588.304 24.7816 588.235 24.4027L586.267 24.7633C586.377 25.361 586.581 25.9156 586.888 26.4143L588.59 25.3641ZM588.238 24.4212C588.165 23.9801 588.129 23.5257 588.129 23.0571H586.129C586.129 23.6302 586.174 24.193 586.264 24.7448L588.238 24.4212ZM588.129 23.0571C588.129 22.8081 588.15 22.4111 588.198 21.8486L586.206 21.6778C586.156 22.2546 586.129 22.7202 586.129 23.0571H588.129ZM588.199 21.8474C588.246 21.2893 588.317 20.6506 588.413 19.93L586.431 19.6657C586.331 20.41 586.256 21.0815 586.206 21.679L588.199 21.8474ZM588.413 19.93C588.509 19.2097 588.625 18.4393 588.762 17.6185L586.789 17.2897C586.65 18.1291 586.53 18.9211 586.431 19.6657L588.413 19.93ZM588.761 17.6262C588.905 16.804 589.068 15.9858 589.252 15.1716L587.301 14.7317C587.11 15.5776 586.94 16.4277 586.791 17.282L588.761 17.6262ZM589.25 15.1807C589.44 14.3713 589.65 13.5958 589.879 12.8539L587.968 12.2643C587.725 13.0523 587.503 13.8718 587.303 14.7226L589.25 15.1807ZM589.876 12.8631C590.109 12.1345 590.355 11.511 590.614 10.9871L588.82 10.1028C588.508 10.7344 588.226 11.4537 587.971 12.255L589.876 12.8631ZM590.616 10.9821C590.872 10.4553 591.126 10.0787 591.365 9.82222L589.9 8.46001C589.488 8.90344 589.131 9.46264 588.817 10.1077L590.616 10.9821ZM591.356 9.83119C591.559 9.61843 591.667 9.61621 591.694 9.61621V7.61621C590.973 7.61621 590.373 7.96393 589.909 8.45104L591.356 9.83119ZM591.694 9.61621C591.713 9.61621 591.678 9.61928 591.619 9.58998C591.556 9.55825 591.513 9.5127 591.492 9.48084L593.166 8.38634C592.817 7.85262 592.266 7.61621 591.694 7.61621V9.61621ZM591.507 9.5028C591.485 9.47074 591.499 9.47536 591.517 9.55752C591.534 9.63772 591.549 9.76356 591.549 9.94678H593.549C593.549 9.42174 593.474 8.83091 593.151 8.36438L591.507 9.5028ZM592.549 9.94678C591.593 9.65269 591.593 9.65269 591.593 9.65269C591.593 9.65269 591.593 9.65269 591.593 9.6527C591.593 9.6527 591.593 9.65271 591.593 9.65271C591.593 9.65271 591.593 9.65275 591.593 9.65277C591.593 9.65285 591.593 9.65287 591.593 9.653C591.593 9.65309 591.593 9.65364 591.593 9.65393C591.592 9.65465 591.592 9.6561 591.592 9.65765C591.591 9.65907 591.588 9.6678 591.587 9.67253C591.584 9.68071 591.575 9.71063 591.569 9.73204C591.564 9.74795 591.517 9.90127 591.495 9.97007L593.407 10.5582C593.434 10.4692 593.469 10.3563 593.48 10.3202C593.482 10.3155 593.49 10.2869 593.491 10.2855C593.493 10.2787 593.497 10.2642 593.499 10.2607C593.5 10.2556 593.503 10.2477 593.503 10.2458C593.503 10.2456 593.503 10.2454 593.503 10.2452C593.503 10.2448 593.503 10.2451 593.503 10.2447C593.503 10.2445 593.504 10.2442 593.504 10.2441C593.504 10.244 593.504 10.2438 593.504 10.2437C593.504 10.2436 593.504 10.2436 593.504 10.2435C593.504 10.2435 593.504 10.2435 593.504 10.2434C593.504 10.2434 593.504 10.2434 593.504 10.2433C593.504 10.2433 593.504 10.2432 593.504 10.2432C593.504 10.2431 593.504 10.2429 593.504 10.2428C593.504 10.2428 593.504 10.2427 593.504 10.2426C593.504 10.2426 593.504 10.2426 593.504 10.2425C593.504 10.2425 593.504 10.2425 593.504 10.2424C593.504 10.2424 593.504 10.2421 593.504 10.2421C593.504 10.2418 593.504 10.2418 593.504 10.2416C593.504 10.2414 593.504 10.2412 593.505 10.2412C593.505 10.2411 593.505 10.241 593.505 10.2409C593.505 10.2409 593.505 10.2409 593.505 10.2409C593.505 10.2409 593.505 10.2409 593.505 10.2409C593.505 10.2409 593.505 10.2409 593.505 10.2409C593.505 10.2409 593.505 10.2409 592.549 9.94678ZM591.499 9.95938C591.432 10.1678 591.349 10.4321 591.251 10.7513L593.163 11.3395C593.26 11.024 593.34 10.7675 593.404 10.5689L591.499 9.95938ZM591.253 10.7443C591.157 11.05 591.048 11.3888 590.927 11.7608L592.828 12.3808C592.951 12.0041 593.062 11.6593 593.161 11.3465L591.253 10.7443ZM590.923 11.7737C590.809 12.1384 590.7 12.4866 590.595 12.8184L592.501 13.4228C592.607 13.0873 592.718 12.7356 592.832 12.3679L590.923 11.7737ZM590.59 12.8333C590.494 13.152 590.408 13.4268 590.331 13.6589L592.228 14.2913C592.313 14.0351 592.406 13.7403 592.506 13.408L590.59 12.8333ZM590.321 13.6877C590.249 13.9292 590.202 14.0872 590.183 14.152L592.107 14.7015C592.121 14.6523 592.163 14.5092 592.237 14.2624L590.321 13.6877ZM590.185 14.1463C589.968 14.8891 589.772 15.6401 589.597 16.3992L591.546 16.8489C591.712 16.1268 591.899 15.4129 592.105 14.7072L590.185 14.1463ZM589.595 16.4071C589.429 17.1552 589.283 17.8958 589.158 18.6288L591.13 18.9649C591.249 18.2657 591.388 17.5577 591.547 16.841L589.595 16.4071ZM589.157 18.638C589.04 19.3657 588.947 20.0785 588.88 20.7761L590.871 20.968C590.934 20.3148 591.021 19.644 591.131 18.9558L589.157 18.638ZM588.879 20.788C588.82 21.4884 588.79 22.1595 588.79 22.8008H590.79C590.79 22.2213 590.817 21.6066 590.872 20.9561L588.879 20.788ZM588.79 22.8008C588.79 23.171 588.83 23.5314 588.926 23.869L590.849 23.3195C590.815 23.2013 590.79 23.0328 590.79 22.8008H588.79ZM588.929 23.8783C589.018 24.18 589.151 24.4784 589.35 24.7388L590.938 23.5239C590.926 23.5076 590.887 23.4479 590.846 23.3101L588.929 23.8783ZM589.35 24.7388C589.533 24.9787 589.763 25.1845 590.042 25.3325L590.978 23.5649C590.978 23.5649 590.975 23.5636 590.97 23.5588C590.964 23.5537 590.953 23.5432 590.938 23.5239L589.35 24.7388ZM590.104 25.3625C590.374 25.4823 590.662 25.5464 590.962 25.5464V23.5464C590.952 23.5464 590.94 23.5453 590.916 23.5349L590.104 25.3625ZM590.962 25.5464C591.407 25.5464 591.85 25.4265 592.271 25.2458L591.484 23.4075C591.221 23.5198 591.054 23.5464 590.962 23.5464V25.5464ZM592.271 25.2458C592.682 25.07 593.095 24.838 593.511 24.5578L592.393 22.8992C592.06 23.1236 591.757 23.2903 591.484 23.4075L592.271 25.2458ZM593.523 24.5494C593.927 24.268 594.336 23.9503 594.749 23.5978L593.45 22.077C593.081 22.3919 592.725 22.6682 592.381 22.9076L593.523 24.5494ZM594.741 23.6043C595.16 23.2535 595.57 22.882 595.97 22.4901L594.572 21.0607C594.207 21.4174 593.836 21.754 593.457 22.0705L594.741 23.6043ZM595.971 22.4899C596.376 22.0927 596.765 21.6867 597.138 21.2716L595.65 19.9354C595.307 20.3179 594.947 20.6931 594.571 21.0609L595.971 22.4899ZM597.131 21.2799C597.507 20.8697 597.857 20.47 598.178 20.0807L596.636 18.807C596.339 19.1664 596.013 19.5398 595.658 19.9271L597.131 21.2799ZM598.171 20.0898C598.23 20.0193 598.308 19.9377 598.407 19.8453L597.042 18.3832C596.897 18.5187 596.763 18.6569 596.644 18.7979L598.171 20.0898ZM598.383 19.8668C598.487 19.7761 598.586 19.6987 598.682 19.6331L597.549 17.985C597.384 18.0985 597.223 18.2245 597.066 18.3617L598.383 19.8668ZM598.658 19.6487C598.758 19.584 598.845 19.5377 598.919 19.5055L598.117 17.6732C597.931 17.7549 597.749 17.8552 597.572 17.9695L598.658 19.6487ZM598.944 19.4942C598.97 19.482 598.978 19.4804 598.971 19.4823C598.964 19.4843 598.933 19.4917 598.884 19.4917V17.4917C598.581 17.4917 598.309 17.5826 598.092 17.6845L598.944 19.4942ZM598.884 19.4917C598.846 19.4917 598.803 19.4864 598.757 19.4731C598.711 19.4597 598.672 19.4409 598.64 19.4208L599.714 17.7335C599.465 17.5747 599.181 17.4917 598.884 17.4917V19.4917ZM598.673 19.4409C598.509 19.3451 598.411 19.2064 598.363 19.0907C598.341 19.0383 598.332 18.9959 598.328 18.9705C598.326 18.9575 598.325 18.9475 598.324 18.9412C598.324 18.9349 598.324 18.9314 598.324 18.9312H600.324C600.324 18.6165 600.238 18.038 599.681 17.7134L598.673 19.4409ZM606.143 22.6909L605.226 22.2922L606.143 22.6909ZM605.837 23.2891L604.971 22.7893L604.965 22.8005L605.837 23.2891ZM605.459 23.8994L604.632 23.3371L604.627 23.3447L605.459 23.8994ZM605.105 24.3877L605.88 25.0201L605.881 25.0183L605.105 24.3877ZM604.006 25.5474L604.683 26.2839L604.683 26.2833L604.006 25.5474ZM602.737 26.5239L603.27 27.3702L603.274 27.3676L602.737 26.5239ZM601.37 27.1831L601.044 26.2377L601.034 26.2411L601.024 26.2448L601.37 27.1831ZM598.147 27.0366L598.611 26.1507L598.6 26.145L598.147 27.0366ZM596.133 23.9849L595.153 24.1871L595.156 24.1973L596.133 23.9849ZM595.986 19.5293L596.983 19.6123L596.983 19.6114L595.986 19.5293ZM596.572 15.1836L597.555 15.3672L597.556 15.3653L596.572 15.1836ZM597.024 13.0352L597.997 13.2668L597.997 13.2642L597.024 13.0352ZM597.537 11.0942L596.582 10.7974L596.578 10.8093L597.537 11.0942ZM598.098 9.53174L597.182 9.13178L597.178 9.13988L598.098 9.53174ZM598.684 8.48193L599.475 9.09411L599.479 9.08806L599.484 9.08193L598.684 8.48193ZM599.697 8.18896L599.25 9.08339L599.261 9.08872L599.271 9.09378L599.697 8.18896ZM600.344 8.7749L599.496 9.3049L599.504 9.31737L599.512 9.3296L600.344 8.7749ZM600.552 9.14111L601.548 9.23165L601.572 8.96283L601.458 8.71823L600.552 9.14111ZM600.002 12.2417L599.027 12.0234L599.024 12.0331L600.002 12.2417ZM599.587 14.1094L598.613 13.8845L598.611 13.8938L599.587 14.1094ZM599.197 15.855L598.222 15.6334L598.221 15.6359L599.197 15.855ZM598.794 18.4307L597.8 18.3202L597.799 18.3293L597.798 18.3385L598.794 18.4307ZM598.696 19.7368L597.698 19.6803L597.697 19.6893L597.697 19.6984L598.696 19.7368ZM599.099 23.8262L598.179 24.2187L599.099 23.8262ZM601.724 24.6196L602.064 25.5601L602.075 25.556L601.724 24.6196ZM602.834 24.0703L603.366 24.9172L603.371 24.914L602.834 24.0703ZM603.835 23.3013L603.167 22.557L603.158 22.5657L603.835 23.3013ZM604.69 22.459L603.954 21.7819L603.951 21.7852L604.69 22.459ZM605.264 21.8975L605.922 22.65L605.924 22.6482L605.264 21.8975ZM605.265 22.2393C605.265 22.209 605.267 22.1883 605.269 22.1795C605.27 22.1705 605.271 22.1692 605.269 22.1767C605.264 22.1931 605.252 22.2305 605.226 22.2922L607.06 23.0896C607.159 22.8606 607.265 22.5592 607.265 22.2393H605.265ZM605.226 22.2922C605.162 22.4388 605.078 22.6043 604.971 22.7893L606.704 23.7888C606.841 23.5507 606.961 23.3174 607.06 23.0896L605.226 22.2922ZM604.965 22.8005C604.866 22.9774 604.755 23.1563 604.632 23.3371L606.286 24.4617C606.44 24.2357 606.581 24.0077 606.71 23.7777L604.965 22.8005ZM604.627 23.3447C604.508 23.5233 604.409 23.6588 604.329 23.7571L605.881 25.0183C606.013 24.8562 606.15 24.6661 606.291 24.4541L604.627 23.3447ZM604.33 23.7553C604.037 24.1147 603.704 24.4669 603.329 24.8114L604.683 26.2833C605.123 25.8791 605.522 25.4582 605.88 25.0201L604.33 23.7553ZM603.33 24.8108C602.974 25.1381 602.597 25.4276 602.2 25.6803L603.274 27.3676C603.772 27.0506 604.242 26.689 604.683 26.2839L603.33 24.8108ZM602.204 25.6777C601.827 25.9152 601.44 26.101 601.044 26.2377L601.696 28.1285C602.243 27.9397 602.768 27.6861 603.27 27.3702L602.204 25.6777ZM601.024 26.2448C600.661 26.3783 600.318 26.4395 599.99 26.4395V28.4395C600.574 28.4395 601.15 28.3297 601.715 28.1214L601.024 26.2448ZM599.99 26.4395C599.398 26.4395 598.95 26.3286 598.611 26.1508L597.683 27.9225C598.369 28.2817 599.15 28.4395 599.99 28.4395V26.4395ZM598.6 26.145C598.254 25.9693 597.96 25.7067 597.716 25.3315L596.039 26.4224C596.462 27.0726 597.015 27.5831 597.694 27.9282L598.6 26.145ZM597.716 25.3315C597.462 24.9425 597.253 24.4314 597.11 23.7724L595.156 24.1973C595.338 25.0357 595.625 25.786 596.039 26.4224L597.716 25.3315ZM597.112 23.7826C596.974 23.1148 596.901 22.3302 596.901 21.4214H594.901C594.901 22.4332 594.982 23.3575 595.153 24.1871L597.112 23.7826ZM596.901 21.4214C596.901 20.8759 596.928 20.2733 596.983 19.6123L594.99 19.4463C594.931 20.1525 594.901 20.8113 594.901 21.4214H596.901ZM596.983 19.6114C597.038 18.9374 597.114 18.2421 597.209 17.5252L595.227 17.2609C595.127 18.0089 595.048 18.7377 594.99 19.4472L596.983 19.6114ZM597.209 17.5252C597.305 16.8104 597.42 16.091 597.555 15.3672L595.589 15C595.448 15.7573 595.327 16.5109 595.227 17.2609L597.209 17.5252ZM597.556 15.3653C597.691 14.632 597.838 13.9325 597.997 13.2668L596.051 12.8035C595.884 13.505 595.73 14.2378 595.589 15.0019L597.556 15.3653ZM597.997 13.2642C598.156 12.5889 598.322 11.9607 598.495 11.3792L596.578 10.8093C596.393 11.4322 596.217 12.098 596.051 12.8061L597.997 13.2642ZM598.492 11.391C598.672 10.8115 598.848 10.324 599.018 9.9236L597.178 9.13988C596.974 9.61841 596.776 10.1725 596.582 10.7974L598.492 11.391ZM599.015 9.93168C599.192 9.5243 599.349 9.25633 599.475 9.09411L597.893 7.86976C597.628 8.2121 597.394 8.64399 597.182 9.13179L599.015 9.93168ZM599.484 9.08193C599.54 9.00684 599.561 8.99914 599.537 9.01556C599.506 9.03656 599.408 9.09131 599.258 9.09131V7.09131C598.583 7.09131 598.133 7.55059 597.884 7.88193L599.484 9.08193ZM599.258 9.09131C599.272 9.09131 599.277 9.09273 599.273 9.09191C599.271 9.09152 599.268 9.09071 599.264 9.08923C599.26 9.08774 599.255 9.0858 599.25 9.08339L600.144 7.29454C599.86 7.15217 599.557 7.09131 599.258 7.09131V9.09131ZM599.271 9.09378C599.323 9.11813 599.359 9.14365 599.385 9.16791L600.742 7.6983C600.556 7.52725 600.348 7.39001 600.123 7.28415L599.271 9.09378ZM599.385 9.16791C599.421 9.20128 599.459 9.24521 599.496 9.3049L601.192 8.2449C601.067 8.04418 600.917 7.86024 600.742 7.6983L599.385 9.16791ZM599.512 9.3296C599.568 9.41334 599.612 9.49151 599.646 9.564L601.458 8.71823C601.378 8.54658 601.283 8.3806 601.176 8.2202L599.512 9.3296ZM599.556 9.05058C599.527 9.36896 599.467 9.78956 599.372 10.3198L601.341 10.6724C601.441 10.1121 601.511 9.62941 601.548 9.23165L599.556 9.05058ZM599.372 10.3198C599.277 10.8492 599.162 11.4169 599.027 12.0234L600.978 12.46C601.119 11.8295 601.24 11.2335 601.341 10.6724L599.372 10.3198ZM599.024 12.0331C598.895 12.6378 598.758 13.2549 598.613 13.8845L600.562 14.3342C600.709 13.6943 600.849 13.0663 600.98 12.4503L599.024 12.0331ZM598.611 13.8938C598.473 14.5187 598.343 15.0986 598.222 15.6334L600.172 16.0766C600.295 15.5372 600.425 14.9533 600.564 14.325L598.611 13.8938ZM598.221 15.6359C598.126 16.0607 598.044 16.5041 597.976 16.9658L599.954 17.2589C600.016 16.8416 600.089 16.4468 600.172 16.074L598.221 15.6359ZM597.976 16.9658C597.909 17.4172 597.85 17.8687 597.8 18.3202L599.788 18.5411C599.835 18.1138 599.891 17.6864 599.954 17.2589L597.976 16.9658ZM597.798 18.3385C597.756 18.7895 597.723 19.2368 597.698 19.6803L599.695 19.7933C599.718 19.3742 599.75 18.9507 599.79 18.5229L597.798 18.3385ZM597.697 19.6984C597.68 20.133 597.672 20.5487 597.672 20.9453H599.672C599.672 20.5769 599.68 20.187 599.696 19.7752L597.697 19.6984ZM597.672 20.9453C597.672 22.2495 597.816 23.3682 598.179 24.2187L600.019 23.4336C599.812 22.9495 599.672 22.1476 599.672 20.9453H597.672ZM598.179 24.2187C598.377 24.6816 598.671 25.0982 599.096 25.3958C599.526 25.6973 600.02 25.8271 600.527 25.8271V23.8271C600.368 23.8271 600.29 23.7901 600.244 23.758C600.192 23.7219 600.106 23.638 600.019 23.4336L598.179 24.2187ZM600.527 25.8271C601.056 25.8271 601.57 25.7386 602.064 25.56L601.383 23.6793C601.112 23.7773 600.829 23.8271 600.527 23.8271V25.8271ZM602.075 25.556C602.528 25.3861 602.959 25.1731 603.366 24.9172L602.303 23.2234C602.01 23.407 601.701 23.5602 601.373 23.6833L602.075 25.556ZM603.371 24.914C603.779 24.6546 604.16 24.3622 604.513 24.0368L603.158 22.5657C602.893 22.81 602.606 23.0303 602.298 23.2267L603.371 24.914ZM604.503 24.0455C604.842 23.7414 605.151 23.4372 605.429 23.1327L603.951 21.7852C603.724 22.0342 603.463 22.2915 603.168 22.557L604.503 24.0455ZM605.426 23.136C605.59 22.9574 605.756 22.7957 605.922 22.65L604.605 21.1449C604.381 21.341 604.164 21.5536 603.954 21.7819L605.426 23.136ZM605.924 22.6482C605.954 22.6216 605.977 22.6038 605.993 22.5925C606.009 22.5811 606.014 22.579 606.008 22.5819C606.003 22.5847 605.981 22.5956 605.945 22.6063C605.907 22.6171 605.85 22.6289 605.776 22.6289V20.6289C605.25 20.6289 604.838 20.9398 604.603 21.1467L605.924 22.6482ZM605.776 22.6289C605.838 22.6289 605.813 22.6366 605.743 22.6139C605.673 22.5911 605.455 22.5022 605.314 22.242L607.069 21.2843C606.879 20.9346 606.568 20.7786 606.359 20.711C606.15 20.6436 605.943 20.6289 605.776 20.6289V22.6289ZM605.314 22.242C605.298 22.2144 605.288 22.1902 605.28 22.1714C605.273 22.1525 605.268 22.1371 605.264 22.1263C605.258 22.1056 605.257 22.0959 605.258 22.1014C605.259 22.1063 605.261 22.12 605.262 22.1444C605.264 22.1684 605.265 22.1998 605.265 22.2393H607.265C607.265 22.0027 607.25 21.6155 607.069 21.2843L605.314 22.242Z" fill="black"/>
<defs>
<linearGradient id="paint0_linear_41_35" x1="2.83531e-05" y1="20.5" x2="1150" y2="20.4956" gradientUnits="userSpaceOnUse">
<stop stop-color="#73F7FF"/>
<stop offset="0.427248" stop-color="#6391FF"/>
<stop offset="0.478054" stop-opacity="0"/>
<stop offset="0.525012" stop-opacity="0"/>
<stop offset="0.577358" stop-color="#5A5AFF"/>
<stop offset="1" stop-color="#E338FF"/>
</linearGradient>
<linearGradient id="paint1_linear_41_35" x1="2.83531e-05" y1="20.5" x2="1150" y2="20.4956" gradientUnits="userSpaceOnUse">
<stop stop-color="#73F7FF"/>
<stop offset="0.427248" stop-color="#6391FF"/>
<stop offset="0.478054" stop-opacity="0"/>
<stop offset="0.525012" stop-opacity="0"/>
<stop offset="0.577358" stop-color="#5A5AFF"/>
<stop offset="1" stop-color="#E338FF"/>
</linearGradient>
</defs>
</svg>
