<svg width="1150" height="21" viewBox="0 0 1150 21" fill="none" xmlns="http://www.w3.org/2000/svg">
<path d="M0 11.5C0 12.8807 1.11929 14 2.5 14H1147.5C1148.88 14 1150 12.8807 1150 11.5V11.5C1150 10.1193 1148.88 9 1147.5 9H1002.42H803.722H589.056H392.278H165.472H2.5C1.11929 9 0 10.1193 0 11.5V11.5Z" fill="url(#paint0_linear_41_35)"/>
<path d="M0 11.5C0 12.8807 1.11929 14 2.5 14H1147.5C1148.88 14 1150 12.8807 1150 11.5V11.5C1150 10.1193 1148.88 9 1147.5 9H1002.42H803.722H589.056H392.278H165.472H2.5C1.11929 9 0 10.1193 0 11.5V11.5Z" fill="url(#paint1_linear_41_35)"/>
<path d="M561.13 3.76562C561.13 3.87956 561.114 4.0179 561.082 4.18066C561.057 4.34342 561.016 4.51432 560.959 4.69336C560.903 4.86426 560.837 5.03109 560.764 5.19385C560.699 5.34847 560.622 5.47461 560.532 5.57227H560.544C560.284 5.88151 559.67 6.03613 558.701 6.03613C558.701 5.6862 558.685 5.38509 558.652 5.13281C558.628 4.8724 558.583 4.66488 558.518 4.51025C558.461 4.38005 558.359 4.27018 558.213 4.18066C558.066 4.09115 557.9 4.0179 557.712 3.96094C557.533 3.90397 557.35 3.86328 557.163 3.83887C556.976 3.80632 556.813 3.79004 556.675 3.79004C556.325 3.79004 555.983 3.79818 555.649 3.81445C555.316 3.83073 554.986 3.86328 554.661 3.91211C554.343 3.96094 554.018 4.03011 553.684 4.11963C553.359 4.20915 553.025 4.32308 552.683 4.46143C552.439 4.55908 552.179 4.68115 551.902 4.82764C551.633 4.97412 551.381 5.14095 551.145 5.32812C550.909 5.50716 550.706 5.70654 550.535 5.92627C550.372 6.13786 550.27 6.36572 550.229 6.60986L550.242 6.58545C550.242 6.78076 550.307 7.00049 550.437 7.24463C550.567 7.48063 550.742 7.71663 550.962 7.95264C551.19 8.1805 551.45 8.39209 551.743 8.5874C552.036 8.77458 552.345 8.91292 552.671 9.00244C552.695 9.01058 552.764 9.03499 552.878 9.07568C552.992 9.11637 553.131 9.1652 553.293 9.22217C553.456 9.271 553.627 9.32796 553.806 9.39307C553.993 9.45817 554.164 9.51921 554.319 9.57617C554.482 9.625 554.616 9.66976 554.722 9.71045C554.836 9.743 554.901 9.76335 554.917 9.77148C556.805 10.2516 558.205 10.8294 559.116 11.5049C560.028 12.1803 560.483 13.0104 560.483 13.9951C560.483 14.3125 560.414 14.6299 560.276 14.9473C560.138 15.2565 559.963 15.5535 559.751 15.8384C559.539 16.1232 559.307 16.3877 559.055 16.6318C558.811 16.8678 558.579 17.0672 558.359 17.23L558.372 17.2178C558.136 17.4049 557.867 17.5962 557.566 17.7915C557.273 17.9868 556.956 18.1781 556.614 18.3652C556.272 18.5524 555.918 18.7274 555.552 18.8901C555.186 19.0529 554.811 19.1953 554.429 19.3174C554.071 19.4313 553.692 19.5371 553.293 19.6348C552.903 19.7406 552.512 19.8301 552.122 19.9033C551.731 19.9766 551.353 20.0335 550.986 20.0742C550.628 20.1149 550.303 20.1353 550.01 20.1353C549.855 20.1353 549.664 20.1149 549.436 20.0742C549.216 20.0417 548.98 19.9928 548.728 19.9277C548.484 19.8626 548.236 19.7853 547.983 19.6958C547.739 19.6063 547.52 19.5046 547.324 19.3906C547.129 19.2767 546.97 19.1546 546.848 19.0244C546.726 18.8942 546.665 18.7559 546.665 18.6094C546.665 18.4792 546.689 18.3205 546.738 18.1333C546.787 17.9461 546.856 17.7671 546.946 17.5962C547.043 17.4172 547.153 17.2666 547.275 17.1445C547.406 17.0143 547.544 16.9492 547.69 16.9492C547.894 16.9492 548.085 16.9736 548.264 17.0225C548.443 17.0713 548.643 17.1283 548.862 17.1934C549.09 17.2503 549.351 17.3073 549.644 17.3643C549.945 17.4131 550.315 17.4375 550.754 17.4375C551.194 17.4375 551.65 17.3927 552.122 17.3032C552.602 17.2056 553.074 17.0794 553.538 16.9248C554.001 16.762 554.445 16.5789 554.868 16.3755C555.291 16.172 555.674 15.9604 556.016 15.7407C556.162 15.6431 556.321 15.5332 556.492 15.4111C556.671 15.2809 556.833 15.1426 556.98 14.9961C557.135 14.8415 557.261 14.6828 557.358 14.52C557.464 14.3573 557.517 14.1904 557.517 14.0195C557.517 13.8242 557.371 13.637 557.078 13.458V13.4702C556.646 13.2098 556.219 13.0104 555.796 12.8721C555.373 12.7337 555.002 12.6198 554.685 12.5303C553.79 12.3024 552.699 11.9403 551.414 11.4438H551.426C550.889 11.2323 550.368 10.9596 549.863 10.626C549.359 10.2923 548.923 9.94238 548.557 9.57617C547.743 8.67285 547.336 7.63118 547.336 6.45117C547.336 5.9873 547.467 5.53564 547.727 5.09619C547.987 4.65674 548.341 4.24577 548.789 3.86328C549.237 3.47266 549.753 3.11458 550.339 2.78906C550.933 2.46354 551.564 2.18685 552.231 1.95898C552.899 1.72298 553.578 1.53988 554.27 1.40967C554.97 1.27946 555.645 1.21436 556.296 1.21436C556.5 1.21436 556.752 1.23063 557.053 1.26318C557.362 1.2876 557.676 1.32829 557.993 1.38525C558.319 1.43408 558.628 1.49919 558.921 1.58057C559.214 1.65381 559.446 1.73926 559.617 1.83691H559.604C560.076 2.08919 560.447 2.3903 560.715 2.74023C560.992 3.09017 561.13 3.43197 561.13 3.76562ZM576.946 16.998C576.946 17.1852 576.885 17.3561 576.763 17.5107C576.649 17.6572 576.498 17.7874 576.311 17.9014C576.124 18.0072 575.916 18.0885 575.688 18.1455C575.469 18.2025 575.249 18.231 575.029 18.231C574.582 18.231 574.081 18.1536 573.528 17.999C572.983 17.8363 572.421 17.6328 571.843 17.3887C571.274 17.1445 570.7 16.88 570.122 16.5952C569.552 16.3022 569.019 16.0215 568.523 15.7529C568.376 15.6797 568.21 15.5942 568.022 15.4966C567.835 15.3908 567.648 15.2891 567.461 15.1914C567.282 15.0938 567.119 15.0083 566.973 14.9351C566.826 14.8537 566.72 14.8008 566.655 14.7764C566.533 14.8659 566.387 14.9839 566.216 15.1304C566.045 15.2687 565.882 15.4152 565.728 15.5698C565.573 15.7244 565.435 15.875 565.312 16.0215C565.199 16.168 565.129 16.29 565.105 16.3877C565.105 16.6237 565.093 16.8434 565.068 17.0469C565.052 17.2503 565.036 17.4212 565.02 17.5596C564.971 17.9176 564.922 18.2188 564.873 18.4629C564.824 18.707 564.747 18.9023 564.641 19.0488C564.543 19.2035 564.401 19.3133 564.214 19.3784C564.035 19.4435 563.791 19.4761 563.481 19.4761C563.237 19.4761 563.042 19.4517 562.896 19.4028C562.757 19.3621 562.647 19.293 562.566 19.1953C562.485 19.0977 562.432 18.9715 562.407 18.8169C562.383 18.6623 562.371 18.4792 562.371 18.2676C562.371 18.0885 562.387 17.8322 562.419 17.4985C562.46 17.1567 562.505 16.7824 562.554 16.3755C562.611 15.9686 562.668 15.5535 562.725 15.1304C562.79 14.6991 562.847 14.3044 562.896 13.9463C562.969 13.4173 563.046 12.8721 563.127 12.3105C563.209 11.7409 563.29 11.1672 563.372 10.5894C563.453 10.0116 563.526 9.43376 563.591 8.85596C563.656 8.27002 563.713 7.70036 563.762 7.14697C563.778 6.93538 563.799 6.67497 563.823 6.36572C563.848 6.05648 563.872 5.73096 563.896 5.38916C563.929 5.03923 563.962 4.68115 563.994 4.31494C564.027 3.94873 564.059 3.5988 564.092 3.26514C564.124 2.93148 564.157 2.63037 564.189 2.36182C564.23 2.09326 564.267 1.8776 564.299 1.71484C564.316 1.54395 564.373 1.37712 564.47 1.21436C564.568 1.0516 564.694 0.90918 564.849 0.787109C565.003 0.656901 565.174 0.555176 565.361 0.481934C565.549 0.400553 565.736 0.359863 565.923 0.359863C566.118 0.359863 566.297 0.404622 566.46 0.494141C566.631 0.575521 566.777 0.681315 566.899 0.811523C567.021 0.933594 567.119 1.0638 567.192 1.20215C567.266 1.34049 567.302 1.46257 567.302 1.56836C567.302 2.05664 567.241 2.7443 567.119 3.63135C567.005 4.51839 566.842 5.51937 566.631 6.63428C566.525 7.22021 566.427 7.78581 566.338 8.33105C566.248 8.86816 566.159 9.4012 566.069 9.93018C565.988 10.4591 565.907 10.9963 565.825 11.5415C565.744 12.0868 565.654 12.6564 565.557 13.2505C566.305 12.4611 566.985 11.7043 567.595 10.98C568.206 10.2557 568.787 9.58431 569.341 8.96582C569.731 8.52637 570.11 8.1154 570.476 7.73291C570.842 7.34229 571.188 7.00456 571.514 6.71973C571.847 6.4349 572.157 6.2111 572.441 6.04834C572.734 5.87744 572.999 5.79199 573.235 5.79199C573.446 5.79199 573.621 5.82861 573.76 5.90186C573.898 5.96696 574.012 6.05241 574.102 6.1582C574.191 6.264 574.252 6.37793 574.285 6.5C574.325 6.62207 574.346 6.73193 574.346 6.82959C574.346 6.94352 574.236 7.14697 574.016 7.43994C573.805 7.72477 573.528 8.05843 573.186 8.44092C572.852 8.8234 572.474 9.23438 572.051 9.67383C571.628 10.1051 571.204 10.5283 570.781 10.9434C570.366 11.3503 569.976 11.7287 569.609 12.0786C569.251 12.4285 568.958 12.7093 568.73 12.9209C569.056 13.0999 569.434 13.3034 569.866 13.5312C570.297 13.7591 570.749 13.9951 571.221 14.2393C571.701 14.4753 572.181 14.7113 572.661 14.9473C573.141 15.1751 573.589 15.3826 574.004 15.5698C574.427 15.757 574.801 15.9116 575.127 16.0337C575.461 16.1476 575.709 16.2127 575.872 16.229C576.303 16.2697 576.588 16.3511 576.726 16.4731C576.873 16.5952 576.946 16.7702 576.946 16.998ZM583.606 1.6416C583.606 1.77995 583.573 1.94678 583.508 2.14209C583.451 2.32926 583.374 2.52865 583.276 2.74023C583.179 2.94368 583.069 3.1512 582.947 3.36279C582.825 3.56624 582.699 3.74935 582.568 3.91211C582.438 4.07487 582.316 4.20915 582.202 4.31494C582.088 4.4126 581.986 4.46143 581.897 4.46143C581.775 4.46143 581.616 4.44108 581.421 4.40039C581.226 4.3597 581.03 4.29867 580.835 4.21729C580.648 4.12777 580.485 4.02197 580.347 3.8999C580.208 3.77783 580.139 3.63542 580.139 3.47266C580.139 3.35059 580.155 3.24479 580.188 3.15527C580.229 3.06576 580.269 2.97624 580.31 2.88672C580.359 2.78906 580.4 2.68327 580.432 2.56934C580.473 2.4554 580.493 2.31299 580.493 2.14209C580.493 1.9305 580.526 1.73112 580.591 1.54395C580.656 1.34863 580.75 1.1818 580.872 1.04346C580.994 0.896973 581.14 0.78304 581.311 0.70166C581.482 0.612142 581.677 0.567383 581.897 0.567383C582.003 0.567383 582.149 0.575521 582.336 0.591797C582.532 0.599935 582.723 0.636556 582.91 0.70166C583.097 0.766764 583.26 0.872559 583.398 1.01904C583.537 1.16553 583.606 1.37305 583.606 1.6416ZM589.819 11.8833C589.738 12.0542 589.6 12.2739 589.404 12.5425C589.209 12.8029 588.989 13.0837 588.745 13.3848C588.501 13.6859 588.245 13.991 587.976 14.3003C587.716 14.6014 587.472 14.874 587.244 15.1182C586.495 15.9238 585.787 16.6237 585.12 17.2178C584.46 17.8118 583.83 18.3042 583.228 18.6948C582.633 19.0854 582.068 19.3743 581.531 19.5615C580.994 19.7487 580.477 19.8423 579.98 19.8423C579.508 19.8423 579.089 19.7487 578.723 19.5615C578.365 19.3825 578.064 19.1343 577.82 18.8169C577.576 18.4995 577.393 18.1292 577.271 17.7061C577.148 17.2747 577.087 16.8109 577.087 16.3145C577.087 15.9238 577.1 15.4966 577.124 15.0327C577.148 14.5688 577.177 14.109 577.209 13.6533C577.25 13.1895 577.295 12.7541 577.344 12.3472C577.393 11.9403 577.437 11.6025 577.478 11.334C577.502 11.2119 577.519 11.0736 577.527 10.9189C577.543 10.7643 577.555 10.6097 577.563 10.4551C577.572 10.2923 577.576 10.1418 577.576 10.0034C577.584 9.85693 577.588 9.73486 577.588 9.63721C577.588 9.53141 577.629 9.36865 577.71 9.14893C577.799 8.92106 577.922 8.6932 578.076 8.46533C578.239 8.22933 578.434 8.02588 578.662 7.85498C578.89 7.67594 579.146 7.58643 579.431 7.58643C579.895 7.58643 580.257 7.68001 580.518 7.86719C580.786 8.05436 580.92 8.39616 580.92 8.89258C580.92 8.99023 580.892 9.15706 580.835 9.39307C580.786 9.62093 580.721 9.89762 580.64 10.2231C580.558 10.5487 580.469 10.9108 580.371 11.3096C580.282 11.7002 580.196 12.1112 580.115 12.5425C580.033 12.9738 579.964 13.4132 579.907 13.8608C579.858 14.3003 579.834 14.7275 579.834 15.1426C579.834 15.4274 579.85 15.6919 579.883 15.936C579.915 16.1802 579.96 16.3918 580.017 16.5708C580.074 16.7417 580.139 16.876 580.212 16.9736C580.294 17.0713 580.375 17.1201 580.457 17.1201C580.782 17.1201 581.116 17.0672 581.458 16.9614C581.799 16.8475 582.178 16.6481 582.593 16.3633C583.016 16.0785 583.496 15.6878 584.033 15.1914C584.57 14.6868 585.197 14.0439 585.913 13.2627C586.165 12.9941 586.393 12.7459 586.597 12.5181C586.808 12.2902 587.016 12.0623 587.219 11.8345C587.431 11.6066 587.646 11.3665 587.866 11.1143C588.094 10.862 588.346 10.5731 588.623 10.2476C588.688 10.158 588.782 10.0929 588.904 10.0522C589.026 10.0034 589.152 9.979 589.282 9.979C589.372 9.979 589.465 9.99528 589.563 10.0278C589.661 10.0522 589.746 10.097 589.819 10.1621C589.901 10.2272 589.966 10.3208 590.015 10.4429C590.063 10.5568 590.088 10.7074 590.088 10.8945C590.088 11.0329 590.068 11.1875 590.027 11.3584C589.994 11.5212 589.925 11.6961 589.819 11.8833ZM599.324 10.9312C599.324 11.0532 599.242 11.2648 599.08 11.5659C598.925 11.8589 598.709 12.2088 598.433 12.6157C598.156 13.0226 597.826 13.4702 597.444 13.9585C597.061 14.4386 596.646 14.9229 596.199 15.4111C595.759 15.8913 595.291 16.3592 594.795 16.8149C594.299 17.2625 593.798 17.6613 593.293 18.0112C592.789 18.353 592.288 18.6297 591.792 18.8413C591.304 19.0529 590.832 19.1587 590.376 19.1587C589.709 19.1587 589.163 19.0448 588.74 18.8169C588.317 18.5809 587.983 18.2716 587.739 17.8892C587.503 17.5067 587.34 17.0713 587.251 16.583C587.17 16.0866 587.129 15.578 587.129 15.0571C587.129 14.7642 587.153 14.3328 587.202 13.7632C587.251 13.1854 587.324 12.5303 587.422 11.7979C587.52 11.0654 587.638 10.2842 587.776 9.4541C587.922 8.61589 588.089 7.78174 588.276 6.95166C588.472 6.12158 588.687 5.32406 588.923 4.55908C589.167 3.79411 589.432 3.12272 589.717 2.54492C590.002 1.95898 590.307 1.49105 590.632 1.14111C590.966 0.791178 591.32 0.616211 591.694 0.616211C591.979 0.616211 592.191 0.722005 592.329 0.933594C592.476 1.14518 592.549 1.48291 592.549 1.94678C592.549 1.94678 592.516 2.05257 592.451 2.26416C592.386 2.46761 592.305 2.72803 592.207 3.04541C592.109 3.35465 592 3.69645 591.877 4.0708C591.764 4.43701 591.654 4.78695 591.548 5.12061C591.45 5.44613 591.361 5.73096 591.279 5.9751C591.206 6.21924 591.161 6.36979 591.145 6.42676C590.933 7.15104 590.742 7.88346 590.571 8.62402C590.409 9.35645 590.266 10.0807 590.144 10.7969C590.03 11.5049 589.941 12.1966 589.875 12.8721C589.819 13.5475 589.79 14.1904 589.79 14.8008C589.79 15.1019 589.823 15.3664 589.888 15.5942C589.953 15.814 590.038 15.993 590.144 16.1313C590.25 16.2697 590.372 16.3755 590.51 16.4487C590.657 16.5138 590.807 16.5464 590.962 16.5464C591.23 16.5464 591.536 16.4731 591.877 16.3267C592.219 16.1802 592.577 15.9808 592.952 15.7285C593.326 15.4681 593.708 15.1711 594.099 14.8374C594.498 14.5037 594.889 14.1497 595.271 13.7754C595.662 13.3929 596.036 13.0023 596.394 12.6035C596.76 12.2048 597.098 11.8182 597.407 11.4438C597.497 11.3381 597.603 11.2282 597.725 11.1143C597.855 11.0003 597.985 10.8986 598.115 10.8091C598.254 10.7196 598.388 10.6463 598.518 10.5894C598.656 10.5243 598.778 10.4917 598.884 10.4917C598.99 10.4917 599.088 10.5202 599.177 10.5771C599.275 10.6341 599.324 10.7521 599.324 10.9312ZM606.265 14.2393C606.265 14.3532 606.224 14.5037 606.143 14.6909C606.061 14.8781 605.959 15.0775 605.837 15.2891C605.723 15.4925 605.597 15.696 605.459 15.8994C605.329 16.0947 605.211 16.2575 605.105 16.3877C604.779 16.7865 604.413 17.173 604.006 17.5474C603.608 17.9136 603.184 18.2391 602.737 18.5239C602.297 18.8006 601.842 19.0203 601.37 19.1831C600.906 19.354 600.446 19.4395 599.99 19.4395C599.274 19.4395 598.66 19.3052 598.147 19.0366C597.634 18.7762 597.211 18.3896 596.877 17.877C596.544 17.3643 596.296 16.7336 596.133 15.9849C595.978 15.2362 595.901 14.3817 595.901 13.4214C595.901 12.8436 595.929 12.2129 595.986 11.5293C596.043 10.8376 596.121 10.1255 596.218 9.39307C596.316 8.66064 596.434 7.92415 596.572 7.18359C596.711 6.4349 596.861 5.71875 597.024 5.03516C597.187 4.34342 597.358 3.69645 597.537 3.09424C597.724 2.49202 597.911 1.97119 598.098 1.53174C598.293 1.08415 598.489 0.734212 598.684 0.481934C598.879 0.221517 599.071 0.0913086 599.258 0.0913086C599.421 0.0913086 599.567 0.123861 599.697 0.188965C599.836 0.254069 599.958 0.335449 600.063 0.433105C600.169 0.530762 600.263 0.644694 600.344 0.774902C600.426 0.896973 600.495 1.01904 600.552 1.14111C600.519 1.49919 600.454 1.95085 600.356 2.49609C600.259 3.04134 600.141 3.62321 600.002 4.2417C599.872 4.85205 599.734 5.47461 599.587 6.10938C599.449 6.736 599.319 7.31787 599.197 7.85498C599.107 8.25374 599.03 8.67285 598.965 9.1123C598.9 9.55176 598.843 9.99121 598.794 10.4307C598.753 10.8701 598.721 11.3055 598.696 11.7368C598.68 12.16 598.672 12.5628 598.672 12.9453C598.672 14.1986 598.814 15.1589 599.099 15.8262C599.384 16.4935 599.86 16.8271 600.527 16.8271C600.942 16.8271 601.341 16.758 601.724 16.6196C602.114 16.4731 602.485 16.29 602.834 16.0703C603.193 15.8424 603.526 15.5861 603.835 15.3013C604.153 15.0164 604.438 14.7357 604.69 14.459C604.877 14.2555 605.068 14.0684 605.264 13.8975C605.467 13.7184 605.638 13.6289 605.776 13.6289C606.004 13.6289 606.143 13.6737 606.191 13.7632C606.24 13.8527 606.265 14.0114 606.265 14.2393Z" fill="#D9D9D9"/>
<defs>
<linearGradient id="paint0_linear_41_35" x1="2.83531e-05" y1="11.5" x2="1150" y2="11.4956" gradientUnits="userSpaceOnUse">
<stop stop-color="#73F7FF"/>
<stop offset="0.427248" stop-color="#6391FF"/>
<stop offset="0.478054" stop-opacity="0"/>
<stop offset="0.525012" stop-opacity="0"/>
<stop offset="0.577358" stop-color="#5A5AFF"/>
<stop offset="1" stop-color="#E338FF"/>
</linearGradient>
<linearGradient id="paint1_linear_41_35" x1="2.83531e-05" y1="11.5" x2="1150" y2="11.4956" gradientUnits="userSpaceOnUse">
<stop stop-color="#73F7FF"/>
<stop offset="0.427248" stop-color="#6391FF"/>
<stop offset="0.478054" stop-opacity="0"/>
<stop offset="0.525012" stop-opacity="0"/>
<stop offset="0.577358" stop-color="#5A5AFF"/>
<stop offset="1" stop-color="#E338FF"/>
</linearGradient>
</defs>
</svg>
