<svg width="1150" height="23" viewBox="0 0 1150 23" fill="none" xmlns="http://www.w3.org/2000/svg">
<path d="M0 12.5C0 13.8807 1.11929 15 2.5 15H1147.5C1148.88 15 1150 13.8807 1150 12.5V12.5C1150 11.1193 1148.88 10 1147.5 10H1002.42H803.722H589.056H392.278H165.472H2.5C1.11929 10 0 11.1193 0 12.5V12.5Z" fill="url(#paint0_linear_42_38)"/>
<path d="M0 12.5C0 13.8807 1.11929 15 2.5 15H1147.5C1148.88 15 1150 13.8807 1150 12.5V12.5C1150 11.1193 1148.88 10 1147.5 10H1002.42H803.722H589.056H392.278H165.472H2.5C1.11929 10 0 11.1193 0 12.5V12.5Z" fill="url(#paint1_linear_42_38)"/>
<path d="M488.098 4.76562C488.098 4.87956 488.082 5.0179 488.049 5.18066C488.025 5.34342 487.984 5.51432 487.927 5.69336C487.87 5.86426 487.805 6.03109 487.732 6.19385C487.667 6.34847 487.59 6.47461 487.5 6.57227H487.512C487.252 6.88151 486.637 7.03613 485.669 7.03613C485.669 6.6862 485.653 6.38509 485.62 6.13281C485.596 5.8724 485.551 5.66488 485.486 5.51025C485.429 5.38005 485.327 5.27018 485.181 5.18066C485.034 5.09115 484.867 5.0179 484.68 4.96094C484.501 4.90397 484.318 4.86328 484.131 4.83887C483.944 4.80632 483.781 4.79004 483.643 4.79004C483.293 4.79004 482.951 4.79818 482.617 4.81445C482.284 4.83073 481.954 4.86328 481.628 4.91211C481.311 4.96094 480.986 5.03011 480.652 5.11963C480.326 5.20915 479.993 5.32308 479.651 5.46143C479.407 5.55908 479.146 5.68115 478.87 5.82764C478.601 5.97412 478.349 6.14095 478.113 6.32812C477.877 6.50716 477.673 6.70654 477.502 6.92627C477.34 7.13786 477.238 7.36572 477.197 7.60986L477.209 7.58545C477.209 7.78076 477.275 8.00049 477.405 8.24463C477.535 8.48063 477.71 8.71663 477.93 8.95264C478.158 9.1805 478.418 9.39209 478.711 9.5874C479.004 9.77458 479.313 9.91292 479.639 10.0024C479.663 10.0106 479.732 10.035 479.846 10.0757C479.96 10.1164 480.098 10.1652 480.261 10.2222C480.424 10.271 480.595 10.328 480.774 10.3931C480.961 10.4582 481.132 10.5192 481.287 10.5762C481.449 10.625 481.584 10.6698 481.689 10.7104C481.803 10.743 481.868 10.7633 481.885 10.7715C483.773 11.2516 485.173 11.8294 486.084 12.5049C486.995 13.1803 487.451 14.0104 487.451 14.9951C487.451 15.3125 487.382 15.6299 487.244 15.9473C487.105 16.2565 486.93 16.5535 486.719 16.8384C486.507 17.1232 486.275 17.3877 486.023 17.6318C485.779 17.8678 485.547 18.0672 485.327 18.23L485.339 18.2178C485.103 18.4049 484.835 18.5962 484.534 18.7915C484.241 18.9868 483.923 19.1781 483.582 19.3652C483.24 19.5524 482.886 19.7274 482.52 19.8901C482.153 20.0529 481.779 20.1953 481.396 20.3174C481.038 20.4313 480.66 20.5371 480.261 20.6348C479.871 20.7406 479.48 20.8301 479.089 20.9033C478.699 20.9766 478.32 21.0335 477.954 21.0742C477.596 21.1149 477.271 21.1353 476.978 21.1353C476.823 21.1353 476.632 21.1149 476.404 21.0742C476.184 21.0417 475.948 20.9928 475.696 20.9277C475.452 20.8626 475.203 20.7853 474.951 20.6958C474.707 20.6063 474.487 20.5046 474.292 20.3906C474.097 20.2767 473.938 20.1546 473.816 20.0244C473.694 19.8942 473.633 19.7559 473.633 19.6094C473.633 19.4792 473.657 19.3205 473.706 19.1333C473.755 18.9461 473.824 18.7671 473.914 18.5962C474.011 18.4172 474.121 18.2666 474.243 18.1445C474.373 18.0143 474.512 17.9492 474.658 17.9492C474.862 17.9492 475.053 17.9736 475.232 18.0225C475.411 18.0713 475.61 18.1283 475.83 18.1934C476.058 18.2503 476.318 18.3073 476.611 18.3643C476.912 18.4131 477.283 18.4375 477.722 18.4375C478.162 18.4375 478.617 18.3927 479.089 18.3032C479.569 18.2056 480.042 18.0794 480.505 17.9248C480.969 17.762 481.413 17.5789 481.836 17.3755C482.259 17.172 482.642 16.9604 482.983 16.7407C483.13 16.6431 483.289 16.5332 483.459 16.4111C483.639 16.2809 483.801 16.1426 483.948 15.9961C484.102 15.8415 484.229 15.6828 484.326 15.52C484.432 15.3573 484.485 15.1904 484.485 15.0195C484.485 14.8242 484.338 14.637 484.045 14.458V14.4702C483.614 14.2098 483.187 14.0104 482.764 13.8721C482.34 13.7337 481.97 13.6198 481.653 13.5303C480.758 13.3024 479.667 12.9403 478.381 12.4438H478.394C477.856 12.2323 477.336 11.9596 476.831 11.626C476.326 11.2923 475.891 10.9424 475.525 10.5762C474.711 9.67285 474.304 8.63118 474.304 7.45117C474.304 6.9873 474.434 6.53564 474.695 6.09619C474.955 5.65674 475.309 5.24577 475.757 4.86328C476.204 4.47266 476.721 4.11458 477.307 3.78906C477.901 3.46354 478.532 3.18685 479.199 2.95898C479.867 2.72298 480.546 2.53988 481.238 2.40967C481.938 2.27946 482.613 2.21436 483.264 2.21436C483.468 2.21436 483.72 2.23063 484.021 2.26318C484.33 2.2876 484.644 2.32829 484.961 2.38525C485.286 2.43408 485.596 2.49919 485.889 2.58057C486.182 2.65381 486.414 2.73926 486.584 2.83691H486.572C487.044 3.08919 487.415 3.3903 487.683 3.74023C487.96 4.09017 488.098 4.43197 488.098 4.76562ZM497.114 12.5781C497.114 12.3747 497.102 12.1631 497.078 11.9434C497.061 11.7236 497.021 11.5202 496.956 11.333C496.89 11.1377 496.801 10.9709 496.687 10.8325C496.573 10.686 496.423 10.5884 496.235 10.5396C495.951 10.4663 495.719 10.389 495.54 10.3076C495.361 10.2181 495.218 10.1367 495.112 10.0635C495.007 9.99023 494.933 9.9292 494.893 9.88037C494.852 9.83154 494.823 9.80713 494.807 9.80713C494.742 9.80713 494.648 9.8641 494.526 9.97803C494.412 10.0838 494.282 10.2222 494.136 10.3931C493.997 10.564 493.851 10.7471 493.696 10.9424C493.55 11.1377 493.407 11.3208 493.269 11.4917C493.098 11.7033 492.935 11.9108 492.781 12.1143C492.634 12.3096 492.488 12.5171 492.341 12.7368C492.203 12.9484 492.065 13.1722 491.926 13.4082C491.788 13.6442 491.646 13.9046 491.499 14.1895C491.369 14.4499 491.271 14.7713 491.206 15.1538C491.141 15.5282 491.108 15.8822 491.108 16.2158C491.108 16.3542 491.125 16.4966 491.157 16.6431C491.19 16.7814 491.239 16.9076 491.304 17.0215C491.369 17.1354 491.454 17.229 491.56 17.3022C491.666 17.3755 491.796 17.4121 491.951 17.4121C492.325 17.4121 492.638 17.3958 492.891 17.3633C493.143 17.3226 493.379 17.2575 493.599 17.168C493.818 17.0703 494.038 16.9442 494.258 16.7896C494.486 16.6268 494.758 16.4274 495.076 16.1914C495.222 16.0775 495.369 15.9473 495.515 15.8008C495.662 15.6462 495.808 15.4834 495.955 15.3125C496.101 15.1335 496.243 14.9504 496.382 14.7632C496.52 14.5679 496.646 14.3807 496.76 14.2017C496.825 14.104 496.878 13.9779 496.919 13.8232C496.968 13.6605 497.004 13.4977 497.029 13.335C497.061 13.1722 497.082 13.0216 497.09 12.8833C497.106 12.745 497.114 12.6473 497.114 12.5903V12.5781ZM506.587 9.83154C506.587 9.97803 506.554 10.1326 506.489 10.2954C506.432 10.4582 506.351 10.6169 506.245 10.7715C506.139 10.918 506.017 11.0563 505.879 11.1865C505.749 11.3167 505.614 11.4266 505.476 11.5161C505.183 11.7114 504.756 11.8823 504.194 12.0288C503.641 12.1753 502.97 12.2485 502.18 12.2485C501.952 12.2485 501.708 12.2323 501.448 12.1997C501.195 12.1672 500.935 12.1224 500.667 12.0654C500.406 12.0085 500.146 11.9393 499.885 11.8579C499.633 11.7684 499.389 11.6707 499.153 11.5649C499.202 11.6382 499.242 11.7399 499.275 11.8701C499.307 11.9922 499.328 12.1224 499.336 12.2607C499.352 12.3991 499.36 12.5334 499.36 12.6636C499.368 12.7856 499.373 12.8833 499.373 12.9565C499.373 13.4774 499.279 13.9982 499.092 14.519C498.913 15.0317 498.673 15.5241 498.372 15.9961C498.07 16.4681 497.729 16.9076 497.346 17.3145C496.964 17.7132 496.573 18.0591 496.174 18.3521C495.857 18.5881 495.503 18.7915 495.112 18.9624C494.73 19.1333 494.323 19.2757 493.892 19.3896C493.468 19.5036 493.029 19.589 492.573 19.646C492.126 19.703 491.67 19.7314 491.206 19.7314C490.824 19.7314 490.457 19.6379 490.107 19.4507C489.757 19.2635 489.448 19.0234 489.18 18.7305C488.919 18.4294 488.708 18.0916 488.545 17.7173C488.39 17.3429 488.313 16.9727 488.313 16.6064C488.313 15.9554 488.398 15.3288 488.569 14.7266C488.748 14.1243 488.984 13.5425 489.277 12.981C489.57 12.4194 489.912 11.8701 490.303 11.333C490.693 10.7878 491.104 10.2507 491.536 9.72168C491.788 9.41243 492.077 9.11133 492.402 8.81836C492.728 8.52539 493.07 8.26497 493.428 8.03711C493.794 7.80111 494.16 7.61393 494.526 7.47559C494.901 7.33724 495.259 7.26807 495.601 7.26807C495.885 7.26807 496.13 7.30062 496.333 7.36572C496.545 7.43083 496.736 7.52441 496.907 7.64648C497.086 7.76042 497.257 7.90283 497.419 8.07373C497.582 8.24463 497.753 8.43587 497.932 8.64746L498.188 8.92822C498.254 8.99333 498.429 9.09098 498.713 9.22119C499.006 9.3514 499.352 9.48161 499.751 9.61182C500.15 9.73389 500.569 9.84375 501.008 9.94141C501.448 10.0391 501.847 10.0879 502.205 10.0879C502.571 10.0879 502.917 10.0838 503.242 10.0757C503.568 10.0675 503.893 10.0391 504.219 9.99023C504.552 9.93327 504.898 9.85189 505.256 9.74609C505.623 9.63216 506.025 9.47754 506.465 9.28223C506.506 9.35547 506.534 9.44906 506.55 9.56299C506.575 9.67692 506.587 9.76644 506.587 9.83154ZM518.923 10.0024C518.923 10.0838 518.907 10.1855 518.875 10.3076C518.85 10.4215 518.813 10.5396 518.765 10.6616C518.716 10.7837 518.663 10.9058 518.606 11.0278C518.549 11.1418 518.492 11.2354 518.435 11.3086C518.028 11.8538 517.581 12.4113 517.092 12.981C516.604 13.5425 516.079 14.0959 515.518 14.6411C514.964 15.1864 514.378 15.7113 513.76 16.2158C513.141 16.7204 512.498 17.1802 511.831 17.5952C511.473 17.8149 511.078 18.0265 510.647 18.23C510.216 18.4253 509.768 18.6003 509.304 18.7549C508.84 18.9095 508.364 19.0316 507.876 19.1211C507.396 19.2106 506.924 19.2554 506.46 19.2554C505.841 19.2554 505.288 19.1455 504.8 18.9258C504.32 18.7061 503.913 18.409 503.579 18.0347C503.254 17.6603 503.005 17.2249 502.834 16.7285C502.664 16.224 502.578 15.695 502.578 15.1416C502.578 14.0511 502.81 12.985 503.274 11.9434C503.738 10.9017 504.352 9.86003 505.117 8.81836C505.288 8.60677 505.492 8.37077 505.728 8.11035C505.972 7.84993 506.236 7.60579 506.521 7.37793C506.814 7.14193 507.119 6.94661 507.437 6.79199C507.762 6.62923 508.092 6.54785 508.425 6.54785C508.759 6.54785 509.06 6.64958 509.329 6.85303C509.605 7.05648 509.841 7.30876 510.037 7.60986C510.232 7.90283 510.382 8.22021 510.488 8.56201C510.594 8.89567 510.647 9.20085 510.647 9.47754C510.647 9.63216 510.631 9.80713 510.598 10.0024C510.574 10.1978 510.525 10.3849 510.452 10.564C510.378 10.7349 510.277 10.8813 510.146 11.0034C510.016 11.1255 509.849 11.1865 509.646 11.1865C509.272 11.1865 508.987 11.0726 508.792 10.8447C508.596 10.6169 508.466 10.3158 508.401 9.94141C508.376 9.77865 508.352 9.64844 508.328 9.55078C508.303 9.44499 508.279 9.36768 508.254 9.31885C508.23 9.26188 508.201 9.22526 508.169 9.20898C508.145 9.19271 508.12 9.18457 508.096 9.18457C507.99 9.18457 507.864 9.24967 507.717 9.37988C507.579 9.50195 507.428 9.66878 507.266 9.88037C507.103 10.0838 506.936 10.3198 506.765 10.5884C506.594 10.8488 506.431 11.1214 506.277 11.4062C506.13 11.6748 505.992 11.9678 505.862 12.2852C505.74 12.6025 505.634 12.9321 505.544 13.2739C505.455 13.6076 505.382 13.9453 505.325 14.2871C505.276 14.6289 505.251 14.9585 505.251 15.2759C505.251 15.4956 505.284 15.7031 505.349 15.8984C505.422 16.0938 505.52 16.2646 505.642 16.4111C505.772 16.5495 505.923 16.6634 506.094 16.7529C506.265 16.8343 506.452 16.875 506.655 16.875C507.103 16.875 507.546 16.8262 507.986 16.7285C508.433 16.6227 508.873 16.4844 509.304 16.3135C509.736 16.1344 510.159 15.931 510.574 15.7031C510.997 15.4671 511.404 15.223 511.794 14.9707C512.348 14.6126 512.889 14.2139 513.418 13.7744C513.955 13.3268 514.456 12.8792 514.919 12.4316C515.383 11.984 515.806 11.5609 516.189 11.1621C516.571 10.7552 516.889 10.4134 517.141 10.1367C517.288 9.97396 517.414 9.83968 517.52 9.73389C517.625 9.61995 517.727 9.53044 517.825 9.46533C517.931 9.39209 518.036 9.34326 518.142 9.31885C518.256 9.2863 518.39 9.27002 518.545 9.27002C518.594 9.27002 518.667 9.33512 518.765 9.46533C518.87 9.5874 518.923 9.76644 518.923 10.0024ZM521.006 2.14111C521.006 2.40967 520.965 2.66602 520.884 2.91016C520.802 3.14616 520.684 3.36995 520.53 3.58154C520.221 4.01286 519.744 4.22852 519.102 4.22852C518.874 4.22852 518.642 4.20817 518.406 4.16748C518.17 4.12679 517.958 4.06982 517.771 3.99658C517.584 3.92334 517.429 3.82975 517.307 3.71582C517.185 3.60189 517.124 3.47168 517.124 3.3252C517.124 3.07292 517.189 2.80843 517.319 2.53174C517.45 2.24691 517.616 1.98649 517.82 1.75049C518.031 1.50635 518.259 1.30697 518.503 1.15234C518.756 0.989583 518.996 0.908203 519.224 0.908203C519.508 0.908203 519.761 0.928548 519.98 0.969238C520.2 1.00179 520.383 1.06283 520.53 1.15234C520.684 1.24186 520.802 1.368 520.884 1.53076C520.965 1.69352 521.006 1.89697 521.006 2.14111ZM528.599 12.1875C528.599 12.3747 528.525 12.6147 528.379 12.9077C528.241 13.1925 528.045 13.514 527.793 13.8721C527.549 14.222 527.256 14.6004 526.914 15.0073C526.572 15.4061 526.202 15.8171 525.803 16.2402C525.372 16.7041 524.904 17.1598 524.399 17.6074C523.895 18.055 523.358 18.4863 522.788 18.9014C522.227 19.3083 521.673 19.6257 521.128 19.8535C520.583 20.0732 520.066 20.1831 519.578 20.1831C519.008 20.1831 518.512 20.0895 518.088 19.9023C517.673 19.707 517.315 19.4466 517.014 19.1211C516.721 18.7874 516.481 18.409 516.294 17.9858C516.107 17.5545 515.956 17.1029 515.842 16.6309C515.736 16.1507 515.663 15.6665 515.623 15.1782C515.582 14.6899 515.562 14.2261 515.562 13.7866C515.562 13.6157 515.574 13.3594 515.598 13.0176C515.623 12.6758 515.655 12.3177 515.696 11.9434C515.745 11.5609 515.793 11.1947 515.842 10.8447C515.899 10.4867 515.956 10.2059 516.013 10.0024C516.135 9.60368 516.416 9.22526 516.855 8.86719C517.279 8.52539 517.751 8.35449 518.271 8.35449C518.8 8.35449 519.065 8.67188 519.065 9.30664C519.065 9.60775 519.036 9.9292 518.979 10.271C518.931 10.6047 518.874 10.9342 518.809 11.2598C518.703 11.8538 518.63 12.391 518.589 12.8711C518.548 13.3431 518.528 13.7622 518.528 14.1284C518.528 14.5435 518.552 14.9463 518.601 15.3369C518.65 15.7275 518.719 16.0775 518.809 16.3867C518.906 16.6878 519.024 16.932 519.163 17.1191C519.309 17.3063 519.48 17.3999 519.675 17.3999C519.919 17.3999 520.172 17.3796 520.432 17.3389C520.693 17.29 521.006 17.168 521.372 16.9727C522.072 16.5902 522.817 16.0734 523.606 15.4224C523.883 15.1945 524.196 14.9259 524.546 14.6167C524.904 14.2993 525.258 13.9779 525.608 13.6523C525.958 13.3187 526.287 12.9932 526.597 12.6758C526.906 12.3584 527.15 12.0858 527.329 11.8579C527.354 11.8172 527.386 11.7684 527.427 11.7114C527.476 11.6463 527.528 11.5812 527.585 11.5161C527.642 11.451 527.703 11.3981 527.769 11.3574C527.842 11.3086 527.911 11.2842 527.976 11.2842C528.106 11.2842 528.2 11.3045 528.257 11.3452C528.322 11.3778 528.391 11.4876 528.464 11.6748C528.554 11.8783 528.599 12.0492 528.599 12.1875ZM531.975 10.3076C531.975 10.2588 531.959 10.2059 531.926 10.1489C531.902 10.0838 531.865 10.0228 531.816 9.96582C531.776 9.90885 531.727 9.8641 531.67 9.83154C531.621 9.79085 531.572 9.77051 531.523 9.77051C531.328 9.77051 531.141 9.80713 530.962 9.88037C530.783 9.95361 530.612 10.0472 530.449 10.1611C530.295 10.2751 530.148 10.4053 530.01 10.5518C529.88 10.6901 529.757 10.8325 529.644 10.979C529.367 11.3452 529.078 11.7928 528.777 12.3218C528.484 12.8426 528.215 13.3919 527.971 13.9697C527.735 14.5475 527.54 15.1172 527.385 15.6787C527.231 16.2402 527.153 16.7407 527.153 17.1802C527.153 17.3185 527.21 17.4325 527.324 17.522C527.446 17.6034 527.601 17.644 527.788 17.644C527.935 17.644 528.122 17.5627 528.35 17.3999C528.586 17.229 528.834 17.0052 529.094 16.7285C529.355 16.4518 529.615 16.1426 529.875 15.8008C530.136 15.4508 530.372 15.0928 530.583 14.7266C530.974 14.043 531.304 13.3309 531.572 12.5903C531.841 11.8498 531.975 11.0889 531.975 10.3076ZM542.229 10.0391C542.221 10.1367 542.152 10.3524 542.021 10.686C541.899 11.0116 541.729 11.4062 541.509 11.8701C541.289 12.334 541.025 12.8385 540.715 13.3838C540.414 13.9209 540.081 14.4417 539.714 14.9463C539.25 15.5811 538.774 16.1466 538.286 16.6431C537.798 17.1395 537.326 17.5545 536.87 17.8882C536.414 18.2218 535.987 18.4782 535.588 18.6572C535.19 18.8281 534.848 18.9136 534.563 18.9136C534.107 18.9136 533.725 18.8485 533.416 18.7183C533.114 18.5881 532.862 18.4009 532.659 18.1567C532.463 17.9126 532.309 17.6156 532.195 17.2656C532.089 16.9157 532.004 16.5169 531.938 16.0693C531.613 16.5658 531.259 17.05 530.876 17.522C530.494 17.994 530.095 18.4131 529.68 18.7793C529.265 19.1455 528.838 19.4425 528.398 19.6704C527.967 19.8901 527.536 20 527.104 20C526.828 20 526.535 19.9512 526.226 19.8535C525.924 19.7559 525.644 19.6053 525.383 19.4019C525.131 19.1984 524.919 18.9339 524.749 18.6084C524.578 18.2829 524.492 17.8963 524.492 17.4487C524.492 17.0907 524.537 16.6838 524.626 16.228C524.716 15.7723 524.838 15.3003 524.993 14.812C525.147 14.3156 525.322 13.8151 525.518 13.3105C525.721 12.806 525.933 12.3299 526.152 11.8823C526.38 11.4266 526.608 11.0156 526.836 10.6494C527.064 10.2832 527.284 9.98617 527.495 9.7583C527.739 9.49788 528.028 9.2334 528.362 8.96484C528.704 8.68815 529.078 8.43994 529.485 8.22021C529.9 8.00049 530.343 7.82145 530.815 7.68311C531.296 7.53662 531.8 7.46338 532.329 7.46338C532.866 7.46338 533.269 7.60986 533.538 7.90283C533.806 8.18766 533.985 8.62712 534.075 9.22119C534.075 9.27816 534.099 9.34733 534.148 9.42871C534.205 9.50195 534.262 9.58333 534.319 9.67285C534.384 9.75423 534.441 9.84375 534.49 9.94141C534.539 10.0309 534.563 10.1245 534.563 10.2222C534.563 10.3442 534.535 10.4948 534.478 10.6738C534.429 10.8529 534.368 11.0563 534.294 11.2842C534.229 11.5039 534.168 11.7521 534.111 12.0288C534.062 12.2974 534.038 12.5863 534.038 12.8955C534.038 13.3594 534.046 13.811 534.062 14.2505C534.079 14.6818 534.119 15.0684 534.185 15.4102C534.25 15.7438 534.347 16.0124 534.478 16.2158C534.608 16.4193 534.783 16.521 535.002 16.521C535.19 16.521 535.417 16.4437 535.686 16.2891C535.955 16.1344 536.248 15.9229 536.565 15.6543C536.882 15.3857 537.212 15.0684 537.554 14.7021C537.904 14.3278 538.241 13.929 538.567 13.5059C538.835 13.1559 539.08 12.806 539.299 12.4561C539.519 12.1061 539.722 11.7684 539.91 11.4429C540.097 11.1174 540.272 10.8122 540.435 10.5273C540.597 10.2425 540.756 9.9943 540.911 9.78271C541.065 9.57113 541.216 9.4043 541.362 9.28223C541.517 9.16016 541.676 9.09912 541.838 9.09912C541.944 9.10726 542.038 9.15609 542.119 9.24561C542.201 9.33512 542.241 9.51009 542.241 9.77051C542.241 9.8112 542.241 9.86003 542.241 9.91699C542.241 9.96582 542.237 10.0146 542.229 10.0635V10.0391ZM549.561 15.2393C549.561 15.3532 549.52 15.5037 549.438 15.6909C549.357 15.8781 549.255 16.0775 549.133 16.2891C549.019 16.4925 548.893 16.696 548.755 16.8994C548.625 17.0947 548.507 17.2575 548.401 17.3877C548.075 17.7865 547.709 18.173 547.302 18.5474C546.903 18.9136 546.48 19.2391 546.033 19.5239C545.593 19.8006 545.138 20.0203 544.666 20.1831C544.202 20.354 543.742 20.4395 543.286 20.4395C542.57 20.4395 541.956 20.3052 541.443 20.0366C540.93 19.7762 540.507 19.3896 540.173 18.877C539.84 18.3643 539.591 17.7336 539.429 16.9849C539.274 16.2362 539.197 15.3817 539.197 14.4214C539.197 13.8436 539.225 13.2129 539.282 12.5293C539.339 11.8376 539.417 11.1255 539.514 10.3931C539.612 9.66064 539.73 8.92415 539.868 8.18359C540.007 7.4349 540.157 6.71875 540.32 6.03516C540.483 5.34342 540.653 4.69645 540.833 4.09424C541.02 3.49202 541.207 2.97119 541.394 2.53174C541.589 2.08415 541.785 1.73421 541.98 1.48193C542.175 1.22152 542.367 1.09131 542.554 1.09131C542.716 1.09131 542.863 1.12386 542.993 1.18896C543.132 1.25407 543.254 1.33545 543.359 1.43311C543.465 1.53076 543.559 1.64469 543.64 1.7749C543.722 1.89697 543.791 2.01904 543.848 2.14111C543.815 2.49919 543.75 2.95085 543.652 3.49609C543.555 4.04134 543.437 4.62321 543.298 5.2417C543.168 5.85205 543.03 6.47461 542.883 7.10938C542.745 7.736 542.615 8.31787 542.493 8.85498C542.403 9.25374 542.326 9.67285 542.261 10.1123C542.196 10.5518 542.139 10.9912 542.09 11.4307C542.049 11.8701 542.017 12.3055 541.992 12.7368C541.976 13.16 541.968 13.5628 541.968 13.9453C541.968 15.1986 542.11 16.1589 542.395 16.8262C542.68 17.4935 543.156 17.8271 543.823 17.8271C544.238 17.8271 544.637 17.758 545.02 17.6196C545.41 17.4731 545.78 17.29 546.13 17.0703C546.488 16.8424 546.822 16.5861 547.131 16.3013C547.449 16.0164 547.734 15.7357 547.986 15.459C548.173 15.2555 548.364 15.0684 548.56 14.8975C548.763 14.7184 548.934 14.6289 549.072 14.6289C549.3 14.6289 549.438 14.6737 549.487 14.7632C549.536 14.8527 549.561 15.0114 549.561 15.2393ZM565.261 5.5957C565.261 5.41667 565.237 5.23356 565.188 5.04639C565.147 4.85921 565.078 4.69238 564.98 4.5459C564.891 4.39128 564.781 4.26514 564.651 4.16748C564.521 4.06982 564.37 4.021 564.199 4.021C564.012 4.021 563.829 4.08203 563.65 4.2041C563.479 4.32617 563.328 4.493 563.198 4.70459C563.068 4.90804 562.962 5.14811 562.881 5.4248C562.808 5.69336 562.771 5.97819 562.771 6.2793C562.771 6.7513 562.816 7.2111 562.905 7.65869C562.995 8.10628 563.117 8.51725 563.271 8.8916C563.556 8.67188 563.817 8.4318 564.053 8.17139C564.297 7.90283 564.508 7.62614 564.688 7.34131C564.867 7.05648 565.005 6.76758 565.103 6.47461C565.208 6.1735 565.261 5.88053 565.261 5.5957ZM562.161 18.3154C562.779 18.3154 563.349 18.2096 563.87 17.998C564.399 17.7865 564.862 17.5382 565.261 17.2534C564.561 16.5373 563.918 15.7723 563.333 14.9585C562.755 14.1447 562.25 13.3431 561.819 12.5537C561.493 12.7734 561.188 13.0176 560.903 13.2861C560.627 13.5547 560.382 13.8436 560.171 14.1528C559.967 14.4621 559.805 14.7876 559.683 15.1294C559.569 15.4712 559.512 15.8252 559.512 16.1914C559.512 16.4925 559.565 16.7733 559.67 17.0337C559.776 17.2941 559.939 17.5179 560.159 17.7051C560.378 17.8923 560.655 18.0428 560.989 18.1567C561.322 18.2625 561.713 18.3154 562.161 18.3154ZM575.564 10.7959C575.564 11.154 575.47 11.4632 575.283 11.7236C575.104 11.9759 574.836 12.1387 574.478 12.2119C574.176 12.3014 573.892 12.3584 573.623 12.3828C573.354 12.3991 573.11 12.4276 572.891 12.4683C572.606 12.5252 572.386 12.7002 572.231 12.9932C572.044 13.3512 571.833 13.7174 571.597 14.0918C571.369 14.4661 571.129 14.8283 570.876 15.1782C570.624 15.5282 570.368 15.8537 570.107 16.1548C569.855 16.4559 569.611 16.7122 569.375 16.9238C569.774 17.2087 570.205 17.4325 570.669 17.5952C571.141 17.7498 571.58 17.8271 571.987 17.8271C572.199 17.8271 572.374 17.8109 572.512 17.7783C572.651 17.7458 572.769 17.7132 572.866 17.6807C572.972 17.64 573.062 17.6074 573.135 17.583C573.216 17.5505 573.306 17.5342 573.403 17.5342C573.631 17.5342 573.81 17.6278 573.94 17.8149C574.071 18.0021 574.136 18.234 574.136 18.5107C574.136 18.641 574.079 18.8241 573.965 19.0601C573.859 19.2879 573.7 19.5158 573.489 19.7437C573.277 19.9634 573.013 20.1546 572.695 20.3174C572.378 20.4801 572.012 20.5615 571.597 20.5615C570.734 20.5615 569.928 20.411 569.18 20.1099C568.439 19.8169 567.739 19.4222 567.08 18.9258C566.73 19.1862 566.331 19.4344 565.884 19.6704C565.436 19.9064 564.96 20.1139 564.456 20.293C563.959 20.472 563.442 20.6104 562.905 20.708C562.376 20.8138 561.847 20.8667 561.318 20.8667C560.586 20.8667 559.919 20.7568 559.316 20.5371C558.714 20.3174 558.197 20.0081 557.766 19.6094C557.343 19.2025 557.013 18.7223 556.777 18.1689C556.549 17.6074 556.436 16.9849 556.436 16.3013C556.436 15.6991 556.537 15.1253 556.741 14.5801C556.952 14.0348 557.237 13.5221 557.595 13.042C557.961 12.5537 558.385 12.1021 558.865 11.687C559.353 11.2638 559.874 10.8773 560.427 10.5273C560.533 10.4622 560.606 10.3931 560.647 10.3198C560.688 10.2466 560.708 10.1733 560.708 10.1001C560.708 9.9943 560.671 9.84375 560.598 9.64844C560.525 9.44499 560.444 9.19678 560.354 8.90381C560.264 8.6027 560.183 8.2609 560.11 7.87842C560.037 7.48779 560 7.05241 560 6.57227C560 5.88867 560.106 5.24984 560.317 4.65576C560.529 4.05355 560.83 3.53271 561.221 3.09326C561.611 2.65381 562.079 2.30794 562.625 2.05566C563.178 1.79525 563.792 1.66504 564.468 1.66504C565.062 1.66504 565.575 1.78711 566.006 2.03125C566.445 2.26725 566.803 2.5765 567.08 2.95898C567.365 3.33333 567.576 3.74837 567.715 4.2041C567.853 4.65169 567.922 5.09115 567.922 5.52246C567.922 6.03516 567.837 6.51937 567.666 6.9751C567.503 7.42269 567.279 7.854 566.995 8.26904C566.71 8.67594 566.372 9.06657 565.981 9.44092C565.591 9.81527 565.168 10.1774 564.712 10.5273C564.557 10.6413 564.451 10.7471 564.395 10.8447C564.346 10.9424 564.321 11.036 564.321 11.1255C564.321 11.2557 564.366 11.4307 564.456 11.6504C564.545 11.862 564.671 12.0898 564.834 12.334C565.298 13.0176 565.766 13.6483 566.238 14.2261C566.71 14.7957 567.153 15.2515 567.568 15.5933C567.739 15.4224 567.922 15.2067 568.118 14.9463C568.321 14.6859 568.512 14.4132 568.691 14.1284C568.87 13.8436 569.025 13.5628 569.155 13.2861C569.294 13.0094 569.387 12.7653 569.436 12.5537C569.281 12.5374 569.131 12.5252 568.984 12.5171C568.838 12.5008 568.691 12.4764 568.545 12.4438C568 12.3787 567.621 12.2119 567.41 11.9434C567.206 11.6667 567.104 11.3371 567.104 10.9546C567.104 10.7837 567.145 10.625 567.227 10.4785C567.308 10.3239 567.406 10.1937 567.52 10.0879C567.633 9.9821 567.76 9.90072 567.898 9.84375C568.036 9.77865 568.158 9.74609 568.264 9.74609C568.451 9.74609 568.634 9.77458 568.813 9.83154C569.001 9.88037 569.208 9.94141 569.436 10.0146C569.664 10.0798 569.928 10.1408 570.229 10.1978C570.539 10.2466 570.905 10.271 571.328 10.271C571.719 10.271 572.073 10.2588 572.39 10.2344C572.716 10.21 573.009 10.1815 573.269 10.1489C573.538 10.1164 573.782 10.0879 574.001 10.0635C574.221 10.0391 574.425 10.0269 574.612 10.0269C575.247 10.0269 575.564 10.2832 575.564 10.7959ZM604.656 1.44531C604.656 1.86035 604.607 2.39746 604.509 3.05664C604.42 3.71582 604.294 4.48893 604.131 5.37598C603.952 6.33626 603.765 7.37793 603.569 8.50098C603.374 9.61589 603.232 10.7552 603.142 11.9189C603.142 11.9759 603.134 12.1183 603.118 12.3462C603.101 12.5741 603.081 12.863 603.057 13.2129C603.032 13.5628 603.004 13.9616 602.971 14.4092C602.947 14.8486 602.922 15.3166 602.898 15.813C602.874 16.3013 602.853 16.8018 602.837 17.3145C602.821 17.8271 602.812 18.3276 602.812 18.8159C602.812 19.0926 602.76 19.3408 602.654 19.5605C602.556 19.7721 602.422 19.9512 602.251 20.0977C602.08 20.2523 601.881 20.3662 601.653 20.4395C601.425 20.5208 601.185 20.5615 600.933 20.5615C600.786 20.5615 600.623 20.529 600.444 20.4639C600.273 20.4069 600.111 20.3174 599.956 20.1953C599.81 20.0814 599.683 19.9349 599.578 19.7559C599.472 19.5768 599.419 19.3652 599.419 19.1211C599.419 18.9583 599.435 18.7305 599.468 18.4375C599.508 18.1445 599.553 17.8149 599.602 17.4487C599.659 17.0825 599.72 16.6919 599.785 16.2769C599.85 15.8618 599.907 15.4508 599.956 15.0439C600.013 14.637 600.058 14.2505 600.09 13.8843C600.131 13.5181 600.151 13.2007 600.151 12.9321C600.151 12.7856 600.139 12.6554 600.115 12.5415C600.09 12.4276 600.021 12.3706 599.907 12.3706C599.663 12.3706 599.333 12.3869 598.918 12.4194C598.503 12.4438 598.068 12.4764 597.612 12.5171C597.165 12.5496 596.725 12.5822 596.294 12.6147C595.871 12.6392 595.525 12.6514 595.256 12.6514C595.199 12.6514 595.057 12.6595 594.829 12.6758C594.609 12.6839 594.345 12.6961 594.036 12.7124C593.735 12.7287 593.409 12.7531 593.059 12.7856C592.709 12.8101 592.38 12.8345 592.07 12.8589C591.761 12.8833 591.493 12.9118 591.265 12.9443C591.045 12.9688 590.907 12.9932 590.85 13.0176C590.809 13.0583 590.76 13.2251 590.703 13.5181C590.654 13.811 590.601 14.1528 590.544 14.5435C590.496 14.9259 590.451 15.3166 590.41 15.7153C590.369 16.106 590.341 16.4233 590.325 16.6675C590.325 17.1802 590.292 17.6807 590.227 18.1689C590.17 18.6572 590.064 19.0926 589.91 19.4751C589.763 19.8576 589.568 20.1628 589.324 20.3906C589.08 20.6266 588.774 20.7446 588.408 20.7446C588.18 20.7446 587.973 20.6877 587.786 20.5737C587.607 20.4598 587.452 20.3133 587.322 20.1343C587.192 19.9552 587.09 19.764 587.017 19.5605C586.943 19.349 586.907 19.1536 586.907 18.9746C586.907 18.8037 586.923 18.6043 586.956 18.3765C586.996 18.1486 587.041 17.9207 587.09 17.6929C587.139 17.465 587.183 17.2575 587.224 17.0703C587.265 16.875 587.289 16.7326 587.297 16.6431C587.403 16.1466 587.509 15.5729 587.615 14.9219C587.729 14.2708 587.839 13.5669 587.944 12.8101C588.058 12.0451 588.168 11.2435 588.274 10.4053C588.388 9.56706 588.494 8.71663 588.591 7.854C588.697 6.98324 588.799 6.11654 588.896 5.25391C588.994 4.39128 589.084 3.55713 589.165 2.75146C589.181 2.62939 589.226 2.50326 589.299 2.37305C589.381 2.2347 589.482 2.11263 589.604 2.00684C589.735 1.8929 589.881 1.79932 590.044 1.72607C590.207 1.65283 590.378 1.61621 590.557 1.61621C590.597 1.61621 590.634 1.62028 590.667 1.62842C590.699 1.62842 590.736 1.63249 590.776 1.64062C591.086 1.69759 591.334 1.77897 591.521 1.88477C591.708 1.98242 591.851 2.10856 591.948 2.26318C592.046 2.41781 592.111 2.60091 592.144 2.8125C592.176 3.02409 592.192 3.26823 592.192 3.54492C592.192 4.06576 592.156 4.611 592.083 5.18066C592.009 5.74219 591.908 6.31592 591.777 6.90186C591.72 7.17041 591.663 7.45117 591.606 7.74414C591.558 8.03711 591.513 8.33008 591.472 8.62305C591.431 8.91602 591.399 9.20085 591.375 9.47754C591.35 9.74609 591.338 9.99837 591.338 10.2344C591.354 10.2588 591.395 10.2791 591.46 10.2954C591.533 10.3117 591.615 10.3239 591.704 10.332C591.794 10.3402 591.883 10.3483 591.973 10.3564C592.07 10.3564 592.152 10.3564 592.217 10.3564C592.339 10.3564 592.546 10.3564 592.839 10.3564C593.132 10.3483 593.474 10.3361 593.865 10.3198C594.255 10.3035 594.679 10.2873 595.134 10.271C595.598 10.2466 596.062 10.2181 596.526 10.1855C596.998 10.153 597.454 10.1164 597.893 10.0757C598.333 10.0269 598.731 9.97396 599.089 9.91699C599.447 9.86003 599.74 9.79492 599.968 9.72168C600.204 9.64844 600.351 9.56706 600.408 9.47754C600.448 9.42057 600.501 9.25781 600.566 8.98926C600.632 8.71257 600.701 8.3667 600.774 7.95166C600.855 7.53662 600.933 7.06868 601.006 6.54785C601.087 6.01888 601.16 5.46956 601.226 4.8999C601.291 4.33024 601.344 3.75651 601.384 3.17871C601.425 2.60091 601.445 2.0516 601.445 1.53076C601.445 1.43311 601.486 1.31104 601.567 1.16455C601.649 1.01807 601.759 0.875651 601.897 0.737305C602.035 0.59082 602.202 0.46875 602.397 0.371094C602.593 0.273438 602.8 0.224609 603.02 0.224609C603.167 0.224609 603.333 0.249023 603.521 0.297852C603.708 0.34668 603.883 0.419922 604.045 0.517578C604.216 0.615234 604.359 0.741374 604.473 0.895996C604.587 1.05062 604.648 1.23372 604.656 1.44531ZM612.39 12.1753C612.39 11.9881 612.382 11.8376 612.366 11.7236C612.358 11.6097 612.341 11.5161 612.317 11.4429C612.292 11.3696 612.26 11.3127 612.219 11.272C612.187 11.2231 612.15 11.1784 612.109 11.1377C612.028 11.0482 611.938 10.9424 611.841 10.8203C611.743 10.6901 611.65 10.568 611.56 10.4541C611.479 10.332 611.401 10.2303 611.328 10.1489C611.263 10.0594 611.214 10.0146 611.182 10.0146C610.97 10.0146 610.746 10.0879 610.51 10.2344C610.282 10.3809 610.055 10.5802 609.827 10.8325C609.599 11.0848 609.375 11.3818 609.155 11.7236C608.944 12.0654 608.744 12.4357 608.557 12.8345C608.403 13.1681 608.248 13.5303 608.093 13.9209C607.947 14.3115 607.812 14.7103 607.69 15.1172C607.568 15.5241 607.471 15.9269 607.397 16.3257C607.324 16.7163 607.288 17.0825 607.288 17.4243C607.288 17.6359 607.373 17.8231 607.544 17.9858C607.723 18.1405 607.979 18.2178 608.313 18.2178C608.459 18.2178 608.651 18.1689 608.887 18.0713C609.123 17.9736 609.367 17.8556 609.619 17.7173C609.871 17.5708 610.111 17.4162 610.339 17.2534C610.567 17.0825 610.746 16.9279 610.876 16.7896C611.243 16.4071 611.528 16.0571 611.731 15.7397C611.934 15.4142 612.085 15.0806 612.183 14.7388C612.28 14.397 612.337 14.0267 612.354 13.6279C612.378 13.221 612.39 12.7368 612.39 12.1753ZM622.437 9.34326C622.437 9.5874 622.359 9.8234 622.205 10.0513C622.058 10.271 621.855 10.4826 621.594 10.686C621.342 10.8813 621.045 11.0645 620.703 11.2354C620.361 11.4062 620.003 11.5568 619.629 11.687C619.263 11.8172 618.884 11.9312 618.494 12.0288C618.111 12.1183 617.745 12.1834 617.395 12.2241C617.362 12.2241 617.277 12.2282 617.139 12.2363C617 12.2445 616.833 12.2567 616.638 12.2729C616.443 12.2811 616.235 12.2933 616.016 12.3096C615.796 12.3177 615.588 12.3218 615.393 12.3218C615.279 12.3218 615.161 12.3218 615.039 12.3218C614.917 12.3136 614.823 12.3014 614.758 12.2852C614.775 12.4072 614.787 12.513 614.795 12.6025C614.803 12.6839 614.811 12.7612 614.819 12.8345C614.827 12.8996 614.832 12.9688 614.832 13.042C614.832 13.1071 614.832 13.1885 614.832 13.2861V14.5435C614.832 14.7388 614.811 14.9544 614.771 15.1904C614.73 15.4264 614.673 15.6624 614.6 15.8984C614.526 16.1344 614.437 16.3623 614.331 16.582C614.233 16.7936 614.119 16.9849 613.989 17.1558C613.802 17.408 613.566 17.6644 613.281 17.9248C613.005 18.1771 612.695 18.4253 612.354 18.6694C612.012 18.9054 611.646 19.1292 611.255 19.3408C610.872 19.5443 610.486 19.7274 610.095 19.8901C609.713 20.0448 609.334 20.1668 608.96 20.2563C608.586 20.3459 608.236 20.3906 607.91 20.3906C607.292 20.3906 606.779 20.2889 606.372 20.0854C605.973 19.8901 605.652 19.6257 605.408 19.292C605.172 18.9502 605.005 18.5555 604.907 18.1079C604.818 17.6522 604.773 17.172 604.773 16.6675C604.773 16.2687 604.81 15.8781 604.883 15.4956C604.964 15.1131 605.07 14.7347 605.2 14.3604C605.33 13.986 605.481 13.6198 605.652 13.2617C605.823 12.8955 605.998 12.5334 606.177 12.1753C606.331 11.8742 606.49 11.5649 606.653 11.2476C606.816 10.9302 606.978 10.6291 607.141 10.3442C607.369 9.93734 607.593 9.56299 607.812 9.22119C608.04 8.87939 608.313 8.58643 608.63 8.34229C608.948 8.09814 609.33 7.91097 609.778 7.78076C610.234 7.64242 610.795 7.57324 611.462 7.57324C611.739 7.57324 611.979 7.60173 612.183 7.65869C612.386 7.71566 612.569 7.79704 612.732 7.90283C612.895 8.00863 613.041 8.1429 613.171 8.30566C613.31 8.46029 613.448 8.63932 613.586 8.84277C613.692 8.9974 613.794 9.13981 613.892 9.27002C613.997 9.40023 614.115 9.51416 614.246 9.61182C614.384 9.70133 614.551 9.77051 614.746 9.81934C614.941 9.86816 615.186 9.89258 615.479 9.89258C615.869 9.89258 616.191 9.89258 616.443 9.89258C616.703 9.89258 616.915 9.89258 617.078 9.89258C617.24 9.88444 617.371 9.8763 617.468 9.86816C617.574 9.86003 617.668 9.85189 617.749 9.84375C618.066 9.80306 618.359 9.76237 618.628 9.72168C618.896 9.67285 619.161 9.61995 619.421 9.56299C619.682 9.50602 619.946 9.44092 620.215 9.36768C620.483 9.2863 620.776 9.19678 621.094 9.09912C621.2 9.06657 621.305 9.03402 621.411 9.00146C621.525 8.96077 621.647 8.94043 621.777 8.94043C622.005 8.94043 622.172 8.96891 622.278 9.02588C622.384 9.07471 622.437 9.1805 622.437 9.34326ZM620.393 21.6479C620.222 21.6479 620.019 21.6032 619.783 21.5137C619.555 21.4323 619.339 21.3062 619.136 21.1353C618.932 20.9725 618.757 20.7731 618.611 20.5371C618.472 20.3011 618.403 20.0366 618.403 19.7437L618.477 19.3286C618.306 19.2879 618.159 19.235 618.037 19.1699C617.923 19.0967 617.842 18.9624 617.793 18.7671C617.744 18.4985 617.72 18.2585 617.72 18.0469C617.72 17.8841 617.728 17.7173 617.744 17.5464C617.76 17.3674 617.789 17.1598 617.83 16.9238C617.952 16.1019 618.086 15.1986 618.232 14.2139C618.387 13.2292 618.582 12.1061 618.818 10.8447C618.916 10.3402 619.022 9.80306 619.136 9.2334C619.25 8.66374 619.368 8.09814 619.49 7.53662C619.62 6.9751 619.746 6.44206 619.868 5.9375C619.998 5.43294 620.116 4.99756 620.222 4.63135C620.385 4.07796 620.544 3.63851 620.698 3.31299C620.861 2.97933 621.028 2.72298 621.199 2.54395C621.378 2.36491 621.565 2.24691 621.76 2.18994C621.964 2.13298 622.188 2.10449 622.432 2.10449C622.546 2.10449 622.66 2.12891 622.773 2.17773C622.887 2.21842 622.989 2.29574 623.079 2.40967C623.176 2.51546 623.254 2.66195 623.311 2.84912C623.376 3.02816 623.408 3.25195 623.408 3.52051C623.408 3.88672 623.359 4.30176 623.262 4.76562C623.172 5.22949 623.058 5.70964 622.92 6.20605C622.79 6.69434 622.647 7.17855 622.493 7.65869C622.338 8.13883 622.2 8.57829 622.078 8.97705C621.996 9.21305 621.899 9.51823 621.785 9.89258C621.671 10.2588 621.549 10.6616 621.418 11.1011C621.288 11.5324 621.154 11.984 621.016 12.4561C620.877 12.9281 620.743 13.3919 620.613 13.8477C621.028 13.1885 621.5 12.5781 622.029 12.0166C622.566 11.4469 623.107 10.9546 623.652 10.5396C624.206 10.1245 624.743 9.79899 625.264 9.56299C625.793 9.32699 626.257 9.20898 626.655 9.20898C627.013 9.20898 627.343 9.2985 627.644 9.47754C627.945 9.64844 628.201 9.8763 628.413 10.1611C628.633 10.4378 628.804 10.7552 628.926 11.1133C629.048 11.4714 629.109 11.8376 629.109 12.2119C629.109 12.3828 629.084 12.6025 629.036 12.8711C628.987 13.1396 628.905 13.4367 628.792 13.7622C628.686 14.0877 628.543 14.4295 628.364 14.7876C628.193 15.1375 627.986 15.4793 627.742 15.813C628.287 15.3735 628.84 14.9097 629.402 14.4214C629.963 13.9331 630.5 13.4163 631.013 12.8711C631.534 12.3177 632.014 11.7318 632.454 11.1133C632.893 10.4948 633.259 9.83561 633.552 9.13574C633.617 8.98926 633.687 8.84684 633.76 8.7085C633.841 8.56201 633.927 8.4318 634.016 8.31787C634.114 8.1958 634.22 8.10221 634.333 8.03711C634.447 7.96387 634.569 7.92725 634.7 7.92725C634.895 7.92725 635.046 8.00456 635.151 8.15918C635.265 8.3138 635.322 8.54574 635.322 8.85498C635.322 8.92008 635.302 9.03402 635.261 9.19678C635.229 9.3514 635.188 9.5223 635.139 9.70947C635.09 9.88851 635.037 10.0635 634.98 10.2344C634.932 10.4053 634.887 10.5355 634.846 10.625C634.667 11.0319 634.435 11.4795 634.15 11.9678C633.866 12.4479 633.528 12.9443 633.137 13.457C632.747 13.9697 632.299 14.4906 631.794 15.0195C631.29 15.5404 630.728 16.0449 630.11 16.5332C629.768 16.8018 629.341 17.1151 628.828 17.4731C628.324 17.8312 627.774 18.2015 627.18 18.584C626.586 18.9583 625.968 19.3286 625.325 19.6948C624.682 20.061 624.055 20.3866 623.445 20.6714C622.843 20.9644 622.277 21.2004 621.748 21.3794C621.219 21.5584 620.767 21.6479 620.393 21.6479ZM626.033 11.687C625.675 11.687 625.296 11.805 624.897 12.041C624.499 12.2689 624.096 12.5781 623.689 12.9688C623.29 13.3512 622.9 13.7907 622.517 14.2871C622.135 14.7835 621.777 15.2962 621.443 15.8252C621.117 16.3542 620.828 16.8791 620.576 17.3999C620.332 17.9207 620.145 18.3968 620.015 18.8281C620.104 18.9909 620.202 19.1292 620.308 19.2432C620.422 19.3571 620.552 19.4141 620.698 19.4141C620.967 19.4141 621.264 19.3612 621.589 19.2554C621.915 19.1496 622.228 19.0234 622.529 18.877C622.83 18.7305 623.099 18.5799 623.335 18.4253C623.579 18.2707 623.754 18.1445 623.86 18.0469C624.128 17.7865 624.417 17.4325 624.727 16.9849C625.044 16.5373 625.333 16.0571 625.593 15.5444C625.862 15.0317 626.086 14.5231 626.265 14.0186C626.444 13.514 626.533 13.0827 626.533 12.7246C626.533 12.5944 626.521 12.4683 626.497 12.3462C626.472 12.2241 626.44 12.1143 626.399 12.0166C626.358 11.9189 626.305 11.8416 626.24 11.7847C626.175 11.7196 626.106 11.687 626.033 11.687ZM650.43 9.74609C650.43 9.97396 650.352 10.2222 650.198 10.4907C650.043 10.7511 649.832 11.0238 649.563 11.3086C649.303 11.5853 649.001 11.866 648.66 12.1509C648.326 12.4276 647.976 12.7043 647.61 12.981C647.244 13.2495 646.877 13.5099 646.511 13.7622C646.153 14.0145 645.815 14.2464 645.498 14.458C645.384 14.5394 645.168 14.6859 644.851 14.8975C644.542 15.109 644.184 15.3532 643.777 15.6299C643.37 15.9066 642.935 16.2036 642.471 16.521C642.015 16.8302 641.58 17.1273 641.165 17.4121C640.758 17.6888 640.4 17.937 640.09 18.1567C639.781 18.3765 639.565 18.5311 639.443 18.6206C639.272 18.7508 639.114 18.8851 638.967 19.0234C638.821 19.1536 638.67 19.2879 638.516 19.4263C638.369 19.5646 638.202 19.7111 638.015 19.8657C637.836 20.0203 637.625 20.1872 637.38 20.3662C636.917 20.7161 636.355 20.8911 635.696 20.8911C635.533 20.8911 635.362 20.8708 635.183 20.8301C635.004 20.7975 634.837 20.7406 634.683 20.6592C634.536 20.5778 634.414 20.4679 634.316 20.3296C634.219 20.1912 634.17 20.0163 634.17 19.8047C634.17 19.6419 634.231 19.467 634.353 19.2798C634.483 19.0926 634.646 18.9054 634.841 18.7183C635.045 18.5311 635.264 18.3521 635.5 18.1812C635.745 18.0021 635.981 17.8394 636.208 17.6929C636.436 17.5382 636.64 17.408 636.819 17.3022C636.998 17.1883 637.128 17.1069 637.209 17.0581C637.584 16.8221 637.909 16.6146 638.186 16.4355C638.471 16.2484 638.731 16.0612 638.967 15.874C639.203 15.6868 639.427 15.4834 639.639 15.2637C639.858 15.0358 640.086 14.7673 640.322 14.458C640.452 14.2871 640.579 14.0959 640.701 13.8843C640.831 13.6727 640.945 13.4489 641.042 13.2129C641.148 12.9769 641.23 12.7409 641.287 12.5049C641.352 12.2607 641.384 12.0288 641.384 11.8091C641.384 11.4429 641.352 11.1296 641.287 10.8691C641.23 10.6087 641.152 10.3971 641.055 10.2344C640.957 10.0635 640.843 9.93734 640.713 9.85596C640.591 9.77458 640.465 9.73389 640.334 9.73389C640.009 9.73389 639.683 9.8112 639.358 9.96582C639.032 10.1204 638.715 10.3239 638.406 10.5762C638.097 10.8285 637.791 11.1174 637.49 11.4429C637.197 11.7684 636.921 12.1021 636.66 12.4438C636.4 12.7775 636.156 13.1112 635.928 13.4448C635.7 13.7703 635.496 14.0674 635.317 14.3359C634.951 14.873 634.67 15.3857 634.475 15.874C634.28 16.3623 634.174 16.7814 634.158 17.1313L634.207 18.1445C634.19 18.4863 634.052 18.7508 633.792 18.938C633.531 19.1252 633.218 19.2188 632.852 19.2188C632.38 19.2188 632.03 18.9705 631.802 18.4741C631.582 17.9777 631.472 17.1802 631.472 16.0815C631.472 15.5444 631.501 14.9626 631.558 14.3359C631.615 13.7012 631.684 13.0501 631.765 12.3828C631.855 11.7074 631.952 11.0319 632.058 10.3564C632.164 9.67285 632.27 9.01367 632.375 8.37891C632.4 8.23242 632.437 7.99235 632.485 7.65869C632.542 7.31689 632.607 6.93034 632.681 6.49902C632.754 6.06771 632.827 5.61605 632.9 5.14404C632.982 4.67204 633.055 4.22445 633.12 3.80127C633.193 3.37809 633.258 3.00781 633.315 2.69043C633.372 2.37305 633.413 2.15332 633.438 2.03125C633.486 1.79525 633.568 1.57552 633.682 1.37207C633.804 1.16862 633.938 0.993652 634.084 0.847168C634.231 0.700684 634.382 0.586751 634.536 0.505371C634.699 0.423991 634.849 0.383301 634.988 0.383301C635.289 0.383301 635.537 0.419922 635.732 0.493164C635.936 0.558268 636.095 0.655924 636.208 0.786133C636.331 0.908203 636.416 1.06283 636.465 1.25C636.514 1.43717 636.538 1.64876 636.538 1.88477C636.538 1.8929 636.522 1.97428 636.489 2.12891C636.465 2.27539 636.428 2.4585 636.379 2.67822C636.339 2.88981 636.294 3.12174 636.245 3.37402C636.196 3.6263 636.147 3.8623 636.099 4.08203C636.058 4.30176 636.021 4.48893 635.989 4.64355C635.964 4.79004 635.948 4.87142 635.94 4.8877C635.802 5.5957 635.651 6.29557 635.488 6.9873C635.326 7.6709 635.167 8.33008 635.012 8.96484C634.866 9.59147 634.731 10.1733 634.609 10.7104C634.487 11.2476 634.402 11.7155 634.353 12.1143C634.548 11.7887 634.78 11.4551 635.049 11.1133C635.326 10.7633 635.618 10.4256 635.928 10.1001C636.237 9.77458 636.55 9.4694 636.868 9.18457C637.185 8.89974 637.482 8.65967 637.759 8.46436C638.247 8.11442 638.711 7.85807 639.15 7.69531C639.598 7.53255 640.054 7.45117 640.518 7.45117C641.03 7.45117 641.502 7.57324 641.934 7.81738C642.373 8.06152 642.751 8.37891 643.069 8.76953C643.386 9.16016 643.634 9.59554 643.813 10.0757C643.993 10.5558 644.082 11.0278 644.082 11.4917C644.082 11.5731 644.074 11.6829 644.058 11.8213C644.041 11.9596 644.013 12.1102 643.972 12.2729C643.931 12.4357 643.879 12.6066 643.813 12.7856C643.748 12.9565 643.667 13.1152 643.569 13.2617C643.984 12.9606 644.42 12.6554 644.875 12.3462C645.339 12.0288 645.799 11.7114 646.255 11.394C646.719 11.0685 647.17 10.743 647.61 10.4175C648.057 10.092 648.477 9.77051 648.867 9.45312C649.071 9.28223 649.266 9.16829 649.453 9.11133C649.648 9.05436 649.775 9.02588 649.832 9.02588C650.068 9.04215 650.226 9.13167 650.308 9.29443C650.389 9.45719 650.43 9.60775 650.43 9.74609ZM652.585 2.6416C652.585 2.73112 652.557 2.88167 652.5 3.09326C652.443 3.29671 652.378 3.51237 652.305 3.74023C652.231 3.95996 652.154 4.16748 652.073 4.36279C652 4.54997 651.943 4.67611 651.902 4.74121C651.861 4.81445 651.788 4.89583 651.682 4.98535C651.576 5.07487 651.454 5.16032 651.316 5.2417C651.186 5.31494 651.051 5.38005 650.913 5.43701C650.775 5.49398 650.653 5.52246 650.547 5.52246C650.425 5.52246 650.286 5.47363 650.132 5.37598C649.985 5.27018 649.847 5.14404 649.717 4.99756C649.587 4.84294 649.477 4.68018 649.387 4.50928C649.298 4.33838 649.253 4.17969 649.253 4.0332C649.253 3.77279 649.326 3.49202 649.473 3.19092C649.619 2.88167 649.81 2.59684 650.046 2.33643C650.291 2.06787 650.559 1.84814 650.852 1.67725C651.145 1.49821 651.438 1.40869 651.731 1.40869C651.82 1.40869 651.914 1.44124 652.012 1.50635C652.118 1.56331 652.211 1.64876 652.292 1.7627C652.382 1.86849 652.451 1.9987 652.5 2.15332C652.557 2.2998 652.585 2.46257 652.585 2.6416ZM658.567 16.2646C657.094 17.4528 655.719 18.3724 654.441 19.0234C653.171 19.6745 652.016 20 650.974 20C650.38 20 649.851 19.9349 649.387 19.8047C648.923 19.6745 648.533 19.4548 648.215 19.1455C647.906 18.8281 647.67 18.409 647.507 17.8882C647.345 17.3592 647.263 16.7 647.263 15.9106C647.263 15.7072 647.296 15.4264 647.361 15.0684C647.434 14.7103 647.511 14.3359 647.593 13.9453C647.674 13.5547 647.747 13.1803 647.812 12.8223C647.886 12.4642 647.922 12.1794 647.922 11.9678C647.922 11.6911 647.918 11.4632 647.91 11.2842C647.91 11.097 647.91 10.9383 647.91 10.8081C647.91 10.6209 647.935 10.4378 647.983 10.2588C648.032 10.0716 648.126 9.90479 648.264 9.7583C648.411 9.61182 648.614 9.49382 648.875 9.4043C649.143 9.30664 649.493 9.25781 649.924 9.25781C650.063 9.25781 650.197 9.28223 650.327 9.33105C650.457 9.37988 650.571 9.44906 650.669 9.53857C650.775 9.61995 650.86 9.72168 650.925 9.84375C650.99 9.95768 651.023 10.0879 651.023 10.2344C651.023 10.5436 650.966 10.9424 650.852 11.4307C650.738 11.9108 650.612 12.4154 650.474 12.9443C650.335 13.4652 650.209 13.9738 650.095 14.4702C649.981 14.9666 649.924 15.3817 649.924 15.7153C649.924 16.3582 650.034 16.8384 650.254 17.1558C650.474 17.465 650.864 17.6196 651.426 17.6196C652.264 17.6196 653.224 17.3592 654.307 16.8384C655.397 16.3175 656.61 15.5078 657.944 14.4092C658.009 14.3522 658.087 14.2912 658.176 14.2261C658.274 14.1528 658.396 14.1162 658.542 14.1162C658.583 14.1162 658.644 14.1243 658.726 14.1406C658.807 14.1488 658.888 14.1732 658.97 14.2139C659.051 14.2546 659.12 14.3197 659.177 14.4092C659.242 14.4906 659.275 14.6004 659.275 14.7388C659.275 14.8201 659.271 14.9219 659.263 15.0439C659.255 15.1579 659.226 15.284 659.177 15.4224C659.137 15.5526 659.067 15.6909 658.97 15.8374C658.872 15.9839 658.738 16.1263 658.567 16.2646ZM662.664 9.31885C662.664 9.13981 662.643 8.96891 662.603 8.80615C662.57 8.64339 662.513 8.54167 662.432 8.50098C662.155 8.50098 661.858 8.61898 661.541 8.85498C661.231 9.09098 660.934 9.42871 660.649 9.86816C660.365 10.2995 660.108 10.8244 659.88 11.4429C659.661 12.0532 659.498 12.7327 659.392 13.4814C659.775 13.1966 660.157 12.8996 660.54 12.5903C660.93 12.2729 661.28 11.9434 661.589 11.6016C661.907 11.2598 662.163 10.9017 662.358 10.5273C662.562 10.1449 662.664 9.74202 662.664 9.31885ZM672.185 11.5649C672.185 11.7114 672.075 11.98 671.855 12.3706C671.432 12.981 670.96 13.5872 670.439 14.1895C669.927 14.7835 669.377 15.3491 668.792 15.8862C668.206 16.4233 667.595 16.9238 666.96 17.3877C666.326 17.8434 665.683 18.2381 665.032 18.5718C664.381 18.9054 663.73 19.1699 663.079 19.3652C662.436 19.5524 661.805 19.646 661.187 19.646C659.795 19.646 658.708 19.2554 657.927 18.4741C657.154 17.6847 656.768 16.4966 656.768 14.9097C656.768 14.2749 656.812 13.6523 656.902 13.042C656.991 12.4235 657.138 11.8172 657.341 11.2231C657.553 10.6209 657.826 10.0309 658.159 9.45312C658.493 8.87533 658.904 8.3138 659.392 7.76855C659.571 7.5651 659.779 7.36979 660.015 7.18262C660.259 6.99544 660.515 6.82861 660.784 6.68213C661.06 6.53564 661.345 6.41764 661.638 6.32812C661.939 6.23861 662.236 6.19385 662.529 6.19385C662.961 6.19385 663.331 6.27523 663.64 6.43799C663.958 6.60075 664.218 6.82048 664.421 7.09717C664.625 7.36572 664.775 7.67904 664.873 8.03711C664.971 8.38704 665.02 8.75732 665.02 9.14795C665.02 9.87223 664.751 10.625 664.214 11.4062C663.677 12.1794 662.932 12.9728 661.98 13.7866C661.671 14.047 661.313 14.3319 660.906 14.6411C660.499 14.9422 660.043 15.284 659.539 15.6665C659.555 15.87 659.612 16.0612 659.709 16.2402C659.815 16.4193 659.954 16.578 660.125 16.7163C660.304 16.8465 660.515 16.9523 660.759 17.0337C661.003 17.1069 661.28 17.1436 661.589 17.1436C661.988 17.1436 662.411 17.0947 662.859 16.9971C663.306 16.8913 663.75 16.7529 664.189 16.582C664.629 16.4111 665.056 16.2158 665.471 15.9961C665.886 15.7682 666.265 15.5322 666.606 15.2881C667.209 14.8568 667.786 14.3929 668.34 13.8965C668.901 13.3919 669.443 12.8792 669.963 12.3584L670.61 11.7114C671.058 11.3127 671.44 11.1133 671.758 11.1133C671.921 11.1133 672.03 11.1702 672.087 11.2842C672.153 11.39 672.185 11.4836 672.185 11.5649ZM676.257 17.1436C676.257 17.5667 676.176 17.9858 676.013 18.4009C675.859 18.8078 675.651 19.1943 675.391 19.5605C675.13 19.9268 674.829 20.2645 674.487 20.5737C674.146 20.883 673.792 21.1475 673.425 21.3672C673.059 21.5869 672.693 21.7578 672.327 21.8799C671.96 22.0101 671.619 22.0752 671.301 22.0752C670.805 22.0752 670.443 21.9531 670.215 21.709C669.987 21.473 669.873 21.1515 669.873 20.7446C669.873 20.5493 669.902 20.3621 669.958 20.1831C670.024 20.0122 670.113 19.8617 670.227 19.7314C670.341 19.5931 670.479 19.4873 670.642 19.4141C670.813 19.3327 671.004 19.292 671.216 19.292H671.436C671.598 19.292 671.781 19.2676 671.985 19.2188C672.188 19.1699 672.424 19.0356 672.693 18.8159C672.929 18.6206 673.1 18.3887 673.206 18.1201C673.319 17.8434 673.376 17.6034 673.376 17.3999C673.376 17.2209 673.332 17.054 673.242 16.8994C673.153 16.7367 673.035 16.578 672.888 16.4233C672.742 16.2687 672.571 16.1182 672.375 15.9717C672.188 15.8171 671.989 15.6624 671.777 15.5078C671.501 15.2962 671.22 15.0765 670.935 14.8486C670.658 14.6126 670.406 14.3644 670.178 14.104C669.95 13.8354 669.767 13.5547 669.629 13.2617C669.491 12.9606 669.421 12.6392 669.421 12.2974C669.421 11.9556 669.482 11.5975 669.604 11.2231C669.727 10.8488 669.889 10.4785 670.093 10.1123C670.304 9.74609 670.544 9.40023 670.813 9.07471C671.082 8.74919 671.358 8.46029 671.643 8.20801C671.936 7.95573 672.229 7.75635 672.522 7.60986C672.815 7.46338 673.088 7.39014 673.34 7.39014C673.755 7.39014 674.068 7.49186 674.28 7.69531C674.5 7.89876 674.609 8.22428 674.609 8.67188C674.609 8.88346 674.552 9.10319 674.438 9.33105C674.333 9.55078 674.194 9.77051 674.023 9.99023C673.861 10.2018 673.674 10.4093 673.462 10.6128C673.258 10.8162 673.059 11.0034 672.864 11.1743C672.693 11.3289 672.53 11.4551 672.375 11.5527C672.229 11.6504 672.091 11.7562 671.96 11.8701C672.042 12.0166 672.148 12.1672 672.278 12.3218C672.408 12.4683 672.55 12.6147 672.705 12.7612C672.86 12.8996 673.014 13.0339 673.169 13.1641C673.332 13.2943 673.482 13.4163 673.621 13.5303C673.922 13.7744 674.227 14.0308 674.536 14.2993C674.845 14.5679 675.126 14.8527 675.378 15.1538C675.639 15.4468 675.85 15.7601 676.013 16.0938C676.176 16.4193 676.257 16.7692 676.257 17.1436Z" fill="#D9D9D9"/>
<defs>
<linearGradient id="paint0_linear_42_38" x1="2.83531e-05" y1="12.5" x2="1150" y2="12.4956" gradientUnits="userSpaceOnUse">
<stop stop-color="#73F7FF"/>
<stop offset="0.330933" stop-color="#6391FF"/>
<stop offset="0.416916" stop-opacity="0"/>
<stop offset="0.578003" stop-opacity="0"/>
<stop offset="0.665105" stop-color="#5A5AFF"/>
<stop offset="1" stop-color="#E338FF"/>
</linearGradient>
<linearGradient id="paint1_linear_42_38" x1="2.83531e-05" y1="12.5" x2="1150" y2="12.4956" gradientUnits="userSpaceOnUse">
<stop stop-color="#73F7FF"/>
<stop offset="0.330933" stop-color="#6391FF"/>
<stop offset="0.416916" stop-opacity="0"/>
<stop offset="0.578003" stop-opacity="0"/>
<stop offset="0.665105" stop-color="#5A5AFF"/>
<stop offset="1" stop-color="#E338FF"/>
</linearGradient>
</defs>
</svg>
