<svg width="1150" height="22" viewBox="0 0 1150 22" fill="none" xmlns="http://www.w3.org/2000/svg">
<path d="M0 11.5C0 12.8807 1.11929 14 2.5 14H1147.5C1148.88 14 1150 12.8807 1150 11.5V11.5C1150 10.1193 1148.88 9 1147.5 9H1002.42H803.722H589.056H392.278H165.472H2.5C1.11929 9 0 10.1193 0 11.5V11.5Z" fill="url(#paint0_linear_42_38)"/>
<path d="M0 11.5C0 12.8807 1.11929 14 2.5 14H1147.5C1148.88 14 1150 12.8807 1150 11.5V11.5C1150 10.1193 1148.88 9 1147.5 9H1002.42H803.722H589.056H392.278H165.472H2.5C1.11929 9 0 10.1193 0 11.5V11.5Z" fill="url(#paint1_linear_42_38)"/>
<path d="M563.889 3.0332C563.889 3.28548 563.848 3.48893 563.767 3.64355C563.694 3.79004 563.596 3.90804 563.474 3.99756C563.352 4.07894 563.218 4.1359 563.071 4.16846C562.933 4.19287 562.799 4.20508 562.668 4.20508C562.375 4.20508 562.111 4.20508 561.875 4.20508C561.647 4.19694 561.423 4.1888 561.204 4.18066C560.984 4.17253 560.752 4.16846 560.508 4.16846C560.272 4.16032 559.995 4.15625 559.678 4.15625C559.474 4.15625 559.238 4.16846 558.97 4.19287C558.709 4.21729 558.437 4.24984 558.152 4.29053C557.867 4.33122 557.582 4.38005 557.297 4.43701C557.013 4.49398 556.748 4.55094 556.504 4.60791C556.26 4.66488 556.044 4.72591 555.857 4.79102C555.678 4.84798 555.548 4.90088 555.466 4.94971C555.409 4.98226 555.356 5.07585 555.308 5.23047C555.267 5.37695 555.247 5.50716 555.247 5.62109L554.929 8.55078C554.807 9.6901 554.689 10.8132 554.575 11.9199C554.469 13.0186 554.417 14.105 554.417 15.1792C554.417 15.3257 554.429 15.5373 554.453 15.814C554.478 16.0825 554.506 16.3511 554.539 16.6196C554.571 16.8882 554.6 17.1242 554.624 17.3276C554.648 17.5311 554.661 17.641 554.661 17.6572C554.661 17.8525 554.628 18.0519 554.563 18.2554C554.506 18.4588 554.421 18.6419 554.307 18.8047C554.193 18.9674 554.05 19.0977 553.879 19.1953C553.717 19.3011 553.529 19.354 553.318 19.354C553.18 19.354 553.033 19.3174 552.878 19.2441C552.724 19.179 552.573 19.0895 552.427 18.9756C552.28 18.8535 552.15 18.7152 552.036 18.5605C551.922 18.3978 551.833 18.2269 551.768 18.0479C551.694 17.8444 551.637 17.6084 551.597 17.3398C551.556 17.0713 551.523 16.7987 551.499 16.522C551.475 16.2371 551.458 15.9604 551.45 15.6919C551.442 15.4152 551.438 15.167 551.438 14.9473C551.438 14.5811 551.458 14.1213 551.499 13.5679C551.54 13.0063 551.589 12.4082 551.646 11.7734C551.711 11.1305 551.78 10.4795 551.853 9.82031C551.926 9.15299 551.995 8.53044 552.061 7.95264C552.134 7.3667 552.195 6.85807 552.244 6.42676C552.301 5.99544 552.337 5.69027 552.354 5.51123C552.093 5.51123 551.764 5.53564 551.365 5.58447C550.966 5.62516 550.535 5.67399 550.071 5.73096C549.485 5.8042 548.883 5.87337 548.264 5.93848C547.646 6.00358 547.06 6.03613 546.506 6.03613C546.392 6.03613 546.234 6.02799 546.03 6.01172C545.827 5.9873 545.627 5.94661 545.432 5.88965C545.237 5.82454 545.066 5.7391 544.919 5.6333C544.773 5.51937 544.7 5.37288 544.7 5.19385C544.683 5.12874 544.671 5.08805 544.663 5.07178C544.663 5.04736 544.663 4.99447 544.663 4.91309C544.663 4.77474 544.675 4.64046 544.7 4.51025C544.724 4.38005 544.769 4.26204 544.834 4.15625C544.899 4.04232 544.993 3.94466 545.115 3.86328C545.245 3.7819 545.408 3.7168 545.603 3.66797C546.059 3.55404 546.567 3.46859 547.129 3.41162C547.69 3.34652 548.252 3.31396 548.813 3.31396C548.919 3.31396 549.115 3.29769 549.399 3.26514C549.692 3.23258 550.03 3.19189 550.413 3.14307C550.803 3.09424 551.218 3.04134 551.658 2.98438C552.105 2.91927 552.528 2.85824 552.927 2.80127C553.334 2.7443 553.696 2.69141 554.014 2.64258C554.331 2.59375 554.563 2.55713 554.709 2.53271C555.238 2.43506 555.767 2.32926 556.296 2.21533C556.825 2.1014 557.354 1.99154 557.883 1.88574C558.412 1.77995 558.937 1.6945 559.458 1.62939C559.987 1.55615 560.508 1.51953 561.021 1.51953C561.086 1.51953 561.191 1.5236 561.338 1.53174C561.484 1.53174 561.651 1.53988 561.838 1.55615C562.026 1.57243 562.221 1.59684 562.424 1.62939C562.636 1.66195 562.831 1.70671 563.01 1.76367C563.149 1.80436 563.271 1.8776 563.376 1.9834C563.482 2.08919 563.572 2.20719 563.645 2.3374C563.726 2.46761 563.787 2.59782 563.828 2.72803C563.869 2.8501 563.889 2.95182 563.889 3.0332ZM570.403 11.5781C570.403 11.3747 570.391 11.1631 570.366 10.9434C570.35 10.7236 570.309 10.5202 570.244 10.333C570.179 10.1377 570.09 9.97087 569.976 9.83252C569.862 9.68604 569.711 9.58838 569.524 9.53955C569.239 9.46631 569.007 9.389 568.828 9.30762C568.649 9.2181 568.507 9.13672 568.401 9.06348C568.295 8.99023 568.222 8.9292 568.181 8.88037C568.14 8.83154 568.112 8.80713 568.096 8.80713C568.031 8.80713 567.937 8.8641 567.815 8.97803C567.701 9.08382 567.571 9.22217 567.424 9.39307C567.286 9.56396 567.139 9.74707 566.985 9.94238C566.838 10.1377 566.696 10.3208 566.558 10.4917C566.387 10.7033 566.224 10.9108 566.069 11.1143C565.923 11.3096 565.776 11.5171 565.63 11.7368C565.492 11.9484 565.353 12.1722 565.215 12.4082C565.076 12.6442 564.934 12.9046 564.788 13.1895C564.657 13.4499 564.56 13.7713 564.495 14.1538C564.43 14.5282 564.397 14.8822 564.397 15.2158C564.397 15.3542 564.413 15.4966 564.446 15.6431C564.478 15.7814 564.527 15.9076 564.592 16.0215C564.657 16.1354 564.743 16.229 564.849 16.3022C564.954 16.3755 565.085 16.4121 565.239 16.4121C565.614 16.4121 565.927 16.3958 566.179 16.3633C566.431 16.3226 566.667 16.2575 566.887 16.168C567.107 16.0703 567.327 15.9442 567.546 15.7896C567.774 15.6268 568.047 15.4274 568.364 15.1914C568.511 15.0775 568.657 14.9473 568.804 14.8008C568.95 14.6462 569.097 14.4834 569.243 14.3125C569.39 14.1335 569.532 13.9504 569.67 13.7632C569.809 13.5679 569.935 13.3807 570.049 13.2017C570.114 13.104 570.167 12.9779 570.208 12.8232C570.256 12.6605 570.293 12.4977 570.317 12.335C570.35 12.1722 570.37 12.0216 570.378 11.8833C570.395 11.745 570.403 11.6473 570.403 11.5903V11.5781ZM579.875 8.83154C579.875 8.97803 579.843 9.13265 579.778 9.29541C579.721 9.45817 579.639 9.61686 579.534 9.77148C579.428 9.91797 579.306 10.0563 579.167 10.1865C579.037 10.3167 578.903 10.4266 578.765 10.5161C578.472 10.7114 578.044 10.8823 577.483 11.0288C576.93 11.1753 576.258 11.2485 575.469 11.2485C575.241 11.2485 574.997 11.2323 574.736 11.1997C574.484 11.1672 574.224 11.1224 573.955 11.0654C573.695 11.0085 573.434 10.9393 573.174 10.8579C572.922 10.7684 572.677 10.6707 572.441 10.5649C572.49 10.6382 572.531 10.7399 572.563 10.8701C572.596 10.9922 572.616 11.1224 572.625 11.2607C572.641 11.3991 572.649 11.5334 572.649 11.6636C572.657 11.7856 572.661 11.8833 572.661 11.9565C572.661 12.4774 572.568 12.9982 572.38 13.519C572.201 14.0317 571.961 14.5241 571.66 14.9961C571.359 15.4681 571.017 15.9076 570.635 16.3145C570.252 16.7132 569.862 17.0591 569.463 17.3521C569.146 17.5881 568.792 17.7915 568.401 17.9624C568.018 18.1333 567.611 18.2757 567.18 18.3896C566.757 18.5036 566.318 18.589 565.862 18.646C565.414 18.703 564.958 18.7314 564.495 18.7314C564.112 18.7314 563.746 18.6379 563.396 18.4507C563.046 18.2635 562.737 18.0234 562.468 17.7305C562.208 17.4294 561.996 17.0916 561.833 16.7173C561.679 16.3429 561.602 15.9727 561.602 15.6064C561.602 14.9554 561.687 14.3288 561.858 13.7266C562.037 13.1243 562.273 12.5425 562.566 11.981C562.859 11.4194 563.201 10.8701 563.591 10.333C563.982 9.78776 564.393 9.25065 564.824 8.72168C565.076 8.41243 565.365 8.11133 565.691 7.81836C566.016 7.52539 566.358 7.26497 566.716 7.03711C567.083 6.80111 567.449 6.61393 567.815 6.47559C568.189 6.33724 568.547 6.26807 568.889 6.26807C569.174 6.26807 569.418 6.30062 569.622 6.36572C569.833 6.43083 570.024 6.52441 570.195 6.64648C570.374 6.76042 570.545 6.90283 570.708 7.07373C570.871 7.24463 571.042 7.43587 571.221 7.64746L571.477 7.92822C571.542 7.99333 571.717 8.09098 572.002 8.22119C572.295 8.3514 572.641 8.48161 573.04 8.61182C573.438 8.73389 573.857 8.84375 574.297 8.94141C574.736 9.03906 575.135 9.08789 575.493 9.08789C575.859 9.08789 576.205 9.08382 576.531 9.07568C576.856 9.06755 577.182 9.03906 577.507 8.99023C577.841 8.93327 578.187 8.85189 578.545 8.74609C578.911 8.63216 579.314 8.47754 579.753 8.28223C579.794 8.35547 579.823 8.44906 579.839 8.56299C579.863 8.67692 579.875 8.76644 579.875 8.83154ZM581.982 11.1753C581.982 10.9881 581.974 10.8376 581.958 10.7236C581.95 10.6097 581.934 10.5161 581.909 10.4429C581.885 10.3696 581.852 10.3127 581.812 10.272C581.779 10.2231 581.742 10.1784 581.702 10.1377C581.62 10.0482 581.531 9.94238 581.433 9.82031C581.335 9.6901 581.242 9.56803 581.152 9.4541C581.071 9.33203 580.994 9.23031 580.92 9.14893C580.855 9.05941 580.806 9.01465 580.774 9.01465C580.562 9.01465 580.339 9.08789 580.103 9.23438C579.875 9.38086 579.647 9.58024 579.419 9.83252C579.191 10.0848 578.967 10.3818 578.748 10.7236C578.536 11.0654 578.337 11.4357 578.149 11.8345C577.995 12.1681 577.84 12.5303 577.686 12.9209C577.539 13.3115 577.405 13.7103 577.283 14.1172C577.161 14.5241 577.063 14.9269 576.99 15.3257C576.917 15.7163 576.88 16.0825 576.88 16.4243C576.88 16.6359 576.965 16.8231 577.136 16.9858C577.315 17.1405 577.572 17.2178 577.905 17.2178C578.052 17.2178 578.243 17.1689 578.479 17.0713C578.715 16.9736 578.959 16.8556 579.211 16.7173C579.464 16.5708 579.704 16.4162 579.932 16.2534C580.16 16.0825 580.339 15.9279 580.469 15.7896C580.835 15.4071 581.12 15.0571 581.323 14.7397C581.527 14.4142 581.677 14.0806 581.775 13.7388C581.873 13.397 581.93 13.0267 581.946 12.6279C581.97 12.221 581.982 11.7368 581.982 11.1753ZM592.029 8.34326C592.029 8.5874 591.951 8.8234 591.797 9.05127C591.65 9.271 591.447 9.48258 591.187 9.68604C590.934 9.88135 590.637 10.0645 590.295 10.2354C589.954 10.4062 589.596 10.5568 589.221 10.687C588.855 10.8172 588.477 10.9312 588.086 11.0288C587.703 11.1183 587.337 11.1834 586.987 11.2241C586.955 11.2241 586.869 11.2282 586.731 11.2363C586.593 11.2445 586.426 11.2567 586.23 11.2729C586.035 11.2811 585.828 11.2933 585.608 11.3096C585.388 11.3177 585.181 11.3218 584.985 11.3218C584.871 11.3218 584.753 11.3218 584.631 11.3218C584.509 11.3136 584.416 11.3014 584.351 11.2852C584.367 11.4072 584.379 11.513 584.387 11.6025C584.395 11.6839 584.403 11.7612 584.412 11.8345C584.42 11.8996 584.424 11.9688 584.424 12.042C584.424 12.1071 584.424 12.1885 584.424 12.2861V13.5435C584.424 13.7388 584.403 13.9544 584.363 14.1904C584.322 14.4264 584.265 14.6624 584.192 14.8984C584.119 15.1344 584.029 15.3623 583.923 15.582C583.826 15.7936 583.712 15.9849 583.582 16.1558C583.394 16.408 583.158 16.6644 582.874 16.9248C582.597 17.1771 582.288 17.4253 581.946 17.6694C581.604 17.9054 581.238 18.1292 580.847 18.3408C580.465 18.5443 580.078 18.7274 579.688 18.8901C579.305 19.0448 578.927 19.1668 578.552 19.2563C578.178 19.3459 577.828 19.3906 577.502 19.3906C576.884 19.3906 576.371 19.2889 575.964 19.0854C575.566 18.8901 575.244 18.6257 575 18.292C574.764 17.9502 574.597 17.5555 574.5 17.1079C574.41 16.6522 574.365 16.172 574.365 15.6675C574.365 15.2687 574.402 14.8781 574.475 14.4956C574.556 14.1131 574.662 13.7347 574.792 13.3604C574.923 12.986 575.073 12.6198 575.244 12.2617C575.415 11.8955 575.59 11.5334 575.769 11.1753C575.924 10.8742 576.082 10.5649 576.245 10.2476C576.408 9.93018 576.571 9.62907 576.733 9.34424C576.961 8.93734 577.185 8.56299 577.405 8.22119C577.633 7.87939 577.905 7.58643 578.223 7.34229C578.54 7.09814 578.923 6.91097 579.37 6.78076C579.826 6.64242 580.387 6.57324 581.055 6.57324C581.331 6.57324 581.571 6.60173 581.775 6.65869C581.978 6.71566 582.161 6.79704 582.324 6.90283C582.487 7.00863 582.633 7.1429 582.764 7.30566C582.902 7.46029 583.04 7.63932 583.179 7.84277C583.285 7.9974 583.386 8.13981 583.484 8.27002C583.59 8.40023 583.708 8.51416 583.838 8.61182C583.976 8.70133 584.143 8.77051 584.338 8.81934C584.534 8.86816 584.778 8.89258 585.071 8.89258C585.461 8.89258 585.783 8.89258 586.035 8.89258C586.296 8.89258 586.507 8.89258 586.67 8.89258C586.833 8.88444 586.963 8.8763 587.061 8.86816C587.166 8.86003 587.26 8.85189 587.341 8.84375C587.659 8.80306 587.952 8.76237 588.22 8.72168C588.489 8.67285 588.753 8.61995 589.014 8.56299C589.274 8.50602 589.539 8.44092 589.807 8.36768C590.076 8.2863 590.369 8.19678 590.686 8.09912C590.792 8.06657 590.898 8.03402 591.003 8.00146C591.117 7.96077 591.239 7.94043 591.37 7.94043C591.597 7.94043 591.764 7.96891 591.87 8.02588C591.976 8.07471 592.029 8.1805 592.029 8.34326ZM600.361 11.5537C600.361 11.7409 600.312 11.9769 600.215 12.2617C600.125 12.5384 599.971 12.8639 599.751 13.2383C599.531 13.6045 599.238 14.0195 598.872 14.4834C598.506 14.9473 598.05 15.4559 597.505 16.0093C597.204 16.3104 596.862 16.6115 596.479 16.9126C596.105 17.2137 595.706 17.4823 595.283 17.7183C594.86 17.9461 594.421 18.1333 593.965 18.2798C593.517 18.4263 593.07 18.4995 592.622 18.4995C592.02 18.4995 591.454 18.3937 590.925 18.1821C590.404 17.9705 589.949 17.6491 589.558 17.2178C589.167 16.7783 588.858 16.229 588.63 15.5698C588.411 14.9106 588.301 14.1375 588.301 13.2505C588.301 12.6727 588.329 12.0745 588.386 11.4561C588.443 10.8294 588.512 10.1987 588.594 9.56396C588.683 8.9292 588.781 8.30257 588.887 7.68408C589.001 7.05745 589.111 6.45931 589.216 5.88965C589.29 5.49902 589.351 5.15316 589.399 4.85205C589.448 4.55094 589.493 4.24984 589.534 3.94873C589.583 3.64762 589.635 3.32617 589.692 2.98438C589.749 2.63444 589.819 2.22347 589.9 1.75146C589.941 1.5236 590.01 1.30794 590.107 1.10449C590.205 0.892904 590.327 0.709798 590.474 0.555176C590.628 0.392415 590.807 0.266276 591.011 0.176758C591.214 0.0791016 591.438 0.0302734 591.682 0.0302734C592.284 0.0302734 592.724 0.311035 593 0.872559L592.866 1.56836C592.793 1.95898 592.695 2.41878 592.573 2.94775C592.459 3.46859 592.333 4.03825 592.195 4.65674C592.065 5.27523 591.93 5.92627 591.792 6.60986C591.662 7.28532 591.54 7.97298 591.426 8.67285C591.32 9.37272 591.23 10.0685 591.157 10.7603C591.092 11.452 591.06 12.1193 591.06 12.7622C591.06 13.2505 591.092 13.694 591.157 14.0928C591.23 14.4915 591.344 14.8333 591.499 15.1182C591.654 15.3949 591.853 15.6105 592.097 15.7651C592.341 15.9198 592.634 15.9971 592.976 15.9971C593.318 15.9971 593.672 15.9279 594.038 15.7896C594.404 15.6431 594.771 15.4559 595.137 15.228C595.511 15.0002 595.873 14.7397 596.223 14.4468C596.581 14.1538 596.915 13.8608 597.224 13.5679C597.533 13.2668 597.81 12.9779 598.054 12.7012C598.298 12.4163 598.498 12.1722 598.652 11.9688C598.726 11.8711 598.803 11.7694 598.884 11.6636C598.974 11.5496 599.071 11.4438 599.177 11.3462C599.291 11.2485 599.409 11.1672 599.531 11.1021C599.661 11.0369 599.8 11.0044 599.946 11.0044C600.06 11.0044 600.158 11.0532 600.239 11.1509C600.321 11.2404 600.361 11.3747 600.361 11.5537ZM605.19 16.1436C605.19 16.5667 605.109 16.9858 604.946 17.4009C604.792 17.8078 604.584 18.1943 604.324 18.5605C604.063 18.9268 603.762 19.2645 603.42 19.5737C603.079 19.883 602.725 20.1475 602.358 20.3672C601.992 20.5869 601.626 20.7578 601.26 20.8799C600.894 21.0101 600.552 21.0752 600.234 21.0752C599.738 21.0752 599.376 20.9531 599.148 20.709C598.92 20.473 598.806 20.1515 598.806 19.7446C598.806 19.5493 598.835 19.3621 598.892 19.1831C598.957 19.0122 599.046 18.8617 599.16 18.7314C599.274 18.5931 599.412 18.4873 599.575 18.4141C599.746 18.3327 599.937 18.292 600.149 18.292H600.369C600.531 18.292 600.715 18.2676 600.918 18.2188C601.121 18.1699 601.357 18.0356 601.626 17.8159C601.862 17.6206 602.033 17.3887 602.139 17.1201C602.253 16.8434 602.31 16.6034 602.31 16.3999C602.31 16.2209 602.265 16.054 602.175 15.8994C602.086 15.7367 601.968 15.578 601.821 15.4233C601.675 15.2687 601.504 15.1182 601.309 14.9717C601.121 14.8171 600.922 14.6624 600.71 14.5078C600.434 14.2962 600.153 14.0765 599.868 13.8486C599.591 13.6126 599.339 13.3644 599.111 13.104C598.883 12.8354 598.7 12.5547 598.562 12.2617C598.424 11.9606 598.354 11.6392 598.354 11.2974C598.354 10.9556 598.416 10.5975 598.538 10.2231C598.66 9.8488 598.822 9.47852 599.026 9.1123C599.237 8.74609 599.478 8.40023 599.746 8.07471C600.015 7.74919 600.291 7.46029 600.576 7.20801C600.869 6.95573 601.162 6.75635 601.455 6.60986C601.748 6.46338 602.021 6.39014 602.273 6.39014C602.688 6.39014 603.001 6.49186 603.213 6.69531C603.433 6.89876 603.542 7.22428 603.542 7.67188C603.542 7.88346 603.486 8.10319 603.372 8.33105C603.266 8.55078 603.127 8.77051 602.957 8.99023C602.794 9.20182 602.607 9.40934 602.395 9.61279C602.192 9.81624 601.992 10.0034 601.797 10.1743C601.626 10.3289 601.463 10.4551 601.309 10.5527C601.162 10.6504 601.024 10.7562 600.894 10.8701C600.975 11.0166 601.081 11.1672 601.211 11.3218C601.341 11.4683 601.484 11.6147 601.638 11.7612C601.793 11.8996 601.947 12.0339 602.102 12.1641C602.265 12.2943 602.415 12.4163 602.554 12.5303C602.855 12.7744 603.16 13.0308 603.469 13.2993C603.778 13.5679 604.059 13.8527 604.312 14.1538C604.572 14.4468 604.784 14.7601 604.946 15.0938C605.109 15.4193 605.19 15.7692 605.19 16.1436Z" fill="#D9D9D9"/>
<defs>
<linearGradient id="paint0_linear_42_38" x1="2.83531e-05" y1="11.5" x2="1150" y2="11.4956" gradientUnits="userSpaceOnUse">
<stop stop-color="#73F7FF"/>
<stop offset="0.427248" stop-color="#6391FF"/>
<stop offset="0.478054" stop-opacity="0"/>
<stop offset="0.525012" stop-opacity="0"/>
<stop offset="0.577358" stop-color="#5A5AFF"/>
<stop offset="1" stop-color="#E338FF"/>
</linearGradient>
<linearGradient id="paint1_linear_42_38" x1="2.83531e-05" y1="11.5" x2="1150" y2="11.4956" gradientUnits="userSpaceOnUse">
<stop stop-color="#73F7FF"/>
<stop offset="0.427248" stop-color="#6391FF"/>
<stop offset="0.478054" stop-opacity="0"/>
<stop offset="0.525012" stop-opacity="0"/>
<stop offset="0.577358" stop-color="#5A5AFF"/>
<stop offset="1" stop-color="#E338FF"/>
</linearGradient>
</defs>
</svg>
