<svg width="2550" height="1036" viewBox="0 0 2550 1036" fill="none" xmlns="http://www.w3.org/2000/svg">

<defs>
 <style>

  .p1{animation: p1 2.5s linear infinite alternate;}
  @keyframes p1{
        0%{opacity:0.1;}
        50%{opacity:1;}
        100%{opacity:0.1;}
  }

  .p2{animation: p2 1.2s linear infinite alternate;}
  @keyframes p2{
        0%{opacity:0.1;}
        50%{opacity:1;}
        100%{opacity:0.1;}
  }

  .p3{animation: p3 2s linear infinite alternate;}
  @keyframes p3{
        0%{opacity:0.1;}
        50%{opacity:1;}
        100%{opacity:0.1;}
  }

  .p4{animation: p4 3s linear infinite alternate;}
  @keyframes p4{
        0%{opacity:0.1;}
        50%{opacity:1;}
        100%{opacity:0.1;}
  }

  .p5{animation: p5 2.5s linear infinite alternate;}
  @keyframes p5{
        0%{opacity:0.1;}
        50%{opacity:1;}
        100%{opacity:0.1;}
  }

  .p6{animation: p6 1.5s linear infinite alternate;}
  @keyframes p6{
        0%{opacity:0.1;}
        50%{opacity:1;}
        100%{opacity:0.1;}
  }

  .p7{animation: p7 1.6s linear infinite alternate;}
  @keyframes p7{
        0%{opacity:0.1;}
        50%{opacity:1;}
        100%{opacity:0.1;}
  }

  .p8{animation: p8 2.35s linear infinite alternate;}
  @keyframes p8{
        0%{opacity:0.1;}
        50%{opacity:1;}
        100%{opacity:0.1;}
  }

  .p9{animation: p9 2.3s linear infinite alternate;}
  @keyframes p9{
        0%{opacity:0.1;}
        50%{opacity:1;}
        100%{opacity:0.1;}
  }

  .p10{animation: p10 3s linear infinite alternate;}
  @keyframes p10{
        0%{opacity:0.1;}
        50%{opacity:1;}
        100%{opacity:0.1;}
  }

  .p11{animation: p11 2.34s linear infinite alternate;}
  @keyframes p11{
        0%{opacity:0.1;}
        50%{opacity:1;}
        100%{opacity:0.1;}
  }

  .p12{animation: p12 1.69s linear infinite alternate;}
  @keyframes p12{
        0%{opacity:0.1;}
        50%{opacity:1;}
        100%{opacity:0.1;}
  }
 </style>
</defs>

<path d="M0 0H2550V1036H0V0Z" fill="#0D1117"/>
<g  filter="url(#filter0_i_293_214)">
<path class="p1" d="M300 258.5C356.057 258.5 401.5 213.057 401.5 157C401.5 100.943 356.057 55.5 300 55.5C243.943 55.5 198.5 100.943 198.5 157C198.5 213.057 243.943 258.5 300 258.5Z" fill="#1794D4" stroke="white"  stroke-width="3"/>
<path  d="M314.353 99.668H300.627V113.393H314.353V99.668Z" fill="white"/>
<path d="M259.451 120.256H273.177V133.981H259.451V120.256Z" fill="white"/>
<path d="M232.011 167.893C233.183 187.804 245.041 216.335 286.902 216.335C333.568 216.335 354.385 182.021 358.961 164.864C364.679 164.864 377.49 161.433 382.98 147.707C379.549 144.276 365.823 144.276 358.961 147.707C358.961 142.217 355.529 130.551 348.666 127.119C344.091 131.695 337 143.59 345.235 154.57C341.804 161.433 332.654 161.433 328.078 161.433H238.471C234.837 161.433 231.797 164.266 232.011 167.893Z" fill="white"/>
<path d="M252.588 140.844H238.863V154.569H252.588V140.844Z" fill="white"/>
<path d="M259.451 140.844H273.176V154.569H259.451V140.844Z" fill="white"/>
<path d="M293.765 140.844H280.039V154.569H293.765V140.844Z" fill="white"/>
<path d="M300.627 140.844H314.353V154.569H300.627V140.844Z" fill="white"/>
<path d="M334.942 140.844H321.216V154.569H334.942V140.844Z" fill="white"/>
<path d="M293.765 120.256H280.039V133.981H293.765V120.256Z" fill="white"/>
<path  d="M300.627 120.256H314.353V133.981H300.627V120.256Z" fill="white"/>
</g>
<g filter="url(#filter1_i_293_214)">
<path  class="p2"  d="M1600 258.5C1656.06 258.5 1701.5 213.057 1701.5 157C1701.5 100.943 1656.06 55.5 1600 55.5C1543.94 55.5 1498.5 100.943 1498.5 157C1498.5 213.057 1543.94 258.5 1600 258.5Z" fill="#008236" stroke="white" stroke-width="3"/>
<path d="M1628.79 143.415C1621.77 112.42 1605.17 102.23 1603.39 98.336C1601.43 95.5891 1599.45 90.7031 1599.45 90.7031C1599.42 90.6206 1599.37 90.4751 1599.31 90.334C1599.11 93.081 1599 94.1407 1596.4 96.9115C1592.38 100.056 1571.75 117.369 1570.07 152.583C1568.5 185.425 1593.79 204.994 1597.21 207.49L1597.6 207.765V207.741C1597.62 207.906 1598.69 215.559 1599.44 223.667H1602.11C1602.74 217.936 1603.69 212.243 1604.94 206.614L1605.15 206.473C1606.68 205.376 1608.14 204.183 1609.52 202.901L1609.68 202.76C1616.95 196.043 1630.02 180.508 1629.89 155.74C1629.86 151.608 1629.5 147.486 1628.79 143.415ZM1599.15 188.947C1599.15 188.947 1599.15 142.885 1600.67 142.893C1601.86 142.893 1603.39 202.308 1603.39 202.308C1601.28 202.054 1599.15 192.53 1599.15 188.947Z" fill="white"/>
</g>
<g filter="url(#filter2_i_293_214)">
<path  class="p3"  d="M400.67 519.89L400.67 519.888C407.773 464.278 368.502 413.434 312.988 406.33C257.48 399.227 206.434 438.496 199.33 494.012C192.226 549.522 231.498 600.464 287.009 607.67L287.012 607.67C342.624 614.774 393.465 575.501 400.67 519.89Z" fill="#335689" stroke="white" stroke-width="3"/>
<path d="M300.333 506.999C300.333 495.95 309.068 487.002 319.833 487.002C330.607 487.002 339.333 495.942 339.333 506.999C339.333 518.048 330.607 526.996 319.833 526.996C309.076 526.996 300.333 518.056 300.333 506.999Z" fill="#1ABCFE"/>
<path d="M261.333 547.004C261.333 535.955 270.068 526.998 280.833 526.998H300.333V547.004C300.333 558.044 291.599 567.001 280.833 567.001C270.068 567.001 261.333 558.044 261.333 547.004Z" fill="#0ACF83"/>
<path d="M300.333 447V487.003H319.833C330.607 487.003 339.333 478.046 339.333 466.997C339.333 455.957 330.607 447 319.833 447H300.333Z" fill="#FF7262"/>
<path d="M261.333 466.997C261.333 478.046 270.068 487.003 280.833 487.003H300.333V447H280.833C270.068 447 261.333 455.957 261.333 466.997Z" fill="#F24E1E"/>
<path d="M261.333 506.999C261.333 518.048 270.068 526.996 280.833 526.996H300.333V487.002H280.833C270.068 487.002 261.333 495.942 261.333 506.999Z" fill="#A259FF"/>
</g>
<g filter="url(#filter3_i_293_214)">
<path class="p4"  d="M2350.67 169.89L2350.67 169.888C2357.77 114.278 2318.5 63.4341 2262.99 56.33C2207.48 49.2266 2156.43 88.496 2149.33 144.012C2142.23 199.522 2181.5 250.464 2237.01 257.67L2237.01 257.67C2292.62 264.774 2343.46 225.501 2350.67 169.89Z" fill="#A73D2E" stroke="white" stroke-width="3"/>
<path d="M2216.33 97L2208.67 104.663L2228.46 124.454C2227.66 126.172 2227.21 128.087 2227.21 130.108C2227.21 135.843 2230.81 140.736 2235.88 142.647V191.062C2230.81 192.973 2227.21 197.866 2227.21 203.602C2227.21 211.001 2233.21 217 2240.61 217C2248.01 217 2254.01 211.001 2254.01 203.602C2254.01 198.402 2251.05 193.894 2246.72 191.674V142.713L2265.64 161.632C2264.87 163.315 2264.45 165.183 2264.45 167.15C2264.45 174.55 2270.45 180.549 2277.85 180.549C2285.25 180.549 2291.25 174.55 2291.25 167.15C2291.25 159.751 2285.25 153.752 2277.85 153.752C2276.41 153.752 2275.03 153.978 2273.73 154.397L2253.41 134.079C2253.8 132.824 2254.01 131.49 2254.01 130.108C2254.01 122.708 2248.01 116.709 2240.61 116.709C2239.23 116.709 2237.89 116.919 2236.64 117.307L2216.33 97Z" fill="white"/>
</g>
<g filter="url(#filter4_i_293_214)">
<path  class="p5" d="M1050.67 169.89L1050.67 169.888C1057.77 114.278 1018.5 63.4341 962.988 56.33C907.48 49.2266 856.434 88.496 849.33 144.012C842.226 199.522 881.498 250.464 937.009 257.67L937.012 257.67C992.624 264.774 1043.46 225.501 1050.67 169.89Z" fill="#BC532D" stroke="white" stroke-width="3"/>
<path d="M982.849 125.358L942.416 165.791L931.014 154.389C970.777 114.627 974.705 118.076 982.849 125.358Z" fill="white"/>
<path d="M942.416 166.749C942.128 166.749 941.937 166.653 941.745 166.462L930.248 155.06C929.864 154.677 929.864 154.102 930.248 153.719C970.681 113.286 974.896 117.118 983.424 124.783C983.615 124.975 983.711 125.166 983.711 125.454C983.711 125.741 983.615 125.933 983.424 126.125L942.991 166.462C942.895 166.653 942.607 166.749 942.416 166.749ZM932.356 154.389L942.416 164.45L981.412 125.454C974.321 119.13 969.531 117.214 932.356 154.389Z" fill="#BC532D"/>
<path d="M954.009 177.385L942.991 166.367L983.424 125.934C994.251 136.856 978.058 154.582 954.009 177.385Z" fill="white"/>
<path d="M954.009 178.342C953.722 178.342 953.53 178.246 953.339 178.055L942.32 167.036C942.129 166.845 942.129 166.653 942.129 166.366C942.129 166.078 942.224 165.887 942.416 165.695L982.849 125.262C983.232 124.879 983.807 124.879 984.19 125.262C986.682 127.562 988.023 130.819 987.927 134.173C987.735 144.808 975.663 158.317 954.776 178.055C954.488 178.246 954.201 178.342 954.009 178.342ZM944.332 166.366C950.464 172.593 953.051 175.085 954.009 176.043C970.106 160.713 985.723 144.999 985.819 134.173C985.915 131.681 984.957 129.19 983.328 127.274L944.332 166.366Z" fill="#BC532D"/>
<path d="M931.206 154.677L939.35 162.821C939.542 163.012 939.542 163.204 939.35 163.396C939.254 163.491 939.254 163.491 939.158 163.491L922.295 167.132C921.433 167.228 920.666 166.653 920.475 165.791C920.379 165.312 920.571 164.833 920.858 164.545L930.631 154.773C930.823 154.581 931.11 154.485 931.206 154.677Z" fill="white"/>
<path d="M922.008 168.09C920.571 168.09 919.517 166.941 919.517 165.503C919.517 164.833 919.804 164.162 920.283 163.683L930.056 153.91C930.631 153.431 931.398 153.431 931.972 153.91L940.117 162.054C940.691 162.533 940.691 163.396 940.117 163.97C939.925 164.162 939.733 164.258 939.446 164.354L922.583 167.995C922.391 167.995 922.2 168.09 922.008 168.09ZM930.919 155.731L921.529 165.12C921.337 165.312 921.241 165.599 921.433 165.887C921.529 166.174 921.816 166.27 922.104 166.174L937.913 162.725L930.919 155.731Z" fill="#BC532D"/>
<path d="M1004.22 102.938C998.083 96.998 988.214 97.1896 982.274 103.417C976.334 109.645 976.525 119.418 982.753 125.358C987.831 130.245 995.496 131.107 1001.53 127.466L990.61 116.544L1004.22 102.938Z" fill="white"/>
<path d="M993.484 130.628C984.382 130.628 977.004 123.25 977.004 114.148C977.004 105.046 984.382 97.668 993.484 97.668C997.7 97.668 1001.82 99.2968 1004.89 102.267C1005.08 102.459 1005.17 102.65 1005.17 102.938C1005.17 103.225 1005.08 103.417 1004.89 103.608L991.951 116.543L1002.11 126.699C1002.49 127.082 1002.49 127.657 1002.11 128.041C1002.01 128.136 1002.01 128.136 1001.92 128.232C999.425 129.765 996.454 130.628 993.484 130.628ZM993.484 99.68C985.436 99.68 978.921 106.195 979.016 114.244C979.016 122.292 985.532 128.807 993.58 128.711C995.784 128.711 997.987 128.232 999.999 127.178L989.939 117.214C989.747 117.022 989.652 116.83 989.652 116.543C989.652 116.256 989.747 116.064 989.939 115.872L1002.78 103.033C1000.19 100.83 996.933 99.68 993.484 99.68Z" fill="#BC532D"/>
<path d="M1004.5 103.225L1004.31 103.033L990.61 116.543L1001.44 127.37C1002.49 126.699 1003.54 125.932 1004.41 125.07C1010.54 119.034 1010.54 109.261 1004.5 103.225Z" fill="white"/>
<path d="M1001.53 128.425C1001.25 128.425 1001.05 128.329 1000.86 128.137L989.939 117.215C989.748 117.023 989.652 116.831 989.652 116.544C989.652 116.257 989.748 116.065 989.939 115.873L1003.54 102.268C1003.93 101.885 1004.5 101.885 1004.89 102.268L1005.17 102.46C1011.59 108.879 1011.59 119.227 1005.27 125.742C1004.31 126.7 1003.26 127.562 1002.11 128.233C1001.82 128.329 1001.63 128.425 1001.53 128.425ZM991.951 116.544L1001.63 126.221C1002.39 125.742 1003.16 125.071 1003.74 124.496C1009.2 119.035 1009.49 110.125 1004.22 104.376L991.951 116.544Z" fill="#BC532D"/>
<path d="M984.478 127.082C982.179 124.783 978.442 124.783 976.142 127.082L940.021 163.203L946.057 169.24L984.286 135.705C986.778 133.597 986.969 129.861 984.861 127.369C984.67 127.274 984.574 127.178 984.478 127.082Z" fill="white"/>
<path d="M945.961 170.199C945.674 170.199 945.482 170.103 945.291 169.911L939.254 163.875C938.871 163.492 938.871 162.917 939.254 162.534L975.376 126.412C978.059 123.73 982.37 123.73 985.053 126.412C987.736 129.095 987.736 133.407 985.053 136.09C984.957 136.185 984.861 136.281 984.765 136.377L946.536 169.911C946.44 170.103 946.249 170.199 945.961 170.199ZM941.362 163.205L946.057 167.899L983.616 134.94C985.724 133.215 985.915 130.053 984.191 127.945C982.466 125.838 979.304 125.646 977.196 127.371C977.1 127.466 977.005 127.562 976.813 127.658L941.362 163.205Z" fill="#BC532D"/>
<path d="M912.331 204.308C911.948 204.499 911.756 204.883 911.852 205.266L913.481 212.164C913.864 213.123 913.289 214.272 912.235 214.56C911.469 214.847 910.606 214.56 910.127 213.985L899.588 203.541L933.985 169.145L945.865 169.336L953.914 177.384C951.997 179.013 940.404 190.223 912.331 204.308Z" fill="white"/>
<path d="M911.564 215.517C910.798 215.517 910.031 215.23 909.552 214.655L899.109 204.211C898.917 204.019 898.821 203.828 898.821 203.54C898.821 203.253 898.917 203.061 899.109 202.87L933.505 168.473C933.697 168.281 933.985 168.186 934.176 168.186L946.057 168.377C946.344 168.377 946.536 168.473 946.728 168.665L954.776 176.713C954.967 176.904 955.063 177.192 955.063 177.479C955.063 177.767 954.967 177.958 954.68 178.15L954.009 178.725C943.853 187.636 930.056 196.546 912.906 205.073L914.535 211.876C914.822 213.122 914.247 214.463 913.097 215.134C912.522 215.421 912.043 215.517 911.564 215.517ZM901.025 203.54L910.894 213.313C911.181 213.792 911.756 213.984 912.235 213.697C912.714 213.409 912.906 212.834 912.618 212.355L910.989 205.457C910.798 204.594 911.181 203.828 911.948 203.445C928.906 194.917 942.608 186.103 952.668 177.384L945.578 170.293L934.559 170.102L901.025 203.54Z" fill="#BC532D"/>
<path d="M891.444 211.781L899.684 203.541L911.948 215.805L892.402 214.464C891.54 214.368 890.965 213.601 891.06 212.739C891.06 212.356 891.156 211.973 891.444 211.781Z" fill="white"/>
<path d="M911.948 216.667L892.306 215.325C890.869 215.229 889.911 213.984 890.007 212.547C890.102 211.972 890.294 211.397 890.773 211.014L899.013 202.774C899.396 202.391 899.971 202.391 900.354 202.774L912.618 215.038C912.906 215.325 913.002 215.708 912.81 216.092C912.618 216.475 912.331 216.667 911.948 216.667ZM899.684 204.882L892.114 212.451C891.827 212.642 891.827 213.122 892.114 213.313C892.21 213.409 892.306 213.505 892.498 213.505L909.457 214.655L899.684 204.882Z" fill="#BC532D"/>
<path d="M930.631 173.552C930.056 173.552 929.673 173.073 929.673 172.594C929.673 172.306 929.769 172.115 929.961 171.923L939.254 162.629C939.638 162.246 940.212 162.246 940.596 162.629L946.632 168.665C946.919 168.953 947.015 169.24 946.919 169.624C946.824 169.911 946.536 170.198 946.153 170.294L930.823 173.552C930.727 173.552 930.631 173.552 930.631 173.552ZM939.925 164.641L933.601 170.965L943.949 168.761L939.925 164.641Z" fill="#BC532D"/>
<path d="M945.865 169.337L935.326 171.636C934.56 171.828 933.793 171.349 933.601 170.582C933.506 170.103 933.601 169.624 933.985 169.241L939.829 163.396L945.865 169.337Z" fill="white"/>
<path d="M935.135 172.594C933.793 172.594 932.739 171.54 932.739 170.198C932.739 169.528 933.027 168.953 933.41 168.474L939.255 162.629C939.638 162.246 940.213 162.246 940.596 162.629L946.632 168.665C946.92 168.953 947.015 169.24 946.92 169.624C946.824 169.911 946.536 170.198 946.153 170.294L935.614 172.594C935.422 172.594 935.23 172.594 935.135 172.594ZM939.925 164.641L934.751 169.815C934.56 170.007 934.56 170.198 934.656 170.39C934.751 170.582 934.943 170.677 935.23 170.677L944.045 168.761L939.925 164.641Z" fill="#BC532D"/>
<path d="M1004.6 112.423C1004.41 111.848 1003.74 111.561 1003.16 111.752C1002.59 111.944 1002.3 112.615 1002.49 113.19C1002.49 113.285 1002.59 113.381 1002.59 113.477C1003.16 114.627 1002.97 116.064 1002.2 117.118C1001.82 117.597 1001.92 118.268 1002.3 118.651C1002.78 119.034 1003.45 118.938 1003.83 118.459C1005.27 116.639 1005.56 114.339 1004.6 112.423Z" fill="#BC532D"/>
</g>
<g filter="url(#filter5_i_293_214)">
<path  class="p6"  d="M1050.67 519.89L1050.67 519.888C1057.77 464.278 1018.5 413.434 962.988 406.33C907.48 399.227 856.434 438.496 849.33 494.012C842.226 549.522 881.498 600.464 937.009 607.67L937.012 607.67C992.624 614.774 1043.46 575.501 1050.67 519.89Z" fill="#1D1B1B" stroke="white" stroke-width="3"/>
<path d="M951.444 441.666L1008.7 541.666H894.19L951.444 441.666Z" fill="white"/>
</g>
<g filter="url(#filter6_i_293_214)">
<path  class="p7"  d="M1700.67 519.89L1700.67 519.888C1707.77 464.278 1668.5 413.434 1612.99 406.33C1557.48 399.227 1506.43 438.496 1499.33 494.012C1492.23 549.522 1531.5 600.464 1587.01 607.67L1587.01 607.67C1642.62 614.774 1693.46 575.501 1700.67 519.89Z" fill="#1A8178" stroke="white" stroke-width="3"/>
<path d="M1626.85 488.639L1626.8 488.615C1626.78 488.615 1626.76 488.592 1626.73 488.568C1626.66 488.498 1626.64 488.381 1626.64 488.287L1629.05 473.499L1640.4 484.842L1628.61 489.857C1628.59 489.881 1628.54 489.881 1628.51 489.881H1628.47C1628.44 489.881 1628.44 489.857 1628.4 489.834C1627.98 489.342 1627.44 488.943 1626.85 488.639ZM1643.3 487.725L1655.44 499.864C1657.95 502.395 1659.21 503.637 1659.68 505.113C1659.75 505.324 1659.8 505.535 1659.85 505.77L1630.86 493.466C1630.83 493.466 1630.83 493.443 1630.81 493.443C1630.69 493.396 1630.55 493.349 1630.55 493.232C1630.55 493.115 1630.69 493.068 1630.81 493.021L1630.86 492.997L1643.3 487.725ZM1659.36 509.636C1658.72 510.808 1657.5 512.027 1655.44 514.113L1641.76 527.775L1624.09 524.096L1623.99 524.073C1623.83 524.049 1623.66 524.026 1623.66 523.885C1623.52 522.409 1622.8 521.049 1621.62 520.159C1621.55 520.089 1621.58 519.971 1621.6 519.878V519.831L1624.93 499.419L1624.95 499.348C1624.98 499.184 1625 499.02 1625.14 499.02C1626.57 498.833 1627.88 498.083 1628.77 496.935C1628.8 496.911 1628.82 496.864 1628.87 496.841C1628.96 496.794 1629.08 496.841 1629.19 496.888L1659.36 509.636ZM1638.62 530.939L1616.12 553.437L1619.96 529.791V529.767C1619.96 529.744 1619.96 529.697 1619.98 529.674C1620.01 529.603 1620.1 529.556 1620.17 529.533L1620.22 529.51C1621.06 529.158 1621.81 528.596 1622.4 527.893C1622.47 527.799 1622.56 527.728 1622.68 527.705H1622.77L1638.62 530.939ZM1611.38 558.171L1608.85 560.702L1580.82 520.206C1580.82 520.182 1580.8 520.182 1580.8 520.159C1580.75 520.089 1580.71 520.042 1580.73 519.971C1580.73 519.925 1580.75 519.878 1580.8 519.831L1580.82 519.784C1580.92 519.667 1580.99 519.526 1581.06 519.409L1581.13 519.292C1581.18 519.221 1581.22 519.151 1581.29 519.104C1581.36 519.081 1581.46 519.081 1581.53 519.104L1612.58 525.502C1612.67 525.526 1612.74 525.549 1612.81 525.596C1612.86 525.643 1612.86 525.69 1612.88 525.736C1613.33 527.4 1614.52 528.76 1616.09 529.416C1616.19 529.463 1616.14 529.556 1616.09 529.65C1616.07 529.697 1616.05 529.744 1616.05 529.791C1615.63 532.205 1612.27 552.664 1611.38 558.171ZM1606.09 563.467C1604.21 565.319 1603.11 566.303 1601.87 566.701C1600.65 567.1 1599.31 567.1 1598.1 566.701C1596.64 566.233 1595.38 564.99 1592.85 562.459L1564.72 534.314L1572.08 522.924C1572.11 522.877 1572.15 522.807 1572.2 522.784C1572.27 522.737 1572.39 522.76 1572.48 522.784C1574.17 523.299 1575.97 523.205 1577.61 522.526C1577.71 522.502 1577.78 522.479 1577.85 522.526L1577.94 522.62L1606.09 563.467ZM1562.01 531.595L1555.56 525.151L1568.31 519.714C1568.33 519.69 1568.38 519.69 1568.4 519.69C1568.52 519.69 1568.57 519.807 1568.64 519.901C1568.76 520.089 1568.9 520.299 1569.04 520.487L1569.08 520.534C1569.13 520.581 1569.11 520.651 1569.06 520.698L1562.01 531.595ZM1552.68 522.268L1544.5 514.089C1543.12 512.706 1542.11 511.699 1541.41 510.832L1566.25 515.987C1566.27 515.987 1566.32 515.987 1566.34 516.011C1566.51 516.034 1566.67 516.058 1566.67 516.198C1566.67 516.362 1566.48 516.433 1566.32 516.48L1566.25 516.503C1566.27 516.526 1552.68 522.268 1552.68 522.268ZM1540 506.66C1540.02 506.145 1540.12 505.606 1540.28 505.113C1540.75 503.66 1541.99 502.395 1544.52 499.864L1554.98 489.412C1559.78 496.396 1564.61 503.379 1569.46 510.34C1569.55 510.457 1569.65 510.574 1569.53 510.668C1569.08 511.16 1568.61 511.722 1568.29 512.332C1568.26 512.402 1568.19 512.472 1568.12 512.519C1568.08 512.542 1568.03 512.542 1567.98 512.519L1540 506.66ZM1557.76 486.623L1571.83 472.562C1573.14 473.148 1577.94 475.163 1582.25 476.991C1585.51 478.374 1588.46 479.616 1589.4 480.038C1589.5 480.085 1589.59 480.108 1589.61 480.202C1589.64 480.249 1589.64 480.319 1589.61 480.389C1589.17 482.452 1589.78 484.608 1591.25 486.108C1591.35 486.201 1591.25 486.342 1591.18 486.459L1591.14 486.529L1576.86 508.629C1576.82 508.699 1576.79 508.746 1576.72 508.793C1576.65 508.84 1576.54 508.816 1576.47 508.793C1575.9 508.652 1575.34 508.558 1574.75 508.558C1574.24 508.558 1573.68 508.652 1573.11 508.746C1573.04 508.746 1573 508.769 1572.95 508.723C1572.9 508.676 1572.86 508.629 1572.81 508.558L1557.76 486.623ZM1574.66 469.726L1592.85 451.541C1595.35 449.033 1596.62 447.768 1598.1 447.299C1599.31 446.9 1600.65 446.9 1601.87 447.299C1603.32 447.768 1604.59 449.01 1607.12 451.541L1611.06 455.478L1598.12 475.515C1598.1 475.562 1598.05 475.632 1598 475.655C1597.93 475.702 1597.81 475.679 1597.72 475.655C1595.66 475.023 1593.41 475.468 1591.72 476.804C1591.63 476.897 1591.51 476.851 1591.42 476.804C1589.68 476.077 1576.54 470.523 1574.66 469.726ZM1613.8 458.22L1625.75 470.172L1622.87 488.006V488.053C1622.87 488.1 1622.87 488.123 1622.84 488.17C1622.82 488.24 1622.75 488.24 1622.68 488.264C1622.07 488.451 1621.48 488.732 1620.97 489.107C1620.95 489.131 1620.92 489.131 1620.9 489.154C1620.87 489.201 1620.83 489.224 1620.78 489.224C1620.73 489.224 1620.69 489.224 1620.64 489.201L1602.43 481.467L1602.41 481.444C1602.29 481.397 1602.15 481.35 1602.15 481.233C1602.03 480.225 1601.7 479.241 1601.19 478.374C1601.1 478.233 1601 478.069 1601.07 477.929L1613.8 458.22ZM1601.49 485.147L1618.55 492.365C1618.65 492.412 1618.74 492.458 1618.79 492.552C1618.81 492.599 1618.81 492.669 1618.79 492.74C1618.74 492.997 1618.7 493.279 1618.7 493.56V494.029C1618.7 494.146 1618.58 494.193 1618.46 494.24L1618.44 494.263C1615.74 495.411 1580.47 510.457 1580.43 510.457C1580.38 510.457 1580.31 510.457 1580.26 510.41C1580.17 510.316 1580.26 510.175 1580.36 510.058C1580.38 510.035 1580.38 510.011 1580.4 509.988L1594.42 488.264L1594.44 488.217C1594.51 488.076 1594.6 487.935 1594.77 487.935L1594.91 487.959C1595.24 488.006 1595.52 488.053 1595.8 488.053C1597.93 488.053 1599.9 487.021 1601.1 485.24C1601.12 485.194 1601.17 485.147 1601.21 485.123C1601.26 485.076 1601.4 485.1 1601.49 485.147ZM1581.95 513.902L1620.38 497.52C1620.38 497.52 1620.43 497.52 1620.5 497.567C1620.71 497.778 1620.9 497.919 1621.06 498.059L1621.16 498.106C1621.23 498.153 1621.32 498.2 1621.32 498.27V498.341L1618.04 518.565L1618.02 518.636C1617.99 518.8 1617.97 518.964 1617.83 518.964C1616.05 519.081 1614.43 520.065 1613.54 521.612L1613.52 521.635C1613.47 521.706 1613.42 521.776 1613.35 521.823C1613.28 521.846 1613.21 521.846 1613.14 521.823L1582.49 515.495C1582.42 515.519 1581.97 513.902 1581.95 513.902Z" fill="white"/>
</g>
<g filter="url(#filter7_i_293_214)">
<path  class="p8"  d="M2350.67 519.89L2350.67 519.888C2357.77 464.278 2318.5 413.434 2262.99 406.33C2207.48 399.227 2156.43 438.496 2149.33 494.012C2142.23 549.522 2181.5 600.464 2237.01 607.67L2237.01 607.67C2292.62 614.774 2343.46 575.501 2350.67 519.89Z" fill="#679693" stroke="white" stroke-width="3"/>
<path fill-rule="evenodd" clip-rule="evenodd" d="M2226.36 467.956C2215.05 465.684 2188.45 477.264 2190.07 490.257C2194.09 491.453 2197.6 492.916 2197.03 494.415H2307.71C2308.37 489.983 2304.89 486.585 2307.25 482.886C2307.99 481.718 2308.55 480.386 2308.95 479.057V471.866C2308.89 471.813 2308.82 471.768 2308.76 471.734C2281.27 480.628 2294.62 478.747 2265.29 471.737C2260.2 465.35 2243.3 460.723 2235.43 460.207C2232.41 460.207 2226.36 467.956 2226.36 467.956Z" fill="url(#paint0_linear_293_214)"/>
<path fill-rule="evenodd" clip-rule="evenodd" d="M2262.83 490.635V494.037H2197.09C2197.15 495.042 2195.49 496.074 2191.02 497.061C2194.98 501.974 2206.7 506.697 2210.86 507.266C2210.12 507.421 2209.29 507.697 2208.41 508.073C2221.71 509.748 2237.44 510.315 2245.26 510.479H2271.06C2270.78 510.417 2270.5 510.354 2270.2 510.29C2264.46 509.209 2266.76 509.989 2263.97 508.4C2300.92 499.504 2279.51 500.82 2308.76 507.266C2309.7 505.565 2305.17 501.407 2307.25 496.117C2308.04 494.105 2307.84 492.313 2307.45 490.635H2262.83Z" fill="url(#paint1_linear_293_214)"/>
<path fill-rule="evenodd" clip-rule="evenodd" d="M2237.13 504.053V507.455C2230.95 507.326 2220.27 507.254 2210.19 507.432C2203.53 509.318 2191.76 519.372 2190.07 525.286V527.694C2190.12 527.819 2190.19 527.939 2190.26 528.055C2193.78 529.1 2196.89 530.347 2197.24 531.646H2246.77V528.244H2307.49C2306.85 525.428 2305.57 522.944 2307.25 520.306C2308.97 516.59 2309.78 514.041 2309.89 512.361V511.614C2309.41 505.366 2295.86 515.313 2288.35 515.392C2279.84 513.878 2281.54 512.746 2270.2 510.289C2264.46 509.208 2266.76 509.989 2263.97 508.4C2270.99 506.708 2275.91 505.387 2279.46 504.399V504.053H2237.13Z" fill="url(#paint2_linear_293_214)"/>
<path fill-rule="evenodd" clip-rule="evenodd" d="M2232.59 477.216H2232.78C2237.31 485.239 2234.43 491.398 2232.03 499.328C2231.35 500.933 2233.79 502.174 2234.48 500.462C2236.41 493.095 2239.46 484.997 2235.81 477.594H2236.19C2253.67 477.728 2271.37 480.903 2287.21 488.555C2288.27 488.794 2291.65 491.398 2292.32 489.311C2284.68 480.285 2254.99 475.145 2242.42 475.513C2241.88 475.617 2240.57 475.451 2239.07 475.286C2237.9 475.156 2236.61 475.027 2235.48 475.027C2233.38 475.027 2231.82 475.477 2232.59 477.216Z" fill="#974DFF"/>
<path fill-rule="evenodd" clip-rule="evenodd" d="M2232.59 477.215H2232.78C2235.51 482.382 2236.22 488.699 2233.54 494.036H2236.19C2237.56 488.674 2238.02 482.929 2235.62 477.782C2253.31 477.835 2271.27 480.733 2287.21 488.744C2288.26 488.929 2291.85 491.773 2292.32 489.5C2284.3 480.304 2255.35 475.146 2242.42 475.513C2241.8 475.632 2240.5 475.458 2239.05 475.282C2237.92 475.148 2236.7 475.012 2235.63 475.012C2233.65 475.012 2232.15 475.467 2232.59 477.215Z" fill="#F1A5FF"/>
<path fill-rule="evenodd" clip-rule="evenodd" d="M2225.79 478.159H2225.98C2229.65 483.155 2229.49 489.193 2227.11 494.602C2226.32 495.917 2228.29 497.233 2229 495.736C2230.33 492.937 2231.24 489.773 2231.27 486.664C2231.3 483.166 2229.7 479.558 2227.87 476.648C2227.63 476.215 2227.28 476.037 2226.92 476.037C2226.01 476.037 2225.05 477.205 2225.79 478.159Z" fill="#974DFF"/>
<path fill-rule="evenodd" clip-rule="evenodd" d="M2229.76 494.038C2230.86 489.464 2231.67 484.601 2229.19 480.241C2228.85 479.525 2227.83 477.457 2227.87 476.65C2227.08 475.191 2224.98 476.643 2225.79 477.973H2225.98C2229.34 482.772 2229.76 488.751 2227.3 494.038H2229.76Z" fill="#F1A5FF"/>
<path fill-rule="evenodd" clip-rule="evenodd" d="M2225.79 477.973H2225.98C2229.34 482.771 2229.76 488.753 2227.3 494.037H2229.76C2230.86 489.463 2231.67 484.6 2229.19 480.24C2228.85 479.524 2227.82 477.457 2227.87 476.65C2227.63 476.217 2227.29 476.041 2226.93 476.041C2226.09 476.041 2225.22 477.037 2225.79 477.973Z" fill="#F1A5FF"/>
<path fill-rule="evenodd" clip-rule="evenodd" d="M2246.58 528.246V531.648H2197.24C2197.53 532.712 2195.96 533.812 2191.2 534.861C2200.36 543.755 2211.75 546.563 2221.82 544.31C2223.39 551.407 2236.65 555.469 2245.45 552.626C2245.57 550.81 2245.24 548.996 2244.5 547.334C2256.79 549.426 2286.78 539.996 2288.35 539.208C2289.76 538.945 2294.12 540.5 2298.45 542.058C2303.37 543.827 2308.25 545.594 2308.76 544.688C2309.7 542.988 2305.17 538.83 2307.25 533.538C2308.01 531.603 2307.86 529.87 2307.49 528.246H2246.58Z" fill="url(#paint3_linear_293_214)"/>
<path fill-rule="evenodd" clip-rule="evenodd" d="M2232.59 515.015H2232.78C2237.36 523.085 2234.34 529.321 2232.03 537.316C2231.35 538.922 2233.79 540.162 2234.48 538.45C2236.55 531.17 2239.38 523.094 2235.81 515.769L2236.19 515.582C2253.67 515.723 2271.38 518.606 2287.21 526.354C2288.27 526.592 2291.65 529.195 2292.32 527.11C2284.68 518.086 2254.99 512.943 2242.42 513.314C2241.88 513.418 2240.57 513.251 2239.08 513.087C2237.9 512.957 2236.61 512.826 2235.48 512.826C2233.38 512.826 2231.82 513.278 2232.59 515.015Z" fill="#373FFF"/>
<path fill-rule="evenodd" clip-rule="evenodd" d="M2232.59 515.015H2232.78C2235.49 520.127 2236.21 526.366 2233.54 531.646H2236.19C2237.57 526.286 2238.02 520.539 2235.62 515.393C2253.29 515.453 2271.2 518.623 2287.21 526.354C2288.26 526.592 2291.66 529.197 2292.32 527.11C2284.69 518.086 2254.99 512.941 2242.42 513.314C2241.88 513.418 2240.57 513.251 2239.08 513.087C2237.9 512.957 2236.61 512.826 2235.48 512.826C2233.38 512.826 2231.82 513.278 2232.59 515.015Z" fill="#F1A5FF"/>
<path fill-rule="evenodd" clip-rule="evenodd" d="M2225.79 515.959H2225.98C2229.65 520.954 2229.49 526.992 2227.11 532.401C2226.32 533.717 2228.29 535.032 2229 533.535C2230.33 530.736 2231.24 527.575 2231.27 524.464C2231.34 520.867 2229.55 517.344 2227.87 514.258C2226.94 512.616 2224.51 514.659 2225.79 515.959Z" fill="#373FFF"/>
<path fill-rule="evenodd" clip-rule="evenodd" d="M2229.76 531.645C2230.25 528.551 2231.41 525.408 2230.7 522.195C2230.61 520.326 2225.92 509.242 2225.41 515.77H2225.98C2229.37 520.568 2229.76 526.538 2227.3 531.834L2229.76 531.645Z" fill="#F1A5FF"/>
<path fill-rule="evenodd" clip-rule="evenodd" d="M2225.41 515.768H2225.98C2229.37 520.568 2229.76 526.539 2227.3 531.834L2229.76 531.645C2230.25 528.553 2231.41 525.408 2230.7 522.195C2230.63 520.742 2227.79 513.732 2226.28 513.732C2225.85 513.732 2225.53 514.311 2225.41 515.768Z" fill="#F1A5FF"/>
<path fill-rule="evenodd" clip-rule="evenodd" d="M2210.48 479.482C2213.3 479.482 2215.58 481.767 2215.58 484.585C2215.58 487.403 2213.3 489.688 2210.48 489.688C2207.66 489.688 2205.38 487.403 2205.38 484.585C2205.38 481.767 2207.66 479.482 2210.48 479.482Z" fill="black"/>
<path fill-rule="evenodd" clip-rule="evenodd" d="M2205.19 484.209C2205.29 481.184 2207.83 478.816 2210.86 478.921C2213.88 479.025 2216.25 481.563 2216.14 484.587C2216.04 487.538 2213.62 489.877 2210.67 489.879C2207.86 490.095 2205.41 487.991 2205.19 485.183C2205.19 485.173 2205.19 485.164 2205.19 485.154C2205.48 487.275 2207.41 488.781 2209.54 488.556C2211.94 488.556 2213.88 486.611 2213.88 484.209C2213.88 481.809 2211.94 479.863 2209.54 479.863C2207.14 479.863 2205.19 481.809 2205.19 484.209Z" fill="white"/>
<path fill-rule="evenodd" clip-rule="evenodd" d="M2207.46 484.209C2208.29 484.209 2208.97 484.886 2208.97 485.721C2208.97 486.556 2208.29 487.233 2207.46 487.233C2206.62 487.233 2205.95 486.556 2205.95 485.721C2205.95 484.886 2206.62 484.209 2207.46 484.209Z" fill="white"/>
<path fill-rule="evenodd" clip-rule="evenodd" d="M2210.48 517.283C2213.3 517.283 2215.58 519.566 2215.58 522.384C2215.58 525.202 2213.3 527.487 2210.48 527.487C2207.66 527.487 2205.38 525.202 2205.38 522.384C2205.38 519.566 2207.66 517.283 2210.48 517.283Z" fill="black"/>
<path fill-rule="evenodd" clip-rule="evenodd" d="M2205.19 521.817C2205.29 518.791 2207.83 516.423 2210.86 516.529C2213.88 516.633 2216.25 519.171 2216.14 522.195C2216.04 525.147 2213.62 527.485 2210.67 527.487C2207.86 527.702 2205.41 525.6 2205.19 522.79C2205.19 522.781 2205.19 522.771 2205.19 522.762C2205.39 524.945 2207.32 526.555 2209.5 526.356C2209.51 526.355 2209.52 526.353 2209.54 526.353C2211.94 526.351 2213.88 524.402 2213.88 522.002C2213.88 519.602 2211.93 517.657 2209.53 517.659C2207.2 517.663 2205.29 519.494 2205.19 521.817Z" fill="white"/>
<path fill-rule="evenodd" clip-rule="evenodd" d="M2207.46 522.01C2208.29 522.01 2208.97 522.684 2208.97 523.522C2208.97 524.355 2208.29 525.034 2207.46 525.034C2206.62 525.034 2205.95 524.355 2205.95 523.522C2205.95 522.684 2206.62 522.01 2207.46 522.01Z" fill="white"/>
</g>
<g filter="url(#filter8_i_293_214)">
<path class="p9"  d="M400.67 869.89L400.67 869.888C407.773 814.278 368.502 763.434 312.988 756.33C257.48 749.227 206.434 788.496 199.33 844.012C192.226 899.522 231.498 950.464 287.009 957.67L287.012 957.67C342.624 964.774 393.465 925.501 400.67 869.89Z" fill="#2D2D2D" stroke="white" stroke-width="3"/>
<path d="M327.173 806.721C327.173 803.268 323.307 803.268 321.589 803.7C323.994 801.801 326.815 802.261 327.817 802.837L351.049 814.228C353.262 815.313 354.666 817.571 354.666 820.046V894.982C354.666 897.49 353.225 899.772 350.966 900.84L329.106 911.177C327.602 911.824 324.338 913.421 321.589 911.176C325.025 911.824 326.887 909.378 327.173 907.723V806.721Z" fill="url(#paint4_linear_293_214)"/>
<path d="M321.868 803.638C323.692 803.277 327.174 803.444 327.174 806.721V832.515L256.742 885.798C255.51 886.729 253.778 886.574 252.729 885.44L245.47 877.585C244.333 876.354 244.413 874.428 245.647 873.297L321.589 803.7L321.868 803.638Z" fill="url(#paint5_linear_293_214)"/>
<path d="M327.174 882.363L256.742 829.08C255.51 828.149 253.778 828.304 252.729 829.438L245.47 837.293C244.333 838.523 244.413 840.45 245.647 841.581L321.589 911.178C325.026 911.826 326.887 909.38 327.174 907.725V882.363Z" fill="url(#paint6_linear_293_214)"/>
</g>
<g filter="url(#filter9_i_293_214)">
<path class="p10"  d="M1050.67 869.89L1050.67 869.888C1057.77 814.278 1018.5 763.434 962.988 756.33C907.48 749.227 856.434 788.496 849.33 844.012C842.226 899.522 881.498 950.464 937.009 957.67L937.012 957.67C992.624 964.774 1043.46 925.501 1050.67 869.89Z" fill="#2B235D" stroke="white" stroke-width="3"/>
<path fill-rule="evenodd" clip-rule="evenodd" d="M950 797C983.138 797 1010 824.54 1010 858.518C1010 885.691 992.828 908.744 969.002 916.886C965.96 917.492 964.88 915.571 964.88 913.933C964.88 911.905 964.952 905.281 964.952 897.049C964.952 891.313 963.032 887.569 960.878 885.661C974.24 884.137 988.28 878.935 988.28 855.307C988.28 848.587 985.952 843.103 982.1 838.795C982.724 837.241 984.782 830.984 981.512 822.512C981.512 822.512 976.484 820.863 965.03 828.819C960.236 827.457 955.1 826.772 950 826.748C944.9 826.772 939.77 827.457 934.982 828.819C923.516 820.863 918.476 822.512 918.476 822.512C915.218 830.984 917.276 837.241 917.894 838.795C914.06 843.103 911.714 848.587 911.714 855.307C911.714 878.875 925.724 884.157 939.05 885.711C937.334 887.247 935.78 889.956 935.24 893.934C931.82 895.506 923.132 898.227 917.78 888.825C917.78 888.825 914.606 882.914 908.582 882.482C908.582 882.482 902.732 882.405 908.174 886.221C908.174 886.221 912.104 888.111 914.834 895.221C914.834 895.221 918.356 906.2 935.048 902.48C935.078 907.622 935.132 912.469 935.132 913.933C935.132 915.559 934.028 917.461 931.034 916.891C907.19 908.761 890 885.697 890 858.518C890 824.54 916.868 797 950 797Z" fill="white"/>
</g>
<g filter="url(#filter10_i_293_214)">
<path class="p11"  d="M1700.67 869.89L1700.67 869.888C1707.77 814.278 1668.5 763.434 1612.99 756.33C1557.48 749.227 1506.43 788.496 1499.33 844.012C1492.23 899.522 1531.5 950.464 1587.01 957.67L1587.01 957.67C1642.62 964.774 1693.46 925.501 1700.67 869.89Z" fill="#470137" stroke="white" stroke-width="3"/>
<path d="M1604.15 824.125L1583.97 858.28L1605.56 894.548C1606.01 895.37 1605.56 895.552 1604.91 895.552H1589.51C1588.42 895.552 1587.66 895.513 1587.23 894.77C1585.78 891.878 1584.33 889.004 1582.89 886.148C1581.44 883.294 1579.9 880.382 1578.28 877.415C1576.65 874.449 1575.04 871.446 1573.45 868.404C1572 871.371 1570.39 874.337 1568.84 877.304C1567.29 880.271 1565.75 883.219 1564.23 886.148C1562.71 889.079 1561.16 891.99 1559.57 894.881C1559.28 895.549 1558.77 895.618 1558.05 895.618H1543.19C1542.6 895.618 1542.53 895.179 1542.86 894.659L1563.8 859.392L1543.4 824.014C1543.03 823.509 1543.35 822.971 1543.95 823.012H1559.24C1559.9 822.975 1560.49 823.225 1560.87 823.791C1562.17 826.758 1563.62 829.726 1565.21 832.692C1566.8 835.659 1568.41 838.589 1570.03 841.48C1571.66 844.373 1573.27 847.302 1574.64 850.27C1576.09 847.229 1577.55 844.263 1579.04 841.369C1580.52 838.477 1582.04 835.566 1583.59 832.636C1585.15 829.707 1586.65 826.796 1588.09 823.903C1588.29 823.268 1588.75 822.947 1589.4 823.012H1603.61C1604.15 823.012 1604.37 823.753 1604.15 824.125Z" fill="#FF61F6"/>
<path d="M1635.28 896.996C1625.71 897.145 1615.69 893.206 1610.66 884.48C1608.2 880.29 1606.97 875.043 1606.97 868.738C1606.93 863.632 1608.2 858.605 1610.66 854.164C1616.99 842.833 1629.76 838.587 1641.89 839.701V817.785C1641.89 817.267 1642.11 817.006 1642.55 817.006H1656.21C1656.59 816.951 1656.92 817.29 1656.86 817.673V883.423C1656.86 886.136 1657.13 888.839 1657.3 891.544C1657.32 892.006 1657.06 892.464 1656.65 892.657C1649.89 895.546 1642.59 896.962 1635.28 896.996ZM1641.89 883.2V852.829C1631.99 850.077 1622.37 857.622 1622.37 868.07C1622.14 878.872 1631.45 886.335 1641.89 883.2Z" fill="#FF61F6"/>
</g>
<g filter="url(#filter11_i_293_214)">
<path class="p12"  d="M2350.67 869.89L2350.67 869.888C2357.77 814.278 2318.5 763.434 2262.99 756.33C2207.48 749.227 2156.43 788.496 2149.33 844.012C2142.23 899.522 2181.5 950.464 2237.01 957.67L2237.01 957.67C2292.62 964.774 2343.46 925.501 2350.67 869.89Z" fill="#0F283D" stroke="white" stroke-width="3"/>
<path d="M2250.78 897H2203.87C2203.07 897 2202.68 896.552 2202.68 895.657V818.109C2202.59 817.478 2203.13 816.92 2203.75 817.01H2218.27C2218.75 816.941 2219.17 817.382 2219.11 817.865V881.613H2253.28C2253.99 881.613 2254.27 881.979 2254.11 882.712L2251.97 895.901C2251.95 896.565 2251.41 896.993 2250.78 897Z" fill="#31A8FF"/>
<path d="M2262.7 836.218H2275.68C2276.39 836.225 2277.04 836.732 2277.22 837.44C2278.18 839.606 2278.29 842.218 2278.3 844.556C2280.52 841.898 2283.21 839.683 2286.21 838.023C2289.44 836.151 2293.1 835.202 2296.8 835.275C2297.42 835.185 2297.96 835.744 2297.88 836.374V851.151C2297.88 851.722 2297.48 852.006 2296.69 852.006C2291.19 851.617 2282.64 852.949 2278.65 857.38V895.801C2278.65 896.534 2278.33 896.901 2277.69 896.901H2263.77C2263.09 897.001 2262.48 896.369 2262.58 895.679V853.96C2262.58 848.37 2262.7 842.611 2261.86 837.074C2261.74 836.564 2262.21 836.09 2262.7 836.218Z" fill="#31A8FF"/>
</g>
<defs>
<filter id="filter0_i_293_214" x="197" y="54" width="206" height="206" filterUnits="userSpaceOnUse" color-interpolation-filters="sRGB">
<feFlood flood-opacity="0" result="BackgroundImageFix"/>
<feBlend mode="normal" in="SourceGraphic" in2="BackgroundImageFix" result="shape"/>
<feColorMatrix in="SourceAlpha" type="matrix" values="0 0 0 0 0 0 0 0 0 0 0 0 0 0 0 0 0 0 127 0" result="hardAlpha"/>
<feOffset/>
<feGaussianBlur stdDeviation="25"/>
<feComposite in2="hardAlpha" operator="arithmetic" k2="-1" k3="1"/>
<feColorMatrix type="matrix" values="0 0 0 0 1 0 0 0 0 1 0 0 0 0 1 0 0 0 1 0"/>
<feBlend mode="overlay" in2="shape" result="effect1_innerShadow_293_214"/>
</filter>
<filter id="filter1_i_293_214" x="1497" y="54" width="206" height="206" filterUnits="userSpaceOnUse" color-interpolation-filters="sRGB">
<feFlood flood-opacity="0" result="BackgroundImageFix"/>
<feBlend mode="normal" in="SourceGraphic" in2="BackgroundImageFix" result="shape"/>
<feColorMatrix in="SourceAlpha" type="matrix" values="0 0 0 0 0 0 0 0 0 0 0 0 0 0 0 0 0 0 127 0" result="hardAlpha"/>
<feOffset/>
<feGaussianBlur stdDeviation="25"/>
<feComposite in2="hardAlpha" operator="arithmetic" k2="-1" k3="1"/>
<feColorMatrix type="matrix" values="0 0 0 0 1 0 0 0 0 1 0 0 0 0 1 0 0 0 1 0"/>
<feBlend mode="overlay" in2="shape" result="effect1_innerShadow_293_214"/>
</filter>
<filter id="filter2_i_293_214" x="197" y="404" width="206" height="206" filterUnits="userSpaceOnUse" color-interpolation-filters="sRGB">
<feFlood flood-opacity="0" result="BackgroundImageFix"/>
<feBlend mode="normal" in="SourceGraphic" in2="BackgroundImageFix" result="shape"/>
<feColorMatrix in="SourceAlpha" type="matrix" values="0 0 0 0 0 0 0 0 0 0 0 0 0 0 0 0 0 0 127 0" result="hardAlpha"/>
<feOffset/>
<feGaussianBlur stdDeviation="25"/>
<feComposite in2="hardAlpha" operator="arithmetic" k2="-1" k3="1"/>
<feColorMatrix type="matrix" values="0 0 0 0 1 0 0 0 0 1 0 0 0 0 1 0 0 0 1 0"/>
<feBlend mode="overlay" in2="shape" result="effect1_innerShadow_293_214"/>
</filter>
<filter id="filter3_i_293_214" x="2147" y="54" width="206.001" height="206" filterUnits="userSpaceOnUse" color-interpolation-filters="sRGB">
<feFlood flood-opacity="0" result="BackgroundImageFix"/>
<feBlend mode="normal" in="SourceGraphic" in2="BackgroundImageFix" result="shape"/>
<feColorMatrix in="SourceAlpha" type="matrix" values="0 0 0 0 0 0 0 0 0 0 0 0 0 0 0 0 0 0 127 0" result="hardAlpha"/>
<feOffset/>
<feGaussianBlur stdDeviation="25"/>
<feComposite in2="hardAlpha" operator="arithmetic" k2="-1" k3="1"/>
<feColorMatrix type="matrix" values="0 0 0 0 1 0 0 0 0 1 0 0 0 0 1 0 0 0 1 0"/>
<feBlend mode="overlay" in2="shape" result="effect1_innerShadow_293_214"/>
</filter>
<filter id="filter4_i_293_214" x="847" y="54" width="206" height="206" filterUnits="userSpaceOnUse" color-interpolation-filters="sRGB">
<feFlood flood-opacity="0" result="BackgroundImageFix"/>
<feBlend mode="normal" in="SourceGraphic" in2="BackgroundImageFix" result="shape"/>
<feColorMatrix in="SourceAlpha" type="matrix" values="0 0 0 0 0 0 0 0 0 0 0 0 0 0 0 0 0 0 127 0" result="hardAlpha"/>
<feOffset/>
<feGaussianBlur stdDeviation="25"/>
<feComposite in2="hardAlpha" operator="arithmetic" k2="-1" k3="1"/>
<feColorMatrix type="matrix" values="0 0 0 0 1 0 0 0 0 1 0 0 0 0 1 0 0 0 1 0"/>
<feBlend mode="overlay" in2="shape" result="effect1_innerShadow_293_214"/>
</filter>
<filter id="filter5_i_293_214" x="847" y="404" width="206" height="206" filterUnits="userSpaceOnUse" color-interpolation-filters="sRGB">
<feFlood flood-opacity="0" result="BackgroundImageFix"/>
<feBlend mode="normal" in="SourceGraphic" in2="BackgroundImageFix" result="shape"/>
<feColorMatrix in="SourceAlpha" type="matrix" values="0 0 0 0 0 0 0 0 0 0 0 0 0 0 0 0 0 0 127 0" result="hardAlpha"/>
<feOffset/>
<feGaussianBlur stdDeviation="25"/>
<feComposite in2="hardAlpha" operator="arithmetic" k2="-1" k3="1"/>
<feColorMatrix type="matrix" values="0 0 0 0 1 0 0 0 0 1 0 0 0 0 1 0 0 0 1 0"/>
<feBlend mode="overlay" in2="shape" result="effect1_innerShadow_293_214"/>
</filter>
<filter id="filter6_i_293_214" x="1497" y="404" width="206" height="206" filterUnits="userSpaceOnUse" color-interpolation-filters="sRGB">
<feFlood flood-opacity="0" result="BackgroundImageFix"/>
<feBlend mode="normal" in="SourceGraphic" in2="BackgroundImageFix" result="shape"/>
<feColorMatrix in="SourceAlpha" type="matrix" values="0 0 0 0 0 0 0 0 0 0 0 0 0 0 0 0 0 0 127 0" result="hardAlpha"/>
<feOffset/>
<feGaussianBlur stdDeviation="25"/>
<feComposite in2="hardAlpha" operator="arithmetic" k2="-1" k3="1"/>
<feColorMatrix type="matrix" values="0 0 0 0 1 0 0 0 0 1 0 0 0 0 1 0 0 0 1 0"/>
<feBlend mode="overlay" in2="shape" result="effect1_innerShadow_293_214"/>
</filter>
<filter id="filter7_i_293_214" x="2147" y="404" width="206.001" height="206" filterUnits="userSpaceOnUse" color-interpolation-filters="sRGB">
<feFlood flood-opacity="0" result="BackgroundImageFix"/>
<feBlend mode="normal" in="SourceGraphic" in2="BackgroundImageFix" result="shape"/>
<feColorMatrix in="SourceAlpha" type="matrix" values="0 0 0 0 0 0 0 0 0 0 0 0 0 0 0 0 0 0 127 0" result="hardAlpha"/>
<feOffset/>
<feGaussianBlur stdDeviation="25"/>
<feComposite in2="hardAlpha" operator="arithmetic" k2="-1" k3="1"/>
<feColorMatrix type="matrix" values="0 0 0 0 1 0 0 0 0 1 0 0 0 0 1 0 0 0 1 0"/>
<feBlend mode="overlay" in2="shape" result="effect1_innerShadow_293_214"/>
</filter>
<filter id="filter8_i_293_214" x="197" y="754" width="206" height="206" filterUnits="userSpaceOnUse" color-interpolation-filters="sRGB">
<feFlood flood-opacity="0" result="BackgroundImageFix"/>
<feBlend mode="normal" in="SourceGraphic" in2="BackgroundImageFix" result="shape"/>
<feColorMatrix in="SourceAlpha" type="matrix" values="0 0 0 0 0 0 0 0 0 0 0 0 0 0 0 0 0 0 127 0" result="hardAlpha"/>
<feOffset/>
<feGaussianBlur stdDeviation="25"/>
<feComposite in2="hardAlpha" operator="arithmetic" k2="-1" k3="1"/>
<feColorMatrix type="matrix" values="0 0 0 0 1 0 0 0 0 1 0 0 0 0 1 0 0 0 1 0"/>
<feBlend mode="overlay" in2="shape" result="effect1_innerShadow_293_214"/>
</filter>
<filter id="filter9_i_293_214" x="847" y="754" width="206" height="206" filterUnits="userSpaceOnUse" color-interpolation-filters="sRGB">
<feFlood flood-opacity="0" result="BackgroundImageFix"/>
<feBlend mode="normal" in="SourceGraphic" in2="BackgroundImageFix" result="shape"/>
<feColorMatrix in="SourceAlpha" type="matrix" values="0 0 0 0 0 0 0 0 0 0 0 0 0 0 0 0 0 0 127 0" result="hardAlpha"/>
<feOffset/>
<feGaussianBlur stdDeviation="25"/>
<feComposite in2="hardAlpha" operator="arithmetic" k2="-1" k3="1"/>
<feColorMatrix type="matrix" values="0 0 0 0 1 0 0 0 0 1 0 0 0 0 1 0 0 0 1 0"/>
<feBlend mode="overlay" in2="shape" result="effect1_innerShadow_293_214"/>
</filter>
<filter id="filter10_i_293_214" x="1497" y="754" width="206" height="206" filterUnits="userSpaceOnUse" color-interpolation-filters="sRGB">
<feFlood flood-opacity="0" result="BackgroundImageFix"/>
<feBlend mode="normal" in="SourceGraphic" in2="BackgroundImageFix" result="shape"/>
<feColorMatrix in="SourceAlpha" type="matrix" values="0 0 0 0 0 0 0 0 0 0 0 0 0 0 0 0 0 0 127 0" result="hardAlpha"/>
<feOffset/>
<feGaussianBlur stdDeviation="25"/>
<feComposite in2="hardAlpha" operator="arithmetic" k2="-1" k3="1"/>
<feColorMatrix type="matrix" values="0 0 0 0 1 0 0 0 0 1 0 0 0 0 1 0 0 0 1 0"/>
<feBlend mode="overlay" in2="shape" result="effect1_innerShadow_293_214"/>
</filter>
<filter id="filter11_i_293_214" x="2147" y="754" width="206.001" height="206" filterUnits="userSpaceOnUse" color-interpolation-filters="sRGB">
<feFlood flood-opacity="0" result="BackgroundImageFix"/>
<feBlend mode="normal" in="SourceGraphic" in2="BackgroundImageFix" result="shape"/>
<feColorMatrix in="SourceAlpha" type="matrix" values="0 0 0 0 0 0 0 0 0 0 0 0 0 0 0 0 0 0 127 0" result="hardAlpha"/>
<feOffset/>
<feGaussianBlur stdDeviation="25"/>
<feComposite in2="hardAlpha" operator="arithmetic" k2="-1" k3="1"/>
<feColorMatrix type="matrix" values="0 0 0 0 1 0 0 0 0 1 0 0 0 0 1 0 0 0 1 0"/>
<feBlend mode="overlay" in2="shape" result="effect1_innerShadow_293_214"/>
</filter>
<linearGradient id="paint0_linear_293_214" x1="7980.25" y1="460.207" x2="7980.25" y2="3860.18" gradientUnits="userSpaceOnUse">
<stop stop-color="#E459FF"/>
<stop offset="1" stop-color="#914DFF"/>
</linearGradient>
<linearGradient id="paint1_linear_293_214" x1="4975.89" y1="1416.27" x2="8458.15" y2="3741.75" gradientUnits="userSpaceOnUse">
<stop stop-color="#F0A5FF"/>
<stop offset="1" stop-color="#FF676B"/>
</linearGradient>
<linearGradient id="paint2_linear_293_214" x1="8181.13" y1="443.575" x2="8181.13" y2="3348.39" gradientUnits="userSpaceOnUse">
<stop stop-color="#6E3BFF"/>
<stop offset="1" stop-color="#3633FF"/>
</linearGradient>
<linearGradient id="paint3_linear_293_214" x1="6965.57" y1="1734.1" x2="7862.11" y2="2807.8" gradientUnits="userSpaceOnUse">
<stop stop-color="#F0A5FF"/>
<stop offset="1" stop-color="#FF676B"/>
</linearGradient>
<linearGradient id="paint4_linear_293_214" x1="338.128" y1="802.334" x2="338.128" y2="912.334" gradientUnits="userSpaceOnUse">
<stop stop-color="#32B5F1"/>
<stop offset="1" stop-color="#2B9FED"/>
</linearGradient>
<linearGradient id="paint5_linear_293_214" x1="327.174" y1="816.217" x2="248.681" y2="882.104" gradientUnits="userSpaceOnUse">
<stop stop-color="#0F6FB3"/>
<stop offset="0.270551" stop-color="#1279B7"/>
<stop offset="0.421376" stop-color="#1176B5"/>
<stop offset="0.618197" stop-color="#0E69AC"/>
<stop offset="0.855344" stop-color="#0F70AF"/>
<stop offset="1" stop-color="#0F6DAD"/>
</linearGradient>
<linearGradient id="paint6_linear_293_214" x1="249.205" y1="833.7" x2="327.478" y2="898.509" gradientUnits="userSpaceOnUse">
<stop stop-color="#1791D2"/>
<stop offset="1" stop-color="#1173C5"/>
</linearGradient>
</defs>
</svg>
