<svg width="2550" height="1336" viewBox="0 0 2550 1336" fill="none" xmlns="http://www.w3.org/2000/svg">
<path d="M0 0H2550V1336H0V0Z" fill="#0D1117"/>
<g filter="url(#filter0_i_293_214)">
<path d="M300 368C382.843 368 450 300.843 450 218C450 135.157 382.843 68 300 68C217.157 68 150 135.157 150 218C150 300.843 217.157 368 300 368Z" fill="#1794D4"/>
<path d="M321.529 132H300.941V152.588H321.529V132Z" fill="white"/>
<path d="M239.177 162.883H259.765V183.471H239.177V162.883Z" fill="white"/>
<path d="M198.016 234.337C199.775 264.203 217.562 306.999 280.353 306.999C350.353 306.999 381.578 255.529 388.441 229.793C397.019 229.793 416.235 224.646 424.47 204.058C419.323 198.911 398.735 198.911 388.441 204.058C388.441 195.823 383.294 178.323 373 173.176C366.137 180.039 355.5 197.882 367.853 214.352C362.706 224.646 348.98 224.646 342.117 224.646H207.706C202.256 224.646 197.695 228.896 198.016 234.337Z" fill="white"/>
<path d="M228.882 193.764H208.294V214.352H228.882V193.764Z" fill="white"/>
<path d="M239.177 193.764H259.765V214.352H239.177V193.764Z" fill="white"/>
<path d="M290.647 193.764H270.059V214.352H290.647V193.764Z" fill="white"/>
<path d="M300.941 193.764H321.529V214.352H300.941V193.764Z" fill="white"/>
<path d="M352.412 193.764H331.824V214.352H352.412V193.764Z" fill="white"/>
<path d="M290.647 162.883H270.059V183.471H290.647V162.883Z" fill="white"/>
<path d="M300.941 162.883H321.529V183.471H300.941V162.883Z" fill="white"/>
</g>
<g filter="url(#filter1_i_293_214)">
<path d="M1600 368C1682.84 368 1750 300.843 1750 218C1750 135.157 1682.84 68 1600 68C1517.16 68 1450 135.157 1450 218C1450 300.843 1517.16 368 1600 368Z" fill="#008236"/>
<path d="M1643.19 197.621C1632.66 151.13 1607.76 135.843 1605.08 130.003C1602.15 125.883 1599.18 118.554 1599.18 118.554C1599.13 118.43 1599.05 118.212 1598.96 118C1598.66 122.12 1598.5 123.71 1594.61 127.866C1588.57 132.583 1557.62 158.553 1555.1 211.373C1552.76 260.636 1590.69 289.991 1595.82 293.733L1596.4 294.147V294.111C1596.44 294.359 1598.03 305.837 1599.15 318H1603.17C1604.12 309.403 1605.53 300.863 1607.41 292.421L1607.73 292.209C1610.03 290.563 1612.22 288.774 1614.28 286.851L1614.52 286.639C1625.42 276.564 1645.03 253.262 1644.84 216.109C1644.8 209.912 1644.25 203.728 1643.19 197.621ZM1598.73 265.919C1598.73 265.919 1598.73 196.826 1601.01 196.839C1602.78 196.839 1605.09 285.961 1605.09 285.961C1601.92 285.58 1598.73 271.294 1598.73 265.919Z" fill="white"/>
</g>
<g filter="url(#filter2_i_293_214)">
<path d="M448.773 687.047C459.271 604.861 401.232 529.725 319.197 519.227C237.161 508.729 161.725 566.768 151.227 648.803C140.729 730.839 198.768 806.125 280.803 816.773C362.989 827.271 438.125 769.232 448.773 687.047Z" fill="#335689"/>
<path d="M300.5 668C300.5 651.427 313.601 638.004 329.75 638.004C345.911 638.004 359 651.414 359 668C359 684.572 345.911 697.995 329.75 697.995C313.614 697.995 300.5 684.585 300.5 668Z" fill="#1ABCFE"/>
<path d="M242 728.005C242 711.432 255.101 697.996 271.25 697.996H300.5V728.005C300.5 744.564 287.398 758 271.25 758C255.101 758 242 744.564 242 728.005Z" fill="#0ACF83"/>
<path d="M300.5 578V638.004H329.75C345.911 638.004 359 624.568 359 607.996C359 591.436 345.911 578 329.75 578H300.5Z" fill="#FF7262"/>
<path d="M242 607.996C242 624.568 255.101 638.004 271.25 638.004H300.5V578H271.25C255.101 578 242 591.436 242 607.996Z" fill="#F24E1E"/>
<path d="M242 668C242 684.572 255.101 697.995 271.25 697.995H300.5V638.004H271.25C255.101 638.004 242 651.414 242 668Z" fill="#A259FF"/>
</g>
<g filter="url(#filter3_i_293_214)">
<path d="M2398.77 237.047C2409.27 154.861 2351.23 79.7249 2269.2 69.2268C2187.16 58.7287 2111.72 116.768 2101.23 198.803C2090.73 280.839 2148.77 356.125 2230.8 366.773C2312.99 377.271 2388.13 319.232 2398.77 237.047Z" fill="#A73D2E"/>
<path d="M2199.49 128L2188 139.494L2217.69 169.181C2216.49 171.758 2215.82 174.631 2215.82 177.661C2215.82 186.264 2221.22 193.604 2228.82 196.471V269.093C2221.22 271.959 2215.82 279.3 2215.82 287.902C2215.82 299.002 2224.81 308 2235.91 308C2247.01 308 2256.01 299.002 2256.01 287.902C2256.01 280.104 2251.57 273.341 2245.08 270.01V196.57L2273.45 224.948C2272.31 227.472 2271.68 230.275 2271.68 233.225C2271.68 244.325 2280.67 253.323 2291.77 253.323C2302.87 253.323 2311.87 244.325 2311.87 233.225C2311.87 222.126 2302.87 213.128 2291.77 213.128C2289.62 213.128 2287.54 213.467 2285.59 214.096L2255.11 183.619C2255.7 181.737 2256.01 179.735 2256.01 177.661C2256.01 166.562 2247.01 157.563 2235.91 157.563C2233.84 157.563 2231.84 157.878 2229.96 158.461L2199.49 128Z" fill="white"/>
</g>
<g filter="url(#filter4_i_293_214)">
<path d="M1098.77 237.047C1109.27 154.861 1051.23 79.7249 969.197 69.2268C887.161 58.7287 811.725 116.768 801.227 198.803C790.729 280.839 848.768 356.125 930.803 366.773C1012.99 377.271 1088.13 319.232 1098.77 237.047Z" fill="#BC532D"/>
<path d="M999.273 170.536L938.624 231.185L921.521 214.083C981.165 154.439 987.057 159.613 999.273 170.536Z" fill="white"/>
<path d="M938.624 232.621C938.193 232.621 937.905 232.477 937.618 232.19L920.372 215.087C919.797 214.512 919.797 213.65 920.372 213.075C981.021 152.426 987.345 158.174 1000.14 169.672C1000.42 169.959 1000.57 170.247 1000.57 170.678C1000.57 171.109 1000.42 171.397 1000.14 171.684L939.486 232.19C939.342 232.477 938.911 232.621 938.624 232.621ZM923.533 214.081L938.624 229.172L997.117 170.678C986.482 161.193 979.296 158.318 923.533 214.081Z" fill="#BC532D"/>
<path d="M956.014 248.576L939.486 232.048L1000.14 171.398C1016.38 187.782 992.087 214.37 956.014 248.576Z" fill="white"/>
<path d="M956.014 250.01C955.583 250.01 955.296 249.867 955.008 249.579L938.481 233.052C938.193 232.764 938.193 232.477 938.193 232.046C938.193 231.614 938.337 231.327 938.624 231.04L999.274 170.39C999.849 169.815 1000.71 169.815 1001.29 170.39C1005.02 173.839 1007.03 178.726 1006.89 183.756C1006.6 199.709 988.495 219.973 957.164 249.579C956.733 249.867 956.302 250.01 956.014 250.01ZM941.499 232.046C950.697 241.387 954.577 245.124 956.014 246.561C980.159 223.566 1003.59 199.996 1003.73 183.756C1003.87 180.019 1002.44 176.283 999.992 173.408L941.499 232.046Z" fill="#BC532D"/>
<path d="M921.809 214.512L934.025 226.728C934.313 227.016 934.313 227.303 934.025 227.591C933.881 227.734 933.881 227.734 933.738 227.734L908.443 233.196C907.15 233.339 906 232.477 905.712 231.184C905.569 230.465 905.856 229.746 906.287 229.315L920.947 214.656C921.234 214.368 921.665 214.225 921.809 214.512Z" fill="white"/>
<path d="M908.012 234.634C905.856 234.634 904.275 232.909 904.275 230.753C904.275 229.747 904.707 228.741 905.425 228.023L920.084 213.363C920.947 212.645 922.097 212.645 922.959 213.363L935.175 225.579C936.037 226.298 936.037 227.591 935.175 228.454C934.888 228.741 934.6 228.885 934.169 229.029L908.874 234.49C908.587 234.49 908.3 234.634 908.012 234.634ZM921.378 216.094L907.293 230.178C907.006 230.466 906.862 230.897 907.15 231.328C907.293 231.759 907.725 231.903 908.156 231.759L931.869 226.585L921.378 216.094Z" fill="#BC532D"/>
<path d="M1031.32 136.905C1022.12 127.994 1007.32 128.281 998.411 137.623C989.5 146.965 989.788 161.624 999.13 170.535C1006.75 177.864 1018.24 179.158 1027.3 173.697L1010.91 157.313L1031.32 136.905Z" fill="white"/>
<path d="M1015.23 178.439C1001.57 178.439 990.507 167.373 990.507 153.72C990.507 140.066 1001.57 129 1015.23 129C1021.55 129 1027.73 131.443 1032.33 135.899C1032.62 136.186 1032.76 136.473 1032.76 136.905C1032.76 137.336 1032.62 137.623 1032.33 137.911L1012.93 157.313L1028.16 172.547C1028.74 173.122 1028.74 173.984 1028.16 174.559C1028.02 174.703 1028.02 174.703 1027.87 174.846C1024.14 177.146 1019.68 178.439 1015.23 178.439ZM1015.23 132.018C1003.15 132.018 993.381 141.791 993.525 153.863C993.525 165.936 1003.3 175.709 1015.37 175.565C1018.68 175.565 1021.98 174.846 1025 173.265L1009.91 158.319C1009.62 158.031 1009.48 157.744 1009.48 157.313C1009.48 156.881 1009.62 156.594 1009.91 156.307L1029.17 137.048C1025.29 133.743 1020.4 132.018 1015.23 132.018Z" fill="#BC532D"/>
<path d="M1031.75 137.336L1031.47 137.049L1010.91 157.313L1027.16 173.553C1028.74 172.547 1030.32 171.398 1031.61 170.104C1040.81 161.05 1040.81 146.391 1031.75 137.336Z" fill="white"/>
<path d="M1027.3 175.135C1026.87 175.135 1026.58 174.991 1026.29 174.704L1009.91 158.32C1009.62 158.033 1009.48 157.745 1009.48 157.314C1009.48 156.883 1009.62 156.595 1009.91 156.308L1030.32 135.9C1030.89 135.325 1031.75 135.325 1032.33 135.9L1032.76 136.187C1042.39 145.817 1042.39 161.338 1032.9 171.111C1031.47 172.548 1029.89 173.842 1028.16 174.848C1027.73 174.991 1027.44 175.135 1027.3 175.135ZM1012.93 157.314L1027.44 171.83C1028.59 171.111 1029.74 170.105 1030.6 169.243C1038.8 161.051 1039.23 147.685 1031.32 139.062L1012.93 157.314Z" fill="#BC532D"/>
<path d="M1001.72 173.122C998.268 169.673 992.663 169.673 989.214 173.122L935.031 227.304L944.086 236.358L1001.43 186.057C1005.17 182.895 1005.45 177.29 1002.29 173.553C1002 173.41 1001.86 173.266 1001.72 173.122Z" fill="white"/>
<path d="M943.942 237.795C943.511 237.795 943.223 237.652 942.936 237.364L933.882 228.31C933.307 227.735 933.307 226.873 933.882 226.298L988.064 172.116C992.088 168.092 998.555 168.092 1002.58 172.116C1006.6 176.14 1006.6 182.607 1002.58 186.631C1002.44 186.775 1002.29 186.919 1002.15 187.063L944.804 237.364C944.661 237.652 944.373 237.795 943.942 237.795ZM937.043 227.304L944.086 234.346L1000.42 184.907C1003.59 182.32 1003.87 177.577 1001.29 174.415C998.699 171.253 993.956 170.966 990.794 173.553C990.651 173.697 990.507 173.84 990.219 173.984L937.043 227.304Z" fill="#BC532D"/>
<path d="M893.496 288.96C892.922 289.247 892.634 289.822 892.778 290.397L895.221 300.745C895.796 302.182 894.934 303.906 893.353 304.338C892.203 304.769 890.91 304.338 890.191 303.475L874.382 287.81L925.977 236.215L943.798 236.502L955.87 248.575C952.996 251.018 935.606 267.833 893.496 288.96Z" fill="white"/>
<path d="M892.347 305.775C891.197 305.775 890.047 305.343 889.328 304.481L873.663 288.816C873.376 288.528 873.232 288.241 873.232 287.81C873.232 287.378 873.376 287.091 873.663 286.804L925.258 235.208C925.546 234.921 925.977 234.777 926.264 234.777L944.085 235.065C944.517 235.065 944.804 235.209 945.091 235.496L957.164 247.568C957.451 247.856 957.595 248.287 957.595 248.718C957.595 249.149 957.451 249.437 957.02 249.724L956.014 250.586C940.78 263.952 920.084 277.318 894.359 290.109L896.802 300.313C897.233 302.182 896.371 304.194 894.646 305.2C893.784 305.631 893.065 305.775 892.347 305.775ZM876.537 287.81L891.341 302.469C891.772 303.188 892.634 303.475 893.353 303.044C894.071 302.613 894.359 301.75 893.927 301.032L891.484 290.684C891.197 289.391 891.772 288.241 892.921 287.666C918.36 274.875 938.911 261.653 954.002 248.574L943.367 237.939L926.839 237.652L876.537 287.81Z" fill="#BC532D"/>
<path d="M862.165 300.168L874.525 287.809L892.921 306.205L863.603 304.193C862.309 304.049 861.447 302.899 861.591 301.606C861.591 301.031 861.734 300.456 862.165 300.168Z" fill="white"/>
<path d="M892.922 307.499L863.459 305.487C861.303 305.343 859.866 303.475 860.01 301.319C860.154 300.457 860.441 299.594 861.16 299.019L873.519 286.66C874.094 286.085 874.957 286.085 875.532 286.66L893.928 305.056C894.359 305.487 894.502 306.062 894.215 306.637C893.928 307.211 893.496 307.499 892.922 307.499ZM874.525 289.821L863.172 301.175C862.741 301.463 862.741 302.181 863.172 302.469C863.315 302.612 863.459 302.756 863.747 302.756L889.185 304.481L874.525 289.821Z" fill="#BC532D"/>
<path d="M920.947 242.827C920.084 242.827 919.51 242.108 919.51 241.39C919.51 240.958 919.653 240.671 919.941 240.384L933.881 226.443C934.456 225.868 935.319 225.868 935.893 226.443L944.948 235.497C945.379 235.928 945.523 236.359 945.379 236.934C945.235 237.366 944.804 237.797 944.229 237.94L921.234 242.827C921.09 242.827 920.947 242.827 920.947 242.827ZM934.887 229.461L925.402 238.946L940.924 235.641L934.887 229.461Z" fill="#BC532D"/>
<path d="M943.798 236.502L927.989 239.952C926.839 240.239 925.69 239.52 925.402 238.371C925.258 237.652 925.402 236.934 925.977 236.359L934.744 227.592L943.798 236.502Z" fill="white"/>
<path d="M927.702 241.39C925.69 241.39 924.109 239.809 924.109 237.797C924.109 236.791 924.54 235.928 925.115 235.21L933.882 226.443C934.457 225.868 935.319 225.868 935.894 226.443L944.948 235.497C945.379 235.928 945.523 236.359 945.379 236.934C945.236 237.366 944.804 237.797 944.23 237.94L928.42 241.39C928.133 241.39 927.846 241.39 927.702 241.39ZM934.888 229.461L927.127 237.222C926.84 237.509 926.84 237.797 926.983 238.084C927.127 238.372 927.414 238.515 927.846 238.515L941.068 235.641L934.888 229.461Z" fill="#BC532D"/>
<path d="M1031.9 151.134C1031.61 150.271 1030.6 149.84 1029.74 150.128C1028.88 150.415 1028.45 151.421 1028.74 152.284C1028.74 152.427 1028.88 152.571 1028.88 152.715C1029.74 154.439 1029.45 156.595 1028.3 158.176C1027.73 158.895 1027.87 159.901 1028.45 160.476C1029.17 161.05 1030.17 160.907 1030.75 160.188C1032.9 157.457 1033.33 154.008 1031.9 151.134Z" fill="#BC532D"/>
</g>
<g filter="url(#filter5_i_293_214)">
<path d="M1098.77 687.047C1109.27 604.861 1051.23 529.725 969.197 519.227C887.161 508.729 811.725 566.768 801.227 648.803C790.729 730.839 848.768 806.125 930.803 816.773C1012.99 827.271 1088.13 769.232 1098.77 687.047Z" fill="#1D1B1B"/>
<path d="M952.167 570L1038.05 720H866.286L952.167 570Z" fill="white"/>
</g>
<g filter="url(#filter6_i_293_214)">
<path d="M1748.77 687.047C1759.27 604.861 1701.23 529.725 1619.2 519.227C1537.16 508.729 1461.72 566.768 1451.23 648.803C1440.73 730.839 1498.77 806.125 1580.8 816.773C1662.99 827.271 1738.13 769.232 1748.77 687.047Z" fill="#1A8178"/>
<path d="M1640.28 640.458L1640.21 640.423C1640.17 640.423 1640.14 640.387 1640.1 640.352C1640 640.247 1639.96 640.071 1639.96 639.93L1643.58 617.749L1660.59 634.763L1642.91 642.286C1642.88 642.321 1642.81 642.321 1642.77 642.321H1642.7C1642.67 642.321 1642.67 642.286 1642.6 642.251C1641.96 641.512 1641.16 640.915 1640.28 640.458ZM1664.95 639.087L1683.16 657.296C1686.92 661.092 1688.82 662.956 1689.53 665.17C1689.63 665.487 1689.7 665.803 1689.77 666.154L1646.29 647.699C1646.25 647.699 1646.25 647.664 1646.22 647.664C1646.04 647.594 1645.83 647.523 1645.83 647.348C1645.83 647.172 1646.04 647.102 1646.22 647.031L1646.29 646.996L1664.95 639.087ZM1689.03 671.955C1688.08 673.712 1686.26 675.54 1683.16 678.669L1662.63 699.163L1636.13 693.644L1635.99 693.609C1635.74 693.574 1635.5 693.539 1635.5 693.328C1635.28 691.113 1634.19 689.074 1632.44 687.738C1632.33 687.633 1632.37 687.457 1632.4 687.316V687.246L1637.39 656.628L1637.43 656.523C1637.46 656.277 1637.5 656.03 1637.71 656.03C1639.85 655.749 1641.82 654.624 1643.16 652.902C1643.19 652.867 1643.23 652.796 1643.3 652.761C1643.44 652.691 1643.62 652.761 1643.79 652.832L1689.03 671.955ZM1657.92 703.909L1624.18 737.655L1629.94 702.186V702.151C1629.94 702.116 1629.94 702.045 1629.98 702.01C1630.01 701.905 1630.15 701.835 1630.26 701.799L1630.33 701.764C1631.59 701.237 1632.72 700.393 1633.6 699.339C1633.7 699.198 1633.84 699.093 1634.02 699.058H1634.16L1657.92 703.909ZM1617.08 744.756L1613.28 748.553L1571.24 687.809C1571.24 687.773 1571.2 687.773 1571.2 687.738C1571.13 687.633 1571.06 687.563 1571.1 687.457C1571.1 687.387 1571.13 687.316 1571.2 687.246L1571.24 687.176C1571.38 687 1571.48 686.789 1571.59 686.613L1571.69 686.438C1571.76 686.332 1571.83 686.227 1571.94 686.156C1572.04 686.121 1572.19 686.121 1572.29 686.156L1618.87 695.753C1619.01 695.788 1619.11 695.823 1619.22 695.894C1619.29 695.964 1619.29 696.034 1619.33 696.105C1619.99 698.601 1621.79 700.639 1624.14 701.624C1624.28 701.694 1624.21 701.835 1624.14 701.975C1624.11 702.046 1624.07 702.116 1624.07 702.186C1623.44 705.807 1618.41 736.495 1617.08 744.756ZM1609.13 752.701C1606.32 755.478 1604.67 756.954 1602.8 757.552C1600.98 758.149 1598.97 758.149 1597.14 757.552C1594.96 756.849 1593.07 754.986 1589.27 751.189L1547.09 708.971L1558.12 691.886C1558.16 691.816 1558.23 691.711 1558.3 691.675C1558.41 691.605 1558.58 691.64 1558.72 691.675C1561.25 692.449 1563.96 692.308 1566.42 691.289C1566.56 691.254 1566.67 691.218 1566.77 691.289L1566.91 691.429L1609.13 752.701ZM1543.01 704.893L1533.34 695.226L1552.46 687.07C1552.5 687.035 1552.57 687.035 1552.61 687.035C1552.78 687.035 1552.85 687.211 1552.96 687.352C1553.13 687.633 1553.34 687.949 1553.55 688.23L1553.62 688.301C1553.69 688.371 1553.66 688.477 1553.59 688.547L1543.01 704.893ZM1529.02 690.902L1516.75 678.634C1514.68 676.56 1513.16 675.048 1512.11 673.747L1549.37 681.481C1549.41 681.481 1549.48 681.481 1549.51 681.516C1549.76 681.551 1550 681.587 1550 681.797C1550 682.044 1549.72 682.149 1549.48 682.219L1549.37 682.254C1549.41 682.29 1529.02 690.902 1529.02 690.902ZM1510 667.49C1510.04 666.717 1510.18 665.908 1510.42 665.17C1511.12 662.991 1512.99 661.092 1516.78 657.296L1532.46 641.618C1539.67 652.093 1546.91 662.569 1554.19 673.009C1554.33 673.185 1554.47 673.361 1554.29 673.501C1553.62 674.24 1552.92 675.083 1552.43 675.997C1552.39 676.103 1552.29 676.208 1552.18 676.278C1552.11 676.314 1552.04 676.314 1551.97 676.278L1510 667.49ZM1536.65 637.435L1557.74 616.343C1559.71 617.222 1566.91 620.245 1573.38 622.987C1578.27 625.061 1582.7 626.924 1584.1 627.557C1584.24 627.627 1584.38 627.662 1584.42 627.803C1584.45 627.873 1584.45 627.979 1584.42 628.084C1583.75 631.177 1584.66 634.411 1586.88 636.661C1587.02 636.802 1586.88 637.013 1586.77 637.189L1586.7 637.294L1565.3 670.443C1565.23 670.549 1565.19 670.619 1565.08 670.689C1564.98 670.759 1564.8 670.724 1564.7 670.689C1563.85 670.478 1563.01 670.338 1562.13 670.338C1561.36 670.338 1560.51 670.478 1559.67 670.619C1559.57 670.619 1559.5 670.654 1559.42 670.584C1559.35 670.513 1559.28 670.443 1559.21 670.338L1536.65 637.435ZM1561.99 612.089L1589.27 584.811C1593.03 581.05 1594.93 579.151 1597.14 578.448C1598.97 577.851 1600.98 577.851 1602.8 578.448C1604.98 579.151 1606.88 581.014 1610.68 584.811L1616.58 590.717L1597.18 620.772C1597.14 620.843 1597.07 620.948 1597 620.983C1596.9 621.053 1596.72 621.018 1596.58 620.983C1593.49 620.034 1590.11 620.702 1587.58 622.706C1587.44 622.846 1587.27 622.776 1587.13 622.706C1584.52 621.616 1564.8 613.285 1561.99 612.089ZM1620.7 594.829L1638.62 612.757L1634.3 639.509V639.579C1634.3 639.649 1634.3 639.684 1634.27 639.755C1634.23 639.86 1634.12 639.86 1634.02 639.895C1633.11 640.177 1632.23 640.598 1631.45 641.161C1631.42 641.196 1631.38 641.196 1631.35 641.231C1631.31 641.301 1631.24 641.337 1631.17 641.337C1631.1 641.337 1631.03 641.337 1630.96 641.301L1603.65 629.701L1603.61 629.666C1603.44 629.596 1603.23 629.525 1603.23 629.349C1603.05 627.838 1602.56 626.361 1601.78 625.061C1601.64 624.85 1601.5 624.604 1601.61 624.393L1620.7 594.829ZM1602.24 635.22L1627.83 646.047C1627.97 646.117 1628.11 646.188 1628.18 646.328C1628.22 646.399 1628.22 646.504 1628.18 646.61C1628.11 646.996 1628.04 647.418 1628.04 647.84V648.543C1628.04 648.719 1627.87 648.789 1627.69 648.859L1627.66 648.894C1623.61 650.617 1570.71 673.185 1570.64 673.185C1570.57 673.185 1570.46 673.185 1570.39 673.115C1570.25 672.974 1570.39 672.763 1570.53 672.587C1570.57 672.552 1570.57 672.517 1570.6 672.482L1591.62 639.895L1591.66 639.825C1591.77 639.614 1591.91 639.403 1592.15 639.403L1592.36 639.438C1592.86 639.509 1593.28 639.579 1593.7 639.579C1596.9 639.579 1599.85 638.032 1601.64 635.361C1601.68 635.29 1601.75 635.22 1601.82 635.185C1601.89 635.115 1602.1 635.15 1602.24 635.22ZM1572.92 678.353L1630.57 653.781C1630.57 653.781 1630.64 653.781 1630.75 653.851C1631.07 654.167 1631.35 654.378 1631.59 654.589L1631.73 654.66C1631.84 654.73 1631.98 654.8 1631.98 654.906V655.011L1627.06 685.348L1627.02 685.453C1626.99 685.699 1626.95 685.946 1626.74 685.946C1624.07 686.121 1621.65 687.598 1620.31 689.918L1620.27 689.953C1620.2 690.058 1620.13 690.164 1620.03 690.234C1619.92 690.269 1619.82 690.269 1619.71 690.234L1573.73 680.743C1573.63 680.778 1572.96 678.353 1572.92 678.353Z" fill="white"/>
</g>
<g filter="url(#filter7_i_293_214)">
<path d="M2398.77 687.047C2409.27 604.861 2351.23 529.725 2269.2 519.227C2187.16 508.729 2111.72 566.768 2101.23 648.803C2090.73 730.839 2148.77 806.125 2230.8 816.773C2312.99 827.271 2388.13 769.232 2398.77 687.047Z" fill="#679693"/>
<path fill-rule="evenodd" clip-rule="evenodd" d="M2214.54 609.436C2197.57 606.028 2157.68 623.397 2160.11 642.887C2166.14 644.682 2171.4 646.876 2170.54 649.124H2336.56C2337.56 642.476 2332.34 637.379 2335.87 631.831C2336.98 630.079 2337.83 628.081 2338.42 626.088V615.301C2338.33 615.222 2338.24 615.153 2338.13 615.102C2296.91 628.443 2316.93 625.623 2272.93 615.108C2265.3 605.526 2239.96 598.586 2228.14 597.812C2223.61 597.812 2214.54 609.436 2214.54 609.436Z" fill="url(#paint0_linear_293_214)"/>
<path fill-rule="evenodd" clip-rule="evenodd" d="M2269.25 643.455V648.558H2170.63C2170.72 650.066 2168.23 651.614 2161.52 653.094C2167.48 660.464 2185.05 667.549 2191.29 668.402C2190.17 668.635 2188.93 669.048 2187.62 669.613C2207.57 672.124 2231.16 672.975 2242.89 673.221H2281.59C2281.18 673.128 2280.75 673.034 2280.31 672.938C2271.7 671.316 2275.14 672.487 2270.95 670.103C2326.38 656.759 2294.26 658.732 2338.13 668.402C2339.55 665.851 2332.75 659.614 2335.87 651.679C2337.05 648.66 2336.76 645.972 2336.17 643.455H2269.25Z" fill="url(#paint1_linear_293_214)"/>
<path fill-rule="evenodd" clip-rule="evenodd" d="M2230.69 663.582V668.685C2221.43 668.492 2205.41 668.384 2190.28 668.651C2180.29 671.48 2162.63 686.562 2160.11 695.432V699.044C2160.19 699.231 2160.28 699.412 2160.39 699.585C2165.66 701.153 2170.34 703.024 2170.87 704.971H2245.15V699.869H2336.23C2335.28 695.645 2333.35 691.92 2335.87 687.962C2338.46 682.389 2339.67 678.564 2339.84 676.044V674.924C2339.11 665.552 2318.78 680.472 2307.52 680.591C2294.76 678.321 2297.31 676.622 2280.31 672.937C2271.7 671.316 2275.14 672.486 2270.95 670.102C2281.49 667.565 2288.86 665.583 2294.2 664.101V663.582H2230.69Z" fill="url(#paint2_linear_293_214)"/>
<path fill-rule="evenodd" clip-rule="evenodd" d="M2223.89 623.326H2224.17C2230.97 635.36 2226.64 644.599 2223.04 656.494C2222.03 658.901 2225.69 660.763 2226.73 658.195C2229.61 647.144 2234.19 634.997 2228.71 623.893H2229.28C2255.51 624.094 2282.05 628.857 2305.82 640.335C2307.4 640.692 2312.48 644.599 2313.47 641.469C2302.03 627.93 2257.48 620.219 2238.63 620.772C2237.81 620.927 2235.85 620.678 2233.61 620.431C2231.85 620.236 2229.92 620.043 2228.22 620.043C2225.07 620.043 2222.73 620.718 2223.89 623.326Z" fill="#974DFF"/>
<path fill-rule="evenodd" clip-rule="evenodd" d="M2223.89 623.325H2224.17C2228.27 631.076 2229.32 640.55 2225.31 648.555H2229.28C2231.34 640.513 2232.03 631.895 2228.43 624.175C2254.97 624.255 2281.9 628.601 2305.82 640.618C2307.39 640.896 2312.77 645.162 2313.47 641.752C2301.44 627.957 2258.02 620.221 2238.63 620.771C2237.7 620.949 2235.75 620.689 2233.57 620.425C2231.89 620.224 2230.06 620.02 2228.44 620.02C2225.48 620.02 2223.23 620.703 2223.89 623.325Z" fill="#F1A5FF"/>
<path fill-rule="evenodd" clip-rule="evenodd" d="M2213.69 624.742H2213.97C2219.47 632.235 2219.23 641.292 2215.67 649.406C2214.48 651.379 2217.44 653.352 2218.51 651.107C2220.5 646.908 2221.87 642.163 2221.91 637.499C2221.95 632.252 2219.55 626.84 2216.8 622.474C2216.44 621.825 2215.92 621.559 2215.39 621.559C2214.01 621.559 2212.58 623.311 2213.69 624.742Z" fill="#974DFF"/>
<path fill-rule="evenodd" clip-rule="evenodd" d="M2219.64 648.557C2221.28 641.697 2222.5 634.403 2218.79 627.863C2218.27 626.788 2216.74 623.687 2216.8 622.476C2215.62 620.288 2212.47 622.465 2213.69 624.461H2213.97C2219.01 631.659 2219.64 640.628 2215.95 648.557H2219.64Z" fill="#F1A5FF"/>
<path fill-rule="evenodd" clip-rule="evenodd" d="M2213.68 624.46H2213.97C2219.01 631.658 2219.64 640.63 2215.95 648.556H2219.64C2221.28 641.696 2222.5 634.402 2218.79 627.862C2218.27 626.787 2216.74 623.686 2216.8 622.475C2216.45 621.826 2215.93 621.562 2215.4 621.562C2214.14 621.562 2212.83 623.056 2213.68 624.46Z" fill="#F1A5FF"/>
<path fill-rule="evenodd" clip-rule="evenodd" d="M2244.87 699.871V704.974H2170.87C2171.3 706.57 2168.93 708.22 2161.81 709.793C2175.54 723.134 2192.63 727.347 2207.73 723.968C2210.09 734.613 2229.98 740.705 2243.17 736.441C2243.35 733.717 2242.86 730.995 2241.75 728.503C2260.19 731.642 2305.18 717.496 2307.52 716.313C2309.64 715.919 2316.18 718.252 2322.67 720.588C2330.05 723.242 2337.38 725.893 2338.13 724.535C2339.55 721.983 2332.75 715.746 2335.87 707.809C2337.01 704.906 2336.78 702.306 2336.23 699.871H2244.87Z" fill="url(#paint3_linear_293_214)"/>
<path fill-rule="evenodd" clip-rule="evenodd" d="M2223.89 680.023H2224.17C2231.04 692.128 2226.51 701.483 2223.04 713.475C2222.03 715.884 2225.69 717.744 2226.73 715.176C2229.83 704.256 2234.07 692.142 2228.71 681.154L2229.28 680.873C2255.5 681.086 2282.08 685.409 2305.82 697.032C2307.4 697.39 2312.48 701.293 2313.47 698.166C2302.03 684.63 2257.48 676.916 2238.63 677.472C2237.81 677.628 2235.85 677.378 2233.62 677.131C2231.85 676.936 2229.92 676.74 2228.22 676.74C2225.07 676.74 2222.73 677.418 2223.89 680.023Z" fill="#373FFF"/>
<path fill-rule="evenodd" clip-rule="evenodd" d="M2223.89 680.023H2224.17C2228.23 687.691 2229.32 697.049 2225.31 704.97H2229.28C2231.36 696.93 2232.03 688.309 2228.43 680.59C2254.94 680.681 2281.79 685.435 2305.82 697.032C2307.39 697.39 2312.48 701.296 2313.47 698.166C2302.03 684.63 2257.48 676.913 2238.63 677.472C2237.81 677.628 2235.86 677.378 2233.61 677.131C2231.85 676.936 2229.92 676.74 2228.22 676.74C2225.06 676.74 2222.73 677.418 2223.89 680.023Z" fill="#F1A5FF"/>
<path fill-rule="evenodd" clip-rule="evenodd" d="M2213.69 681.442H2213.97C2219.47 688.934 2219.23 697.992 2215.67 706.105C2214.48 708.078 2217.44 710.051 2218.5 707.806C2220.49 703.607 2221.87 698.865 2221.91 694.199C2222.02 688.804 2219.32 683.52 2216.8 678.89C2215.4 676.427 2211.76 679.491 2213.69 681.442Z" fill="#373FFF"/>
<path fill-rule="evenodd" clip-rule="evenodd" d="M2219.64 704.97C2220.37 700.33 2222.12 695.615 2221.06 690.796C2220.91 687.992 2213.89 671.366 2213.12 681.157H2213.97C2219.06 688.355 2219.64 697.31 2215.95 705.254L2219.64 704.97Z" fill="#F1A5FF"/>
<path fill-rule="evenodd" clip-rule="evenodd" d="M2213.12 681.155H2213.97C2219.06 688.355 2219.64 697.311 2215.95 705.254L2219.64 704.971C2220.37 700.333 2222.12 695.615 2221.06 690.796C2220.95 688.616 2216.68 678.102 2214.42 678.102C2213.77 678.102 2213.29 678.969 2213.12 681.155Z" fill="#F1A5FF"/>
<path fill-rule="evenodd" clip-rule="evenodd" d="M2190.72 626.727C2194.95 626.727 2198.38 630.154 2198.38 634.381C2198.38 638.608 2194.95 642.035 2190.72 642.035C2186.5 642.035 2183.07 638.608 2183.07 634.381C2183.07 630.154 2186.5 626.727 2190.72 626.727Z" fill="black"/>
<path fill-rule="evenodd" clip-rule="evenodd" d="M2182.78 633.816C2182.94 629.277 2186.75 625.725 2191.28 625.884C2195.82 626.04 2199.37 629.847 2199.22 634.383C2199.07 638.808 2195.43 642.318 2191.01 642.321C2186.79 642.644 2183.11 639.489 2182.79 635.276C2182.78 635.262 2182.78 635.248 2182.78 635.233C2183.23 638.414 2186.11 640.674 2189.3 640.336C2192.91 640.336 2195.83 637.419 2195.83 633.816C2195.83 630.216 2192.91 627.296 2189.3 627.296C2185.7 627.296 2182.78 630.216 2182.78 633.816Z" fill="white"/>
<path fill-rule="evenodd" clip-rule="evenodd" d="M2186.19 633.814C2187.44 633.814 2188.46 634.829 2188.46 636.082C2188.46 637.335 2187.44 638.35 2186.19 638.35C2184.93 638.35 2183.92 637.335 2183.92 636.082C2183.92 634.829 2184.93 633.814 2186.19 633.814Z" fill="white"/>
<path fill-rule="evenodd" clip-rule="evenodd" d="M2190.72 683.428C2194.95 683.428 2198.38 686.852 2198.38 691.079C2198.38 695.306 2194.95 698.733 2190.72 698.733C2186.5 698.733 2183.07 695.306 2183.07 691.079C2183.07 686.852 2186.5 683.428 2190.72 683.428Z" fill="black"/>
<path fill-rule="evenodd" clip-rule="evenodd" d="M2182.78 690.228C2182.94 685.689 2186.75 682.137 2191.28 682.296C2195.82 682.452 2199.37 686.259 2199.22 690.795C2199.07 695.223 2195.43 698.73 2191.01 698.733C2186.79 699.056 2183.11 695.904 2182.79 691.688C2182.78 691.674 2182.78 691.66 2182.78 691.646C2183.08 694.92 2185.98 697.335 2189.25 697.038C2189.27 697.035 2189.29 697.032 2189.3 697.032C2192.91 697.029 2195.82 694.106 2195.82 690.506C2195.82 686.906 2192.89 683.989 2189.29 683.991C2185.8 683.997 2182.94 686.744 2182.78 690.228Z" fill="white"/>
<path fill-rule="evenodd" clip-rule="evenodd" d="M2186.19 690.516C2187.44 690.516 2188.46 691.528 2188.46 692.784C2188.46 694.034 2187.44 695.051 2186.19 695.051C2184.93 695.051 2183.92 694.034 2183.92 692.784C2183.92 691.528 2184.93 690.516 2186.19 690.516Z" fill="white"/>
</g>
<g filter="url(#filter8_i_293_214)">
<path d="M448.773 1137.05C459.271 1054.86 401.232 979.725 319.197 969.227C237.161 958.729 161.725 1016.77 151.227 1098.8C140.729 1180.84 198.768 1256.13 280.803 1266.77C362.989 1277.27 438.125 1219.23 448.773 1137.05Z" fill="#2D2D2D"/>
<path d="M340.76 1042.58C340.76 1037.4 334.961 1037.4 332.383 1038.05C335.991 1035.2 340.223 1035.89 341.726 1036.75L376.573 1053.84C379.893 1055.47 381.999 1058.86 381.999 1062.57V1174.97C381.999 1178.73 379.837 1182.16 376.449 1183.76L343.66 1199.26C341.404 1200.23 336.507 1202.63 332.383 1199.26C337.538 1200.24 340.33 1196.57 340.76 1194.08V1042.58Z" fill="url(#paint4_linear_293_214)"/>
<path d="M332.802 1037.96C335.537 1037.42 340.761 1037.67 340.761 1042.58V1081.27L235.112 1161.2C233.266 1162.59 230.667 1162.36 229.094 1160.66L218.205 1148.88C216.499 1147.03 216.619 1144.14 218.471 1142.45L332.383 1038.05L332.802 1037.96Z" fill="url(#paint5_linear_293_214)"/>
<path d="M340.761 1156.04L235.112 1076.12C233.266 1074.72 230.667 1074.95 229.094 1076.66L218.205 1088.44C216.499 1090.28 216.619 1093.17 218.471 1094.87L332.383 1199.27C337.538 1200.24 340.331 1196.57 340.761 1194.09V1156.04Z" fill="url(#paint6_linear_293_214)"/>
</g>
<g filter="url(#filter9_i_293_214)">
<path d="M1098.77 1137.05C1109.27 1054.86 1051.23 979.725 969.197 969.227C887.161 958.729 811.725 1016.77 801.227 1098.8C790.729 1180.84 848.768 1256.13 930.803 1266.77C1012.99 1277.27 1088.13 1219.23 1098.77 1137.05Z" fill="#2B235D"/>
<path fill-rule="evenodd" clip-rule="evenodd" d="M950 1028C999.707 1028 1040 1069.31 1040 1120.28C1040 1161.04 1014.24 1195.62 978.503 1207.83C973.94 1208.74 972.32 1205.86 972.32 1203.4C972.32 1200.36 972.428 1190.42 972.428 1178.07C972.428 1169.47 969.548 1163.85 966.317 1160.99C986.36 1158.71 1007.42 1150.9 1007.42 1115.46C1007.42 1105.38 1003.93 1097.15 998.15 1090.69C999.086 1088.36 1002.17 1078.98 997.268 1066.27C997.268 1066.27 989.726 1063.79 972.545 1075.73C965.354 1073.69 957.65 1072.66 950 1072.62C942.35 1072.66 934.655 1073.69 927.473 1075.73C910.274 1063.79 902.714 1066.27 902.714 1066.27C897.827 1078.98 900.914 1088.36 901.841 1090.69C896.09 1097.15 892.571 1105.38 892.571 1115.46C892.571 1150.81 913.586 1158.74 933.575 1161.07C931.001 1163.37 928.67 1167.43 927.86 1173.4C922.73 1175.76 909.698 1179.84 901.67 1165.74C901.67 1165.74 896.909 1156.87 887.873 1156.22C887.873 1156.22 879.098 1156.11 887.261 1161.83C887.261 1161.83 893.156 1164.67 897.251 1175.33C897.251 1175.33 902.534 1191.8 927.572 1186.22C927.617 1193.93 927.698 1201.2 927.698 1203.4C927.698 1205.84 926.042 1208.69 921.551 1207.84C885.785 1195.64 860 1161.05 860 1120.28C860 1069.31 900.302 1028 950 1028Z" fill="white"/>
</g>
<g filter="url(#filter10_i_293_214)">
<path d="M1748.77 1137.05C1759.27 1054.86 1701.23 979.725 1619.2 969.227C1537.16 958.729 1461.72 1016.77 1451.23 1098.8C1440.73 1180.84 1498.77 1256.13 1580.8 1266.77C1662.99 1277.27 1738.13 1219.23 1748.77 1137.05Z" fill="#470137"/>
<path d="M1606.22 1068.69L1575.96 1119.92L1608.34 1174.32C1609.01 1175.56 1608.34 1175.83 1607.36 1175.83H1584.26C1582.63 1175.83 1581.49 1175.77 1580.84 1174.66C1578.67 1170.32 1576.5 1166.01 1574.33 1161.72C1572.16 1157.44 1569.86 1153.07 1567.42 1148.62C1564.98 1144.18 1562.56 1139.67 1560.18 1135.11C1558.01 1139.56 1555.59 1144.01 1553.26 1148.46C1550.93 1152.91 1548.62 1157.33 1546.35 1161.72C1544.07 1166.12 1541.74 1170.49 1539.35 1174.82C1538.92 1175.82 1538.16 1175.93 1537.07 1175.93H1514.78C1513.91 1175.93 1513.8 1175.27 1514.29 1174.49L1545.7 1121.59L1515.11 1068.52C1514.55 1067.76 1515.03 1066.96 1515.92 1067.02H1538.86C1539.86 1066.96 1540.73 1067.34 1541.3 1068.19C1543.26 1072.64 1545.42 1077.09 1547.81 1081.54C1550.2 1085.99 1552.61 1090.38 1555.05 1094.72C1557.49 1099.06 1559.91 1103.45 1561.97 1107.91C1564.13 1103.34 1566.33 1098.89 1568.56 1094.56C1570.78 1090.22 1573.06 1085.85 1575.39 1081.46C1577.72 1077.06 1579.97 1072.7 1582.14 1068.36C1582.43 1067.4 1583.12 1066.92 1584.09 1067.02H1605.41C1606.22 1067.02 1606.56 1068.13 1606.22 1068.69Z" fill="#FF61F6"/>
<path d="M1652.92 1177.99C1638.57 1178.22 1623.54 1172.31 1615.98 1159.22C1612.29 1152.94 1610.45 1145.07 1610.45 1135.61C1610.39 1127.95 1612.3 1120.41 1615.98 1113.75C1625.49 1096.75 1644.65 1090.38 1662.84 1092.05V1059.18C1662.84 1058.4 1663.17 1058.01 1663.82 1058.01H1684.32C1684.88 1057.93 1685.38 1058.44 1685.3 1059.01V1157.63C1685.3 1161.7 1685.7 1165.76 1685.95 1169.82C1685.99 1170.51 1685.59 1171.2 1684.97 1171.49C1674.84 1175.82 1663.88 1177.94 1652.92 1177.99ZM1662.84 1157.3V1111.74C1647.98 1107.61 1633.55 1118.93 1633.56 1134.61C1633.2 1150.81 1647.17 1162 1662.84 1157.3Z" fill="#FF61F6"/>
</g>
<g filter="url(#filter11_i_293_214)">
<path d="M2398.77 1137.05C2409.27 1054.86 2351.23 979.725 2269.2 969.227C2187.16 958.729 2111.72 1016.77 2101.23 1098.8C2090.73 1180.84 2148.77 1256.13 2230.8 1266.77C2312.99 1277.27 2388.13 1219.23 2398.77 1137.05Z" fill="#0F283D"/>
<path d="M2251.17 1178H2180.8C2179.61 1178 2179.01 1177.33 2179.01 1175.99V1059.66C2178.88 1058.72 2179.7 1057.88 2180.62 1058.01H2202.41C2203.13 1057.91 2203.76 1058.57 2203.66 1059.3V1154.92H2254.92C2255.99 1154.92 2256.41 1155.47 2256.17 1156.57L2252.96 1176.35C2252.93 1177.35 2252.11 1177.99 2251.17 1178Z" fill="#31A8FF"/>
<path d="M2269.05 1086.83H2288.51C2289.59 1086.84 2290.55 1087.6 2290.84 1088.66C2292.26 1091.91 2292.44 1095.83 2292.44 1099.33C2295.78 1095.35 2299.81 1092.03 2304.32 1089.53C2309.16 1086.73 2314.65 1085.3 2320.21 1085.41C2321.13 1085.28 2321.95 1086.12 2321.81 1087.06V1109.23C2321.81 1110.08 2321.22 1110.51 2320.03 1110.51C2311.79 1109.93 2298.96 1111.92 2292.97 1118.57V1176.2C2292.97 1177.3 2292.5 1177.85 2291.54 1177.85H2270.65C2269.63 1178 2268.72 1177.05 2268.87 1176.02V1113.44C2268.87 1105.05 2269.05 1096.42 2267.8 1088.11C2267.6 1087.35 2268.32 1086.64 2269.05 1086.83Z" fill="#31A8FF"/>
</g>
<defs>
<filter id="filter0_i_293_214" x="150" y="68" width="300" height="300" filterUnits="userSpaceOnUse" color-interpolation-filters="sRGB">
<feFlood flood-opacity="0" result="BackgroundImageFix"/>
<feBlend mode="normal" in="SourceGraphic" in2="BackgroundImageFix" result="shape"/>
<feColorMatrix in="SourceAlpha" type="matrix" values="0 0 0 0 0 0 0 0 0 0 0 0 0 0 0 0 0 0 127 0" result="hardAlpha"/>
<feOffset/>
<feGaussianBlur stdDeviation="25"/>
<feComposite in2="hardAlpha" operator="arithmetic" k2="-1" k3="1"/>
<feColorMatrix type="matrix" values="0 0 0 0 1 0 0 0 0 1 0 0 0 0 1 0 0 0 1 0"/>
<feBlend mode="overlay" in2="shape" result="effect1_innerShadow_293_214"/>
</filter>
<filter id="filter1_i_293_214" x="1450" y="68" width="300" height="300" filterUnits="userSpaceOnUse" color-interpolation-filters="sRGB">
<feFlood flood-opacity="0" result="BackgroundImageFix"/>
<feBlend mode="normal" in="SourceGraphic" in2="BackgroundImageFix" result="shape"/>
<feColorMatrix in="SourceAlpha" type="matrix" values="0 0 0 0 0 0 0 0 0 0 0 0 0 0 0 0 0 0 127 0" result="hardAlpha"/>
<feOffset/>
<feGaussianBlur stdDeviation="25"/>
<feComposite in2="hardAlpha" operator="arithmetic" k2="-1" k3="1"/>
<feColorMatrix type="matrix" values="0 0 0 0 1 0 0 0 0 1 0 0 0 0 1 0 0 0 1 0"/>
<feBlend mode="overlay" in2="shape" result="effect1_innerShadow_293_214"/>
</filter>
<filter id="filter2_i_293_214" x="150" y="518" width="300" height="300" filterUnits="userSpaceOnUse" color-interpolation-filters="sRGB">
<feFlood flood-opacity="0" result="BackgroundImageFix"/>
<feBlend mode="normal" in="SourceGraphic" in2="BackgroundImageFix" result="shape"/>
<feColorMatrix in="SourceAlpha" type="matrix" values="0 0 0 0 0 0 0 0 0 0 0 0 0 0 0 0 0 0 127 0" result="hardAlpha"/>
<feOffset/>
<feGaussianBlur stdDeviation="25"/>
<feComposite in2="hardAlpha" operator="arithmetic" k2="-1" k3="1"/>
<feColorMatrix type="matrix" values="0 0 0 0 1 0 0 0 0 1 0 0 0 0 1 0 0 0 1 0"/>
<feBlend mode="overlay" in2="shape" result="effect1_innerShadow_293_214"/>
</filter>
<filter id="filter3_i_293_214" x="2100" y="68" width="300" height="300" filterUnits="userSpaceOnUse" color-interpolation-filters="sRGB">
<feFlood flood-opacity="0" result="BackgroundImageFix"/>
<feBlend mode="normal" in="SourceGraphic" in2="BackgroundImageFix" result="shape"/>
<feColorMatrix in="SourceAlpha" type="matrix" values="0 0 0 0 0 0 0 0 0 0 0 0 0 0 0 0 0 0 127 0" result="hardAlpha"/>
<feOffset/>
<feGaussianBlur stdDeviation="25"/>
<feComposite in2="hardAlpha" operator="arithmetic" k2="-1" k3="1"/>
<feColorMatrix type="matrix" values="0 0 0 0 1 0 0 0 0 1 0 0 0 0 1 0 0 0 1 0"/>
<feBlend mode="overlay" in2="shape" result="effect1_innerShadow_293_214"/>
</filter>
<filter id="filter4_i_293_214" x="800" y="68" width="300" height="300" filterUnits="userSpaceOnUse" color-interpolation-filters="sRGB">
<feFlood flood-opacity="0" result="BackgroundImageFix"/>
<feBlend mode="normal" in="SourceGraphic" in2="BackgroundImageFix" result="shape"/>
<feColorMatrix in="SourceAlpha" type="matrix" values="0 0 0 0 0 0 0 0 0 0 0 0 0 0 0 0 0 0 127 0" result="hardAlpha"/>
<feOffset/>
<feGaussianBlur stdDeviation="25"/>
<feComposite in2="hardAlpha" operator="arithmetic" k2="-1" k3="1"/>
<feColorMatrix type="matrix" values="0 0 0 0 1 0 0 0 0 1 0 0 0 0 1 0 0 0 1 0"/>
<feBlend mode="overlay" in2="shape" result="effect1_innerShadow_293_214"/>
</filter>
<filter id="filter5_i_293_214" x="800" y="518" width="300" height="300" filterUnits="userSpaceOnUse" color-interpolation-filters="sRGB">
<feFlood flood-opacity="0" result="BackgroundImageFix"/>
<feBlend mode="normal" in="SourceGraphic" in2="BackgroundImageFix" result="shape"/>
<feColorMatrix in="SourceAlpha" type="matrix" values="0 0 0 0 0 0 0 0 0 0 0 0 0 0 0 0 0 0 127 0" result="hardAlpha"/>
<feOffset/>
<feGaussianBlur stdDeviation="25"/>
<feComposite in2="hardAlpha" operator="arithmetic" k2="-1" k3="1"/>
<feColorMatrix type="matrix" values="0 0 0 0 1 0 0 0 0 1 0 0 0 0 1 0 0 0 1 0"/>
<feBlend mode="overlay" in2="shape" result="effect1_innerShadow_293_214"/>
</filter>
<filter id="filter6_i_293_214" x="1450" y="518" width="300" height="300" filterUnits="userSpaceOnUse" color-interpolation-filters="sRGB">
<feFlood flood-opacity="0" result="BackgroundImageFix"/>
<feBlend mode="normal" in="SourceGraphic" in2="BackgroundImageFix" result="shape"/>
<feColorMatrix in="SourceAlpha" type="matrix" values="0 0 0 0 0 0 0 0 0 0 0 0 0 0 0 0 0 0 127 0" result="hardAlpha"/>
<feOffset/>
<feGaussianBlur stdDeviation="25"/>
<feComposite in2="hardAlpha" operator="arithmetic" k2="-1" k3="1"/>
<feColorMatrix type="matrix" values="0 0 0 0 1 0 0 0 0 1 0 0 0 0 1 0 0 0 1 0"/>
<feBlend mode="overlay" in2="shape" result="effect1_innerShadow_293_214"/>
</filter>
<filter id="filter7_i_293_214" x="2100" y="518" width="300" height="300" filterUnits="userSpaceOnUse" color-interpolation-filters="sRGB">
<feFlood flood-opacity="0" result="BackgroundImageFix"/>
<feBlend mode="normal" in="SourceGraphic" in2="BackgroundImageFix" result="shape"/>
<feColorMatrix in="SourceAlpha" type="matrix" values="0 0 0 0 0 0 0 0 0 0 0 0 0 0 0 0 0 0 127 0" result="hardAlpha"/>
<feOffset/>
<feGaussianBlur stdDeviation="25"/>
<feComposite in2="hardAlpha" operator="arithmetic" k2="-1" k3="1"/>
<feColorMatrix type="matrix" values="0 0 0 0 1 0 0 0 0 1 0 0 0 0 1 0 0 0 1 0"/>
<feBlend mode="overlay" in2="shape" result="effect1_innerShadow_293_214"/>
</filter>
<filter id="filter8_i_293_214" x="150" y="968" width="300" height="300" filterUnits="userSpaceOnUse" color-interpolation-filters="sRGB">
<feFlood flood-opacity="0" result="BackgroundImageFix"/>
<feBlend mode="normal" in="SourceGraphic" in2="BackgroundImageFix" result="shape"/>
<feColorMatrix in="SourceAlpha" type="matrix" values="0 0 0 0 0 0 0 0 0 0 0 0 0 0 0 0 0 0 127 0" result="hardAlpha"/>
<feOffset/>
<feGaussianBlur stdDeviation="25"/>
<feComposite in2="hardAlpha" operator="arithmetic" k2="-1" k3="1"/>
<feColorMatrix type="matrix" values="0 0 0 0 1 0 0 0 0 1 0 0 0 0 1 0 0 0 1 0"/>
<feBlend mode="overlay" in2="shape" result="effect1_innerShadow_293_214"/>
</filter>
<filter id="filter9_i_293_214" x="800" y="968" width="300" height="300" filterUnits="userSpaceOnUse" color-interpolation-filters="sRGB">
<feFlood flood-opacity="0" result="BackgroundImageFix"/>
<feBlend mode="normal" in="SourceGraphic" in2="BackgroundImageFix" result="shape"/>
<feColorMatrix in="SourceAlpha" type="matrix" values="0 0 0 0 0 0 0 0 0 0 0 0 0 0 0 0 0 0 127 0" result="hardAlpha"/>
<feOffset/>
<feGaussianBlur stdDeviation="25"/>
<feComposite in2="hardAlpha" operator="arithmetic" k2="-1" k3="1"/>
<feColorMatrix type="matrix" values="0 0 0 0 1 0 0 0 0 1 0 0 0 0 1 0 0 0 1 0"/>
<feBlend mode="overlay" in2="shape" result="effect1_innerShadow_293_214"/>
</filter>
<filter id="filter10_i_293_214" x="1450" y="968" width="300" height="300" filterUnits="userSpaceOnUse" color-interpolation-filters="sRGB">
<feFlood flood-opacity="0" result="BackgroundImageFix"/>
<feBlend mode="normal" in="SourceGraphic" in2="BackgroundImageFix" result="shape"/>
<feColorMatrix in="SourceAlpha" type="matrix" values="0 0 0 0 0 0 0 0 0 0 0 0 0 0 0 0 0 0 127 0" result="hardAlpha"/>
<feOffset/>
<feGaussianBlur stdDeviation="25"/>
<feComposite in2="hardAlpha" operator="arithmetic" k2="-1" k3="1"/>
<feColorMatrix type="matrix" values="0 0 0 0 1 0 0 0 0 1 0 0 0 0 1 0 0 0 1 0"/>
<feBlend mode="overlay" in2="shape" result="effect1_innerShadow_293_214"/>
</filter>
<filter id="filter11_i_293_214" x="2100" y="968" width="300" height="300" filterUnits="userSpaceOnUse" color-interpolation-filters="sRGB">
<feFlood flood-opacity="0" result="BackgroundImageFix"/>
<feBlend mode="normal" in="SourceGraphic" in2="BackgroundImageFix" result="shape"/>
<feColorMatrix in="SourceAlpha" type="matrix" values="0 0 0 0 0 0 0 0 0 0 0 0 0 0 0 0 0 0 127 0" result="hardAlpha"/>
<feOffset/>
<feGaussianBlur stdDeviation="25"/>
<feComposite in2="hardAlpha" operator="arithmetic" k2="-1" k3="1"/>
<feColorMatrix type="matrix" values="0 0 0 0 1 0 0 0 0 1 0 0 0 0 1 0 0 0 1 0"/>
<feBlend mode="overlay" in2="shape" result="effect1_innerShadow_293_214"/>
</filter>
<linearGradient id="paint0_linear_293_214" x1="10845.4" y1="597.812" x2="10845.4" y2="5697.77" gradientUnits="userSpaceOnUse">
<stop stop-color="#E459FF"/>
<stop offset="1" stop-color="#914DFF"/>
</linearGradient>
<linearGradient id="paint1_linear_293_214" x1="6338.83" y1="2031.91" x2="11562.2" y2="5520.13" gradientUnits="userSpaceOnUse">
<stop stop-color="#F0A5FF"/>
<stop offset="1" stop-color="#FF676B"/>
</linearGradient>
<linearGradient id="paint2_linear_293_214" x1="11146.7" y1="572.865" x2="11146.7" y2="4930.08" gradientUnits="userSpaceOnUse">
<stop stop-color="#6E3BFF"/>
<stop offset="1" stop-color="#3633FF"/>
</linearGradient>
<linearGradient id="paint3_linear_293_214" x1="9323.35" y1="2508.66" x2="10668.2" y2="4119.21" gradientUnits="userSpaceOnUse">
<stop stop-color="#F0A5FF"/>
<stop offset="1" stop-color="#FF676B"/>
</linearGradient>
<linearGradient id="paint4_linear_293_214" x1="357.191" y1="1036" x2="357.191" y2="1201" gradientUnits="userSpaceOnUse">
<stop stop-color="#32B5F1"/>
<stop offset="1" stop-color="#2B9FED"/>
</linearGradient>
<linearGradient id="paint5_linear_293_214" x1="340.761" y1="1056.83" x2="223.021" y2="1155.66" gradientUnits="userSpaceOnUse">
<stop stop-color="#0F6FB3"/>
<stop offset="0.270551" stop-color="#1279B7"/>
<stop offset="0.421376" stop-color="#1176B5"/>
<stop offset="0.618197" stop-color="#0E69AC"/>
<stop offset="0.855344" stop-color="#0F70AF"/>
<stop offset="1" stop-color="#0F6DAD"/>
</linearGradient>
<linearGradient id="paint6_linear_293_214" x1="223.808" y1="1083.05" x2="341.216" y2="1180.26" gradientUnits="userSpaceOnUse">
<stop stop-color="#1791D2"/>
<stop offset="1" stop-color="#1173C5"/>
</linearGradient>
</defs>
</svg>
