<svg width="1605" height="144" viewBox="0 0 1605 144" fill="none" xmlns="http://www.w3.org/2000/svg">
<rect width="1605" height="144" />
<path d="M715.193 56.375C714.979 55.9844 714.871 55.4961 714.871 54.9102C714.871 54.0312 715.184 53.4355 715.809 53.123C716.453 52.8105 718.357 52.6348 721.521 52.5957C725.408 52.5762 728.895 52.4395 731.98 52.1855C735.086 51.9121 739.861 51.3359 746.307 50.457C748.748 50.125 751.072 49.959 753.279 49.959C754.393 49.959 755.447 50.0273 756.443 50.1641C757.459 50.3008 758.172 50.4375 758.582 50.5742C759.012 50.6914 759.354 51.043 759.607 51.6289C759.861 52.1953 759.988 52.6348 759.988 52.9473C759.988 54.334 759.5 55.0273 758.523 55.0273C757.879 55.0273 757 54.9688 755.887 54.8516C754.754 54.7539 753.221 54.7051 751.287 54.7051C749.295 54.7051 746.873 54.8516 744.021 55.1445C741.189 55.418 739.617 55.877 739.305 56.5215C738.992 57.166 738.475 60.9746 737.752 67.9473C737.049 74.9199 736.697 80.1152 736.697 83.5332C736.697 85.1152 736.941 86.9414 737.43 89.0117C737.508 89.4023 737.547 89.6367 737.547 89.7148C737.547 90.5742 737.312 91.3457 736.844 92.0293C736.375 92.7324 735.809 93.084 735.145 93.084C734.129 93.084 733.279 92.5957 732.596 91.6191C731.932 90.6426 731.6 87.9082 731.6 83.416C731.6 79.1582 732.41 70.8477 734.031 58.4844C734.109 57.8203 734.148 57.4785 734.148 57.459C734.148 56.7949 733.787 56.4629 733.064 56.4629C731.893 56.4629 729.656 56.6094 726.355 56.9023C723.055 57.2148 720.701 57.3711 719.295 57.3711C717.186 57.3711 715.818 57.0391 715.193 56.375ZM765.684 93.4648C763.008 93.4648 760.801 92.4492 759.062 90.418C757.324 88.3867 756.455 85.877 756.455 82.8887C756.455 77.8496 758.145 72.8887 761.523 68.0059C764.922 63.1035 768.984 60.6523 773.711 60.6523C776.836 60.6523 779.365 61.8535 781.299 64.2559C783.252 66.6582 784.229 69.5195 784.229 72.8398C784.229 77.918 782.217 82.625 778.193 86.9609C774.189 91.2969 770.02 93.4648 765.684 93.4648ZM761.611 82.127C761.611 84.0996 762.021 85.7109 762.842 86.9609C763.682 88.2109 764.785 88.8359 766.152 88.8359C769.062 88.8359 771.982 87.2441 774.912 84.0605C777.842 80.8574 779.307 77.3027 779.307 73.3965C779.307 70.9941 778.74 69.0508 777.607 67.5664C776.494 66.0625 774.99 65.3105 773.096 65.3105C769.951 65.3105 767.246 67.2441 764.98 71.1113C762.734 74.959 761.611 78.6309 761.611 82.127ZM802.609 93.4648C799.934 93.4648 797.727 92.4492 795.988 90.418C794.25 88.3867 793.381 85.877 793.381 82.8887C793.381 77.8496 795.07 72.8887 798.449 68.0059C801.848 63.1035 805.91 60.6523 810.637 60.6523C813.762 60.6523 816.291 61.8535 818.225 64.2559C820.178 66.6582 821.154 69.5195 821.154 72.8398C821.154 77.918 819.143 82.625 815.119 86.9609C811.115 91.2969 806.945 93.4648 802.609 93.4648ZM798.537 82.127C798.537 84.0996 798.947 85.7109 799.768 86.9609C800.607 88.2109 801.711 88.8359 803.078 88.8359C805.988 88.8359 808.908 87.2441 811.838 84.0605C814.768 80.8574 816.232 77.3027 816.232 73.3965C816.232 70.9941 815.666 69.0508 814.533 67.5664C813.42 66.0625 811.916 65.3105 810.021 65.3105C806.877 65.3105 804.172 67.2441 801.906 71.1113C799.66 74.959 798.537 78.6309 798.537 82.127ZM841.234 42.4004C842.641 42.4004 843.344 43.2988 843.344 45.0957C843.344 46.6973 842.494 50.5059 840.795 56.5215C839.721 60.3105 838.891 64.4902 838.305 69.0605C837.719 73.6309 837.426 77.2148 837.426 79.8125C837.426 83.0352 837.631 86.2383 838.041 89.4219C838.119 90.0273 838.158 90.4668 838.158 90.7402C838.158 91.7168 837.826 92.5566 837.162 93.2598C836.498 93.9629 835.795 94.3145 835.053 94.3145C834.018 94.3145 833.295 93.6699 832.885 92.3809C832.494 91.0918 832.299 89.0117 832.299 86.1406C832.299 79.5977 833.08 71.4922 834.643 61.8242C836.225 52.1562 837.475 46.502 838.393 44.8613C839.33 43.2207 840.277 42.4004 841.234 42.4004ZM851.822 45.6816C851.881 45.4863 852.271 45.2324 852.994 44.9199C853.736 44.5879 854.264 44.4219 854.576 44.4219C854.889 44.4219 855.494 44.8809 856.393 45.7988L857.184 46.6191C858.062 47.498 858.736 48.5137 859.205 49.666C859.4 50.0762 859.498 50.7305 859.498 51.6289C859.498 53.2891 858.912 55.7891 857.74 59.1289C856.588 62.4492 855.211 64.1094 853.609 64.1094C853.023 64.1094 852.516 63.9336 852.086 63.582C851.656 63.2305 851.441 62.7812 851.441 62.2344C851.441 61.2383 851.842 60.3984 852.643 59.7148C854.498 58.0742 855.426 55.9746 855.426 53.416C855.426 52.4395 854.596 51.2188 852.936 49.7539C852.408 49.2852 852.096 48.9922 851.998 48.875C851.9 48.7383 851.832 48.1914 851.793 47.2344C851.754 46.2773 851.764 45.7598 851.822 45.6816ZM883.123 85.291C883.123 84.0215 881.561 82.5762 878.436 80.9551C874.471 78.9238 871.785 77.3027 870.379 76.0918C868.992 74.8613 868.299 73.4941 868.299 71.9902C868.299 68.1035 870.242 64.8809 874.129 62.3223C878.035 59.7637 881.219 58.4844 883.68 58.4844C885.262 58.4844 886.404 58.7578 887.107 59.3047C887.83 59.8516 888.191 60.7988 888.191 62.1465C888.191 62.752 887.928 63.2695 887.4 63.6992C886.893 64.1289 886.492 64.3438 886.199 64.3438C885.984 64.3438 885.564 64.1973 884.939 63.9043C884.314 63.6309 883.904 63.4941 883.709 63.4941C882.732 63.4941 880.75 64.207 877.762 65.6328C874.773 67.0586 873.279 68.6699 873.279 70.4668C873.279 71.5605 873.807 72.5566 874.861 73.4551C875.916 74.334 877.811 75.418 880.545 76.707C882.752 77.7617 884.51 78.8945 885.818 80.1055C887.146 81.2969 887.811 82.7031 887.811 84.3242C887.811 87.3125 885.75 89.6562 881.629 91.3555C877.508 93.0352 873.572 93.875 869.822 93.875C866.658 93.875 865.076 92.8008 865.076 90.6523C865.076 89.9102 865.428 89.3633 866.131 89.0117C866.854 88.6602 867.576 88.4844 868.299 88.4844C868.592 88.4844 869.148 88.582 869.969 88.7773C870.77 88.9727 871.297 89.0703 871.551 89.0703C873.719 89.0703 876.043 88.709 878.523 87.9863C881.004 87.2637 882.537 86.3652 883.123 85.291Z" fill="white"/>
<path d="M641 108.341C842 200.5 1134.96 75.9999 1603.5 76" stroke="url(#paint0_linear_254_280)" stroke-width="3" stroke-linecap="square"/>
<path d="M948.5 27.4114C744.285 -54.6741 469.773 88.5001 1.5 88.5" stroke="url(#paint1_linear_254_280)" stroke-width="3" stroke-linecap="square"/>
<defs>
<linearGradient id="paint0_linear_254_280" x1="754" y1="142" x2="716.716" y2="50.8815" gradientUnits="userSpaceOnUse">
<stop stop-color="white"/>
<stop offset="1" stop-opacity="0"/>
</linearGradient>
<linearGradient id="paint1_linear_254_280" x1="789.724" y1="43.8234" x2="844.327" y2="124.891" gradientUnits="userSpaceOnUse">
<stop stop-color="white"/>
<stop offset="1" stop-opacity="0"/>
</linearGradient>
</defs>
</svg>
